<svg xmlns="http://www.w3.org/2000/svg" xmlns:xlink="http://www.w3.org/1999/xlink" width="1080" zoomAndPan="magnify" viewBox="0 0 810 809.999993" height="1080" preserveAspectRatio="xMidYMid meet" version="1.0"><defs><clipPath id="ee68b07f0c"><path d="M 165 146 L 186 146 L 186 167 L 165 167 Z M 165 146 " clip-rule="nonzero"/></clipPath><clipPath id="5d58cf1ce1"><path d="M 169.742188 163.964844 C 167.558594 162.3125 166.289062 160.175781 165.84375 157.546875 C 165.417969 154.835938 165.992188 152.417969 167.558594 150.300781 C 169.148438 148.183594 171.308594 146.953125 174 146.613281 C 176.625 146.296875 179.042969 146.953125 181.203125 148.605469 C 183.449219 150.257812 184.761719 152.417969 185.1875 155.132812 C 185.609375 157.757812 185.015625 160.152344 183.40625 162.292969 C 181.796875 164.390625 179.699219 165.617188 177.050781 165.957031 C 174.339844 166.277344 171.921875 165.617188 169.742188 163.964844 " clip-rule="evenodd"/></clipPath><radialGradient gradientTransform="matrix(0.936477, 0.382713, 0.352527, -0.92333, 1141.947014, -525.098795)" gradientUnits="userSpaceOnUse" r="17.247795" cx="0" id="1d43f6522d" cy="0" fx="0" fy="0"><stop stop-opacity="1" stop-color="rgb(57.446289%, 2.047729%, 2.165222%)" offset="0"/><stop stop-opacity="1" stop-color="rgb(57.215881%, 2.120972%, 2.415466%)" offset="0.0078125"/><stop stop-opacity="1" stop-color="rgb(57.063293%, 2.1698%, 2.581787%)" offset="0.0117188"/><stop stop-opacity="1" stop-color="rgb(56.90918%, 2.218628%, 2.749634%)" offset="0.015625"/><stop stop-opacity="1" stop-color="rgb(56.756592%, 2.267456%, 2.915955%)" offset="0.0195312"/><stop stop-opacity="1" stop-color="rgb(56.604004%, 2.316284%, 3.082275%)" offset="0.0234375"/><stop stop-opacity="1" stop-color="rgb(56.44989%, 2.365112%, 3.250122%)" offset="0.0273438"/><stop stop-opacity="1" stop-color="rgb(56.297302%, 2.41394%, 3.416443%)" offset="0.03125"/><stop stop-opacity="1" stop-color="rgb(56.144714%, 2.462769%, 3.582764%)" offset="0.0351562"/><stop stop-opacity="1" stop-color="rgb(55.990601%, 2.511597%, 3.75061%)" offset="0.0390625"/><stop stop-opacity="1" stop-color="rgb(55.838013%, 2.560425%, 3.916931%)" offset="0.0429688"/><stop stop-opacity="1" stop-color="rgb(55.685425%, 2.609253%, 4.083252%)" offset="0.046875"/><stop stop-opacity="1" stop-color="rgb(55.531311%, 2.658081%, 4.251099%)" offset="0.0507812"/><stop stop-opacity="1" stop-color="rgb(55.378723%, 2.706909%, 4.417419%)" offset="0.0546875"/><stop stop-opacity="1" stop-color="rgb(55.226135%, 2.755737%, 4.58374%)" offset="0.0585938"/><stop stop-opacity="1" stop-color="rgb(55.072021%, 2.804565%, 4.751587%)" offset="0.0625"/><stop stop-opacity="1" stop-color="rgb(54.919434%, 2.853394%, 4.917908%)" offset="0.0664062"/><stop stop-opacity="1" stop-color="rgb(54.766846%, 2.902222%, 5.084229%)" offset="0.0703125"/><stop stop-opacity="1" stop-color="rgb(54.612732%, 2.95105%, 5.250549%)" offset="0.0742188"/><stop stop-opacity="1" stop-color="rgb(54.460144%, 2.999878%, 5.418396%)" offset="0.078125"/><stop stop-opacity="1" stop-color="rgb(54.30603%, 3.048706%, 5.584717%)" offset="0.0820312"/><stop stop-opacity="1" stop-color="rgb(54.153442%, 3.097534%, 5.751038%)" offset="0.0859375"/><stop stop-opacity="1" stop-color="rgb(54.000854%, 3.146362%, 5.918884%)" offset="0.0898438"/><stop stop-opacity="1" stop-color="rgb(53.846741%, 3.19519%, 6.085205%)" offset="0.09375"/><stop stop-opacity="1" stop-color="rgb(53.694153%, 3.244019%, 6.251526%)" offset="0.0976562"/><stop stop-opacity="1" stop-color="rgb(53.541565%, 3.292847%, 6.419373%)" offset="0.101562"/><stop stop-opacity="1" stop-color="rgb(53.387451%, 3.341675%, 6.585693%)" offset="0.105469"/><stop stop-opacity="1" stop-color="rgb(53.234863%, 3.390503%, 6.752014%)" offset="0.109375"/><stop stop-opacity="1" stop-color="rgb(53.082275%, 3.439331%, 6.919861%)" offset="0.113281"/><stop stop-opacity="1" stop-color="rgb(52.928162%, 3.488159%, 7.086182%)" offset="0.117188"/><stop stop-opacity="1" stop-color="rgb(52.775574%, 3.536987%, 7.252502%)" offset="0.121094"/><stop stop-opacity="1" stop-color="rgb(52.622986%, 3.585815%, 7.420349%)" offset="0.125"/><stop stop-opacity="1" stop-color="rgb(52.468872%, 3.634644%, 7.58667%)" offset="0.128906"/><stop stop-opacity="1" stop-color="rgb(52.316284%, 3.683472%, 7.752991%)" offset="0.132812"/><stop stop-opacity="1" stop-color="rgb(52.163696%, 3.7323%, 7.919312%)" offset="0.136719"/><stop stop-opacity="1" stop-color="rgb(52.009583%, 3.781128%, 8.087158%)" offset="0.140625"/><stop stop-opacity="1" stop-color="rgb(51.856995%, 3.829956%, 8.253479%)" offset="0.144531"/><stop stop-opacity="1" stop-color="rgb(51.704407%, 3.878784%, 8.4198%)" offset="0.148438"/><stop stop-opacity="1" stop-color="rgb(51.550293%, 3.927612%, 8.587646%)" offset="0.152344"/><stop stop-opacity="1" stop-color="rgb(51.397705%, 3.97644%, 8.753967%)" offset="0.15625"/><stop stop-opacity="1" stop-color="rgb(51.243591%, 4.025269%, 8.920288%)" offset="0.160156"/><stop stop-opacity="1" stop-color="rgb(51.091003%, 4.074097%, 9.088135%)" offset="0.164062"/><stop stop-opacity="1" stop-color="rgb(50.938416%, 4.122925%, 9.254456%)" offset="0.167969"/><stop stop-opacity="1" stop-color="rgb(50.784302%, 4.171753%, 9.420776%)" offset="0.171875"/><stop stop-opacity="1" stop-color="rgb(50.631714%, 4.220581%, 9.588623%)" offset="0.175781"/><stop stop-opacity="1" stop-color="rgb(50.479126%, 4.269409%, 9.754944%)" offset="0.179688"/><stop stop-opacity="1" stop-color="rgb(50.325012%, 4.318237%, 9.921265%)" offset="0.183594"/><stop stop-opacity="1" stop-color="rgb(50.172424%, 4.367065%, 10.089111%)" offset="0.1875"/><stop stop-opacity="1" stop-color="rgb(50.019836%, 4.415894%, 10.255432%)" offset="0.191406"/><stop stop-opacity="1" stop-color="rgb(49.865723%, 4.464722%, 10.421753%)" offset="0.195312"/><stop stop-opacity="1" stop-color="rgb(49.713135%, 4.51355%, 10.588074%)" offset="0.199219"/><stop stop-opacity="1" stop-color="rgb(49.560547%, 4.562378%, 10.75592%)" offset="0.203125"/><stop stop-opacity="1" stop-color="rgb(49.406433%, 4.611206%, 10.922241%)" offset="0.207031"/><stop stop-opacity="1" stop-color="rgb(49.253845%, 4.660034%, 11.088562%)" offset="0.210938"/><stop stop-opacity="1" stop-color="rgb(49.101257%, 4.708862%, 11.256409%)" offset="0.214844"/><stop stop-opacity="1" stop-color="rgb(48.947144%, 4.75769%, 11.422729%)" offset="0.21875"/><stop stop-opacity="1" stop-color="rgb(48.794556%, 4.806519%, 11.58905%)" offset="0.222656"/><stop stop-opacity="1" stop-color="rgb(48.640442%, 4.855347%, 11.756897%)" offset="0.226562"/><stop stop-opacity="1" stop-color="rgb(48.487854%, 4.904175%, 11.923218%)" offset="0.230469"/><stop stop-opacity="1" stop-color="rgb(48.335266%, 4.953003%, 12.089539%)" offset="0.234375"/><stop stop-opacity="1" stop-color="rgb(48.181152%, 5.001831%, 12.257385%)" offset="0.238281"/><stop stop-opacity="1" stop-color="rgb(48.028564%, 5.050659%, 12.423706%)" offset="0.242188"/><stop stop-opacity="1" stop-color="rgb(47.875977%, 5.099487%, 12.590027%)" offset="0.246094"/><stop stop-opacity="1" stop-color="rgb(47.721863%, 5.148315%, 12.757874%)" offset="0.25"/><stop stop-opacity="1" stop-color="rgb(47.492981%, 5.221558%, 13.008118%)" offset="0.253906"/><stop stop-opacity="1" stop-color="rgb(47.186279%, 5.319214%, 13.340759%)" offset="0.261719"/><stop stop-opacity="1" stop-color="rgb(46.879578%, 5.41687%, 13.674927%)" offset="0.269531"/><stop stop-opacity="1" stop-color="rgb(46.574402%, 5.514526%, 14.007568%)" offset="0.277344"/><stop stop-opacity="1" stop-color="rgb(46.2677%, 5.612183%, 14.341736%)" offset="0.285156"/><stop stop-opacity="1" stop-color="rgb(45.960999%, 5.709839%, 14.675903%)" offset="0.292969"/><stop stop-opacity="1" stop-color="rgb(45.654297%, 5.807495%, 15.008545%)" offset="0.300781"/><stop stop-opacity="1" stop-color="rgb(45.349121%, 5.905151%, 15.342712%)" offset="0.308594"/><stop stop-opacity="1" stop-color="rgb(45.042419%, 6.002808%, 15.675354%)" offset="0.316406"/><stop stop-opacity="1" stop-color="rgb(44.735718%, 6.100464%, 16.009521%)" offset="0.324219"/><stop stop-opacity="1" stop-color="rgb(44.430542%, 6.19812%, 16.343689%)" offset="0.332031"/><stop stop-opacity="1" stop-color="rgb(44.12384%, 6.295776%, 16.676331%)" offset="0.339844"/><stop stop-opacity="1" stop-color="rgb(43.817139%, 6.393433%, 17.010498%)" offset="0.347656"/><stop stop-opacity="1" stop-color="rgb(43.511963%, 6.491089%, 17.344666%)" offset="0.355469"/><stop stop-opacity="1" stop-color="rgb(43.205261%, 6.588745%, 17.677307%)" offset="0.363281"/><stop stop-opacity="1" stop-color="rgb(42.89856%, 6.686401%, 18.011475%)" offset="0.371094"/><stop stop-opacity="1" stop-color="rgb(42.591858%, 6.784058%, 18.344116%)" offset="0.378906"/><stop stop-opacity="1" stop-color="rgb(42.286682%, 6.881714%, 18.678284%)" offset="0.386719"/><stop stop-opacity="1" stop-color="rgb(41.97998%, 6.97937%, 19.012451%)" offset="0.394531"/><stop stop-opacity="1" stop-color="rgb(41.673279%, 7.077026%, 19.345093%)" offset="0.402344"/><stop stop-opacity="1" stop-color="rgb(41.368103%, 7.174683%, 19.67926%)" offset="0.410156"/><stop stop-opacity="1" stop-color="rgb(41.061401%, 7.272339%, 20.013428%)" offset="0.417969"/><stop stop-opacity="1" stop-color="rgb(40.7547%, 7.369995%, 20.346069%)" offset="0.425781"/><stop stop-opacity="1" stop-color="rgb(40.447998%, 7.467651%, 20.680237%)" offset="0.433594"/><stop stop-opacity="1" stop-color="rgb(40.142822%, 7.565308%, 21.012878%)" offset="0.441406"/><stop stop-opacity="1" stop-color="rgb(39.836121%, 7.662964%, 21.347046%)" offset="0.449219"/><stop stop-opacity="1" stop-color="rgb(39.529419%, 7.76062%, 21.681213%)" offset="0.457031"/><stop stop-opacity="1" stop-color="rgb(39.224243%, 7.858276%, 22.013855%)" offset="0.464844"/><stop stop-opacity="1" stop-color="rgb(38.917542%, 7.955933%, 22.348022%)" offset="0.472656"/><stop stop-opacity="1" stop-color="rgb(38.61084%, 8.053589%, 22.68219%)" offset="0.480469"/><stop stop-opacity="1" stop-color="rgb(38.305664%, 8.151245%, 23.014832%)" offset="0.488281"/><stop stop-opacity="1" stop-color="rgb(37.998962%, 8.248901%, 23.348999%)" offset="0.496094"/><stop stop-opacity="1" stop-color="rgb(37.768555%, 8.322144%, 23.599243%)" offset="0.503906"/><stop stop-opacity="1" stop-color="rgb(37.615967%, 8.370972%, 23.765564%)" offset="0.507812"/><stop stop-opacity="1" stop-color="rgb(37.463379%, 8.4198%, 23.931885%)" offset="0.511719"/><stop stop-opacity="1" stop-color="rgb(37.309265%, 8.468628%, 24.099731%)" offset="0.515625"/><stop stop-opacity="1" stop-color="rgb(37.156677%, 8.517456%, 24.266052%)" offset="0.519531"/><stop stop-opacity="1" stop-color="rgb(37.004089%, 8.566284%, 24.432373%)" offset="0.523438"/><stop stop-opacity="1" stop-color="rgb(36.849976%, 8.615112%, 24.60022%)" offset="0.527344"/><stop stop-opacity="1" stop-color="rgb(36.697388%, 8.66394%, 24.766541%)" offset="0.53125"/><stop stop-opacity="1" stop-color="rgb(36.5448%, 8.712769%, 24.932861%)" offset="0.535156"/><stop stop-opacity="1" stop-color="rgb(36.390686%, 8.761597%, 25.100708%)" offset="0.539062"/><stop stop-opacity="1" stop-color="rgb(36.238098%, 8.810425%, 25.267029%)" offset="0.542969"/><stop stop-opacity="1" stop-color="rgb(36.08551%, 8.859253%, 25.43335%)" offset="0.546875"/><stop stop-opacity="1" stop-color="rgb(35.931396%, 8.908081%, 25.601196%)" offset="0.550781"/><stop stop-opacity="1" stop-color="rgb(35.778809%, 8.956909%, 25.767517%)" offset="0.554688"/><stop stop-opacity="1" stop-color="rgb(35.626221%, 9.005737%, 25.933838%)" offset="0.558594"/><stop stop-opacity="1" stop-color="rgb(35.472107%, 9.054565%, 26.100159%)" offset="0.5625"/><stop stop-opacity="1" stop-color="rgb(35.319519%, 9.103394%, 26.268005%)" offset="0.566406"/><stop stop-opacity="1" stop-color="rgb(35.165405%, 9.152222%, 26.434326%)" offset="0.570312"/><stop stop-opacity="1" stop-color="rgb(35.012817%, 9.20105%, 26.600647%)" offset="0.574219"/><stop stop-opacity="1" stop-color="rgb(34.860229%, 9.249878%, 26.768494%)" offset="0.578125"/><stop stop-opacity="1" stop-color="rgb(34.706116%, 9.298706%, 26.934814%)" offset="0.582031"/><stop stop-opacity="1" stop-color="rgb(34.553528%, 9.347534%, 27.101135%)" offset="0.585938"/><stop stop-opacity="1" stop-color="rgb(34.40094%, 9.396362%, 27.268982%)" offset="0.589844"/><stop stop-opacity="1" stop-color="rgb(34.246826%, 9.44519%, 27.435303%)" offset="0.59375"/><stop stop-opacity="1" stop-color="rgb(34.094238%, 9.494019%, 27.601624%)" offset="0.597656"/><stop stop-opacity="1" stop-color="rgb(33.94165%, 9.542847%, 27.76947%)" offset="0.601562"/><stop stop-opacity="1" stop-color="rgb(33.787537%, 9.591675%, 27.935791%)" offset="0.605469"/><stop stop-opacity="1" stop-color="rgb(33.634949%, 9.640503%, 28.102112%)" offset="0.609375"/><stop stop-opacity="1" stop-color="rgb(33.482361%, 9.689331%, 28.269958%)" offset="0.613281"/><stop stop-opacity="1" stop-color="rgb(33.328247%, 9.738159%, 28.436279%)" offset="0.617188"/><stop stop-opacity="1" stop-color="rgb(33.175659%, 9.786987%, 28.6026%)" offset="0.621094"/><stop stop-opacity="1" stop-color="rgb(33.023071%, 9.835815%, 28.768921%)" offset="0.625"/><stop stop-opacity="1" stop-color="rgb(32.792664%, 9.909058%, 29.019165%)" offset="0.628906"/><stop stop-opacity="1" stop-color="rgb(32.485962%, 10.006714%, 29.353333%)" offset="0.636719"/><stop stop-opacity="1" stop-color="rgb(32.17926%, 10.10437%, 29.6875%)" offset="0.644531"/><stop stop-opacity="1" stop-color="rgb(31.874084%, 10.202026%, 30.020142%)" offset="0.652344"/><stop stop-opacity="1" stop-color="rgb(31.567383%, 10.299683%, 30.354309%)" offset="0.660156"/><stop stop-opacity="1" stop-color="rgb(31.260681%, 10.397339%, 30.688477%)" offset="0.667969"/><stop stop-opacity="1" stop-color="rgb(30.955505%, 10.494995%, 31.021118%)" offset="0.675781"/><stop stop-opacity="1" stop-color="rgb(30.648804%, 10.592651%, 31.355286%)" offset="0.683594"/><stop stop-opacity="1" stop-color="rgb(30.342102%, 10.690308%, 31.687927%)" offset="0.691406"/><stop stop-opacity="1" stop-color="rgb(30.036926%, 10.787964%, 32.022095%)" offset="0.699219"/><stop stop-opacity="1" stop-color="rgb(29.730225%, 10.88562%, 32.356262%)" offset="0.707031"/><stop stop-opacity="1" stop-color="rgb(29.423523%, 10.983276%, 32.688904%)" offset="0.714844"/><stop stop-opacity="1" stop-color="rgb(29.116821%, 11.080933%, 33.023071%)" offset="0.722656"/><stop stop-opacity="1" stop-color="rgb(28.811646%, 11.178589%, 33.357239%)" offset="0.730469"/><stop stop-opacity="1" stop-color="rgb(28.504944%, 11.276245%, 33.68988%)" offset="0.738281"/><stop stop-opacity="1" stop-color="rgb(28.198242%, 11.373901%, 34.024048%)" offset="0.746094"/><stop stop-opacity="1" stop-color="rgb(27.96936%, 11.447144%, 34.274292%)" offset="0.753906"/><stop stop-opacity="1" stop-color="rgb(27.816772%, 11.495972%, 34.440613%)" offset="0.757812"/><stop stop-opacity="1" stop-color="rgb(27.662659%, 11.5448%, 34.606934%)" offset="0.761719"/><stop stop-opacity="1" stop-color="rgb(27.510071%, 11.593628%, 34.77478%)" offset="0.765625"/><stop stop-opacity="1" stop-color="rgb(27.357483%, 11.642456%, 34.941101%)" offset="0.769531"/><stop stop-opacity="1" stop-color="rgb(27.203369%, 11.691284%, 35.107422%)" offset="0.773438"/><stop stop-opacity="1" stop-color="rgb(27.050781%, 11.740112%, 35.275269%)" offset="0.777344"/><stop stop-opacity="1" stop-color="rgb(26.896667%, 11.78894%, 35.441589%)" offset="0.78125"/><stop stop-opacity="1" stop-color="rgb(26.74408%, 11.837769%, 35.60791%)" offset="0.785156"/><stop stop-opacity="1" stop-color="rgb(26.591492%, 11.886597%, 35.775757%)" offset="0.789062"/><stop stop-opacity="1" stop-color="rgb(26.437378%, 11.935425%, 35.942078%)" offset="0.792969"/><stop stop-opacity="1" stop-color="rgb(26.28479%, 11.984253%, 36.108398%)" offset="0.796875"/><stop stop-opacity="1" stop-color="rgb(26.132202%, 12.033081%, 36.274719%)" offset="0.800781"/><stop stop-opacity="1" stop-color="rgb(25.978088%, 12.081909%, 36.442566%)" offset="0.804688"/><stop stop-opacity="1" stop-color="rgb(25.8255%, 12.130737%, 36.608887%)" offset="0.808594"/><stop stop-opacity="1" stop-color="rgb(25.672913%, 12.179565%, 36.775208%)" offset="0.8125"/><stop stop-opacity="1" stop-color="rgb(25.442505%, 12.252808%, 37.025452%)" offset="0.816406"/><stop stop-opacity="1" stop-color="rgb(25.135803%, 12.350464%, 37.359619%)" offset="0.824219"/><stop stop-opacity="1" stop-color="rgb(24.830627%, 12.44812%, 37.693787%)" offset="0.832031"/><stop stop-opacity="1" stop-color="rgb(24.523926%, 12.545776%, 38.026428%)" offset="0.839844"/><stop stop-opacity="1" stop-color="rgb(24.217224%, 12.643433%, 38.360596%)" offset="0.847656"/><stop stop-opacity="1" stop-color="rgb(23.910522%, 12.741089%, 38.694763%)" offset="0.855469"/><stop stop-opacity="1" stop-color="rgb(23.605347%, 12.838745%, 39.027405%)" offset="0.863281"/><stop stop-opacity="1" stop-color="rgb(23.298645%, 12.936401%, 39.361572%)" offset="0.871094"/><stop stop-opacity="1" stop-color="rgb(23.069763%, 13.009644%, 39.611816%)" offset="0.878906"/><stop stop-opacity="1" stop-color="rgb(22.915649%, 13.058472%, 39.778137%)" offset="0.882812"/><stop stop-opacity="1" stop-color="rgb(22.763062%, 13.1073%, 39.944458%)" offset="0.886719"/><stop stop-opacity="1" stop-color="rgb(22.610474%, 13.156128%, 40.112305%)" offset="0.890625"/><stop stop-opacity="1" stop-color="rgb(22.45636%, 13.204956%, 40.278625%)" offset="0.894531"/><stop stop-opacity="1" stop-color="rgb(22.303772%, 13.253784%, 40.444946%)" offset="0.898438"/><stop stop-opacity="1" stop-color="rgb(22.151184%, 13.302612%, 40.612793%)" offset="0.902344"/><stop stop-opacity="1" stop-color="rgb(21.99707%, 13.35144%, 40.779114%)" offset="0.90625"/><stop stop-opacity="1" stop-color="rgb(21.768188%, 13.424683%, 41.029358%)" offset="0.910156"/><stop stop-opacity="1" stop-color="rgb(21.461487%, 13.522339%, 41.363525%)" offset="0.917969"/><stop stop-opacity="1" stop-color="rgb(21.154785%, 13.619995%, 41.696167%)" offset="0.925781"/><stop stop-opacity="1" stop-color="rgb(20.848083%, 13.717651%, 42.030334%)" offset="0.933594"/><stop stop-opacity="1" stop-color="rgb(20.619202%, 13.790894%, 42.280579%)" offset="0.941406"/><stop stop-opacity="1" stop-color="rgb(20.466614%, 13.839722%, 42.446899%)" offset="0.945312"/><stop stop-opacity="1" stop-color="rgb(20.3125%, 13.88855%, 42.61322%)" offset="0.949219"/><stop stop-opacity="1" stop-color="rgb(20.159912%, 13.937378%, 42.781067%)" offset="0.953125"/><stop stop-opacity="1" stop-color="rgb(19.929504%, 14.01062%, 43.031311%)" offset="0.957031"/><stop stop-opacity="1" stop-color="rgb(19.624329%, 14.108276%, 43.363953%)" offset="0.964844"/><stop stop-opacity="1" stop-color="rgb(19.393921%, 14.181519%, 43.614197%)" offset="0.972656"/><stop stop-opacity="1" stop-color="rgb(19.241333%, 14.230347%, 43.782043%)" offset="0.976562"/><stop stop-opacity="1" stop-color="rgb(19.010925%, 14.303589%, 44.032288%)" offset="0.980469"/><stop stop-opacity="1" stop-color="rgb(18.782043%, 14.376831%, 44.281006%)" offset="0.988281"/><stop stop-opacity="1" stop-color="rgb(18.551636%, 14.450073%, 44.53125%)" offset="0.992188"/><stop stop-opacity="1" stop-color="rgb(18.399048%, 14.498901%, 44.699097%)" offset="1"/></radialGradient></defs><rect x="-81" width="972" fill="#697a7a" y="-80.999999" height="971.999992" fill-opacity="1"/><path fill="#f89865" d="M 492.898438 541.210938 C 499.851562 551.316406 504.417969 557.847656 506.574219 560.824219 C 507.0625 564.132812 508.058594 569.539062 509.636719 577.046875 C 511.050781 584.457031 511.097656 590.144531 509.773438 594.113281 C 508.453125 597.984375 507.664062 600.464844 507.433594 601.558594 C 507.433594 601.738281 507.433594 601.953125 507.433594 602.203125 C 506.53125 607.015625 505.160156 611.03125 503.332031 614.242188 C 502.242188 616.078125 500.246094 618.839844 497.371094 622.527344 C 496.144531 622.855469 494.777344 623.070312 493.269531 623.15625 C 492.179688 623.15625 491.113281 623.121094 490.070312 623.023438 C 489.027344 622.773438 488.144531 622.527344 487.378906 622.242188 C 484.179688 621.382812 480.609375 620.09375 476.691406 618.34375 C 475.789062 617.828125 474.839844 617.332031 473.863281 616.855469 L 472.9375 616.359375 C 472.703125 616.226562 472.519531 616.125 472.355469 616.078125 C 467.511719 613.050781 463.476562 610.074219 460.253906 607.148438 C 458.238281 605.3125 456.570312 603.558594 455.292969 601.902344 C 452.882812 598.644531 447.019531 590.789062 437.675781 578.320312 C 435.101562 574.632812 432.226562 570.648438 429.027344 566.347656 C 429.953125 564.660156 431 562.972656 432.132812 561.320312 C 437.859375 552.640625 444.144531 545.296875 451.050781 539.292969 C 458.378906 532.972656 467.90625 527.089844 479.660156 521.664062 C 479.984375 522.375 484.414062 528.890625 492.898438 541.210938 " fill-opacity="1" fill-rule="evenodd"/><path fill="#008395" d="M 440.957031 482.558594 C 446.871094 481.566406 454.46875 481.351562 463.675781 481.914062 C 472.5625 502.171875 479.398438 514.722656 484.207031 519.601562 C 484.023438 520.347656 483.769531 521.175781 483.425781 522.082031 C 482.734375 524.761719 481.746094 527.476562 480.480469 530.222656 C 477.671875 536.835938 474.125 543.914062 469.777344 551.46875 C 463.976562 561.625 457.347656 569.859375 449.933594 576.195312 C 449.082031 576.890625 448.230469 577.632812 447.378906 578.394531 C 443.71875 581.074219 440.359375 583.121094 437.390625 584.546875 C 435.085938 585.539062 432.945312 586.082031 430.964844 586.183594 C 428.917969 583.949219 426.203125 580.742188 422.796875 576.542969 C 419.550781 572.671875 409.582031 561.476562 392.917969 542.972656 C 394.574219 537.628906 397.289062 530.933594 401.066406 522.859375 C 401.433594 522.101562 401.800781 521.371094 402.125 520.660156 C 405.761719 512.953125 409.328125 506.058594 412.804688 499.972656 C 418.328125 490.476562 427.722656 484.675781 440.957031 482.558594 " fill-opacity="1" fill-rule="evenodd"/><path fill="#f89865" d="M 354.605469 589.46875 L 354.808594 589.054688 L 356.804688 581.332031 C 360.480469 567.722656 365.671875 556.34375 372.320312 547.183594 C 372.59375 546.773438 372.910156 546.339844 373.226562 545.914062 L 375.429688 548.605469 L 429.828125 573.675781 C 427.945312 581.332031 426.46875 589.171875 425.449219 597.191406 C 424.40625 605.691406 425.175781 618.9375 427.785156 636.929688 C 429.757812 645.199219 428.828125 657.171875 424.949219 672.832031 C 422.769531 681.296875 421 687.664062 419.710938 691.964844 C 418.324219 696.261719 416.351562 702.945312 413.742188 712.007812 C 411.203125 721.117188 409.273438 732.230469 407.957031 745.359375 C 399.113281 744.1875 393.78125 743.492188 391.941406 743.308594 C 390.082031 743.128906 380.691406 741.359375 363.746094 738.003906 C 365.675781 731.054688 367.058594 724.242188 367.851562 717.527344 C 369.097656 705.769531 367.558594 686.242188 363.246094 658.957031 C 358.890625 631.753906 356.261719 614.804688 355.308594 608.105469 C 355.035156 606.019531 354.761719 604.152344 354.535156 602.5 L 354.761719 589.683594 L 354.605469 589.46875 " fill-opacity="1" fill-rule="evenodd"/><path fill="#fadeca" d="M 354.800781 589.355469 L 354.800781 589.289062 L 355.023438 588.941406 L 354.800781 589.355469 " fill-opacity="1" fill-rule="evenodd"/><path fill="#fefffe" d="M 420.613281 729.542969 L 420.179688 733.792969 C 412.328125 741.25 399.164062 741.910156 380.644531 735.777344 C 375.21875 724.25 367.320312 720.316406 356.945312 723.953125 L 361.757812 676.988281 C 361.804688 676.9375 361.757812 676.921875 361.691406 676.921875 C 359.785156 673.050781 360.054688 670.257812 362.460938 668.554688 C 363.960938 668.851562 365.277344 669.246094 366.410156 669.761719 C 386.90625 676.277344 408.332031 676.425781 430.667969 670.191406 C 431.847656 674.109375 431.347656 678.179688 429.167969 682.378906 L 420.613281 729.542969 " fill-opacity="1" fill-rule="evenodd"/><path fill="#d8d9d8" d="M 420.359375 733.699219 L 419.949219 736.824219 C 412.109375 744.617188 398.871094 745.394531 380.265625 739.15625 C 374.847656 727.628906 367.003906 723.660156 356.761719 727.25 L 357.125 723.859375 C 367.503906 720.222656 375.414062 724.15625 380.832031 735.683594 C 399.347656 741.820312 412.515625 741.160156 420.359375 733.699219 Z M 349.191406 739.222656 C 355.128906 736.957031 365.035156 739.339844 378.925781 746.382812 C 377.792969 750.535156 376.09375 753.910156 373.828125 756.507812 C 364.46875 749.527344 354.132812 745.738281 342.800781 745.179688 Z M 350.730469 737.601562 L 355.695312 729.019531 C 367.164062 728.078125 375.1875 732.460938 379.765625 742.132812 C 379.585938 742.976562 379.449219 743.855469 379.335938 744.746094 C 366.6875 737.386719 357.144531 735.003906 350.730469 737.601562 Z M 340.035156 747.160156 C 353.699219 748.714844 364.421875 752.371094 372.261719 758.140625 C 361.972656 768.296875 348.964844 766.230469 333.234375 751.976562 Z M 426.589844 751.824219 L 426.25 754.519531 C 411.359375 760.523438 403.496094 771.355469 402.65625 787.035156 L 422.714844 777.410156 L 421.128906 792.988281 C 382.03125 809.507812 350.050781 815.199219 325.164062 810.054688 C 300.054688 804.863281 288.0625 799.273438 289.175781 793.269531 C 308.550781 799.273438 328.996094 801.273438 350.527344 799.289062 C 354.449219 783.476562 344.410156 769.304688 320.429688 756.789062 C 321.269531 756.421875 322.195312 756.007812 323.195312 755.59375 C 347.832031 768.378906 357.984375 782.835938 353.65625 798.941406 C 368.386719 797.417969 383.753906 793.914062 399.824219 788.390625 C 399.824219 769.96875 408.753906 757.78125 426.589844 751.824219 " fill-opacity="1" fill-rule="evenodd"/><path fill="#5c5d5c" d="M 425.78125 734.308594 L 419.847656 736.875 L 420.253906 733.75 L 420.683594 729.5 C 423.949219 731.300781 425.648438 732.90625 425.78125 734.308594 " fill-opacity="1" fill-rule="evenodd"/><path fill="#fdfffd" d="M 422.5 777.511719 L 402.457031 787.136719 C 403.296875 771.460938 411.164062 760.628906 426.035156 754.625 Z M 320.222656 756.890625 C 344.1875 769.410156 354.234375 783.578125 350.308594 799.390625 C 328.792969 801.375 308.34375 799.375 288.980469 793.371094 C 284.921875 779.859375 295.328125 767.703125 320.222656 756.890625 Z M 339.835938 747.265625 L 342.601562 745.28125 C 353.9375 745.84375 364.277344 749.628906 373.617188 756.609375 C 375.886719 754.011719 377.585938 750.636719 378.71875 746.488281 C 364.84375 739.441406 354.933594 737.0625 348.972656 739.328125 L 350.539062 737.707031 C 356.953125 735.109375 366.476562 737.492188 379.125 744.851562 C 379.242188 743.960938 379.375 743.082031 379.558594 742.238281 C 374.976562 732.5625 366.976562 728.183594 355.480469 729.125 L 356.546875 727.355469 C 366.792969 723.765625 374.636719 727.738281 380.058594 739.261719 C 398.671875 745.496094 411.890625 744.71875 419.734375 736.929688 L 425.671875 734.367188 C 427.578125 738.667969 427.804688 744.519531 426.375 751.929688 C 408.53125 757.882812 399.601562 770.070312 399.601562 788.492188 C 383.546875 794.015625 368.175781 797.523438 353.4375 799.042969 C 357.769531 782.9375 347.613281 768.480469 322.992188 755.699219 L 333.035156 752.078125 C 348.769531 766.332031 361.78125 768.402344 372.054688 758.246094 C 364.230469 752.476562 353.484375 748.820312 339.835938 747.265625 " fill-opacity="1" fill-rule="evenodd"/><path fill="#00a5bb" d="M 408.667969 413.8125 C 414.953125 409.132812 420.339844 405.261719 424.875 402.1875 C 429.984375 404.417969 434.820312 407.015625 439.398438 409.992188 C 448.078125 415.515625 456.136719 422.230469 463.546875 430.167969 C 474.023438 441.695312 480.585938 452.921875 483.164062 463.886719 C 484.246094 468.089844 484.613281 472.339844 484.222656 476.636719 C 484.082031 478.472656 483.875 480.292969 483.578125 482.09375 C 483.117188 485.351562 482.3125 488.628906 481.183594 491.933594 C 480.652344 493.738281 480.101562 495.476562 479.480469 497.175781 C 477.40625 501.097656 475.519531 504.984375 473.816406 508.867188 C 468.429688 522.082031 464.378906 534.769531 461.636719 546.90625 C 459.980469 553.605469 458.78125 559.953125 458.023438 565.957031 C 457.585938 569.445312 457.242188 572.851562 456.964844 576.144531 C 451.761719 581.105469 444.488281 584.195312 435.070312 585.421875 C 430.304688 586.132812 424.804688 586.394531 418.566406 586.214844 C 417.347656 586.113281 416.101562 586.046875 414.835938 586 C 410.667969 585.71875 406.226562 585.289062 401.507812 584.726562 C 389.121094 583.023438 377.128906 580.558594 365.503906 577.351562 C 359.101562 575.464844 353.460938 573.960938 348.605469 572.820312 C 346.140625 572.058594 343.839844 571.429688 341.722656 570.902344 C 345.175781 566.089844 347.890625 559.441406 349.871094 550.941406 C 350.46875 546.921875 351.046875 543.070312 351.574219 539.398438 C 352.472656 534.566406 353.234375 530.152344 353.898438 526.152344 C 354.566406 522.976562 355.121094 520.046875 355.605469 517.371094 L 325.699219 487.191406 L 325.699219 469.128906 C 336.289062 460.101562 348.605469 452.179688 362.695312 445.332031 C 371.855469 440.882812 385.207031 431.921875 402.773438 418.40625 C 404.753906 416.804688 406.734375 415.269531 408.667969 413.8125 " fill-opacity="1" fill-rule="evenodd"/><path fill="#b02222" d="M 250.835938 388.632812 C 250.878906 388.351562 250.988281 388.042969 251.183594 387.71875 C 252.277344 384.878906 252.886719 382.609375 253.039062 380.90625 C 253.128906 380.207031 253.039062 379.007812 252.757812 377.371094 C 252.648438 376.605469 252.558594 375.863281 252.472656 375.101562 C 252.472656 374.535156 252.429688 373.988281 252.320312 373.484375 C 251.882812 371.257812 251.273438 368.75 250.488281 365.976562 C 249.765625 363.316406 248.804688 360.433594 247.582031 357.3125 C 246.753906 354.824219 245.816406 352.117188 244.660156 349.257812 C 241.515625 341.792969 238.351562 335.769531 235.1875 331.183594 C 233.660156 328.980469 232.085938 326.996094 230.449219 325.226562 C 229.6875 324.398438 228.855469 323.632812 227.960938 322.976562 C 225.734375 321.121094 223.550781 319.902344 221.433594 319.289062 L 221.238281 319.289062 C 220.277344 319.050781 219.472656 319.09375 218.75 319.421875 C 218.421875 319.53125 217.941406 319.726562 217.332031 320.054688 L 217.679688 319.574219 L 228.308594 305.253906 L 228.527344 304.90625 L 228.746094 304.554688 L 247.78125 278.910156 L 249.570312 276.574219 C 250.507812 276.335938 251.425781 276.226562 252.320312 276.226562 C 253.542969 276.3125 254.742188 276.507812 255.855469 276.792969 C 257.949219 277.359375 260.066406 278.515625 262.25 280.261719 C 263.1875 280.960938 264.019531 281.789062 264.78125 282.730469 C 266.441406 284.386719 268.011719 286.332031 269.539062 288.535156 C 272.707031 293.273438 275.828125 299.316406 278.949219 306.671875 C 281.632812 313.003906 283.617188 318.546875 284.90625 323.238281 C 285.714844 326.054688 286.28125 328.542969 286.675781 330.75 C 286.871094 332.40625 287 333.890625 287.089844 335.222656 C 287 335.746094 287.65625 338.476562 289.074219 343.453125 C 289.46875 344.675781 289.75 345.765625 289.925781 346.703125 C 289.359375 347.402344 288.792969 348.078125 288.222656 348.691406 C 279.164062 358.644531 272.488281 366.019531 268.1875 370.78125 C 267.707031 371.304688 267.269531 371.738281 266.835938 372.109375 C 266.027344 373.027344 265.261719 373.8125 264.5 374.535156 C 264.300781 374.773438 264.128906 374.96875 263.929688 375.1875 C 263.84375 375.320312 263.757812 375.40625 263.734375 375.449219 L 263.734375 375.515625 C 263.210938 375.996094 262.816406 376.34375 262.597656 376.519531 L 262.535156 376.585938 C 260.917969 378.179688 259.523438 379.621094 258.34375 380.90625 C 256.117188 383.21875 254.347656 385.425781 253.039062 387.5 C 252.320312 387.78125 251.597656 388.152344 250.835938 388.632812 " fill-opacity="1" fill-rule="evenodd"/><path fill="#f7d62f" d="M 217.257812 320.097656 C 216.933594 320.203125 216.652344 320.3125 216.414062 320.460938 L 216.414062 320.375 C 216.847656 320.097656 217.257812 319.859375 217.621094 319.597656 Z M 228.089844 304.949219 C 228.304688 304.902344 228.476562 304.796875 228.671875 304.582031 L 228.457031 304.949219 C 228.304688 304.949219 228.195312 304.949219 228.089844 304.949219 Z M 247.726562 278.964844 C 248.113281 278.253906 248.480469 277.542969 248.847656 276.828125 C 249.105469 276.742188 249.320312 276.65625 249.496094 276.613281 L 247.726562 278.964844 " fill-opacity="1" fill-rule="evenodd"/><path fill="#f72f2f" d="M 228.253906 305.289062 C 228.210938 305.160156 228.148438 305.050781 228.105469 304.945312 C 228.210938 304.945312 228.320312 304.945312 228.46875 304.945312 L 228.253906 305.289062 " fill-opacity="1" fill-rule="evenodd"/><path fill="#911c1c" d="M 250.84375 388.632812 C 250.648438 388.71875 250.519531 388.761719 250.5 388.761719 C 249.570312 389.195312 248.878906 389.34375 248.359375 389.195312 C 246.046875 388.546875 244.210938 387.054688 242.828125 384.742188 C 242.355469 384.484375 241.792969 384.289062 241.125 384.097656 C 240.042969 383.382812 238.984375 382.605469 237.949219 381.761719 C 238.574219 381.203125 239.136719 380.511719 239.632812 379.710938 C 241.339844 377.917969 243.003906 375.929688 244.664062 373.75 C 246.933594 370.550781 248.878906 367.960938 250.496094 365.972656 C 251.273438 368.738281 251.902344 371.265625 252.332031 373.46875 C 252.421875 373.988281 252.464844 374.527344 252.464844 375.089844 C 252.550781 375.867188 252.65625 376.621094 252.746094 377.355469 C 253.023438 379.019531 253.132812 380.207031 253.023438 380.898438 C 252.894531 382.605469 252.269531 384.875 251.1875 387.726562 C 250.996094 388.050781 250.886719 388.351562 250.84375 388.632812 Z M 221.445312 319.269531 C 220.410156 320.609375 219.132812 322.121094 217.621094 323.808594 C 217.039062 324.519531 216.476562 325.167969 215.914062 325.730469 C 216.066406 324.21875 216.21875 322.75 216.410156 321.257812 L 217.339844 320.046875 C 217.945312 319.722656 218.421875 319.53125 218.746094 319.421875 C 219.457031 319.097656 220.300781 319.054688 221.230469 319.269531 L 221.445312 319.269531 " fill-opacity="1" fill-rule="evenodd"/><path fill="#987f05" d="M 217.351562 320.046875 L 216.429688 321.242188 C 216.429688 320.921875 216.453125 320.644531 216.515625 320.410156 C 216.730469 320.261719 217.03125 320.152344 217.351562 320.046875 " fill-opacity="1" fill-rule="evenodd"/><path fill="#f89865" d="M 250.503906 365.960938 C 248.90625 367.949219 246.945312 370.539062 244.675781 373.753906 C 243.035156 375.914062 241.351562 377.898438 239.648438 379.691406 C 239.152344 380.488281 238.589844 381.179688 237.964844 381.742188 C 235.546875 384.246094 233.214844 386.597656 230.949219 388.757812 C 228.121094 390.9375 225.941406 392.792969 224.429688 394.347656 C 222.917969 395.878906 221.601562 396.613281 220.480469 396.613281 C 219.335938 396.570312 218 396.65625 216.445312 396.894531 C 214.867188 397.152344 213.316406 395.210938 211.761719 391.085938 C 210.207031 387.050781 209.171875 384.570312 208.71875 383.726562 C 202.003906 371.554688 198.917969 361.949219 199.4375 354.976562 C 199.480469 353.808594 200.039062 351.671875 201.121094 348.585938 C 202.113281 345.585938 202.609375 344.011719 202.609375 343.925781 L 202.609375 343.839844 C 202.761719 343.707031 202.890625 343.558594 203.039062 343.339844 C 204.832031 341.054688 207.402344 337.644531 210.703125 333.152344 C 213.898438 328.707031 215.644531 326.226562 215.949219 325.726562 C 216.507812 325.167969 217.070312 324.519531 217.632812 323.808594 C 219.140625 322.125 220.417969 320.589844 221.472656 319.273438 C 223.589844 319.878906 225.746094 321.128906 227.96875 322.964844 C 228.878906 323.613281 229.695312 324.390625 230.453125 325.230469 C 232.09375 326.980469 233.691406 328.964844 235.203125 331.167969 C 238.375 335.765625 241.527344 341.789062 244.675781 349.234375 C 245.820312 352.105469 246.792969 354.804688 247.589844 357.308594 C 248.820312 360.4375 249.792969 363.308594 250.503906 365.960938 " fill-opacity="1" fill-rule="evenodd"/><path fill="#f89865" d="M 384.464844 278.742188 C 386.519531 269.121094 390.863281 260.574219 397.492188 253.101562 C 397.878906 252.691406 398.246094 252.277344 398.609375 251.890625 C 399.546875 251.113281 400.414062 250.335938 401.167969 249.628906 C 402.859375 249.445312 404.710938 249.195312 406.699219 248.851562 C 408.347656 248.53125 410.035156 248.347656 411.796875 248.300781 C 412.34375 248.257812 412.78125 248.140625 413.078125 248.003906 C 413.625 248.003906 414.152344 248.003906 414.628906 248.003906 C 426.902344 246.816406 438.238281 246.816406 448.613281 248.003906 C 448.820312 248.050781 449.023438 248.074219 449.277344 248.074219 C 452.132812 250.472656 454.234375 253.605469 455.5625 257.421875 C 457.320312 263.042969 456.886719 268.550781 454.304688 273.921875 C 452.363281 278.125 449.480469 282.421875 445.640625 286.742188 C 445.367188 286.992188 441.621094 290.96875 434.375 298.71875 C 433.964844 299.101562 433.554688 299.496094 433.164062 299.925781 C 430.171875 302.523438 426.628906 303.898438 422.5625 304.03125 L 421.785156 304.113281 C 422.171875 304.078125 422.285156 304.179688 422.058594 304.394531 C 421.738281 304.574219 416.527344 305.152344 406.425781 306.097656 L 406.128906 306.097656 C 397.808594 306.609375 390.632812 307.996094 384.578125 310.265625 C 384.578125 309.75 384.53125 309.253906 384.464844 308.777344 C 384.464844 308.644531 384.464844 308.542969 384.464844 308.496094 C 384.03125 306.046875 383.800781 303.734375 383.753906 301.5625 C 383.414062 299.25 383.253906 297.066406 383.253906 295.03125 C 383.070312 289.234375 383.457031 283.792969 384.464844 278.742188 " fill-opacity="1" fill-rule="evenodd"/><path fill="#f89865" d="M 197.453125 340.257812 C 201.574219 341.761719 205.398438 342.988281 208.941406 343.933594 C 211.625 344.640625 215.277344 345.285156 219.851562 345.84375 C 220.453125 345.886719 221.074219 345.949219 221.675781 346.058594 C 222.621094 346.25 223.480469 346.53125 224.230469 346.894531 C 227.023438 348.054688 229.171875 349.710938 230.675781 351.921875 C 232.714844 357.03125 231.640625 365.621094 227.496094 377.714844 C 226.488281 380.699219 225.585938 383.320312 224.726562 385.574219 C 224.769531 385.574219 224.769531 385.722656 224.660156 386.023438 L 224.597656 385.9375 L 224.511719 386.21875 C 224.488281 386.261719 224.46875 386.304688 224.445312 386.324219 C 224.253906 387.011719 223.84375 388.453125 223.242188 390.621094 C 222.34375 393.820312 221.246094 395.796875 219.980469 396.484375 L 216.15625 397.128906 C 213.238281 397.515625 211.023438 397.730469 209.5 397.773438 C 200.007812 397.902344 193.308594 397.6875 189.398438 397.128906 C 185.597656 396.503906 181.6875 395.257812 177.628906 393.371094 C 173.527344 391.480469 169.726562 389.097656 166.226562 386.21875 C 162.125 382.675781 159.589844 377.863281 158.644531 371.765625 C 158.601562 371.398438 158.539062 371.035156 158.429688 370.691406 C 158.429688 370.367188 158.410156 370.089844 158.367188 369.851562 C 158.324219 369.253906 158.300781 368.695312 158.300781 368.242188 C 158.152344 367.984375 158.085938 367.75 158.085938 367.449219 L 158.085938 367.320312 C 158.085938 366.417969 158.042969 365.429688 157.9375 364.332031 C 157.808594 363.390625 157.65625 362.507812 157.527344 361.628906 C 157.464844 361.175781 157.398438 360.746094 157.3125 360.359375 C 157.207031 359.523438 156.992188 358.707031 156.671875 357.976562 L 156.605469 357.890625 L 156.605469 357.828125 C 156.5 357.71875 156.457031 357.65625 156.457031 357.613281 C 155.703125 355.570312 154.84375 353.683594 153.898438 351.921875 C 153.769531 351.75 153.664062 351.578125 153.621094 351.363281 C 153.855469 351.191406 154.179688 350.933594 154.609375 350.652344 C 156.605469 349.195312 158.042969 348.207031 158.925781 347.691406 C 159.117188 347.539062 159.3125 347.453125 159.503906 347.390625 C 160.148438 346.9375 160.773438 346.574219 161.351562 346.335938 C 162.273438 345.777344 163.242188 345.175781 164.25 344.511719 C 165.152344 343.976562 166.976562 343.074219 169.769531 341.742188 C 172.605469 340.367188 174.96875 339.355469 176.855469 338.691406 C 178.683594 338.046875 180.335938 337.46875 181.816406 336.996094 C 183.320312 336.414062 184.929688 335.898438 186.628906 335.425781 C 187.574219 335.148438 188.734375 334.867188 190.105469 334.589844 C 190.105469 335.726562 190.964844 336.457031 192.707031 336.84375 C 192.769531 338.046875 194.359375 339.164062 197.453125 340.257812 " fill-opacity="1" fill-rule="evenodd"/><path fill="#f89865" d="M 492.964844 561.5625 C 499.152344 555.378906 508.691406 549.359375 521.515625 543.503906 C 534.410156 537.652344 549.121094 532.90625 565.652344 529.265625 C 576.324219 535.171875 581.449219 542.511719 581.023438 551.292969 C 580.554688 559.992188 579.984375 565.929688 579.324219 569.15625 L 578.6875 572.761719 C 578.167969 572.628906 577.648438 572.59375 577.128906 572.695312 C 576.421875 572.695312 575.5 572.695312 574.367188 572.695312 C 571.390625 572.695312 566.125 576.085938 558.566406 582.898438 C 551.011719 589.746094 544.585938 595.316406 539.296875 599.601562 C 534.03125 603.851562 526.96875 608.929688 518.140625 614.832031 C 509.234375 621.019531 499.648438 623.761719 489.375 623.050781 C 487.390625 622.902344 485.359375 622.375 483.28125 621.429688 C 483.09375 620.472656 482.8125 619.5625 482.433594 618.667969 C 481.535156 616.207031 480.804688 614.402344 480.214844 613.277344 C 479.8125 612.335938 479.386719 611.476562 478.960938 610.730469 C 475.703125 604.445312 474.285156 599.652344 474.710938 596.34375 C 475.183594 591.25 476.90625 585.179688 479.882812 578.152344 C 482.339844 573.238281 486.707031 567.714844 492.964844 561.5625 " fill-opacity="1" fill-rule="evenodd"/><path fill="#d92b2b" d="M 252.566406 313.707031 C 252.523438 313.328125 252.476562 312.949219 252.453125 312.566406 C 252.292969 311.722656 252.132812 310.898438 251.945312 310.085938 C 250.476562 304.148438 249.097656 298.574219 247.761719 293.382812 C 246.453125 288.191406 245.878906 284.003906 246.0625 280.847656 C 246.0625 277.257812 246.175781 273.902344 246.429688 270.777344 C 247.695312 257.558594 250.453125 247.835938 254.707031 241.605469 C 275.578125 210.019531 301.992188 204.824219 333.964844 226.019531 C 335.527344 226.914062 338.632812 229.949219 343.320312 235.097656 C 343.460938 235.214844 343.550781 235.375 343.597656 235.511719 C 344.101562 235.925781 351.183594 247.925781 364.769531 271.488281 C 365.480469 272.636719 366.171875 273.789062 366.835938 274.960938 C 367.621094 276.453125 368.492188 277.996094 369.433594 279.558594 C 371.160156 282.300781 372.859375 285.046875 374.539062 287.777344 C 375.6875 289.628906 376.8125 291.464844 377.941406 293.300781 C 378.792969 294.539062 379.597656 295.746094 380.355469 296.921875 C 386.492188 306.414062 393.136719 316.039062 400.332031 325.8125 C 402.125 328.359375 403.960938 330.839844 405.871094 333.253906 C 406.996094 334.90625 408.167969 336.5625 409.410156 338.214844 C 411.480469 340.914062 413.546875 343.625 415.640625 346.351562 C 415.914062 346.453125 416.167969 346.632812 416.421875 346.933594 C 420.328125 352.503906 425.363281 359.320312 431.5 367.390625 C 442.488281 381.792969 449.984375 391.863281 453.960938 397.570312 C 461.914062 409.046875 468.488281 420.042969 473.636719 430.578125 C 475.707031 435.109375 477.542969 439.476562 479.152344 443.675781 C 472.695312 442.882812 466.074219 442.601562 459.316406 442.832031 C 455.132812 443.113281 450.855469 443.628906 446.511719 444.386719 C 429.800781 447.214844 413.226562 453.664062 396.859375 463.71875 C 381.640625 473.160156 363.6875 481.714844 342.953125 489.371094 C 336.011719 491.964844 329.621094 494.03125 323.78125 495.605469 L 252.566406 313.707031 " fill-opacity="1" fill-rule="evenodd"/><path fill="#eb6d2f" d="M 252.527344 313.742188 L 252.460938 313.460938 C 252.417969 313.136719 252.398438 312.855469 252.398438 312.597656 C 252.417969 312.988281 252.484375 313.355469 252.527344 313.742188 " fill-opacity="1" fill-rule="evenodd"/><path fill="#ff3333" d="M 250.777344 272.824219 C 249.832031 269.28125 249.105469 266.507812 248.578125 264.484375 C 248.667969 263.539062 248.777344 262.285156 248.863281 260.722656 C 248.953125 260.390625 249.105469 260.105469 249.28125 259.886719 C 249.480469 259.402344 249.789062 258.917969 250.207031 258.457031 C 251.679688 256.761719 254.34375 254.824219 258.214844 252.644531 C 263.960938 248.683594 271.683594 241.777344 281.386719 231.894531 C 284.996094 228.066406 288.121094 224.394531 290.714844 220.851562 C 290.871094 220.476562 291.023438 220.144531 291.222656 219.859375 C 291.355469 219.707031 291.507812 219.550781 291.726562 219.355469 C 294.171875 215.503906 296.042969 211.609375 297.316406 207.734375 C 297.363281 207.648438 297.449219 207.449219 297.582031 207.183594 C 297.691406 206.570312 297.890625 205.953125 298.175781 205.335938 C 298.835938 204.851562 299.605469 204.566406 300.507812 204.414062 C 304.425781 203.863281 310.367188 206.414062 318.332031 212.136719 C 318.53125 212.179688 318.707031 212.269531 318.835938 212.421875 C 318.75 212.464844 318.707031 212.53125 318.707031 212.640625 C 318.417969 215.28125 318 218.296875 317.496094 221.6875 C 317.496094 222.457031 317.449219 223.160156 317.339844 223.820312 C 316.460938 231.039062 315.824219 235.4375 315.449219 237 C 315.25 237.882812 315.074219 238.738281 314.875 239.53125 C 313.554688 245.496094 311.640625 251.722656 309.132812 258.234375 C 309.089844 258.566406 308.9375 258.828125 308.648438 259.027344 C 309.308594 263.164062 309.992188 267.300781 310.695312 271.414062 C 311.753906 276.609375 312.148438 279.335938 311.972656 279.625 C 311.554688 279.667969 309.484375 280.304688 305.8125 281.472656 C 303.414062 282.265625 300.949219 282.441406 298.441406 281.976562 C 293.378906 281.03125 286.492188 277.597656 277.757812 271.703125 C 272.738281 268.113281 268.84375 265.5625 266.007812 264.042969 C 263.960938 262.921875 262.441406 262.21875 261.40625 261.933594 C 259.757812 261.886719 257.554688 263.363281 254.804688 266.398438 L 254.804688 266.816406 C 254.476562 267.609375 254.234375 268.554688 254.035156 269.65625 C 253.574219 271.152344 253.175781 272.734375 252.914062 274.410156 C 252.761719 274.628906 252.695312 274.9375 252.695312 275.308594 C 252.539062 276.628906 252.429688 277.820312 252.34375 278.851562 C 251.8125 276.628906 251.308594 274.628906 250.78125 272.824219 " fill-opacity="1" fill-rule="evenodd"/><path fill="#f89865" d="M 250.316406 258.390625 C 247.386719 253.207031 244.300781 248.546875 241.109375 244.433594 C 240.910156 244.261719 240.800781 244.085938 240.757812 243.933594 C 238.660156 241.15625 236.449219 238.703125 234.085938 236.582031 C 233.914062 236.296875 233.648438 236.058594 233.300781 235.859375 C 233.257812 235.730469 233.210938 235.644531 233.167969 235.578125 L 233.039062 235.578125 L 232.972656 235.511719 C 232.535156 235.183594 232.007812 234.769531 231.398438 234.308594 L 257.25 211.78125 L 285.792969 183.585938 C 285.992188 187.324219 286.539062 190.714844 287.414062 193.800781 C 289.226562 200.078125 292.550781 204.691406 297.40625 207.667969 C 296.140625 211.539062 294.257812 215.433594 291.808594 219.304688 C 291.613281 219.480469 291.457031 219.652344 291.328125 219.785156 C 291.128906 220.070312 290.976562 220.398438 290.824219 220.792969 C 288.222656 224.335938 285.09375 227.988281 281.484375 231.835938 C 271.796875 241.703125 264.074219 248.613281 258.320312 252.59375 C 254.449219 254.761719 251.78125 256.683594 250.316406 258.390625 " fill-opacity="1" fill-rule="evenodd"/><path fill="#b02222" d="M 250.347656 258.375 C 249.914062 258.828125 249.613281 259.304688 249.417969 259.800781 C 249.246094 260.015625 249.097656 260.296875 249.007812 260.640625 C 248.902344 262.195312 248.816406 263.449219 248.730469 264.398438 C 249.246094 266.425781 249.960938 269.191406 250.910156 272.730469 C 249.355469 271.132812 247.132812 269.058594 244.171875 266.511719 C 238.949219 261.851562 235.820312 259.496094 234.761719 259.496094 C 231.890625 259.410156 228.976562 261.632812 226.0625 266.234375 C 225.542969 267.160156 225.046875 268.046875 224.574219 268.84375 C 224.226562 265.691406 224.078125 262.691406 224.078125 259.863281 C 224.25 252.589844 225.003906 245.722656 226.277344 239.3125 C 227.035156 235.859375 227.550781 233.3125 227.898438 231.648438 C 229.257812 232.707031 230.445312 233.570312 231.4375 234.28125 C 232.0625 234.757812 232.558594 235.167969 232.992188 235.46875 L 233.054688 235.554688 L 233.207031 235.554688 C 233.25 235.621094 233.292969 235.6875 233.335938 235.835938 C 233.683594 236.03125 233.941406 236.269531 234.113281 236.550781 C 236.488281 238.664062 238.710938 241.125 240.785156 243.910156 C 240.828125 244.0625 240.957031 244.234375 241.128906 244.40625 C 244.347656 248.53125 247.410156 253.171875 250.347656 258.375 " fill-opacity="1" fill-rule="evenodd"/><path fill="#f89865" d="M 472.496094 419.449219 C 472.933594 418.324219 473.464844 416.953125 474.132812 415.351562 C 476.113281 410.4375 477.378906 407.394531 477.957031 406.222656 C 477.378906 407.394531 476.113281 410.4375 474.132812 415.351562 C 473.460938 416.953125 472.933594 418.324219 472.496094 419.449219 Z M 457.976562 424.28125 C 456.847656 425.074219 455.71875 425.683594 454.585938 426.117188 C 454.171875 426.214844 453.804688 426.296875 453.527344 426.398438 C 452.238281 426.496094 450.855469 426.183594 449.332031 425.484375 C 448.433594 424.859375 447.328125 424.0625 446.015625 423.074219 C 445.828125 422.890625 445.667969 422.710938 445.507812 422.574219 C 446.265625 421.867188 447.097656 421.023438 447.996094 420.03125 L 448.066406 419.949219 C 448.339844 419.664062 448.550781 419.371094 448.617188 419.039062 C 449.539062 417.898438 450.253906 416.441406 450.832031 414.636719 C 451.40625 412.652344 451.636719 410.769531 451.546875 408.964844 C 451.636719 410.769531 451.40625 412.652344 450.832031 414.636719 C 450.253906 416.441406 449.539062 417.898438 448.617188 419.039062 C 448.550781 419.371094 448.339844 419.664062 448.066406 419.949219 L 447.996094 420.03125 C 447.097656 421.023438 446.265625 421.867188 445.507812 422.574219 C 445.046875 422.90625 444.515625 423.203125 443.894531 423.5 C 443.457031 423.78125 442.925781 424.015625 442.328125 424.199219 C 441.933594 424.445312 441.425781 424.527344 440.757812 424.480469 C 438.730469 424.859375 436.886719 424.328125 435.183594 422.855469 C 434.789062 422.425781 434.191406 421.15625 433.339844 419.039062 C 433.085938 418.605469 432.855469 418.042969 432.625 417.335938 C 432.394531 416.773438 432.164062 416.191406 431.980469 415.632812 C 432.417969 414.789062 432.785156 413.746094 433.109375 412.523438 C 433.40625 411.578125 433.636719 410.621094 433.824219 409.679688 C 434.144531 408.554688 434.398438 407.378906 434.535156 406.136719 C 435.25 401.65625 435.367188 398.085938 434.90625 395.457031 C 435.367188 398.085938 435.25 401.65625 434.535156 406.136719 C 434.398438 407.378906 434.144531 408.554688 433.824219 409.679688 C 433.636719 410.621094 433.40625 411.578125 433.109375 412.523438 C 432.785156 413.746094 432.417969 414.789062 431.980469 415.632812 C 431.519531 416.773438 430.828125 417.78125 429.925781 418.671875 C 429.328125 419.433594 427.992188 419.980469 425.964844 420.308594 C 425.777344 420.359375 425.570312 420.410156 425.316406 420.441406 C 424.050781 420.542969 423.058594 420.527344 422.34375 420.375 C 421.929688 420.246094 421.5625 420.046875 421.285156 419.8125 C 419.925781 418.542969 420.730469 414.007812 423.703125 406.21875 C 423.75 405.972656 423.773438 405.839844 423.773438 405.789062 C 424.050781 402.8125 424.328125 400.019531 424.625 397.421875 C 424.949219 392.609375 425.480469 388.359375 426.195312 384.6875 C 428.222656 371.972656 433.246094 363.734375 441.265625 359.964844 C 441.472656 359.714844 441.613281 359.636719 441.75 359.683594 C 442.140625 359.304688 442.601562 358.972656 443.179688 358.691406 C 443.984375 358.261719 444.839844 357.914062 445.738281 357.617188 C 448.363281 356.824219 451.890625 356.507812 456.269531 356.707031 C 462.308594 357.089844 467.308594 358.210938 471.226562 360.097656 C 471.851562 360.378906 472.5625 360.757812 473.347656 361.238281 C 478.785156 363.171875 482.011719 366.730469 483.050781 371.9375 C 484.085938 377.03125 484.964844 381.117188 485.679688 384.175781 C 486.4375 387.152344 486.96875 389.136719 487.3125 390.128906 C 488.859375 398.582031 487.773438 405.742188 484.042969 411.59375 C 483.328125 412.589844 482.613281 413.511719 481.851562 414.355469 C 479.203125 417.234375 477.632812 418.707031 477.105469 418.757812 C 476.480469 418.9375 474.960938 419.167969 472.496094 419.449219 C 472.171875 420.0625 471.851562 420.640625 471.503906 421.15625 C 470.949219 422.425781 470.558594 423.1875 470.375 423.417969 C 469.636719 424.179688 467.355469 424.527344 463.574219 424.480469 C 461.25 424.527344 459.382812 424.460938 457.976562 424.28125 C 459.105469 423.371094 460.257812 422.246094 461.457031 420.871094 C 462.308594 419.980469 463.023438 417.996094 463.644531 414.917969 C 463.691406 414.589844 463.691406 414.257812 463.644531 413.925781 C 464.175781 411.148438 464.335938 408.433594 464.128906 405.789062 C 464.335938 408.4375 464.175781 411.148438 463.644531 413.925781 C 463.691406 414.257812 463.691406 414.589844 463.644531 414.917969 C 463.023438 417.996094 462.308594 419.980469 461.457031 420.871094 C 460.257812 422.246094 459.105469 423.371094 457.976562 424.28125 " fill-opacity="1" fill-rule="evenodd"/><path stroke-linecap="butt" transform="matrix(0.229799, 0, 0, -0.229805, -3267.7878, 2579.455666)" fill="none" stroke-linejoin="miter" d="M 16239.808034 9458.690186 C 16240.691957 9447.165472 16239.995018 9435.368789 16237.700217 9423.283138 C 16237.904199 9421.8383 16237.904199 9420.393461 16237.700217 9418.96562 C 16234.997451 9405.588114 16231.90372 9396.93608 16228.198041 9393.060512 C 16222.996492 9387.07718 16217.998926 9382.181727 16213.10335 9378.221169 M 16276.303869 9399.230823 C 16278.105713 9404.143275 16280.400514 9410.109609 16283.307261 9417.095829 C 16291.908515 9438.462444 16297.50103 9451.703966 16299.999814 9456.803397 M 16138.207846 9377.371264 C 16140.995604 9377.150288 16143.307404 9377.507248 16144.905265 9378.595127 C 16147.608031 9379.37704 16149.902832 9380.379928 16151.806666 9381.603791 C 16154.407441 9382.912645 16156.804233 9384.204501 16158.810059 9385.632341 C 16162.107773 9388.742994 16165.694462 9392.414584 16169.604123 9396.715104 L 16169.893098 9397.072064 C 16171.099993 9398.312926 16172.000915 9399.604782 16172.306888 9401.032622 C 16176.301542 9406.013066 16179.497265 9412.33636 16181.894057 9420.189484 C 16184.409839 9428.82452 16185.395753 9437.017605 16185.004787 9444.870729 M 16099.893169 9415.871966 C 16101.797004 9419.543556 16103.394865 9424.065051 16104.805743 9429.402455 C 16106.097631 9433.498998 16107.100544 9437.663533 16107.899475 9441.777074 C 16109.395345 9446.672527 16110.500249 9451.771958 16110.993206 9457.177355 C 16114.103936 9476.674178 16114.596894 9492.210444 16112.608066 9503.667165 " stroke="#954e40" stroke-width="0.72" stroke-opacity="1" stroke-miterlimit="10"/><path fill="#f89865" d="M 418.582031 269.890625 C 418.878906 269.59375 419.0625 269.429688 419.15625 269.316406 C 424.351562 263.128906 429.894531 258.003906 435.804688 253.953125 C 441.757812 249.699219 446.3125 247.652344 449.460938 247.792969 C 452.636719 247.882812 454.957031 248.503906 456.476562 249.632812 C 457.855469 250.621094 459.601562 252.070312 461.71875 253.953125 C 463.789062 255.886719 467.167969 260.371094 471.859375 267.40625 C 476.273438 274.671875 478.574219 288.089844 478.710938 307.636719 C 478.710938 327.230469 479.035156 342.199219 479.632812 352.550781 C 480.160156 362.703125 480.367188 367.847656 480.277344 367.980469 C 480.183594 368.277344 480.070312 368.523438 479.929688 368.757812 C 479.21875 369.847656 478.367188 371.335938 477.378906 373.21875 C 475.445312 376.199219 472.089844 377.554688 467.328125 377.257812 C 455.417969 374.957031 447.945312 372.757812 444.933594 370.675781 C 444.035156 370.160156 442.703125 368.855469 440.886719 366.789062 C 439.136719 364.933594 437.828125 363.695312 436.929688 363.035156 C 437.066406 361.664062 437.183594 360.304688 437.207031 358.980469 C 437.207031 355.691406 436.953125 352.335938 436.425781 348.929688 C 436.054688 346.761719 435.597656 344.511719 435.023438 342.199219 C 434.078125 338.710938 431.34375 331.960938 426.882812 321.941406 C 425.273438 318.21875 423.890625 314.53125 422.765625 310.894531 C 421.730469 307.6875 420.832031 304.476562 420.074219 301.269531 C 417.753906 290.886719 417.339844 280.617188 418.808594 270.464844 C 418.648438 270.210938 418.582031 270.027344 418.582031 269.890625 " fill-opacity="1" fill-rule="evenodd"/><path fill="#b02222" d="M 397.480469 305.972656 C 404.378906 305.972656 411.800781 305.589844 419.71875 304.820312 C 418.632812 305.40625 417.34375 307.148438 415.828125 310.066406 C 414.3125 312.871094 413.019531 315.472656 411.933594 317.941406 C 410.601562 321.484375 409.492188 323.746094 408.542969 324.742188 C 407.570312 325.734375 406.730469 326.558594 405.984375 327.21875 C 405.464844 327.683594 404.652344 327.882812 403.585938 327.785156 C 402.976562 327.632812 402.296875 327.519531 401.597656 327.433594 C 401.550781 327.433594 401.484375 327.386719 401.4375 327.289062 C 400.941406 324.640625 400.398438 322.257812 399.902344 320.125 C 399.832031 319.796875 399.832031 319.449219 399.832031 319.070312 C 399.492188 318.125 399.265625 317.132812 399.109375 316.085938 C 398.632812 312.554688 398.113281 309.277344 397.546875 306.242188 L 397.1875 305.882812 C 397.296875 305.882812 397.390625 305.925781 397.480469 305.972656 Z M 415.328125 243.148438 L 415.554688 242.921875 C 416.300781 243.304688 417.046875 245.136719 417.726562 248.464844 L 409.378906 248.464844 L 409.109375 248.734375 C 409.671875 248.035156 410.261719 247.445312 410.871094 246.972656 C 411.007812 246.746094 411.144531 246.542969 411.300781 246.40625 C 411.957031 245.816406 412.613281 245.296875 413.269531 244.777344 C 413.316406 244.707031 413.40625 244.6875 413.472656 244.640625 C 413.859375 244.300781 414.265625 243.960938 414.695312 243.644531 C 414.921875 243.441406 415.148438 243.285156 415.328125 243.148438 " fill-opacity="1" fill-rule="evenodd"/><path fill="#ff3333" d="M 415.472656 243.058594 C 415.269531 243.195312 415.066406 243.351562 414.816406 243.554688 C 414.386719 243.894531 414.003906 244.210938 413.621094 244.550781 C 413.621094 244.503906 413.640625 244.460938 413.710938 244.390625 C 413.640625 244.390625 413.621094 244.4375 413.621094 244.460938 C 413.527344 244.503906 413.460938 244.59375 413.414062 244.683594 C 412.738281 245.203125 412.105469 245.746094 411.425781 246.3125 C 411.292969 246.449219 411.132812 246.652344 411 246.878906 C 410.386719 247.351562 409.800781 247.941406 409.234375 248.640625 L 409.53125 248.367188 C 409.144531 248.84375 408.761719 249.316406 408.378906 249.859375 C 404.421875 254.761719 401.417969 260.050781 399.40625 265.722656 L 398.320312 269.40625 C 397.914062 270.671875 397.554688 271.9375 397.257812 273.15625 C 396.265625 278.242188 395.882812 283.6875 396.0625 289.449219 C 396.0625 291.484375 396.21875 293.675781 396.558594 296.027344 C 396.605469 298.105469 396.832031 300.363281 397.257812 302.761719 C 397.257812 302.804688 397.257812 302.851562 397.257812 302.917969 L 397.257812 303.03125 C 397.257812 303.097656 397.257812 303.144531 397.257812 303.1875 C 397.371094 303.664062 397.417969 304.183594 397.417969 304.75 C 397.441406 305.066406 397.53125 305.449219 397.621094 305.878906 C 397.53125 305.832031 397.441406 305.8125 397.328125 305.8125 L 397.6875 306.171875 C 398.253906 309.199219 398.773438 312.476562 399.25 316.003906 C 399.40625 317.042969 399.632812 318.035156 399.972656 318.984375 C 399.972656 319.367188 399.972656 319.707031 400.015625 320.042969 C 400.535156 322.175781 401.078125 324.558594 401.574219 327.203125 C 401.507812 327.203125 401.394531 327.1875 401.304688 327.136719 C 397.011719 326.046875 391.792969 324.90625 385.644531 323.730469 C 383.996094 323.351562 382.253906 323.019531 380.46875 322.738281 C 379.972656 322.640625 379.386719 322.523438 378.777344 322.390625 C 378.257812 322.34375 377.828125 322.273438 377.441406 322.175781 C 362.753906 319.4375 348.96875 317.289062 336.136719 315.730469 C 334.214844 313.902344 332.519531 312.003906 331.117188 310.058594 C 325.832031 302.648438 323.1875 294.261719 323.234375 284.910156 C 323.4375 273.15625 325.671875 263.484375 329.964844 255.871094 C 334.214844 248.414062 337.308594 243.464844 339.1875 241.070312 C 341.015625 238.652344 342.800781 236.730469 344.496094 235.261719 C 356.40625 242.109375 368.789062 245 381.691406 243.894531 C 384.46875 243.714844 387.113281 243.601562 389.597656 243.554688 C 392.128906 243.285156 394.546875 243.105469 396.921875 243.058594 C 402.050781 242.808594 406.570312 242.742188 410.457031 242.855469 C 411.992188 242.855469 413.414062 242.898438 414.703125 243.058594 C 414.976562 243.058594 415.222656 243.058594 415.472656 243.058594 " fill-opacity="1" fill-rule="evenodd"/><path fill="#f89865" d="M 180.082031 290.230469 C 180.1875 286.082031 179.527344 282.996094 178.101562 281.019531 C 179.527344 282.996094 180.1875 286.082031 180.082031 290.230469 Z M 166.058594 296.890625 C 167.910156 300.378906 170.039062 302.359375 172.441406 302.847656 C 173.335938 303.125 174.144531 303.082031 174.847656 302.699219 C 174.144531 303.082031 173.335938 303.125 172.441406 302.847656 C 170.039062 302.359375 167.910156 300.378906 166.058594 296.890625 Z M 159.484375 348.527344 C 159.484375 348.25 159.507812 348.015625 159.550781 347.804688 C 158.421875 345.699219 157.613281 343.65625 157.144531 341.65625 C 157.0625 341.570312 156.996094 341.421875 156.996094 341.230469 C 155.953125 337.125 156.167969 332.996094 157.570312 328.824219 C 158.550781 326.101562 160.144531 323.1875 162.316406 320.125 C 163.675781 318.230469 165.292969 316.335938 167.144531 314.464844 C 167.378906 314.230469 167.59375 313.953125 167.761719 313.675781 C 170.976562 310.144531 172.742188 308.207031 173.082031 307.867188 C 173.402344 307.675781 173.933594 307.484375 174.632812 307.292969 C 173.933594 307.484375 173.402344 307.675781 173.082031 307.867188 C 172.742188 308.207031 170.976562 310.144531 167.761719 313.675781 C 167.59375 313.953125 167.378906 314.230469 167.144531 314.464844 C 165.292969 316.335938 163.675781 318.230469 162.316406 320.125 C 160.144531 323.1875 158.550781 326.101562 157.570312 328.824219 C 156.167969 332.996094 155.953125 337.125 156.996094 341.230469 C 156.996094 341.421875 157.0625 341.570312 157.144531 341.65625 C 157.613281 343.65625 158.421875 345.699219 159.550781 347.804688 C 159.507812 348.015625 159.484375 348.25 159.484375 348.527344 Z M 142.0625 291.015625 C 142.144531 293.464844 142.914062 295.996094 144.316406 298.589844 C 146.359375 302.507812 149.550781 306.441406 153.953125 310.359375 C 155.082031 311.804688 156.125 312.910156 157.058594 313.675781 C 157.273438 313.953125 157.484375 314.164062 157.71875 314.316406 C 158.167969 314.699219 158.59375 314.933594 158.910156 315.015625 C 158.976562 315.015625 158.996094 315.015625 159.058594 315.015625 C 160.613281 315.742188 162.421875 315.292969 164.507812 313.675781 C 165.230469 313.164062 165.933594 312.527344 166.632812 311.761719 C 167.761719 310.398438 168.484375 309.359375 168.824219 308.65625 C 168.867188 307.933594 168.867188 306.527344 168.824219 304.398438 C 167.699219 302.144531 166.785156 299.613281 166.058594 296.890625 C 165.402344 294.675781 164.785156 292.359375 164.167969 289.953125 C 162.847656 284.378906 162.25 280.058594 162.402344 276.976562 C 162.402344 276.527344 162.359375 276.082031 162.316406 275.71875 C 162.359375 276.082031 162.402344 276.527344 162.402344 276.976562 C 162.25 280.058594 162.847656 284.378906 164.167969 289.953125 C 164.785156 292.359375 165.398438 294.675781 166.058594 296.890625 C 166.785156 299.613281 167.699219 302.144531 168.824219 304.398438 C 168.867188 306.527344 168.867188 307.933594 168.824219 308.65625 C 168.484375 309.359375 167.761719 310.398438 166.632812 311.761719 C 165.933594 312.527344 165.230469 313.164062 164.507812 313.675781 C 162.421875 315.292969 160.613281 315.742188 159.058594 315.015625 C 158.996094 315.015625 158.976562 315.015625 158.910156 315.015625 C 158.59375 314.933594 158.167969 314.699219 157.71875 314.316406 C 157.484375 314.164062 157.273438 313.953125 157.058594 313.675781 C 156.125 312.910156 155.082031 311.804688 153.953125 310.359375 C 149.550781 306.441406 146.359375 302.507812 144.316406 298.589844 C 142.914062 295.996094 142.144531 293.464844 142.0625 291.015625 C 141.976562 288.082031 142.570312 285.273438 143.914062 282.59375 L 143.914062 282.167969 C 143.953125 282.058594 144.019531 281.976562 144.125 281.867188 C 144.402344 281.402344 144.742188 280.910156 145.105469 280.378906 C 147.273438 277.933594 150.761719 276.378906 155.570312 275.71875 C 158.101562 275.484375 160.316406 275.484375 162.316406 275.71875 C 162.976562 275.71875 163.59375 275.742188 164.167969 275.785156 C 166.144531 274.421875 167.378906 273.550781 167.828125 273.167969 C 169.636719 271.507812 171.636719 270.550781 173.847656 270.25 C 176.207031 270.058594 178.292969 270.785156 180.082031 272.378906 C 182.550781 274.65625 184.589844 277.785156 186.1875 281.804688 C 186.65625 282.890625 186.996094 283.804688 187.1875 284.484375 C 186.910156 284.742188 186.570312 284.996094 186.1875 285.273438 C 184.167969 286.359375 182.359375 287.804688 180.804688 289.589844 C 180.527344 289.824219 180.292969 290.039062 180.082031 290.230469 C 177.742188 292.933594 176.421875 294.742188 176.125 295.675781 C 175.699219 296.910156 175.273438 299.25 174.847656 302.699219 C 174.761719 304.125 174.675781 305.632812 174.632812 307.292969 C 174.507812 309.101562 174.378906 311.015625 174.292969 313.039062 C 174.378906 311.015625 174.507812 309.101562 174.632812 307.292969 C 174.675781 305.632812 174.761719 304.125 174.847656 302.699219 C 175.273438 299.25 175.699219 296.910156 176.125 295.675781 C 176.421875 294.742188 177.742188 292.933594 180.082031 290.230469 C 180.292969 290.039062 180.527344 289.824219 180.804688 289.589844 C 182.359375 287.804688 184.167969 286.359375 186.1875 285.273438 C 186.570312 284.996094 186.910156 284.742188 187.1875 284.484375 C 190.015625 283.316406 192.25 283.464844 193.910156 284.910156 C 194.65625 285.675781 195.058594 286.484375 195.101562 287.335938 C 193.972656 290.125 193.929688 293.527344 194.972656 297.527344 C 195.527344 300.507812 196.738281 305.292969 198.570312 311.910156 C 198.71875 312.527344 198.847656 313.125 198.929688 313.675781 C 200.164062 321.421875 198.570312 328.65625 194.1875 335.335938 C 191.78125 338.972656 188.507812 342.484375 184.335938 345.824219 C 184.25 346.164062 184.207031 346.484375 184.207031 346.824219 C 182.890625 349.613281 177.550781 351.441406 168.1875 352.335938 C 165.273438 352.632812 162.292969 352.804688 159.273438 352.847656 C 157.65625 352.929688 156.101562 352.929688 154.59375 352.847656 L 154.527344 353.058594 C 154.1875 352.929688 153.933594 352.71875 153.742188 352.421875 C 153.742188 352.273438 153.722656 352.1875 153.679688 352.144531 C 153.421875 351.953125 153.273438 351.78125 153.1875 351.65625 C 151.296875 350.335938 149.65625 349.1875 148.296875 348.25 C 146.125 346.039062 144.316406 343.890625 142.914062 341.867188 C 141.976562 340.398438 141.253906 338.972656 140.785156 337.550781 C 140.0625 335.1875 139.742188 332.1875 139.785156 328.550781 C 140.65625 328.933594 141.445312 329.316406 142.210938 329.761719 C 144.316406 330.890625 146.125 331.699219 147.570312 332.164062 C 149.230469 332.910156 150.53125 333.292969 151.488281 333.292969 C 151.488281 333.015625 151.488281 332.804688 151.550781 332.65625 C 151.933594 331.015625 151.828125 328.761719 151.273438 325.933594 C 151.039062 325.699219 150.914062 325.484375 150.914062 325.292969 C 150.59375 324.507812 150.296875 323.613281 150.0625 322.675781 C 150.296875 323.613281 150.59375 324.507812 150.914062 325.292969 C 150.914062 325.484375 151.039062 325.699219 151.273438 325.933594 C 151.828125 328.761719 151.933594 331.015625 151.550781 332.65625 C 151.488281 332.804688 151.488281 333.015625 151.488281 333.292969 C 150.53125 333.292969 149.230469 332.910156 147.570312 332.164062 C 146.125 331.699219 144.316406 330.890625 142.210938 329.761719 C 141.445312 329.316406 140.65625 328.933594 139.785156 328.550781 C 136.914062 326.996094 135.148438 325.867188 134.550781 325.164062 C 132.230469 323.125 130.933594 321.082031 130.65625 319.058594 C 130.617188 318.867188 130.59375 318.65625 130.59375 318.421875 C 130.488281 316.953125 130.914062 315.378906 131.871094 313.675781 C 132.488281 312.507812 133.382812 311.25 134.550781 309.933594 C 134.699219 309.632812 134.847656 309.421875 134.976562 309.273438 C 135.976562 311.039062 136.957031 312.507812 137.957031 313.675781 C 139 314.996094 139.957031 316.015625 140.871094 316.71875 C 141.847656 317.527344 142.933594 318.316406 144.125 319.058594 C 145.464844 319.996094 146.957031 320.933594 148.570312 321.824219 C 149.039062 322.125 149.550781 322.398438 150.0625 322.675781 C 150.679688 323.015625 151.273438 323.230469 151.828125 323.378906 C 153.871094 324.273438 155.253906 324.25 156.019531 323.316406 C 157.0625 322.230469 157.722656 320.804688 157.996094 319.058594 C 158.039062 318.742188 158.0625 318.421875 158.0625 318.144531 C 158.0625 317.527344 158.0625 316.847656 158.0625 316.101562 C 157.976562 315.441406 157.847656 314.847656 157.722656 314.316406 C 157.847656 314.847656 157.976562 315.441406 158.0625 316.101562 C 158.0625 316.847656 158.0625 317.527344 158.0625 318.144531 C 158.0625 318.421875 158.039062 318.742188 157.996094 319.058594 C 157.722656 320.804688 157.0625 322.230469 156.019531 323.316406 C 155.253906 324.25 153.871094 324.273438 151.828125 323.378906 C 151.273438 323.230469 150.679688 323.015625 150.0625 322.675781 C 149.550781 322.398438 149.039062 322.125 148.570312 321.824219 C 146.957031 320.933594 145.464844 319.996094 144.125 319.058594 C 142.933594 318.316406 141.847656 317.527344 140.871094 316.71875 C 139.957031 316.015625 139 314.996094 137.957031 313.675781 C 136.957031 312.507812 135.976562 311.039062 134.976562 309.273438 C 134.785156 309.207031 134.636719 308.953125 134.488281 308.59375 C 134.421875 306.59375 134.636719 304.484375 135.039062 302.273438 C 135.613281 298.867188 136.574219 296.359375 137.890625 294.699219 L 138.019531 294.570312 C 138.125 294.464844 138.210938 294.359375 138.296875 294.273438 C 139.339844 293.039062 140.59375 291.953125 142.0625 291.019531 " fill-opacity="1" fill-rule="evenodd"/><path stroke-linecap="butt" transform="matrix(0.211964, 0, 0, -0.211969, -3267.7878, 2579.455666)" fill="none" stroke-linejoin="miter" d="M 16266.493346 10799.902789 C 16266.990924 10819.492146 16263.894881 10833.995273 16257.205217 10843.393742 M 16200.407571 10768.500847 C 16209.105978 10752.007456 16219.094402 10742.70113 16230.501846 10740.397583 C 16234.703619 10739.107598 16238.499957 10739.291881 16241.798717 10741.097861 M 16169.299711 10524.896228 C 16169.299711 10526.204642 16169.391855 10527.291916 16169.594572 10528.305476 C 16164.305498 10538.293652 16160.50916 10547.894833 16158.297701 10557.293302 C 16157.800122 10557.809296 16157.597405 10558.509574 16157.597405 10559.301994 C 16152.695337 10578.707067 16153.59835 10598.204283 16160.306443 10617.79364 C 16164.895221 10630.693498 16172.395754 10644.404205 16182.697468 10658.907332 C 16189.092271 10667.808235 16196.703377 10676.709138 16205.401783 10685.591612 C 16206.507513 10686.697314 16207.50267 10688.005728 16208.405682 10689.295714 C 16223.498892 10705.991817 16231.902437 10715.095432 16233.505745 10716.6987 C 16234.99848 10717.60169 16237.5048 10718.50468 16240.803561 10719.40767 M 16299.996954 10826.992493 C 16298.706936 10825.794649 16297.103628 10824.707375 16295.297603 10823.306819 C 16285.696184 10818.20216 16277.200495 10811.402092 16269.902679 10802.906614 C 16268.594232 10801.800911 16267.506931 10800.805779 16266.493346 10799.902789 C 16255.491336 10787.205643 16249.207106 10778.599594 16247.806515 10774.195214 C 16245.889917 10768.408705 16243.807459 10757.296398 16241.798717 10741.097861 C 16241.393283 10734.408363 16241.006278 10727.202871 16240.803561 10719.40767 C 16240.195409 10710.893763 16239.605687 10701.900719 16239.08968 10692.299538 M 16076.399992 10619.194196 C 16080.491192 10617.406644 16084.195386 10615.508522 16087.807436 10613.499829 C 16097.79586 10608.100317 16106.29155 10604.304073 16113.091787 10602.092669 C 16120.90561 10598.609707 16127.097696 10596.803726 16131.59433 10596.803726 C 16131.59433 10598.093712 16131.59433 10599.107273 16131.889191 10599.69698 C 16133.695216 10607.492181 16133.197638 10618.106922 16130.507029 10631.504347 C 16129.401299 10632.59162 16128.903721 10633.605181 16128.903721 10634.508171 C 16127.300413 10638.304415 16125.991966 10642.395513 16124.794093 10646.910464 M 16053.695677 10710.101344 C 16058.395028 10701.808577 16063.094379 10694.805797 16067.701585 10689.295714 C 16072.603654 10683.103782 16077.192432 10678.293977 16081.504777 10674.903157 C 16086.093555 10671.106913 16091.19834 10667.494953 16096.800704 10663.901421 C 16103.195507 10659.49704 16110.290605 10655.09266 16117.791138 10650.90942 C 16120.094742 10649.508864 16122.398345 10648.20045 16124.794093 10646.910464 C 16127.705847 10645.307196 16130.507029 10644.201493 16133.197638 10643.501215 C 16142.799057 10639.299547 16149.304433 10639.410117 16152.898054 10643.906639 C 16157.800122 10648.99287 16161.006738 10655.700796 16162.296756 10663.901421 C 16162.499473 10665.394119 16162.591617 10666.905245 16162.591617 10668.195231 C 16162.591617 10671.106913 16162.591617 10674.405591 16162.591617 10677.906982 C 16162.204612 10681.002948 16161.596461 10683.80406 16161.006738 10686.310318 M 16087.107141 10796.309257 C 16087.604719 10784.607242 16091.106196 10772.702516 16097.79586 10760.502935 C 16107.39728 10742.000852 16122.508918 10723.498768 16143.296635 10704.996685 C 16148.604137 10698.104475 16153.506205 10692.907675 16157.892266 10689.295714 C 16158.905852 10688.005728 16159.901009 10687.010596 16161.006738 10686.310318 C 16163.199769 10684.504338 16165.097938 10683.398636 16166.701246 10682.993212 C 16166.903963 10682.993212 16167.10668 10682.993212 16167.290968 10682.993212 C 16174.699357 10679.602392 16183.195046 10681.703226 16192.999182 10689.295714 C 16196.408516 10691.709831 16199.707276 10694.805797 16203.09818 10698.399329 C 16208.405682 10704.793973 16211.796586 10709.695919 16213.399894 10712.994598 C 16213.602611 10716.403846 16213.602611 10723.093344 16213.399894 10733.099949 C 16208.092392 10743.806832 16203.706331 10755.600988 16200.407571 10768.500847 C 16197.200955 10778.894448 16194.307629 10789.896185 16191.395874 10801.303345 C 16185.203788 10827.600629 16182.292034 10847.908692 16182.992329 10862.393391 C 16182.992329 10864.604795 16182.900185 10866.595059 16182.697468 10868.40104 " stroke="#954e40" stroke-width="0.78" stroke-opacity="1" stroke-miterlimit="10"/><path fill="#d8d9d8" d="M 590.054688 576.171875 L 587.226562 576.539062 C 586.042969 574.835938 585.390625 573.113281 585.246094 571.363281 C 585.195312 570.933594 585.222656 570.453125 585.316406 569.875 C 579.6875 548.953125 571.882812 534.863281 561.855469 527.585938 L 564.925781 526.25 C 574.929688 533.476562 582.273438 546.292969 586.9375 564.714844 C 587.035156 565.078125 587.105469 565.441406 587.15625 565.773438 L 587.515625 565.773438 Z M 596.652344 575.480469 L 595.851562 575.265625 L 591.890625 575.828125 L 589.351562 566.117188 L 594.597656 567.328125 Z M 604.722656 577.464844 L 598.679688 575.976562 L 596.722656 567.757812 L 603.152344 569.3125 Z M 614.363281 581.777344 L 614.070312 581.417969 L 606.195312 578.027344 L 604.503906 569.59375 C 613.105469 572.898438 616.390625 576.953125 614.363281 581.777344 Z M 620.863281 587.15625 C 617.988281 577.859375 626.589844 568.203125 646.644531 558.199219 L 623.617188 525.109375 C 601.484375 535.179688 584.449219 531.820312 572.488281 515.054688 L 574.757812 513.925781 C 586.1875 528.363281 601.941406 531.375 622.070312 522.921875 L 603.925781 498.980469 L 611.4375 494.445312 C 639.734375 528.398438 657.300781 555.023438 664.136719 574.339844 C 670.808594 593.554688 670.179688 601.375 662.300781 597.789062 C 663.148438 591.074219 658.292969 578.472656 647.707031 559.96875 C 628.402344 569.640625 619.703125 578.902344 621.585938 587.734375 C 621.347656 587.585938 621.105469 587.40625 620.863281 587.15625 " fill-opacity="1" fill-rule="evenodd"/><path fill="#fdfffd" d="M 662.484375 597.699219 C 651.558594 608.035156 637.980469 604.679688 621.75 587.644531 C 619.867188 578.8125 628.574219 569.550781 647.890625 559.878906 C 658.457031 578.382812 663.328125 590.984375 662.484375 597.699219 Z M 604.09375 498.886719 L 622.253906 522.832031 C 602.117188 531.285156 586.367188 528.273438 574.9375 513.835938 Z M 621.050781 587.066406 L 614.515625 581.691406 C 616.5625 576.863281 613.257812 572.808594 604.675781 569.503906 L 606.363281 577.9375 L 604.964844 577.441406 L 604.890625 577.375 L 603.324219 569.222656 L 596.882812 567.667969 L 598.863281 575.886719 L 596.8125 575.390625 L 594.761719 567.238281 L 589.527344 566.03125 L 592.0625 575.738281 L 590.226562 576.085938 L 587.695312 565.683594 L 587.308594 565.683594 C 587.261719 565.351562 587.214844 564.988281 587.117188 564.625 C 582.4375 546.203125 575.105469 533.386719 565.097656 526.15625 C 561.746094 524.355469 559.9375 524.007812 559.695312 525.097656 C 560.035156 522.585938 564.351562 519.210938 572.671875 514.960938 C 584.609375 531.730469 601.660156 535.089844 623.800781 525.015625 L 646.832031 558.109375 C 626.765625 568.117188 618.15625 577.773438 621.050781 587.066406 " fill-opacity="1" fill-rule="evenodd"/><path fill="#fefffe" d="M 559.238281 528.816406 L 561.933594 527.546875 C 571.964844 534.820312 579.769531 548.910156 585.398438 569.832031 C 585.300781 570.410156 585.277344 570.886719 585.328125 571.320312 C 585.46875 573.070312 586.128906 574.792969 587.3125 576.496094 L 547.699219 593.777344 C 547.648438 593.824219 547.648438 593.890625 547.699219 593.992188 C 545.710938 597.101562 543.628906 598.09375 541.40625 596.96875 C 541.027344 595.925781 540.648438 594.902344 540.269531 593.910156 C 536.039062 576.265625 526.71875 560.816406 512.363281 547.585938 C 514.632812 544.941406 517.753906 543.535156 521.730469 543.335938 L 559.238281 528.816406 " fill-opacity="1" fill-rule="evenodd"/><path fill="#5c5d5c" d="M 565.074219 526.167969 L 562.019531 527.507812 L 559.3125 528.78125 C 559.195312 525.570312 559.289062 524.363281 559.621094 525.175781 C 559.691406 525.175781 559.738281 525.144531 559.691406 525.109375 C 559.925781 524.015625 561.710938 524.363281 565.074219 526.167969 " fill-opacity="1" fill-rule="evenodd"/><path fill="#f89865" d="M 161.324219 215.253906 L 162.25 215.121094 C 162.445312 215.011719 162.664062 214.96875 162.949219 214.96875 C 168.679688 213.980469 173.796875 209.917969 178.320312 202.785156 C 173.796875 209.917969 168.679688 213.980469 162.949219 214.96875 C 162.664062 214.96875 162.445312 215.011719 162.25 215.121094 L 161.324219 215.253906 L 157.503906 216.023438 L 152.542969 196.832031 C 143.71875 192.53125 141.675781 187.632812 146.375 182.167969 C 148.832031 179.464844 152.148438 177.183594 156.296875 175.316406 C 157.285156 169.34375 156.296875 162.800781 153.335938 155.6875 C 151.292969 150.921875 148.085938 145.28125 143.675781 138.757812 C 140.996094 134.699219 139.523438 129.824219 139.304688 124.160156 L 139.789062 116.738281 C 141.875 103.214844 149.644531 89.753906 163.105469 76.273438 C 169.800781 69.488281 176.277344 64.019531 182.511719 59.9375 C 199.132812 45.46875 215.378906 38.53125 231.234375 39.101562 C 244.691406 39.5625 257.511719 45.269531 269.699219 56.25 C 279.554688 64.964844 288.292969 76.339844 295.914062 90.367188 C 302.148438 101.675781 306.234375 111.664062 308.230469 120.402344 C 310.953125 132.832031 308.691406 147.015625 301.425781 162.976562 C 297.78125 171.1875 289.171875 185.832031 275.5625 206.890625 C 267.109375 220.347656 252.925781 230.316406 232.988281 236.769531 C 217.707031 241.6875 203.546875 243.710938 190.503906 242.789062 C 182.46875 242.171875 175.640625 239.363281 170.042969 234.378906 C 168.332031 232.773438 166.859375 231.085938 165.652344 229.351562 L 164.09375 226.933594 C 162.578125 223.488281 161.65625 219.601562 161.328125 215.253906 " fill-opacity="1" fill-rule="evenodd"/><path stroke-linecap="butt" transform="matrix(0.211418, 0, 0, -0.211424, -3267.7878, 2579.455666)" fill="none" stroke-linejoin="miter" d="M 16219.591491 11182.405854 L 16224.00735 11182.997084 C 16224.801835 11183.495934 16225.891943 11183.69917 16227.296149 11183.69917 C 16254.308641 11188.392057 16278.605103 11207.496175 16300.000771 11241.307137 " stroke="#000033" stroke-width="3.911" stroke-opacity="1" stroke-miterlimit="10"/><path fill="#330000" d="M 329.800781 120.21875 C 335.414062 150.945312 321.863281 177.894531 289.148438 201.039062 C 285.875 201.039062 282.691406 200.15625 279.574219 198.410156 C 273.410156 195.003906 270.867188 189.125 271.992188 180.769531 C 270.492188 171.75 267.285156 164.675781 262.378906 159.523438 C 252.496094 149.378906 239.1875 154.152344 222.410156 173.828125 C 220.820312 166.574219 218.277344 158.308594 214.828125 149.113281 C 207.953125 130.652344 199.730469 116.527344 190.203125 106.757812 C 182.929688 106.84375 175.546875 106.027344 168.097656 104.257812 C 153.175781 100.875 145.175781 94.863281 144.070312 86.199219 C 144.136719 85.425781 144.269531 84.363281 144.511719 83.105469 C 145.175781 80.496094 146.101562 77.996094 147.339844 75.585938 C 151.164062 68.136719 157.332031 63.296875 165.820312 61.0625 L 167.808594 56.332031 C 169.6875 52.464844 171.964844 48.882812 174.597656 45.632812 C 183.195312 35.089844 194.269531 29.230469 207.820312 28.058594 L 217.039062 23.371094 C 224.6875 20.078125 232.179688 17.847656 239.566406 16.742188 C 263.019531 13.378906 280.746094 21.914062 292.683594 42.363281 C 306.566406 66.105469 313.929688 78.816406 314.769531 80.472656 C 322.703125 95.4375 327.722656 108.679688 329.800781 120.21875 " fill-opacity="1" fill-rule="evenodd"/><path fill="#330000" d="M 145.203125 85.710938 L 156.113281 81.746094 C 158.277344 98.511719 168.382812 110.464844 186.417969 117.582031 C 164.359375 117.308594 150.605469 106.691406 145.203125 85.710938 " fill-opacity="1" fill-rule="evenodd"/><path fill="#77390d" d="M 249.136719 169.605469 C 250.089844 171.25 250.304688 173.109375 249.832031 175.1875 C 249.417969 177.414062 248.445312 179.273438 246.933594 180.789062 C 245.332031 182.195312 243.6875 182.867188 241.976562 182.757812 C 240.269531 182.867188 238.992188 182.152344 238.148438 180.660156 C 237.261719 178.992188 237.046875 176.980469 237.5 174.625 C 237.890625 172.785156 238.753906 171.207031 240.074219 169.886719 C 241.242188 168.132812 242.691406 166.792969 244.402344 165.839844 C 247.363281 163.875 250.285156 163.484375 253.160156 164.714844 C 255.5625 165.753906 257.183594 167.808594 257.984375 170.945312 C 257.140625 169.128906 255.820312 167.875 254.003906 167.117188 C 251.839844 166.316406 249.484375 166.46875 246.929688 167.527344 C 247.882812 168.003906 248.597656 168.695312 249.136719 169.605469 " fill-opacity="1" fill-rule="evenodd"/><path fill="#3a210b" d="M 188.59375 127.09375 L 189.652344 135.746094 C 180.828125 133.414062 170.351562 132.375 158.261719 132.609375 C 155.820312 127.03125 154.824219 122.234375 155.3125 118.183594 C 167.953125 118.585938 179.046875 121.558594 188.59375 127.09375 " fill-opacity="1" fill-rule="evenodd"/><path fill="#000000" d="M 172.378906 146.34375 C 168.921875 146.808594 166.144531 148.378906 164.023438 151.09375 C 161.882812 153.808594 161.035156 156.902344 161.457031 160.359375 C 161.882812 163.773438 163.492188 166.488281 166.292969 168.589844 C 168.984375 170.75 172.039062 171.601562 175.496094 171.132812 C 178.886719 170.6875 181.6875 169.117188 183.914062 166.382812 C 185.992188 163.625 186.820312 160.574219 186.394531 157.160156 C 185.972656 153.722656 184.402344 150.964844 181.644531 148.886719 C 178.867188 146.769531 175.769531 145.898438 172.378906 146.34375 Z M 172.082031 144.414062 C 176.003906 143.949219 179.566406 144.902344 182.789062 147.253906 C 185.84375 149.757812 187.644531 152.960938 188.15625 156.882812 C 188.640625 160.804688 187.710938 164.304688 185.335938 167.378906 C 182.832031 170.582031 179.609375 172.40625 175.6875 172.894531 C 171.828125 173.402344 168.328125 172.40625 165.210938 169.925781 C 162.007812 167.550781 160.164062 164.410156 159.675781 160.488281 C 159.167969 156.566406 160.164062 153.023438 162.667969 149.800781 C 165.082031 146.726562 168.222656 144.945312 172.082031 144.414062 " fill-opacity="1" fill-rule="evenodd"/><path fill="#ffffcc" d="M 172.367188 146.332031 C 175.78125 145.90625 178.875 146.777344 181.652344 148.875 C 184.386719 150.972656 185.953125 153.730469 186.398438 157.160156 C 186.824219 160.574219 185.996094 163.625 183.917969 166.382812 C 181.695312 169.117188 178.875 170.707031 175.503906 171.128906 C 172.027344 171.59375 168.976562 170.746094 166.285156 168.585938 C 163.488281 166.488281 161.878906 163.773438 161.453125 160.363281 C 161.050781 156.90625 161.878906 153.8125 164.019531 151.078125 C 166.136719 148.386719 168.933594 146.796875 172.367188 146.332031 " fill-opacity="1" fill-rule="evenodd"/><path fill="#3f0920" d="M 176.949219 156.082031 C 176.398438 155.808594 176.082031 155.46875 176.019531 155.027344 C 175.976562 154.558594 176.167969 154.199219 176.589844 153.902344 C 176.96875 153.523438 177.5 153.289062 178.15625 153.207031 C 178.769531 153.101562 179.359375 153.207031 179.933594 153.480469 C 180.398438 153.671875 180.652344 153.988281 180.714844 154.476562 C 180.757812 154.878906 180.609375 155.300781 180.269531 155.679688 C 179.847656 156 179.339844 156.210938 178.726562 156.316406 C 178.070312 156.402344 177.457031 156.335938 176.949219 156.082031 " fill-opacity="1" fill-rule="evenodd"/><path stroke-linecap="butt" transform="matrix(0.211567, 0, 0, -0.211572, -3267.7878, 2579.455666)" fill="none" stroke-linejoin="miter" d="M 16281.999274 11454.106162 C 16284.399516 11452.906071 16287.29827 11452.592201 16290.400121 11452.998386 C 16293.298875 11453.496885 16295.699117 11454.493884 16297.693164 11456.007845 C 16299.29948 11457.79875 16300.001089 11459.792748 16299.797992 11461.694431 C 16299.502578 11464.002298 16298.302457 11465.497796 16296.105312 11466.40248 C 16293.391192 11467.694886 16290.603219 11468.193386 16287.704465 11467.694886 C 16284.602613 11467.307164 16282.091591 11466.199388 16280.300641 11464.408483 C 16278.306594 11463.005299 16277.401887 11461.306709 16277.604984 11459.109619 C 16277.900399 11457.004844 16279.395934 11455.398568 16281.999274 11454.106162 Z M 16281.999274 11454.106162 " stroke="#330000" stroke-width="1.954" stroke-opacity="1" stroke-miterlimit="10"/><g clip-path="url(#ee68b07f0c)"><g clip-path="url(#5d58cf1ce1)"><path fill="url(#1d43f6522d)" d="M 158.820312 163.578125 L 168.144531 139.160156 L 192.207031 148.992188 L 182.882812 173.414062 Z M 158.820312 163.578125 " fill-rule="nonzero"/></g></g><path fill="#330033" d="M 170.945312 162.945312 C 169.191406 161.613281 168.152344 159.875 167.835938 157.695312 C 167.453125 155.535156 167.898438 153.566406 169.167969 151.828125 C 170.4375 150.175781 172.152344 149.203125 174.25 148.90625 C 176.453125 148.632812 178.378906 149.117188 180.074219 150.410156 C 181.808594 151.765625 182.890625 153.542969 183.25 155.726562 C 183.585938 157.882812 183.121094 159.832031 181.851562 161.527344 C 180.601562 163.21875 178.929688 164.214844 176.75 164.511719 C 174.632812 164.789062 172.683594 164.257812 170.945312 162.945312 " fill-opacity="1" fill-rule="evenodd"/><path fill="#000000" d="M 171.652344 161.09375 C 170.382812 160.207031 169.597656 158.980469 169.324219 157.414062 C 169.070312 155.847656 169.449219 154.449219 170.445312 153.246094 C 171.441406 151.996094 172.75 151.277344 174.359375 151.105469 C 175.945312 150.875 177.449219 151.214844 178.804688 152.164062 C 180.09375 153.097656 180.835938 154.367188 181.089844 155.910156 C 181.363281 157.476562 181.003906 158.851562 180.011719 160.039062 C 179.015625 161.265625 177.726562 161.984375 176.117188 162.238281 C 174.507812 162.40625 173.027344 162.027344 171.652344 161.09375 " fill-opacity="1" fill-rule="evenodd"/><path stroke-linecap="butt" transform="matrix(0.211604, 0, 0, -0.21161, -3267.7878, 2579.455666)" fill="none" stroke-linejoin="miter" d="M 16254.103274 11428.407629 C 16260.601247 11423.995763 16267.597645 11422.205173 16275.203228 11422.998939 C 16282.790351 11424.198819 16288.900662 11427.595403 16293.608001 11433.391746 C 16298.29688 11439.003493 16299.995214 11445.501304 16298.703003 11452.903641 C 16297.503093 11460.19522 16293.995664 11466.19462 16287.903814 11470.606486 C 16281.49814 11475.092192 16274.390982 11476.698185 16266.89616 11475.609063 C 16259.290577 11474.796836 16253.106425 11471.400253 16248.399086 11465.493151 C 16243.691747 11459.807566 16241.901113 11453.198996 16243.101022 11445.79666 C 16244.393233 11438.394323 16248.103724 11432.597979 16254.103274 11428.407629 Z M 16254.103274 11428.407629 " stroke="#330000" stroke-width="0.782" stroke-opacity="1" stroke-miterlimit="10"/><path fill="#ffffff" d="M 171.335938 152.289062 C 171.734375 152.964844 171.863281 153.578125 171.671875 154.210938 C 171.484375 154.78125 171.019531 155.117188 170.257812 155.265625 C 169.542969 155.414062 168.761719 155.285156 167.917969 154.90625 C 167.09375 154.546875 166.417969 154 165.933594 153.28125 C 165.46875 152.625 165.320312 152.015625 165.511719 151.445312 C 165.765625 150.875 166.25 150.539062 167.007812 150.453125 C 167.769531 150.261719 168.589844 150.328125 169.476562 150.664062 C 170.300781 151.042969 170.914062 151.59375 171.335938 152.289062 " fill-opacity="1" fill-rule="evenodd"/><path fill="#ffffff" d="M 168.191406 159.425781 C 167.917969 159.300781 167.746094 159.089844 167.707031 158.792969 C 167.664062 158.519531 167.746094 158.222656 168 157.929688 C 168.234375 157.695312 168.527344 157.550781 168.90625 157.527344 C 169.289062 157.464844 169.625 157.527344 169.898438 157.65625 C 170.171875 157.886719 170.34375 158.160156 170.40625 158.433594 C 170.449219 158.710938 170.34375 158.960938 170.109375 159.152344 C 169.878906 159.425781 169.5625 159.59375 169.183594 159.636719 C 168.800781 159.699219 168.484375 159.617188 168.191406 159.425781 " fill-opacity="1" fill-rule="evenodd"/><path fill="#ffffff" d="M 180.464844 153.769531 C 180.082031 153.433594 179.851562 152.964844 179.742188 152.414062 C 179.660156 151.90625 179.742188 151.421875 180.039062 150.996094 C 180.335938 150.574219 180.71875 150.320312 181.226562 150.214844 C 181.714844 150.171875 182.136719 150.320312 182.519531 150.636719 C 182.941406 150.976562 183.195312 151.398438 183.300781 151.90625 C 183.386719 152.5 183.28125 152.964844 182.941406 153.410156 C 182.707031 153.832031 182.347656 154.066406 181.882812 154.109375 C 181.375 154.214844 180.886719 154.089844 180.464844 153.769531 " fill-opacity="1" fill-rule="evenodd"/></svg>