<svg xmlns="http://www.w3.org/2000/svg" xmlns:xlink="http://www.w3.org/1999/xlink" width="1080" zoomAndPan="magnify" viewBox="0 0 810 809.999993" height="1080" preserveAspectRatio="xMidYMid meet" version="1.0"><defs><clipPath id="989dea648c"><path d="M 34.523438 0 L 775.523438 0 L 775.523438 810 L 34.523438 810 Z M 34.523438 0 " clip-rule="nonzero"/></clipPath><clipPath id="7737a5ea81"><path d="M 238 138 L 258 138 L 258 159 L 238 159 Z M 238 138 " clip-rule="nonzero"/></clipPath><clipPath id="0d9e7105f1"><path d="M 256.089844 154.640625 C 254.476562 156.777344 252.351562 158.003906 249.710938 158.335938 C 246.996094 158.667969 244.5625 158.003906 242.386719 156.347656 C 240.210938 154.691406 238.929688 152.535156 238.492188 149.882812 C 238.058594 147.183594 238.648438 144.777344 240.183594 142.640625 C 241.796875 140.519531 243.949219 139.289062 246.664062 138.960938 C 249.304688 138.628906 251.710938 139.289062 253.914062 140.949219 C 256.117188 142.589844 257.449219 144.777344 257.859375 147.480469 C 258.292969 150.117188 257.703125 152.519531 256.089844 154.640625 " clip-rule="evenodd"/></clipPath><radialGradient gradientTransform="matrix(0.936493, 0.382707, 0.352533, -0.923314, 2517.966582, -1166.89369)" gradientUnits="userSpaceOnUse" r="20.85354" cx="0" id="cc3ecff6fe" cy="0" fx="0" fy="0"><stop stop-opacity="1" stop-color="rgb(57.446289%, 2.047729%, 2.165222%)" offset="0"/><stop stop-opacity="1" stop-color="rgb(57.215881%, 2.120972%, 2.415466%)" offset="0.0078125"/><stop stop-opacity="1" stop-color="rgb(57.063293%, 2.1698%, 2.581787%)" offset="0.0117188"/><stop stop-opacity="1" stop-color="rgb(56.90918%, 2.218628%, 2.749634%)" offset="0.015625"/><stop stop-opacity="1" stop-color="rgb(56.756592%, 2.267456%, 2.915955%)" offset="0.0195312"/><stop stop-opacity="1" stop-color="rgb(56.604004%, 2.316284%, 3.082275%)" offset="0.0234375"/><stop stop-opacity="1" stop-color="rgb(56.44989%, 2.365112%, 3.250122%)" offset="0.0273438"/><stop stop-opacity="1" stop-color="rgb(56.297302%, 2.41394%, 3.416443%)" offset="0.03125"/><stop stop-opacity="1" stop-color="rgb(56.144714%, 2.462769%, 3.582764%)" offset="0.0351562"/><stop stop-opacity="1" stop-color="rgb(55.990601%, 2.511597%, 3.75061%)" offset="0.0390625"/><stop stop-opacity="1" stop-color="rgb(55.838013%, 2.560425%, 3.916931%)" offset="0.0429688"/><stop stop-opacity="1" stop-color="rgb(55.685425%, 2.609253%, 4.083252%)" offset="0.046875"/><stop stop-opacity="1" stop-color="rgb(55.531311%, 2.658081%, 4.251099%)" offset="0.0507812"/><stop stop-opacity="1" stop-color="rgb(55.378723%, 2.706909%, 4.417419%)" offset="0.0546875"/><stop stop-opacity="1" stop-color="rgb(55.226135%, 2.755737%, 4.58374%)" offset="0.0585938"/><stop stop-opacity="1" stop-color="rgb(55.072021%, 2.804565%, 4.751587%)" offset="0.0625"/><stop stop-opacity="1" stop-color="rgb(54.919434%, 2.853394%, 4.917908%)" offset="0.0664062"/><stop stop-opacity="1" stop-color="rgb(54.766846%, 2.902222%, 5.084229%)" offset="0.0703125"/><stop stop-opacity="1" stop-color="rgb(54.612732%, 2.95105%, 5.250549%)" offset="0.0742188"/><stop stop-opacity="1" stop-color="rgb(54.460144%, 2.999878%, 5.418396%)" offset="0.078125"/><stop stop-opacity="1" stop-color="rgb(54.30603%, 3.048706%, 5.584717%)" offset="0.0820312"/><stop stop-opacity="1" stop-color="rgb(54.153442%, 3.097534%, 5.751038%)" offset="0.0859375"/><stop stop-opacity="1" stop-color="rgb(54.000854%, 3.146362%, 5.918884%)" offset="0.0898438"/><stop stop-opacity="1" stop-color="rgb(53.846741%, 3.19519%, 6.085205%)" offset="0.09375"/><stop stop-opacity="1" stop-color="rgb(53.694153%, 3.244019%, 6.251526%)" offset="0.0976562"/><stop stop-opacity="1" stop-color="rgb(53.541565%, 3.292847%, 6.419373%)" offset="0.101562"/><stop stop-opacity="1" stop-color="rgb(53.387451%, 3.341675%, 6.585693%)" offset="0.105469"/><stop stop-opacity="1" stop-color="rgb(53.234863%, 3.390503%, 6.752014%)" offset="0.109375"/><stop stop-opacity="1" stop-color="rgb(53.082275%, 3.439331%, 6.919861%)" offset="0.113281"/><stop stop-opacity="1" stop-color="rgb(52.928162%, 3.488159%, 7.086182%)" offset="0.117188"/><stop stop-opacity="1" stop-color="rgb(52.775574%, 3.536987%, 7.252502%)" offset="0.121094"/><stop stop-opacity="1" stop-color="rgb(52.622986%, 3.585815%, 7.420349%)" offset="0.125"/><stop stop-opacity="1" stop-color="rgb(52.468872%, 3.634644%, 7.58667%)" offset="0.128906"/><stop stop-opacity="1" stop-color="rgb(52.316284%, 3.683472%, 7.752991%)" offset="0.132812"/><stop stop-opacity="1" stop-color="rgb(52.163696%, 3.7323%, 7.919312%)" offset="0.136719"/><stop stop-opacity="1" stop-color="rgb(52.009583%, 3.781128%, 8.087158%)" offset="0.140625"/><stop stop-opacity="1" stop-color="rgb(51.856995%, 3.829956%, 8.253479%)" offset="0.144531"/><stop stop-opacity="1" stop-color="rgb(51.704407%, 3.878784%, 8.4198%)" offset="0.148438"/><stop stop-opacity="1" stop-color="rgb(51.550293%, 3.927612%, 8.587646%)" offset="0.152344"/><stop stop-opacity="1" stop-color="rgb(51.397705%, 3.97644%, 8.753967%)" offset="0.15625"/><stop stop-opacity="1" stop-color="rgb(51.243591%, 4.025269%, 8.920288%)" offset="0.160156"/><stop stop-opacity="1" stop-color="rgb(51.091003%, 4.074097%, 9.088135%)" offset="0.164062"/><stop stop-opacity="1" stop-color="rgb(50.938416%, 4.122925%, 9.254456%)" offset="0.167969"/><stop stop-opacity="1" stop-color="rgb(50.784302%, 4.171753%, 9.420776%)" offset="0.171875"/><stop stop-opacity="1" stop-color="rgb(50.631714%, 4.220581%, 9.588623%)" offset="0.175781"/><stop stop-opacity="1" stop-color="rgb(50.479126%, 4.269409%, 9.754944%)" offset="0.179688"/><stop stop-opacity="1" stop-color="rgb(50.325012%, 4.318237%, 9.921265%)" offset="0.183594"/><stop stop-opacity="1" stop-color="rgb(50.172424%, 4.367065%, 10.089111%)" offset="0.1875"/><stop stop-opacity="1" stop-color="rgb(50.019836%, 4.415894%, 10.255432%)" offset="0.191406"/><stop stop-opacity="1" stop-color="rgb(49.865723%, 4.464722%, 10.421753%)" offset="0.195312"/><stop stop-opacity="1" stop-color="rgb(49.713135%, 4.51355%, 10.588074%)" offset="0.199219"/><stop stop-opacity="1" stop-color="rgb(49.560547%, 4.562378%, 10.75592%)" offset="0.203125"/><stop stop-opacity="1" stop-color="rgb(49.406433%, 4.611206%, 10.922241%)" offset="0.207031"/><stop stop-opacity="1" stop-color="rgb(49.253845%, 4.660034%, 11.088562%)" offset="0.210938"/><stop stop-opacity="1" stop-color="rgb(49.101257%, 4.708862%, 11.256409%)" offset="0.214844"/><stop stop-opacity="1" stop-color="rgb(48.947144%, 4.75769%, 11.422729%)" offset="0.21875"/><stop stop-opacity="1" stop-color="rgb(48.794556%, 4.806519%, 11.58905%)" offset="0.222656"/><stop stop-opacity="1" stop-color="rgb(48.640442%, 4.855347%, 11.756897%)" offset="0.226562"/><stop stop-opacity="1" stop-color="rgb(48.487854%, 4.904175%, 11.923218%)" offset="0.230469"/><stop stop-opacity="1" stop-color="rgb(48.335266%, 4.953003%, 12.089539%)" offset="0.234375"/><stop stop-opacity="1" stop-color="rgb(48.181152%, 5.001831%, 12.257385%)" offset="0.238281"/><stop stop-opacity="1" stop-color="rgb(48.028564%, 5.050659%, 12.423706%)" offset="0.242188"/><stop stop-opacity="1" stop-color="rgb(47.875977%, 5.099487%, 12.590027%)" offset="0.246094"/><stop stop-opacity="1" stop-color="rgb(47.721863%, 5.148315%, 12.757874%)" offset="0.25"/><stop stop-opacity="1" stop-color="rgb(47.492981%, 5.221558%, 13.008118%)" offset="0.253906"/><stop stop-opacity="1" stop-color="rgb(47.186279%, 5.319214%, 13.340759%)" offset="0.261719"/><stop stop-opacity="1" stop-color="rgb(46.879578%, 5.41687%, 13.674927%)" offset="0.269531"/><stop stop-opacity="1" stop-color="rgb(46.574402%, 5.514526%, 14.007568%)" offset="0.277344"/><stop stop-opacity="1" stop-color="rgb(46.2677%, 5.612183%, 14.341736%)" offset="0.285156"/><stop stop-opacity="1" stop-color="rgb(45.960999%, 5.709839%, 14.675903%)" offset="0.292969"/><stop stop-opacity="1" stop-color="rgb(45.654297%, 5.807495%, 15.008545%)" offset="0.300781"/><stop stop-opacity="1" stop-color="rgb(45.349121%, 5.905151%, 15.342712%)" offset="0.308594"/><stop stop-opacity="1" stop-color="rgb(45.042419%, 6.002808%, 15.675354%)" offset="0.316406"/><stop stop-opacity="1" stop-color="rgb(44.735718%, 6.100464%, 16.009521%)" offset="0.324219"/><stop stop-opacity="1" stop-color="rgb(44.430542%, 6.19812%, 16.343689%)" offset="0.332031"/><stop stop-opacity="1" stop-color="rgb(44.12384%, 6.295776%, 16.676331%)" offset="0.339844"/><stop stop-opacity="1" stop-color="rgb(43.817139%, 6.393433%, 17.010498%)" offset="0.347656"/><stop stop-opacity="1" stop-color="rgb(43.511963%, 6.491089%, 17.344666%)" offset="0.355469"/><stop stop-opacity="1" stop-color="rgb(43.205261%, 6.588745%, 17.677307%)" offset="0.363281"/><stop stop-opacity="1" stop-color="rgb(42.89856%, 6.686401%, 18.011475%)" offset="0.371094"/><stop stop-opacity="1" stop-color="rgb(42.591858%, 6.784058%, 18.344116%)" offset="0.378906"/><stop stop-opacity="1" stop-color="rgb(42.286682%, 6.881714%, 18.678284%)" offset="0.386719"/><stop stop-opacity="1" stop-color="rgb(41.97998%, 6.97937%, 19.012451%)" offset="0.394531"/><stop stop-opacity="1" stop-color="rgb(41.673279%, 7.077026%, 19.345093%)" offset="0.402344"/><stop stop-opacity="1" stop-color="rgb(41.368103%, 7.174683%, 19.67926%)" offset="0.410156"/><stop stop-opacity="1" stop-color="rgb(41.061401%, 7.272339%, 20.013428%)" offset="0.417969"/><stop stop-opacity="1" stop-color="rgb(40.7547%, 7.369995%, 20.346069%)" offset="0.425781"/><stop stop-opacity="1" stop-color="rgb(40.447998%, 7.467651%, 20.680237%)" offset="0.433594"/><stop stop-opacity="1" stop-color="rgb(40.142822%, 7.565308%, 21.012878%)" offset="0.441406"/><stop stop-opacity="1" stop-color="rgb(39.836121%, 7.662964%, 21.347046%)" offset="0.449219"/><stop stop-opacity="1" stop-color="rgb(39.529419%, 7.76062%, 21.681213%)" offset="0.457031"/><stop stop-opacity="1" stop-color="rgb(39.224243%, 7.858276%, 22.013855%)" offset="0.464844"/><stop stop-opacity="1" stop-color="rgb(38.917542%, 7.955933%, 22.348022%)" offset="0.472656"/><stop stop-opacity="1" stop-color="rgb(38.61084%, 8.053589%, 22.68219%)" offset="0.480469"/><stop stop-opacity="1" stop-color="rgb(38.305664%, 8.151245%, 23.014832%)" offset="0.488281"/><stop stop-opacity="1" stop-color="rgb(37.998962%, 8.248901%, 23.348999%)" offset="0.496094"/><stop stop-opacity="1" stop-color="rgb(37.768555%, 8.322144%, 23.599243%)" offset="0.503906"/><stop stop-opacity="1" stop-color="rgb(37.615967%, 8.370972%, 23.765564%)" offset="0.507812"/><stop stop-opacity="1" stop-color="rgb(37.463379%, 8.4198%, 23.931885%)" offset="0.511719"/><stop stop-opacity="1" stop-color="rgb(37.309265%, 8.468628%, 24.099731%)" offset="0.515625"/><stop stop-opacity="1" stop-color="rgb(37.156677%, 8.517456%, 24.266052%)" offset="0.519531"/><stop stop-opacity="1" stop-color="rgb(37.004089%, 8.566284%, 24.432373%)" offset="0.523438"/><stop stop-opacity="1" stop-color="rgb(36.849976%, 8.615112%, 24.60022%)" offset="0.527344"/><stop stop-opacity="1" stop-color="rgb(36.697388%, 8.66394%, 24.766541%)" offset="0.53125"/><stop stop-opacity="1" stop-color="rgb(36.5448%, 8.712769%, 24.932861%)" offset="0.535156"/><stop stop-opacity="1" stop-color="rgb(36.390686%, 8.761597%, 25.100708%)" offset="0.539062"/><stop stop-opacity="1" stop-color="rgb(36.238098%, 8.810425%, 25.267029%)" offset="0.542969"/><stop stop-opacity="1" stop-color="rgb(36.08551%, 8.859253%, 25.43335%)" offset="0.546875"/><stop stop-opacity="1" stop-color="rgb(35.931396%, 8.908081%, 25.601196%)" offset="0.550781"/><stop stop-opacity="1" stop-color="rgb(35.778809%, 8.956909%, 25.767517%)" offset="0.554688"/><stop stop-opacity="1" stop-color="rgb(35.626221%, 9.005737%, 25.933838%)" offset="0.558594"/><stop stop-opacity="1" stop-color="rgb(35.472107%, 9.054565%, 26.100159%)" offset="0.5625"/><stop stop-opacity="1" stop-color="rgb(35.319519%, 9.103394%, 26.268005%)" offset="0.566406"/><stop stop-opacity="1" stop-color="rgb(35.165405%, 9.152222%, 26.434326%)" offset="0.570312"/><stop stop-opacity="1" stop-color="rgb(35.012817%, 9.20105%, 26.600647%)" offset="0.574219"/><stop stop-opacity="1" stop-color="rgb(34.860229%, 9.249878%, 26.768494%)" offset="0.578125"/><stop stop-opacity="1" stop-color="rgb(34.706116%, 9.298706%, 26.934814%)" offset="0.582031"/><stop stop-opacity="1" stop-color="rgb(34.553528%, 9.347534%, 27.101135%)" offset="0.585938"/><stop stop-opacity="1" stop-color="rgb(34.40094%, 9.396362%, 27.268982%)" offset="0.589844"/><stop stop-opacity="1" stop-color="rgb(34.246826%, 9.44519%, 27.435303%)" offset="0.59375"/><stop stop-opacity="1" stop-color="rgb(34.094238%, 9.494019%, 27.601624%)" offset="0.597656"/><stop stop-opacity="1" stop-color="rgb(33.94165%, 9.542847%, 27.76947%)" offset="0.601562"/><stop stop-opacity="1" stop-color="rgb(33.787537%, 9.591675%, 27.935791%)" offset="0.605469"/><stop stop-opacity="1" stop-color="rgb(33.634949%, 9.640503%, 28.102112%)" offset="0.609375"/><stop stop-opacity="1" stop-color="rgb(33.482361%, 9.689331%, 28.269958%)" offset="0.613281"/><stop stop-opacity="1" stop-color="rgb(33.328247%, 9.738159%, 28.436279%)" offset="0.617188"/><stop stop-opacity="1" stop-color="rgb(33.175659%, 9.786987%, 28.6026%)" offset="0.621094"/><stop stop-opacity="1" stop-color="rgb(33.023071%, 9.835815%, 28.768921%)" offset="0.625"/><stop stop-opacity="1" stop-color="rgb(32.792664%, 9.909058%, 29.019165%)" offset="0.628906"/><stop stop-opacity="1" stop-color="rgb(32.485962%, 10.006714%, 29.353333%)" offset="0.636719"/><stop stop-opacity="1" stop-color="rgb(32.17926%, 10.10437%, 29.6875%)" offset="0.644531"/><stop stop-opacity="1" stop-color="rgb(31.874084%, 10.202026%, 30.020142%)" offset="0.652344"/><stop stop-opacity="1" stop-color="rgb(31.567383%, 10.299683%, 30.354309%)" offset="0.660156"/><stop stop-opacity="1" stop-color="rgb(31.260681%, 10.397339%, 30.688477%)" offset="0.667969"/><stop stop-opacity="1" stop-color="rgb(30.955505%, 10.494995%, 31.021118%)" offset="0.675781"/><stop stop-opacity="1" stop-color="rgb(30.648804%, 10.592651%, 31.355286%)" offset="0.683594"/><stop stop-opacity="1" stop-color="rgb(30.342102%, 10.690308%, 31.687927%)" offset="0.691406"/><stop stop-opacity="1" stop-color="rgb(30.036926%, 10.787964%, 32.022095%)" offset="0.699219"/><stop stop-opacity="1" stop-color="rgb(29.730225%, 10.88562%, 32.356262%)" offset="0.707031"/><stop stop-opacity="1" stop-color="rgb(29.423523%, 10.983276%, 32.688904%)" offset="0.714844"/><stop stop-opacity="1" stop-color="rgb(29.116821%, 11.080933%, 33.023071%)" offset="0.722656"/><stop stop-opacity="1" stop-color="rgb(28.811646%, 11.178589%, 33.357239%)" offset="0.730469"/><stop stop-opacity="1" stop-color="rgb(28.504944%, 11.276245%, 33.68988%)" offset="0.738281"/><stop stop-opacity="1" stop-color="rgb(28.198242%, 11.373901%, 34.024048%)" offset="0.746094"/><stop stop-opacity="1" stop-color="rgb(27.96936%, 11.447144%, 34.274292%)" offset="0.753906"/><stop stop-opacity="1" stop-color="rgb(27.816772%, 11.495972%, 34.440613%)" offset="0.757812"/><stop stop-opacity="1" stop-color="rgb(27.662659%, 11.5448%, 34.606934%)" offset="0.761719"/><stop stop-opacity="1" stop-color="rgb(27.510071%, 11.593628%, 34.77478%)" offset="0.765625"/><stop stop-opacity="1" stop-color="rgb(27.357483%, 11.642456%, 34.941101%)" offset="0.769531"/><stop stop-opacity="1" stop-color="rgb(27.203369%, 11.691284%, 35.107422%)" offset="0.773438"/><stop stop-opacity="1" stop-color="rgb(27.050781%, 11.740112%, 35.275269%)" offset="0.777344"/><stop stop-opacity="1" stop-color="rgb(26.896667%, 11.78894%, 35.441589%)" offset="0.78125"/><stop stop-opacity="1" stop-color="rgb(26.74408%, 11.837769%, 35.60791%)" offset="0.785156"/><stop stop-opacity="1" stop-color="rgb(26.591492%, 11.886597%, 35.775757%)" offset="0.789062"/><stop stop-opacity="1" stop-color="rgb(26.437378%, 11.935425%, 35.942078%)" offset="0.792969"/><stop stop-opacity="1" stop-color="rgb(26.28479%, 11.984253%, 36.108398%)" offset="0.796875"/><stop stop-opacity="1" stop-color="rgb(26.132202%, 12.033081%, 36.274719%)" offset="0.800781"/><stop stop-opacity="1" stop-color="rgb(25.978088%, 12.081909%, 36.442566%)" offset="0.804688"/><stop stop-opacity="1" stop-color="rgb(25.8255%, 12.130737%, 36.608887%)" offset="0.808594"/><stop stop-opacity="1" stop-color="rgb(25.672913%, 12.179565%, 36.775208%)" offset="0.8125"/><stop stop-opacity="1" stop-color="rgb(25.442505%, 12.252808%, 37.025452%)" offset="0.816406"/><stop stop-opacity="1" stop-color="rgb(25.135803%, 12.350464%, 37.359619%)" offset="0.824219"/><stop stop-opacity="1" stop-color="rgb(24.830627%, 12.44812%, 37.693787%)" offset="0.832031"/><stop stop-opacity="1" stop-color="rgb(24.523926%, 12.545776%, 38.026428%)" offset="0.839844"/><stop stop-opacity="1" stop-color="rgb(24.217224%, 12.643433%, 38.360596%)" offset="0.847656"/><stop stop-opacity="1" stop-color="rgb(23.910522%, 12.741089%, 38.694763%)" offset="0.855469"/><stop stop-opacity="1" stop-color="rgb(23.605347%, 12.838745%, 39.027405%)" offset="0.863281"/><stop stop-opacity="1" stop-color="rgb(23.298645%, 12.936401%, 39.361572%)" offset="0.871094"/><stop stop-opacity="1" stop-color="rgb(23.069763%, 13.009644%, 39.611816%)" offset="0.878906"/><stop stop-opacity="1" stop-color="rgb(22.915649%, 13.058472%, 39.778137%)" offset="0.882812"/><stop stop-opacity="1" stop-color="rgb(22.763062%, 13.1073%, 39.944458%)" offset="0.886719"/><stop stop-opacity="1" stop-color="rgb(22.610474%, 13.156128%, 40.112305%)" offset="0.890625"/><stop stop-opacity="1" stop-color="rgb(22.45636%, 13.204956%, 40.278625%)" offset="0.894531"/><stop stop-opacity="1" stop-color="rgb(22.303772%, 13.253784%, 40.444946%)" offset="0.898438"/><stop stop-opacity="1" stop-color="rgb(22.151184%, 13.302612%, 40.612793%)" offset="0.902344"/><stop stop-opacity="1" stop-color="rgb(21.99707%, 13.35144%, 40.779114%)" offset="0.90625"/><stop stop-opacity="1" stop-color="rgb(21.768188%, 13.424683%, 41.029358%)" offset="0.910156"/><stop stop-opacity="1" stop-color="rgb(21.461487%, 13.522339%, 41.363525%)" offset="0.917969"/><stop stop-opacity="1" stop-color="rgb(21.154785%, 13.619995%, 41.696167%)" offset="0.925781"/><stop stop-opacity="1" stop-color="rgb(20.848083%, 13.717651%, 42.030334%)" offset="0.933594"/><stop stop-opacity="1" stop-color="rgb(20.619202%, 13.790894%, 42.280579%)" offset="0.941406"/><stop stop-opacity="1" stop-color="rgb(20.466614%, 13.839722%, 42.446899%)" offset="0.945312"/><stop stop-opacity="1" stop-color="rgb(20.3125%, 13.88855%, 42.61322%)" offset="0.949219"/><stop stop-opacity="1" stop-color="rgb(20.159912%, 13.937378%, 42.781067%)" offset="0.953125"/><stop stop-opacity="1" stop-color="rgb(19.929504%, 14.01062%, 43.031311%)" offset="0.957031"/><stop stop-opacity="1" stop-color="rgb(19.624329%, 14.108276%, 43.363953%)" offset="0.964844"/><stop stop-opacity="1" stop-color="rgb(19.393921%, 14.181519%, 43.614197%)" offset="0.972656"/><stop stop-opacity="1" stop-color="rgb(19.241333%, 14.230347%, 43.782043%)" offset="0.976562"/><stop stop-opacity="1" stop-color="rgb(19.010925%, 14.303589%, 44.032288%)" offset="0.980469"/><stop stop-opacity="1" stop-color="rgb(18.782043%, 14.376831%, 44.281006%)" offset="0.988281"/><stop stop-opacity="1" stop-color="rgb(18.551636%, 14.450073%, 44.53125%)" offset="0.992188"/><stop stop-opacity="1" stop-color="rgb(18.399048%, 14.498901%, 44.699097%)" offset="1"/></radialGradient></defs><g clip-path="url(#989dea648c)"><rect x="-81" width="972" fill="#697a7a" y="-80.999999" height="971.999992" fill-opacity="1"/></g><path fill="#666666" d="M 221.40625 464.652344 C 222.371094 464.980469 223.3125 465.332031 224.25 465.714844 L 223.3125 465.714844 C 222.550781 465.332031 221.789062 464.949219 220.972656 464.566406 L 221.40625 464.652344 " fill-opacity="1" fill-rule="evenodd"/><path fill="#e38b5c" d="M 394.265625 547.308594 C 394.132812 547.40625 393.996094 547.507812 393.917969 547.589844 C 394.160156 547.40625 394.402344 547.242188 394.695312 547.09375 C 394.5625 547.144531 394.402344 547.207031 394.265625 547.308594 Z M 411.886719 589.40625 C 409.816406 588.726562 407.878906 587.929688 406.050781 586.988281 C 405.671875 586.789062 405.269531 586.574219 404.890625 586.355469 L 404.625 586.210938 C 401.851562 584.21875 399.621094 582.3125 397.976562 580.457031 L 397.898438 580.671875 C 393.269531 575.519531 390.445312 568.640625 389.449219 560.019531 C 389.128906 557.039062 389.019531 553.839844 389.15625 550.441406 L 391.574219 548.800781 L 390.148438 549.445312 L 393.378906 547.523438 L 393.484375 547.457031 L 396.605469 545.601562 L 394.964844 546.746094 C 394.992188 546.730469 395.046875 546.695312 395.125 546.679688 C 395.316406 546.578125 395.476562 546.480469 395.609375 546.394531 C 395.71875 546.347656 395.828125 546.296875 395.90625 546.246094 C 404.890625 540.761719 413.929688 536.070312 423.023438 532.191406 C 433.675781 527.703125 446.238281 523.492188 460.710938 519.5625 C 460.660156 520.125 461.789062 524.78125 464.046875 533.535156 C 465.851562 540.726562 467.089844 545.367188 467.816406 547.457031 C 466.628906 549.777344 464.910156 553.625 462.621094 559.027344 C 460.363281 564.332031 457.566406 568.375 454.203125 571.15625 C 450.972656 573.957031 448.929688 575.734375 448.070312 576.480469 C 447.988281 576.625 447.878906 576.777344 447.71875 576.910156 C 447.15625 577.523438 446.617188 578.121094 446.105469 578.683594 C 443.253906 581.335938 440.429688 583.605469 437.578125 585.511719 C 437.390625 585.644531 437.148438 585.8125 436.878906 585.992188 C 434.96875 587.1875 432.117188 588.84375 428.351562 590.964844 C 427.167969 590.882812 425.875 590.796875 424.449219 590.75 C 418.558594 590.566406 414.386719 590.121094 411.886719 589.40625 " fill-opacity="1" fill-rule="evenodd"/><path fill="#f89865" d="M 393.492188 547.464844 L 393.46875 547.464844 L 393.652344 547.367188 L 393.625 547.398438 L 393.492188 547.464844 " fill-opacity="1" fill-rule="evenodd"/><path fill="#e9cbb4" d="M 412.089844 589.308594 C 411.003906 589.027344 409.992188 588.695312 409.035156 588.3125 C 408.320312 587.984375 407.601562 587.652344 406.832031 587.320312 L 406.273438 586.890625 C 406.0625 586.808594 405.929688 586.722656 405.769531 586.691406 C 405.558594 586.542969 405.34375 586.394531 405.105469 586.261719 C 405.476562 586.476562 405.875 586.691406 406.273438 586.890625 C 408.105469 587.835938 410.046875 588.628906 412.089844 589.308594 " fill-opacity="1" fill-rule="evenodd"/><path fill="#e38b5c" d="M 547.984375 545.351562 C 549.273438 550.738281 547.710938 564.511719 543.328125 586.65625 C 543.464844 584.914062 543.546875 583.425781 543.601562 582.179688 C 543.410156 583.707031 543.164062 585.113281 542.832031 586.441406 C 539.1875 585.164062 535.050781 584.320312 530.449219 583.886719 C 525.597656 583.375 520.171875 583.308594 514.226562 583.675781 C 513.210938 582.730469 512.472656 582.378906 511.953125 582.613281 C 511.566406 582.761719 511.128906 582.929688 510.582031 583.109375 C 507.101562 583.820312 503.621094 584.535156 500.222656 585.246094 L 494.828125 586.160156 C 473.78125 589.757812 453.75 591.511719 434.761719 591.414062 C 432.925781 591.328125 430.105469 591.117188 426.324219 590.785156 L 426.1875 590.785156 L 425.199219 590.632812 L 424.898438 590.699219 C 424.761719 590.699219 424.652344 590.699219 424.542969 590.699219 C 420.816406 590.566406 417.773438 590.355469 415.472656 590.070312 C 415.089844 587.136719 414.707031 584.914062 414.320312 583.390625 C 414.046875 581.734375 413.910156 580.890625 413.910156 580.839844 C 413.800781 580.457031 413.746094 580.011719 413.691406 579.496094 C 417.0625 573.480469 419.117188 567.992188 419.9375 563.023438 C 420.652344 558.148438 421.363281 553.574219 422.050781 549.3125 C 429.117188 546.660156 436.625 544.144531 444.574219 541.722656 C 452.519531 539.222656 460.492188 537.5625 468.492188 536.75 C 476.386719 535.90625 486.304688 537.066406 498.25 540.230469 C 510.117188 543.316406 526.253906 542.996094 546.640625 539.320312 C 546.695312 540.113281 547.164062 542.121094 547.984375 545.351562 " fill-opacity="1" fill-rule="evenodd"/><path fill="#d8d9d8" d="M 541.375 586.539062 L 538.597656 586.042969 C 538.070312 584.003906 538.042969 582.164062 538.457031 580.507812 C 538.570312 580.023438 538.738281 579.578125 538.957031 579.164062 C 540.460938 557.484375 537.707031 541.554688 530.648438 531.378906 L 533.84375 531.03125 C 541.042969 541.207031 543.820312 555.761719 542.238281 574.6875 C 542.183594 575.105469 542.152344 575.46875 542.152344 575.75 L 542.347656 575.898438 Z M 556.132812 593.714844 L 557.269531 585.117188 C 564.328125 591.03125 566.136719 595.9375 562.660156 599.816406 L 562.46875 599.386719 Z M 549.742188 589.242188 L 550.519531 580.851562 L 556.074219 584.402344 L 554.9375 592.574219 Z M 547.90625 588.097656 L 547.265625 587.601562 L 543.292969 586.890625 L 543.988281 576.894531 L 548.601562 579.726562 Z M 547.210938 522.578125 C 553.351562 540.046875 567.300781 548.019531 589.089844 546.492188 L 579.777344 517.96875 L 588.367188 516.109375 C 604.148438 557.484375 612.097656 588.460938 612.289062 609.050781 C 612.289062 629.402344 609.121094 636.613281 602.789062 630.695312 C 605.816406 624.546875 605.316406 611.003906 601.371094 590.085938 C 579.917969 592.921875 568.636719 598.839844 567.496094 607.835938 C 567.359375 607.605469 567.21875 607.308594 567.078125 606.992188 C 567.300781 597.28125 578.585938 590.964844 600.925781 588.03125 L 589.921875 549.128906 C 565.636719 551.5 550.574219 542.765625 544.710938 522.925781 L 547.210938 522.578125 " fill-opacity="1" fill-rule="evenodd"/><path fill="#fdfffd" d="M 547.695312 588.1875 L 548.417969 579.820312 L 543.785156 576.984375 L 543.089844 586.976562 L 541.148438 586.628906 L 542.148438 575.988281 L 541.953125 575.839844 C 541.953125 575.558594 541.980469 575.195312 542.035156 574.777344 C 543.644531 555.851562 540.84375 541.296875 533.628906 531.121094 C 531.074219 528.371094 529.523438 527.492188 528.96875 528.488281 C 530.078125 526.164062 535.265625 524.34375 544.503906 523.015625 C 550.386719 542.859375 565.453125 551.59375 589.734375 549.21875 L 600.71875 588.121094 C 578.382812 591.054688 567.089844 597.367188 566.871094 607.082031 L 562.457031 599.90625 C 565.925781 596.027344 564.121094 591.121094 557.074219 585.203125 L 555.9375 593.804688 L 554.800781 592.8125 L 554.742188 592.664062 L 555.855469 584.492188 L 550.332031 580.945312 L 549.554688 589.332031 Z M 602.578125 630.785156 C 588.957031 637.03125 577.191406 629.40625 567.3125 607.925781 C 568.421875 598.929688 579.714844 593.011719 601.164062 590.175781 C 605.132812 611.09375 605.605469 624.636719 602.578125 630.785156 Z M 579.578125 518.0625 L 588.871094 546.585938 C 567.089844 548.109375 553.136719 540.136719 547.003906 522.667969 L 579.578125 518.0625 " fill-opacity="1" fill-rule="evenodd"/><path fill="#fefffe" d="M 538.496094 586.089844 L 495.316406 589.507812 C 495.289062 589.539062 495.289062 589.640625 495.316406 589.789062 C 492.363281 592.058594 490.011719 592.308594 488.289062 590.566406 C 488.289062 589.472656 488.289062 588.363281 488.289062 587.238281 C 490.011719 569.203125 486.210938 551.550781 476.941406 534.265625 C 479.921875 532.523438 483.367188 532.207031 487.222656 533.351562 L 527.421875 531.796875 L 530.539062 531.429688 C 537.59375 541.605469 540.355469 557.535156 538.851562 579.214844 C 538.605469 579.628906 538.441406 580.074219 538.359375 580.554688 C 537.921875 582.214844 537.976562 584.054688 538.496094 586.089844 " fill-opacity="1" fill-rule="evenodd"/><path fill="#5c5d5c" d="M 533.871094 531.011719 L 530.679688 531.363281 L 527.566406 531.726562 C 528.546875 528.644531 529.09375 527.535156 529.121094 528.378906 L 529.203125 528.378906 C 529.75 527.382812 531.332031 528.261719 533.871094 531.011719 " fill-opacity="1" fill-rule="evenodd"/><path fill="#008395" d="M 458.695312 464.84375 C 463.898438 470.050781 469.910156 477.691406 476.730469 487.769531 C 470.097656 514.835938 467 533.035156 467.429688 542.363281 C 466.8125 542.746094 466.082031 543.195312 465.21875 543.707031 C 462.902344 545.21875 460.339844 546.59375 457.5625 547.816406 C 450.933594 550.769531 443.386719 553.324219 434.921875 555.492188 C 423.601562 558.328125 412.871094 558.742188 402.761719 556.703125 C 401.628906 556.472656 400.5 556.207031 399.367188 555.925781 C 394.675781 554.496094 390.6875 552.90625 387.371094 551.167969 C 384.890625 549.609375 382.867188 547.851562 381.25 545.914062 C 381.171875 541.886719 381.171875 536.234375 381.25 528.941406 C 381.386719 523.121094 384.296875 494.347656 389.984375 442.621094 L 391.550781 442.621094 C 391.925781 455.78125 394.890625 461.265625 400.5 459.09375 C 401.308594 458.8125 402.035156 458.546875 402.683594 458.3125 C 410.742188 455.234375 418.179688 452.84375 424.972656 451.136719 C 435.730469 448.4375 446.972656 453.011719 458.695312 464.84375 " fill-opacity="1" fill-rule="evenodd"/><path fill="#f89865" d="M 493.296875 724.765625 C 493.242188 724.714844 493.1875 724.699219 493.078125 724.699219 C 488.546875 701.410156 479.039062 674.359375 464.535156 643.546875 C 456.832031 627.367188 451.589844 616.246094 448.777344 610.179688 C 447.847656 608.191406 447.027344 606.417969 446.371094 604.859375 L 442.601562 592.363281 L 442.683594 591.933594 L 442.328125 583.925781 C 441.757812 569.15625 444.378906 555.167969 450.195312 541.957031 L 450.988281 542.601562 L 510.558594 562.476562 C 510.695312 562.425781 510.832031 562.378906 510.96875 562.34375 C 510.96875 562.425781 510.96875 562.527344 510.96875 562.625 C 510.398438 567.019531 511.296875 572.703125 513.675781 579.664062 C 516.105469 586.660156 519.984375 596.65625 525.390625 609.617188 C 530.71875 622.496094 533.75 635.277344 534.40625 647.957031 C 534.980469 660.488281 535.089844 668.890625 534.761719 673.148438 C 534.378906 677.179688 534.105469 681.984375 533.914062 687.570312 L 534.625 714.820312 L 493.296875 724.765625 " fill-opacity="1" fill-rule="evenodd"/><path fill="#fadeca" d="M 442.636719 592.359375 L 442.636719 592.292969 L 442.6875 591.929688 L 442.636719 592.359375 " fill-opacity="1" fill-rule="evenodd"/><path fill="#e9cbb4" d="M 531.441406 722.394531 L 531.441406 723.171875 C 531.113281 721.8125 531.113281 721.546875 531.441406 722.394531 " fill-opacity="1" fill-rule="evenodd"/><path fill="#ebae89" d="M 493.347656 724.746094 L 493.128906 724.894531 L 493.128906 724.679688 C 493.238281 724.679688 493.292969 724.695312 493.347656 724.746094 " fill-opacity="1" fill-rule="evenodd"/><path fill="#b02222" d="M 393.742188 400.8125 C 393.742188 400.480469 393.636719 400.050781 393.476562 399.535156 C 393.371094 396.503906 393.054688 394.066406 392.546875 392.210938 C 392.308594 391.511719 391.617188 390.304688 390.476562 388.597656 C 390.15625 388.03125 389.785156 387.285156 389.414062 386.390625 C 389.226562 385.878906 388.882812 385.398438 388.429688 384.964844 C 386.996094 382.742188 385.324219 380.34375 383.386719 377.738281 C 381.472656 375.320312 379.320312 372.769531 376.929688 370.066406 C 374.992188 367.796875 372.785156 365.308594 370.394531 362.605469 C 364.046875 356.175781 358.335938 351.121094 353.261719 347.421875 C 350.871094 345.714844 348.480469 344.257812 346.117188 343.011719 C 344.921875 342.398438 343.78125 341.9375 342.640625 341.605469 C 339.742188 340.460938 337.140625 339.898438 334.828125 339.898438 L 334.617188 340.113281 C 333.527344 339.964844 332.730469 340.230469 332.28125 340.894531 C 331.828125 341.222656 331.242188 341.789062 330.5 342.597656 C 333.101562 338.570312 335.253906 333.648438 336.953125 327.832031 C 337.566406 325.972656 338.097656 323.96875 338.574219 321.796875 C 339.292969 318.996094 339.847656 316.09375 340.222656 313.0625 C 341.125 307.808594 341.761719 299.304688 342.132812 287.570312 C 343.117188 286.773438 344.230469 286.210938 345.453125 285.863281 C 346.570312 285.679688 347.710938 285.53125 348.878906 285.449219 C 351.113281 285.300781 353.636719 285.746094 356.476562 286.789062 C 357.804688 287.222656 359.027344 287.851562 360.167969 288.714844 C 362.402344 289.710938 364.765625 291.101562 367.339844 292.90625 C 372.386719 296.585938 378.046875 301.777344 384.234375 308.453125 C 389.625 313.890625 394.007812 318.832031 397.355469 323.289062 C 399.347656 325.792969 401.074219 328.132812 402.5625 330.316406 C 403.492188 331.824219 404.210938 333.269531 404.660156 334.644531 C 404.925781 335.15625 406.839844 337.726562 410.425781 342.300781 C 411.382812 343.496094 412.070312 344.539062 412.496094 345.433594 C 412.390625 346.378906 412.179688 347.207031 411.859375 347.917969 C 407.6875 360.882812 404.527344 370.546875 402.402344 376.878906 C 402.21875 377.640625 402.003906 378.269531 401.765625 378.800781 C 401.445312 380.078125 401.046875 381.121094 400.570312 381.917969 C 400.570312 382.167969 400.515625 382.414062 400.410156 382.699219 C 400.410156 382.894531 400.410156 383.011719 400.410156 383.0625 C 400.332031 383.160156 400.277344 383.226562 400.277344 383.277344 C 399.988281 383.988281 399.746094 384.453125 399.5625 384.683594 L 399.5625 384.769531 C 398.816406 386.890625 398.152344 388.8125 397.570312 390.519531 C 396.453125 393.535156 395.683594 396.4375 395.3125 399.171875 C 394.832031 399.605469 394.300781 400.152344 393.742188 400.8125 " fill-opacity="1" fill-rule="evenodd"/><path fill="#911c1c" d="M 393.652344 400.863281 C 393.546875 400.945312 393.441406 401.0625 393.359375 401.210938 C 392.753906 401.773438 392.117188 402.136719 391.457031 402.269531 C 389.078125 402.371094 386.695312 401.472656 384.34375 399.585938 C 383.734375 399.433594 383.074219 399.417969 382.359375 399.503906 C 381.035156 398.988281 379.714844 398.507812 378.390625 398.09375 C 378.496094 397.28125 378.65625 396.402344 378.949219 395.457031 C 379.765625 392.953125 380.535156 390.402344 381.300781 387.800781 C 382.042969 383.722656 382.703125 380.390625 383.285156 377.789062 C 385.242188 380.390625 386.90625 382.792969 388.335938 385.015625 C 388.785156 385.445312 389.128906 385.925781 389.3125 386.441406 C 389.683594 387.335938 390.054688 388.082031 390.398438 388.644531 C 391.507812 390.351562 392.195312 391.5625 392.433594 392.257812 C 392.964844 394.117188 393.28125 396.550781 393.359375 399.585938 C 393.546875 400.097656 393.652344 400.527344 393.652344 400.863281 Z M 332.296875 348.402344 C 331.582031 346.445312 330.945312 344.554688 330.3125 342.714844 C 330.3125 342.664062 330.339844 342.648438 330.390625 342.648438 C 331.160156 341.835938 331.742188 341.273438 332.164062 340.945312 C 332.640625 340.28125 333.40625 340.015625 334.515625 340.164062 L 334.730469 339.949219 C 334.253906 341.65625 333.671875 343.644531 333.011719 345.914062 C 332.824219 346.660156 332.585938 347.488281 332.296875 348.402344 " fill-opacity="1" fill-rule="evenodd"/><path fill="#f89865" d="M 383.316406 377.769531 C 382.761719 380.371094 382.078125 383.703125 381.339844 387.78125 C 380.574219 390.382812 379.808594 392.933594 378.992188 395.4375 C 378.699219 396.378906 378.515625 397.257812 378.4375 398.070312 C 377.144531 401.417969 375.929688 404.601562 374.796875 407.585938 C 372.5 411.464844 370.125 414.234375 367.699219 415.890625 L 326.171875 378.050781 L 327.675781 370.804688 C 330.734375 356.367188 332.292969 348.894531 332.34375 348.378906 C 332.636719 347.46875 332.871094 346.640625 333.058594 345.894531 C 333.71875 343.625 334.296875 341.632812 334.773438 339.925781 C 337.09375 339.925781 339.679688 340.488281 342.582031 341.632812 C 343.714844 341.964844 344.878906 342.429688 346.066406 343.042969 C 348.4375 344.285156 350.8125 345.746094 353.214844 347.449219 C 358.28125 351.148438 363.976562 356.203125 370.335938 362.632812 C 372.738281 365.335938 374.925781 367.820312 376.878906 370.09375 C 379.28125 372.792969 381.417969 375.347656 383.316406 377.765625 " fill-opacity="1" fill-rule="evenodd"/><path fill="#f89865" d="M 327.390625 371.6875 C 328.605469 371.078125 329.921875 370.613281 331.269531 370.28125 C 332.613281 369.75 333.960938 369.335938 335.332031 369.003906 C 336.808594 368.855469 338.261719 368.707031 339.738281 368.574219 C 341.296875 368.574219 342.824219 368.574219 344.328125 368.574219 C 346.042969 368.707031 347.734375 368.871094 349.394531 369.070312 C 351.085938 369.351562 352.800781 369.683594 354.515625 370.066406 C 356.257812 370.53125 357.996094 371.011719 359.765625 371.492188 C 361.324219 372.050781 362.878906 372.617188 364.4375 373.183594 C 365.808594 373.761719 367.128906 374.410156 368.421875 375.167969 C 369.609375 375.734375 370.714844 376.394531 371.824219 377.160156 C 373.144531 378.003906 374.4375 378.929688 375.730469 379.925781 C 377.996094 382.015625 380.476562 384.585938 383.167969 387.667969 C 383.328125 387.851562 383.488281 388 383.671875 388.097656 C 383.722656 391.265625 382.300781 395.621094 379.421875 401.160156 C 379.238281 401.621094 378.949219 402.121094 378.578125 402.652344 C 373.644531 409.84375 368.367188 415.429688 362.746094 419.410156 C 353.617188 425.027344 342.71875 429.453125 330.160156 432.667969 C 322.0625 434.621094 316.308594 435.984375 312.90625 436.792969 C 307.707031 438.222656 302.21875 440.839844 296.414062 444.667969 C 295.964844 444.339844 295.253906 443.722656 294.355469 442.828125 C 292.851562 441.273438 291.742188 440.160156 291.03125 439.496094 C 290.980469 439.449219 290.925781 439.296875 290.820312 439.066406 C 290.449219 438.6875 290.054688 438.304688 289.6875 437.921875 C 289.050781 437.257812 288.5 436.582031 287.996094 435.867188 C 287.46875 435.105469 286.679688 433.648438 285.621094 431.476562 C 284.410156 429.15625 283.644531 427.214844 283.351562 425.640625 C 283.035156 424.132812 282.773438 422.855469 282.589844 421.8125 C 282.246094 420.433594 282.058594 419.078125 282.007812 417.703125 C 281.929688 416.804688 281.875 415.664062 281.875 414.289062 C 281.824219 413.191406 281.796875 411.253906 281.796875 408.46875 C 282.007812 408.417969 282.191406 408.355469 282.378906 408.253906 C 284.011719 407.972656 285.675781 407.621094 287.285156 407.191406 C 288.894531 406.710938 290.449219 406.101562 291.953125 405.335938 C 292.957031 404.875 293.960938 404.359375 294.9375 403.777344 C 296.175781 402.933594 297.363281 402.101562 298.550781 401.292969 C 299.632812 400.445312 300.742188 399.617188 301.824219 398.804688 C 303.378906 397.578125 304.804688 396.289062 306.097656 394.910156 C 307.074219 393.683594 308.078125 392.425781 309.078125 391.148438 C 309.738281 390.335938 310.398438 389.476562 311.058594 388.511719 C 311.769531 387.617188 312.457031 386.65625 313.167969 385.613281 C 313.882812 384.566406 314.648438 383.558594 315.464844 382.5625 C 316.308594 381.46875 317.179688 380.410156 318.078125 379.363281 C 318.894531 378.269531 319.765625 377.257812 320.714844 376.3125 C 321.640625 375.371094 322.71875 374.507812 323.90625 373.761719 C 325.042969 373 326.203125 372.304688 327.390625 371.6875 " fill-opacity="1" fill-rule="evenodd"/><path fill="#00a5bb" d="M 533.558594 414.148438 C 542.972656 421.625 549.121094 432.367188 552 446.371094 C 554.9375 460.375 556.363281 469.507812 556.253906 473.769531 C 556.226562 475.65625 556.144531 477.515625 555.980469 479.304688 C 555.761719 482.570312 555.15625 485.867188 554.195312 489.183594 C 553.785156 490.972656 553.292969 492.730469 552.714844 494.4375 C 550.875 498.316406 549.230469 502.210938 547.746094 506.140625 C 543.109375 519.398438 539.816406 532.097656 537.894531 544.261719 C 536.660156 550.992188 535.863281 557.324219 535.535156 563.289062 C 535.289062 566.835938 535.175781 570.269531 535.121094 573.582031 C 530.15625 578.554688 522.964844 581.65625 513.605469 582.882812 C 508.914062 583.59375 503.394531 583.859375 497.058594 583.660156 C 495.929688 583.578125 494.722656 583.492188 493.433594 583.445312 C 489.234375 583.160156 484.734375 582.714844 479.957031 582.101562 C 467.554688 580.445312 455.394531 578.007812 443.457031 574.792969 C 436.898438 572.902344 431.160156 571.359375 426.277344 570.183594 L 426.222656 570.183594 C 425.261719 560.753906 425.234375 553.445312 426.058594 548.238281 C 426.441406 544.261719 426.796875 540.414062 427.128906 536.671875 C 427.703125 531.847656 428.253906 527.4375 428.773438 523.460938 L 393.070312 469.875 C 403.882812 459.316406 417.054688 450.148438 432.535156 442.390625 C 441.425781 438 454.269531 428.996094 471.09375 415.425781 C 472.988281 413.820312 474.855469 412.277344 476.691406 410.800781 C 481.878906 406.738281 492.609375 404.085938 508.859375 402.84375 C 504.304688 403.472656 504.960938 403.605469 510.835938 403.273438 C 516.597656 402.894531 524.171875 406.523438 533.558594 414.148438 " fill-opacity="1" fill-rule="evenodd"/><path fill="#d92b2b" d="M 325.988281 303.039062 C 325.933594 302.671875 325.851562 302.242188 325.769531 301.761719 L 325.769531 301.480469 C 325.578125 300.816406 325.386719 300.105469 325.195312 299.359375 C 323.769531 293.441406 322.425781 287.855469 321.136719 282.601562 C 319.820312 277.398438 319.214844 273.203125 319.296875 270.039062 C 319.296875 266.492188 319.460938 263.144531 319.738281 260.027344 C 320.972656 246.769531 323.714844 237.007812 327.964844 230.707031 C 348.886719 199.050781 375.351562 193.847656 407.382812 215.09375 C 409 216.039062 412.15625 219.070312 416.84375 224.175781 C 416.953125 224.324219 417.035156 224.460938 417.117188 224.609375 C 417.695312 225.070312 424.742188 237.070312 438.261719 260.589844 C 439.03125 261.820312 439.742188 263.027344 440.402344 264.222656 C 441.167969 265.730469 442.019531 267.238281 442.949219 268.761719 C 444.679688 271.496094 446.378906 274.261719 448.078125 277.066406 C 449.203125 278.855469 450.382812 280.664062 451.644531 282.453125 C 452.382812 283.730469 453.152344 284.988281 453.976562 286.214844 C 460.0625 295.726562 466.753906 305.390625 473.996094 315.1875 C 475.722656 317.6875 477.585938 320.175781 479.535156 322.628906 C 480.660156 324.285156 481.835938 325.925781 483.070312 327.535156 C 485.101562 330.285156 487.183594 332.972656 489.324219 335.625 C 489.542969 335.769531 489.789062 336.003906 490.039062 336.335938 C 493.957031 341.921875 499.058594 348.765625 505.3125 356.855469 C 516.335938 371.242188 523.796875 381.320312 527.71875 387.101562 C 535.726562 398.589844 542.277344 409.59375 547.378906 420.101562 C 549.574219 424.695312 551.410156 429.101562 552.917969 433.3125 C 546.449219 432.449219 539.8125 432.152344 533.039062 432.382812 C 528.925781 432.617188 524.644531 433.164062 520.203125 434.027344 C 503.558594 436.859375 486.964844 443.324219 470.457031 453.402344 C 455.238281 462.863281 437.246094 471.433594 416.40625 479.089844 C 409.496094 481.609375 403.132812 483.664062 397.261719 485.273438 L 325.988281 303.039062 " fill-opacity="1" fill-rule="evenodd"/><path fill="#eb6d2f" d="M 325.972656 303.042969 L 325.894531 302.761719 C 325.816406 302.378906 325.765625 302.046875 325.765625 301.765625 C 325.871094 302.246094 325.921875 302.679688 325.972656 303.042969 " fill-opacity="1" fill-rule="evenodd"/><path fill="#f89865" d="M 358.695312 172.230469 C 358.90625 175.929688 359.433594 179.308594 360.328125 182.390625 C 362.117188 188.722656 365.484375 193.394531 370.347656 196.382812 C 369.058594 200.207031 367.191406 204.039062 364.71875 207.867188 C 364.535156 208.164062 364.378906 208.347656 364.21875 208.445312 C 364.0625 208.777344 363.878906 209.109375 363.746094 209.441406 C 361.144531 212.988281 358.011719 216.683594 354.382812 220.515625 C 344.675781 230.410156 336.945312 237.339844 331.15625 241.316406 C 327.265625 243.488281 324.605469 245.457031 323.132812 247.199219 C 320.1875 241.945312 317.136719 237.238281 313.902344 233.078125 C 313.71875 232.980469 313.585938 232.859375 313.535156 232.714844 C 311.480469 229.878906 309.246094 227.394531 306.878906 225.269531 C 306.695312 224.988281 306.433594 224.742188 306.117188 224.558594 C 306.0625 224.410156 305.5625 224.058594 304.667969 223.496094 L 305.746094 224.125 C 305.351562 223.894531 304.933594 223.582031 304.457031 223.214844 L 358.695312 172.230469 " fill-opacity="1" fill-rule="evenodd"/><path fill="#fadeca" d="M 332.753906 255.386719 C 330.195312 256.382812 328.261719 257.375 326.929688 258.371094 C 327.113281 257.328125 327.398438 256.347656 327.714844 255.453125 L 327.714844 255.105469 C 330.457031 252.074219 332.152344 252.171875 332.753906 255.386719 Z M 332.832031 255.304688 C 334.867188 252.421875 336.90625 251.542969 338.941406 252.683594 C 337.375 253.398438 335.914062 254.027344 334.527344 254.609375 C 333.980469 254.792969 333.40625 255.023438 332.832031 255.304688 " fill-opacity="1" fill-rule="evenodd"/><path stroke-linecap="butt" transform="matrix(0.260736, 0, 0, -0.260733, -3917.128623, 2560.414571)" fill="none" stroke-linejoin="miter" d="M 16299.705218 8840.643329 C 16299.705218 8840.823111 16299.795108 8840.957947 16300.004851 8840.957947 M 16277.39754 8829.197233 C 16278.101677 8833.197374 16279.105448 8836.942824 16280.39387 8840.388639 L 16280.39387 8841.722019 " stroke="#2b2b2b" stroke-width="0.636" stroke-opacity="1" stroke-miterlimit="10"/><path fill="#b02222" d="M 322.324219 246.183594 C 320.375 248.550781 318.996094 250.941406 318.136719 253.359375 C 315.824219 249.429688 311.429688 249.496094 305.003906 253.574219 C 304.25 245.800781 306.824219 238.273438 312.753906 231 L 322.324219 246.183594 " fill-opacity="1" fill-rule="evenodd"/><path fill="#ff3333" d="M 317.988281 253.433594 C 318.859375 251.011719 320.261719 248.625 322.191406 246.257812 C 323.515625 244.695312 325.101562 243.1875 326.953125 241.714844 C 327.71875 241.097656 328.566406 240.46875 329.488281 239.804688 C 352.550781 223.945312 366.246094 209.011719 370.609375 195.003906 C 378.941406 195.769531 386.476562 198.835938 393.246094 204.238281 C 390.601562 216.867188 383.066406 231.238281 370.609375 247.332031 C 370.214844 247.746094 369.871094 248.195312 369.554688 248.675781 L 369.394531 248.957031 C 364.582031 257.90625 360.140625 268.382812 356.121094 280.398438 C 339.828125 260.726562 328.328125 256.53125 321.558594 267.835938 C 318.964844 264.953125 317.589844 262.015625 317.433594 259.035156 C 317.378906 258.140625 317.378906 257.195312 317.433594 256.203125 C 317.589844 255.304688 317.777344 254.375 317.988281 253.433594 " fill-opacity="1" fill-rule="evenodd"/><path fill="#f89865" d="M 267.167969 468.289062 C 265.792969 466.996094 263.71875 465.707031 260.941406 464.378906 C 263.71875 465.707031 265.792969 466.996094 267.167969 468.289062 Z M 299.890625 428.59375 C 299.992188 429.867188 299.34375 432.519531 297.917969 436.546875 C 296.542969 440.527344 290.988281 445.085938 281.3125 450.257812 C 272.722656 452.859375 265.378906 454.585938 259.28125 455.425781 C 265.378906 454.585938 272.722656 452.859375 281.3125 450.257812 C 290.988281 445.085938 296.542969 440.527344 297.917969 436.546875 C 299.34375 432.519531 299.992188 429.867188 299.890625 428.59375 Z M 253.910156 456.007812 L 253.753906 456.007812 C 245.503906 453.871094 244.230469 449.476562 249.914062 442.796875 C 250.640625 442.035156 251.394531 441.4375 252.195312 441.023438 C 253.570312 440.3125 254.972656 439.648438 256.402344 439.035156 C 257.28125 438.554688 258.320312 438.058594 259.515625 437.542969 C 263.953125 436.035156 266.675781 433.761719 267.664062 430.730469 C 268.234375 428.839844 268.363281 427.417969 268.027344 426.472656 C 268.363281 427.417969 268.234375 428.839844 267.664062 430.730469 C 266.675781 433.761719 263.953125 436.035156 259.515625 437.542969 C 258.320312 438.058594 257.28125 438.554688 256.402344 439.035156 C 254.972656 439.648438 253.570312 440.3125 252.195312 441.023438 C 251.394531 441.4375 250.640625 442.035156 249.914062 442.796875 C 244.230469 449.476562 245.503906 453.871094 253.753906 456.007812 L 253.675781 456.007812 C 253.675781 456.089844 253.9375 456.140625 254.429688 456.140625 C 254.246094 456.140625 254.066406 456.089844 253.910156 456.007812 Z M 267.738281 469.066406 L 276.664062 467.082031 C 281.464844 469.019531 281.234375 472.800781 275.992188 478.433594 C 275.886719 478.582031 275.785156 478.734375 275.679688 478.929688 C 271.476562 482.246094 266.910156 483.90625 261.980469 483.90625 C 260.34375 483.753906 258.683594 483.488281 257.023438 483.125 C 253.519531 481.796875 251.652344 479.578125 251.46875 476.445312 C 255.648438 477.257812 260.007812 476.941406 264.546875 475.515625 C 268.464844 473.496094 269.53125 471.339844 267.738281 469.066406 C 269.53125 471.339844 268.464844 473.496094 264.546875 475.515625 C 260.007812 476.941406 255.648438 477.257812 251.46875 476.445312 C 248.589844 475.882812 245.839844 474.785156 243.167969 473.179688 C 242.363281 472.667969 241.664062 472.121094 241.039062 471.539062 C 237.71875 468.289062 237.121094 464.179688 239.195312 459.273438 C 241.738281 462.289062 246.566406 464.84375 253.675781 466.929688 L 254.246094 467.082031 L 254.453125 467.082031 C 255.828125 467.3125 257.074219 467.210938 258.164062 466.796875 L 259.359375 465.9375 C 260.007812 465.472656 260.550781 464.941406 260.941406 464.378906 C 262.863281 461.726562 262.316406 458.742188 259.28125 455.425781 C 257.386719 455.757812 255.597656 455.960938 253.910156 456.007812 C 255.597656 455.960938 257.386719 455.757812 259.28125 455.425781 C 262.316406 458.742188 262.859375 461.726562 260.941406 464.378906 C 260.550781 464.941406 260.007812 465.472656 259.359375 465.9375 L 258.164062 466.796875 C 257.074219 467.210938 255.828125 467.3125 254.453125 467.082031 L 254.246094 467.082031 L 253.675781 466.929688 C 246.566406 464.84375 241.738281 462.289062 239.195312 459.273438 C 238.367188 458.3125 237.769531 457.285156 237.433594 456.140625 C 237.226562 455.246094 237.171875 454.300781 237.199219 453.308594 C 236.886719 449.476562 237.976562 442.480469 240.546875 432.355469 L 241.480469 427.101562 L 241.480469 427.035156 C 243.402344 419.660156 246.539062 415.367188 250.847656 414.1875 C 255.101562 412.863281 262.757812 411.339844 273.835938 409.648438 C 282.917969 408.171875 289.949219 406.480469 294.933594 404.527344 C 304.25 412.8125 310.085938 422.511719 312.394531 433.632812 C 307.363281 449.59375 299.628906 457.417969 289.171875 457.132812 C 288.289062 457.132812 287.460938 457.234375 286.757812 457.417969 C 278.015625 458.972656 271.476562 462.605469 267.167969 468.289062 C 267.453125 468.621094 267.636719 468.871094 267.738281 469.066406 " fill-opacity="1" fill-rule="evenodd"/><path stroke-linecap="butt" transform="matrix(0.258722, 0, 0, -0.258719, -3917.128623, 2560.414571)" fill="none" stroke-linejoin="miter" d="M 16112.506931 8055.024398 C 16128.601683 8051.883927 16145.406054 8053.106899 16162.995535 8058.602724 C 16178.093802 8066.423706 16182.20053 8074.742935 16175.300623 8083.530216 C 16174.892969 8084.300236 16174.198449 8085.266535 16173.096276 8086.534802 C 16167.796784 8091.532379 16159.794702 8096.545055 16148.999442 8101.663419 M 16299.604654 8239.980049 C 16299.997208 8235.042866 16297.400307 8224.806137 16291.904537 8209.224567 C 16286.605046 8193.854375 16265.195703 8176.234518 16227.706707 8156.244209 C 16194.596208 8146.188661 16166.196368 8139.530258 16142.703464 8136.253901 M 16121.792365 8134.004236 L 16121.294122 8134.004236 M 16064.992685 8121.381956 C 16074.897148 8109.725976 16093.498213 8099.866707 16120.992157 8091.804151 L 16123.196504 8091.215312 L 16123.996712 8091.215312 C 16129.296203 8090.324505 16134.097452 8090.701966 16138.29477 8092.302398 L 16142.899742 8095.639149 C 16145.496644 8097.435861 16147.504713 8099.474148 16148.999442 8101.663419 C 16156.50328 8111.915247 16154.404621 8123.435342 16142.703464 8136.253901 C 16135.305314 8134.985633 16128.405406 8134.215614 16121.792365 8134.004236 C 16122.501983 8133.687169 16123.196504 8133.505988 16123.891024 8133.505988 C 16122.003741 8133.505988 16120.992157 8133.687169 16120.992157 8134.004236 L 16121.294122 8134.004236 C 16089.391484 8142.27817 16084.499646 8159.263893 16106.49782 8185.082192 C 16109.20041 8188.026384 16112.099277 8190.336443 16115.194422 8191.921777 C 16120.493914 8194.684788 16125.899093 8197.251519 16131.394863 8199.621971 C 16134.89766 8201.479077 16138.898701 8203.396576 16143.503673 8205.389568 C 16160.700598 8211.20246 16171.193894 8219.989741 16174.998657 8231.721213 C 16177.293594 8239.01375 16177.701247 8244.524674 16176.402796 8248.178492 " stroke="#954e40" stroke-width="0.641" stroke-opacity="1" stroke-miterlimit="10"/><path fill="#fefffe" d="M 542.382812 703.453125 C 536.773438 712.734375 524.164062 716.84375 504.628906 715.800781 C 496.449219 706.003906 487.800781 704.230469 478.71875 710.480469 L 471.03125 663.769531 C 471.085938 663.722656 471.058594 663.703125 470.976562 663.703125 C 468.1875 660.472656 467.71875 657.703125 469.609375 655.382812 C 471.085938 655.300781 472.480469 655.367188 473.738281 655.597656 C 495.214844 656.542969 515.980469 651.089844 536.007812 639.207031 C 538.113281 642.703125 538.71875 646.78125 537.703125 651.421875 L 541.753906 699.257812 L 542.382812 703.453125 " fill-opacity="1" fill-rule="evenodd"/><path fill="#d8d9d8" d="M 542.683594 706.664062 C 537.113281 716.257812 524.480469 720.46875 504.792969 719.289062 C 496.613281 709.546875 488.046875 707.773438 479.09375 713.972656 L 478.546875 710.554688 C 487.605469 704.308594 496.253906 706.082031 504.4375 715.875 C 523.988281 716.921875 536.589844 712.808594 542.191406 703.53125 Z M 478.546875 715.875 C 489.363281 711.996094 498.261719 714.152344 505.207031 722.339844 C 505.261719 723.1875 505.316406 724.0625 505.371094 724.976562 C 491.203125 721.078125 481.429688 721.28125 475.964844 725.539062 Z M 470.226562 734.839844 L 474.785156 727.464844 C 479.972656 723.714844 490.214844 723.453125 505.507812 726.667969 C 505.398438 731.023438 504.628906 734.738281 503.175781 737.820312 C 492.328125 733.511719 481.347656 732.519531 470.226562 734.839844 Z M 468.03125 737.457031 C 481.59375 735.433594 492.960938 736.214844 502.078125 739.8125 C 494.773438 752.257812 481.621094 753.617188 462.675781 743.921875 Z M 552.980469 719.507812 L 553.421875 722.273438 C 540.542969 731.871094 535.738281 744.402344 539.007812 759.832031 L 555.890625 745.28125 L 558.390625 760.679688 C 524.867188 786.898438 495.433594 800.753906 470.007812 802.28125 C 444.359375 803.789062 431.292969 801.519531 430.824219 795.46875 C 451.117188 796.214844 471.460938 792.816406 491.78125 785.242188 C 491.421875 768.914062 478.023438 757.84375 451.609375 752.011719 C 452.378906 751.347656 453.148438 750.734375 453.972656 750.171875 C 481.125 756.085938 494.71875 767.425781 494.71875 784.179688 C 508.582031 778.828125 522.53125 771.367188 536.589844 761.804688 C 531.8125 744.019531 537.277344 729.914062 552.980469 719.507812 " fill-opacity="1" fill-rule="evenodd"/><path fill="#fdfffd" d="M 451.679688 751.988281 C 478.078125 757.824219 491.46875 768.894531 491.855469 785.21875 C 471.519531 792.792969 451.183594 796.191406 430.878906 795.445312 C 423.441406 783.414062 430.382812 768.941406 451.679688 751.988281 Z M 553.460938 722.253906 L 555.960938 745.257812 L 539.082031 759.8125 C 535.816406 744.378906 540.589844 731.847656 553.460938 722.253906 Z M 478.597656 715.855469 L 479.148438 713.949219 C 488.09375 707.75 496.65625 709.523438 504.835938 719.269531 C 524.539062 720.445312 537.160156 716.234375 542.757812 706.636719 L 547.863281 702.660156 C 550.746094 706.257812 552.472656 711.859375 553.050781 719.484375 C 537.324219 729.890625 531.863281 743.996094 536.640625 761.78125 C 522.589844 771.347656 508.648438 778.804688 494.761719 784.160156 C 494.761719 767.402344 481.179688 756.0625 454.011719 750.148438 L 462.738281 743.898438 C 481.671875 753.597656 494.816406 752.234375 502.144531 739.789062 C 493.007812 736.191406 481.644531 735.414062 468.089844 737.4375 L 470.257812 734.816406 C 481.398438 732.496094 492.375 733.488281 503.214844 737.796875 C 504.667969 734.714844 505.464844 731.003906 505.546875 726.644531 C 490.261719 723.429688 480.027344 723.691406 474.8125 727.441406 L 476.019531 725.519531 C 481.480469 721.257812 491.277344 721.058594 505.410156 724.957031 C 505.382812 724.042969 505.328125 723.164062 505.273438 722.320312 C 498.304688 714.128906 489.410156 711.976562 478.597656 715.855469 " fill-opacity="1" fill-rule="evenodd"/><path fill="#5c5d5c" d="M 542.730469 706.648438 L 542.238281 703.511719 L 541.609375 699.320312 C 545.25 700.230469 547.332031 701.339844 547.855469 702.667969 L 542.730469 706.648438 " fill-opacity="1" fill-rule="evenodd"/><path fill="#f89865" d="M 233.941406 208.070312 L 234.867188 207.921875 C 235.050781 207.839844 235.289062 207.789062 235.578125 207.789062 C 241.304688 206.792969 246.425781 202.71875 250.988281 195.570312 C 246.425781 202.71875 241.304688 206.792969 235.578125 207.789062 C 235.289062 207.789062 235.050781 207.839844 234.867188 207.921875 L 233.941406 208.070312 L 230.117188 208.847656 L 225.128906 189.605469 C 216.289062 185.3125 214.230469 180.40625 218.980469 174.921875 C 221.4375 172.21875 224.734375 169.929688 228.902344 168.023438 C 229.90625 162.074219 228.902344 155.511719 225.921875 148.367188 C 223.890625 143.59375 220.671875 137.925781 216.265625 131.394531 C 213.574219 127.332031 212.121094 122.460938 211.855469 116.777344 L 212.359375 109.316406 C 214.445312 95.792969 222.226562 82.285156 235.710938 68.792969 C 242.441406 61.980469 248.929688 56.507812 255.183594 52.382812 C 271.835938 37.910156 288.117188 30.949219 304.027344 31.515625 C 317.484375 31.996094 330.359375 37.714844 342.550781 48.703125 C 352.445312 57.453125 361.207031 68.859375 368.832031 82.914062 C 375.085938 94.21875 379.175781 104.261719 381.179688 113.011719 C 383.925781 125.460938 381.65625 139.683594 374.375 155.675781 C 370.707031 163.914062 362.078125 178.582031 348.460938 199.699219 C 339.992188 213.175781 325.769531 223.167969 305.792969 229.648438 C 290.464844 234.574219 276.265625 236.578125 263.207031 235.683594 C 255.132812 235.070312 248.296875 232.25 242.675781 227.230469 C 240.960938 225.625 239.511719 223.949219 238.269531 222.191406 L 236.714844 219.789062 C 235.210938 216.324219 234.257812 212.429688 233.941406 208.070312 " fill-opacity="1" fill-rule="evenodd"/><path stroke-linecap="butt" transform="matrix(0.255713, 0, 0, -0.255711, -3917.128623, 2560.414571)" fill="none" stroke-linejoin="miter" d="M 16233.400861 9199.284581 L 16237.005972 9199.865071 C 16237.693387 9200.185868 16238.701596 9200.384456 16239.80146 9200.384456 C 16262.104265 9204.279849 16282.207341 9220.228044 16300.003757 9248.152662 " stroke="#000033" stroke-width="3.241" stroke-opacity="1" stroke-miterlimit="10"/><path fill="#330000" d="M 402.816406 112.917969 C 408.445312 143.761719 394.855469 170.765625 362.058594 193.917969 C 358.792969 193.917969 355.609375 193.039062 352.476562 191.28125 C 346.292969 187.933594 343.746094 182.035156 344.886719 173.613281 C 343.375 164.566406 340.164062 157.46875 335.226562 152.316406 C 325.328125 142.140625 311.980469 146.914062 295.183594 166.652344 C 293.589844 159.359375 291.042969 151.121094 287.59375 141.957031 C 280.695312 123.394531 272.441406 109.238281 262.808594 99.492188 C 255.5625 99.542969 248.210938 98.695312 240.730469 96.9375 C 225.789062 93.539062 217.773438 87.492188 216.660156 78.835938 C 216.710938 78.027344 216.871094 77 217.109375 75.722656 C 217.773438 73.101562 218.703125 70.601562 219.921875 68.195312 C 223.769531 60.753906 229.953125 55.914062 238.472656 53.644531 L 240.464844 48.886719 C 242.347656 44.992188 244.601562 41.429688 247.257812 38.164062 C 255.882812 27.605469 266.972656 21.738281 280.5625 20.558594 L 289.796875 15.871094 C 297.464844 12.554688 304.976562 10.332031 312.300781 9.191406 C 335.863281 5.84375 353.644531 14.394531 365.613281 34.898438 C 379.546875 58.699219 386.921875 71.429688 387.746094 73.085938 C 395.707031 88.089844 400.75 101.363281 402.816406 112.917969 " fill-opacity="1" fill-rule="evenodd"/><path fill="#330000" d="M 228.71875 74.070312 C 230.894531 90.863281 241.015625 102.847656 259.105469 109.988281 C 236.992188 109.707031 223.210938 99.050781 217.777344 78.050781 L 228.71875 74.070312 " fill-opacity="1" fill-rule="evenodd"/><path fill="#77390d" d="M 322.882812 168.144531 C 322.464844 170.363281 321.472656 172.238281 319.960938 173.746094 C 318.347656 175.171875 316.703125 175.835938 314.984375 175.738281 C 313.289062 175.835938 312.011719 175.121094 311.152344 173.613281 C 310.265625 171.953125 310.058594 169.933594 310.527344 167.578125 C 310.890625 165.722656 311.753906 164.148438 313.082031 162.824219 C 314.253906 161.066406 315.714844 159.722656 317.40625 158.777344 C 320.40625 156.789062 323.324219 156.410156 326.214844 157.632812 C 328.640625 158.679688 330.230469 160.769531 331.039062 163.882812 C 330.203125 162.078125 328.875 160.800781 327.050781 160.054688 C 324.886719 159.246094 322.515625 159.394531 319.960938 160.46875 C 320.898438 160.949219 321.628906 161.628906 322.175781 162.542969 C 323.117188 164.199219 323.351562 166.054688 322.882812 168.144531 " fill-opacity="1" fill-rule="evenodd"/><path fill="#3a210b" d="M 262.347656 128.164062 C 253.5 125.84375 242.988281 124.800781 230.832031 125.035156 C 228.421875 119.445312 227.421875 114.640625 227.859375 110.628906 C 240.527344 111.011719 251.679688 113.960938 261.296875 119.496094 L 262.347656 128.164062 " fill-opacity="1" fill-rule="evenodd"/><path fill="#000000" d="M 261.25 149.480469 C 261.738281 153.410156 260.765625 156.90625 258.429688 159.972656 C 255.894531 163.203125 252.6875 165.046875 248.765625 165.523438 C 244.867188 166.039062 241.382812 165.046875 238.253906 162.539062 C 235.023438 160.171875 233.203125 157.019531 232.71875 153.09375 C 232.203125 149.167969 233.203125 145.585938 235.691406 142.371094 C 238.125 139.304688 241.28125 137.496094 245.152344 136.984375 C 249.074219 136.5 252.636719 137.449219 255.84375 139.816406 C 258.945312 142.320312 260.738281 145.535156 261.25 149.480469 Z M 259.480469 149.761719 C 259.046875 146.296875 257.484375 143.53125 254.738281 141.457031 C 251.945312 139.320312 248.816406 138.476562 245.433594 138.886719 C 241.972656 139.371094 239.175781 140.960938 237.050781 143.648438 C 234.921875 146.398438 234.074219 149.496094 234.484375 152.945312 C 234.921875 156.359375 236.535156 159.109375 239.332031 161.183594 C 242.023438 163.367188 245.101562 164.214844 248.535156 163.734375 C 251.972656 163.320312 254.765625 161.730469 256.996094 158.976562 C 259.097656 156.242188 259.917969 153.160156 259.484375 149.761719 " fill-opacity="1" fill-rule="evenodd"/><path fill="#ffffcc" d="M 259.480469 149.761719 C 259.914062 153.160156 259.09375 156.242188 256.992188 158.976562 C 254.765625 161.730469 251.972656 163.320312 248.535156 163.734375 C 245.101562 164.214844 242.003906 163.371094 239.335938 161.183594 C 236.519531 159.109375 234.929688 156.359375 234.492188 152.945312 C 234.082031 149.5 234.929688 146.398438 237.054688 143.644531 C 239.183594 140.960938 241.976562 139.367188 245.4375 138.890625 C 248.820312 138.472656 251.945312 139.320312 254.738281 141.460938 C 257.480469 143.53125 259.042969 146.296875 259.480469 149.761719 " fill-opacity="1" fill-rule="evenodd"/><path fill="#3f0920" d="M 250.023438 148.625 C 249.460938 148.34375 249.152344 147.996094 249.101562 147.5625 C 249.050781 147.082031 249.253906 146.71875 249.664062 146.421875 C 250.046875 146.058594 250.558594 145.808594 251.226562 145.722656 C 251.839844 145.625 252.453125 145.722656 253.015625 146.007812 C 253.476562 146.191406 253.734375 146.519531 253.785156 147 C 253.835938 147.414062 253.707031 147.832031 253.375 148.195312 C 252.941406 148.527344 252.402344 148.742188 251.789062 148.839844 C 251.125 148.941406 250.558594 148.859375 250.023438 148.625 " fill-opacity="1" fill-rule="evenodd"/><path stroke-linecap="butt" transform="matrix(0.255887, 0, 0, -0.255885, -3917.128623, 2560.414571)" fill="none" stroke-linejoin="miter" d="M 16285.101304 9425.29484 C 16287.192678 9424.3789 16289.406176 9424.058321 16292.001312 9424.455228 C 16294.397996 9424.83687 16296.504636 9425.676481 16298.199107 9426.974062 C 16299.496675 9428.393768 16300.000436 9430.011928 16299.801985 9431.645354 C 16299.603533 9433.52303 16298.59601 9434.805345 16296.79468 9435.522831 C 16294.596448 9436.621959 16292.199764 9437.018866 16289.80308 9436.621959 C 16287.192678 9436.30138 16285.192897 9435.324378 16283.696878 9433.904672 C 16282.094 9432.744481 16281.300194 9431.324775 16281.498645 9429.447099 C 16281.697097 9427.752611 16282.903072 9426.393967 16285.101304 9425.29484 Z M 16285.101304 9425.29484 " stroke="#330000" stroke-width="1.619" stroke-opacity="1" stroke-miterlimit="10"/><g clip-path="url(#7737a5ea81)"><g clip-path="url(#0d9e7105f1)"><path fill="url(#cc3ecff6fe)" d="M 231.4375 155.964844 L 240.789062 131.476562 L 264.914062 141.335938 L 255.5625 165.824219 Z M 231.4375 155.964844 " fill-rule="nonzero"/></g></g><path fill="#330033" d="M 254.527344 153.890625 C 253.296875 155.601562 251.582031 156.59375 249.40625 156.875 C 247.28125 157.15625 245.335938 156.640625 243.59375 155.316406 C 241.851562 153.992188 240.800781 152.234375 240.46875 150.0625 C 240.085938 147.890625 240.546875 145.917969 241.800781 144.179688 C 243.082031 142.523438 244.796875 141.542969 246.949219 141.261719 C 249.097656 140.980469 251.042969 141.476562 252.757812 142.753906 C 254.5 144.128906 255.574219 145.902344 255.933594 148.074219 C 256.265625 150.261719 255.804688 152.199219 254.527344 153.894531 " fill-opacity="1" fill-rule="evenodd"/><path fill="#000000" d="M 252.707031 152.394531 C 251.683594 153.636719 250.40625 154.367188 248.792969 154.601562 C 247.179688 154.800781 245.695312 154.417969 244.316406 153.472656 C 243.035156 152.558594 242.242188 151.335938 241.960938 149.777344 C 241.730469 148.21875 242.113281 146.808594 243.113281 145.582031 C 244.085938 144.355469 245.414062 143.644531 247 143.460938 C 248.613281 143.210938 250.097656 143.578125 251.480469 144.523438 C 252.757812 145.46875 253.5 146.726562 253.757812 148.285156 C 254.039062 149.84375 253.679688 151.21875 252.707031 152.398438 " fill-opacity="1" fill-rule="evenodd"/><path stroke-linecap="butt" transform="matrix(0.2559, 0, 0, -0.255897, -3917.128623, 2560.414571)" fill="none" stroke-linejoin="miter" d="M 16294.796124 9410.106912 C 16298.59705 9414.701653 16300.001408 9420.074904 16298.902345 9426.165607 C 16297.894871 9432.256309 16294.994566 9437.186878 16290.002989 9440.865723 C 16284.599264 9444.559834 16278.798654 9445.994736 16272.494308 9445.017781 C 16266.296814 9444.30033 16261.091531 9441.522115 16257.30587 9436.72893 C 16253.398091 9431.935746 16251.902144 9426.42511 16252.802765 9420.334408 C 16253.901828 9414.243705 16257.000575 9409.465786 16261.992152 9405.893795 C 16267.395877 9402.199684 16273.196487 9400.703722 16279.500833 9401.497498 C 16285.80518 9402.398128 16290.796757 9405.252668 16294.796124 9410.106912 Z M 16294.796124 9410.106912 " stroke="#330000" stroke-width="0.648" stroke-opacity="1" stroke-miterlimit="10"/><path fill="#ffffff" d="M 243.777344 144.785156 C 244.183594 145.449219 244.3125 146.078125 244.109375 146.691406 C 243.929688 147.253906 243.445312 147.617188 242.679688 147.75 C 241.988281 147.902344 241.199219 147.785156 240.355469 147.402344 C 239.511719 147.023438 238.847656 146.472656 238.363281 145.78125 C 237.90625 145.117188 237.75 144.484375 237.929688 143.921875 C 238.1875 143.359375 238.671875 143.027344 239.410156 142.925781 C 240.175781 142.746094 241.019531 142.8125 241.914062 143.144531 C 242.730469 143.523438 243.34375 144.070312 243.777344 144.785156 " fill-opacity="1" fill-rule="evenodd"/><path fill="#ffffff" d="M 240.648438 151.910156 C 240.367188 151.761719 240.1875 151.546875 240.136719 151.265625 C 240.113281 150.984375 240.1875 150.703125 240.445312 150.421875 C 240.671875 150.1875 240.980469 150.039062 241.363281 149.988281 C 241.746094 149.941406 242.078125 149.988281 242.359375 150.140625 C 242.640625 150.371094 242.792969 150.636719 242.84375 150.917969 C 242.894531 151.199219 242.792969 151.429688 242.5625 151.628906 C 242.332031 151.910156 242.027344 152.078125 241.644531 152.128906 C 241.261719 152.175781 240.929688 152.09375 240.648438 151.910156 " fill-opacity="1" fill-rule="evenodd"/><path fill="#ffffff" d="M 253.121094 146.105469 C 252.761719 145.777344 252.503906 145.328125 252.429688 144.765625 C 252.328125 144.230469 252.429688 143.769531 252.710938 143.339844 C 252.992188 142.90625 253.402344 142.65625 253.914062 142.558594 C 254.398438 142.507812 254.808594 142.65625 255.195312 142.988281 C 255.628906 143.320312 255.886719 143.734375 255.988281 144.265625 C 256.0625 144.832031 255.9375 145.328125 255.628906 145.757812 C 255.371094 146.171875 255.039062 146.421875 254.554688 146.46875 C 254.042969 146.554688 253.554688 146.4375 253.121094 146.105469 " fill-opacity="1" fill-rule="evenodd"/><path fill="#f89865" d="M 480.785156 287.78125 C 491.34375 294.925781 499.625 300.546875 505.625 304.605469 L 505.707031 304.605469 L 505.707031 304.671875 C 505.707031 304.773438 505.761719 304.855469 505.84375 304.890625 C 508.207031 310.292969 508.339844 315.761719 506.195312 321.300781 C 503.941406 326.734375 500.113281 330.679688 494.792969 333.148438 C 490.53125 335.136719 485.453125 336.582031 479.644531 337.476562 C 479.316406 337.476562 473.941406 338.136719 463.460938 339.464844 C 462.808594 339.363281 462.214844 339.398438 461.699219 339.53125 C 457.625 339.679688 454.015625 338.46875 450.835938 335.917969 C 449.152344 334.773438 447.714844 333.8125 446.4375 333 C 446.382812 332.917969 445.707031 332.488281 444.375 331.726562 C 442.992188 331.011719 440.601562 329.453125 437.207031 327.050781 L 436.910156 326.898438 C 430.285156 321.925781 423.90625 318.332031 417.742188 316.109375 C 418.066406 315.726562 418.367188 315.398438 418.609375 315.113281 L 418.828125 314.898438 C 419.996094 312.679688 421.269531 310.722656 422.65625 309.015625 C 423.933594 306.976562 425.179688 305.167969 426.402344 303.609375 C 430.011719 299.019531 433.839844 295.144531 437.914062 291.972656 C 445.625 285.957031 454.421875 282.179688 464.304688 280.605469 C 464.929688 280.570312 465.5 280.523438 466.015625 280.472656 C 467.289062 280.472656 468.457031 280.421875 469.515625 280.324219 C 470.957031 281.234375 472.558594 282.230469 474.269531 283.304688 C 475.625 284.167969 477.039062 285.113281 478.449219 286.160156 C 478.910156 286.488281 479.289062 286.65625 479.589844 286.65625 C 480.050781 287.019531 480.457031 287.402344 480.785156 287.78125 " fill-opacity="1" fill-rule="evenodd"/><path fill="#ff3333" d="M 479.972656 281.210938 C 479.730469 281.210938 479.460938 281.226562 479.136719 281.273438 C 478.597656 281.375 478.058594 281.441406 477.492188 281.488281 C 476.628906 281.671875 475.765625 281.839844 474.875 281.988281 C 474.386719 282.019531 473.929688 282.121094 473.523438 282.269531 C 473.335938 282.269531 473.148438 282.285156 473.011719 282.335938 C 472.714844 282.4375 472.417969 282.550781 472.09375 282.699219 C 471.527344 282.933594 470.910156 283.179688 470.234375 283.476562 C 464.460938 285.550781 459.226562 288.535156 454.507812 292.414062 L 451.726562 295.179688 C 450.730469 295.996094 449.785156 296.871094 448.867188 297.816406 C 445.390625 301.546875 442.261719 306.003906 439.507812 311.15625 C 438.457031 312.867188 437.484375 314.820312 436.539062 317.042969 C 435.542969 318.898438 434.652344 320.957031 433.816406 323.222656 C 433.789062 323.222656 433.761719 323.277344 433.761719 323.375 L 433.601562 323.441406 C 433.601562 323.492188 433.601562 323.554688 433.601562 323.65625 L 433.546875 323.65625 C 433.359375 324.070312 433.140625 324.503906 432.925781 324.933594 C 432.765625 325.394531 432.601562 325.894531 432.414062 326.421875 C 431.28125 329.257812 430.039062 332.308594 428.71875 335.574219 C 428.339844 336.519531 428.015625 337.496094 427.71875 338.488281 C 427.640625 338.773438 427.503906 339.105469 427.289062 339.484375 C 426.585938 341.523438 425.804688 343.84375 424.96875 346.449219 C 424.859375 346.394531 424.808594 346.300781 424.753906 346.164062 C 421.652344 343.132812 417.792969 339.484375 413.097656 335.226562 C 411.832031 334.082031 410.507812 332.96875 409.132812 331.894531 C 408.753906 331.460938 408.296875 331.015625 407.785156 330.535156 C 407.433594 330.253906 407.136719 329.972656 406.867188 329.691406 C 395.589844 319.796875 384.828125 310.945312 374.550781 303.136719 C 373.792969 300.585938 373.335938 298.097656 373.121094 295.679688 C 372.390625 286.597656 374.414062 278.027344 379.242188 269.988281 C 385.394531 259.992188 392.273438 252.832031 399.90625 248.472656 C 407.378906 244.214844 412.558594 241.542969 415.445312 240.453125 C 418.277344 239.324219 420.785156 238.5625 422.972656 238.179688 L 423.132812 238.117188 L 464.003906 271.695312 L 464.082031 271.761719 L 477.761719 279.71875 C 478.355469 280.082031 478.867188 280.445312 479.351562 280.777344 C 479.515625 280.910156 479.730469 281.058594 479.972656 281.210938 " fill-opacity="1" fill-rule="evenodd"/><path fill="#b02222" d="M 480.082031 281.148438 L 480.027344 281.214844 C 480.785156 281.878906 480.539062 283.785156 479.300781 286.96875 L 472.203125 282.640625 C 472.554688 282.492188 472.851562 282.375 473.121094 282.277344 C 473.28125 282.226562 473.445312 282.210938 473.632812 282.210938 C 474.066406 282.0625 474.496094 281.964844 474.984375 281.929688 C 475.875 281.78125 476.761719 281.613281 477.601562 281.433594 C 478.195312 281.382812 478.707031 281.316406 479.246094 281.214844 C 479.570312 281.167969 479.867188 281.148438 480.082031 281.148438 Z M 425.066406 346.390625 C 425.929688 343.785156 426.6875 341.464844 427.414062 339.425781 C 427.605469 339.046875 427.738281 338.714844 427.847656 338.433594 C 428.117188 337.4375 428.46875 336.460938 428.84375 335.515625 C 430.167969 332.25 431.382812 329.203125 432.542969 326.367188 L 433.945312 324.097656 C 438.34375 326.417969 443.925781 330.5625 450.699219 336.511719 C 450.566406 336.378906 449.082031 337.15625 446.222656 338.863281 C 443.496094 340.523438 441.066406 342.128906 438.988281 343.6875 C 435.96875 346.007812 433.808594 347.351562 432.542969 347.730469 C 431.246094 348.164062 430.058594 348.445312 428.980469 348.574219 C 428.304688 348.675781 427.550781 348.410156 426.6875 347.800781 C 426.226562 347.414062 425.742188 347.019531 425.285156 346.585938 C 425.230469 346.507812 425.175781 346.421875 425.066406 346.390625 " fill-opacity="1" fill-rule="evenodd"/><path fill="#f89865" d="M 501.796875 302.65625 C 504.402344 304.414062 506.171875 306.136719 507.066406 307.84375 C 507.71875 309.453125 508.535156 311.574219 509.484375 314.226562 C 510.382812 316.828125 511.144531 322.347656 511.824219 330.769531 C 512.394531 339.289062 507.992188 351.949219 498.699219 368.738281 C 489.402344 385.414062 481.632812 399.136719 475.328125 409.929688 C 471.496094 416.457031 469.023438 420.832031 467.933594 423.054688 C 467.417969 423.234375 466.820312 423.550781 466.085938 423.984375 C 463.015625 425.492188 459.429688 424.976562 455.300781 422.410156 C 446.085938 414.269531 440.597656 408.617188 438.832031 405.453125 C 438.316406 404.507812 437.742188 402.703125 437.144531 400.050781 C 436.601562 397.546875 436.058594 395.789062 435.515625 394.792969 C 436.304688 393.667969 437.039062 392.574219 437.714844 391.53125 C 439.375 388.695312 440.707031 385.695312 441.738281 382.515625 C 442.472656 380.441406 443.179688 378.300781 443.886719 376.128906 C 444.644531 372.667969 445.460938 365.523438 446.359375 354.683594 C 446.683594 350.671875 447.199219 346.8125 447.851562 343.117188 C 450.460938 329.058594 455.761719 316.828125 463.75 306.417969 C 463.804688 306.1875 463.941406 306.035156 464.101562 305.988281 C 464.320312 305.804688 464.511719 305.707031 464.753906 305.707031 C 472.285156 302.972656 479.59375 301.382812 486.6875 300.949219 C 494.105469 300.335938 499.160156 300.902344 501.796875 302.65625 " fill-opacity="1" fill-rule="evenodd"/><path fill="#f89865" d="M 447.585938 450.660156 C 445.351562 451.835938 444.035156 452.964844 443.601562 453.992188 C 443.46875 454.042969 443.46875 454.125 443.601562 454.207031 C 440.777344 458.234375 437.496094 460.339844 433.757812 460.523438 C 437.496094 460.339844 440.777344 458.234375 443.601562 454.207031 C 443.46875 454.125 443.46875 454.042969 443.601562 453.992188 C 444.035156 452.964844 445.351562 451.835938 447.585938 450.660156 C 449.953125 450.230469 451.566406 451.160156 452.480469 453.429688 C 452.535156 453.808594 452.617188 454.257812 452.777344 454.773438 C 451.890625 459.460938 447.34375 463.9375 439.136719 468.195312 C 438.25 468.679688 437.335938 469.140625 436.367188 469.621094 C 430.472656 470.796875 426.0625 470.121094 423.183594 467.550781 C 422.886719 467.269531 422.082031 466.769531 420.761719 466.058594 C 419.417969 465.359375 417.695312 464.484375 415.570312 463.441406 L 406.421875 454.773438 C 406.179688 454.636719 405.910156 454.457031 405.640625 454.207031 C 399.5625 449.484375 396.953125 443.898438 397.730469 437.453125 C 397.730469 436.9375 397.839844 436.457031 398.054688 436.042969 C 398.699219 434.054688 398.863281 432.015625 398.539062 429.925781 C 398.214844 429.03125 397.921875 428.101562 397.679688 427.15625 C 396.359375 421.871094 397.21875 417.230469 400.234375 413.25 C 412.3125 406.292969 424.339844 399.925781 436.367188 394.15625 C 448.632812 395.945312 456.972656 400.355469 461.359375 407.351562 C 464.292969 411.941406 466.28125 416.699219 467.332031 421.621094 C 467.761719 424.324219 468.03125 427.355469 468.167969 430.703125 C 468.21875 433.984375 466.472656 437.335938 462.921875 440.796875 C 459.234375 444.195312 457.082031 446.234375 456.464844 446.898438 C 455.710938 447.511719 454.957031 447.945312 454.175781 448.175781 C 454.042969 448.273438 453.878906 448.324219 453.691406 448.324219 C 451.136719 449.167969 449.117188 449.949219 447.585938 450.660156 " fill-opacity="1" fill-rule="evenodd"/><path stroke-linecap="butt" transform="matrix(0.267772, 0, 0, -0.267769, -3917.128623, 2560.414571)" fill="none" stroke-linejoin="miter" d="M 16299.996937 7878.948609 C 16291.696376 7874.557582 16286.794814 7870.341613 16285.102608 7866.504935 C 16284.606617 7866.315289 16284.606617 7866.008938 16285.102608 7865.702587 C 16274.599261 7850.662226 16262.301593 7842.799224 16248.297131 7842.113582 " stroke="#954e40" stroke-width="0.619" stroke-opacity="1" stroke-miterlimit="10"/></svg>