<svg xmlns="http://www.w3.org/2000/svg" xmlns:xlink="http://www.w3.org/1999/xlink" width="1080" zoomAndPan="magnify" viewBox="0 0 810 809.999993" height="1080" preserveAspectRatio="xMidYMid meet" version="1.0"><defs><clipPath id="7b746744e1"><path d="M 34.523438 0 L 775.523438 0 L 775.523438 810 L 34.523438 810 Z M 34.523438 0 " clip-rule="nonzero"/></clipPath><clipPath id="9dbbda0128"><path d="M 225 137 L 246 137 L 246 157 L 225 157 Z M 225 137 " clip-rule="nonzero"/></clipPath><clipPath id="dade09ce57"><path d="M 229.394531 154.621094 C 227.230469 152.980469 225.914062 150.824219 225.503906 148.175781 C 225.0625 145.46875 225.648438 143.054688 227.199219 140.929688 C 228.808594 138.792969 230.976562 137.566406 233.667969 137.234375 C 236.300781 136.902344 238.730469 137.566406 240.894531 139.222656 C 243.121094 140.878906 244.464844 143.054688 244.875 145.753906 C 245.3125 148.40625 244.730469 150.792969 243.121094 152.929688 C 241.511719 155.050781 239.375 156.277344 236.710938 156.609375 C 234.019531 156.941406 231.589844 156.277344 229.394531 154.621094 " clip-rule="evenodd"/></clipPath><radialGradient gradientTransform="matrix(0.936493, 0.382707, 0.352533, -0.923314, 3876.17767, -1709.151985)" gradientUnits="userSpaceOnUse" r="23.822942" cx="0" id="0782a27e04" cy="0" fx="0" fy="0"><stop stop-opacity="1" stop-color="rgb(57.446289%, 2.047729%, 2.165222%)" offset="0"/><stop stop-opacity="1" stop-color="rgb(57.215881%, 2.120972%, 2.415466%)" offset="0.0078125"/><stop stop-opacity="1" stop-color="rgb(57.063293%, 2.1698%, 2.581787%)" offset="0.0117188"/><stop stop-opacity="1" stop-color="rgb(56.90918%, 2.218628%, 2.749634%)" offset="0.015625"/><stop stop-opacity="1" stop-color="rgb(56.756592%, 2.267456%, 2.915955%)" offset="0.0195312"/><stop stop-opacity="1" stop-color="rgb(56.604004%, 2.316284%, 3.082275%)" offset="0.0234375"/><stop stop-opacity="1" stop-color="rgb(56.44989%, 2.365112%, 3.250122%)" offset="0.0273438"/><stop stop-opacity="1" stop-color="rgb(56.297302%, 2.41394%, 3.416443%)" offset="0.03125"/><stop stop-opacity="1" stop-color="rgb(56.144714%, 2.462769%, 3.582764%)" offset="0.0351562"/><stop stop-opacity="1" stop-color="rgb(55.990601%, 2.511597%, 3.75061%)" offset="0.0390625"/><stop stop-opacity="1" stop-color="rgb(55.838013%, 2.560425%, 3.916931%)" offset="0.0429688"/><stop stop-opacity="1" stop-color="rgb(55.685425%, 2.609253%, 4.083252%)" offset="0.046875"/><stop stop-opacity="1" stop-color="rgb(55.531311%, 2.658081%, 4.251099%)" offset="0.0507812"/><stop stop-opacity="1" stop-color="rgb(55.378723%, 2.706909%, 4.417419%)" offset="0.0546875"/><stop stop-opacity="1" stop-color="rgb(55.226135%, 2.755737%, 4.58374%)" offset="0.0585938"/><stop stop-opacity="1" stop-color="rgb(55.072021%, 2.804565%, 4.751587%)" offset="0.0625"/><stop stop-opacity="1" stop-color="rgb(54.919434%, 2.853394%, 4.917908%)" offset="0.0664062"/><stop stop-opacity="1" stop-color="rgb(54.766846%, 2.902222%, 5.084229%)" offset="0.0703125"/><stop stop-opacity="1" stop-color="rgb(54.612732%, 2.95105%, 5.250549%)" offset="0.0742188"/><stop stop-opacity="1" stop-color="rgb(54.460144%, 2.999878%, 5.418396%)" offset="0.078125"/><stop stop-opacity="1" stop-color="rgb(54.30603%, 3.048706%, 5.584717%)" offset="0.0820312"/><stop stop-opacity="1" stop-color="rgb(54.153442%, 3.097534%, 5.751038%)" offset="0.0859375"/><stop stop-opacity="1" stop-color="rgb(54.000854%, 3.146362%, 5.918884%)" offset="0.0898438"/><stop stop-opacity="1" stop-color="rgb(53.846741%, 3.19519%, 6.085205%)" offset="0.09375"/><stop stop-opacity="1" stop-color="rgb(53.694153%, 3.244019%, 6.251526%)" offset="0.0976562"/><stop stop-opacity="1" stop-color="rgb(53.541565%, 3.292847%, 6.419373%)" offset="0.101562"/><stop stop-opacity="1" stop-color="rgb(53.387451%, 3.341675%, 6.585693%)" offset="0.105469"/><stop stop-opacity="1" stop-color="rgb(53.234863%, 3.390503%, 6.752014%)" offset="0.109375"/><stop stop-opacity="1" stop-color="rgb(53.082275%, 3.439331%, 6.919861%)" offset="0.113281"/><stop stop-opacity="1" stop-color="rgb(52.928162%, 3.488159%, 7.086182%)" offset="0.117188"/><stop stop-opacity="1" stop-color="rgb(52.775574%, 3.536987%, 7.252502%)" offset="0.121094"/><stop stop-opacity="1" stop-color="rgb(52.622986%, 3.585815%, 7.420349%)" offset="0.125"/><stop stop-opacity="1" stop-color="rgb(52.468872%, 3.634644%, 7.58667%)" offset="0.128906"/><stop stop-opacity="1" stop-color="rgb(52.316284%, 3.683472%, 7.752991%)" offset="0.132812"/><stop stop-opacity="1" stop-color="rgb(52.163696%, 3.7323%, 7.919312%)" offset="0.136719"/><stop stop-opacity="1" stop-color="rgb(52.009583%, 3.781128%, 8.087158%)" offset="0.140625"/><stop stop-opacity="1" stop-color="rgb(51.856995%, 3.829956%, 8.253479%)" offset="0.144531"/><stop stop-opacity="1" stop-color="rgb(51.704407%, 3.878784%, 8.4198%)" offset="0.148438"/><stop stop-opacity="1" stop-color="rgb(51.550293%, 3.927612%, 8.587646%)" offset="0.152344"/><stop stop-opacity="1" stop-color="rgb(51.397705%, 3.97644%, 8.753967%)" offset="0.15625"/><stop stop-opacity="1" stop-color="rgb(51.243591%, 4.025269%, 8.920288%)" offset="0.160156"/><stop stop-opacity="1" stop-color="rgb(51.091003%, 4.074097%, 9.088135%)" offset="0.164062"/><stop stop-opacity="1" stop-color="rgb(50.938416%, 4.122925%, 9.254456%)" offset="0.167969"/><stop stop-opacity="1" stop-color="rgb(50.784302%, 4.171753%, 9.420776%)" offset="0.171875"/><stop stop-opacity="1" stop-color="rgb(50.631714%, 4.220581%, 9.588623%)" offset="0.175781"/><stop stop-opacity="1" stop-color="rgb(50.479126%, 4.269409%, 9.754944%)" offset="0.179688"/><stop stop-opacity="1" stop-color="rgb(50.325012%, 4.318237%, 9.921265%)" offset="0.183594"/><stop stop-opacity="1" stop-color="rgb(50.172424%, 4.367065%, 10.089111%)" offset="0.1875"/><stop stop-opacity="1" stop-color="rgb(50.019836%, 4.415894%, 10.255432%)" offset="0.191406"/><stop stop-opacity="1" stop-color="rgb(49.865723%, 4.464722%, 10.421753%)" offset="0.195312"/><stop stop-opacity="1" stop-color="rgb(49.713135%, 4.51355%, 10.588074%)" offset="0.199219"/><stop stop-opacity="1" stop-color="rgb(49.560547%, 4.562378%, 10.75592%)" offset="0.203125"/><stop stop-opacity="1" stop-color="rgb(49.406433%, 4.611206%, 10.922241%)" offset="0.207031"/><stop stop-opacity="1" stop-color="rgb(49.253845%, 4.660034%, 11.088562%)" offset="0.210938"/><stop stop-opacity="1" stop-color="rgb(49.101257%, 4.708862%, 11.256409%)" offset="0.214844"/><stop stop-opacity="1" stop-color="rgb(48.947144%, 4.75769%, 11.422729%)" offset="0.21875"/><stop stop-opacity="1" stop-color="rgb(48.794556%, 4.806519%, 11.58905%)" offset="0.222656"/><stop stop-opacity="1" stop-color="rgb(48.640442%, 4.855347%, 11.756897%)" offset="0.226562"/><stop stop-opacity="1" stop-color="rgb(48.487854%, 4.904175%, 11.923218%)" offset="0.230469"/><stop stop-opacity="1" stop-color="rgb(48.335266%, 4.953003%, 12.089539%)" offset="0.234375"/><stop stop-opacity="1" stop-color="rgb(48.181152%, 5.001831%, 12.257385%)" offset="0.238281"/><stop stop-opacity="1" stop-color="rgb(48.028564%, 5.050659%, 12.423706%)" offset="0.242188"/><stop stop-opacity="1" stop-color="rgb(47.875977%, 5.099487%, 12.590027%)" offset="0.246094"/><stop stop-opacity="1" stop-color="rgb(47.721863%, 5.148315%, 12.757874%)" offset="0.25"/><stop stop-opacity="1" stop-color="rgb(47.492981%, 5.221558%, 13.008118%)" offset="0.253906"/><stop stop-opacity="1" stop-color="rgb(47.186279%, 5.319214%, 13.340759%)" offset="0.261719"/><stop stop-opacity="1" stop-color="rgb(46.879578%, 5.41687%, 13.674927%)" offset="0.269531"/><stop stop-opacity="1" stop-color="rgb(46.574402%, 5.514526%, 14.007568%)" offset="0.277344"/><stop stop-opacity="1" stop-color="rgb(46.2677%, 5.612183%, 14.341736%)" offset="0.285156"/><stop stop-opacity="1" stop-color="rgb(45.960999%, 5.709839%, 14.675903%)" offset="0.292969"/><stop stop-opacity="1" stop-color="rgb(45.654297%, 5.807495%, 15.008545%)" offset="0.300781"/><stop stop-opacity="1" stop-color="rgb(45.349121%, 5.905151%, 15.342712%)" offset="0.308594"/><stop stop-opacity="1" stop-color="rgb(45.042419%, 6.002808%, 15.675354%)" offset="0.316406"/><stop stop-opacity="1" stop-color="rgb(44.735718%, 6.100464%, 16.009521%)" offset="0.324219"/><stop stop-opacity="1" stop-color="rgb(44.430542%, 6.19812%, 16.343689%)" offset="0.332031"/><stop stop-opacity="1" stop-color="rgb(44.12384%, 6.295776%, 16.676331%)" offset="0.339844"/><stop stop-opacity="1" stop-color="rgb(43.817139%, 6.393433%, 17.010498%)" offset="0.347656"/><stop stop-opacity="1" stop-color="rgb(43.511963%, 6.491089%, 17.344666%)" offset="0.355469"/><stop stop-opacity="1" stop-color="rgb(43.205261%, 6.588745%, 17.677307%)" offset="0.363281"/><stop stop-opacity="1" stop-color="rgb(42.89856%, 6.686401%, 18.011475%)" offset="0.371094"/><stop stop-opacity="1" stop-color="rgb(42.591858%, 6.784058%, 18.344116%)" offset="0.378906"/><stop stop-opacity="1" stop-color="rgb(42.286682%, 6.881714%, 18.678284%)" offset="0.386719"/><stop stop-opacity="1" stop-color="rgb(41.97998%, 6.97937%, 19.012451%)" offset="0.394531"/><stop stop-opacity="1" stop-color="rgb(41.673279%, 7.077026%, 19.345093%)" offset="0.402344"/><stop stop-opacity="1" stop-color="rgb(41.368103%, 7.174683%, 19.67926%)" offset="0.410156"/><stop stop-opacity="1" stop-color="rgb(41.061401%, 7.272339%, 20.013428%)" offset="0.417969"/><stop stop-opacity="1" stop-color="rgb(40.7547%, 7.369995%, 20.346069%)" offset="0.425781"/><stop stop-opacity="1" stop-color="rgb(40.447998%, 7.467651%, 20.680237%)" offset="0.433594"/><stop stop-opacity="1" stop-color="rgb(40.142822%, 7.565308%, 21.012878%)" offset="0.441406"/><stop stop-opacity="1" stop-color="rgb(39.836121%, 7.662964%, 21.347046%)" offset="0.449219"/><stop stop-opacity="1" stop-color="rgb(39.529419%, 7.76062%, 21.681213%)" offset="0.457031"/><stop stop-opacity="1" stop-color="rgb(39.224243%, 7.858276%, 22.013855%)" offset="0.464844"/><stop stop-opacity="1" stop-color="rgb(38.917542%, 7.955933%, 22.348022%)" offset="0.472656"/><stop stop-opacity="1" stop-color="rgb(38.61084%, 8.053589%, 22.68219%)" offset="0.480469"/><stop stop-opacity="1" stop-color="rgb(38.305664%, 8.151245%, 23.014832%)" offset="0.488281"/><stop stop-opacity="1" stop-color="rgb(37.998962%, 8.248901%, 23.348999%)" offset="0.496094"/><stop stop-opacity="1" stop-color="rgb(37.768555%, 8.322144%, 23.599243%)" offset="0.503906"/><stop stop-opacity="1" stop-color="rgb(37.615967%, 8.370972%, 23.765564%)" offset="0.507812"/><stop stop-opacity="1" stop-color="rgb(37.463379%, 8.4198%, 23.931885%)" offset="0.511719"/><stop stop-opacity="1" stop-color="rgb(37.309265%, 8.468628%, 24.099731%)" offset="0.515625"/><stop stop-opacity="1" stop-color="rgb(37.156677%, 8.517456%, 24.266052%)" offset="0.519531"/><stop stop-opacity="1" stop-color="rgb(37.004089%, 8.566284%, 24.432373%)" offset="0.523438"/><stop stop-opacity="1" stop-color="rgb(36.849976%, 8.615112%, 24.60022%)" offset="0.527344"/><stop stop-opacity="1" stop-color="rgb(36.697388%, 8.66394%, 24.766541%)" offset="0.53125"/><stop stop-opacity="1" stop-color="rgb(36.5448%, 8.712769%, 24.932861%)" offset="0.535156"/><stop stop-opacity="1" stop-color="rgb(36.390686%, 8.761597%, 25.100708%)" offset="0.539062"/><stop stop-opacity="1" stop-color="rgb(36.238098%, 8.810425%, 25.267029%)" offset="0.542969"/><stop stop-opacity="1" stop-color="rgb(36.08551%, 8.859253%, 25.43335%)" offset="0.546875"/><stop stop-opacity="1" stop-color="rgb(35.931396%, 8.908081%, 25.601196%)" offset="0.550781"/><stop stop-opacity="1" stop-color="rgb(35.778809%, 8.956909%, 25.767517%)" offset="0.554688"/><stop stop-opacity="1" stop-color="rgb(35.626221%, 9.005737%, 25.933838%)" offset="0.558594"/><stop stop-opacity="1" stop-color="rgb(35.472107%, 9.054565%, 26.100159%)" offset="0.5625"/><stop stop-opacity="1" stop-color="rgb(35.319519%, 9.103394%, 26.268005%)" offset="0.566406"/><stop stop-opacity="1" stop-color="rgb(35.165405%, 9.152222%, 26.434326%)" offset="0.570312"/><stop stop-opacity="1" stop-color="rgb(35.012817%, 9.20105%, 26.600647%)" offset="0.574219"/><stop stop-opacity="1" stop-color="rgb(34.860229%, 9.249878%, 26.768494%)" offset="0.578125"/><stop stop-opacity="1" stop-color="rgb(34.706116%, 9.298706%, 26.934814%)" offset="0.582031"/><stop stop-opacity="1" stop-color="rgb(34.553528%, 9.347534%, 27.101135%)" offset="0.585938"/><stop stop-opacity="1" stop-color="rgb(34.40094%, 9.396362%, 27.268982%)" offset="0.589844"/><stop stop-opacity="1" stop-color="rgb(34.246826%, 9.44519%, 27.435303%)" offset="0.59375"/><stop stop-opacity="1" stop-color="rgb(34.094238%, 9.494019%, 27.601624%)" offset="0.597656"/><stop stop-opacity="1" stop-color="rgb(33.94165%, 9.542847%, 27.76947%)" offset="0.601562"/><stop stop-opacity="1" stop-color="rgb(33.787537%, 9.591675%, 27.935791%)" offset="0.605469"/><stop stop-opacity="1" stop-color="rgb(33.634949%, 9.640503%, 28.102112%)" offset="0.609375"/><stop stop-opacity="1" stop-color="rgb(33.482361%, 9.689331%, 28.269958%)" offset="0.613281"/><stop stop-opacity="1" stop-color="rgb(33.328247%, 9.738159%, 28.436279%)" offset="0.617188"/><stop stop-opacity="1" stop-color="rgb(33.175659%, 9.786987%, 28.6026%)" offset="0.621094"/><stop stop-opacity="1" stop-color="rgb(33.023071%, 9.835815%, 28.768921%)" offset="0.625"/><stop stop-opacity="1" stop-color="rgb(32.792664%, 9.909058%, 29.019165%)" offset="0.628906"/><stop stop-opacity="1" stop-color="rgb(32.485962%, 10.006714%, 29.353333%)" offset="0.636719"/><stop stop-opacity="1" stop-color="rgb(32.17926%, 10.10437%, 29.6875%)" offset="0.644531"/><stop stop-opacity="1" stop-color="rgb(31.874084%, 10.202026%, 30.020142%)" offset="0.652344"/><stop stop-opacity="1" stop-color="rgb(31.567383%, 10.299683%, 30.354309%)" offset="0.660156"/><stop stop-opacity="1" stop-color="rgb(31.260681%, 10.397339%, 30.688477%)" offset="0.667969"/><stop stop-opacity="1" stop-color="rgb(30.955505%, 10.494995%, 31.021118%)" offset="0.675781"/><stop stop-opacity="1" stop-color="rgb(30.648804%, 10.592651%, 31.355286%)" offset="0.683594"/><stop stop-opacity="1" stop-color="rgb(30.342102%, 10.690308%, 31.687927%)" offset="0.691406"/><stop stop-opacity="1" stop-color="rgb(30.036926%, 10.787964%, 32.022095%)" offset="0.699219"/><stop stop-opacity="1" stop-color="rgb(29.730225%, 10.88562%, 32.356262%)" offset="0.707031"/><stop stop-opacity="1" stop-color="rgb(29.423523%, 10.983276%, 32.688904%)" offset="0.714844"/><stop stop-opacity="1" stop-color="rgb(29.116821%, 11.080933%, 33.023071%)" offset="0.722656"/><stop stop-opacity="1" stop-color="rgb(28.811646%, 11.178589%, 33.357239%)" offset="0.730469"/><stop stop-opacity="1" stop-color="rgb(28.504944%, 11.276245%, 33.68988%)" offset="0.738281"/><stop stop-opacity="1" stop-color="rgb(28.198242%, 11.373901%, 34.024048%)" offset="0.746094"/><stop stop-opacity="1" stop-color="rgb(27.96936%, 11.447144%, 34.274292%)" offset="0.753906"/><stop stop-opacity="1" stop-color="rgb(27.816772%, 11.495972%, 34.440613%)" offset="0.757812"/><stop stop-opacity="1" stop-color="rgb(27.662659%, 11.5448%, 34.606934%)" offset="0.761719"/><stop stop-opacity="1" stop-color="rgb(27.510071%, 11.593628%, 34.77478%)" offset="0.765625"/><stop stop-opacity="1" stop-color="rgb(27.357483%, 11.642456%, 34.941101%)" offset="0.769531"/><stop stop-opacity="1" stop-color="rgb(27.203369%, 11.691284%, 35.107422%)" offset="0.773438"/><stop stop-opacity="1" stop-color="rgb(27.050781%, 11.740112%, 35.275269%)" offset="0.777344"/><stop stop-opacity="1" stop-color="rgb(26.896667%, 11.78894%, 35.441589%)" offset="0.78125"/><stop stop-opacity="1" stop-color="rgb(26.74408%, 11.837769%, 35.60791%)" offset="0.785156"/><stop stop-opacity="1" stop-color="rgb(26.591492%, 11.886597%, 35.775757%)" offset="0.789062"/><stop stop-opacity="1" stop-color="rgb(26.437378%, 11.935425%, 35.942078%)" offset="0.792969"/><stop stop-opacity="1" stop-color="rgb(26.28479%, 11.984253%, 36.108398%)" offset="0.796875"/><stop stop-opacity="1" stop-color="rgb(26.132202%, 12.033081%, 36.274719%)" offset="0.800781"/><stop stop-opacity="1" stop-color="rgb(25.978088%, 12.081909%, 36.442566%)" offset="0.804688"/><stop stop-opacity="1" stop-color="rgb(25.8255%, 12.130737%, 36.608887%)" offset="0.808594"/><stop stop-opacity="1" stop-color="rgb(25.672913%, 12.179565%, 36.775208%)" offset="0.8125"/><stop stop-opacity="1" stop-color="rgb(25.442505%, 12.252808%, 37.025452%)" offset="0.816406"/><stop stop-opacity="1" stop-color="rgb(25.135803%, 12.350464%, 37.359619%)" offset="0.824219"/><stop stop-opacity="1" stop-color="rgb(24.830627%, 12.44812%, 37.693787%)" offset="0.832031"/><stop stop-opacity="1" stop-color="rgb(24.523926%, 12.545776%, 38.026428%)" offset="0.839844"/><stop stop-opacity="1" stop-color="rgb(24.217224%, 12.643433%, 38.360596%)" offset="0.847656"/><stop stop-opacity="1" stop-color="rgb(23.910522%, 12.741089%, 38.694763%)" offset="0.855469"/><stop stop-opacity="1" stop-color="rgb(23.605347%, 12.838745%, 39.027405%)" offset="0.863281"/><stop stop-opacity="1" stop-color="rgb(23.298645%, 12.936401%, 39.361572%)" offset="0.871094"/><stop stop-opacity="1" stop-color="rgb(23.069763%, 13.009644%, 39.611816%)" offset="0.878906"/><stop stop-opacity="1" stop-color="rgb(22.915649%, 13.058472%, 39.778137%)" offset="0.882812"/><stop stop-opacity="1" stop-color="rgb(22.763062%, 13.1073%, 39.944458%)" offset="0.886719"/><stop stop-opacity="1" stop-color="rgb(22.610474%, 13.156128%, 40.112305%)" offset="0.890625"/><stop stop-opacity="1" stop-color="rgb(22.45636%, 13.204956%, 40.278625%)" offset="0.894531"/><stop stop-opacity="1" stop-color="rgb(22.303772%, 13.253784%, 40.444946%)" offset="0.898438"/><stop stop-opacity="1" stop-color="rgb(22.151184%, 13.302612%, 40.612793%)" offset="0.902344"/><stop stop-opacity="1" stop-color="rgb(21.99707%, 13.35144%, 40.779114%)" offset="0.90625"/><stop stop-opacity="1" stop-color="rgb(21.768188%, 13.424683%, 41.029358%)" offset="0.910156"/><stop stop-opacity="1" stop-color="rgb(21.461487%, 13.522339%, 41.363525%)" offset="0.917969"/><stop stop-opacity="1" stop-color="rgb(21.154785%, 13.619995%, 41.696167%)" offset="0.925781"/><stop stop-opacity="1" stop-color="rgb(20.848083%, 13.717651%, 42.030334%)" offset="0.933594"/><stop stop-opacity="1" stop-color="rgb(20.619202%, 13.790894%, 42.280579%)" offset="0.941406"/><stop stop-opacity="1" stop-color="rgb(20.466614%, 13.839722%, 42.446899%)" offset="0.945312"/><stop stop-opacity="1" stop-color="rgb(20.3125%, 13.88855%, 42.61322%)" offset="0.949219"/><stop stop-opacity="1" stop-color="rgb(20.159912%, 13.937378%, 42.781067%)" offset="0.953125"/><stop stop-opacity="1" stop-color="rgb(19.929504%, 14.01062%, 43.031311%)" offset="0.957031"/><stop stop-opacity="1" stop-color="rgb(19.624329%, 14.108276%, 43.363953%)" offset="0.964844"/><stop stop-opacity="1" stop-color="rgb(19.393921%, 14.181519%, 43.614197%)" offset="0.972656"/><stop stop-opacity="1" stop-color="rgb(19.241333%, 14.230347%, 43.782043%)" offset="0.976562"/><stop stop-opacity="1" stop-color="rgb(19.010925%, 14.303589%, 44.032288%)" offset="0.980469"/><stop stop-opacity="1" stop-color="rgb(18.782043%, 14.376831%, 44.281006%)" offset="0.988281"/><stop stop-opacity="1" stop-color="rgb(18.551636%, 14.450073%, 44.53125%)" offset="0.992188"/><stop stop-opacity="1" stop-color="rgb(18.399048%, 14.498901%, 44.699097%)" offset="1"/></radialGradient></defs><g clip-path="url(#7b746744e1)"><rect x="-81" width="972" fill="#697a7a" y="-80.999999" height="971.999992" fill-opacity="1"/></g><path fill="#e38b5c" d="M 373.578125 584.308594 C 364.300781 578.109375 356.375 572.074219 349.800781 566.207031 L 417.59375 545.621094 C 427.453125 547.945312 437.375 556.3125 447.417969 570.75 C 458.109375 586.28125 466.339844 597.023438 472.117188 602.988281 C 476.570312 607.628906 479.917969 611.625 482.191406 614.972656 L 452.734375 651.621094 C 450.859375 646.449219 446.496094 639.953125 439.679688 632.09375 L 374.066406 584.738281 C 373.976562 584.558594 373.851562 584.34375 373.667969 584.09375 L 373.578125 584.308594 " fill-opacity="1" fill-rule="evenodd"/><path fill="#fefffe" d="M 482.085938 606.660156 L 484.417969 608.648438 C 482.023438 620.8125 472.464844 633.824219 455.75 647.699219 C 455.226562 647.796875 454.765625 647.980469 454.304688 648.261719 C 452.859375 649.074219 451.539062 650.398438 450.433594 652.242188 L 418.101562 623.417969 C 418.074219 623.417969 418.011719 623.464844 417.980469 623.566406 C 414.292969 622.984375 412.480469 621.476562 412.570312 619.023438 C 413.339844 618.261719 414.109375 617.484375 414.90625 616.671875 C 429.195312 605.46875 439.367188 590.53125 445.359375 571.886719 C 448.679688 572.878906 451.292969 575.113281 453.195312 578.628906 L 482.082031 606.660156 " fill-opacity="1" fill-rule="evenodd"/><path fill="#5c5d5c" d="M 486.898438 610.8125 L 484.347656 608.671875 L 482.011719 606.6875 C 484.902344 605.273438 486.070312 604.863281 485.484375 605.492188 C 485.546875 605.574219 485.578125 605.574219 485.640625 605.492188 C 486.625 605.246094 487.054688 607.015625 486.898438 610.8125 " fill-opacity="1" fill-rule="evenodd"/><path fill="#d8d9d8" d="M 451.929688 654.617188 L 450.316406 652.28125 C 451.433594 650.441406 452.738281 649.117188 454.199219 648.304688 C 454.632812 648.019531 455.097656 647.839844 455.625 647.742188 C 472.355469 633.867188 481.917969 620.855469 484.308594 608.691406 L 486.855469 610.828125 C 484.464844 622.996094 475.863281 635.0625 461.121094 647.027344 C 460.777344 647.261719 460.46875 647.476562 460.1875 647.671875 L 460.3125 647.871094 Z M 455.347656 660.453125 L 455.128906 659.589844 L 452.988281 656.195312 L 460.683594 649.796875 L 461.894531 655.117188 Z M 456.898438 668.609375 L 455.78125 662.507812 L 462.394531 657.1875 L 463.664062 663.785156 Z M 500.234375 613.097656 L 502.125 614.65625 C 493.839844 631.132812 497.75 646.730469 513.859375 661.445312 L 528.046875 634.894531 L 535.28125 639.933594 C 516.3125 679.878906 499.425781 707.011719 484.679688 721.347656 C 469.964844 735.453125 462.578125 738.171875 462.515625 729.519531 C 469.003906 727.433594 478.441406 717.71875 490.828125 700.347656 C 473.941406 686.859375 461.863281 682.8125 454.570312 688.199219 C 454.664062 687.917969 454.785156 687.636719 454.910156 687.355469 C 462.113281 680.773438 474.53125 684.550781 492.132812 698.707031 L 512.496094 663.785156 C 494.054688 647.871094 489.957031 630.980469 500.234375 613.097656 Z M 456.898438 670.167969 L 463.945312 665.128906 C 464.566406 674.261719 462.269531 678.953125 457.054688 679.179688 L 457.269531 678.683594 L 456.898438 670.167969 " fill-opacity="1" fill-rule="evenodd"/><path fill="#fdfffd" d="M 502.273438 614.605469 L 528.1875 634.84375 L 513.992188 661.394531 C 497.902344 646.679688 493.964844 631.078125 502.273438 614.605469 Z M 454.722656 688.148438 C 461.976562 682.761719 474.09375 686.804688 490.988281 700.300781 C 478.589844 717.671875 469.136719 727.382812 462.65625 729.472656 C 448.707031 723.886719 446.042969 710.109375 454.722656 688.148438 Z M 500.351562 613.046875 C 490.089844 630.929688 494.183594 647.820312 512.628906 663.734375 L 492.261719 698.660156 C 474.652344 684.503906 462.253906 680.722656 455.0625 687.304688 L 457.199219 679.132812 C 462.410156 678.902344 464.703125 674.210938 464.082031 665.074219 L 457.046875 670.117188 L 456.984375 668.625 L 457.046875 668.558594 L 463.804688 663.734375 L 462.5 657.136719 L 455.898438 662.457031 L 455.496094 660.402344 L 462.003906 655.066406 L 460.796875 649.742188 L 453.140625 656.140625 L 452.085938 654.566406 L 460.457031 647.820312 L 460.300781 647.625 C 460.578125 647.421875 460.921875 647.207031 461.230469 646.976562 C 476.015625 635.011719 484.605469 622.941406 486.992188 610.777344 C 487.144531 606.980469 486.710938 605.207031 485.71875 605.457031 C 488.105469 604.742188 492.972656 607.277344 500.351562 613.046875 " fill-opacity="1" fill-rule="evenodd"/><path fill="#f89865" d="M 511.890625 546.617188 C 512.957031 546.382812 513.957031 546.117188 514.867188 545.835938 C 516.089844 551.9375 518.71875 558.054688 522.730469 564.152344 C 527.273438 570.867188 535.042969 580 546.007812 591.550781 C 551.242188 597.902344 555 607 557.382812 618.882812 C 559.605469 630.71875 560.765625 638.839844 560.859375 643.234375 C 560.953125 647.589844 562.332031 655.449219 564.964844 666.800781 C 567.53125 678.070312 573.296875 691.480469 582.289062 707.0625 C 569.414062 711.074219 561.421875 713.828125 558.289062 715.285156 C 555.15625 716.707031 551.835938 717.375 548.296875 717.273438 L 538.925781 718.269531 C 538.550781 716.992188 538.144531 715.699219 537.707031 714.371094 C 534.574219 704.660156 523.511719 685.183594 504.496094 655.945312 C 485.382812 626.640625 474.011719 609.269531 470.40625 603.835938 C 469.214844 602.128906 468.183594 600.550781 467.210938 599.074219 L 458.40625 585.667969 C 458.375 585.519531 458.28125 585.402344 458.21875 585.304688 C 457.9375 584.839844 457.625 584.355469 457.28125 583.894531 L 451.734375 575.574219 C 446.4375 561.234375 446.878906 548.835938 453.019531 538.378906 L 511.890625 546.617188 " fill-opacity="1" fill-rule="evenodd"/><path fill="#b02222" d="M 432.453125 321.070312 L 432.667969 321.351562 C 433.035156 322.761719 433.648438 323.921875 434.507812 324.832031 C 434.96875 325.246094 435.828125 326.125 437.058594 327.453125 L 436.84375 327.382812 C 431.59375 322.875 425.511719 318.535156 418.601562 314.324219 C 416.332031 312.996094 413.875 311.675781 411.296875 310.347656 C 408.007812 308.539062 404.632812 306.851562 401.070312 305.226562 C 396.433594 303.152344 385.871094 300.21875 369.410156 296.425781 C 355.960938 266.242188 363.117188 238.496094 390.84375 213.234375 C 407.179688 221.324219 415.6875 225.683594 416.421875 226.292969 C 432.113281 235.894531 443.78125 243.054688 451.398438 247.726562 C 452.289062 248.289062 453.085938 248.820312 453.730469 249.285156 C 455.175781 250.097656 456.433594 250.941406 457.570312 251.855469 C 457.878906 251.902344 458.121094 252.019531 458.367188 252.203125 C 458.675781 252.304688 458.859375 252.367188 458.921875 252.417969 C 458.984375 252.550781 459.042969 252.632812 459.136719 252.632812 C 459.964844 253.148438 460.519531 253.625 460.855469 254.042969 L 460.980469 254.042969 C 463.496094 255.617188 465.769531 257.109375 467.796875 258.519531 C 471.632812 260.9375 475.074219 262.824219 478.175781 264.203125 L 480.570312 266.753906 C 476.453125 265.148438 472.523438 265.097656 468.777344 266.605469 C 465.0625 268.128906 461.5625 269.953125 458.367188 272.074219 C 456.433594 273.734375 454.316406 275.65625 452.042969 277.828125 C 450.140625 279.582031 448.144531 281.574219 446.085938 283.792969 C 441.019531 289.5625 437.273438 295.082031 434.847656 300.335938 C 433.742188 302.753906 432.914062 305.257812 432.359375 307.859375 C 431.960938 309.136719 431.746094 310.445312 431.746094 311.773438 C 431.5 315.070312 431.746094 318.167969 432.453125 321.070312 " fill-opacity="1" fill-rule="evenodd"/><path fill="#911c1c" d="M 432.511719 321.035156 C 434.539062 322.117188 436.9375 323.472656 439.671875 325.082031 C 440.625 325.695312 441.636719 326.308594 442.683594 326.921875 C 440.839844 327.203125 438.964844 327.371094 437.121094 327.417969 C 435.894531 326.09375 435.03125 325.214844 434.570312 324.800781 C 433.710938 323.886719 433.097656 322.726562 432.726562 321.320312 Z M 482.503906 285.105469 C 481.582031 284.589844 480.566406 284.027344 479.371094 283.414062 C 476.390625 281.554688 473.316406 279.714844 470.152344 277.878906 C 465.449219 275.589844 461.546875 273.648438 458.445312 272.042969 C 461.640625 269.917969 465.113281 268.097656 468.863281 266.574219 C 472.609375 265.066406 476.542969 265.113281 480.628906 266.722656 C 480.78125 266.820312 480.96875 266.953125 481.152344 267.152344 C 481.890625 268.097656 482.378906 268.976562 482.566406 269.773438 C 483.609375 272.902344 483.578125 278.007812 482.503906 285.105469 " fill-opacity="1" fill-rule="evenodd"/><path fill="#f89865" d="M 442.777344 326.871094 C 441.726562 326.253906 440.738281 325.640625 439.8125 325.027344 C 437.0625 323.421875 434.652344 322.0625 432.644531 320.984375 C 431.933594 318.085938 431.6875 314.984375 431.933594 311.6875 C 431.933594 310.359375 432.148438 309.050781 432.550781 307.773438 C 433.078125 305.167969 433.910156 302.667969 435.054688 300.246094 C 437.464844 294.996094 441.203125 289.472656 446.269531 283.707031 C 448.339844 281.488281 450.316406 279.496094 452.234375 277.738281 C 454.519531 275.566406 456.621094 273.644531 458.535156 271.988281 C 461.65625 273.59375 465.582031 275.535156 470.277344 277.820312 C 473.429688 279.660156 476.488281 281.503906 479.484375 283.359375 C 480.691406 283.972656 481.710938 284.535156 482.605469 285.050781 C 486.683594 287.652344 490.546875 290.253906 494.191406 292.855469 C 498.300781 296.75 502.351562 300.578125 506.304688 304.359375 C 507.261719 305.121094 508.28125 306.132812 509.394531 307.410156 C 509.394531 307.460938 509.457031 307.507812 509.582031 307.558594 C 511.773438 308.652344 510.445312 313.144531 505.59375 321.050781 C 505.191406 321.710938 504.699219 322.441406 504.140625 323.253906 C 496.726562 334.941406 489.464844 341.191406 482.328125 341.984375 C 481.09375 342.136719 478.589844 341.902344 474.820312 341.269531 C 471.296875 340.660156 469.535156 340.359375 469.476562 340.359375 C 469.226562 340.359375 468.949219 340.328125 468.640625 340.292969 C 467.34375 339.664062 466.074219 339.003906 464.808594 338.304688 C 450.75 330.964844 443.398438 327.152344 442.777344 326.871094 " fill-opacity="1" fill-rule="evenodd"/><path fill="#f7d62f" d="M 381.078125 218.394531 C 380.746094 218.195312 380.445312 218.03125 380.203125 217.894531 C 380.445312 218.011719 380.746094 218.160156 381.078125 218.328125 L 381.078125 218.394531 " fill-opacity="1" fill-rule="evenodd"/><path fill="#666666" d="M 428.390625 480.253906 L 428.90625 480.035156 C 429.847656 479.65625 430.792969 479.304688 431.734375 478.976562 L 431.097656 479.6875 C 430.183594 479.867188 429.300781 480.070312 428.390625 480.25 " fill-opacity="1" fill-rule="evenodd"/><path stroke-linecap="butt" transform="matrix(0.300964, 0, 0, -0.300961, -4524.628809, 2571.667163)" fill="none" stroke-linejoin="miter" d="M 16300.002054 7819.427859 L 16300.002054 7819.207212 " stroke="#000000" stroke-width="0.551" stroke-opacity="1" stroke-miterlimit="10"/><path fill="#f89865" d="M 493.207031 306.617188 C 494.628906 306.484375 496.238281 306.402344 498.03125 306.402344 C 501.15625 306.550781 504.742188 306.832031 508.761719 307.261719 C 509.042969 307.394531 509.289062 307.445312 509.472656 307.394531 C 511.609375 309.765625 513.371094 313.976562 514.792969 320.042969 C 514.949219 320.605469 515.039062 321.171875 515.070312 321.734375 C 516.03125 330.253906 515.660156 337.910156 514.019531 344.675781 C 510.835938 354.800781 505.453125 365.261719 497.847656 376.050781 C 493.054688 382.761719 489.652344 387.554688 487.609375 390.386719 C 484.613281 394.828125 482.136719 400.398438 480.160156 407.078125 C 479.632812 407.078125 478.734375 407.042969 477.46875 406.996094 C 475.273438 406.8125 473.726562 406.714844 472.828125 406.714844 C 472.765625 406.613281 472.613281 406.546875 472.425781 406.496094 C 471.777344 406.417969 471.222656 406.363281 470.726562 406.363281 C 469.769531 406.265625 468.902344 406.082031 468.066406 405.785156 C 467.140625 405.753906 465.5625 405.171875 463.335938 404.09375 C 460.921875 403.148438 459.128906 402.171875 458.015625 401.179688 C 456.6875 400.230469 455.574219 399.421875 454.738281 398.757812 C 453.65625 398.011719 452.605469 397.082031 451.617188 395.988281 C 451.027344 395.425781 450.285156 394.597656 449.359375 393.519531 C 448.585938 392.707031 447.285156 391.265625 445.429688 389.175781 C 445.617188 388.996094 445.800781 388.832031 445.925781 388.679688 C 448.925781 385.464844 451.058594 381.601562 452.390625 377.109375 C 454.152344 371.425781 455.015625 366.203125 455.015625 361.429688 C 455.015625 357.535156 454.707031 352.925781 454.121094 347.574219 C 454.121094 346.066406 454.121094 344.675781 454.121094 343.398438 C 454.121094 342.785156 454.027344 342.152344 453.902344 341.542969 C 453.902344 340.875 453.875 340.199219 453.8125 339.484375 C 455.296875 328.261719 462.5 319.296875 475.457031 312.585938 C 482.292969 309.121094 488.199219 307.132812 493.207031 306.617188 " fill-opacity="1" fill-rule="evenodd"/><path fill="#f89865" d="M 473.433594 445.136719 C 471.585938 445.003906 469.1875 445.386719 466.203125 446.28125 C 469.1875 445.386719 471.585938 445.003906 473.433594 445.136719 Z M 472.511719 393.671875 C 473.308594 394.617188 474.511719 397.054688 476.140625 400.984375 C 477.648438 404.910156 476.417969 412.023438 472.511719 422.28125 C 467.738281 429.757812 463.277344 435.824219 459.152344 440.464844 C 463.277344 435.824219 467.738281 429.757812 472.511719 422.28125 C 476.417969 412.023438 477.648438 404.910156 476.140625 400.984375 C 474.511719 397.054688 473.308594 394.617188 472.511719 393.671875 Z M 455.460938 444.574219 C 455.429688 444.574219 455.308594 444.59375 455.121094 444.640625 L 455.246094 444.640625 C 447.582031 448.339844 443.734375 445.800781 443.675781 437.050781 C 443.765625 436.007812 443.980469 435.042969 444.320312 434.132812 C 444.84375 432.722656 445.460938 431.347656 446.167969 430.019531 C 446.597656 429.078125 447.089844 427.984375 447.644531 426.757812 C 450.015625 422.78125 450.566406 419.300781 449.304688 416.3125 C 448.445312 414.472656 447.613281 413.316406 446.8125 412.851562 C 447.613281 413.316406 448.445312 414.472656 449.304688 416.3125 C 450.566406 419.300781 450.015625 422.78125 447.644531 426.757812 C 447.089844 427.984375 446.597656 429.078125 446.167969 430.019531 C 445.460938 431.347656 444.84375 432.722656 444.320312 434.132812 C 443.980469 435.042969 443.765625 436.007812 443.675781 437.050781 C 443.734375 445.800781 447.582031 448.339844 455.246094 444.640625 C 455.335938 444.640625 455.429688 444.625 455.460938 444.574219 Z M 462.355469 452.730469 C 462.476562 452.695312 462.664062 452.613281 462.847656 452.53125 L 463.0625 452.382812 C 464.355469 451.769531 465.1875 450.9375 465.617188 449.894531 L 466.046875 448.339844 C 466.140625 447.574219 466.203125 446.894531 466.203125 446.28125 C 465.957031 443.015625 463.617188 441.078125 459.152344 440.464844 C 457.984375 441.871094 456.84375 443.148438 455.832031 444.292969 C 455.738281 444.34375 455.613281 444.425781 455.460938 444.574219 C 455.613281 444.425781 455.738281 444.34375 455.832031 444.292969 C 456.84375 443.148438 457.984375 441.871094 459.152344 440.464844 C 463.617188 441.078125 465.953125 443.015625 466.203125 446.28125 C 466.203125 446.894531 466.140625 447.574219 466.046875 448.339844 L 465.617188 449.894531 C 465.1875 450.9375 464.355469 451.769531 463.0625 452.382812 Z M 474.265625 445.289062 L 479.894531 437.894531 C 484.914062 436.386719 487.222656 439.46875 486.757812 447.128906 C 486.757812 447.277344 486.820312 447.457031 486.851562 447.691406 C 485.835938 452.863281 483.496094 457.039062 479.742188 460.253906 C 478.480469 461.25 477.066406 462.175781 475.558594 463.039062 C 471.894531 464.214844 469.03125 463.699219 466.910156 461.464844 C 470.539062 459.441406 473.648438 456.410156 476.203125 452.382812 C 477.804688 448.171875 477.15625 445.800781 474.265625 445.289062 C 477.15625 445.800781 477.804688 448.171875 476.203125 452.382812 C 473.648438 456.410156 470.539062 459.441406 466.910156 461.464844 C 464.355469 463.074219 461.554688 464.066406 458.507812 464.449219 C 457.523438 464.546875 456.570312 464.648438 455.675781 464.730469 C 451.089844 464.265625 447.984375 461.496094 446.320312 456.425781 C 450.199219 457.140625 455.523438 455.910156 462.355469 452.730469 C 455.523438 455.910156 450.199219 457.140625 446.320312 456.425781 C 445.089844 456.292969 443.980469 455.910156 443.058594 455.300781 C 442.226562 454.769531 441.550781 454.105469 440.964844 453.3125 C 438.195312 450.660156 434.441406 444.675781 429.765625 435.34375 L 427.210938 430.734375 L 427.148438 430.671875 C 423.792969 423.757812 423.300781 418.453125 425.730469 414.757812 C 428.070312 410.976562 432.933594 404.792969 440.289062 396.226562 C 446.226562 389.316406 450.535156 383.480469 453.183594 378.691406 C 465.464844 378.890625 476.113281 382.453125 485.160156 389.414062 C 491.714844 404.792969 490.976562 415.769531 482.851562 422.347656 C 482.296875 422.960938 481.742188 423.507812 481.25 423.988281 C 475.617188 430.902344 473.003906 437.945312 473.433594 445.136719 C 473.773438 445.136719 474.050781 445.1875 474.265625 445.289062 " fill-opacity="1" fill-rule="evenodd"/><path stroke-linecap="butt" transform="matrix(0.306906, 0, 0, -0.306903, -4524.628809, 2571.667163)" fill="none" stroke-linejoin="miter" d="M 16264.497755 6875.981468 C 16276.296471 6882.57456 16286.402383 6892.45147 16294.802763 6905.574014 C 16299.995725 6919.294773 16297.89563 6927.007927 16288.502478 6928.68802 C 16287.700623 6929.00622 16286.796946 6929.184411 16285.702351 6929.184411 C 16279.694806 6929.604435 16271.905363 6928.357093 16262.104919 6925.455114 M 16226.505126 6930.800864 L 16226.097835 6930.800864 C 16226.696044 6930.966328 16227.001512 6931.004512 16227.205157 6931.004512 M 16249.695266 6904.441224 C 16250.102558 6904.555776 16250.598944 6904.823063 16251.298975 6905.090351 L 16251.999007 6905.574014 M 16282.698579 7096.875508 C 16285.396883 7093.795338 16289.304332 7085.85308 16294.497295 7073.048735 C 16299.499339 7060.24439 16295.502795 7037.079472 16282.698579 7003.655805 C 16267.196059 6979.294457 16252.597216 6959.527909 16239.194791 6944.407072 M 16197.396535 6892.400558 C 16209.997106 6890.071338 16227.396075 6894.067923 16249.695266 6904.441224 L 16251.999007 6905.574014 C 16256.097374 6907.572306 16258.897501 6910.270638 16260.297565 6913.669007 L 16261.697628 6918.74747 C 16262.003096 6921.242154 16262.104919 6923.456822 16262.104919 6925.455114 C 16261.404887 6936.095703 16253.704539 6942.408779 16239.194791 6944.407072 C 16235.401892 6939.825 16231.698088 6935.650224 16228.401575 6931.933654 C 16228.096107 6931.768191 16227.701544 6931.500903 16227.205157 6931.004512 C 16227.001512 6930.851776 16226.797866 6930.800864 16226.505126 6930.800864 C 16201.494903 6918.74747 16188.996155 6927.007927 16188.805237 6955.531324 C 16189.097978 6958.929694 16189.79801 6962.073504 16190.905332 6965.039123 C 16192.598136 6969.633922 16194.596409 6974.11417 16196.900149 6978.428954 C 16198.300213 6981.509125 16199.903922 6985.072958 16201.800371 6989.069543 C 16209.50072 7002.026624 16211.295346 7013.367251 16207.095156 7023.104154 C 16204.295029 7029.086303 16201.596726 7032.866512 16199.000244 7034.381141 M 16134.902797 6976.31611 L 16135.195538 6976.112463 " stroke="#954e40" stroke-width="0.54" stroke-opacity="1" stroke-miterlimit="10"/><path fill="#e38b5c" d="M 376.617188 576.082031 C 376.554688 576 376.464844 575.917969 376.402344 575.886719 C 376.34375 575.835938 376.28125 575.800781 376.25 575.800781 L 376.097656 575.800781 C 376.097656 575.902344 376.128906 576.003906 376.25 576.085938 C 376.28125 576.136719 376.402344 576.183594 376.523438 576.234375 C 376.523438 576.332031 376.554688 576.382812 376.617188 576.382812 C 376.644531 576.414062 376.738281 576.449219 376.890625 576.449219 C 377.132812 576.449219 377.101562 576.351562 376.796875 576.167969 C 376.707031 576.167969 376.648438 576.136719 376.617188 576.085938 Z M 378.011719 575.386719 L 378.226562 575.589844 C 378.226562 575.457031 378.164062 575.339844 378.011719 575.238281 L 377.953125 575.238281 C 377.953125 575.339844 377.953125 575.386719 378.011719 575.386719 Z M 377.164062 575.800781 C 377.222656 575.902344 377.285156 576 377.4375 576.082031 L 377.527344 576.082031 L 377.527344 575.953125 C 377.40625 575.902344 377.285156 575.800781 377.164062 575.671875 C 377.011719 575.570312 377.011719 575.472656 377.101562 575.386719 C 377.011719 575.386719 376.917969 575.386719 376.890625 575.386719 C 376.917969 575.523438 377.011719 575.671875 377.164062 575.800781 Z M 381.265625 575.089844 C 381.140625 575.058594 381.050781 575.007812 381.050781 574.957031 C 380.992188 574.957031 380.898438 574.957031 380.867188 574.957031 C 381.050781 575.058594 381.203125 575.171875 381.355469 575.304688 C 381.71875 575.554688 381.8125 575.570312 381.628906 575.386719 C 381.507812 575.289062 381.386719 575.191406 381.265625 575.089844 Z M 380.929688 575.671875 C 380.839844 575.570312 380.71875 575.457031 380.566406 575.304688 C 380.445312 575.257812 380.324219 575.140625 380.230469 574.957031 C 380.050781 574.957031 379.835938 574.976562 379.652344 575.023438 C 379.988281 575.207031 380.351562 575.421875 380.777344 575.671875 C 380.839844 575.753906 380.929688 575.835938 381.050781 575.886719 C 381.113281 575.886719 381.203125 575.902344 381.265625 575.953125 C 381.203125 575.851562 381.050781 575.753906 380.929688 575.671875 Z M 379.167969 575.238281 C 379.167969 575.140625 379.167969 575.074219 379.167969 575.023438 C 379.105469 575.023438 379.046875 575.058594 378.957031 575.089844 L 379.078125 575.089844 Z M 384.726562 574.957031 C 384.484375 574.957031 384.179688 574.957031 383.816406 574.957031 C 383.816406 575.007812 383.816406 575.058594 383.816406 575.089844 C 383.875 575.191406 383.875 575.257812 383.816406 575.304688 C 383.753906 575.355469 383.664062 575.457031 383.632812 575.589844 C 383.238281 575.40625 383.027344 575.40625 382.996094 575.589844 C 382.996094 575.785156 382.8125 575.953125 382.480469 576.082031 L 382.417969 576.234375 C 382.265625 576.234375 382.175781 576.234375 382.144531 576.234375 C 382.054688 576.234375 381.960938 576.285156 381.933594 576.382812 L 381.871094 576.449219 C 381.871094 576.535156 381.871094 576.617188 381.871094 576.664062 C 381.566406 576.847656 381.324219 576.832031 381.050781 576.582031 C 380.867188 576.351562 380.6875 576.234375 380.503906 576.234375 C 380.171875 576.332031 379.988281 576.398438 379.925781 576.449219 C 379.925781 576.683594 379.867188 576.75 379.714844 576.664062 C 379.105469 576.664062 378.894531 576.75 379.167969 576.945312 C 379.289062 577.046875 379.378906 577.128906 379.441406 577.230469 C 379.441406 577.277344 379.441406 577.328125 379.441406 577.359375 C 379.53125 577.359375 379.5625 577.410156 379.5625 577.507812 C 379.5625 577.5625 379.53125 577.574219 379.441406 577.574219 C 379.441406 577.628906 379.441406 577.695312 379.441406 577.792969 C 379.378906 577.84375 379.320312 577.859375 379.226562 577.859375 C 379.167969 577.859375 379.167969 577.84375 379.167969 577.792969 C 379.105469 577.695312 379.046875 577.660156 378.953125 577.660156 L 378.863281 577.574219 C 378.832031 577.574219 378.742188 577.574219 378.652344 577.574219 C 378.558594 577.628906 378.4375 577.660156 378.285156 577.660156 C 378.257812 577.609375 378.226562 577.5625 378.226562 577.507812 C 378.132812 577.507812 378.074219 577.460938 378.074219 577.359375 C 378.074219 577.328125 378.074219 577.292969 378.011719 577.292969 C 377.953125 577.246094 377.953125 577.179688 377.953125 577.082031 C 377.800781 577.046875 377.710938 577.011719 377.679688 577.011719 C 377.558594 577.0625 377.464844 577.082031 377.375 577.082031 C 377.222656 577.082031 377.101562 577.082031 376.949219 577.082031 L 376.890625 577.082031 C 377.011719 577.742188 376.644531 577.824219 375.734375 577.292969 C 374.882812 576.832031 374.519531 576.832031 374.671875 577.292969 C 374.246094 577.628906 373.757812 577.507812 373.183594 576.945312 C 372.847656 576.699219 372.605469 576.449219 372.421875 576.167969 L 372.179688 576.167969 C 372.089844 576.167969 371.996094 576.167969 371.90625 576.167969 C 371.875 576.167969 371.753906 576.183594 371.632812 576.234375 C 371.542969 576.234375 371.359375 576.21875 371.148438 576.167969 C 368.867188 576.117188 365.648438 575.902344 361.457031 575.523438 C 360.515625 574.855469 359.480469 574.078125 358.359375 573.1875 C 353.769531 569.71875 350.640625 567.035156 348.96875 565.097656 C 348.242188 564.085938 347.542969 563.105469 346.90625 562.113281 C 346.632812 561.632812 346.328125 561.148438 346.085938 560.683594 C 346.023438 560.636719 345.992188 560.589844 345.992188 560.535156 C 345.902344 560.40625 345.839844 560.289062 345.78125 560.191406 L 345.78125 559.972656 L 345.566406 559.691406 C 345.539062 559.589844 345.445312 559.542969 345.355469 559.542969 L 345.355469 559.441406 C 345.292969 559.375 345.292969 559.3125 345.292969 559.261719 L 345.203125 559.128906 C 345.082031 558.878906 344.929688 558.632812 344.808594 558.347656 C 343.59375 555.117188 342.863281 552.28125 342.53125 549.832031 L 342.378906 549.832031 C 341.46875 543.050781 343.015625 535.84375 346.996094 528.164062 C 348.96875 524.289062 351.644531 520.242188 355.015625 516.03125 C 355.378906 515.550781 355.867188 515.054688 356.445312 514.539062 C 355.988281 515.15625 355.714844 515.753906 355.59375 516.316406 C 354.832031 518.734375 355.167969 520.011719 356.566406 520.144531 C 357.566406 520.144531 358.632812 520.175781 359.753906 520.226562 C 370.082031 520.839844 380.046875 522.066406 389.679688 523.90625 C 400.675781 526.144531 413.160156 529.742188 427.074219 534.695312 C 426.832031 535.078125 425.191406 539.570312 422.183594 548.1875 C 419.601562 555.101562 418.019531 559.589844 417.414062 561.679688 C 415.195312 562.957031 411.734375 565.179688 407.054688 568.363281 C 402.222656 571.476562 397.699219 573.25 393.414062 573.679688 C 389.253906 574.195312 386.640625 574.558594 385.546875 574.742188 C 385.363281 574.742188 385.152344 574.757812 384.910156 574.808594 C 384.816406 574.808594 384.757812 574.855469 384.757812 574.957031 L 384.726562 574.957031 " fill-opacity="1" fill-rule="evenodd"/><path fill="#e9cbb4" d="M 377.164062 575.804688 C 377.015625 575.671875 376.925781 575.519531 376.894531 575.386719 C 376.925781 575.386719 377.015625 575.386719 377.105469 575.386719 C 377.015625 575.472656 377.015625 575.570312 377.164062 575.671875 C 377.285156 575.804688 377.40625 575.902344 377.527344 575.953125 L 377.527344 576.085938 L 377.4375 576.085938 C 377.285156 576 377.226562 575.902344 377.164062 575.804688 Z M 378.007812 575.386719 C 377.949219 575.386719 377.949219 575.339844 377.949219 575.238281 L 378.007812 575.238281 C 378.160156 575.339844 378.21875 575.457031 378.21875 575.589844 Z M 376.59375 576.085938 C 376.441406 576.085938 376.351562 576.085938 376.230469 576.085938 C 376.140625 576 376.109375 575.902344 376.109375 575.804688 L 376.230469 575.804688 C 376.292969 575.804688 376.351562 575.835938 376.382812 575.886719 C 376.472656 575.921875 376.5625 576 376.59375 576.085938 Z M 381.292969 575.09375 C 381.382812 575.1875 381.503906 575.292969 381.652344 575.386719 C 381.832031 575.570312 381.714844 575.554688 381.351562 575.304688 C 381.203125 575.171875 381.050781 575.058594 380.871094 574.957031 C 380.898438 574.957031 380.992188 574.957031 381.050781 574.957031 C 381.050781 575.007812 381.140625 575.058594 381.292969 575.09375 Z M 379.152344 575.238281 L 379.0625 575.09375 L 378.941406 575.09375 C 379.03125 575.058594 379.09375 575.023438 379.152344 575.023438 C 379.152344 575.074219 379.152344 575.140625 379.152344 575.238281 Z M 380.929688 575.671875 L 380.78125 575.671875 C 380.359375 575.421875 379.996094 575.207031 379.664062 575.023438 C 379.847656 574.976562 380.027344 574.957031 380.207031 574.957031 C 380.328125 575.140625 380.417969 575.257812 380.570312 575.304688 C 380.71875 575.457031 380.839844 575.570312 380.929688 575.671875 Z M 384.726562 574.957031 C 384.453125 574.957031 384.152344 575.007812 383.820312 575.09375 C 383.820312 575.058594 383.820312 575.007812 383.820312 574.957031 C 384.183594 574.957031 384.484375 574.957031 384.726562 574.957031 Z M 348.972656 565.097656 C 348.222656 564.183594 347.589844 563.339844 347.078125 562.527344 C 347.015625 562.441406 346.957031 562.296875 346.925781 562.113281 C 347.558594 563.109375 348.25 564.085938 348.972656 565.097656 Z M 345.78125 560.191406 C 345.84375 560.289062 345.902344 560.40625 345.992188 560.539062 L 345.84375 560.46875 Z M 345.300781 559.261719 C 345.300781 559.308594 345.300781 559.375 345.359375 559.441406 L 345.300781 559.34375 L 345.300781 559.261719 " fill-opacity="1" fill-rule="evenodd"/><path fill="#008395" d="M 373.640625 422.894531 C 377.882812 425.246094 382.734375 428.710938 388.195312 433.253906 C 397.714844 441.257812 406.046875 445.605469 413.09375 446.316406 C 424.109375 447.460938 433.082031 455.5625 439.917969 470.664062 C 443.089844 477.425781 446.171875 486.757812 449.160156 498.644531 C 434.910156 522.777344 427.34375 538.839844 426.429688 546.84375 C 422.429688 546.792969 419.898438 546.859375 418.921875 547.058594 C 416.113281 547.621094 413.1875 548.019531 410.105469 548.25 C 402.964844 548.78125 395.03125 548.566406 386.332031 547.621094 C 374.675781 546.480469 364.484375 543.148438 355.726562 537.613281 C 354.722656 537 353.746094 536.332031 352.738281 535.621094 C 348.800781 532.738281 345.65625 529.917969 343.246094 527.167969 C 341.476562 524.816406 340.164062 522.460938 339.28125 520.140625 C 340.59375 516.3125 342.578125 511.007812 345.230469 504.246094 C 347.703125 497.894531 354.445312 478.953125 365.460938 447.375 C 366.132812 445.535156 368.847656 437.363281 373.640625 422.894531 " fill-opacity="1" fill-rule="evenodd"/><path fill="#00a5bb" d="M 528.792969 550.964844 C 528.792969 551.015625 528.792969 551.0625 528.792969 551.113281 L 528.917969 550.964844 Z M 529.289062 542.3125 C 528.949219 545.527344 528.824219 548.414062 528.917969 550.964844 C 528.980469 553.382812 529.257812 555.386719 529.789062 556.996094 C 529.910156 558.039062 530.035156 558.867188 530.128906 559.484375 C 508.394531 577.136719 474.988281 581.84375 429.816406 573.621094 L 429.597656 571.980469 C 412.304688 537.140625 397.089844 500.941406 384.019531 463.363281 L 511.964844 407.707031 C 528.296875 423.417969 536.089844 447.054688 535.40625 478.632812 C 535.25 497.378906 533.203125 518.589844 529.289062 542.3125 " fill-opacity="1" fill-rule="evenodd"/><path fill="#d92b2b" d="M 313.773438 300.78125 C 313.742188 300.398438 313.679688 300.019531 313.585938 299.636719 L 313.585938 299.359375 C 313.398438 298.613281 313.183594 297.867188 312.996094 297.152344 C 311.566406 291.199219 310.230469 285.617188 308.957031 280.410156 C 307.652344 275.207031 307.027344 271.011719 307.089844 267.847656 C 307.089844 264.25 307.246094 260.886719 307.527344 257.753906 C 308.769531 244.507812 311.503906 234.765625 315.761719 228.515625 C 336.707031 196.855469 363.183594 191.652344 395.222656 212.898438 C 396.839844 213.792969 399.976562 216.832031 404.640625 221.984375 C 404.761719 222.117188 404.855469 222.265625 404.949219 222.398438 C 405.507812 222.828125 412.5625 234.84375 426.113281 258.464844 C 426.859375 259.609375 427.574219 260.769531 428.226562 261.945312 C 428.972656 263.453125 429.839844 264.996094 430.773438 266.554688 C 432.484375 269.304688 434.191406 272.058594 435.902344 274.792969 C 437.019531 276.648438 438.230469 278.488281 439.445312 280.328125 C 440.21875 281.570312 440.996094 282.78125 441.773438 283.957031 C 447.898438 293.472656 454.546875 303.117188 461.820312 312.914062 C 463.558594 315.46875 465.390625 317.953125 467.351562 320.375 C 468.46875 322.03125 469.648438 323.6875 470.894531 325.347656 C 472.914062 328.046875 475.027344 330.765625 477.140625 333.5 C 477.355469 333.601562 477.605469 333.785156 477.855469 334.082031 C 481.769531 339.667969 486.867188 346.496094 493.113281 354.585938 C 504.144531 369.019531 511.601562 379.117188 515.546875 384.835938 C 523.535156 396.335938 530.09375 407.359375 535.21875 417.917969 C 537.394531 422.460938 539.230469 426.835938 540.75 431.042969 C 534.257812 430.25 527.636719 429.96875 520.863281 430.199219 C 516.761719 430.480469 512.472656 430.996094 508.027344 431.757812 C 491.371094 434.59375 474.777344 441.054688 458.246094 451.132812 C 443.046875 460.597656 425.054688 469.167969 404.234375 476.84375 C 397.335938 479.445312 390.933594 481.515625 385.058594 483.09375 L 313.773438 300.78125 " fill-opacity="1" fill-rule="evenodd"/><path fill="#eb6d2f" d="M 313.804688 300.773438 L 313.746094 300.492188 C 313.625 300.160156 313.597656 299.878906 313.597656 299.628906 C 313.683594 300.011719 313.746094 300.390625 313.804688 300.773438 " fill-opacity="1" fill-rule="evenodd"/><path fill="#f89865" d="M 347.972656 181.007812 C 349.769531 187.339844 353.09375 191.984375 357.976562 194.917969 C 356.691406 198.746094 354.832031 202.605469 352.375 206.484375 C 352.167969 206.667969 352.015625 206.851562 351.867188 206.980469 C 351.6875 207.363281 351.507812 207.695312 351.386719 207.976562 C 348.78125 211.574219 345.636719 215.269531 342.011719 219.050781 C 332.304688 228.996094 324.546875 235.925781 318.796875 239.851562 C 314.902344 242.023438 312.238281 243.960938 310.769531 245.667969 C 307.832031 240.464844 304.75 235.808594 301.542969 231.699219 C 301.363281 231.546875 301.242188 231.429688 301.183594 231.332031 C 299.117188 228.449219 296.871094 225.945312 294.503906 223.808594 C 294.324219 223.574219 294.054688 223.359375 293.726562 223.179688 C 293.636719 223.027344 293.546875 222.929688 293.457031 222.878906 C 293.457031 222.796875 293.425781 222.746094 293.394531 222.746094 C 292.226562 221.882812 290.519531 220.640625 288.273438 218.980469 L 346.355469 170.699219 C 346.535156 174.445312 347.074219 177.875 347.972656 181.007812 " fill-opacity="1" fill-rule="evenodd"/><path fill="#fadeca" d="M 315.148438 253.800781 C 317.886719 250.738281 319.582031 250.820312 320.175781 254.085938 C 317.617188 255.046875 315.683594 256.007812 314.375 257 C 314.550781 255.957031 314.820312 255.011719 315.148438 254.167969 Z M 320.265625 253.953125 C 322.289062 251.117188 324.34375 250.257812 326.367188 251.398438 C 324.820312 252.097656 323.332031 252.742188 321.960938 253.304688 C 321.398438 253.503906 320.832031 253.722656 320.265625 253.953125 " fill-opacity="1" fill-rule="evenodd"/><path stroke-linecap="butt" transform="matrix(0.297234, 0, 0, -0.297231, -4524.628809, 2571.667163)" fill="none" stroke-linejoin="miter" d="M 16280.094098 7787.457762 C 16280.803766 7790.96671 16281.697422 7794.147106 16282.801349 7796.985805 L 16282.801349 7798.221166 M 16300.004222 7797.721765 C 16299.79395 7797.721765 16299.701956 7797.550917 16299.701956 7797.274932 " stroke="#2b2b2b" stroke-width="0.558" stroke-opacity="1" stroke-miterlimit="10"/><path fill="#ff3333" d="M 297.515625 244.820312 C 300.765625 240.792969 302.808594 238.371094 303.621094 237.578125 C 304.496094 236.816406 305.488281 236.101562 306.539062 235.441406 C 333.3125 220.640625 350.550781 206.21875 358.21875 192.214844 C 366.34375 193.390625 373.171875 196.96875 378.644531 202.9375 C 373.019531 215.566406 362.101562 229.722656 345.917969 245.382812 C 345.40625 245.847656 344.894531 246.28125 344.441406 246.660156 L 344.234375 247.089844 C 337.3125 255.792969 330.96875 265.625 325.191406 276.546875 C 312.40625 248.582031 306.902344 244.011719 308.644531 262.835938 C 297.996094 254.800781 294.265625 248.78125 297.515625 244.820312 " fill-opacity="1" fill-rule="evenodd"/><path fill="#f89865" d="M 268.523438 368.40625 C 271.859375 369.21875 275.167969 369.679688 278.535156 369.832031 C 280.816406 369.882812 283.074219 369.929688 285.359375 369.980469 C 289.054688 369.730469 296.210938 368.4375 306.882812 366.070312 C 310.941406 365.40625 314.847656 364.859375 318.667969 364.429688 C 333.039062 362.917969 346.535156 364.476562 359.101562 369.117188 C 359.371094 369.117188 359.550781 369.183594 359.671875 369.335938 C 359.882812 369.433594 360.003906 369.546875 360.035156 369.679688 C 365.054688 376.082031 368.933594 382.609375 371.667969 389.273438 C 374.554688 396.101562 375.605469 401.023438 374.824219 404.042969 C 373.953125 407.023438 372.8125 409.160156 371.398438 410.4375 C 370.164062 411.566406 368.421875 412.976562 366.136719 414.632812 C 363.761719 416.324219 358.652344 418.644531 350.746094 421.578125 C 342.746094 424.460938 329.128906 423.929688 309.859375 419.953125 C 290.828125 415.828125 275.105469 412.3125 262.660156 409.378906 C 255.144531 407.523438 250.214844 406.410156 247.71875 406.027344 C 247.359375 405.699219 246.847656 405.234375 246.1875 404.621094 C 243.75 402.152344 243.179688 398.601562 244.414062 393.964844 C 249.644531 382.378906 253.851562 374.703125 257.039062 370.957031 C 257.640625 370.113281 258.660156 368.4375 260.074219 365.917969 C 264.765625 367.394531 267.589844 368.222656 268.523438 368.40625 " fill-opacity="1" fill-rule="evenodd"/><path fill="#f89865" d="M 361.660156 404.765625 L 361.601562 404.765625 C 353.339844 405.0625 345.289062 403.820312 337.449219 401.085938 C 329.640625 398.253906 324.210938 393.03125 321.195312 385.472656 L 326.230469 355.007812 L 329.21875 341.945312 C 333.648438 339.160156 338.988281 337.003906 345.167969 335.480469 C 353.761719 333.160156 362.386719 332.980469 371.101562 334.917969 C 377.671875 336.246094 384.125 338.019531 390.398438 340.238281 C 387.503906 346.867188 385.605469 353.730469 384.640625 360.824219 C 384.246094 364.371094 383.523438 367.851562 382.589844 371.269531 L 379.605469 383.050781 L 375.203125 404.851562 L 369.472656 403.636719 L 369.804688 402.363281 C 367.933594 404.484375 365.460938 405.296875 362.445312 404.765625 C 362.144531 404.765625 361.902344 404.765625 361.664062 404.765625 " fill-opacity="1" fill-rule="evenodd"/><path fill="#ebae89" d="M 361.566406 404.78125 L 361.625 404.78125 L 360.695312 405.359375 L 361.566406 404.78125 " fill-opacity="1" fill-rule="evenodd"/><path fill="#ff3333" d="M 329.65625 342.128906 L 329.65625 342.042969 C 329.597656 342.09375 329.535156 342.144531 329.507812 342.195312 C 329.445312 342.195312 329.386719 342.210938 329.355469 342.261719 C 328.660156 342.589844 327.992188 342.957031 327.359375 343.320312 C 326.78125 343.621094 326.269531 343.96875 325.8125 344.398438 C 325.570312 344.582031 325.300781 344.761719 324.964844 344.960938 C 324.90625 345.0625 324.84375 345.128906 324.816406 345.175781 C 324.421875 345.410156 324.027344 345.726562 323.605469 346.089844 C 323.785156 345.957031 323.96875 345.839844 324.179688 345.738281 C 323.089844 346.503906 322.394531 347.019531 322.089844 347.300781 C 322.058594 347.351562 322.03125 347.417969 321.96875 347.515625 L 321.910156 347.515625 C 321.816406 347.613281 321.695312 347.714844 321.605469 347.796875 C 321.757812 347.464844 321.847656 347.183594 321.910156 346.949219 C 322.03125 345.625 322.273438 344.234375 322.605469 342.757812 C 323.363281 338.828125 324.449219 334.4375 325.875 329.566406 L 325.875 329.351562 L 326.296875 324.507812 C 326.238281 324.757812 326.175781 325.039062 326.023438 325.371094 L 326.570312 322.320312 L 329.992188 276.457031 C 331.867188 275.03125 337.316406 270.988281 346.308594 264.308594 C 355.359375 257.59375 365.683594 253.386719 377.277344 251.679688 C 388.8125 249.921875 398.832031 251.066406 407.367188 255.089844 C 408.214844 257.363281 408.640625 260.230469 408.640625 263.679688 C 409.789062 273.574219 409.851562 286.269531 408.851562 301.800781 C 407.792969 317.3125 407.1875 325.335938 407.15625 325.867188 C 407.1875 326.480469 407.21875 327.078125 407.21875 327.644531 C 407.125 329.351562 407.035156 331.121094 406.945312 332.960938 C 406.792969 339.160156 406.734375 344.464844 406.734375 348.875 C 406.734375 348.957031 406.792969 349.058594 406.855469 349.15625 C 404.460938 348.109375 402.222656 347.183594 400.132812 346.386719 C 399.800781 346.238281 399.46875 346.089844 399.132812 345.957031 C 398.285156 345.523438 397.347656 345.144531 396.378906 344.8125 C 393.140625 343.6875 390.113281 342.625 387.269531 341.632812 C 387.085938 341.53125 386.933594 341.464844 386.785156 341.414062 C 386.449219 341.265625 386.085938 341.152344 385.722656 341.050781 C 385.300781 340.96875 384.875 340.867188 384.453125 340.769531 L 384.453125 340.835938 C 384.332031 340.800781 384.300781 340.71875 384.300781 340.636719 L 384.089844 340.636719 C 384.058594 340.585938 384 340.585938 383.9375 340.636719 C 381.726562 339.691406 379.609375 339.027344 377.640625 338.648438 C 375.402344 337.835938 373.3125 337.273438 371.3125 336.941406 C 365.742188 335.613281 360.355469 335.050781 355.179688 335.230469 C 353.90625 335.332031 352.605469 335.445312 351.304688 335.597656 L 347.609375 335.878906 C 341.675781 336.871094 336.046875 338.78125 330.71875 341.632812 C 330.414062 341.761719 330.171875 341.878906 329.992188 341.980469 C 329.902344 342.027344 329.78125 342.078125 329.71875 342.128906 L 329.660156 342.128906 " fill-opacity="1" fill-rule="evenodd"/><path fill="#b02222" d="M 321.554688 347.820312 C 321.644531 347.738281 321.738281 347.640625 321.859375 347.539062 L 321.917969 347.539062 C 321.980469 347.441406 322.007812 347.375 322.039062 347.324219 C 322.34375 347.042969 323.039062 346.53125 324.128906 345.765625 C 323.914062 345.863281 323.734375 345.980469 323.550781 346.117188 C 323.976562 345.75 324.371094 345.433594 324.761719 345.203125 C 324.792969 345.152344 324.851562 345.085938 324.914062 344.988281 C 325.214844 344.785156 325.519531 344.605469 325.730469 344.425781 C 326.214844 343.996094 326.730469 343.644531 327.304688 343.347656 C 327.9375 342.980469 328.605469 342.617188 329.300781 342.285156 C 329.332031 342.238281 329.390625 342.21875 329.453125 342.21875 C 329.480469 342.171875 329.542969 342.117188 329.601562 342.070312 L 329.601562 342.152344 L 327.09375 351.453125 C 323.523438 349.976562 321.648438 348.800781 321.496094 347.902344 Z M 386.722656 341.441406 C 386.875 341.488281 387.027344 341.554688 387.207031 341.65625 C 390.082031 342.652344 393.078125 343.710938 396.3125 344.839844 C 397.3125 345.167969 398.21875 345.550781 399.066406 345.980469 C 399.429688 346.117188 399.730469 346.261719 400.09375 346.410156 C 402.152344 347.207031 404.421875 348.136719 406.8125 349.179688 C 406.8125 349.214844 406.78125 349.3125 406.691406 349.460938 C 406.691406 350.128906 406.691406 350.789062 406.691406 351.453125 C 406.570312 352.449219 406.238281 353.125 405.691406 353.507812 C 404.785156 354.269531 403.757812 354.996094 402.636719 355.710938 C 401.488281 356.421875 398.976562 357.171875 395.101562 357.980469 C 392.652344 358.445312 389.871094 359.210938 386.722656 360.253906 C 385.363281 360.632812 384.394531 361.378906 383.878906 362.523438 L 386.722656 341.441406 " fill-opacity="1" fill-rule="evenodd"/><path fill="#987f05" d="M 385.695312 341.0625 C 386.058594 341.164062 386.421875 341.277344 386.75 341.425781 C 386.359375 341.378906 386.027344 341.3125 385.695312 341.210938 C 385.789062 341.164062 385.789062 341.113281 385.695312 341.0625 " fill-opacity="1" fill-rule="evenodd"/><path fill="#f89865" d="M 212.726562 395.746094 C 210.875 394.003906 209.375 393.027344 208.257812 392.84375 C 208.199219 392.84375 208.140625 392.859375 208.023438 392.910156 C 203.292969 391.535156 200.296875 389.097656 199.03125 385.601562 C 200.296875 389.097656 203.292969 391.535156 208.023438 392.910156 C 208.140625 392.859375 208.199219 392.84375 208.257812 392.84375 C 209.375 393.027344 210.875 394.003906 212.726562 395.746094 C 213.898438 397.734375 213.578125 399.507812 211.726562 401.082031 C 211.402344 401.363281 210.992188 401.597656 210.519531 401.777344 C 205.789062 402.4375 200.089844 399.554688 193.417969 393.125 C 192.714844 392.414062 191.980469 391.683594 191.214844 390.921875 C 188.277344 385.714844 187.511719 381.390625 188.953125 377.925781 C 189.160156 377.59375 189.394531 376.683594 189.570312 375.160156 C 189.804688 373.601562 190.097656 371.664062 190.421875 369.339844 L 195.742188 357.90625 C 195.859375 357.574219 195.945312 357.289062 196.035156 357.058594 C 198.589844 349.714844 203.085938 345.421875 209.523438 344.148438 C 210.023438 343.949219 210.433594 343.847656 210.816406 343.847656 C 213.019531 343.996094 215.074219 343.550781 216.898438 342.507812 C 217.660156 341.894531 218.425781 341.328125 219.160156 340.800781 C 223.714844 337.816406 228.417969 337.1875 233.234375 338.894531 C 243.609375 348.058594 253.480469 357.457031 262.855469 367.070312 C 264.96875 379.234375 263.382812 388.503906 258.066406 394.898438 C 254.714844 399.160156 250.835938 402.589844 246.429688 405.191406 C 244.105469 406.320312 241.375 407.511719 238.203125 408.738281 C 235.085938 409.882812 231.296875 409.304688 226.859375 407.03125 C 222.480469 404.578125 219.925781 403.152344 219.160156 402.769531 C 218.367188 402.308594 217.71875 401.746094 217.28125 401.082031 C 217.132812 400.980469 217.015625 400.832031 216.984375 400.648438 C 215.339844 398.5625 213.902344 396.9375 212.726562 395.746094 " fill-opacity="1" fill-rule="evenodd"/><path stroke-linecap="butt" transform="matrix(0.290646, 0, 0, -0.290643, -4524.628809, 2571.667163)" fill="none" stroke-linejoin="miter" d="M 16300.004302 7486.856178 C 16293.593465 7492.850439 16288.499738 7496.21045 16284.602164 7496.842133 C 16284.400565 7496.842133 16284.198967 7496.774932 16283.903289 7496.613652 C 16267.493157 7501.344548 16257.198186 7509.731138 16252.803335 7521.75998 " stroke="#954e40" stroke-width="0.57" stroke-opacity="1" stroke-miterlimit="10"/><path fill="#fefffe" d="M 587.152344 677.460938 C 585.050781 688.117188 574.640625 696.253906 555.917969 701.890625 C 544.847656 695.542969 536.097656 696.871094 529.667969 705.871094 L 506.589844 664.613281 C 506.621094 664.53125 506.589844 664.496094 506.429688 664.546875 C 502.699219 662.457031 501.320312 660.003906 502.324219 657.171875 C 503.703125 656.589844 505.019531 656.191406 506.304688 655.960938 C 526.785156 649.480469 544.410156 637.230469 559.179688 619.246094 C 562.410156 621.816406 564.324219 625.460938 564.917969 630.1875 L 585.082031 673.777344 L 587.152344 677.460938 " fill-opacity="1" fill-rule="evenodd"/><path fill="#5c5d5c" d="M 588.59375 680.285156 L 587.054688 677.5 L 584.984375 673.820312 C 588.71875 673.390625 591.074219 673.722656 592.015625 674.8125 L 588.59375 680.285156 " fill-opacity="1" fill-rule="evenodd"/><path fill="#d8d9d8" d="M 588.757812 680.222656 C 586.769531 691.144531 576.378906 699.433594 557.53125 705.066406 C 546.449219 698.71875 537.796875 699.976562 531.480469 708.832031 L 529.714844 705.847656 C 536.15625 696.847656 544.902344 695.519531 555.984375 701.871094 C 574.707031 696.234375 585.125 688.09375 587.210938 677.4375 Z M 532.050781 723.019531 C 535.710938 717.714844 545.21875 713.984375 560.65625 711.796875 C 562.140625 715.875 562.675781 719.589844 562.296875 722.953125 C 550.554688 722.621094 539.914062 725.488281 530.34375 731.535156 Z M 532.492188 720.746094 L 531.609375 710.886719 C 540.480469 703.492188 549.574219 702.464844 558.953125 707.75 C 559.234375 708.566406 559.550781 709.34375 559.960938 710.105469 C 545.375 711.382812 536.21875 714.933594 532.492188 720.746094 Z M 529.207031 734.738281 C 541.238281 728.160156 552.164062 724.992188 562.015625 725.222656 C 559.363281 739.460938 547.492188 745.261719 526.367188 742.609375 Z M 602.902344 688.726562 L 604.101562 691.144531 C 595.355469 704.636719 595.167969 718.078125 603.535156 731.472656 L 614.398438 711.882812 L 622.007812 725.65625 C 599.523438 761.707031 576.601562 784.8125 553.207031 794.9375 C 529.585938 805.164062 516.515625 807.5 513.957031 801.964844 C 533.3125 795.71875 551.246094 785.558594 567.824219 771.5 C 561.917969 756.269531 545.53125 750.417969 518.695312 753.984375 C 519.136719 753.167969 519.640625 752.324219 520.273438 751.414062 C 547.804688 747.683594 564.445312 753.714844 570.160156 769.53125 C 581.402344 759.714844 591.980469 747.914062 601.894531 734.089844 C 591.347656 719.039062 591.695312 703.925781 602.902344 688.726562 " fill-opacity="1" fill-rule="evenodd"/><path fill="#fdfffd" d="M 518.621094 754.011719 C 545.449219 750.449219 561.84375 756.300781 567.742188 771.53125 C 551.15625 785.589844 533.21875 795.746094 513.859375 801.996094 C 502.824219 793.246094 504.402344 777.25 518.621094 754.011719 Z M 614.304688 711.910156 L 603.460938 731.503906 C 595.074219 718.113281 595.265625 704.667969 604.027344 691.175781 Z M 529.121094 734.769531 L 530.253906 731.570312 C 539.808594 725.523438 550.464844 722.652344 562.222656 722.984375 C 562.570312 719.621094 562.035156 715.910156 560.582031 711.828125 C 545.136719 714.015625 535.613281 717.746094 531.957031 723.050781 L 532.398438 720.78125 C 536.117188 714.964844 545.292969 711.417969 559.859375 710.140625 C 559.480469 709.375 559.132812 708.597656 558.851562 707.785156 C 549.484375 702.496094 540.375 703.523438 531.515625 710.917969 L 531.390625 708.863281 C 537.695312 700.011719 546.363281 698.753906 557.460938 705.101562 C 576.285156 699.464844 586.6875 691.175781 588.675781 680.253906 L 592.109375 674.785156 C 596.082031 677.1875 599.644531 681.863281 602.800781 688.757812 C 591.605469 703.957031 591.261719 719.074219 601.820312 734.121094 C 591.890625 747.945312 581.296875 759.746094 570.074219 769.5625 C 564.367188 753.746094 547.722656 747.714844 520.167969 751.441406 L 526.28125 742.644531 C 547.40625 745.296875 559.292969 739.492188 561.910156 725.257812 C 552.070312 725.023438 541.132812 728.1875 529.121094 734.769531 " fill-opacity="1" fill-rule="evenodd"/><path fill="#f89865" d="M 220.984375 206.207031 L 221.886719 206.054688 C 222.097656 205.957031 222.304688 205.925781 222.605469 205.925781 C 228.3125 204.929688 233.449219 200.851562 237.984375 193.710938 C 233.449219 200.851562 228.3125 204.929688 222.605469 205.925781 C 222.304688 205.925781 222.097656 205.957031 221.886719 206.054688 L 220.984375 206.207031 L 217.140625 206.984375 L 212.15625 187.742188 C 203.296875 183.433594 201.253906 178.542969 206 173.039062 C 208.460938 170.355469 211.765625 168.050781 215.910156 166.164062 C 216.902344 160.195312 215.910156 153.648438 212.964844 146.503906 C 210.921875 141.714844 207.710938 136.0625 203.296875 129.53125 C 200.59375 125.453125 199.121094 120.578125 198.878906 114.914062 L 199.390625 107.453125 C 201.464844 93.914062 209.273438 80.402344 222.757812 66.914062 C 229.453125 60.101562 235.941406 54.632812 242.1875 50.519531 C 258.859375 36.035156 275.136719 29.085938 291.023438 29.652344 C 304.539062 30.117188 317.363281 35.851562 329.589844 46.820312 C 339.46875 55.59375 348.210938 66.996094 355.839844 81.050781 C 362.085938 92.351562 366.230469 102.382812 368.183594 111.148438 C 370.945312 123.597656 368.664062 137.820312 361.394531 153.8125 C 357.730469 162.050781 349.109375 176.71875 335.476562 197.816406 C 327.007812 211.3125 312.769531 221.304688 292.796875 227.785156 C 277.480469 232.707031 263.273438 234.714844 250.207031 233.820312 C 242.191406 233.207031 235.34375 230.390625 229.695312 225.367188 C 227.984375 223.757812 226.542969 222.085938 225.3125 220.328125 L 223.71875 217.90625 C 222.21875 214.460938 221.285156 210.546875 220.984375 206.207031 " fill-opacity="1" fill-rule="evenodd"/><path stroke-linecap="butt" transform="matrix(0.292187, 0, 0, -0.292184, -4524.628809, 2571.667163)" fill="none" stroke-linejoin="miter" d="M 16241.697577 8095.828345 L 16244.906138 8096.336373 C 16245.494375 8096.683971 16246.296515 8096.790924 16247.29919 8096.790924 C 16266.898153 8100.186686 16284.505134 8114.14407 16299.999812 8138.596231 " stroke="#000033" stroke-width="2.836" stroke-opacity="1" stroke-miterlimit="10"/><path fill="#330000" d="M 267.769531 18.625 L 277.007812 13.949219 C 284.671875 10.632812 292.1875 8.414062 299.585938 7.269531 C 323.101562 3.90625 340.847656 12.472656 352.832031 32.960938 C 366.75 56.777344 374.113281 69.511719 374.988281 71.167969 C 382.929688 86.167969 387.9375 99.441406 390.023438 110.980469 C 395.667969 141.792969 382.082031 168.792969 349.269531 191.984375 C 346.011719 191.984375 342.8125 191.105469 339.703125 189.367188 C 333.484375 185.953125 330.949219 180.066406 332.09375 171.679688 C 330.585938 162.644531 327.355469 155.550781 322.4375 150.394531 C 312.566406 140.222656 299.191406 144.992188 282.410156 164.734375 C 280.808594 157.441406 278.273438 149.1875 274.800781 139.957031 C 267.890625 121.441406 259.679688 107.300781 250.109375 97.503906 C 242.804688 97.585938 235.441406 96.761719 227.953125 95.019531 C 212.980469 91.605469 204.953125 85.570312 203.894531 76.917969 C 203.925781 76.105469 204.078125 75.0625 204.289062 73.785156 C 204.953125 71.183594 205.917969 68.679688 207.15625 66.261719 C 210.988281 58.785156 217.175781 53.929688 225.691406 51.707031 L 227.683594 46.949219 C 229.554688 43.070312 231.847656 39.492188 234.472656 36.226562 C 243.078125 25.683594 254.183594 19.816406 267.769531 18.625 " fill-opacity="1" fill-rule="evenodd"/><path fill="#330000" d="M 246.328125 108.164062 C 224.226562 107.878906 210.441406 97.222656 205 76.207031 L 215.914062 72.246094 C 218.109375 89.035156 228.238281 101.019531 246.328125 108.164062 " fill-opacity="1" fill-rule="evenodd"/><path fill="#77390d" d="M 314.078125 158.113281 C 311.910156 157.316406 309.53125 157.453125 306.976562 158.542969 C 307.929688 159.027344 308.671875 159.703125 309.175781 160.601562 C 310.125 162.257812 310.363281 164.128906 309.890625 166.21875 C 309.472656 168.441406 308.492188 170.3125 306.976562 171.820312 C 305.371094 173.246094 303.710938 173.910156 302.015625 173.808594 C 300.292969 173.910156 299.042969 173.199219 298.183594 171.671875 C 297.261719 170.015625 297.054688 168.011719 297.53125 165.640625 C 297.914062 163.800781 298.777344 162.207031 300.085938 160.882812 C 301.273438 159.140625 302.730469 157.78125 304.421875 156.835938 C 307.394531 154.847656 310.335938 154.464844 313.246094 155.710938 C 315.652344 156.738281 317.257812 158.828125 318.058594 161.957031 C 317.195312 160.152344 315.859375 158.878906 314.078125 158.113281 " fill-opacity="1" fill-rule="evenodd"/><path fill="#3a210b" d="M 248.3125 117.820312 L 249.367188 126.472656 C 240.523438 124.152344 230.007812 123.105469 217.851562 123.355469 C 215.449219 117.769531 214.457031 112.964844 214.863281 108.9375 C 227.546875 109.316406 238.707031 112.285156 248.3125 117.820312 " fill-opacity="1" fill-rule="evenodd"/><path fill="#000000" d="M 241.757812 139.582031 C 238.949219 137.460938 235.875 136.597656 232.445312 137.03125 C 228.992188 137.511719 226.210938 139.085938 224.070312 141.785156 C 221.933594 144.539062 221.085938 147.636719 221.496094 151.085938 C 221.933594 154.5 223.542969 157.234375 226.355469 159.324219 C 229.019531 161.492188 232.125 162.359375 235.582031 161.875 C 238.976562 161.445312 241.789062 159.871094 244.015625 157.117188 C 246.09375 154.382812 246.941406 151.300781 246.503906 147.886719 C 246.0625 144.4375 244.511719 141.671875 241.757812 139.582031 Z M 242.902344 137.957031 C 245.949219 140.460938 247.761719 143.675781 248.289062 147.605469 C 248.757812 151.535156 247.820312 155.03125 245.449219 158.113281 C 242.929688 161.328125 239.710938 163.1875 235.785156 163.648438 C 231.890625 164.179688 228.40625 163.1875 225.273438 160.664062 C 222.050781 158.3125 220.207031 155.164062 219.738281 151.234375 C 219.210938 147.304688 220.207031 143.726562 222.722656 140.511719 C 225.125 137.429688 228.289062 135.636719 232.152344 135.105469 C 236.109375 134.644531 239.679688 135.585938 242.902344 137.957031 " fill-opacity="1" fill-rule="evenodd"/><path fill="#ffffcc" d="M 241.753906 139.582031 C 244.503906 141.671875 246.085938 144.4375 246.496094 147.886719 C 246.933594 151.300781 246.117188 154.386719 244.007812 157.121094 C 241.78125 159.871094 238.972656 161.445312 235.578125 161.875 C 232.121094 162.355469 229.019531 161.496094 226.355469 159.324219 C 223.546875 157.234375 221.9375 154.5 221.496094 151.085938 C 221.085938 147.636719 221.9375 144.539062 224.074219 141.785156 C 226.210938 139.085938 228.992188 137.511719 232.445312 137.03125 C 235.871094 136.597656 238.972656 137.460938 241.753906 139.582031 " fill-opacity="1" fill-rule="evenodd"/><path fill="#3f0920" d="M 236.851562 146.976562 C 236.269531 146.691406 235.976562 146.328125 235.917969 145.898438 C 235.890625 145.433594 236.09375 145.050781 236.503906 144.769531 C 236.882812 144.386719 237.378906 144.15625 238.050781 144.058594 C 238.664062 143.957031 239.25 144.058594 239.835938 144.339844 C 240.304688 144.539062 240.566406 144.867188 240.625 145.332031 C 240.652344 145.765625 240.507812 146.164062 240.1875 146.542969 C 239.746094 146.875 239.25 147.089844 238.636719 147.175781 C 237.964844 147.273438 237.378906 147.207031 236.851562 146.976562 " fill-opacity="1" fill-rule="evenodd"/><path stroke-linecap="butt" transform="matrix(0.292349, 0, 0, -0.292346, -4524.628809, 2571.667163)" fill="none" stroke-linejoin="miter" d="M 16286.993599 8293.916784 C 16288.797418 8293.12844 16290.80166 8292.901291 16293.099858 8293.235334 C 16295.197631 8293.529293 16296.894556 8294.264189 16298.404419 8295.399938 C 16299.500071 8296.696028 16299.994451 8298.058927 16299.90092 8299.542081 C 16299.700496 8301.132129 16298.805267 8302.254516 16297.201874 8302.935966 C 16295.197631 8303.898012 16293.193389 8304.245417 16291.095615 8303.898012 C 16288.797418 8303.563968 16287.100492 8302.775625 16285.804416 8301.466173 C 16284.401446 8300.504127 16283.706642 8299.194675 16283.800173 8297.604627 C 16284.000598 8296.134834 16285.002719 8294.892192 16286.993599 8293.916784 Z M 16286.993599 8293.916784 " stroke="#330000" stroke-width="1.417" stroke-opacity="1" stroke-miterlimit="10"/><g clip-path="url(#9dbbda0128)"><g clip-path="url(#dade09ce57)"><path fill="url(#0782a27e04)" d="M 218.445312 154.238281 L 227.796875 129.742188 L 251.933594 139.605469 L 242.582031 164.101562 Z M 218.445312 154.238281 " fill-rule="nonzero"/></g></g><path fill="#330033" d="M 230.59375 153.613281 C 228.835938 152.285156 227.8125 150.527344 227.464844 148.359375 C 227.113281 146.171875 227.550781 144.214844 228.835938 142.457031 C 230.09375 140.800781 231.820312 139.835938 233.925781 139.539062 C 236.121094 139.257812 238.082031 139.757812 239.75 141.03125 C 241.503906 142.40625 242.585938 144.179688 242.964844 146.371094 C 243.289062 148.539062 242.820312 150.480469 241.53125 152.1875 C 240.304688 153.894531 238.609375 154.886719 236.414062 155.171875 C 234.308594 155.453125 232.347656 154.921875 230.59375 153.613281 " fill-opacity="1" fill-rule="evenodd"/><path fill="#000000" d="M 231.148438 151.84375 C 229.863281 150.949219 229.074219 149.722656 228.78125 148.148438 C 228.546875 146.59375 228.929688 145.199219 229.921875 143.972656 C 230.917969 142.730469 232.230469 142.035156 233.839844 141.835938 C 235.449219 141.601562 236.9375 141.949219 238.3125 142.898438 C 239.570312 143.855469 240.332031 145.101562 240.5625 146.675781 C 240.855469 148.230469 240.503906 149.609375 239.511719 150.785156 C 238.519531 152.011719 237.230469 152.742188 235.625 152.988281 C 233.988281 153.171875 232.496094 152.789062 231.152344 151.84375 " fill-opacity="1" fill-rule="evenodd"/><path stroke-linecap="butt" transform="matrix(0.292361, 0, 0, -0.292358, -4524.628809, 2571.667163)" fill="none" stroke-linejoin="miter" d="M 16266.794704 8276.916542 C 16271.404266 8273.683135 16276.494825 8272.373739 16282.093104 8273.001715 C 16287.597855 8273.843469 16291.99364 8276.342011 16295.400707 8280.537422 C 16298.794413 8284.559139 16299.996908 8289.275637 16298.994829 8294.593388 C 16298.193166 8299.977945 16295.601123 8304.240162 16291.298866 8307.513652 C 16286.595777 8310.76042 16281.505218 8311.949565 16276.000466 8311.147894 C 16270.495714 8310.466474 16265.993041 8308.088183 16262.599335 8303.839327 C 16259.192268 8299.643915 16257.896246 8294.873973 16258.697909 8289.556221 C 16259.699988 8284.171664 16262.398919 8279.976253 16266.794704 8276.916542 Z M 16266.794704 8276.916542 " stroke="#330000" stroke-width="0.567" stroke-opacity="1" stroke-miterlimit="10"/><path fill="#ffffff" d="M 230.574219 143.144531 C 231.011719 143.808594 231.128906 144.453125 230.953125 145.066406 C 230.75 145.628906 230.285156 145.976562 229.523438 146.125 C 228.796875 146.277344 228.035156 146.144531 227.191406 145.777344 C 226.316406 145.398438 225.671875 144.851562 225.207031 144.140625 C 224.710938 143.476562 224.59375 142.863281 224.769531 142.296875 C 225.003906 141.71875 225.5 141.386719 226.257812 141.304688 C 227.015625 141.105469 227.863281 141.191406 228.738281 141.519531 C 229.523438 141.882812 230.167969 142.433594 230.574219 143.144531 " fill-opacity="1" fill-rule="evenodd"/><path fill="#ffffff" d="M 227.667969 150.175781 C 227.375 150.039062 227.203125 149.824219 227.171875 149.542969 C 227.113281 149.261719 227.199219 148.980469 227.433594 148.679688 C 227.667969 148.449219 227.988281 148.316406 228.367188 148.265625 C 228.746094 148.214844 229.097656 148.265625 229.359375 148.402344 C 229.652344 148.648438 229.828125 148.894531 229.855469 149.179688 C 229.914062 149.476562 229.828125 149.710938 229.59375 149.890625 C 229.332031 150.175781 229.039062 150.339844 228.660156 150.390625 C 228.28125 150.4375 227.929688 150.371094 227.667969 150.175781 " fill-opacity="1" fill-rule="evenodd"/><path fill="#ffffff" d="M 239.957031 144.5 C 239.578125 144.171875 239.34375 143.722656 239.226562 143.140625 C 239.140625 142.625 239.226562 142.148438 239.519531 141.730469 C 239.8125 141.300781 240.222656 141.035156 240.71875 140.953125 C 241.214844 140.902344 241.625 141.035156 242.003906 141.367188 C 242.445312 141.699219 242.707031 142.128906 242.796875 142.644531 C 242.882812 143.222656 242.765625 143.722656 242.445312 144.136719 C 242.210938 144.566406 241.828125 144.800781 241.363281 144.851562 C 240.835938 144.949219 240.367188 144.832031 239.957031 144.5 " fill-opacity="1" fill-rule="evenodd"/></svg>