<svg xmlns="http://www.w3.org/2000/svg" xmlns:xlink="http://www.w3.org/1999/xlink" width="1080" zoomAndPan="magnify" viewBox="0 0 810 809.999993" height="1080" preserveAspectRatio="xMidYMid meet" version="1.0"><defs><clipPath id="739d3c0e75"><path d="M 34.523438 6.429688 L 771.773438 6.429688 L 771.773438 803.679688 L 34.523438 803.679688 Z M 34.523438 6.429688 " clip-rule="nonzero"/></clipPath><clipPath id="8cf09eeb4c"><path d="M 194 149 L 214 149 L 214 169 L 194 169 Z M 194 149 " clip-rule="nonzero"/></clipPath><clipPath id="14e58c684e"><path d="M 210.207031 151.378906 C 212.363281 153.140625 213.625 155.34375 213.890625 157.996094 C 214.222656 160.679688 213.558594 163.085938 211.832031 165.15625 C 210.175781 167.246094 208.019531 168.40625 205.363281 168.636719 C 202.675781 168.871094 200.253906 168.125 198.132812 166.367188 C 196.007812 164.609375 194.746094 162.386719 194.417969 159.6875 C 194.152344 157.035156 194.847656 154.679688 196.507812 152.589844 C 198.164062 150.503906 200.320312 149.34375 203.042969 149.113281 C 205.664062 148.878906 208.085938 149.640625 210.207031 151.378906 " clip-rule="evenodd"/></clipPath><radialGradient gradientTransform="matrix(0.921191, 0.416513, 0.389002, -0.909309, 5606.681155, -2289.62368)" gradientUnits="userSpaceOnUse" r="27.03196" cx="0" id="d976b07c1e" cy="0" fx="0" fy="0"><stop stop-opacity="1" stop-color="rgb(57.446289%, 2.047729%, 2.165222%)" offset="0"/><stop stop-opacity="1" stop-color="rgb(57.215881%, 2.120972%, 2.415466%)" offset="0.0078125"/><stop stop-opacity="1" stop-color="rgb(57.063293%, 2.1698%, 2.581787%)" offset="0.0117188"/><stop stop-opacity="1" stop-color="rgb(56.90918%, 2.218628%, 2.749634%)" offset="0.015625"/><stop stop-opacity="1" stop-color="rgb(56.756592%, 2.267456%, 2.915955%)" offset="0.0195312"/><stop stop-opacity="1" stop-color="rgb(56.604004%, 2.316284%, 3.082275%)" offset="0.0234375"/><stop stop-opacity="1" stop-color="rgb(56.44989%, 2.365112%, 3.250122%)" offset="0.0273438"/><stop stop-opacity="1" stop-color="rgb(56.297302%, 2.41394%, 3.416443%)" offset="0.03125"/><stop stop-opacity="1" stop-color="rgb(56.144714%, 2.462769%, 3.582764%)" offset="0.0351562"/><stop stop-opacity="1" stop-color="rgb(55.990601%, 2.511597%, 3.75061%)" offset="0.0390625"/><stop stop-opacity="1" stop-color="rgb(55.838013%, 2.560425%, 3.916931%)" offset="0.0429688"/><stop stop-opacity="1" stop-color="rgb(55.685425%, 2.609253%, 4.083252%)" offset="0.046875"/><stop stop-opacity="1" stop-color="rgb(55.531311%, 2.658081%, 4.251099%)" offset="0.0507812"/><stop stop-opacity="1" stop-color="rgb(55.378723%, 2.706909%, 4.417419%)" offset="0.0546875"/><stop stop-opacity="1" stop-color="rgb(55.226135%, 2.755737%, 4.58374%)" offset="0.0585938"/><stop stop-opacity="1" stop-color="rgb(55.072021%, 2.804565%, 4.751587%)" offset="0.0625"/><stop stop-opacity="1" stop-color="rgb(54.919434%, 2.853394%, 4.917908%)" offset="0.0664062"/><stop stop-opacity="1" stop-color="rgb(54.766846%, 2.902222%, 5.084229%)" offset="0.0703125"/><stop stop-opacity="1" stop-color="rgb(54.612732%, 2.95105%, 5.250549%)" offset="0.0742188"/><stop stop-opacity="1" stop-color="rgb(54.460144%, 2.999878%, 5.418396%)" offset="0.078125"/><stop stop-opacity="1" stop-color="rgb(54.30603%, 3.048706%, 5.584717%)" offset="0.0820312"/><stop stop-opacity="1" stop-color="rgb(54.153442%, 3.097534%, 5.751038%)" offset="0.0859375"/><stop stop-opacity="1" stop-color="rgb(54.000854%, 3.146362%, 5.918884%)" offset="0.0898438"/><stop stop-opacity="1" stop-color="rgb(53.846741%, 3.19519%, 6.085205%)" offset="0.09375"/><stop stop-opacity="1" stop-color="rgb(53.694153%, 3.244019%, 6.251526%)" offset="0.0976562"/><stop stop-opacity="1" stop-color="rgb(53.541565%, 3.292847%, 6.419373%)" offset="0.101562"/><stop stop-opacity="1" stop-color="rgb(53.387451%, 3.341675%, 6.585693%)" offset="0.105469"/><stop stop-opacity="1" stop-color="rgb(53.234863%, 3.390503%, 6.752014%)" offset="0.109375"/><stop stop-opacity="1" stop-color="rgb(53.082275%, 3.439331%, 6.919861%)" offset="0.113281"/><stop stop-opacity="1" stop-color="rgb(52.928162%, 3.488159%, 7.086182%)" offset="0.117188"/><stop stop-opacity="1" stop-color="rgb(52.775574%, 3.536987%, 7.252502%)" offset="0.121094"/><stop stop-opacity="1" stop-color="rgb(52.622986%, 3.585815%, 7.420349%)" offset="0.125"/><stop stop-opacity="1" stop-color="rgb(52.468872%, 3.634644%, 7.58667%)" offset="0.128906"/><stop stop-opacity="1" stop-color="rgb(52.316284%, 3.683472%, 7.752991%)" offset="0.132812"/><stop stop-opacity="1" stop-color="rgb(52.163696%, 3.7323%, 7.919312%)" offset="0.136719"/><stop stop-opacity="1" stop-color="rgb(52.009583%, 3.781128%, 8.087158%)" offset="0.140625"/><stop stop-opacity="1" stop-color="rgb(51.856995%, 3.829956%, 8.253479%)" offset="0.144531"/><stop stop-opacity="1" stop-color="rgb(51.704407%, 3.878784%, 8.4198%)" offset="0.148438"/><stop stop-opacity="1" stop-color="rgb(51.550293%, 3.927612%, 8.587646%)" offset="0.152344"/><stop stop-opacity="1" stop-color="rgb(51.397705%, 3.97644%, 8.753967%)" offset="0.15625"/><stop stop-opacity="1" stop-color="rgb(51.243591%, 4.025269%, 8.920288%)" offset="0.160156"/><stop stop-opacity="1" stop-color="rgb(51.091003%, 4.074097%, 9.088135%)" offset="0.164062"/><stop stop-opacity="1" stop-color="rgb(50.938416%, 4.122925%, 9.254456%)" offset="0.167969"/><stop stop-opacity="1" stop-color="rgb(50.784302%, 4.171753%, 9.420776%)" offset="0.171875"/><stop stop-opacity="1" stop-color="rgb(50.631714%, 4.220581%, 9.588623%)" offset="0.175781"/><stop stop-opacity="1" stop-color="rgb(50.479126%, 4.269409%, 9.754944%)" offset="0.179688"/><stop stop-opacity="1" stop-color="rgb(50.325012%, 4.318237%, 9.921265%)" offset="0.183594"/><stop stop-opacity="1" stop-color="rgb(50.172424%, 4.367065%, 10.089111%)" offset="0.1875"/><stop stop-opacity="1" stop-color="rgb(50.019836%, 4.415894%, 10.255432%)" offset="0.191406"/><stop stop-opacity="1" stop-color="rgb(49.865723%, 4.464722%, 10.421753%)" offset="0.195312"/><stop stop-opacity="1" stop-color="rgb(49.713135%, 4.51355%, 10.588074%)" offset="0.199219"/><stop stop-opacity="1" stop-color="rgb(49.560547%, 4.562378%, 10.75592%)" offset="0.203125"/><stop stop-opacity="1" stop-color="rgb(49.406433%, 4.611206%, 10.922241%)" offset="0.207031"/><stop stop-opacity="1" stop-color="rgb(49.253845%, 4.660034%, 11.088562%)" offset="0.210938"/><stop stop-opacity="1" stop-color="rgb(49.101257%, 4.708862%, 11.256409%)" offset="0.214844"/><stop stop-opacity="1" stop-color="rgb(48.947144%, 4.75769%, 11.422729%)" offset="0.21875"/><stop stop-opacity="1" stop-color="rgb(48.794556%, 4.806519%, 11.58905%)" offset="0.222656"/><stop stop-opacity="1" stop-color="rgb(48.640442%, 4.855347%, 11.756897%)" offset="0.226562"/><stop stop-opacity="1" stop-color="rgb(48.487854%, 4.904175%, 11.923218%)" offset="0.230469"/><stop stop-opacity="1" stop-color="rgb(48.335266%, 4.953003%, 12.089539%)" offset="0.234375"/><stop stop-opacity="1" stop-color="rgb(48.181152%, 5.001831%, 12.257385%)" offset="0.238281"/><stop stop-opacity="1" stop-color="rgb(48.028564%, 5.050659%, 12.423706%)" offset="0.242188"/><stop stop-opacity="1" stop-color="rgb(47.875977%, 5.099487%, 12.590027%)" offset="0.246094"/><stop stop-opacity="1" stop-color="rgb(47.721863%, 5.148315%, 12.757874%)" offset="0.25"/><stop stop-opacity="1" stop-color="rgb(47.492981%, 5.221558%, 13.008118%)" offset="0.253906"/><stop stop-opacity="1" stop-color="rgb(47.186279%, 5.319214%, 13.340759%)" offset="0.261719"/><stop stop-opacity="1" stop-color="rgb(46.879578%, 5.41687%, 13.674927%)" offset="0.269531"/><stop stop-opacity="1" stop-color="rgb(46.574402%, 5.514526%, 14.007568%)" offset="0.277344"/><stop stop-opacity="1" stop-color="rgb(46.2677%, 5.612183%, 14.341736%)" offset="0.285156"/><stop stop-opacity="1" stop-color="rgb(45.960999%, 5.709839%, 14.675903%)" offset="0.292969"/><stop stop-opacity="1" stop-color="rgb(45.654297%, 5.807495%, 15.008545%)" offset="0.300781"/><stop stop-opacity="1" stop-color="rgb(45.349121%, 5.905151%, 15.342712%)" offset="0.308594"/><stop stop-opacity="1" stop-color="rgb(45.042419%, 6.002808%, 15.675354%)" offset="0.316406"/><stop stop-opacity="1" stop-color="rgb(44.735718%, 6.100464%, 16.009521%)" offset="0.324219"/><stop stop-opacity="1" stop-color="rgb(44.430542%, 6.19812%, 16.343689%)" offset="0.332031"/><stop stop-opacity="1" stop-color="rgb(44.12384%, 6.295776%, 16.676331%)" offset="0.339844"/><stop stop-opacity="1" stop-color="rgb(43.817139%, 6.393433%, 17.010498%)" offset="0.347656"/><stop stop-opacity="1" stop-color="rgb(43.511963%, 6.491089%, 17.344666%)" offset="0.355469"/><stop stop-opacity="1" stop-color="rgb(43.205261%, 6.588745%, 17.677307%)" offset="0.363281"/><stop stop-opacity="1" stop-color="rgb(42.89856%, 6.686401%, 18.011475%)" offset="0.371094"/><stop stop-opacity="1" stop-color="rgb(42.591858%, 6.784058%, 18.344116%)" offset="0.378906"/><stop stop-opacity="1" stop-color="rgb(42.286682%, 6.881714%, 18.678284%)" offset="0.386719"/><stop stop-opacity="1" stop-color="rgb(41.97998%, 6.97937%, 19.012451%)" offset="0.394531"/><stop stop-opacity="1" stop-color="rgb(41.673279%, 7.077026%, 19.345093%)" offset="0.402344"/><stop stop-opacity="1" stop-color="rgb(41.368103%, 7.174683%, 19.67926%)" offset="0.410156"/><stop stop-opacity="1" stop-color="rgb(41.061401%, 7.272339%, 20.013428%)" offset="0.417969"/><stop stop-opacity="1" stop-color="rgb(40.7547%, 7.369995%, 20.346069%)" offset="0.425781"/><stop stop-opacity="1" stop-color="rgb(40.447998%, 7.467651%, 20.680237%)" offset="0.433594"/><stop stop-opacity="1" stop-color="rgb(40.142822%, 7.565308%, 21.012878%)" offset="0.441406"/><stop stop-opacity="1" stop-color="rgb(39.836121%, 7.662964%, 21.347046%)" offset="0.449219"/><stop stop-opacity="1" stop-color="rgb(39.529419%, 7.76062%, 21.681213%)" offset="0.457031"/><stop stop-opacity="1" stop-color="rgb(39.224243%, 7.858276%, 22.013855%)" offset="0.464844"/><stop stop-opacity="1" stop-color="rgb(38.917542%, 7.955933%, 22.348022%)" offset="0.472656"/><stop stop-opacity="1" stop-color="rgb(38.61084%, 8.053589%, 22.68219%)" offset="0.480469"/><stop stop-opacity="1" stop-color="rgb(38.305664%, 8.151245%, 23.014832%)" offset="0.488281"/><stop stop-opacity="1" stop-color="rgb(37.998962%, 8.248901%, 23.348999%)" offset="0.496094"/><stop stop-opacity="1" stop-color="rgb(37.768555%, 8.322144%, 23.599243%)" offset="0.503906"/><stop stop-opacity="1" stop-color="rgb(37.615967%, 8.370972%, 23.765564%)" offset="0.507812"/><stop stop-opacity="1" stop-color="rgb(37.463379%, 8.4198%, 23.931885%)" offset="0.511719"/><stop stop-opacity="1" stop-color="rgb(37.309265%, 8.468628%, 24.099731%)" offset="0.515625"/><stop stop-opacity="1" stop-color="rgb(37.156677%, 8.517456%, 24.266052%)" offset="0.519531"/><stop stop-opacity="1" stop-color="rgb(37.004089%, 8.566284%, 24.432373%)" offset="0.523438"/><stop stop-opacity="1" stop-color="rgb(36.849976%, 8.615112%, 24.60022%)" offset="0.527344"/><stop stop-opacity="1" stop-color="rgb(36.697388%, 8.66394%, 24.766541%)" offset="0.53125"/><stop stop-opacity="1" stop-color="rgb(36.5448%, 8.712769%, 24.932861%)" offset="0.535156"/><stop stop-opacity="1" stop-color="rgb(36.390686%, 8.761597%, 25.100708%)" offset="0.539062"/><stop stop-opacity="1" stop-color="rgb(36.238098%, 8.810425%, 25.267029%)" offset="0.542969"/><stop stop-opacity="1" stop-color="rgb(36.08551%, 8.859253%, 25.43335%)" offset="0.546875"/><stop stop-opacity="1" stop-color="rgb(35.931396%, 8.908081%, 25.601196%)" offset="0.550781"/><stop stop-opacity="1" stop-color="rgb(35.778809%, 8.956909%, 25.767517%)" offset="0.554688"/><stop stop-opacity="1" stop-color="rgb(35.626221%, 9.005737%, 25.933838%)" offset="0.558594"/><stop stop-opacity="1" stop-color="rgb(35.472107%, 9.054565%, 26.100159%)" offset="0.5625"/><stop stop-opacity="1" stop-color="rgb(35.319519%, 9.103394%, 26.268005%)" offset="0.566406"/><stop stop-opacity="1" stop-color="rgb(35.165405%, 9.152222%, 26.434326%)" offset="0.570312"/><stop stop-opacity="1" stop-color="rgb(35.012817%, 9.20105%, 26.600647%)" offset="0.574219"/><stop stop-opacity="1" stop-color="rgb(34.860229%, 9.249878%, 26.768494%)" offset="0.578125"/><stop stop-opacity="1" stop-color="rgb(34.706116%, 9.298706%, 26.934814%)" offset="0.582031"/><stop stop-opacity="1" stop-color="rgb(34.553528%, 9.347534%, 27.101135%)" offset="0.585938"/><stop stop-opacity="1" stop-color="rgb(34.40094%, 9.396362%, 27.268982%)" offset="0.589844"/><stop stop-opacity="1" stop-color="rgb(34.246826%, 9.44519%, 27.435303%)" offset="0.59375"/><stop stop-opacity="1" stop-color="rgb(34.094238%, 9.494019%, 27.601624%)" offset="0.597656"/><stop stop-opacity="1" stop-color="rgb(33.94165%, 9.542847%, 27.76947%)" offset="0.601562"/><stop stop-opacity="1" stop-color="rgb(33.787537%, 9.591675%, 27.935791%)" offset="0.605469"/><stop stop-opacity="1" stop-color="rgb(33.634949%, 9.640503%, 28.102112%)" offset="0.609375"/><stop stop-opacity="1" stop-color="rgb(33.482361%, 9.689331%, 28.269958%)" offset="0.613281"/><stop stop-opacity="1" stop-color="rgb(33.328247%, 9.738159%, 28.436279%)" offset="0.617188"/><stop stop-opacity="1" stop-color="rgb(33.175659%, 9.786987%, 28.6026%)" offset="0.621094"/><stop stop-opacity="1" stop-color="rgb(33.023071%, 9.835815%, 28.768921%)" offset="0.625"/><stop stop-opacity="1" stop-color="rgb(32.792664%, 9.909058%, 29.019165%)" offset="0.628906"/><stop stop-opacity="1" stop-color="rgb(32.485962%, 10.006714%, 29.353333%)" offset="0.636719"/><stop stop-opacity="1" stop-color="rgb(32.17926%, 10.10437%, 29.6875%)" offset="0.644531"/><stop stop-opacity="1" stop-color="rgb(31.874084%, 10.202026%, 30.020142%)" offset="0.652344"/><stop stop-opacity="1" stop-color="rgb(31.567383%, 10.299683%, 30.354309%)" offset="0.660156"/><stop stop-opacity="1" stop-color="rgb(31.260681%, 10.397339%, 30.688477%)" offset="0.667969"/><stop stop-opacity="1" stop-color="rgb(30.955505%, 10.494995%, 31.021118%)" offset="0.675781"/><stop stop-opacity="1" stop-color="rgb(30.648804%, 10.592651%, 31.355286%)" offset="0.683594"/><stop stop-opacity="1" stop-color="rgb(30.342102%, 10.690308%, 31.687927%)" offset="0.691406"/><stop stop-opacity="1" stop-color="rgb(30.036926%, 10.787964%, 32.022095%)" offset="0.699219"/><stop stop-opacity="1" stop-color="rgb(29.730225%, 10.88562%, 32.356262%)" offset="0.707031"/><stop stop-opacity="1" stop-color="rgb(29.423523%, 10.983276%, 32.688904%)" offset="0.714844"/><stop stop-opacity="1" stop-color="rgb(29.116821%, 11.080933%, 33.023071%)" offset="0.722656"/><stop stop-opacity="1" stop-color="rgb(28.811646%, 11.178589%, 33.357239%)" offset="0.730469"/><stop stop-opacity="1" stop-color="rgb(28.504944%, 11.276245%, 33.68988%)" offset="0.738281"/><stop stop-opacity="1" stop-color="rgb(28.198242%, 11.373901%, 34.024048%)" offset="0.746094"/><stop stop-opacity="1" stop-color="rgb(27.96936%, 11.447144%, 34.274292%)" offset="0.753906"/><stop stop-opacity="1" stop-color="rgb(27.816772%, 11.495972%, 34.440613%)" offset="0.757812"/><stop stop-opacity="1" stop-color="rgb(27.662659%, 11.5448%, 34.606934%)" offset="0.761719"/><stop stop-opacity="1" stop-color="rgb(27.510071%, 11.593628%, 34.77478%)" offset="0.765625"/><stop stop-opacity="1" stop-color="rgb(27.357483%, 11.642456%, 34.941101%)" offset="0.769531"/><stop stop-opacity="1" stop-color="rgb(27.203369%, 11.691284%, 35.107422%)" offset="0.773438"/><stop stop-opacity="1" stop-color="rgb(27.050781%, 11.740112%, 35.275269%)" offset="0.777344"/><stop stop-opacity="1" stop-color="rgb(26.896667%, 11.78894%, 35.441589%)" offset="0.78125"/><stop stop-opacity="1" stop-color="rgb(26.74408%, 11.837769%, 35.60791%)" offset="0.785156"/><stop stop-opacity="1" stop-color="rgb(26.591492%, 11.886597%, 35.775757%)" offset="0.789062"/><stop stop-opacity="1" stop-color="rgb(26.437378%, 11.935425%, 35.942078%)" offset="0.792969"/><stop stop-opacity="1" stop-color="rgb(26.28479%, 11.984253%, 36.108398%)" offset="0.796875"/><stop stop-opacity="1" stop-color="rgb(26.132202%, 12.033081%, 36.274719%)" offset="0.800781"/><stop stop-opacity="1" stop-color="rgb(25.978088%, 12.081909%, 36.442566%)" offset="0.804688"/><stop stop-opacity="1" stop-color="rgb(25.8255%, 12.130737%, 36.608887%)" offset="0.808594"/><stop stop-opacity="1" stop-color="rgb(25.672913%, 12.179565%, 36.775208%)" offset="0.8125"/><stop stop-opacity="1" stop-color="rgb(25.442505%, 12.252808%, 37.025452%)" offset="0.816406"/><stop stop-opacity="1" stop-color="rgb(25.135803%, 12.350464%, 37.359619%)" offset="0.824219"/><stop stop-opacity="1" stop-color="rgb(24.830627%, 12.44812%, 37.693787%)" offset="0.832031"/><stop stop-opacity="1" stop-color="rgb(24.523926%, 12.545776%, 38.026428%)" offset="0.839844"/><stop stop-opacity="1" stop-color="rgb(24.217224%, 12.643433%, 38.360596%)" offset="0.847656"/><stop stop-opacity="1" stop-color="rgb(23.910522%, 12.741089%, 38.694763%)" offset="0.855469"/><stop stop-opacity="1" stop-color="rgb(23.605347%, 12.838745%, 39.027405%)" offset="0.863281"/><stop stop-opacity="1" stop-color="rgb(23.298645%, 12.936401%, 39.361572%)" offset="0.871094"/><stop stop-opacity="1" stop-color="rgb(23.069763%, 13.009644%, 39.611816%)" offset="0.878906"/><stop stop-opacity="1" stop-color="rgb(22.915649%, 13.058472%, 39.778137%)" offset="0.882812"/><stop stop-opacity="1" stop-color="rgb(22.763062%, 13.1073%, 39.944458%)" offset="0.886719"/><stop stop-opacity="1" stop-color="rgb(22.610474%, 13.156128%, 40.112305%)" offset="0.890625"/><stop stop-opacity="1" stop-color="rgb(22.45636%, 13.204956%, 40.278625%)" offset="0.894531"/><stop stop-opacity="1" stop-color="rgb(22.303772%, 13.253784%, 40.444946%)" offset="0.898438"/><stop stop-opacity="1" stop-color="rgb(22.151184%, 13.302612%, 40.612793%)" offset="0.902344"/><stop stop-opacity="1" stop-color="rgb(21.99707%, 13.35144%, 40.779114%)" offset="0.90625"/><stop stop-opacity="1" stop-color="rgb(21.768188%, 13.424683%, 41.029358%)" offset="0.910156"/><stop stop-opacity="1" stop-color="rgb(21.461487%, 13.522339%, 41.363525%)" offset="0.917969"/><stop stop-opacity="1" stop-color="rgb(21.154785%, 13.619995%, 41.696167%)" offset="0.925781"/><stop stop-opacity="1" stop-color="rgb(20.848083%, 13.717651%, 42.030334%)" offset="0.933594"/><stop stop-opacity="1" stop-color="rgb(20.619202%, 13.790894%, 42.280579%)" offset="0.941406"/><stop stop-opacity="1" stop-color="rgb(20.466614%, 13.839722%, 42.446899%)" offset="0.945312"/><stop stop-opacity="1" stop-color="rgb(20.3125%, 13.88855%, 42.61322%)" offset="0.949219"/><stop stop-opacity="1" stop-color="rgb(20.159912%, 13.937378%, 42.781067%)" offset="0.953125"/><stop stop-opacity="1" stop-color="rgb(19.929504%, 14.01062%, 43.031311%)" offset="0.957031"/><stop stop-opacity="1" stop-color="rgb(19.624329%, 14.108276%, 43.363953%)" offset="0.964844"/><stop stop-opacity="1" stop-color="rgb(19.393921%, 14.181519%, 43.614197%)" offset="0.972656"/><stop stop-opacity="1" stop-color="rgb(19.241333%, 14.230347%, 43.782043%)" offset="0.976562"/><stop stop-opacity="1" stop-color="rgb(19.010925%, 14.303589%, 44.032288%)" offset="0.980469"/><stop stop-opacity="1" stop-color="rgb(18.782043%, 14.376831%, 44.281006%)" offset="0.988281"/><stop stop-opacity="1" stop-color="rgb(18.551636%, 14.450073%, 44.53125%)" offset="0.992188"/><stop stop-opacity="1" stop-color="rgb(18.399048%, 14.498901%, 44.699097%)" offset="1"/></radialGradient></defs><g clip-path="url(#739d3c0e75)"><rect x="-81" width="972" fill="#697a7a" y="-80.999999" height="971.999992" fill-opacity="1"/></g><path fill="#f89865" d="M 294.210938 569.070312 L 294.621094 569.003906 L 359.941406 591.859375 L 360.863281 591.792969 C 360.898438 591.976562 360.964844 592.140625 361 592.292969 C 361.617188 593.847656 363.1875 597.066406 365.714844 601.9375 C 370.597656 611.449219 372.679688 624.792969 371.859375 641.980469 C 371.007812 659.105469 370.460938 674.304688 370.152344 687.5625 C 369.914062 700.808594 369.640625 707.980469 369.296875 709.0625 C 354.171875 716.5 339.046875 717.609375 323.953125 712.40625 L 323.882812 712.324219 C 327.09375 702.015625 326.34375 688.359375 321.597656 671.371094 C 316.816406 654.378906 311.25 631.492188 304.863281 602.714844 C 299.707031 590.980469 296.15625 579.757812 294.210938 569.066406 " fill-opacity="1" fill-rule="evenodd"/><path fill="#f89865" d="M 609.992188 612.136719 C 609.847656 612.1875 609.707031 612.238281 609.527344 612.269531 C 606.390625 611.90625 606.285156 612.074219 609.277344 612.785156 L 609.421875 612.570312 C 610.917969 614.972656 612.128906 618.953125 613.019531 624.484375 C 613.875 630.074219 613.625 634.214844 612.308594 636.917969 C 611.203125 639.519531 608.742188 641.726562 605 643.515625 C 601.261719 645.269531 598.550781 646.050781 596.839844 645.851562 C 595.132812 645.621094 588.539062 643.730469 577.027344 640.183594 C 565.589844 636.636719 547.628906 635.09375 523.148438 635.558594 C 498.597656 635.992188 483.023438 636.054688 476.503906 635.773438 C 474.4375 635.722656 472.476562 635.660156 470.695312 635.558594 L 458.1875 633.222656 L 450.527344 629.527344 C 437.128906 623.195312 426.046875 612.023438 417.316406 596.027344 C 417.136719 595.695312 416.957031 595.382812 416.816406 595.097656 L 416.671875 595.035156 C 425.332031 579.117188 438.375 569.359375 455.871094 565.710938 L 455.941406 565.710938 L 455.941406 565.777344 C 456.371094 565.925781 456.761719 566.058594 457.117188 566.207031 C 462.464844 568.429688 468.558594 569.738281 475.398438 570.105469 C 483.417969 570.402344 495.355469 569.492188 511.140625 567.421875 C 519.335938 566.988281 530.953125 570.054688 546.027344 576.636719 C 554.152344 580.332031 560.066406 583.25 563.773438 585.371094 C 567.191406 587.226562 573.074219 590.277344 581.375 594.535156 C 583.871094 595.664062 595.167969 599.742188 615.230469 606.734375 L 610.738281 611.359375 L 610.027344 611.925781 L 609.992188 612.136719 " fill-opacity="1" fill-rule="evenodd"/><path fill="#e9cbb4" d="M 610.164062 612.074219 L 609.878906 612.355469 L 609.59375 612.503906 L 609.449219 612.722656 C 606.460938 612.007812 606.566406 611.84375 609.734375 612.207031 C 609.878906 612.171875 610.019531 612.125 610.164062 612.074219 " fill-opacity="1" fill-rule="evenodd"/><path fill="#f7d62f" d="M 362.75 245.53125 L 362.75 245.597656 C 362.683594 245.597656 362.578125 245.597656 362.476562 245.597656 C 362.203125 245.546875 362 245.53125 361.796875 245.53125 C 362 245.53125 362.203125 245.53125 362.476562 245.53125 C 362.578125 245.53125 362.683594 245.53125 362.75 245.53125 " fill-opacity="1" fill-rule="evenodd"/><path fill="#b02222" d="M 454.726562 314.210938 L 455.003906 314.492188 C 455.976562 315.4375 457.019531 316.199219 458.203125 316.761719 C 458.828125 316.914062 459.972656 317.292969 461.609375 317.90625 L 461.398438 317.90625 C 454.726562 316.25 447.355469 315.105469 439.253906 314.492188 C 436.613281 314.308594 433.832031 314.210938 430.945312 314.210938 C 427.191406 314.027344 423.4375 313.996094 419.578125 314.144531 C 414.921875 314.425781 405.328125 316.3125 390.898438 319.828125 C 361.386719 293.078125 351.859375 268.347656 362.359375 245.640625 C 362.464844 245.640625 362.566406 245.640625 362.636719 245.640625 L 362.636719 245.574219 C 362.566406 245.574219 362.464844 245.574219 362.359375 245.574219 C 363.75 242.589844 365.453125 239.65625 367.46875 236.757812 C 386.660156 236.671875 396.707031 236.671875 397.644531 236.757812 C 416.070312 238.378906 429.730469 239.558594 438.664062 240.320312 C 439.636719 240.355469 440.507812 240.453125 441.304688 240.601562 C 443.078125 240.652344 444.609375 240.832031 446 241.164062 C 446.242188 241.117188 446.519531 241.097656 446.832031 241.097656 C 447.113281 241 447.355469 241 447.496094 241.097656 C 447.5625 241.132812 447.667969 241.164062 447.703125 241.164062 C 448.640625 241.214844 449.371094 241.332031 449.894531 241.511719 L 449.960938 241.445312 C 452.917969 241.828125 455.59375 242.175781 458.0625 242.507812 C 462.652344 242.941406 466.578125 243.054688 469.847656 242.871094 C 470.75 243.253906 471.863281 243.703125 473.183594 244.214844 C 472.800781 244.265625 472.417969 244.378906 471.96875 244.578125 C 468.628906 245.242188 466.09375 246.085938 464.457031 247.132812 C 463.9375 247.464844 463.171875 248.308594 462.164062 249.683594 C 461.746094 250.199219 461.296875 250.746094 460.773438 251.308594 C 460.289062 251.640625 459.941406 252.019531 459.695312 252.453125 C 458.480469 254.292969 457.160156 256.445312 455.804688 258.917969 C 454.792969 261.234375 453.785156 263.886719 452.742188 266.855469 C 451.769531 269.277344 450.9375 271.929688 450.171875 274.8125 C 448.226562 282.234375 447.390625 288.851562 447.632812 294.617188 C 447.632812 297.269531 447.980469 299.890625 448.675781 302.492188 C 448.886719 303.785156 449.265625 305.011719 449.894531 306.1875 C 451.144531 309.320312 452.742188 311.988281 454.726562 314.210938 " fill-opacity="1" fill-rule="evenodd"/><path fill="#911c1c" d="M 483.113281 259.703125 C 482.101562 259.703125 480.917969 259.671875 479.558594 259.636719 C 476.042969 259.304688 472.492188 259.039062 468.835938 258.839844 C 463.644531 258.890625 459.292969 258.925781 455.777344 258.925781 C 457.167969 256.453125 458.457031 254.300781 459.675781 252.457031 C 459.921875 252.03125 460.269531 251.648438 460.753906 251.316406 C 461.277344 250.753906 461.730469 250.207031 462.148438 249.691406 C 463.160156 248.3125 463.925781 247.472656 464.445312 247.140625 C 466.082031 246.097656 468.625 245.25 471.96875 244.589844 C 472.386719 244.386719 472.769531 244.269531 473.152344 244.222656 C 473.363281 244.222656 473.605469 244.253906 473.882812 244.289062 C 474.929688 244.816406 475.765625 245.363281 476.355469 245.929688 C 478.65625 248.25 479.699219 250.753906 479.558594 253.453125 C 479.941406 254.066406 480.464844 254.730469 481.128906 255.441406 C 481.824219 256.816406 482.484375 258.230469 483.113281 259.703125 Z M 466.363281 315.078125 C 464.828125 316.105469 463.261719 317.050781 461.589844 317.914062 C 459.953125 317.300781 458.804688 316.921875 458.179688 316.769531 C 456.996094 316.207031 455.949219 315.445312 455.011719 314.5 L 454.730469 314.21875 C 457.03125 314.316406 459.710938 314.484375 462.8125 314.714844 C 464.03125 314.8125 465.214844 314.933594 466.363281 315.078125 " fill-opacity="1" fill-rule="evenodd"/><path fill="#f89865" d="M 483.125 259.691406 C 487.929688 260.207031 492.554688 260.785156 497.113281 261.398438 C 504.402344 262.527344 509.488281 263.636719 512.328125 264.730469 C 515.128906 265.773438 516.671875 266.519531 516.847656 267.003906 C 517.023438 267.480469 517.234375 267.664062 517.339844 267.5625 C 519.757812 267.5625 520.597656 272.203125 519.828125 281.484375 C 519.792969 282.234375 519.6875 283.09375 519.546875 284.042969 C 518.285156 297.863281 514.640625 306.730469 508.609375 310.65625 C 507.488281 311.375 505.105469 312.265625 501.53125 313.359375 C 498.09375 314.4375 496.375 314.988281 496.34375 314.988281 C 496.167969 315.085938 495.851562 315.199219 495.429688 315.351562 C 493.992188 315.351562 492.554688 315.316406 491.152344 315.265625 C 475.414062 314.988281 467.140625 314.921875 466.371094 315.066406 C 465.25 314.921875 464.058594 314.800781 462.832031 314.703125 C 459.746094 314.472656 457.046875 314.308594 454.734375 314.207031 C 452.734375 311.988281 451.15625 309.316406 449.894531 306.183594 C 449.300781 305.007812 448.878906 303.78125 448.703125 302.488281 C 448.003906 299.886719 447.652344 297.269531 447.652344 294.613281 C 447.40625 288.847656 448.25 282.234375 450.175781 274.808594 C 450.949219 271.925781 451.789062 269.269531 452.734375 266.851562 C 453.785156 263.886719 454.804688 261.234375 455.820312 258.910156 C 459.289062 258.910156 463.671875 258.878906 468.859375 258.832031 C 472.503906 259.027344 476.082031 259.292969 479.585938 259.628906 C 480.953125 259.660156 482.144531 259.691406 483.125 259.691406 " fill-opacity="1" fill-rule="evenodd"/><path stroke-linecap="butt" transform="matrix(0.340856, 0, 0, -0.340852, -5193.200375, 2603.810289)" fill="none" stroke-linejoin="miter" d="M 16300.000172 6918.769326 L 16300.000172 6918.574502 " stroke="#000000" stroke-width="0.486" stroke-opacity="1" stroke-miterlimit="10"/><path fill="#f89865" d="M 534.378906 402.109375 C 534.558594 402.386719 534.769531 402.738281 534.945312 403.167969 C 536.183594 405.71875 537.246094 408.007812 538.128906 410.046875 C 540.074219 414.917969 541.167969 419.09375 541.417969 422.542969 C 541.238281 426.238281 540.851562 429.289062 540.285156 431.707031 C 540.851562 429.289062 541.238281 426.238281 541.417969 422.542969 C 541.167969 419.09375 540.074219 414.917969 538.128906 410.046875 C 537.246094 408.007812 536.183594 405.71875 534.945312 403.167969 C 534.769531 402.738281 534.558594 402.386719 534.378906 402.109375 Z M 562.84375 394 C 568.253906 402.523438 570.445312 411.636719 569.457031 421.332031 C 567.902344 426.027344 565.355469 427.316406 561.855469 425.246094 C 562.386719 417.386719 559.875 408.421875 554.324219 398.328125 C 559.875 408.421875 562.386719 417.386719 561.855469 425.246094 C 561.855469 425.808594 561.820312 426.402344 561.714844 427.019531 C 560.476562 428.578125 558.882812 429.605469 556.941406 430.066406 C 554.394531 430.117188 553.121094 429.738281 553.121094 428.941406 C 555.667969 420.507812 552.589844 410.328125 543.820312 398.410156 C 552.589844 410.328125 555.667969 420.507812 553.121094 428.941406 C 552.980469 429.738281 552.695312 430.5 552.273438 431.214844 C 547.214844 435.09375 543.21875 435.257812 540.285156 431.707031 C 538.941406 437.277344 536.429688 439.601562 532.683594 438.652344 C 526.566406 438.140625 521.15625 432.554688 516.417969 421.914062 C 520.90625 422.226562 526.53125 420.585938 533.320312 416.941406 L 533.53125 416.855469 C 533.566406 416.824219 533.707031 416.792969 533.882812 416.792969 C 533.882812 416.660156 533.921875 416.558594 534.027344 416.511719 C 534.0625 416.363281 534.203125 416.246094 534.449219 416.160156 C 536.007812 414.734375 536.324219 413.0625 535.371094 411.109375 C 534.945312 410.261719 534.34375 409.382812 533.53125 408.488281 C 531.410156 407.0625 528.757812 406.53125 525.574219 406.847656 C 522.535156 407.042969 519.035156 407.988281 515.074219 409.695312 C 519.035156 407.988281 522.535156 407.042969 525.574219 406.847656 C 528.757812 406.53125 531.410156 407.0625 533.53125 408.488281 C 534.34375 409.382812 534.945312 410.261719 535.371094 411.109375 C 536.324219 413.0625 536.007812 414.734375 534.449219 416.160156 C 534.203125 416.246094 534.0625 416.363281 534.027344 416.511719 C 533.921875 416.558594 533.882812 416.660156 533.882812 416.792969 C 533.707031 416.792969 533.566406 416.824219 533.53125 416.855469 L 533.320312 416.941406 C 526.53125 420.585938 520.90625 422.226562 516.417969 421.914062 C 516.0625 421.914062 515.886719 421.914062 515.78125 421.914062 C 513.976562 421.664062 512.28125 421.148438 510.652344 420.339844 C 509.910156 419.773438 509.132812 419.113281 508.320312 418.347656 C 507.894531 417.9375 507.542969 417.601562 507.257812 417.355469 C 501.210938 410.542969 500.1875 403.761719 504.289062 396.984375 C 504.429688 396.703125 504.640625 396.355469 504.925781 395.925781 C 504.960938 395.691406 505.066406 395.578125 505.207031 395.578125 C 508.035156 389.660156 509.488281 376.945312 509.523438 357.4375 C 517.585938 349.117188 529.675781 349.332031 545.871094 358.082031 C 554.464844 366.753906 560.085938 378.71875 562.84375 394 C 558.53125 389.128906 555.703125 390.570312 554.324219 398.328125 C 553.15625 396.355469 551.917969 394.332031 550.644531 392.292969 C 547.640625 391.976562 545.375 394 543.820312 398.410156 C 542.6875 396.9375 541.558594 395.425781 540.460938 393.871094 C 540.355469 393.667969 540.25 393.539062 540.214844 393.4375 C 536.324219 393.15625 534.378906 396.042969 534.378906 402.109375 C 533.425781 400.25 532.433594 398.410156 531.339844 396.554688 C 525.117188 396.523438 523.207031 399.953125 525.574219 406.847656 C 523.207031 399.953125 525.117188 396.523438 531.339844 396.554688 C 532.433594 398.410156 533.425781 400.25 534.378906 402.109375 C 534.378906 396.042969 536.324219 393.15625 540.214844 393.4375 C 540.25 393.539062 540.355469 393.667969 540.460938 393.871094 C 541.558594 395.425781 542.6875 396.9375 543.820312 398.410156 C 545.378906 394 547.640625 391.976562 550.644531 392.292969 C 551.917969 394.332031 553.15625 396.355469 554.324219 398.328125 C 555.703125 390.570312 558.53125 389.128906 562.84375 394 " fill-opacity="1" fill-rule="evenodd"/><path stroke-linecap="butt" transform="matrix(0.353138, 0, 0, -0.353134, -5193.200375, 2603.810289)" fill="none" stroke-linejoin="miter" d="M 16296.80152 6164.319572 C 16297.100181 6166.056251 16297.199735 6167.748684 16297.199735 6169.341561 C 16298.704105 6191.58654 16291.602597 6216.984089 16275.895213 6245.567393 M 16272.499321 6158.866179 C 16279.700382 6182.770405 16270.895398 6211.586004 16246.194983 6245.335099 M 16219.403937 6234.870778 C 16219.901707 6234.074339 16220.49903 6233.07879 16220.996799 6231.862009 C 16224.503307 6224.627689 16227.500983 6218.156624 16230.100445 6212.382443 C 16235.598029 6198.577503 16238.69526 6186.752599 16239.303645 6176.985162 C 16238.794814 6166.531902 16237.699722 6157.892753 16236.095799 6151.03453 M 16194.504415 6221.441934 C 16187.801123 6240.965747 16193.199154 6250.677876 16210.798061 6250.589383 C 16213.895291 6245.335099 16216.704922 6240.114 16219.403937 6234.870778 C 16219.403937 6252.038459 16224.901522 6260.213018 16235.896691 6259.405518 C 16235.996245 6259.128977 16236.294906 6258.763942 16236.704183 6258.188736 C 16239.801414 6253.775138 16242.898645 6249.505341 16246.194983 6245.324037 C 16250.597475 6257.823702 16257.002106 6263.542575 16265.497367 6262.646581 C 16269.103428 6256.883462 16272.499321 6251.153527 16275.895213 6245.567393 C 16279.799936 6267.524769 16287.797428 6271.61758 16299.998304 6257.823702 M 16168.498739 6178.777149 C 16181.296939 6177.881155 16197.20343 6182.527049 16216.395199 6192.85863 L 16217.003584 6193.090925 C 16217.103138 6193.190479 16217.501353 6193.278973 16217.999122 6193.278973 C 16217.999122 6193.655069 16218.098676 6193.942672 16218.397337 6194.075411 C 16218.496891 6194.495754 16218.895107 6194.827604 16219.603045 6195.059898 C 16224.105091 6199.097401 16224.901522 6203.842849 16222.202507 6209.373674 C 16220.996799 6211.774052 16219.293322 6214.262923 16217.003584 6216.796041 C 16210.997168 6220.833543 16203.497446 6222.326866 16194.504415 6221.441934 C 16185.898538 6220.87779 16175.998462 6218.200871 16164.704631 6213.366929 " stroke="#954e40" stroke-width="0.469" stroke-opacity="1" stroke-miterlimit="10"/><path fill="#f89865" d="M 525.878906 273.808594 C 531.621094 280.152344 535.8125 286.535156 538.453125 292.984375 C 541.835938 303.011719 543.59375 314.59375 543.773438 327.757812 C 543.808594 336.042969 543.84375 341.980469 543.84375 345.574219 C 544.125 350.929688 545.425781 356.863281 547.75 363.394531 C 547.292969 363.644531 546.589844 364.140625 545.636719 364.882812 C 543.628906 365.976562 542.292969 366.804688 541.589844 367.371094 C 541.480469 367.371094 541.339844 367.371094 541.164062 367.371094 C 540.601562 367.753906 540.109375 368.085938 539.722656 368.367188 C 538.875 368.796875 538.066406 369.128906 537.257812 369.359375 C 536.410156 369.921875 534.753906 370.453125 532.359375 370.917969 C 529.894531 371.496094 527.886719 371.699219 526.300781 371.5625 C 524.71875 371.5625 523.34375 371.53125 522.285156 371.496094 C 520.949219 371.53125 519.574219 371.449219 518.203125 371.203125 C 517.320312 371.019531 516.195312 370.753906 514.890625 370.417969 C 513.761719 370.289062 511.828125 369.90625 509.113281 369.292969 C 509.113281 368.960938 509.183594 368.746094 509.289062 368.648438 C 509.675781 364.257812 509.148438 359.828125 507.636719 355.371094 C 505.734375 349.832031 503.375 345.128906 500.554688 341.25 C 498.335938 338.132812 495.34375 334.539062 491.679688 330.457031 C 490.800781 329.3125 490.023438 328.203125 489.320312 327.125 C 488.898438 326.648438 488.441406 326.183594 487.980469 325.699219 C 487.664062 325.238281 487.207031 324.738281 486.609375 324.210938 C 481.21875 314.234375 481.816406 302.742188 488.402344 289.78125 C 491.925781 282.921875 495.519531 277.785156 499.253906 274.371094 C 500.378906 273.476562 501.648438 272.480469 503.089844 271.402344 C 505.699219 269.695312 508.726562 267.839844 512.179688 265.851562 C 512.496094 265.851562 512.777344 265.765625 512.882812 265.570312 C 516.085938 266.183594 519.996094 268.535156 524.679688 272.59375 C 525.070312 273.027344 525.457031 273.421875 525.878906 273.808594 " fill-opacity="1" fill-rule="evenodd"/><path fill="#f89865" d="M 297.664062 578.683594 C 297.664062 579.066406 297.695312 579.515625 297.730469 580.042969 L 297.390625 578.054688 Z M 294.039062 569.105469 C 293.902344 568.058594 293.765625 567.066406 293.628906 566.121094 C 293.558594 565.375 293.558594 564.628906 293.628906 563.933594 C 293.558594 563.734375 293.527344 563.570312 293.527344 563.417969 C 293.527344 563.386719 293.558594 563.335938 293.628906 563.285156 L 293.628906 562.9375 C 293.628906 562.839844 293.59375 562.773438 293.527344 562.722656 C 293.59375 562.476562 293.59375 562.191406 293.527344 561.859375 C 294.109375 558.515625 294.859375 555.59375 295.75 553.125 L 295.542969 552.992188 C 298.003906 546.414062 302.824219 540.347656 310.074219 534.828125 C 313.765625 531.980469 318.140625 529.261719 323.132812 526.65625 C 323.816406 526.277344 324.464844 525.976562 325.113281 525.730469 C 324.464844 526.160156 324.429688 527.171875 325.011719 528.777344 C 325.59375 530.402344 326.140625 531.414062 326.550781 531.84375 C 326.925781 532.210938 329.148438 533.535156 333.148438 535.808594 C 337.113281 538.078125 342.960938 541.921875 350.617188 547.308594 C 359.4375 553.558594 368.941406 561.695312 379.164062 571.742188 C 378.207031 571.691406 374.515625 574.394531 368.085938 579.828125 C 362.207031 584.886719 359.78125 588.914062 360.769531 591.894531 C 339.710938 594.597656 319.027344 590.71875 298.722656 580.261719 C 297.96875 578.683594 297.527344 577.792969 297.390625 577.558594 C 295.335938 572.765625 294.242188 570.164062 294.105469 569.75 C 294.105469 569.699219 294.074219 569.601562 294.039062 569.46875 C 294.039062 569.320312 294.039062 569.203125 294.039062 569.105469 " fill-opacity="1" fill-rule="evenodd"/><path fill="#e9cbb4" d="M 294.058594 569.09375 C 293.890625 568.203125 293.722656 567.371094 293.554688 566.609375 C 293.554688 566.480469 293.585938 566.3125 293.65625 566.113281 C 293.585938 565.550781 293.554688 565 293.554688 564.488281 L 293.554688 564.339844 L 293.484375 564.207031 L 293.65625 563.925781 C 293.585938 564.621094 293.585938 565.367188 293.65625 566.113281 C 293.789062 567.058594 293.921875 568.050781 294.058594 569.09375 " fill-opacity="1" fill-rule="evenodd"/><path fill="#008395" d="M 412.890625 546.566406 C 389.667969 561.996094 375.730469 574.328125 371.15625 583.558594 C 369.125 581.421875 367.578125 580.246094 366.546875 580.011719 C 363.6875 579.484375 360.867188 578.753906 358.082031 577.8125 C 351.164062 575.589844 343.90625 572.371094 336.300781 568.144531 C 325.875 562.65625 317.6875 555.75 311.664062 547.429688 C 311.046875 546.382812 310.390625 545.371094 309.667969 544.378906 C 307.125 540.199219 305.230469 536.421875 304.0625 533.007812 C 303.304688 530.121094 302.996094 527.457031 303.132812 524.984375 C 305.851562 521.96875 309.667969 517.84375 314.625 512.636719 C 319.269531 507.617188 332.652344 492.597656 354.742188 467.554688 C 360.386719 468.515625 367.371094 470.585938 375.765625 473.800781 C 376.523438 474.136719 377.246094 474.464844 377.96875 474.796875 C 386.019531 478.03125 393.109375 481.277344 399.265625 484.589844 C 409.003906 489.761719 414.199219 500.621094 414.785156 517.179688 C 415.230469 524.621094 414.613281 534.417969 412.890625 546.566406 " fill-opacity="1" fill-rule="evenodd"/><path fill="#00a5bb" d="M 509.628906 564.921875 C 509.90625 565.867188 510.1875 566.644531 510.46875 567.261719 C 491.398438 587.796875 458.890625 597.246094 413.015625 595.585938 L 412.558594 594.03125 C 390.480469 561.9375 370.289062 528.257812 352.023438 493.003906 L 470.71875 419.675781 C 489.054688 432.871094 500.144531 455.195312 504.097656 486.625 C 506.652344 505.121094 507.632812 526.371094 507.074219 550.371094 C 507.214844 553.585938 507.457031 556.46875 507.84375 559.019531 C 508.261719 561.441406 508.859375 563.398438 509.628906 564.921875 Z M 507.703125 559.019531 C 507.703125 559.074219 507.703125 559.121094 507.703125 559.171875 L 507.84375 559.019531 L 507.703125 559.019531 " fill-opacity="1" fill-rule="evenodd"/><path fill="#d92b2b" d="M 282.433594 319.558594 C 282.363281 319.128906 282.328125 318.730469 282.257812 318.347656 C 282.152344 317.585938 281.980469 316.757812 281.804688 315.863281 C 280.300781 309.898438 278.933594 304.308594 277.605469 299.105469 C 276.277344 293.902344 275.679688 289.707031 275.820312 286.539062 C 275.820312 282.992188 275.960938 279.679688 276.242188 276.613281 C 277.464844 263.351562 280.265625 253.574219 284.566406 247.289062 C 305.488281 215.582031 331.9375 210.347656 363.914062 231.59375 C 365.523438 232.539062 368.671875 235.589844 373.359375 240.757812 C 373.5 240.84375 373.605469 240.957031 373.640625 241.109375 C 374.164062 241.589844 381.234375 253.605469 394.878906 277.175781 C 395.578125 278.355469 396.277344 279.5625 396.941406 280.789062 C 397.675781 282.3125 398.550781 283.820312 399.496094 285.332031 C 401.246094 288.082031 402.960938 290.851562 404.671875 293.636719 C 405.757812 295.390625 406.914062 297.199219 408.066406 299.039062 C 408.871094 300.3125 409.675781 301.542969 410.515625 302.734375 C 416.636719 312.246094 423.285156 321.914062 430.457031 331.757812 C 432.3125 334.230469 434.167969 336.679688 436.054688 339.152344 C 437.140625 340.808594 438.328125 342.464844 439.589844 344.121094 C 441.617188 346.808594 443.71875 349.511719 445.851562 352.210938 C 446.097656 352.34375 446.339844 352.542969 446.621094 352.773438 C 450.574219 358.410156 455.613281 365.289062 461.734375 373.429688 C 472.789062 387.832031 480.277344 397.878906 484.265625 403.613281 C 492.242188 415.113281 498.820312 426.140625 503.996094 436.695312 C 506.0625 441.238281 507.882812 445.628906 509.457031 449.890625 C 503.019531 448.996094 496.40625 448.679688 489.582031 448.976562 C 485.421875 449.210938 481.117188 449.726562 476.742188 450.539062 C 460.019531 453.371094 443.4375 459.851562 427.03125 469.980469 C 411.8125 479.410156 393.792969 487.929688 373.011719 495.539062 C 366.015625 498.140625 359.613281 500.230469 353.769531 501.789062 L 282.433594 319.558594 " fill-opacity="1" fill-rule="evenodd"/><path fill="#eb6d2f" d="M 282.304688 319.605469 L 282.238281 319.324219 C 282.203125 318.945312 282.171875 318.628906 282.171875 318.398438 C 282.203125 318.777344 282.269531 319.175781 282.304688 319.605469 " fill-opacity="1" fill-rule="evenodd"/><path fill="#413e3e" d="M 257.554688 46.386719 C 257.585938 46.386719 257.652344 46.386719 257.785156 46.386719 C 257.652344 46.402344 257.585938 46.421875 257.554688 46.46875 L 257.554688 46.386719 " fill-opacity="1" fill-rule="evenodd"/><path fill="#f89865" d="M 320.453125 225.382812 C 320.25 225.714844 320.078125 226.046875 319.945312 226.378906 C 317.300781 229.929688 314.152344 233.640625 310.496094 237.515625 C 300.8125 247.410156 293.023438 254.324219 287.199219 258.25 C 283.441406 260.472656 280.796875 262.445312 279.34375 264.136719 C 276.363281 258.933594 273.246094 254.226562 270.03125 250.015625 C 269.894531 249.917969 269.792969 249.800781 269.757812 249.667969 C 267.625 246.816406 265.355469 244.363281 263.019531 242.273438 C 262.816406 241.992188 262.578125 241.730469 262.308594 241.496094 C 262.140625 241.363281 262.070312 241.261719 262.003906 241.214844 C 262.003906 241.164062 262.003906 241.148438 261.9375 241.148438 C 261.597656 240.867188 261.226562 240.550781 260.820312 240.21875 C 260.140625 239.789062 259.429688 239.292969 258.617188 238.730469 L 314.898438 189.1875 C 315.101562 192.867188 315.609375 196.25 316.457031 199.332031 C 318.214844 205.679688 321.570312 210.335938 326.480469 213.320312 C 325.226562 217.148438 323.328125 221.027344 320.789062 224.953125 C 320.65625 225.152344 320.519531 225.285156 320.453125 225.382812 " fill-opacity="1" fill-rule="evenodd"/><path fill="#fadeca" d="M 289.113281 272.230469 C 286.519531 273.222656 284.566406 274.21875 283.285156 275.210938 C 283.457031 274.167969 283.722656 273.1875 284.0625 272.296875 L 284.0625 271.945312 C 286.855469 268.914062 288.539062 269.011719 289.113281 272.230469 Z M 289.246094 272.160156 C 291.199219 269.3125 293.1875 268.46875 295.273438 269.59375 C 293.757812 270.257812 292.3125 270.886719 290.964844 271.453125 C 290.289062 271.632812 289.71875 271.867188 289.246094 272.160156 " fill-opacity="1" fill-rule="evenodd"/><path stroke-linecap="butt" transform="matrix(0.336343, 0, 0, -0.33634, -5193.200375, 2603.810289)" fill="none" stroke-linejoin="miter" d="M 16299.595969 6932.156198 C 16299.595969 6932.30718 16299.805019 6932.36525 16300.002454 6932.36525 M 16282.302902 6923.294718 C 16282.802298 6926.395655 16283.603656 6929.299155 16284.60245 6931.95876 L 16284.60245 6933.00402 " stroke="#2b2b2b" stroke-width="0.493" stroke-opacity="1" stroke-miterlimit="10"/><path fill="#ff3333" d="M 345.324219 221.582031 C 337.101562 234.363281 323.203125 248.453125 303.734375 263.835938 C 303.15625 264.25 302.578125 264.628906 302 264.960938 L 301.730469 265.390625 C 293.0625 274.046875 284.707031 283.921875 276.617188 294.996094 C 275.054688 271.605469 272.132812 262.742188 267.851562 268.375 C 264.792969 261.746094 265.609375 255.398438 270.367188 249.347656 C 298.128906 236.039062 317.085938 222.675781 327.214844 209.234375 C 335.027344 210.894531 341.078125 215.003906 345.324219 221.582031 " fill-opacity="1" fill-rule="evenodd"/><path fill="#f89865" d="M 243.78125 363.4375 C 247.71875 364.714844 251.488281 366.089844 255.085938 367.550781 C 268.476562 373.035156 279.542969 380.84375 288.292969 390.96875 C 288.527344 391.070312 288.695312 391.21875 288.796875 391.398438 C 288.929688 391.585938 289 391.78125 289 391.964844 C 290.34375 399.972656 290.613281 407.511719 289.871094 414.625 C 289.167969 422.046875 287.71875 426.90625 285.601562 429.175781 C 283.378906 431.296875 281.328125 432.574219 279.410156 433.003906 C 277.828125 433.46875 275.640625 433.933594 272.882812 434.347656 C 270.058594 434.628906 264.4375 434.230469 256.0625 433.152344 C 247.582031 431.828125 235.875 424.800781 220.9375 412.054688 C 206.101562 399.371094 193.921875 388.816406 184.300781 380.394531 C 178.75 375.191406 174.949219 371.859375 172.863281 370.382812 C 172.695312 369.867188 172.457031 369.207031 172.15625 368.394531 C 171.179688 364.996094 172.355469 361.53125 175.722656 358.035156 C 185.242188 350.691406 191.769531 346.484375 195.300781 345.402344 C 196.242188 345.074219 198.09375 344.875 200.851562 344.824219 C 203.410156 344.824219 205.191406 344.695312 206.234375 344.410156 C 207.210938 345.4375 208.152344 346.367188 209.0625 347.179688 C 211.6875 349.449219 214.445312 351.4375 217.371094 353.144531 C 219.289062 354.371094 221.207031 355.535156 223.191406 356.609375 C 226.457031 358.132812 233.320312 360.40625 243.78125 363.4375 " fill-opacity="1" fill-rule="evenodd"/><path fill="#f89865" d="M 280.871094 423.574219 C 281.007812 421.402344 280.972656 421.339844 280.804688 423.359375 C 280.804688 423.460938 280.835938 423.527344 280.871094 423.574219 Z M 254.394531 364.371094 C 254.425781 364.136719 254.53125 363.921875 254.699219 363.742188 C 255.207031 362.59375 255.78125 361.535156 256.457031 360.542969 C 257.269531 358.882812 258.417969 356.613281 259.941406 353.726562 C 262.613281 352.5 266.230469 351.757812 270.726562 351.523438 C 275.933594 351.289062 282.664062 352.515625 290.949219 355.21875 C 295.820312 356.726562 300.789062 358.984375 305.792969 361.964844 C 306.976562 362.714844 308.195312 363.542969 309.480469 364.453125 C 310.191406 365.015625 310.867188 365.480469 311.476562 365.859375 C 313.472656 367.054688 315.398438 368.464844 317.292969 370.121094 L 317.730469 370.335938 C 318.003906 370.570312 318.339844 370.820312 318.78125 371.046875 C 314.554688 375.492188 310.800781 381.457031 307.417969 388.933594 L 307.28125 389.148438 C 306.46875 390.90625 304.207031 394.835938 300.453125 400.933594 L 285.066406 428.265625 C 284.695312 427.835938 284.21875 427.554688 283.644531 427.421875 C 283.207031 427.320312 282.800781 427.222656 282.359375 427.121094 C 282.730469 427.089844 283.207031 427.058594 283.710938 427.058594 C 277.21875 425.777344 271.539062 424.15625 266.601562 422.167969 C 257.402344 418.570312 250.640625 414.445312 246.246094 409.800781 C 241.984375 405.207031 239.652344 399.921875 239.277344 393.90625 C 239.378906 393.753906 239.414062 393.640625 239.414062 393.558594 L 239.277344 393.40625 L 241.746094 389 L 240.699219 390.640625 C 247.359375 377.578125 251.351562 369.839844 252.601562 367.421875 C 252.804688 367.1875 253.414062 366.175781 254.394531 364.371094 " fill-opacity="1" fill-rule="evenodd"/><path fill="#fadeca" d="M 277.105469 429.585938 C 277.105469 429.449219 277.105469 429.351562 277.105469 429.300781 C 277.207031 429.300781 277.238281 429.335938 277.238281 429.382812 C 277.238281 429.417969 277.207031 429.5 277.105469 429.585938 " fill-opacity="1" fill-rule="evenodd"/><path fill="#ff3333" d="M 331.921875 384.535156 C 329.84375 382.78125 327.972656 381.191406 326.304688 379.78125 C 326.03125 379.53125 325.757812 379.300781 325.484375 379.070312 C 324.871094 378.503906 324.089844 377.90625 323.203125 377.292969 C 320.445312 375.15625 317.890625 373.164062 315.472656 371.328125 C 315.265625 371.328125 315.128906 371.261719 315.097656 371.113281 C 314.753906 370.878906 314.449219 370.664062 314.175781 370.480469 C 313.800781 370.285156 313.425781 370.050781 313.050781 369.769531 L 312.917969 369.902344 C 312.917969 369.71875 312.917969 369.601562 312.917969 369.550781 L 312.679688 369.550781 C 312.644531 369.453125 312.574219 369.40625 312.542969 369.40625 C 310.734375 367.898438 308.929688 366.671875 307.160156 365.722656 C 305.285156 364.25 303.445312 363.085938 301.609375 362.242188 C 296.632812 359.359375 291.695312 357.171875 286.789062 355.710938 C 285.699219 355.515625 284.609375 355.285156 283.519531 355 L 279.261719 354.007812 C 273.507812 353.191406 267.785156 353.324219 261.992188 354.355469 L 262.574219 353.722656 C 261.074219 354.15625 259.710938 354.550781 258.519531 354.933594 C 258.28125 354.964844 258.078125 355.019531 257.871094 355.066406 C 257.191406 355.164062 256.542969 355.347656 256.03125 355.632812 C 255.792969 355.78125 255.488281 355.898438 255.113281 355.996094 C 254.5 356.175781 253.953125 356.378906 253.476562 356.558594 C 252.96875 356.839844 252.421875 357.089844 251.84375 357.273438 C 251.46875 357.320312 251.160156 357.4375 250.921875 357.621094 C 251.160156 357.386719 251.332031 357.15625 251.503906 356.921875 C 252.046875 355.679688 252.726562 354.433594 253.476562 353.160156 C 254.875 350.507812 256.578125 347.609375 258.519531 344.492188 L 263.355469 334.910156 L 279.875 293.804688 C 319.832031 266.636719 346.160156 270.519531 358.898438 305.441406 C 356.855469 314.871094 353.246094 326.359375 348.035156 339.949219 C 342.3125 354.433594 339.347656 361.910156 339.144531 362.375 C 339.042969 362.957031 338.835938 363.519531 338.597656 364.082031 C 338.085938 365.6875 337.507812 367.347656 336.894531 369.054688 C 334.921875 375.023438 333.25 380.0625 331.921875 384.171875 C 331.921875 384.371094 331.921875 384.488281 331.921875 384.535156 " fill-opacity="1" fill-rule="evenodd"/><path fill="#b02222" d="M 315.136719 371.105469 C 315.171875 371.253906 315.308594 371.320312 315.476562 371.320312 C 317.882812 373.160156 320.460938 375.148438 323.207031 377.285156 C 324.121094 377.898438 324.867188 378.496094 325.476562 379.0625 C 325.78125 379.292969 326.050781 379.527344 326.324219 379.773438 C 327.984375 381.183594 329.847656 382.773438 331.949219 384.527344 C 331.949219 384.613281 331.882812 384.710938 331.746094 384.8125 C 331.476562 385.421875 331.273438 386.039062 331.101562 386.652344 C 330.695312 387.546875 330.152344 388.09375 329.476562 388.292969 C 328.425781 388.707031 327.273438 389.121094 325.984375 389.5 C 324.5625 389.816406 321.949219 389.800781 318.1875 389.421875 C 315.578125 389.085938 312.664062 388.972656 309.445312 389.070312 C 308.019531 389.070312 306.867188 389.5 305.953125 390.347656 Z M 262.023438 354.347656 L 254.699219 362.085938 C 252.023438 360.050781 250.734375 358.574219 250.9375 357.613281 C 251.175781 357.429688 251.480469 357.3125 251.851562 357.261719 C 252.429688 357.082031 252.972656 356.832031 253.515625 356.550781 C 253.953125 356.367188 254.496094 356.171875 255.109375 355.988281 C 255.515625 355.890625 255.820312 355.769531 256.054688 355.621094 C 256.566406 355.339844 257.210938 355.15625 257.886719 355.058594 C 258.089844 355.007812 258.292969 354.960938 258.53125 354.925781 C 259.71875 354.542969 261.074219 354.148438 262.597656 353.71875 L 262.023438 354.347656 " fill-opacity="1" fill-rule="evenodd"/><path fill="#987f05" d="M 314.21875 370.472656 C 314.488281 370.652344 314.792969 370.871094 315.132812 371.101562 C 314.691406 370.921875 314.320312 370.773438 314.050781 370.671875 C 314.21875 370.589844 314.253906 370.523438 314.21875 370.472656 " fill-opacity="1" fill-rule="evenodd"/><path fill="#f89865" d="M 156.410156 305.5 C 153.058594 300.097656 150.902344 294.5625 150.039062 288.875 C 150.898438 294.5625 153.058594 300.097656 156.410156 305.5 Z M 150.304688 326.222656 C 147.148438 322.011719 144.695312 318.015625 143.003906 314.21875 C 144.695312 318.015625 147.148438 322.011719 150.304688 326.222656 Z M 163.011719 279.878906 C 163.410156 282.761719 165.566406 286.722656 169.484375 291.792969 C 169.582031 292.125 169.75 292.457031 170.046875 292.789062 C 169.75 292.457031 169.582031 292.125 169.484375 291.792969 C 165.566406 286.722656 163.410156 282.761719 163.011719 279.878906 Z M 202.632812 279.378906 C 201.972656 283.722656 202.867188 288.542969 205.324219 293.851562 C 207.546875 299.386719 208.773438 302.238281 208.941406 302.367188 L 208.941406 302.433594 C 209.703125 303.859375 210.398438 305.300781 210.996094 306.777344 C 215.84375 318.511719 214.449219 330.960938 206.816406 344.121094 L 184.019531 375.910156 L 176.71875 373.855469 C 157.96875 359.140625 146.421875 347.4375 142.007812 338.71875 C 140.945312 336.832031 140.082031 335.054688 139.386719 333.394531 C 135.402344 323.78125 136.597656 317.402344 143.003906 314.21875 C 138.886719 305.949219 138.222656 299.105469 141.078125 293.71875 C 141.609375 292.191406 142.339844 291.078125 143.269531 290.371094 C 145.09375 288.429688 147.316406 287.929688 150.039062 288.875 C 149.375 285.144531 149.242188 281.332031 149.671875 277.453125 C 149.804688 277.226562 149.839844 277.011719 149.738281 276.8125 C 149.839844 274.871094 150.636719 272.929688 152.160156 270.992188 C 153.65625 268.953125 155.480469 267.628906 157.636719 267.015625 C 159.761719 266.5 162.515625 266.5 165.933594 267.015625 C 169.285156 267.542969 169.648438 269.816406 166.996094 273.828125 C 166.429688 273.878906 166 274.042969 165.667969 274.320312 C 163.476562 275.183594 162.515625 276.859375 162.8125 279.378906 C 162.847656 279.414062 162.914062 279.578125 163.011719 279.878906 C 171.109375 279.394531 176.085938 281.980469 178.011719 287.597656 C 178.578125 292.058594 175.921875 293.78125 170.046875 292.789062 C 173.132812 297.277344 176.054688 300.691406 178.84375 303.015625 C 182.027344 305.800781 184.980469 307.074219 187.800781 306.84375 C 192.117188 305.136719 193.210938 299.054688 191.121094 288.59375 C 191.085938 288.511719 191.019531 288.363281 190.921875 288.179688 C 190.820312 287.21875 190.6875 286.359375 190.488281 285.542969 C 189.0625 278.25 191.453125 274.292969 197.589844 273.628906 L 197.890625 273.546875 C 203.035156 274.304688 204.625 276.246094 202.636719 279.378906 " fill-opacity="1" fill-rule="evenodd"/><path stroke-linecap="butt" transform="matrix(0.329034, 0, 0, -0.32903, -5193.200375, 2603.810289)" fill="none" stroke-linejoin="miter" d="M 16258.602041 6985.103536 C 16248.404089 7001.522525 16241.898294 7018.345161 16239.096529 7035.630807 M 16239.998792 6922.1344 C 16230.406306 6934.932425 16222.998248 6947.065619 16217.798361 6958.605212 M 16278.594301 7062.983916 C 16279.805234 7054.222373 16286.299157 7042.184156 16298.301636 7026.762416 C 16298.598433 7025.765167 16299.097052 7024.744174 16299.999316 7023.735054 " stroke="#954e40" stroke-width="0.504" stroke-opacity="1" stroke-miterlimit="10"/><path fill="#fefffe" d="M 599.386719 586.699219 C 606.109375 595.214844 605.503906 608.425781 597.605469 626.3125 C 585.582031 630.621094 580.886719 638.132812 583.554688 648.820312 L 537.195312 639.589844 C 537.160156 639.503906 537.125 639.523438 537.125 639.652344 C 533.066406 641.179688 530.292969 640.632812 528.832031 638.03125 C 529.261719 636.605469 529.757812 635.328125 530.363281 634.199219 C 538.832031 614.410156 541 593.0625 536.910156 570.160156 C 540.894531 569.410156 544.914062 570.289062 548.898438 572.792969 L 595.1875 585.851562 L 599.386719 586.699219 " fill-opacity="1" fill-rule="evenodd"/><path fill="#d8d9d8" d="M 588.667969 650.699219 C 588.847656 639.148438 593.996094 631.558594 604.144531 627.910156 C 604.902344 628.191406 605.730469 628.421875 606.628906 628.625 C 598.0625 640.539062 594.785156 649.824219 596.839844 656.453125 Z M 602.5625 587.300781 C 609.582031 595.871094 609.113281 609.148438 601.15625 627.128906 C 589.132812 631.476562 584.417969 638.914062 587.011719 649.421875 L 583.664062 648.777344 C 581.035156 638.085938 585.714844 630.578125 597.738281 626.269531 C 605.65625 608.382812 606.234375 595.171875 599.5 586.652344 Z M 603.496094 665.039062 L 598.242188 658.222656 C 596.550781 652.023438 599.863281 642.347656 608.25 629.1875 C 612.316406 630.746094 615.519531 632.734375 617.894531 635.152344 C 610.046875 643.855469 605.226562 653.816406 603.496094 665.039062 Z M 609.402344 675.265625 L 605.261719 668.023438 C 608.105469 654.578125 612.785156 644.183594 619.300781 636.84375 C 628.480469 648.117188 625.132812 660.914062 609.402344 675.265625 Z M 618.183594 582.046875 L 620.8125 582.695312 C 625.347656 598.105469 635.425781 607.007812 651.046875 609.378906 L 643.308594 588.363281 L 658.714844 591.496094 C 671.53125 632.003906 674.195312 664.472656 666.671875 688.886719 C 659.113281 713.453125 652.34375 724.90625 646.441406 723.25 C 654.289062 704.453125 658.285156 684.230469 658.355469 662.550781 C 642.949219 657.113281 627.867188 665.75 613.144531 688.457031 C 612.820312 687.5625 612.496094 686.617188 612.136719 685.625 C 627.21875 662.289062 642.589844 653.550781 658.355469 659.417969 C 658.175781 644.566406 656.089844 628.855469 652.128906 612.277344 C 633.734375 610.539062 622.429688 600.460938 618.183594 582.046875 " fill-opacity="1" fill-rule="evenodd"/><path fill="#5c5d5c" d="M 599.609375 586.621094 L 595.414062 585.777344 C 597.546875 582.660156 599.289062 581.085938 600.675781 581.085938 L 602.664062 587.265625 L 599.609375 586.621094 " fill-opacity="1" fill-rule="evenodd"/><path fill="#fdfffd" d="M 646.46875 723.238281 C 632.648438 725.941406 621.554688 714.339844 613.15625 688.449219 C 627.875 665.746094 642.953125 657.105469 658.386719 662.542969 C 658.28125 684.226562 654.332031 704.445312 646.46875 723.238281 Z M 620.835938 582.683594 L 643.347656 588.355469 L 651.066406 609.371094 C 635.449219 607 625.398438 598.101562 620.835938 582.683594 Z M 602.601562 587.292969 L 600.589844 581.109375 C 605.042969 579.652344 610.929688 579.949219 618.21875 582.039062 C 622.453125 600.453125 633.761719 610.53125 652.140625 612.273438 C 656.125 628.847656 658.210938 644.558594 658.386719 659.410156 C 642.628906 653.542969 627.226562 662.28125 612.1875 685.613281 L 609.421875 675.257812 C 625.183594 660.902344 628.484375 648.105469 619.328125 636.835938 C 612.796875 644.179688 608.128906 654.574219 605.292969 668.011719 L 603.5 665.03125 C 605.257812 653.808594 610.066406 643.847656 617.929688 635.144531 C 615.5625 632.726562 612.328125 630.734375 608.273438 629.179688 C 599.910156 642.339844 596.570312 652.019531 598.257812 658.214844 L 596.855469 656.441406 C 594.808594 649.8125 598.078125 640.53125 606.65625 628.613281 C 605.757812 628.417969 604.933594 628.183594 604.144531 627.902344 C 594.019531 631.546875 588.886719 639.140625 588.671875 650.691406 L 587.054688 649.417969 C 584.4375 638.90625 589.136719 631.464844 601.164062 627.125 C 609.132812 609.140625 609.601562 595.863281 602.601562 587.292969 " fill-opacity="1" fill-rule="evenodd"/><path fill="#fefffe" d="M 375.78125 700.90625 L 376.125 703.890625 C 366.011719 711.035156 350.121094 713.882812 328.496094 712.476562 C 328.015625 712.242188 327.539062 712.078125 327.09375 711.976562 C 325.417969 711.546875 323.574219 711.613281 321.558594 712.191406 L 317.835938 669.03125 C 317.800781 668.980469 317.730469 668.980469 317.628906 669.03125 C 315.375 666.097656 315.101562 663.742188 316.84375 662.003906 C 317.9375 662.003906 319.0625 662.003906 320.191406 662.003906 C 338.230469 663.613281 355.863281 659.734375 373.082031 650.355469 C 374.824219 653.382812 375.132812 656.785156 374.007812 660.578125 L 375.78125 700.90625 " fill-opacity="1" fill-rule="evenodd"/><path fill="#d8d9d8" d="M 315.148438 728.5 L 318.472656 723.3125 L 326.832031 724.023438 L 323.371094 729.628906 Z M 313.984375 729.777344 L 322.582031 730.773438 C 316.722656 737.867188 311.824219 739.707031 307.882812 736.308594 L 308.398438 736.09375 Z M 385.078125 720.480469 C 367.707031 726.675781 359.792969 740.667969 361.335938 762.429688 L 389.875 752.980469 L 391.726562 761.585938 C 350.40625 777.53125 319.5 785.652344 298.941406 785.933594 C 278.589844 786.066406 271.359375 782.949219 277.21875 776.550781 C 283.386719 779.585938 296.917969 779.039062 317.890625 774.929688 C 314.976562 753.527344 308.980469 742.289062 299.933594 741.199219 C 300.175781 741.015625 300.414062 740.847656 300.722656 740.71875 C 310.488281 740.949219 316.859375 752.238281 319.875 774.5625 L 358.730469 763.289062 C 356.265625 739.058594 364.933594 723.960938 384.703125 717.992188 Z M 320.734375 716.933594 L 330.804688 717.496094 L 327.960938 722.183594 L 319.601562 721.542969 L 320.011719 720.761719 Z M 376.171875 703.871094 L 376.546875 707.136719 C 366.441406 714.328125 351.910156 717.179688 332.894531 715.722656 C 332.519531 715.671875 332.210938 715.625 331.902344 715.574219 L 331.800781 715.851562 L 321.109375 714.941406 L 321.589844 712.171875 C 323.609375 711.59375 325.460938 711.53125 327.140625 711.957031 C 327.585938 712.058594 328.066406 712.226562 328.542969 712.457031 C 350.164062 713.867188 366.0625 711.015625 376.171875 703.871094 " fill-opacity="1" fill-rule="evenodd"/><path fill="#fdfffd" d="M 277.246094 776.546875 C 270.980469 762.96875 278.582031 751.1875 299.957031 741.191406 C 309 742.285156 314.992188 753.523438 317.90625 774.925781 C 296.941406 779.035156 283.378906 779.578125 277.246094 776.546875 Z M 389.902344 752.976562 L 361.371094 762.425781 C 359.796875 740.664062 367.707031 726.671875 385.074219 720.472656 Z M 319.617188 721.535156 L 328.007812 722.179688 L 330.816406 717.492188 L 320.746094 716.925781 L 321.125 714.9375 L 331.8125 715.851562 L 331.914062 715.566406 C 332.222656 715.617188 332.5625 715.667969 332.90625 715.714844 C 351.917969 717.175781 366.472656 714.324219 376.542969 707.128906 C 379.285156 704.5625 380.210938 703.003906 379.25 702.441406 C 381.511719 703.566406 383.328125 708.757812 384.730469 717.988281 C 364.933594 723.953125 356.265625 739.050781 358.734375 763.285156 L 319.890625 774.558594 C 316.875 752.234375 310.503906 740.941406 300.742188 740.710938 L 307.902344 736.300781 C 311.839844 739.699219 316.738281 737.859375 322.597656 730.765625 L 314 729.773438 L 315.097656 728.496094 L 315.164062 728.496094 L 323.386719 729.625 L 326.84375 724.019531 L 318.488281 723.308594 L 319.617188 721.535156 " fill-opacity="1" fill-rule="evenodd"/><path fill="#5c5d5c" d="M 376.519531 707.140625 L 376.175781 703.875 L 375.832031 700.890625 C 378.945312 701.839844 380.074219 702.304688 379.21875 702.304688 C 379.152344 702.449219 379.152344 702.5 379.21875 702.449219 C 380.175781 703.015625 379.253906 704.574219 376.519531 707.140625 " fill-opacity="1" fill-rule="evenodd"/><path fill="#f89865" d="M 187.617188 217.496094 L 188.53125 217.300781 C 188.734375 217.25 188.941406 217.21875 189.246094 217.21875 C 195.015625 216.472656 200.277344 212.609375 205.066406 205.648438 C 200.277344 212.609375 195.015625 216.472656 189.246094 217.21875 C 188.941406 217.21875 188.734375 217.25 188.53125 217.300781 L 187.617188 217.496094 L 183.78125 217.996094 L 179.535156 198.6875 C 170.84375 194.113281 169.011719 189.105469 174.003906 183.71875 C 176.546875 181.167969 179.910156 179.011719 184.050781 177.257812 C 185.308594 171.339844 184.59375 164.742188 181.914062 157.449219 C 180.078125 152.625 177.089844 146.839844 172.914062 140.128906 C 170.371094 136.019531 169.078125 131.09375 169.078125 125.359375 L 169.792969 117.984375 C 172.441406 104.492188 180.757812 91.269531 194.777344 78.304688 C 201.773438 71.757812 208.460938 66.585938 214.808594 62.757812 C 231.988281 48.886719 248.554688 42.570312 264.511719 43.796875 C 277.890625 44.742188 290.519531 50.941406 302.332031 62.394531 C 311.839844 71.578125 320.15625 83.292969 327.253906 97.53125 C 332.957031 109.085938 336.691406 119.277344 338.386719 128.128906 C 340.664062 140.675781 337.84375 154.796875 329.933594 170.511719 C 325.929688 178.597656 316.761719 192.953125 302.402344 213.539062 C 293.371094 226.679688 278.738281 236.078125 258.539062 241.714844 C 242.988281 246.074219 228.730469 247.5625 215.726562 246.1875 C 207.78125 245.246094 201.058594 242.160156 195.558594 236.957031 C 193.964844 235.300781 192.539062 233.542969 191.382812 231.703125 L 189.957031 229.28125 C 188.601562 225.785156 187.785156 221.855469 187.617188 217.496094 " fill-opacity="1" fill-rule="evenodd"/><path stroke-linecap="butt" transform="matrix(0.331197, 0, 0, -0.331193, -5193.200375, 2603.810289)" fill="none" stroke-linejoin="miter" d="M 16247.301137 7205.495832 L 16250.096398 7206.085556 C 16250.603555 7206.238884 16251.299422 7206.345034 16252.195793 7206.345034 C 16269.604256 7208.585984 16285.503043 7220.250717 16299.998301 7241.268466 " stroke="#000033" stroke-width="2.502" stroke-opacity="1" stroke-miterlimit="10"/><path fill="#330000" d="M 250.800781 27.503906 C 258.539062 24.484375 266.140625 22.5625 273.507812 21.765625 C 297.167969 19.296875 314.625 28.527344 325.84375 49.445312 C 338.832031 73.8125 345.722656 86.808594 346.4375 88.414062 C 353.800781 103.746094 358.300781 117.222656 359.90625 128.808594 C 364.371094 159.855469 349.777344 186.34375 316.09375 208.253906 C 312.820312 208.054688 309.613281 207.074219 306.613281 205.269531 C 300.578125 201.625 298.328125 195.621094 299.792969 187.234375 C 298.566406 178.152344 295.601562 170.957031 290.894531 165.65625 C 281.382812 155.0625 267.882812 159.289062 250.355469 178.367188 C 249.027344 171.027344 246.808594 162.703125 243.707031 153.371094 C 237.46875 134.59375 229.796875 120.105469 220.691406 109.929688 C 213.394531 109.746094 206.03125 108.617188 198.632812 106.597656 C 183.800781 102.667969 175.992188 96.355469 175.210938 87.636719 C 175.347656 86.84375 175.585938 85.796875 175.925781 84.519531 C 176.605469 81.917969 177.628906 79.445312 178.960938 77.128906 C 183.085938 69.75 189.425781 65.125 198.054688 63.285156 L 200.167969 58.597656 C 202.28125 54.816406 204.667969 51.335938 207.429688 48.171875 C 216.464844 37.941406 227.785156 32.472656 241.355469 31.761719 L 250.800781 27.503906 " fill-opacity="1" fill-rule="evenodd"/><path fill="#330000" d="M 216.652344 120.503906 C 194.582031 119.375 181.238281 108.203125 176.527344 87.007812 L 187.710938 83.441406 C 189.136719 100.296875 198.828125 112.648438 216.652344 120.503906 " fill-opacity="1" fill-rule="evenodd"/><path fill="#77390d" d="M 286.359375 177.011719 C 285.550781 175.125 284.273438 173.78125 282.527344 172.96875 C 280.441406 172.125 278.054688 172.175781 275.433594 173.121094 C 276.375 173.582031 277.113281 174.296875 277.617188 175.242188 C 278.425781 176.898438 278.558594 178.753906 278.054688 180.777344 C 277.515625 183.097656 276.507812 184.96875 274.929688 186.394531 C 273.214844 187.722656 271.535156 188.335938 269.886719 188.234375 C 268.171875 188.1875 266.960938 187.40625 266.1875 185.898438 C 265.28125 184.242188 265.113281 182.238281 265.71875 179.863281 C 266.152344 177.972656 267.09375 176.382812 268.472656 175.105469 C 269.785156 173.449219 271.265625 172.175781 272.945312 171.277344 C 276.070312 169.421875 278.996094 169.191406 281.753906 170.566406 C 284.140625 171.644531 285.6875 173.800781 286.359375 177.011719 " fill-opacity="1" fill-rule="evenodd"/><path fill="#3a210b" d="M 218.320312 130.257812 L 219.082031 138.992188 C 210.316406 136.339844 199.890625 134.878906 187.773438 134.585938 C 185.515625 128.964844 184.683594 124.109375 185.316406 120.046875 C 197.933594 120.992188 208.921875 124.390625 218.320312 130.257812 " fill-opacity="1" fill-rule="evenodd"/><path fill="#000000" d="M 192.039062 151.960938 C 194.527344 148.929688 197.75 147.222656 201.664062 146.839844 C 205.582031 146.507812 209.132812 147.621094 212.253906 150.171875 C 215.277344 152.792969 216.96875 156.054688 217.300781 159.96875 C 217.664062 163.914062 216.605469 167.378906 214.015625 170.414062 C 211.425781 173.492188 208.136719 175.203125 204.222656 175.519531 C 200.304688 175.894531 196.820312 174.789062 193.796875 172.183594 C 190.710938 169.632812 188.984375 166.382812 188.621094 162.457031 C 188.289062 158.527344 189.417969 155.03125 192.039062 151.960938 Z M 193.300781 153.15625 C 191.074219 155.859375 190.113281 158.941406 190.378906 162.390625 C 190.710938 165.804688 192.203125 168.621094 194.859375 170.84375 C 197.550781 173.113281 200.636719 174.074219 204.089844 173.742188 C 207.476562 173.460938 210.328125 171.96875 212.621094 169.285156 C 214.84375 166.632812 215.773438 163.597656 215.441406 160.183594 C 215.175781 156.734375 213.683594 153.867188 211.058594 151.597656 C 208.335938 149.425781 205.285156 148.484375 201.898438 148.761719 C 198.445312 149.09375 195.558594 150.554688 193.300781 153.15625 " fill-opacity="1" fill-rule="evenodd"/><path fill="#ffffcc" d="M 193.175781 153.21875 C 195.429688 150.613281 198.316406 149.15625 201.734375 148.824219 C 205.152344 148.542969 208.207031 149.488281 210.925781 151.660156 C 213.550781 153.929688 215.042969 156.800781 215.308594 160.246094 C 215.640625 163.660156 214.710938 166.695312 212.488281 169.347656 C 210.199219 172.03125 207.34375 173.523438 203.957031 173.804688 C 200.476562 174.132812 197.421875 173.175781 194.734375 170.902344 C 192.078125 168.683594 190.585938 165.863281 190.253906 162.449219 C 189.957031 159.003906 190.949219 155.921875 193.175781 153.21875 " fill-opacity="1" fill-rule="evenodd"/><path fill="#3f0920" d="M 205.75 158.898438 C 205.152344 158.617188 204.886719 158.253906 204.886719 157.839844 C 204.820312 157.359375 205.019531 156.960938 205.453125 156.628906 C 205.882812 156.296875 206.414062 156.082031 207.074219 155.984375 C 207.738281 155.933594 208.335938 156.066406 208.832031 156.347656 C 209.296875 156.578125 209.527344 156.929688 209.5625 157.410156 C 209.5625 157.839844 209.429688 158.238281 209.164062 158.617188 C 208.667969 158.949219 208.101562 159.136719 207.441406 159.183594 C 206.777344 159.230469 206.214844 159.136719 205.75 158.898438 " fill-opacity="1" fill-rule="evenodd"/><path stroke-linecap="butt" transform="matrix(0.331458, 0, 0, -0.331454, -5193.200375, 2603.810289)" fill="none" stroke-linejoin="miter" d="M 16288.501959 7376.314734 C 16289.904382 7375.595838 16291.60143 7375.312994 16293.604891 7375.454416 C 16295.596566 7375.595838 16297.3054 7376.161527 16298.802103 7377.163267 C 16299.603487 7378.30643 16300.004179 7379.508519 16300.004179 7380.804888 C 16299.898114 7382.254466 16299.202795 7383.315132 16297.800373 7384.010458 C 16296.30367 7384.858991 16294.500556 7385.259687 16292.497095 7385.10648 C 16290.50542 7384.81185 16288.902651 7384.163665 16287.59451 7383.161925 C 16286.298153 7382.160184 16285.697115 7380.958096 16285.897461 7379.508519 C 16285.897461 7378.259289 16286.698845 7377.163267 16288.501959 7376.314734 Z M 16288.501959 7376.314734 " stroke="#330000" stroke-width="1.25" stroke-opacity="1" stroke-miterlimit="10"/><g clip-path="url(#8cf09eeb4c)"><g clip-path="url(#14e58c684e)"><path fill="url(#d976b07c1e)" d="M 186.984375 165.628906 L 197.402344 141.273438 L 221.386719 152.121094 L 210.96875 176.472656 Z M 186.984375 165.628906 " fill-rule="nonzero"/></g></g><path fill="#330033" d="M 209.011719 153.296875 C 210.703125 154.722656 211.695312 156.515625 211.894531 158.6875 C 212.195312 160.875 211.632812 162.777344 210.304688 164.4375 C 209.011719 166.09375 207.285156 167.023438 205.097656 167.207031 C 202.910156 167.40625 200.984375 166.792969 199.292969 165.367188 C 197.636719 163.988281 196.640625 162.214844 196.375 160.046875 C 196.144531 157.859375 196.675781 155.917969 198 154.226562 C 199.328125 152.566406 201.085938 151.644531 203.273438 151.460938 C 205.429688 151.261719 207.351562 151.871094 209.011719 153.296875 " fill-opacity="1" fill-rule="evenodd"/><path fill="#000000" d="M 207.34375 154.988281 C 208.636719 155.984375 209.398438 157.261719 209.566406 158.835938 C 209.761719 160.394531 209.332031 161.769531 208.304688 162.945312 C 207.277344 164.121094 205.984375 164.785156 204.394531 164.933594 C 202.738281 165.082031 201.246094 164.652344 199.917969 163.65625 C 198.691406 162.714844 197.964844 161.453125 197.765625 159.894531 C 197.597656 158.335938 197.996094 156.929688 198.992188 155.699219 C 200.085938 154.527344 201.445312 153.863281 203.101562 153.710938 C 204.726562 153.578125 206.117188 153.992188 207.34375 154.988281 " fill-opacity="1" fill-rule="evenodd"/><path stroke-linecap="butt" transform="matrix(0.33147, 0, 0, -0.331467, -5193.200375, 2603.810289)" fill="none" stroke-linejoin="miter" d="M 16292.699881 7387.834923 C 16288.999511 7390.840032 16284.804186 7392.089214 16279.901784 7391.688533 C 16274.905105 7391.228928 16270.804058 7389.225523 16267.504364 7385.690101 C 16264.499286 7381.977908 16263.297255 7377.735401 16263.803994 7373.03329 C 16264.405009 7368.331179 16266.596949 7364.524708 16270.297319 7361.684586 C 16274.30409 7358.679477 16278.79403 7357.383156 16283.802493 7357.830976 C 16288.598834 7358.278796 16292.499543 7360.282202 16295.598898 7363.829408 C 16298.698253 7367.376615 16299.994561 7371.524843 16299.393545 7376.226955 C 16298.898591 7380.976205 16296.60059 7384.829815 16292.699881 7387.834923 Z M 16292.699881 7387.834923 " stroke="#330000" stroke-width="0.5" stroke-opacity="1" stroke-miterlimit="10"/><path fill="#ffffff" d="M 200.050781 154.789062 C 200.511719 155.453125 200.644531 156.082031 200.414062 156.710938 C 200.113281 157.277344 199.617188 157.605469 198.921875 157.691406 C 198.195312 157.789062 197.433594 157.65625 196.574219 157.277344 C 195.746094 156.84375 195.085938 156.246094 194.589844 155.503906 C 194.226562 154.835938 194.125 154.242188 194.324219 153.730469 C 194.589844 153.113281 195.117188 152.78125 195.878906 152.734375 C 196.640625 152.535156 197.433594 152.648438 198.296875 153.082031 C 199.089844 153.464844 199.683594 154.027344 200.050781 154.789062 " fill-opacity="1" fill-rule="evenodd"/><path fill="#ffffff" d="M 196.605469 161.835938 C 196.273438 161.632812 196.109375 161.402344 196.109375 161.121094 C 196.074219 160.839844 196.175781 160.574219 196.40625 160.34375 C 196.636719 160.089844 196.933594 159.976562 197.332031 159.976562 C 197.695312 159.925781 198.027344 159.976562 198.292969 160.125 C 198.621094 160.359375 198.789062 160.625 198.820312 160.90625 C 198.820312 161.1875 198.722656 161.417969 198.523438 161.617188 C 198.292969 161.902344 197.992188 162.066406 197.597656 162.117188 C 197.234375 162.117188 196.902344 162.015625 196.605469 161.835938 " fill-opacity="1" fill-rule="evenodd"/><path fill="#ffffff" d="M 209.308594 156.492188 C 208.945312 156.109375 208.710938 155.628906 208.679688 155.066406 C 208.578125 154.550781 208.679688 154.085938 208.945312 153.722656 C 209.277344 153.292969 209.707031 153.058594 210.238281 153.007812 C 210.667969 152.960938 211.066406 153.125 211.429688 153.507812 C 211.828125 153.839844 212.027344 154.253906 212.160156 154.785156 C 212.195312 155.347656 212.0625 155.84375 211.796875 156.277344 C 211.433594 156.65625 211.101562 156.855469 210.667969 156.90625 C 210.136719 156.957031 209.675781 156.824219 209.308594 156.492188 " fill-opacity="1" fill-rule="evenodd"/></svg>