<svg xmlns="http://www.w3.org/2000/svg" xmlns:xlink="http://www.w3.org/1999/xlink" width="1080" zoomAndPan="magnify" viewBox="0 0 810 809.999993" height="1080" preserveAspectRatio="xMidYMid meet" version="1.0"><defs><clipPath id="b869745f34"><path d="M 34.523438 6.429688 L 771.773438 6.429688 L 771.773438 803.679688 L 34.523438 803.679688 Z M 34.523438 6.429688 " clip-rule="nonzero"/></clipPath><clipPath id="d7c7d5d2a5"><path d="M 201 139 L 222 139 L 222 160 L 201 160 Z M 201 139 " clip-rule="nonzero"/></clipPath><clipPath id="e1f4613ba4"><path d="M 205.441406 157.394531 C 203.234375 155.738281 201.960938 153.582031 201.511719 150.929688 C 201.101562 148.226562 201.664062 145.828125 203.234375 143.6875 C 204.839844 141.5625 207.011719 140.324219 209.703125 139.988281 C 212.359375 139.660156 214.75 140.324219 216.957031 141.980469 C 219.164062 143.636719 220.472656 145.828125 220.921875 148.507812 C 221.332031 151.164062 220.734375 153.550781 219.128906 155.6875 C 217.519531 157.808594 215.386719 159.050781 212.734375 159.382812 C 210.039062 159.714844 207.609375 159.050781 205.441406 157.394531 " clip-rule="evenodd"/></clipPath><radialGradient gradientTransform="matrix(0.936493, 0.382707, 0.352533, -0.923314, 7853.667936, -2895.784075)" gradientUnits="userSpaceOnUse" r="30.445398" cx="0" id="fbc89afdfc" cy="0" fx="0" fy="0"><stop stop-opacity="1" stop-color="rgb(57.446289%, 2.047729%, 2.165222%)" offset="0"/><stop stop-opacity="1" stop-color="rgb(57.215881%, 2.120972%, 2.415466%)" offset="0.0078125"/><stop stop-opacity="1" stop-color="rgb(57.063293%, 2.1698%, 2.581787%)" offset="0.0117188"/><stop stop-opacity="1" stop-color="rgb(56.90918%, 2.218628%, 2.749634%)" offset="0.015625"/><stop stop-opacity="1" stop-color="rgb(56.756592%, 2.267456%, 2.915955%)" offset="0.0195312"/><stop stop-opacity="1" stop-color="rgb(56.604004%, 2.316284%, 3.082275%)" offset="0.0234375"/><stop stop-opacity="1" stop-color="rgb(56.44989%, 2.365112%, 3.250122%)" offset="0.0273438"/><stop stop-opacity="1" stop-color="rgb(56.297302%, 2.41394%, 3.416443%)" offset="0.03125"/><stop stop-opacity="1" stop-color="rgb(56.144714%, 2.462769%, 3.582764%)" offset="0.0351562"/><stop stop-opacity="1" stop-color="rgb(55.990601%, 2.511597%, 3.75061%)" offset="0.0390625"/><stop stop-opacity="1" stop-color="rgb(55.838013%, 2.560425%, 3.916931%)" offset="0.0429688"/><stop stop-opacity="1" stop-color="rgb(55.685425%, 2.609253%, 4.083252%)" offset="0.046875"/><stop stop-opacity="1" stop-color="rgb(55.531311%, 2.658081%, 4.251099%)" offset="0.0507812"/><stop stop-opacity="1" stop-color="rgb(55.378723%, 2.706909%, 4.417419%)" offset="0.0546875"/><stop stop-opacity="1" stop-color="rgb(55.226135%, 2.755737%, 4.58374%)" offset="0.0585938"/><stop stop-opacity="1" stop-color="rgb(55.072021%, 2.804565%, 4.751587%)" offset="0.0625"/><stop stop-opacity="1" stop-color="rgb(54.919434%, 2.853394%, 4.917908%)" offset="0.0664062"/><stop stop-opacity="1" stop-color="rgb(54.766846%, 2.902222%, 5.084229%)" offset="0.0703125"/><stop stop-opacity="1" stop-color="rgb(54.612732%, 2.95105%, 5.250549%)" offset="0.0742188"/><stop stop-opacity="1" stop-color="rgb(54.460144%, 2.999878%, 5.418396%)" offset="0.078125"/><stop stop-opacity="1" stop-color="rgb(54.30603%, 3.048706%, 5.584717%)" offset="0.0820312"/><stop stop-opacity="1" stop-color="rgb(54.153442%, 3.097534%, 5.751038%)" offset="0.0859375"/><stop stop-opacity="1" stop-color="rgb(54.000854%, 3.146362%, 5.918884%)" offset="0.0898438"/><stop stop-opacity="1" stop-color="rgb(53.846741%, 3.19519%, 6.085205%)" offset="0.09375"/><stop stop-opacity="1" stop-color="rgb(53.694153%, 3.244019%, 6.251526%)" offset="0.0976562"/><stop stop-opacity="1" stop-color="rgb(53.541565%, 3.292847%, 6.419373%)" offset="0.101562"/><stop stop-opacity="1" stop-color="rgb(53.387451%, 3.341675%, 6.585693%)" offset="0.105469"/><stop stop-opacity="1" stop-color="rgb(53.234863%, 3.390503%, 6.752014%)" offset="0.109375"/><stop stop-opacity="1" stop-color="rgb(53.082275%, 3.439331%, 6.919861%)" offset="0.113281"/><stop stop-opacity="1" stop-color="rgb(52.928162%, 3.488159%, 7.086182%)" offset="0.117188"/><stop stop-opacity="1" stop-color="rgb(52.775574%, 3.536987%, 7.252502%)" offset="0.121094"/><stop stop-opacity="1" stop-color="rgb(52.622986%, 3.585815%, 7.420349%)" offset="0.125"/><stop stop-opacity="1" stop-color="rgb(52.468872%, 3.634644%, 7.58667%)" offset="0.128906"/><stop stop-opacity="1" stop-color="rgb(52.316284%, 3.683472%, 7.752991%)" offset="0.132812"/><stop stop-opacity="1" stop-color="rgb(52.163696%, 3.7323%, 7.919312%)" offset="0.136719"/><stop stop-opacity="1" stop-color="rgb(52.009583%, 3.781128%, 8.087158%)" offset="0.140625"/><stop stop-opacity="1" stop-color="rgb(51.856995%, 3.829956%, 8.253479%)" offset="0.144531"/><stop stop-opacity="1" stop-color="rgb(51.704407%, 3.878784%, 8.4198%)" offset="0.148438"/><stop stop-opacity="1" stop-color="rgb(51.550293%, 3.927612%, 8.587646%)" offset="0.152344"/><stop stop-opacity="1" stop-color="rgb(51.397705%, 3.97644%, 8.753967%)" offset="0.15625"/><stop stop-opacity="1" stop-color="rgb(51.243591%, 4.025269%, 8.920288%)" offset="0.160156"/><stop stop-opacity="1" stop-color="rgb(51.091003%, 4.074097%, 9.088135%)" offset="0.164062"/><stop stop-opacity="1" stop-color="rgb(50.938416%, 4.122925%, 9.254456%)" offset="0.167969"/><stop stop-opacity="1" stop-color="rgb(50.784302%, 4.171753%, 9.420776%)" offset="0.171875"/><stop stop-opacity="1" stop-color="rgb(50.631714%, 4.220581%, 9.588623%)" offset="0.175781"/><stop stop-opacity="1" stop-color="rgb(50.479126%, 4.269409%, 9.754944%)" offset="0.179688"/><stop stop-opacity="1" stop-color="rgb(50.325012%, 4.318237%, 9.921265%)" offset="0.183594"/><stop stop-opacity="1" stop-color="rgb(50.172424%, 4.367065%, 10.089111%)" offset="0.1875"/><stop stop-opacity="1" stop-color="rgb(50.019836%, 4.415894%, 10.255432%)" offset="0.191406"/><stop stop-opacity="1" stop-color="rgb(49.865723%, 4.464722%, 10.421753%)" offset="0.195312"/><stop stop-opacity="1" stop-color="rgb(49.713135%, 4.51355%, 10.588074%)" offset="0.199219"/><stop stop-opacity="1" stop-color="rgb(49.560547%, 4.562378%, 10.75592%)" offset="0.203125"/><stop stop-opacity="1" stop-color="rgb(49.406433%, 4.611206%, 10.922241%)" offset="0.207031"/><stop stop-opacity="1" stop-color="rgb(49.253845%, 4.660034%, 11.088562%)" offset="0.210938"/><stop stop-opacity="1" stop-color="rgb(49.101257%, 4.708862%, 11.256409%)" offset="0.214844"/><stop stop-opacity="1" stop-color="rgb(48.947144%, 4.75769%, 11.422729%)" offset="0.21875"/><stop stop-opacity="1" stop-color="rgb(48.794556%, 4.806519%, 11.58905%)" offset="0.222656"/><stop stop-opacity="1" stop-color="rgb(48.640442%, 4.855347%, 11.756897%)" offset="0.226562"/><stop stop-opacity="1" stop-color="rgb(48.487854%, 4.904175%, 11.923218%)" offset="0.230469"/><stop stop-opacity="1" stop-color="rgb(48.335266%, 4.953003%, 12.089539%)" offset="0.234375"/><stop stop-opacity="1" stop-color="rgb(48.181152%, 5.001831%, 12.257385%)" offset="0.238281"/><stop stop-opacity="1" stop-color="rgb(48.028564%, 5.050659%, 12.423706%)" offset="0.242188"/><stop stop-opacity="1" stop-color="rgb(47.875977%, 5.099487%, 12.590027%)" offset="0.246094"/><stop stop-opacity="1" stop-color="rgb(47.721863%, 5.148315%, 12.757874%)" offset="0.25"/><stop stop-opacity="1" stop-color="rgb(47.492981%, 5.221558%, 13.008118%)" offset="0.253906"/><stop stop-opacity="1" stop-color="rgb(47.186279%, 5.319214%, 13.340759%)" offset="0.261719"/><stop stop-opacity="1" stop-color="rgb(46.879578%, 5.41687%, 13.674927%)" offset="0.269531"/><stop stop-opacity="1" stop-color="rgb(46.574402%, 5.514526%, 14.007568%)" offset="0.277344"/><stop stop-opacity="1" stop-color="rgb(46.2677%, 5.612183%, 14.341736%)" offset="0.285156"/><stop stop-opacity="1" stop-color="rgb(45.960999%, 5.709839%, 14.675903%)" offset="0.292969"/><stop stop-opacity="1" stop-color="rgb(45.654297%, 5.807495%, 15.008545%)" offset="0.300781"/><stop stop-opacity="1" stop-color="rgb(45.349121%, 5.905151%, 15.342712%)" offset="0.308594"/><stop stop-opacity="1" stop-color="rgb(45.042419%, 6.002808%, 15.675354%)" offset="0.316406"/><stop stop-opacity="1" stop-color="rgb(44.735718%, 6.100464%, 16.009521%)" offset="0.324219"/><stop stop-opacity="1" stop-color="rgb(44.430542%, 6.19812%, 16.343689%)" offset="0.332031"/><stop stop-opacity="1" stop-color="rgb(44.12384%, 6.295776%, 16.676331%)" offset="0.339844"/><stop stop-opacity="1" stop-color="rgb(43.817139%, 6.393433%, 17.010498%)" offset="0.347656"/><stop stop-opacity="1" stop-color="rgb(43.511963%, 6.491089%, 17.344666%)" offset="0.355469"/><stop stop-opacity="1" stop-color="rgb(43.205261%, 6.588745%, 17.677307%)" offset="0.363281"/><stop stop-opacity="1" stop-color="rgb(42.89856%, 6.686401%, 18.011475%)" offset="0.371094"/><stop stop-opacity="1" stop-color="rgb(42.591858%, 6.784058%, 18.344116%)" offset="0.378906"/><stop stop-opacity="1" stop-color="rgb(42.286682%, 6.881714%, 18.678284%)" offset="0.386719"/><stop stop-opacity="1" stop-color="rgb(41.97998%, 6.97937%, 19.012451%)" offset="0.394531"/><stop stop-opacity="1" stop-color="rgb(41.673279%, 7.077026%, 19.345093%)" offset="0.402344"/><stop stop-opacity="1" stop-color="rgb(41.368103%, 7.174683%, 19.67926%)" offset="0.410156"/><stop stop-opacity="1" stop-color="rgb(41.061401%, 7.272339%, 20.013428%)" offset="0.417969"/><stop stop-opacity="1" stop-color="rgb(40.7547%, 7.369995%, 20.346069%)" offset="0.425781"/><stop stop-opacity="1" stop-color="rgb(40.447998%, 7.467651%, 20.680237%)" offset="0.433594"/><stop stop-opacity="1" stop-color="rgb(40.142822%, 7.565308%, 21.012878%)" offset="0.441406"/><stop stop-opacity="1" stop-color="rgb(39.836121%, 7.662964%, 21.347046%)" offset="0.449219"/><stop stop-opacity="1" stop-color="rgb(39.529419%, 7.76062%, 21.681213%)" offset="0.457031"/><stop stop-opacity="1" stop-color="rgb(39.224243%, 7.858276%, 22.013855%)" offset="0.464844"/><stop stop-opacity="1" stop-color="rgb(38.917542%, 7.955933%, 22.348022%)" offset="0.472656"/><stop stop-opacity="1" stop-color="rgb(38.61084%, 8.053589%, 22.68219%)" offset="0.480469"/><stop stop-opacity="1" stop-color="rgb(38.305664%, 8.151245%, 23.014832%)" offset="0.488281"/><stop stop-opacity="1" stop-color="rgb(37.998962%, 8.248901%, 23.348999%)" offset="0.496094"/><stop stop-opacity="1" stop-color="rgb(37.768555%, 8.322144%, 23.599243%)" offset="0.503906"/><stop stop-opacity="1" stop-color="rgb(37.615967%, 8.370972%, 23.765564%)" offset="0.507812"/><stop stop-opacity="1" stop-color="rgb(37.463379%, 8.4198%, 23.931885%)" offset="0.511719"/><stop stop-opacity="1" stop-color="rgb(37.309265%, 8.468628%, 24.099731%)" offset="0.515625"/><stop stop-opacity="1" stop-color="rgb(37.156677%, 8.517456%, 24.266052%)" offset="0.519531"/><stop stop-opacity="1" stop-color="rgb(37.004089%, 8.566284%, 24.432373%)" offset="0.523438"/><stop stop-opacity="1" stop-color="rgb(36.849976%, 8.615112%, 24.60022%)" offset="0.527344"/><stop stop-opacity="1" stop-color="rgb(36.697388%, 8.66394%, 24.766541%)" offset="0.53125"/><stop stop-opacity="1" stop-color="rgb(36.5448%, 8.712769%, 24.932861%)" offset="0.535156"/><stop stop-opacity="1" stop-color="rgb(36.390686%, 8.761597%, 25.100708%)" offset="0.539062"/><stop stop-opacity="1" stop-color="rgb(36.238098%, 8.810425%, 25.267029%)" offset="0.542969"/><stop stop-opacity="1" stop-color="rgb(36.08551%, 8.859253%, 25.43335%)" offset="0.546875"/><stop stop-opacity="1" stop-color="rgb(35.931396%, 8.908081%, 25.601196%)" offset="0.550781"/><stop stop-opacity="1" stop-color="rgb(35.778809%, 8.956909%, 25.767517%)" offset="0.554688"/><stop stop-opacity="1" stop-color="rgb(35.626221%, 9.005737%, 25.933838%)" offset="0.558594"/><stop stop-opacity="1" stop-color="rgb(35.472107%, 9.054565%, 26.100159%)" offset="0.5625"/><stop stop-opacity="1" stop-color="rgb(35.319519%, 9.103394%, 26.268005%)" offset="0.566406"/><stop stop-opacity="1" stop-color="rgb(35.165405%, 9.152222%, 26.434326%)" offset="0.570312"/><stop stop-opacity="1" stop-color="rgb(35.012817%, 9.20105%, 26.600647%)" offset="0.574219"/><stop stop-opacity="1" stop-color="rgb(34.860229%, 9.249878%, 26.768494%)" offset="0.578125"/><stop stop-opacity="1" stop-color="rgb(34.706116%, 9.298706%, 26.934814%)" offset="0.582031"/><stop stop-opacity="1" stop-color="rgb(34.553528%, 9.347534%, 27.101135%)" offset="0.585938"/><stop stop-opacity="1" stop-color="rgb(34.40094%, 9.396362%, 27.268982%)" offset="0.589844"/><stop stop-opacity="1" stop-color="rgb(34.246826%, 9.44519%, 27.435303%)" offset="0.59375"/><stop stop-opacity="1" stop-color="rgb(34.094238%, 9.494019%, 27.601624%)" offset="0.597656"/><stop stop-opacity="1" stop-color="rgb(33.94165%, 9.542847%, 27.76947%)" offset="0.601562"/><stop stop-opacity="1" stop-color="rgb(33.787537%, 9.591675%, 27.935791%)" offset="0.605469"/><stop stop-opacity="1" stop-color="rgb(33.634949%, 9.640503%, 28.102112%)" offset="0.609375"/><stop stop-opacity="1" stop-color="rgb(33.482361%, 9.689331%, 28.269958%)" offset="0.613281"/><stop stop-opacity="1" stop-color="rgb(33.328247%, 9.738159%, 28.436279%)" offset="0.617188"/><stop stop-opacity="1" stop-color="rgb(33.175659%, 9.786987%, 28.6026%)" offset="0.621094"/><stop stop-opacity="1" stop-color="rgb(33.023071%, 9.835815%, 28.768921%)" offset="0.625"/><stop stop-opacity="1" stop-color="rgb(32.792664%, 9.909058%, 29.019165%)" offset="0.628906"/><stop stop-opacity="1" stop-color="rgb(32.485962%, 10.006714%, 29.353333%)" offset="0.636719"/><stop stop-opacity="1" stop-color="rgb(32.17926%, 10.10437%, 29.6875%)" offset="0.644531"/><stop stop-opacity="1" stop-color="rgb(31.874084%, 10.202026%, 30.020142%)" offset="0.652344"/><stop stop-opacity="1" stop-color="rgb(31.567383%, 10.299683%, 30.354309%)" offset="0.660156"/><stop stop-opacity="1" stop-color="rgb(31.260681%, 10.397339%, 30.688477%)" offset="0.667969"/><stop stop-opacity="1" stop-color="rgb(30.955505%, 10.494995%, 31.021118%)" offset="0.675781"/><stop stop-opacity="1" stop-color="rgb(30.648804%, 10.592651%, 31.355286%)" offset="0.683594"/><stop stop-opacity="1" stop-color="rgb(30.342102%, 10.690308%, 31.687927%)" offset="0.691406"/><stop stop-opacity="1" stop-color="rgb(30.036926%, 10.787964%, 32.022095%)" offset="0.699219"/><stop stop-opacity="1" stop-color="rgb(29.730225%, 10.88562%, 32.356262%)" offset="0.707031"/><stop stop-opacity="1" stop-color="rgb(29.423523%, 10.983276%, 32.688904%)" offset="0.714844"/><stop stop-opacity="1" stop-color="rgb(29.116821%, 11.080933%, 33.023071%)" offset="0.722656"/><stop stop-opacity="1" stop-color="rgb(28.811646%, 11.178589%, 33.357239%)" offset="0.730469"/><stop stop-opacity="1" stop-color="rgb(28.504944%, 11.276245%, 33.68988%)" offset="0.738281"/><stop stop-opacity="1" stop-color="rgb(28.198242%, 11.373901%, 34.024048%)" offset="0.746094"/><stop stop-opacity="1" stop-color="rgb(27.96936%, 11.447144%, 34.274292%)" offset="0.753906"/><stop stop-opacity="1" stop-color="rgb(27.816772%, 11.495972%, 34.440613%)" offset="0.757812"/><stop stop-opacity="1" stop-color="rgb(27.662659%, 11.5448%, 34.606934%)" offset="0.761719"/><stop stop-opacity="1" stop-color="rgb(27.510071%, 11.593628%, 34.77478%)" offset="0.765625"/><stop stop-opacity="1" stop-color="rgb(27.357483%, 11.642456%, 34.941101%)" offset="0.769531"/><stop stop-opacity="1" stop-color="rgb(27.203369%, 11.691284%, 35.107422%)" offset="0.773438"/><stop stop-opacity="1" stop-color="rgb(27.050781%, 11.740112%, 35.275269%)" offset="0.777344"/><stop stop-opacity="1" stop-color="rgb(26.896667%, 11.78894%, 35.441589%)" offset="0.78125"/><stop stop-opacity="1" stop-color="rgb(26.74408%, 11.837769%, 35.60791%)" offset="0.785156"/><stop stop-opacity="1" stop-color="rgb(26.591492%, 11.886597%, 35.775757%)" offset="0.789062"/><stop stop-opacity="1" stop-color="rgb(26.437378%, 11.935425%, 35.942078%)" offset="0.792969"/><stop stop-opacity="1" stop-color="rgb(26.28479%, 11.984253%, 36.108398%)" offset="0.796875"/><stop stop-opacity="1" stop-color="rgb(26.132202%, 12.033081%, 36.274719%)" offset="0.800781"/><stop stop-opacity="1" stop-color="rgb(25.978088%, 12.081909%, 36.442566%)" offset="0.804688"/><stop stop-opacity="1" stop-color="rgb(25.8255%, 12.130737%, 36.608887%)" offset="0.808594"/><stop stop-opacity="1" stop-color="rgb(25.672913%, 12.179565%, 36.775208%)" offset="0.8125"/><stop stop-opacity="1" stop-color="rgb(25.442505%, 12.252808%, 37.025452%)" offset="0.816406"/><stop stop-opacity="1" stop-color="rgb(25.135803%, 12.350464%, 37.359619%)" offset="0.824219"/><stop stop-opacity="1" stop-color="rgb(24.830627%, 12.44812%, 37.693787%)" offset="0.832031"/><stop stop-opacity="1" stop-color="rgb(24.523926%, 12.545776%, 38.026428%)" offset="0.839844"/><stop stop-opacity="1" stop-color="rgb(24.217224%, 12.643433%, 38.360596%)" offset="0.847656"/><stop stop-opacity="1" stop-color="rgb(23.910522%, 12.741089%, 38.694763%)" offset="0.855469"/><stop stop-opacity="1" stop-color="rgb(23.605347%, 12.838745%, 39.027405%)" offset="0.863281"/><stop stop-opacity="1" stop-color="rgb(23.298645%, 12.936401%, 39.361572%)" offset="0.871094"/><stop stop-opacity="1" stop-color="rgb(23.069763%, 13.009644%, 39.611816%)" offset="0.878906"/><stop stop-opacity="1" stop-color="rgb(22.915649%, 13.058472%, 39.778137%)" offset="0.882812"/><stop stop-opacity="1" stop-color="rgb(22.763062%, 13.1073%, 39.944458%)" offset="0.886719"/><stop stop-opacity="1" stop-color="rgb(22.610474%, 13.156128%, 40.112305%)" offset="0.890625"/><stop stop-opacity="1" stop-color="rgb(22.45636%, 13.204956%, 40.278625%)" offset="0.894531"/><stop stop-opacity="1" stop-color="rgb(22.303772%, 13.253784%, 40.444946%)" offset="0.898438"/><stop stop-opacity="1" stop-color="rgb(22.151184%, 13.302612%, 40.612793%)" offset="0.902344"/><stop stop-opacity="1" stop-color="rgb(21.99707%, 13.35144%, 40.779114%)" offset="0.90625"/><stop stop-opacity="1" stop-color="rgb(21.768188%, 13.424683%, 41.029358%)" offset="0.910156"/><stop stop-opacity="1" stop-color="rgb(21.461487%, 13.522339%, 41.363525%)" offset="0.917969"/><stop stop-opacity="1" stop-color="rgb(21.154785%, 13.619995%, 41.696167%)" offset="0.925781"/><stop stop-opacity="1" stop-color="rgb(20.848083%, 13.717651%, 42.030334%)" offset="0.933594"/><stop stop-opacity="1" stop-color="rgb(20.619202%, 13.790894%, 42.280579%)" offset="0.941406"/><stop stop-opacity="1" stop-color="rgb(20.466614%, 13.839722%, 42.446899%)" offset="0.945312"/><stop stop-opacity="1" stop-color="rgb(20.3125%, 13.88855%, 42.61322%)" offset="0.949219"/><stop stop-opacity="1" stop-color="rgb(20.159912%, 13.937378%, 42.781067%)" offset="0.953125"/><stop stop-opacity="1" stop-color="rgb(19.929504%, 14.01062%, 43.031311%)" offset="0.957031"/><stop stop-opacity="1" stop-color="rgb(19.624329%, 14.108276%, 43.363953%)" offset="0.964844"/><stop stop-opacity="1" stop-color="rgb(19.393921%, 14.181519%, 43.614197%)" offset="0.972656"/><stop stop-opacity="1" stop-color="rgb(19.241333%, 14.230347%, 43.782043%)" offset="0.976562"/><stop stop-opacity="1" stop-color="rgb(19.010925%, 14.303589%, 44.032288%)" offset="0.980469"/><stop stop-opacity="1" stop-color="rgb(18.782043%, 14.376831%, 44.281006%)" offset="0.988281"/><stop stop-opacity="1" stop-color="rgb(18.551636%, 14.450073%, 44.53125%)" offset="0.992188"/><stop stop-opacity="1" stop-color="rgb(18.399048%, 14.498901%, 44.699097%)" offset="1"/></radialGradient></defs><g clip-path="url(#b869745f34)"><rect x="-81" width="972" fill="#697a7a" y="-80.999999" height="971.999992" fill-opacity="1"/></g><path fill="#f89865" d="M 605.578125 560.347656 C 605.539062 560.398438 605.460938 560.5 605.339844 560.628906 C 602.429688 561.621094 602.390625 561.824219 605.21875 561.191406 L 605.300781 560.996094 C 607.730469 562.320312 610.679688 565.207031 614.105469 569.648438 C 617.375 574.140625 619.328125 577.886719 620.042969 580.871094 C 620.722656 583.851562 620.484375 587.066406 619.328125 590.511719 L 617.574219 595.421875 C 612.554688 596.515625 610.042969 597.082031 609.960938 597.128906 C 586.769531 600.296875 560.113281 608.050781 529.984375 620.414062 C 514.167969 627.03125 503.289062 631.519531 497.390625 633.890625 C 495.476562 634.753906 493.765625 635.433594 492.210938 635.949219 L 479.695312 639.011719 L 479.339844 638.929688 L 471.167969 638.796875 C 456.1875 638.898438 441.003906 633.5625 425.621094 622.816406 C 419.085938 614.863281 414.863281 602.746094 412.949219 586.472656 L 447.261719 583.289062 L 447.261719 583.140625 C 447.21875 582.757812 447.179688 582.359375 447.101562 581.929688 C 453.476562 581.929688 459.414062 579.542969 465.03125 574.769531 C 470.53125 570.027344 481.929688 564.875 499.144531 559.289062 C 504.960938 557.015625 516.117188 555.6875 532.535156 555.308594 C 541.460938 555.359375 547.996094 555.492188 552.101562 555.742188 C 556.246094 556.023438 562.898438 556.324219 572.066406 556.652344 C 574.972656 556.652344 586.929688 555.640625 608.007812 553.601562 L 606.136719 559.289062 L 605.578125 560.132812 L 605.578125 560.347656 " fill-opacity="1" fill-rule="evenodd"/><path fill="#e9cbb4" d="M 605.246094 561.011719 L 605.164062 561.210938 C 602.34375 561.839844 602.382812 561.640625 605.324219 560.644531 C 605.40625 560.515625 605.484375 560.414062 605.523438 560.363281 L 605.445312 560.644531 L 605.246094 561.011719 " fill-opacity="1" fill-rule="evenodd"/><path fill="#666666" d="M 481.714844 459.3125 L 481.363281 460.179688 C 480.46875 460.640625 479.648438 461.125 478.867188 461.585938 L 479.21875 461.171875 C 480.078125 460.558594 480.9375 459.929688 481.714844 459.3125 " fill-opacity="1" fill-rule="evenodd"/><path fill="#b02222" d="M 359.335938 224.132812 L 359.335938 224.050781 C 359.023438 224.015625 358.792969 223.984375 358.558594 223.984375 C 358.792969 224.03125 359.023438 224.082031 359.335938 224.132812 Z M 437.761719 307.902344 L 438.074219 308.035156 C 438.8125 309.308594 439.746094 310.242188 440.835938 310.804688 C 441.417969 311.1875 442.429688 311.832031 443.945312 312.726562 L 443.867188 312.726562 C 437.527344 309.941406 430.449219 307.457031 422.589844 305.269531 C 420.023438 304.703125 417.300781 304.15625 414.421875 303.644531 C 410.878906 302.828125 407.144531 302.167969 403.292969 301.65625 C 398.625 301.039062 388.863281 301.171875 374.039062 302.066406 C 344.746094 273.34375 339.574219 247.320312 358.558594 223.984375 C 360.621094 221.332031 363.03125 218.730469 365.792969 216.175781 C 384.621094 219.441406 394.503906 221.28125 395.398438 221.714844 C 413.175781 226.457031 426.402344 230 435 232.371094 C 436.050781 232.554688 436.945312 232.769531 437.722656 233.003906 C 439.355469 233.382812 440.875 233.863281 442.234375 234.425781 C 442.46875 234.375 442.742188 234.390625 443.011719 234.492188 C 443.246094 234.492188 443.441406 234.542969 443.519531 234.640625 C 443.636719 234.773438 443.710938 234.808594 443.789062 234.707031 C 444.800781 234.988281 445.503906 235.253906 445.851562 235.488281 L 445.929688 235.488281 C 448.886719 236.296875 451.492188 237.042969 453.75 237.753906 C 458.144531 239.082031 461.996094 239.929688 465.265625 240.3125 C 465.535156 240.511719 465.886719 240.722656 466.3125 240.957031 C 464.757812 240.625 463.125 240.855469 461.414062 241.667969 L 455.578125 246.425781 C 452 250.105469 449.976562 252.292969 449.546875 252.953125 C 449.507812 252.953125 449.507812 252.972656 449.507812 253.023438 C 449.277344 253.253906 449.042969 253.472656 448.925781 253.652344 C 447.835938 255.179688 446.707031 256.835938 445.582031 258.625 L 445.074219 259.339844 C 444.996094 259.535156 444.878906 259.71875 444.800781 259.902344 L 444.6875 260.269531 C 444.414062 260.449219 444.296875 260.664062 444.21875 260.898438 L 444.179688 260.898438 L 444.179688 260.980469 C 444.023438 261.113281 443.90625 261.28125 443.867188 261.476562 L 443.519531 262.109375 C 442.429688 263.996094 441.378906 266.066406 440.328125 268.289062 C 437.101562 275.285156 435.039062 281.632812 434.144531 287.316406 C 433.792969 289.917969 433.675781 292.535156 433.871094 295.191406 C 433.949219 296.515625 434.144531 297.859375 434.453125 299.234375 C 435.195312 302.367188 436.320312 305.25 437.761719 307.902344 " fill-opacity="1" fill-rule="evenodd"/><path fill="#f89865" d="M 449.210938 310.644531 C 448.15625 310.214844 447.058594 309.917969 445.882812 309.71875 C 442.792969 308.953125 440.132812 308.339844 437.859375 307.878906 C 436.375 305.226562 435.238281 302.339844 434.496094 299.210938 C 434.222656 297.835938 434.023438 296.488281 433.945312 295.167969 C 433.75 292.511719 433.828125 289.894531 434.222656 287.292969 C 435.121094 281.605469 437.195312 275.253906 440.40625 268.261719 C 441.421875 266.042969 442.519531 263.972656 443.574219 262.082031 L 443.925781 261.449219 C 444.007812 261.25 444.085938 261.085938 444.242188 260.953125 L 444.242188 260.871094 L 444.320312 260.871094 C 444.359375 260.636719 444.476562 260.421875 444.75 260.242188 L 444.867188 259.878906 C 444.984375 259.695312 445.0625 259.507812 445.140625 259.3125 L 445.648438 258.597656 C 446.785156 256.808594 447.917969 255.152344 449.015625 253.625 C 452.34375 254.207031 456.570312 254.9375 461.617188 255.832031 C 465.179688 256.644531 468.664062 257.488281 472.070312 258.386719 C 473.4375 258.730469 474.574219 258.980469 475.554688 259.179688 C 476.101562 259.261719 476.609375 259.410156 477.039062 259.59375 C 481.109375 260.835938 485.023438 262.066406 488.820312 263.289062 C 494.457031 265.511719 498.488281 267.316406 500.875 268.675781 C 503.261719 270.003906 504.671875 270.929688 505.21875 271.460938 L 474.613281 315.46875 C 474.339844 315.371094 474.027344 315.289062 473.710938 315.1875 C 458.175781 312.203125 449.992188 310.695312 449.210938 310.644531 " fill-opacity="1" fill-rule="evenodd"/><path fill="#911c1c" d="M 437.652344 307.941406 C 439.953125 308.402344 442.601562 309.015625 445.679688 309.78125 C 446.847656 309.976562 447.980469 310.277344 449.03125 310.707031 C 447.355469 311.503906 445.640625 312.199219 443.847656 312.765625 C 442.328125 311.867188 441.316406 311.222656 440.730469 310.839844 C 439.640625 310.277344 438.703125 309.351562 437.964844 308.074219 Z M 476.851562 259.65625 C 476.425781 259.472656 475.957031 259.328125 475.371094 259.246094 C 474.398438 259.046875 473.269531 258.796875 471.902344 258.449219 C 468.476562 257.554688 465.007812 256.707031 461.460938 255.894531 C 456.394531 255 452.1875 254.273438 448.835938 253.691406 C 448.953125 253.507812 449.148438 253.292969 449.382812 253.0625 C 449.382812 253.011719 449.421875 252.996094 449.460938 252.996094 C 449.886719 252.332031 451.875 250.140625 455.5 246.464844 L 461.304688 241.707031 C 463.019531 240.894531 464.65625 240.660156 466.214844 240.992188 C 467.617188 241.277344 468.941406 242.089844 470.191406 243.398438 C 470.421875 243.648438 470.617188 243.894531 470.8125 244.191406 C 470.96875 244.226562 471.085938 244.359375 471.203125 244.542969 C 473.421875 247.476562 475.214844 252.230469 476.617188 258.8125 C 476.734375 259.09375 476.8125 259.378906 476.851562 259.65625 " fill-opacity="1" fill-rule="evenodd"/><path fill="#f7d62f" d="M 359.328125 224.050781 L 359.328125 224.128906 C 359.058594 224.082031 358.792969 224.03125 358.5625 223.980469 C 358.792969 223.980469 359.058594 224.015625 359.328125 224.050781 " fill-opacity="1" fill-rule="evenodd"/><path stroke-linecap="butt" transform="matrix(0.382451, 0, 0, -0.382447, -5874.628741, 2573.810051)" fill="none" stroke-linejoin="miter" d="M 16300.003542 6143.802666 L 16300.003542 6144.006943 " stroke="#000000" stroke-width="0.433" stroke-opacity="1" stroke-miterlimit="10"/><path fill="#f89865" d="M 499.332031 408.414062 C 499.371094 408.742188 499.527344 409.160156 499.765625 409.625 C 500.355469 412.226562 500.941406 414.664062 501.53125 416.933594 C 502.632812 422.105469 502.910156 426.382812 502.4375 429.792969 C 501.730469 433.390625 500.863281 436.34375 499.804688 438.664062 C 500.863281 436.34375 501.730469 433.390625 502.4375 429.792969 C 502.910156 426.382812 502.632812 422.105469 501.53125 416.933594 C 500.941406 414.664062 500.355469 412.226562 499.765625 409.625 C 499.527344 409.160156 499.371094 408.742188 499.332031 408.414062 Z M 512.972656 438.101562 C 517.019531 430.242188 515.722656 419.683594 509.121094 406.441406 C 515.722656 419.683594 517.019531 430.242188 512.972656 438.101562 C 512.617188 438.84375 512.1875 439.589844 511.675781 440.304688 C 506.015625 443.238281 502.042969 442.691406 499.804688 438.664062 C 497.523438 443.867188 494.574219 445.675781 491.078125 444.050781 C 485.140625 442.492188 480.777344 436.113281 478.023438 424.886719 C 482.46875 426.03125 488.324219 425.371094 495.558594 422.898438 L 495.714844 422.769531 C 495.792969 422.71875 495.949219 422.683594 496.148438 422.683594 C 496.148438 422.554688 496.148438 422.472656 496.1875 422.472656 C 496.382812 422.382812 496.65625 422.335938 496.972656 422.335938 C 498.742188 421.191406 499.292969 419.617188 498.625 417.582031 C 498.347656 416.535156 497.875 415.539062 497.246094 414.597656 C 495.480469 412.757812 493.003906 411.726562 489.816406 411.546875 C 486.75 411.164062 483.054688 411.496094 478.8125 412.542969 C 483.054688 411.496094 486.75 411.164062 489.816406 411.546875 C 493.003906 411.726562 495.480469 412.757812 497.246094 414.597656 C 497.875 415.539062 498.347656 416.535156 498.625 417.582031 C 499.292969 419.617188 498.742188 421.191406 496.972656 422.335938 C 496.65625 422.335938 496.382812 422.382812 496.1875 422.472656 C 496.148438 422.472656 496.148438 422.554688 496.148438 422.683594 C 495.949219 422.683594 495.792969 422.71875 495.714844 422.769531 L 495.558594 422.898438 C 488.324219 425.371094 482.46875 426.03125 478.023438 424.886719 C 477.789062 424.789062 477.59375 424.722656 477.4375 424.671875 C 475.707031 424.058594 474.132812 423.28125 472.796875 422.335938 C 472.011719 421.574219 471.304688 420.746094 470.714844 419.851562 C 470.359375 419.46875 470.046875 419.039062 469.847656 418.574219 C 465.132812 410.820312 465.40625 404.003906 470.636719 398.121094 C 470.832031 397.890625 471.027344 397.554688 471.304688 397.128906 C 471.421875 396.941406 471.539062 396.84375 471.617188 396.84375 C 475.429688 391.507812 478.105469 382.007812 479.714844 368.382812 C 491.078125 356.070312 503.890625 355.625 518.199219 367.023438 C 525.199219 377.203125 528.734375 390.015625 528.734375 405.445312 C 525.355469 399.894531 522.289062 400.824219 519.496094 408.214844 C 518.671875 406.078125 517.847656 403.875 516.941406 401.601562 C 514.035156 400.757812 511.4375 402.363281 509.121094 406.441406 C 508.332031 404.734375 507.46875 403.027344 506.644531 401.320312 C 506.644531 401.1875 506.605469 401.039062 506.566406 400.890625 C 502.789062 399.894531 500.355469 402.414062 499.332031 408.414062 C 498.703125 406.441406 497.957031 404.421875 497.128906 402.378906 C 491.074219 401.203125 488.640625 404.253906 489.820312 411.546875 C 488.640625 404.253906 491.078125 401.203125 497.128906 402.378906 C 497.957031 404.421875 498.703125 406.441406 499.332031 408.414062 C 500.351562 402.414062 502.789062 399.894531 506.566406 400.890625 C 506.605469 401.039062 506.644531 401.1875 506.644531 401.320312 C 507.46875 403.027344 508.332031 404.734375 509.121094 406.441406 C 511.4375 402.363281 514.035156 400.757812 516.941406 401.601562 C 517.847656 403.875 518.671875 406.078125 519.496094 408.214844 C 522.289062 400.824219 525.355469 399.894531 528.734375 405.445312 C 532.46875 414.859375 532.980469 424.207031 530.269531 433.472656 C 527.910156 437.832031 525.277344 438.648438 522.40625 435.894531 C 524.136719 428.371094 523.191406 419.136719 519.496094 408.214844 C 523.191406 419.136719 524.136719 428.371094 522.40625 435.894531 C 522.171875 436.558594 521.933594 437.203125 521.699219 437.816406 C 520.207031 439.144531 518.515625 439.839844 516.589844 439.941406 C 513.957031 439.476562 512.777344 438.84375 512.972656 438.101562 " fill-opacity="1" fill-rule="evenodd"/><path stroke-linecap="butt" transform="matrix(0.392831, 0, 0, -0.392827, -5874.628741, 2573.810051)" fill="none" stroke-linejoin="miter" d="M 16283.900974 5442.209553 C 16288.395587 5461.361571 16285.899685 5484.859087 16276.502762 5512.672271 M 16259.896562 5436.601174 C 16270.198372 5456.598426 16266.996458 5483.466936 16250.101886 5517.186818 M 16225.10309 5512.165131 C 16225.301967 5511.319896 16225.69972 5510.255895 16226.196912 5509.082511 C 16227.797869 5502.459851 16229.299388 5496.26478 16230.800907 5490.47741 C 16233.495685 5477.311641 16234.301136 5466.432977 16233.097932 5457.732035 C 16231.298098 5448.583615 16229.100511 5441.066001 16226.395789 5435.159304 M 16200.999239 5504.190095 C 16197.896764 5522.745477 16204.101715 5530.521633 16219.594207 5527.518565 C 16221.7023 5522.327832 16223.601572 5517.186818 16225.10309 5512.165131 C 16227.797869 5527.439014 16234.002821 5533.852851 16243.598619 5531.317148 C 16243.698058 5530.939279 16243.797496 5530.561409 16243.797496 5530.223315 C 16245.995083 5525.877816 16248.103176 5521.532317 16250.101886 5517.186818 C 16255.998579 5527.558341 16262.601284 5531.665186 16269.999496 5529.507352 C 16272.296521 5523.719982 16274.39467 5518.111603 16276.502762 5512.672271 C 16283.602659 5531.486195 16291.398624 5533.852851 16300.00004 5519.722521 M 16170.998696 5470.221616 C 16182.29489 5467.308043 16197.200695 5468.998512 16215.596786 5475.293022 L 16215.994539 5475.631116 C 16216.20336 5475.750443 16216.501675 5475.839939 16216.998867 5475.839939 C 16216.998867 5476.168089 16217.098305 5476.376911 16217.197743 5476.376911 C 16217.694935 5476.595678 16218.400947 5476.715005 16219.196454 5476.715005 C 16223.70101 5479.628578 16225.10309 5483.635983 16223.402695 5488.826717 C 16222.696683 5491.491691 16221.503423 5494.017451 16219.902466 5496.423883 C 16215.397909 5501.107476 16208.994081 5503.722731 16200.999239 5504.190095 C 16193.093892 5505.164601 16183.796409 5504.319367 16172.997406 5501.664336 " stroke="#954e40" stroke-width="0.422" stroke-opacity="1" stroke-miterlimit="10"/><path fill="#f89865" d="M 501.167969 269.691406 C 501.402344 269.792969 501.640625 269.742188 501.796875 269.5625 C 504.777344 270.734375 508.234375 273.753906 512.121094 278.578125 C 512.433594 279.09375 512.746094 279.570312 513.023438 280.003906 C 517.695312 287.230469 520.675781 294.292969 522.050781 301.152344 C 523.660156 311.613281 523.425781 323.347656 521.34375 336.359375 C 519.929688 344.496094 518.910156 350.296875 518.28125 353.742188 C 517.535156 359.050781 517.734375 365.132812 518.871094 371.992188 C 518.320312 372.242188 517.535156 372.59375 516.4375 373.054688 C 514.355469 373.867188 512.945312 374.480469 512.199219 374.914062 C 512.042969 374.863281 511.882812 374.847656 511.6875 374.847656 C 511.097656 375.027344 510.550781 375.257812 510.117188 375.542969 C 509.175781 375.839844 508.3125 376.039062 507.488281 376.1875 C 506.585938 376.570312 504.898438 376.703125 502.386719 376.621094 C 499.871094 376.851562 497.871094 376.75 496.339844 376.339844 C 494.769531 376.136719 493.472656 375.90625 492.53125 375.625 C 491.121094 375.375 489.707031 375.027344 488.332031 374.546875 C 487.625 374.214844 486.644531 373.765625 485.347656 373.207031 C 484.210938 372.824219 482.328125 372.09375 479.734375 371 C 479.851562 370.769531 479.933594 370.550781 480.011719 370.371094 C 481.304688 366.210938 481.582031 361.800781 480.875 357.160156 C 479.933594 351.242188 478.402344 346.152344 476.320312 341.894531 C 474.671875 338.394531 472.394531 334.417969 469.53125 329.976562 C 468.863281 328.550781 468.234375 327.277344 467.683594 326.128906 C 467.449219 325.566406 467.136719 325.023438 466.742188 324.507812 C 466.429688 323.941406 466.074219 323.347656 465.683594 322.734375 C 462.070312 311.996094 464.703125 300.789062 473.496094 289.152344 C 478.125 283.003906 482.601562 278.59375 486.839844 275.941406 C 488.058594 275.148438 489.511719 274.335938 491.121094 273.539062 C 493.984375 272.394531 497.359375 271.121094 501.167969 269.691406 " fill-opacity="1" fill-rule="evenodd"/><path fill="#f89865" d="M 398.578125 589.171875 C 395.691406 596.882812 393.726562 602.996094 392.648438 607.488281 C 391.683594 612.078125 391.222656 616.984375 391.261719 622.191406 C 391.261719 627.011719 391.222656 630.839844 391.183594 633.675781 L 343.96875 605.929688 L 343.96875 605.351562 L 342.851562 605.148438 L 328.792969 596.910156 C 327.675781 584.566406 328.023438 574.40625 329.835938 566.449219 C 331.722656 558.175781 335.035156 549.722656 339.808594 541.105469 C 343.507812 547.785156 346.277344 551.878906 348.089844 553.386719 C 349.089844 554.347656 349.859375 554.910156 350.4375 555.09375 C 356.292969 557.464844 361.992188 560.03125 367.460938 562.835938 C 378.011719 568.320312 389.796875 570.242188 402.777344 568.585938 C 402.890625 574.550781 401.507812 581.414062 398.578125 589.171875 " fill-opacity="1" fill-rule="evenodd"/><path fill="#e9cbb4" d="M 352.464844 620.867188 L 352.464844 620.300781 C 353.195312 620.5 365.222656 625.621094 388.503906 635.714844 C 388.46875 635.714844 388.429688 635.75 388.429688 635.851562 C 365.144531 625.773438 353.15625 620.78125 352.464844 620.867188 " fill-opacity="1" fill-rule="evenodd"/><path fill="#008395" d="M 431.261719 533.671875 C 414.121094 555.667969 404.914062 571.859375 403.5625 582.21875 C 400.929688 580.808594 399.074219 580.164062 397.988281 580.316406 C 395.242188 580.644531 392.34375 580.824219 389.324219 580.875 C 382.128906 580.925781 374.234375 580.230469 365.6875 578.820312 C 354.003906 576.832031 344.0625 572.855469 335.78125 566.886719 C 334.738281 566.125 333.730469 565.398438 332.726562 564.679688 C 328.972656 561.566406 326.03125 558.585938 323.867188 555.75 C 322.203125 553.28125 321.003906 550.84375 320.308594 548.4375 C 321.855469 544.691406 324.175781 539.554688 327.195312 533.023438 C 330.132812 526.875 343.90625 499.527344 368.511719 450.960938 C 368.394531 452.519531 370.019531 455.457031 373.347656 459.765625 C 376.558594 464.074219 379.84375 468.132812 383.132812 471.976562 C 386.421875 475.707031 391.527344 478.179688 398.375 479.355469 C 409.285156 481.164062 417.71875 489.796875 423.675781 505.257812 C 426.464844 512.089844 428.976562 521.554688 431.261719 533.671875 " fill-opacity="1" fill-rule="evenodd"/><path fill="#00a5bb" d="M 505.417969 553.335938 C 505.417969 553.386719 505.417969 553.4375 505.417969 553.488281 L 505.574219 553.335938 Z M 505.925781 544.683594 C 505.574219 547.902344 505.457031 550.785156 505.574219 553.335938 C 505.574219 553.71875 505.691406 555.257812 506.003906 557.964844 C 498.324219 560.648438 489.46875 567.226562 479.359375 577.6875 C 453.066406 591.789062 429.597656 595.089844 409.023438 587.566406 L 406.476562 579.390625 C 389 545.316406 373.640625 509.878906 360.398438 473.042969 L 487.980469 410.9375 C 504.359375 425.839844 512.3125 449.078125 511.722656 480.652344 C 511.683594 499.332031 509.726562 520.683594 505.925781 544.683594 " fill-opacity="1" fill-rule="evenodd"/><path fill="#d92b2b" d="M 290.011719 302.917969 C 289.972656 302.535156 289.894531 302.15625 289.777344 301.773438 L 289.777344 301.492188 C 289.621094 300.742188 289.425781 300 289.230469 299.285156 C 287.816406 293.335938 286.445312 287.75 285.191406 282.546875 C 283.855469 277.34375 283.230469 273.148438 283.347656 269.980469 C 283.347656 266.386719 283.464844 263.023438 283.777344 259.890625 C 284.992188 246.644531 287.738281 236.898438 292.011719 230.648438 C 312.914062 198.988281 339.382812 193.785156 371.417969 215.035156 C 373.066406 215.929688 376.203125 218.964844 380.867188 224.121094 C 380.984375 224.253906 381.0625 224.402344 381.140625 224.53125 C 381.730469 224.964844 388.789062 236.980469 402.316406 260.601562 C 403.0625 261.742188 403.769531 262.90625 404.433594 264.082031 C 405.21875 265.589844 406.042969 267.132812 406.984375 268.6875 C 408.707031 271.441406 410.394531 274.195312 412.121094 276.925781 C 413.257812 278.785156 414.433594 280.625 415.648438 282.464844 C 416.394531 283.707031 417.21875 284.917969 418 286.09375 C 424.117188 295.605469 430.785156 305.253906 438.039062 315.046875 C 439.765625 317.601562 441.605469 320.085938 443.566406 322.511719 C 444.707031 324.164062 445.882812 325.824219 447.097656 327.484375 C 449.136719 330.183594 451.253906 332.902344 453.371094 335.632812 C 453.605469 335.738281 453.839844 335.917969 454.078125 336.214844 C 457.996094 341.800781 463.09375 348.628906 469.332031 356.71875 C 480.347656 371.15625 487.839844 381.25 491.761719 386.972656 C 499.757812 398.472656 506.308594 409.496094 511.445312 420.054688 C 513.601562 424.59375 515.445312 428.972656 516.972656 433.183594 C 510.464844 432.386719 503.875 432.105469 497.09375 432.335938 C 492.976562 432.617188 488.703125 433.132812 484.230469 433.890625 C 467.566406 436.726562 450.980469 443.191406 434.46875 453.269531 C 419.296875 462.734375 401.296875 471.304688 380.4375 478.976562 C 373.535156 481.582031 367.144531 483.652344 361.300781 485.226562 L 290.011719 302.917969 " fill-opacity="1" fill-rule="evenodd"/><path fill="#eb6d2f" d="M 290.027344 302.910156 L 289.953125 302.628906 C 289.875 302.296875 289.800781 302.015625 289.800781 301.769531 C 289.914062 302.144531 289.988281 302.527344 290.027344 302.910156 " fill-opacity="1" fill-rule="evenodd"/><path fill="#413e3e" d="M 264.839844 29.492188 C 264.875 29.492188 264.953125 29.492188 265.101562 29.492188 C 264.953125 29.492188 264.875 29.511719 264.839844 29.5625 L 264.839844 29.492188 " fill-opacity="1" fill-rule="evenodd"/><path fill="#f89865" d="M 323.980469 182.363281 C 325.769531 188.710938 329.121094 193.371094 333.996094 196.351562 C 332.703125 200.132812 330.835938 203.992188 328.398438 207.921875 C 328.207031 208.105469 328.015625 208.269531 327.902344 208.417969 C 327.710938 208.75 327.523438 209.097656 327.40625 209.484375 C 324.78125 213.027344 321.65625 216.707031 318.039062 220.488281 C 308.324219 230.382812 300.59375 237.339844 294.804688 241.351562 C 290.917969 243.492188 288.253906 245.398438 286.804688 247.101562 C 283.871094 241.898438 280.785156 237.207031 277.550781 233.046875 C 277.359375 232.917969 277.246094 232.785156 277.207031 232.703125 C 275.109375 229.847656 272.902344 227.367188 270.539062 225.242188 C 270.351562 225.011719 270.082031 224.792969 269.742188 224.597656 C 269.664062 224.464844 269.550781 224.363281 269.472656 224.3125 C 269.472656 224.230469 269.4375 224.179688 269.398438 224.179688 C 269.207031 224.082031 268.828125 223.652344 268.253906 222.90625 L 322.378906 172.21875 C 322.53125 175.847656 323.105469 179.246094 323.980469 182.363281 " fill-opacity="1" fill-rule="evenodd"/><path fill="#fadeca" d="M 296.691406 255.144531 C 298.699219 252.34375 300.746094 251.5 302.792969 252.574219 C 301.238281 253.339844 299.761719 253.984375 298.394531 254.5 C 297.828125 254.683594 297.257812 254.898438 296.691406 255.144531 Z M 291.574219 254.996094 C 294.339844 251.964844 296.007812 252.078125 296.613281 255.34375 C 294.074219 256.289062 292.105469 257.265625 290.777344 258.261719 C 290.96875 257.21875 291.234375 256.273438 291.574219 255.429688 L 291.574219 254.996094 " fill-opacity="1" fill-rule="evenodd"/><path stroke-linecap="butt" transform="matrix(0.37861, 0, 0, -0.378606, -5874.628741, 2573.810051)" fill="none" stroke-linejoin="miter" d="M 16299.79805 6123.710853 C 16299.79805 6124.061646 16299.901223 6124.226726 16300.004396 6124.226726 M 16284.404568 6116.003716 C 16284.899801 6118.758476 16285.60138 6121.255299 16286.498989 6123.494186 L 16286.498989 6124.629106 " stroke="#2b2b2b" stroke-width="0.438" stroke-opacity="1" stroke-miterlimit="10"/><path fill="#ff3333" d="M 322.117188 249.496094 C 321.621094 249.929688 321.121094 250.375 320.625 250.84375 L 320.433594 251.207031 C 313.515625 259.90625 307.171875 269.722656 301.402344 280.660156 C 288.636719 252.695312 283.09375 248.105469 284.855469 266.886719 C 274.230469 258.847656 270.484375 252.863281 273.734375 248.9375 C 276.980469 244.859375 279.007812 242.4375 279.847656 241.695312 C 280.726562 240.878906 281.683594 240.199219 282.75 239.621094 C 309.503906 224.769531 326.742188 210.332031 334.421875 196.324219 C 342.5625 197.503906 349.367188 201.082031 354.867188 207.050781 C 349.25 219.628906 338.320312 233.785156 322.117188 249.496094 " fill-opacity="1" fill-rule="evenodd"/><path fill="#f89865" d="M 224.976562 357.539062 C 227.523438 357.011719 229.308594 356.515625 230.296875 356.050781 C 231.402344 356.84375 232.425781 357.574219 233.414062 358.234375 C 236.152344 359.996094 239.039062 361.4375 242.078125 362.582031 C 244.132812 363.476562 246.148438 364.273438 248.199219 364.980469 C 251.582031 365.84375 258.574219 366.757812 269.140625 367.753906 C 273.207031 368.28125 277.042969 368.863281 280.65625 369.523438 C 294.449219 372.511719 306.195312 378.191406 315.921875 386.566406 C 316.152344 386.714844 316.339844 386.8125 316.492188 386.847656 C 316.609375 387.042969 316.722656 387.226562 316.722656 387.429688 C 318.8125 395.136719 319.953125 402.609375 320.027344 409.851562 C 320.21875 417.324219 319.304688 422.464844 317.328125 425.265625 C 315.429688 427.820312 313.605469 429.476562 311.78125 430.226562 C 310.300781 431.035156 308.171875 431.882812 305.472656 432.792969 C 302.773438 433.6875 297.261719 434.402344 288.863281 434.914062 C 280.390625 435.195312 268.152344 430.4375 252.113281 420.644531 C 236.1875 410.945312 223.039062 402.773438 212.703125 396.144531 C 206.621094 391.984375 202.554688 389.382812 200.425781 388.335938 C 200.199219 387.871094 199.855469 387.277344 199.476562 386.566406 C 198.144531 383.398438 198.945312 379.734375 201.832031 375.558594 C 210.382812 366.375 216.351562 360.921875 219.65625 359.167969 C 220.492188 358.65625 222.28125 358.105469 224.976562 357.539062 " fill-opacity="1" fill-rule="evenodd"/><path fill="#f89865" d="M 317.917969 402.625 C 319.558594 397.800781 319.523438 397.800781 317.726562 402.625 Z M 332.421875 385.585938 L 327.957031 395.382812 L 317.421875 424.355469 L 272.125 382.820312 L 276.898438 370.125 C 276.058594 372.113281 275.980469 371.898438 276.742188 369.472656 C 276.933594 368.765625 277.164062 367.96875 277.46875 367.054688 C 278.003906 365.414062 278.691406 363.292969 279.605469 360.738281 C 279.835938 360.277344 279.910156 359.746094 279.796875 359.183594 C 280.101562 359.035156 280.367188 358.667969 280.675781 358.039062 C 281.132812 356.347656 281.703125 354.742188 282.351562 353.214844 C 282.886719 351.558594 283.5 349.902344 284.183594 348.242188 C 285.023438 347.878906 285.941406 347.300781 286.972656 346.550781 C 287.464844 346.503906 287.886719 346.304688 288.34375 345.972656 C 296.96875 342.34375 306.164062 341.351562 315.78125 342.988281 C 320.78125 343.898438 325.972656 345.460938 331.390625 347.679688 C 332.648438 348.210938 333.984375 348.871094 335.398438 349.667969 C 336.160156 350.050781 336.847656 350.398438 337.535156 350.730469 C 339.632812 351.59375 341.769531 352.652344 343.828125 353.929688 L 344.324219 354.210938 C 344.707031 354.410156 345.128906 354.59375 345.546875 354.789062 C 342 359.796875 339.097656 366.242188 336.808594 374.097656 L 336.730469 374.296875 C 336.273438 376.007812 334.824219 379.769531 332.417969 385.585938 " fill-opacity="1" fill-rule="evenodd"/><path fill="#ebae89" d="M 328.125 395.320312 L 332.578125 385.523438 C 332.160156 386.617188 331.78125 387.761719 331.398438 389.003906 C 330.789062 391.527344 329.722656 393.628906 328.125 395.320312 " fill-opacity="1" fill-rule="evenodd"/><path fill="#ff3333" d="M 360.804688 366.222656 C 358.542969 364.867188 356.433594 363.605469 354.554688 362.460938 C 354.246094 362.230469 353.941406 362.0625 353.632812 361.964844 C 352.980469 361.351562 352.136719 360.804688 351.066406 360.34375 C 348.074219 358.679688 345.234375 357.144531 342.628906 355.71875 C 342.4375 355.632812 342.28125 355.550781 342.128906 355.519531 C 341.859375 355.316406 341.59375 355.152344 341.363281 355.019531 L 341.285156 354.9375 C 340.863281 354.804688 340.402344 354.640625 339.867188 354.441406 L 339.867188 354.523438 C 339.828125 354.476562 339.789062 354.390625 339.789062 354.304688 L 339.558594 354.15625 C 339.558594 354.109375 339.523438 354.109375 339.523438 354.15625 C 337.527344 352.933594 335.570312 351.957031 333.691406 351.257812 C 331.546875 350.015625 329.550781 349.117188 327.59375 348.558594 C 322.304688 346.382812 317.085938 344.960938 311.949219 344.296875 C 310.800781 344.148438 309.535156 344.0625 308.191406 344.011719 L 304.355469 343.734375 C 298.183594 343.734375 292.085938 344.792969 286.140625 346.917969 C 285.027344 347.160156 284.070312 347.445312 283.304688 347.777344 C 282.574219 348.058594 281.960938 348.324219 281.5 348.558594 C 281.269531 348.6875 280.964844 348.871094 280.582031 349.050781 C 280.003906 349.238281 279.542969 349.515625 279.160156 349.898438 C 279.121094 349.898438 279.046875 349.929688 278.894531 349.980469 C 278.738281 350.015625 278.625 350.050781 278.546875 350.050781 C 278.011719 350.179688 277.589844 350.34375 277.320312 350.542969 C 277.664062 349.21875 278.125 347.859375 278.738281 346.5 C 280.082031 342.707031 281.808594 338.511719 283.917969 333.9375 L 284.070312 333.722656 L 284.222656 333.292969 L 283.917969 333.785156 L 295.917969 285.371094 C 331.390625 259.53125 358.121094 259.035156 376.144531 283.878906 C 375.570312 293.542969 373.652344 305.507812 370.316406 319.796875 C 366.785156 335.046875 364.910156 342.921875 364.792969 343.433594 C 364.792969 344.015625 364.679688 344.59375 364.523438 345.226562 C 364.140625 346.78125 363.796875 348.457031 363.449219 350.265625 C 362.300781 356.460938 361.417969 361.683594 360.726562 365.945312 C 360.726562 366.09375 360.765625 366.191406 360.804688 366.226562 " fill-opacity="1" fill-rule="evenodd"/><path fill="#b02222" d="M 276.855469 351.28125 C 277.007812 351.132812 277.3125 350.96875 277.695312 350.785156 C 278.191406 350.484375 278.691406 350.203125 279.113281 349.925781 C 280.757812 349.027344 282.441406 348.296875 284.160156 347.714844 L 281.023438 355.324219 C 278.117188 353.621094 276.703125 352.292969 276.738281 351.347656 Z M 342.078125 355.542969 C 342.230469 355.574219 342.382812 355.65625 342.574219 355.738281 C 345.175781 357.164062 348.007812 358.707031 351.027344 360.363281 C 352.0625 360.828125 352.902344 361.375 353.554688 361.988281 C 353.859375 362.089844 354.164062 362.253906 354.507812 362.484375 C 356.382812 363.628906 358.488281 364.886719 360.746094 366.25 C 360.707031 366.347656 360.628906 366.464844 360.515625 366.613281 C 360.402344 367.273438 360.285156 367.90625 360.246094 368.519531 C 359.863281 369.464844 359.40625 370.09375 358.832031 370.378906 C 357.914062 371.039062 356.84375 371.601562 355.542969 372.082031 C 354.242188 372.644531 351.679688 372.996094 347.816406 373.144531 C 345.214844 373.191406 342.34375 373.492188 339.167969 374.074219 C 337.675781 374.203125 336.644531 374.769531 335.957031 375.765625 L 342.078125 355.542969 " fill-opacity="1" fill-rule="evenodd"/><path fill="#f7d62f" d="M 277.269531 350.566406 C 277.53125 350.363281 277.949219 350.199219 278.476562 350.066406 C 278.210938 350.347656 277.949219 350.578125 277.683594 350.78125 C 277.304688 350.960938 277.042969 351.128906 276.851562 351.277344 C 276.964844 350.996094 277.117188 350.746094 277.269531 350.566406 " fill-opacity="1" fill-rule="evenodd"/><path fill="#987f05" d="M 341.300781 355.035156 C 341.570312 355.167969 341.796875 355.332031 342.101562 355.535156 C 341.722656 355.382812 341.417969 355.234375 341.1875 355.101562 L 341.300781 355.035156 " fill-opacity="1" fill-rule="evenodd"/><path fill="#f89865" d="M 190.042969 337.390625 C 187.078125 333.378906 185.203125 328.953125 184.414062 324.132812 C 185.203125 328.953125 187.078125 333.378906 190.042969 337.390625 Z M 195.859375 312.976562 C 196.234375 315.398438 198.113281 318.414062 201.453125 322.0625 C 201.5625 322.261719 201.714844 322.488281 201.976562 322.773438 C 201.714844 322.488281 201.5625 322.261719 201.453125 322.0625 C 198.113281 318.414062 196.234375 315.398438 195.859375 312.976562 Z M 184.640625 357.199219 C 181.898438 354.183594 179.761719 351.25 178.222656 348.398438 C 179.761719 351.25 181.898438 354.183594 184.640625 357.199219 Z M 184.152344 314.121094 C 184.226562 313.839844 184.226562 313.574219 184.152344 313.339844 C 184.226562 311.714844 184.976562 309.828125 186.328125 307.65625 C 187.640625 305.515625 189.292969 303.894531 191.242188 302.75 C 193.082031 301.851562 195.523438 301.222656 198.5625 300.84375 C 201.488281 300.460938 201.75 302.386719 199.3125 306.597656 C 198.898438 306.878906 198.5625 307.125 198.261719 307.375 C 196.386719 308.699219 195.523438 310.425781 195.710938 312.542969 C 195.785156 312.644531 195.859375 312.796875 195.859375 312.976562 C 202.988281 310.554688 207.457031 311.652344 209.183594 316.242188 C 209.667969 320.121094 207.230469 322.308594 201.976562 322.773438 C 204.679688 325.988281 207.269531 328.390625 209.707031 329.949219 C 212.445312 331.507812 215.109375 331.839844 217.699219 330.945312 C 221.453125 328.289062 222.390625 322.652344 220.550781 314.039062 C 220.515625 313.988281 220.476562 313.875 220.476562 313.6875 C 220.328125 312.925781 220.175781 312.195312 220.0625 311.488281 C 218.789062 305.382812 220.851562 301.257812 226.292969 299.136719 C 226.40625 299.136719 226.519531 299.070312 226.667969 298.917969 C 231.210938 298.410156 232.558594 299.734375 230.683594 302.898438 C 230.121094 307.007812 230.871094 311.1875 232.898438 315.398438 C 235 319.65625 236.089844 321.828125 236.238281 321.925781 L 236.3125 322.0625 C 236.875 323.105469 237.4375 324.167969 237.925781 325.257812 C 242.207031 334.589844 241.003906 346.042969 234.324219 359.621094 L 202.578125 387.664062 L 201.453125 389.007812 C 189.144531 383.238281 181.035156 377.007812 177.097656 370.34375 C 176.195312 368.867188 175.484375 367.542969 174.957031 366.363281 C 171.429688 358.738281 172.519531 352.757812 178.222656 348.398438 C 174.582031 341.867188 174.019531 335.949219 176.535156 330.660156 C 177.019531 329.085938 177.660156 327.84375 178.523438 326.898438 C 180.0625 324.8125 182.011719 323.882812 184.414062 324.132812 C 183.851562 320.816406 183.777344 317.46875 184.152344 314.121094 " fill-opacity="1" fill-rule="evenodd"/><path stroke-linecap="butt" transform="matrix(0.372792, 0, 0, -0.372788, -5874.628741, 2573.810051)" fill="none" stroke-linejoin="miter" d="M 16268.001157 5999.094583 C 16260.100473 6009.845491 16255.102295 6021.717596 16252.996144 6034.658504 M 16283.603437 6064.57453 C 16284.598881 6058.088359 16289.59706 6049.998981 16298.702756 6040.22257 C 16298.901845 6039.67769 16299.300022 6039.05946 16300.002072 6038.305011 M 16253.499105 5945.958271 C 16246.195688 5954.047648 16240.495459 5961.916978 16236.39842 5969.56626 " stroke="#954e40" stroke-width="0.445" stroke-opacity="1" stroke-miterlimit="10"/><path fill="#f89865" d="M 328.433594 691.710938 C 327.355469 674.953125 328.085938 652.308594 330.703125 623.769531 C 329.007812 611.320312 328.28125 599.371094 328.511719 587.917969 C 350.734375 595.578125 370.613281 608.007812 388.070312 625.179688 C 388.761719 625.710938 389.300781 626.039062 389.683594 626.171875 L 390.914062 626.820312 C 390.914062 627.382812 390.914062 627.949219 390.953125 628.523438 C 391.414062 632.785156 391.800781 638.105469 392.261719 644.488281 C 392.761719 652.445312 390.453125 666.667969 385.300781 687.167969 C 380.226562 707.652344 373.535156 724.992188 365.191406 739.195312 C 350.964844 741.035156 341.121094 739.808594 335.664062 735.5 C 330.277344 731.238281 326.742188 728.636719 325.089844 727.695312 C 323.472656 726.75 322.089844 725.9375 320.972656 725.273438 C 326.894531 719.503906 329.394531 708.320312 328.433594 691.710938 " fill-opacity="1" fill-rule="evenodd"/><path fill="#d8d9d8" d="M 640.445312 614.425781 L 633.425781 609.882812 C 629.835938 596.671875 629.269531 585.320312 631.773438 575.804688 C 645.046875 581.671875 647.910156 594.535156 640.445312 614.425781 Z M 620.554688 603.484375 L 610.710938 601.992188 C 605.625 591.683594 606.757812 582.582031 614.101562 574.746094 C 614.90625 574.59375 615.753906 574.429688 616.683594 574.242188 C 614.503906 588.765625 615.792969 598.511719 620.554688 603.484375 Z M 630.519531 608.027344 L 622.695312 604.332031 C 618.375 599.605469 616.964844 589.480469 618.375 573.945312 C 622.695312 573.535156 626.484375 573.878906 629.671875 575.023438 C 626.609375 586.277344 626.890625 597.285156 630.519531 608.027344 Z M 605.425781 602.640625 C 598.203125 594.25 598.96875 585.433594 607.726562 576.152344 C 606.59375 556.660156 601.066406 544.640625 591.261719 540.082031 L 594.289062 539.304688 C 604.417969 543.714844 610.023438 555.730469 611.113281 575.375 C 602.359375 584.707031 601.550781 593.457031 608.695312 601.644531 Z M 695.199219 640.261719 C 693.664062 620.058594 687.976562 600.25 678.132812 580.839844 C 661.910156 583.113281 652.429688 597.679688 649.6875 624.570312 C 648.960938 623.902344 648.273438 623.226562 647.546875 622.511719 C 650.332031 594.863281 660.054688 580.0625 676.71875 578.074219 C 669.859375 564.964844 660.863281 551.953125 649.765625 539.019531 C 632.621094 545.804688 617.972656 541.957031 605.871094 527.519531 L 608.492188 526.886719 C 619.585938 538.523438 632.578125 541.839844 647.46875 536.816406 L 631.085938 521.699219 L 646.136719 517.441406 C 675.992188 547.738281 693.140625 575.4375 697.539062 600.582031 C 701.976562 625.890625 701.210938 639.121094 695.199219 640.261719 " fill-opacity="1" fill-rule="evenodd"/><path fill="#fdfffd" d="M 620.484375 603.511719 C 615.6875 598.539062 614.398438 588.792969 616.574219 574.273438 C 615.6875 574.457031 614.800781 574.621094 614.035156 574.769531 C 606.65625 582.609375 605.53125 591.710938 610.609375 602.019531 L 608.632812 601.675781 C 601.457031 593.484375 602.265625 584.734375 611.050781 575.398438 C 609.921875 555.757812 604.320312 543.746094 594.203125 539.335938 L 589.691406 534.660156 C 592.875 531.394531 598.273438 529.023438 605.769531 527.550781 C 617.902344 541.988281 632.535156 545.832031 649.664062 539.050781 C 660.789062 551.976562 669.777344 564.992188 676.628906 578.105469 C 659.980469 580.089844 650.226562 594.894531 647.445312 622.539062 L 640.351562 614.449219 C 647.851562 594.558594 644.949219 581.699219 631.6875 575.832031 C 629.1875 585.347656 629.710938 596.699219 633.339844 609.910156 L 630.398438 608.054688 C 626.8125 597.3125 626.527344 586.304688 629.550781 575.054688 C 626.367188 573.910156 622.621094 573.5625 618.265625 573.976562 C 616.855469 589.507812 618.304688 599.632812 622.621094 604.359375 Z M 608.390625 526.917969 L 630.960938 521.730469 L 647.367188 536.847656 C 632.453125 541.871094 619.476562 538.554688 608.390625 526.917969 Z M 649.582031 624.59375 C 652.324219 597.710938 661.835938 583.140625 678.039062 580.867188 C 687.914062 600.28125 693.597656 620.085938 695.085938 640.289062 C 684.082031 649.042969 668.890625 643.804688 649.582031 624.59375 " fill-opacity="1" fill-rule="evenodd"/><path fill="#fefffe" d="M 591.085938 540.136719 C 600.90625 544.695312 606.433594 556.710938 607.550781 576.203125 C 598.800781 585.484375 598.042969 594.300781 605.28125 602.6875 L 559.789062 615.53125 C 559.667969 615.484375 559.667969 615.515625 559.707031 615.601562 C 556.765625 618.78125 554.0625 619.558594 551.554688 617.953125 C 551.316406 616.480469 551.199219 615.101562 551.277344 613.824219 C 549.765625 592.394531 542.011719 572.371094 527.894531 553.777344 C 531.113281 551.308594 535.089844 550.296875 539.824219 550.726562 L 586.949219 541.277344 L 591.085938 540.136719 " fill-opacity="1" fill-rule="evenodd"/><path fill="#5c5d5c" d="M 591.121094 540.121094 L 586.992188 541.269531 C 587.429688 537.570312 588.300781 535.367188 589.652344 534.667969 L 594.175781 539.34375 L 591.121094 540.121094 " fill-opacity="1" fill-rule="evenodd"/><path fill="#fefffe" d="M 371.96875 731.191406 L 371.277344 734.242188 C 359.371094 737.605469 343.46875 735.050781 323.492188 726.582031 C 323.03125 726.25 322.648438 725.9375 322.261719 725.65625 C 320.839844 724.660156 319.074219 724.113281 316.960938 724.03125 L 327.757812 682.0625 C 327.757812 681.980469 327.679688 681.945312 327.527344 681.996094 C 326.296875 678.496094 326.796875 676.195312 329.101562 675.117188 C 330.136719 675.445312 331.175781 675.796875 332.210938 676.175781 C 348.730469 683.652344 366.667969 685.804688 386.027344 682.640625 C 386.679688 686.039062 385.835938 689.386719 383.53125 692.652344 L 371.96875 731.191406 " fill-opacity="1" fill-rule="evenodd"/><path fill="#5c5d5c" d="M 370.386719 737.40625 L 371.15625 734.273438 L 371.84375 731.222656 C 374.492188 733.109375 375.332031 733.9375 374.492188 733.710938 C 374.453125 733.808594 374.453125 733.859375 374.492188 733.859375 C 375.257812 734.652344 373.878906 735.84375 370.386719 737.40625 " fill-opacity="1" fill-rule="evenodd"/><path fill="#d8d9d8" d="M 296.007812 742.300781 L 296.503906 742.238281 L 303.902344 738.125 L 311.609375 742.023438 C 303.75 746.765625 298.535156 746.84375 296.007812 742.300781 Z M 315.367188 726.554688 L 316.824219 724.070312 C 318.933594 724.15625 320.734375 724.699219 322.113281 725.695312 C 322.496094 725.976562 322.917969 726.292969 323.339844 726.625 C 343.316406 735.09375 359.226562 737.648438 371.109375 734.28125 L 370.34375 737.414062 C 358.460938 740.859375 343.8125 738.789062 326.410156 731.164062 C 326.0625 730.984375 325.757812 730.835938 325.488281 730.734375 L 325.257812 730.949219 Z M 311.839844 732.226562 L 312.570312 731.664062 L 314.484375 728.246094 L 323.839844 732.09375 L 319.585938 735.574219 Z M 305.324219 737.347656 L 310.230469 733.503906 L 317.933594 736.984375 L 312.761719 741.109375 Z M 287.761719 744.160156 C 296.886719 747.558594 299.1875 760.320312 294.742188 782.414062 L 335.074219 784.621094 C 340.785156 760.867188 353.9375 749.464844 374.523438 750.410156 L 374.023438 752.8125 C 355.585938 752.960938 343.46875 763.585938 337.757812 784.683594 L 367.851562 785.117188 L 366.78125 793.851562 C 322.535156 795.3125 290.679688 792.789062 271.164062 786.261719 C 251.917969 779.679688 246.089844 774.324219 253.757812 770.214844 C 258.550781 775.089844 271.507812 779.066406 292.671875 782.132812 C 296.925781 760.933594 295.007812 748.320312 286.84375 744.292969 C 287.074219 744.210938 287.417969 744.160156 287.765625 744.160156 " fill-opacity="1" fill-rule="evenodd"/><path fill="#fdfffd" d="M 253.859375 770.195312 C 252.363281 755.277344 263.40625 746.644531 286.914062 744.269531 C 295.046875 748.300781 297 760.914062 292.746094 782.113281 C 271.574219 779.046875 258.613281 775.070312 253.859375 770.195312 Z M 374.085938 752.792969 L 367.910156 785.097656 L 337.84375 784.664062 C 343.558594 763.566406 355.636719 752.941406 374.085938 752.792969 Z M 374.582031 750.386719 C 353.988281 749.445312 340.835938 760.851562 335.121094 784.597656 L 294.816406 782.394531 C 299.226562 760.300781 296.925781 747.539062 287.835938 744.140625 L 296.082031 742.285156 C 298.574219 746.824219 303.789062 746.746094 311.691406 742 L 303.980469 738.109375 L 305.324219 737.332031 L 305.363281 737.332031 L 312.839844 741.09375 L 318.015625 736.960938 L 310.269531 733.484375 L 311.917969 732.207031 L 319.628906 735.554688 L 323.882812 732.074219 L 314.527344 728.230469 L 315.445312 726.539062 L 325.339844 730.929688 L 325.53125 730.714844 C 325.839844 730.816406 326.109375 730.964844 326.453125 731.144531 C 343.863281 738.769531 358.515625 740.84375 370.402344 737.394531 C 373.890625 735.839844 375.273438 734.640625 374.503906 733.847656 C 376.308594 735.640625 376.347656 741.15625 374.582031 750.386719 " fill-opacity="1" fill-rule="evenodd"/><path fill="#f89865" d="M 197.394531 208.9375 L 198.308594 208.800781 C 198.5 208.703125 198.730469 208.652344 199.035156 208.652344 C 204.761719 207.65625 209.914062 203.597656 214.417969 196.433594 C 209.914062 203.597656 204.761719 207.65625 199.035156 208.652344 C 198.730469 208.652344 198.5 208.703125 198.308594 208.800781 L 197.394531 208.9375 L 193.539062 209.714844 L 188.613281 190.488281 C 179.757812 186.179688 177.660156 181.269531 182.429688 175.785156 C 184.875 173.082031 188.195312 170.796875 192.355469 168.90625 C 193.347656 162.941406 192.355469 156.375 189.378906 149.230469 C 187.355469 144.457031 184.109375 138.804688 179.71875 132.277344 C 177.011719 128.195312 175.558594 123.324219 175.332031 117.636719 L 175.828125 110.199219 C 177.886719 96.65625 185.675781 83.144531 199.1875 69.652344 C 205.867188 62.84375 212.394531 57.371094 218.617188 53.261719 C 235.300781 38.777344 251.558594 31.8125 267.476562 32.378906 C 280.953125 32.859375 293.816406 38.578125 306.03125 49.566406 C 315.917969 58.316406 324.660156 69.722656 332.292969 83.777344 C 338.515625 95.097656 342.636719 105.125 344.621094 113.878906 C 347.371094 126.324219 345.117188 140.542969 337.828125 156.542969 C 334.164062 164.777344 325.535156 179.449219 311.910156 200.566406 C 303.433594 214.054688 289.195312 224.03125 269.234375 230.515625 C 253.886719 235.4375 239.6875 237.457031 226.632812 236.550781 C 218.578125 235.933594 211.746094 233.117188 206.136719 228.109375 C 204.417969 226.503906 202.96875 224.8125 201.707031 223.054688 L 200.179688 220.652344 C 198.652344 217.1875 197.738281 213.292969 197.394531 208.9375 " fill-opacity="1" fill-rule="evenodd"/><path stroke-linecap="butt" transform="matrix(0.373563, 0, 0, -0.373559, -5874.628741, 2573.810051)" fill="none" stroke-linejoin="miter" d="M 16254.400349 6330.674353 L 16256.899511 6331.029886 C 16257.401434 6331.291307 16257.997469 6331.416789 16258.69807 6331.416789 C 16274.100853 6334.093743 16287.799187 6344.958409 16300.002206 6364.125813 " stroke="#000033" stroke-width="2.219" stroke-opacity="1" stroke-miterlimit="10"/><path fill="#330000" d="M 252.847656 16.578125 C 260.511719 13.261719 268.019531 11.039062 275.417969 9.914062 C 298.945312 6.550781 316.6875 15.117188 328.644531 35.605469 C 342.589844 59.40625 349.949219 72.132812 350.832031 73.792969 C 358.761719 88.808594 363.78125 102.070312 365.851562 113.621094 C 371.484375 144.433594 357.917969 171.433594 325.117188 194.625 C 321.859375 194.625 318.640625 193.742188 315.539062 192.003906 C 309.328125 188.589844 306.800781 182.6875 307.949219 174.320312 C 306.417969 165.289062 303.199219 158.175781 298.253906 153.023438 C 288.371094 142.84375 275.035156 147.632812 258.25 167.355469 C 256.640625 160.082031 254.113281 151.8125 250.625 142.59375 C 243.726562 124.078125 235.488281 109.929688 225.945312 100.128906 C 218.664062 100.230469 211.269531 99.402344 203.796875 97.644531 C 188.816406 94.246094 180.804688 88.210938 179.734375 79.542969 C 179.769531 78.746094 179.925781 77.707031 180.152344 76.429688 C 180.804688 73.828125 181.761719 71.320312 182.988281 68.902344 C 186.820312 61.425781 192.992188 56.570312 201.535156 54.347656 L 203.492188 49.59375 C 205.40625 45.714844 207.667969 42.132812 210.3125 38.867188 C 218.933594 28.3125 230.046875 22.445312 243.613281 21.269531 L 252.847656 16.578125 " fill-opacity="1" fill-rule="evenodd"/><path fill="#330000" d="M 222.347656 110.746094 C 200.242188 110.460938 186.476562 99.804688 181.015625 78.789062 L 191.976562 74.828125 C 194.144531 91.617188 204.28125 103.601562 222.347656 110.746094 " fill-opacity="1" fill-rule="evenodd"/><path fill="#77390d" d="M 290.308594 160.832031 C 288.152344 160.035156 285.765625 160.167969 283.191406 161.265625 C 284.140625 161.746094 284.894531 162.421875 285.425781 163.320312 C 286.371094 164.976562 286.597656 166.847656 286.144531 168.9375 C 285.691406 171.15625 284.746094 173.03125 283.191406 174.539062 C 281.605469 175.964844 279.9375 176.625 278.234375 176.527344 C 276.53125 176.625 275.285156 175.914062 274.414062 174.390625 C 273.503906 172.730469 273.316406 170.726562 273.769531 168.355469 C 274.148438 166.519531 275.019531 164.929688 276.34375 163.601562 C 277.515625 161.859375 278.953125 160.5 280.65625 159.554688 C 283.648438 157.566406 286.5625 157.183594 289.476562 158.429688 C 291.898438 159.472656 293.488281 161.542969 294.28125 164.679688 C 293.449219 162.871094 292.125 161.59375 290.308594 160.832031 " fill-opacity="1" fill-rule="evenodd"/><path fill="#3a210b" d="M 224.542969 120.527344 L 225.589844 129.179688 C 216.71875 126.855469 206.242188 125.828125 194.078125 126.0625 C 191.644531 120.472656 190.671875 115.667969 191.085938 111.640625 C 203.769531 112.023438 214.921875 114.988281 224.542969 120.527344 " fill-opacity="1" fill-rule="evenodd"/><path fill="#000000" d="M 217.984375 142.351562 C 215.175781 140.214844 212.070312 139.367188 208.703125 139.796875 C 205.222656 140.261719 202.453125 141.851562 200.285156 144.554688 C 198.1875 147.289062 197.328125 150.390625 197.738281 153.855469 C 198.1875 157.25 199.796875 160.003906 202.605469 162.074219 C 205.261719 164.265625 208.367188 165.109375 211.808594 164.644531 C 215.214844 164.214844 218.019531 162.621094 220.265625 159.886719 C 222.363281 157.136719 223.183594 154.050781 222.734375 150.65625 C 222.324219 147.191406 220.753906 144.425781 217.984375 142.351562 Z M 219.105469 140.710938 C 222.210938 143.230469 224.007812 146.445312 224.53125 150.375 C 224.980469 154.300781 224.046875 157.796875 221.6875 160.882812 C 219.179688 164.097656 215.964844 165.9375 212.035156 166.417969 C 208.140625 166.933594 204.660156 165.9375 201.519531 163.433594 C 198.300781 161.066406 196.46875 157.914062 195.980469 153.988281 C 195.457031 150.058594 196.46875 146.496094 198.972656 143.261719 C 201.371094 140.195312 204.511719 138.390625 208.40625 137.875 C 212.332031 137.394531 215.890625 138.339844 219.105469 140.710938 " fill-opacity="1" fill-rule="evenodd"/><path fill="#ffffcc" d="M 217.957031 142.359375 C 220.726562 144.429688 222.296875 147.199219 222.710938 150.660156 C 223.15625 154.0625 222.335938 157.144531 220.242188 159.894531 C 218.03125 162.628906 215.191406 164.222656 211.785156 164.652344 C 208.34375 165.117188 205.238281 164.269531 202.582031 162.082031 C 199.777344 160.007812 198.167969 157.257812 197.71875 153.863281 C 197.308594 150.398438 198.167969 147.296875 200.300781 144.5625 C 202.433594 141.863281 205.203125 140.269531 208.679688 139.804688 C 212.085938 139.375 215.152344 140.21875 217.957031 142.359375 " fill-opacity="1" fill-rule="evenodd"/><path fill="#3f0920" d="M 212.863281 149.542969 C 212.300781 149.265625 211.964844 148.917969 211.929688 148.484375 C 211.890625 148.019531 212.078125 147.640625 212.488281 147.359375 C 212.863281 146.976562 213.421875 146.726562 214.058594 146.644531 C 214.695312 146.542969 215.253906 146.644531 215.851562 146.929688 C 216.300781 147.109375 216.5625 147.441406 216.636719 147.921875 C 216.671875 148.351562 216.523438 148.75 216.1875 149.128906 C 215.777344 149.460938 215.253906 149.660156 214.617188 149.761719 C 213.984375 149.863281 213.386719 149.796875 212.863281 149.542969 " fill-opacity="1" fill-rule="evenodd"/><path stroke-linecap="butt" transform="matrix(0.3737, 0, 0, -0.373696, -5874.628741, 2573.810051)" fill="none" stroke-linejoin="miter" d="M 16289.80247 6487.274391 C 16291.203161 6486.594945 16292.802457 6486.417243 16294.49583 6486.689022 C 16296.199655 6486.9608 16297.600346 6487.493904 16298.697902 6488.382411 C 16299.596852 6489.396354 16300.004516 6490.462562 16299.899987 6491.612395 C 16299.701382 6492.898116 16299.001036 6493.786623 16297.798951 6494.267462 C 16296.199655 6495.030533 16294.704888 6495.302311 16293.001063 6495.030533 C 16291.297237 6494.811019 16289.80247 6494.142026 16288.798991 6493.11763 C 16287.701434 6492.365012 16287.199694 6491.351069 16287.304224 6490.10716 C 16287.3983 6488.946874 16288.297251 6488.016555 16289.80247 6487.274391 Z M 16289.80247 6487.274391 " stroke="#330000" stroke-width="1.109" stroke-opacity="1" stroke-miterlimit="10"/><g clip-path="url(#d7c7d5d2a5)"><g clip-path="url(#e1f4613ba4)"><path fill="url(#fbc89afdfc)" d="M 194.480469 157.007812 L 203.832031 132.507812 L 227.957031 142.367188 L 218.601562 166.867188 Z M 194.480469 157.007812 " fill-rule="nonzero"/></g></g><path fill="#330033" d="M 206.597656 156.382812 C 204.875 155.058594 203.828125 153.300781 203.492188 151.128906 C 203.121094 148.941406 203.566406 146.984375 204.839844 145.230469 C 206.109375 143.570312 207.828125 142.609375 209.960938 142.328125 C 212.128906 142.042969 214.074219 142.542969 215.792969 143.820312 C 217.511719 145.195312 218.597656 146.96875 218.972656 149.140625 C 219.308594 151.3125 218.820312 153.25 217.550781 154.957031 C 216.316406 156.664062 214.632812 157.660156 212.429688 157.941406 C 210.296875 158.222656 208.351562 157.707031 206.597656 156.382812 " fill-opacity="1" fill-rule="evenodd"/><path fill="#000000" d="M 207.363281 154.515625 C 206.089844 153.621094 205.308594 152.394531 205.007812 150.835938 C 204.785156 149.261719 205.15625 147.871094 206.128906 146.644531 C 207.136719 145.414062 208.445312 144.703125 210.054688 144.519531 C 211.660156 144.269531 213.15625 144.636719 214.539062 145.582031 C 215.808594 146.527344 216.554688 147.789062 216.78125 149.347656 C 217.078125 150.902344 216.707031 152.28125 215.734375 153.453125 C 214.726562 154.683594 213.417969 155.425781 211.808594 155.65625 C 210.203125 155.839844 208.707031 155.480469 207.363281 154.515625 " fill-opacity="1" fill-rule="evenodd"/><path stroke-linecap="butt" transform="matrix(0.373724, 0, 0, -0.373721, -5874.628741, 2573.810051)" fill="none" stroke-linejoin="miter" d="M 16274.002083 6473.536975 C 16277.597647 6470.955251 16281.600848 6469.993637 16285.89671 6470.484896 C 16290.203025 6471.101583 16293.704519 6473.087525 16296.401192 6476.380008 C 16299.003794 6479.515706 16299.996755 6483.205377 16299.202387 6487.365403 C 16298.596158 6491.535881 16296.599784 6494.911982 16293.202812 6497.441445 C 16289.502726 6499.970908 16285.499526 6500.953426 16281.203663 6500.284477 C 16276.897348 6499.793218 16273.395855 6497.890895 16270.699182 6494.598412 C 16268.096579 6491.316382 16267.103618 6487.595354 16267.699395 6483.383066 C 16268.504215 6479.212588 16270.605112 6475.930558 16274.002083 6473.536975 Z M 16274.002083 6473.536975 " stroke="#330000" stroke-width="0.444" stroke-opacity="1" stroke-miterlimit="10"/><path fill="#ffffff" d="M 206.792969 145.792969 C 207.203125 146.457031 207.351562 147.101562 207.167969 147.714844 C 206.980469 148.277344 206.496094 148.644531 205.75 148.777344 C 205.039062 148.925781 204.253906 148.8125 203.398438 148.425781 C 202.539062 148.046875 201.867188 147.5 201.421875 146.789062 C 200.933594 146.125 200.785156 145.511719 200.972656 144.949219 C 201.234375 144.382812 201.71875 144.054688 202.464844 143.953125 C 203.210938 143.769531 204.070312 143.835938 204.964844 144.167969 C 205.75 144.550781 206.382812 145.078125 206.792969 145.792969 " fill-opacity="1" fill-rule="evenodd"/><path fill="#ffffff" d="M 203.898438 152.847656 C 203.601562 152.699219 203.449219 152.480469 203.414062 152.199219 C 203.339844 151.917969 203.449219 151.632812 203.675781 151.355469 C 203.898438 151.105469 204.234375 150.972656 204.609375 150.921875 C 204.980469 150.875 205.316406 150.921875 205.578125 151.070312 C 205.875 151.304688 206.0625 151.570312 206.101562 151.851562 C 206.136719 152.132812 206.0625 152.363281 205.800781 152.5625 C 205.578125 152.847656 205.242188 153.011719 204.90625 153.042969 C 204.496094 153.09375 204.195312 153.03125 203.898438 152.847656 " fill-opacity="1" fill-rule="evenodd"/><path fill="#ffffff" d="M 216.191406 147.164062 C 215.777344 146.832031 215.554688 146.386719 215.441406 145.820312 C 215.367188 145.292969 215.441406 144.828125 215.742188 144.398438 C 216.039062 143.964844 216.414062 143.71875 216.9375 143.617188 C 217.421875 143.566406 217.835938 143.71875 218.246094 144.050781 C 218.65625 144.363281 218.917969 144.792969 218.992188 145.324219 C 219.105469 145.890625 218.957031 146.386719 218.65625 146.816406 C 218.394531 147.230469 218.058594 147.476562 217.574219 147.511719 C 217.050781 147.613281 216.601562 147.496094 216.1875 147.164062 " fill-opacity="1" fill-rule="evenodd"/></svg>