<svg xmlns="http://www.w3.org/2000/svg" xmlns:xlink="http://www.w3.org/1999/xlink" width="1080" zoomAndPan="magnify" viewBox="0 0 810 809.999993" height="1080" preserveAspectRatio="xMidYMid meet" version="1.0"><defs><clipPath id="8a7daadfc5"><path d="M 34.523438 6.429688 L 771.773438 6.429688 L 771.773438 803.679688 L 34.523438 803.679688 Z M 34.523438 6.429688 " clip-rule="nonzero"/></clipPath><clipPath id="60f2c4f2d6"><path d="M 220 138 L 240 138 L 240 158 L 220 158 Z M 220 138 " clip-rule="nonzero"/></clipPath><clipPath id="efc860e4a4"><path d="M 224.03125 155.863281 C 221.859375 154.207031 220.566406 152.046875 220.148438 149.398438 C 219.730469 146.695312 220.273438 144.292969 221.820312 142.15625 C 223.449219 140.035156 225.617188 138.789062 228.289062 138.460938 C 230.960938 138.125 233.339844 138.789062 235.554688 140.449219 C 237.765625 142.105469 239.101562 144.292969 239.519531 146.976562 C 239.9375 149.632812 239.351562 152.019531 237.765625 154.15625 C 236.136719 156.277344 234.007812 157.519531 231.335938 157.851562 C 228.664062 158.183594 226.203125 157.519531 224.03125 155.863281 " clip-rule="evenodd"/></clipPath><radialGradient gradientTransform="matrix(0.936493, 0.382707, 0.352532, -0.923314, 10544.427612, -3516.00477)" gradientUnits="userSpaceOnUse" r="33.983284" cx="0" id="d4c1405950" cy="0" fx="0" fy="0"><stop stop-opacity="1" stop-color="rgb(57.446289%, 2.047729%, 2.165222%)" offset="0"/><stop stop-opacity="1" stop-color="rgb(57.215881%, 2.120972%, 2.415466%)" offset="0.0078125"/><stop stop-opacity="1" stop-color="rgb(57.063293%, 2.1698%, 2.581787%)" offset="0.0117188"/><stop stop-opacity="1" stop-color="rgb(56.90918%, 2.218628%, 2.749634%)" offset="0.015625"/><stop stop-opacity="1" stop-color="rgb(56.756592%, 2.267456%, 2.915955%)" offset="0.0195312"/><stop stop-opacity="1" stop-color="rgb(56.604004%, 2.316284%, 3.082275%)" offset="0.0234375"/><stop stop-opacity="1" stop-color="rgb(56.44989%, 2.365112%, 3.250122%)" offset="0.0273438"/><stop stop-opacity="1" stop-color="rgb(56.297302%, 2.41394%, 3.416443%)" offset="0.03125"/><stop stop-opacity="1" stop-color="rgb(56.144714%, 2.462769%, 3.582764%)" offset="0.0351562"/><stop stop-opacity="1" stop-color="rgb(55.990601%, 2.511597%, 3.75061%)" offset="0.0390625"/><stop stop-opacity="1" stop-color="rgb(55.838013%, 2.560425%, 3.916931%)" offset="0.0429688"/><stop stop-opacity="1" stop-color="rgb(55.685425%, 2.609253%, 4.083252%)" offset="0.046875"/><stop stop-opacity="1" stop-color="rgb(55.531311%, 2.658081%, 4.251099%)" offset="0.0507812"/><stop stop-opacity="1" stop-color="rgb(55.378723%, 2.706909%, 4.417419%)" offset="0.0546875"/><stop stop-opacity="1" stop-color="rgb(55.226135%, 2.755737%, 4.58374%)" offset="0.0585938"/><stop stop-opacity="1" stop-color="rgb(55.072021%, 2.804565%, 4.751587%)" offset="0.0625"/><stop stop-opacity="1" stop-color="rgb(54.919434%, 2.853394%, 4.917908%)" offset="0.0664062"/><stop stop-opacity="1" stop-color="rgb(54.766846%, 2.902222%, 5.084229%)" offset="0.0703125"/><stop stop-opacity="1" stop-color="rgb(54.612732%, 2.95105%, 5.250549%)" offset="0.0742188"/><stop stop-opacity="1" stop-color="rgb(54.460144%, 2.999878%, 5.418396%)" offset="0.078125"/><stop stop-opacity="1" stop-color="rgb(54.30603%, 3.048706%, 5.584717%)" offset="0.0820312"/><stop stop-opacity="1" stop-color="rgb(54.153442%, 3.097534%, 5.751038%)" offset="0.0859375"/><stop stop-opacity="1" stop-color="rgb(54.000854%, 3.146362%, 5.918884%)" offset="0.0898438"/><stop stop-opacity="1" stop-color="rgb(53.846741%, 3.19519%, 6.085205%)" offset="0.09375"/><stop stop-opacity="1" stop-color="rgb(53.694153%, 3.244019%, 6.251526%)" offset="0.0976562"/><stop stop-opacity="1" stop-color="rgb(53.541565%, 3.292847%, 6.419373%)" offset="0.101562"/><stop stop-opacity="1" stop-color="rgb(53.387451%, 3.341675%, 6.585693%)" offset="0.105469"/><stop stop-opacity="1" stop-color="rgb(53.234863%, 3.390503%, 6.752014%)" offset="0.109375"/><stop stop-opacity="1" stop-color="rgb(53.082275%, 3.439331%, 6.919861%)" offset="0.113281"/><stop stop-opacity="1" stop-color="rgb(52.928162%, 3.488159%, 7.086182%)" offset="0.117188"/><stop stop-opacity="1" stop-color="rgb(52.775574%, 3.536987%, 7.252502%)" offset="0.121094"/><stop stop-opacity="1" stop-color="rgb(52.622986%, 3.585815%, 7.420349%)" offset="0.125"/><stop stop-opacity="1" stop-color="rgb(52.468872%, 3.634644%, 7.58667%)" offset="0.128906"/><stop stop-opacity="1" stop-color="rgb(52.316284%, 3.683472%, 7.752991%)" offset="0.132812"/><stop stop-opacity="1" stop-color="rgb(52.163696%, 3.7323%, 7.919312%)" offset="0.136719"/><stop stop-opacity="1" stop-color="rgb(52.009583%, 3.781128%, 8.087158%)" offset="0.140625"/><stop stop-opacity="1" stop-color="rgb(51.856995%, 3.829956%, 8.253479%)" offset="0.144531"/><stop stop-opacity="1" stop-color="rgb(51.704407%, 3.878784%, 8.4198%)" offset="0.148438"/><stop stop-opacity="1" stop-color="rgb(51.550293%, 3.927612%, 8.587646%)" offset="0.152344"/><stop stop-opacity="1" stop-color="rgb(51.397705%, 3.97644%, 8.753967%)" offset="0.15625"/><stop stop-opacity="1" stop-color="rgb(51.243591%, 4.025269%, 8.920288%)" offset="0.160156"/><stop stop-opacity="1" stop-color="rgb(51.091003%, 4.074097%, 9.088135%)" offset="0.164062"/><stop stop-opacity="1" stop-color="rgb(50.938416%, 4.122925%, 9.254456%)" offset="0.167969"/><stop stop-opacity="1" stop-color="rgb(50.784302%, 4.171753%, 9.420776%)" offset="0.171875"/><stop stop-opacity="1" stop-color="rgb(50.631714%, 4.220581%, 9.588623%)" offset="0.175781"/><stop stop-opacity="1" stop-color="rgb(50.479126%, 4.269409%, 9.754944%)" offset="0.179688"/><stop stop-opacity="1" stop-color="rgb(50.325012%, 4.318237%, 9.921265%)" offset="0.183594"/><stop stop-opacity="1" stop-color="rgb(50.172424%, 4.367065%, 10.089111%)" offset="0.1875"/><stop stop-opacity="1" stop-color="rgb(50.019836%, 4.415894%, 10.255432%)" offset="0.191406"/><stop stop-opacity="1" stop-color="rgb(49.865723%, 4.464722%, 10.421753%)" offset="0.195312"/><stop stop-opacity="1" stop-color="rgb(49.713135%, 4.51355%, 10.588074%)" offset="0.199219"/><stop stop-opacity="1" stop-color="rgb(49.560547%, 4.562378%, 10.75592%)" offset="0.203125"/><stop stop-opacity="1" stop-color="rgb(49.406433%, 4.611206%, 10.922241%)" offset="0.207031"/><stop stop-opacity="1" stop-color="rgb(49.253845%, 4.660034%, 11.088562%)" offset="0.210938"/><stop stop-opacity="1" stop-color="rgb(49.101257%, 4.708862%, 11.256409%)" offset="0.214844"/><stop stop-opacity="1" stop-color="rgb(48.947144%, 4.75769%, 11.422729%)" offset="0.21875"/><stop stop-opacity="1" stop-color="rgb(48.794556%, 4.806519%, 11.58905%)" offset="0.222656"/><stop stop-opacity="1" stop-color="rgb(48.640442%, 4.855347%, 11.756897%)" offset="0.226562"/><stop stop-opacity="1" stop-color="rgb(48.487854%, 4.904175%, 11.923218%)" offset="0.230469"/><stop stop-opacity="1" stop-color="rgb(48.335266%, 4.953003%, 12.089539%)" offset="0.234375"/><stop stop-opacity="1" stop-color="rgb(48.181152%, 5.001831%, 12.257385%)" offset="0.238281"/><stop stop-opacity="1" stop-color="rgb(48.028564%, 5.050659%, 12.423706%)" offset="0.242188"/><stop stop-opacity="1" stop-color="rgb(47.875977%, 5.099487%, 12.590027%)" offset="0.246094"/><stop stop-opacity="1" stop-color="rgb(47.721863%, 5.148315%, 12.757874%)" offset="0.25"/><stop stop-opacity="1" stop-color="rgb(47.492981%, 5.221558%, 13.008118%)" offset="0.253906"/><stop stop-opacity="1" stop-color="rgb(47.186279%, 5.319214%, 13.340759%)" offset="0.261719"/><stop stop-opacity="1" stop-color="rgb(46.879578%, 5.41687%, 13.674927%)" offset="0.269531"/><stop stop-opacity="1" stop-color="rgb(46.574402%, 5.514526%, 14.007568%)" offset="0.277344"/><stop stop-opacity="1" stop-color="rgb(46.2677%, 5.612183%, 14.341736%)" offset="0.285156"/><stop stop-opacity="1" stop-color="rgb(45.960999%, 5.709839%, 14.675903%)" offset="0.292969"/><stop stop-opacity="1" stop-color="rgb(45.654297%, 5.807495%, 15.008545%)" offset="0.300781"/><stop stop-opacity="1" stop-color="rgb(45.349121%, 5.905151%, 15.342712%)" offset="0.308594"/><stop stop-opacity="1" stop-color="rgb(45.042419%, 6.002808%, 15.675354%)" offset="0.316406"/><stop stop-opacity="1" stop-color="rgb(44.735718%, 6.100464%, 16.009521%)" offset="0.324219"/><stop stop-opacity="1" stop-color="rgb(44.430542%, 6.19812%, 16.343689%)" offset="0.332031"/><stop stop-opacity="1" stop-color="rgb(44.12384%, 6.295776%, 16.676331%)" offset="0.339844"/><stop stop-opacity="1" stop-color="rgb(43.817139%, 6.393433%, 17.010498%)" offset="0.347656"/><stop stop-opacity="1" stop-color="rgb(43.511963%, 6.491089%, 17.344666%)" offset="0.355469"/><stop stop-opacity="1" stop-color="rgb(43.205261%, 6.588745%, 17.677307%)" offset="0.363281"/><stop stop-opacity="1" stop-color="rgb(42.89856%, 6.686401%, 18.011475%)" offset="0.371094"/><stop stop-opacity="1" stop-color="rgb(42.591858%, 6.784058%, 18.344116%)" offset="0.378906"/><stop stop-opacity="1" stop-color="rgb(42.286682%, 6.881714%, 18.678284%)" offset="0.386719"/><stop stop-opacity="1" stop-color="rgb(41.97998%, 6.97937%, 19.012451%)" offset="0.394531"/><stop stop-opacity="1" stop-color="rgb(41.673279%, 7.077026%, 19.345093%)" offset="0.402344"/><stop stop-opacity="1" stop-color="rgb(41.368103%, 7.174683%, 19.67926%)" offset="0.410156"/><stop stop-opacity="1" stop-color="rgb(41.061401%, 7.272339%, 20.013428%)" offset="0.417969"/><stop stop-opacity="1" stop-color="rgb(40.7547%, 7.369995%, 20.346069%)" offset="0.425781"/><stop stop-opacity="1" stop-color="rgb(40.447998%, 7.467651%, 20.680237%)" offset="0.433594"/><stop stop-opacity="1" stop-color="rgb(40.142822%, 7.565308%, 21.012878%)" offset="0.441406"/><stop stop-opacity="1" stop-color="rgb(39.836121%, 7.662964%, 21.347046%)" offset="0.449219"/><stop stop-opacity="1" stop-color="rgb(39.529419%, 7.76062%, 21.681213%)" offset="0.457031"/><stop stop-opacity="1" stop-color="rgb(39.224243%, 7.858276%, 22.013855%)" offset="0.464844"/><stop stop-opacity="1" stop-color="rgb(38.917542%, 7.955933%, 22.348022%)" offset="0.472656"/><stop stop-opacity="1" stop-color="rgb(38.61084%, 8.053589%, 22.68219%)" offset="0.480469"/><stop stop-opacity="1" stop-color="rgb(38.305664%, 8.151245%, 23.014832%)" offset="0.488281"/><stop stop-opacity="1" stop-color="rgb(37.998962%, 8.248901%, 23.348999%)" offset="0.496094"/><stop stop-opacity="1" stop-color="rgb(37.768555%, 8.322144%, 23.599243%)" offset="0.503906"/><stop stop-opacity="1" stop-color="rgb(37.615967%, 8.370972%, 23.765564%)" offset="0.507812"/><stop stop-opacity="1" stop-color="rgb(37.463379%, 8.4198%, 23.931885%)" offset="0.511719"/><stop stop-opacity="1" stop-color="rgb(37.309265%, 8.468628%, 24.099731%)" offset="0.515625"/><stop stop-opacity="1" stop-color="rgb(37.156677%, 8.517456%, 24.266052%)" offset="0.519531"/><stop stop-opacity="1" stop-color="rgb(37.004089%, 8.566284%, 24.432373%)" offset="0.523438"/><stop stop-opacity="1" stop-color="rgb(36.849976%, 8.615112%, 24.60022%)" offset="0.527344"/><stop stop-opacity="1" stop-color="rgb(36.697388%, 8.66394%, 24.766541%)" offset="0.53125"/><stop stop-opacity="1" stop-color="rgb(36.5448%, 8.712769%, 24.932861%)" offset="0.535156"/><stop stop-opacity="1" stop-color="rgb(36.390686%, 8.761597%, 25.100708%)" offset="0.539062"/><stop stop-opacity="1" stop-color="rgb(36.238098%, 8.810425%, 25.267029%)" offset="0.542969"/><stop stop-opacity="1" stop-color="rgb(36.08551%, 8.859253%, 25.43335%)" offset="0.546875"/><stop stop-opacity="1" stop-color="rgb(35.931396%, 8.908081%, 25.601196%)" offset="0.550781"/><stop stop-opacity="1" stop-color="rgb(35.778809%, 8.956909%, 25.767517%)" offset="0.554688"/><stop stop-opacity="1" stop-color="rgb(35.626221%, 9.005737%, 25.933838%)" offset="0.558594"/><stop stop-opacity="1" stop-color="rgb(35.472107%, 9.054565%, 26.100159%)" offset="0.5625"/><stop stop-opacity="1" stop-color="rgb(35.319519%, 9.103394%, 26.268005%)" offset="0.566406"/><stop stop-opacity="1" stop-color="rgb(35.165405%, 9.152222%, 26.434326%)" offset="0.570312"/><stop stop-opacity="1" stop-color="rgb(35.012817%, 9.20105%, 26.600647%)" offset="0.574219"/><stop stop-opacity="1" stop-color="rgb(34.860229%, 9.249878%, 26.768494%)" offset="0.578125"/><stop stop-opacity="1" stop-color="rgb(34.706116%, 9.298706%, 26.934814%)" offset="0.582031"/><stop stop-opacity="1" stop-color="rgb(34.553528%, 9.347534%, 27.101135%)" offset="0.585938"/><stop stop-opacity="1" stop-color="rgb(34.40094%, 9.396362%, 27.268982%)" offset="0.589844"/><stop stop-opacity="1" stop-color="rgb(34.246826%, 9.44519%, 27.435303%)" offset="0.59375"/><stop stop-opacity="1" stop-color="rgb(34.094238%, 9.494019%, 27.601624%)" offset="0.597656"/><stop stop-opacity="1" stop-color="rgb(33.94165%, 9.542847%, 27.76947%)" offset="0.601562"/><stop stop-opacity="1" stop-color="rgb(33.787537%, 9.591675%, 27.935791%)" offset="0.605469"/><stop stop-opacity="1" stop-color="rgb(33.634949%, 9.640503%, 28.102112%)" offset="0.609375"/><stop stop-opacity="1" stop-color="rgb(33.482361%, 9.689331%, 28.269958%)" offset="0.613281"/><stop stop-opacity="1" stop-color="rgb(33.328247%, 9.738159%, 28.436279%)" offset="0.617188"/><stop stop-opacity="1" stop-color="rgb(33.175659%, 9.786987%, 28.6026%)" offset="0.621094"/><stop stop-opacity="1" stop-color="rgb(33.023071%, 9.835815%, 28.768921%)" offset="0.625"/><stop stop-opacity="1" stop-color="rgb(32.792664%, 9.909058%, 29.019165%)" offset="0.628906"/><stop stop-opacity="1" stop-color="rgb(32.485962%, 10.006714%, 29.353333%)" offset="0.636719"/><stop stop-opacity="1" stop-color="rgb(32.17926%, 10.10437%, 29.6875%)" offset="0.644531"/><stop stop-opacity="1" stop-color="rgb(31.874084%, 10.202026%, 30.020142%)" offset="0.652344"/><stop stop-opacity="1" stop-color="rgb(31.567383%, 10.299683%, 30.354309%)" offset="0.660156"/><stop stop-opacity="1" stop-color="rgb(31.260681%, 10.397339%, 30.688477%)" offset="0.667969"/><stop stop-opacity="1" stop-color="rgb(30.955505%, 10.494995%, 31.021118%)" offset="0.675781"/><stop stop-opacity="1" stop-color="rgb(30.648804%, 10.592651%, 31.355286%)" offset="0.683594"/><stop stop-opacity="1" stop-color="rgb(30.342102%, 10.690308%, 31.687927%)" offset="0.691406"/><stop stop-opacity="1" stop-color="rgb(30.036926%, 10.787964%, 32.022095%)" offset="0.699219"/><stop stop-opacity="1" stop-color="rgb(29.730225%, 10.88562%, 32.356262%)" offset="0.707031"/><stop stop-opacity="1" stop-color="rgb(29.423523%, 10.983276%, 32.688904%)" offset="0.714844"/><stop stop-opacity="1" stop-color="rgb(29.116821%, 11.080933%, 33.023071%)" offset="0.722656"/><stop stop-opacity="1" stop-color="rgb(28.811646%, 11.178589%, 33.357239%)" offset="0.730469"/><stop stop-opacity="1" stop-color="rgb(28.504944%, 11.276245%, 33.68988%)" offset="0.738281"/><stop stop-opacity="1" stop-color="rgb(28.198242%, 11.373901%, 34.024048%)" offset="0.746094"/><stop stop-opacity="1" stop-color="rgb(27.96936%, 11.447144%, 34.274292%)" offset="0.753906"/><stop stop-opacity="1" stop-color="rgb(27.816772%, 11.495972%, 34.440613%)" offset="0.757812"/><stop stop-opacity="1" stop-color="rgb(27.662659%, 11.5448%, 34.606934%)" offset="0.761719"/><stop stop-opacity="1" stop-color="rgb(27.510071%, 11.593628%, 34.77478%)" offset="0.765625"/><stop stop-opacity="1" stop-color="rgb(27.357483%, 11.642456%, 34.941101%)" offset="0.769531"/><stop stop-opacity="1" stop-color="rgb(27.203369%, 11.691284%, 35.107422%)" offset="0.773438"/><stop stop-opacity="1" stop-color="rgb(27.050781%, 11.740112%, 35.275269%)" offset="0.777344"/><stop stop-opacity="1" stop-color="rgb(26.896667%, 11.78894%, 35.441589%)" offset="0.78125"/><stop stop-opacity="1" stop-color="rgb(26.74408%, 11.837769%, 35.60791%)" offset="0.785156"/><stop stop-opacity="1" stop-color="rgb(26.591492%, 11.886597%, 35.775757%)" offset="0.789062"/><stop stop-opacity="1" stop-color="rgb(26.437378%, 11.935425%, 35.942078%)" offset="0.792969"/><stop stop-opacity="1" stop-color="rgb(26.28479%, 11.984253%, 36.108398%)" offset="0.796875"/><stop stop-opacity="1" stop-color="rgb(26.132202%, 12.033081%, 36.274719%)" offset="0.800781"/><stop stop-opacity="1" stop-color="rgb(25.978088%, 12.081909%, 36.442566%)" offset="0.804688"/><stop stop-opacity="1" stop-color="rgb(25.8255%, 12.130737%, 36.608887%)" offset="0.808594"/><stop stop-opacity="1" stop-color="rgb(25.672913%, 12.179565%, 36.775208%)" offset="0.8125"/><stop stop-opacity="1" stop-color="rgb(25.442505%, 12.252808%, 37.025452%)" offset="0.816406"/><stop stop-opacity="1" stop-color="rgb(25.135803%, 12.350464%, 37.359619%)" offset="0.824219"/><stop stop-opacity="1" stop-color="rgb(24.830627%, 12.44812%, 37.693787%)" offset="0.832031"/><stop stop-opacity="1" stop-color="rgb(24.523926%, 12.545776%, 38.026428%)" offset="0.839844"/><stop stop-opacity="1" stop-color="rgb(24.217224%, 12.643433%, 38.360596%)" offset="0.847656"/><stop stop-opacity="1" stop-color="rgb(23.910522%, 12.741089%, 38.694763%)" offset="0.855469"/><stop stop-opacity="1" stop-color="rgb(23.605347%, 12.838745%, 39.027405%)" offset="0.863281"/><stop stop-opacity="1" stop-color="rgb(23.298645%, 12.936401%, 39.361572%)" offset="0.871094"/><stop stop-opacity="1" stop-color="rgb(23.069763%, 13.009644%, 39.611816%)" offset="0.878906"/><stop stop-opacity="1" stop-color="rgb(22.915649%, 13.058472%, 39.778137%)" offset="0.882812"/><stop stop-opacity="1" stop-color="rgb(22.763062%, 13.1073%, 39.944458%)" offset="0.886719"/><stop stop-opacity="1" stop-color="rgb(22.610474%, 13.156128%, 40.112305%)" offset="0.890625"/><stop stop-opacity="1" stop-color="rgb(22.45636%, 13.204956%, 40.278625%)" offset="0.894531"/><stop stop-opacity="1" stop-color="rgb(22.303772%, 13.253784%, 40.444946%)" offset="0.898438"/><stop stop-opacity="1" stop-color="rgb(22.151184%, 13.302612%, 40.612793%)" offset="0.902344"/><stop stop-opacity="1" stop-color="rgb(21.99707%, 13.35144%, 40.779114%)" offset="0.90625"/><stop stop-opacity="1" stop-color="rgb(21.768188%, 13.424683%, 41.029358%)" offset="0.910156"/><stop stop-opacity="1" stop-color="rgb(21.461487%, 13.522339%, 41.363525%)" offset="0.917969"/><stop stop-opacity="1" stop-color="rgb(21.154785%, 13.619995%, 41.696167%)" offset="0.925781"/><stop stop-opacity="1" stop-color="rgb(20.848083%, 13.717651%, 42.030334%)" offset="0.933594"/><stop stop-opacity="1" stop-color="rgb(20.619202%, 13.790894%, 42.280579%)" offset="0.941406"/><stop stop-opacity="1" stop-color="rgb(20.466614%, 13.839722%, 42.446899%)" offset="0.945312"/><stop stop-opacity="1" stop-color="rgb(20.3125%, 13.88855%, 42.61322%)" offset="0.949219"/><stop stop-opacity="1" stop-color="rgb(20.159912%, 13.937378%, 42.781067%)" offset="0.953125"/><stop stop-opacity="1" stop-color="rgb(19.929504%, 14.01062%, 43.031311%)" offset="0.957031"/><stop stop-opacity="1" stop-color="rgb(19.624329%, 14.108276%, 43.363953%)" offset="0.964844"/><stop stop-opacity="1" stop-color="rgb(19.393921%, 14.181519%, 43.614197%)" offset="0.972656"/><stop stop-opacity="1" stop-color="rgb(19.241333%, 14.230347%, 43.782043%)" offset="0.976562"/><stop stop-opacity="1" stop-color="rgb(19.010925%, 14.303589%, 44.032288%)" offset="0.980469"/><stop stop-opacity="1" stop-color="rgb(18.782043%, 14.376831%, 44.281006%)" offset="0.988281"/><stop stop-opacity="1" stop-color="rgb(18.551636%, 14.450073%, 44.53125%)" offset="0.992188"/><stop stop-opacity="1" stop-color="rgb(18.399048%, 14.498901%, 44.699097%)" offset="1"/></radialGradient></defs><g clip-path="url(#8a7daadfc5)"><rect x="-81" width="972" fill="#697a7a" y="-80.999999" height="971.999992" fill-opacity="1"/></g><path fill="#666666" d="M 407.714844 484.730469 L 406.988281 485.507812 C 406.046875 485.609375 405.105469 485.691406 404.164062 485.789062 L 404.722656 485.65625 C 405.707031 485.460938 406.730469 485.160156 407.714844 484.730469 " fill-opacity="1" fill-rule="evenodd"/><path fill="#b02222" d="M 474.378906 276.671875 C 472.523438 275.394531 470.019531 275.140625 466.867188 275.890625 C 465.179688 276.222656 463.453125 276.800781 461.597656 277.597656 C 460.992188 277.878906 461.769531 277.746094 463.886719 277.167969 L 460.128906 278.375 C 459.609375 278.710938 459.222656 278.9375 459.050781 279.089844 C 458.917969 279.140625 458.875 279.1875 458.960938 279.234375 C 458.960938 279.289062 458.097656 279.820312 456.328125 280.863281 C 455.507812 280.910156 454.558594 281.261719 453.566406 281.921875 C 452.140625 282.734375 450.757812 283.695312 449.375 284.839844 L 449.375 284.90625 L 447.992188 285.835938 C 447.691406 285.984375 447.433594 286.167969 447.257812 286.398438 C 447.128906 286.449219 446.914062 286.5625 446.699219 286.761719 C 446.65625 286.8125 446.613281 286.84375 446.570312 286.894531 C 446.480469 286.894531 446.4375 286.929688 446.394531 286.960938 C 446.351562 287.011719 446.308594 287.042969 446.265625 287.042969 C 446.179688 287.09375 446.09375 287.160156 446.050781 287.257812 L 445.359375 287.824219 C 443.71875 289.152344 441.992188 290.640625 440.132812 292.296875 C 434.5625 297.585938 430.289062 302.757812 427.308594 307.761719 C 425.96875 310.035156 424.933594 312.453125 424.199219 315.003906 C 423.726562 316.148438 423.378906 317.425781 423.207031 318.851562 C 422.730469 322.019531 422.644531 325.066406 422.992188 328.003906 L 423.207031 328.285156 C 423.464844 329.84375 423.984375 331.097656 424.761719 332.042969 C 425.191406 332.476562 425.796875 333.351562 426.574219 334.679688 C 421.867188 329.808594 416.253906 324.917969 409.777344 320.042969 C 407.703125 318.589844 405.414062 317.058594 402.910156 315.503906 C 399.800781 313.332031 396.605469 311.296875 393.234375 309.402344 C 387.621094 306.238281 372.722656 300.882812 348.582031 293.359375 C 339.558594 257.0625 352.773438 230.886719 388.183594 214.84375 C 405.890625 225.734375 415.128906 231.519531 415.863281 232.230469 C 430.589844 243.273438 441.515625 251.542969 448.597656 257.078125 C 449.546875 257.65625 450.28125 258.152344 450.800781 258.566406 C 452.183594 259.515625 453.433594 260.507812 454.558594 261.550781 C 454.859375 261.605469 455.03125 261.734375 455.117188 261.984375 C 455.421875 262.117188 455.59375 262.246094 455.636719 262.328125 C 455.679688 262.53125 455.765625 262.578125 455.894531 262.480469 C 456.714844 263.144531 457.277344 263.640625 457.535156 263.976562 L 457.621094 263.976562 C 460 265.914062 462.113281 267.636719 464.015625 269.144531 C 467.597656 271.894531 470.835938 274.101562 473.730469 275.753906 C 473.945312 276.039062 474.164062 276.339844 474.378906 276.671875 " fill-opacity="1" fill-rule="evenodd"/><path fill="#911c1c" d="M 477.542969 297.910156 C 477.195312 297.578125 476.765625 297.277344 476.289062 297 C 475.511719 296.417969 474.519531 295.722656 473.351562 294.859375 C 470.585938 292.820312 467.648438 290.765625 464.707031 288.691406 C 460.300781 286.039062 456.628906 283.769531 453.777344 281.867188 C 454.769531 281.199219 455.679688 280.855469 456.542969 280.804688 C 458.269531 279.761719 459.175781 279.230469 459.175781 279.179688 C 459.046875 279.128906 459.089844 279.078125 459.222656 279.03125 C 459.394531 278.878906 459.78125 278.652344 460.300781 278.320312 L 464.058594 277.109375 C 461.941406 277.6875 461.164062 277.820312 461.769531 277.539062 C 463.628906 276.742188 465.398438 276.164062 467.042969 275.828125 C 470.195312 275.085938 472.703125 275.332031 474.5625 276.613281 C 475.902344 277.371094 476.851562 278.597656 477.414062 280.304688 C 477.542969 280.585938 477.628906 280.902344 477.671875 281.234375 C 477.84375 281.371094 477.886719 281.582031 477.886719 281.867188 C 478.839844 285.328125 478.753906 290.371094 477.671875 297 C 477.585938 297.28125 477.542969 297.578125 477.542969 297.910156 Z M 423.183594 327.945312 C 425.171875 329.320312 427.375 330.945312 429.835938 332.851562 C 430.917969 333.410156 431.867188 334.078125 432.6875 334.820312 C 430.875 335.023438 428.972656 335.035156 426.984375 334.90625 L 426.984375 334.820312 C 426.941406 334.738281 426.855469 334.675781 426.769531 334.621094 C 425.992188 333.296875 425.386719 332.417969 424.953125 331.992188 C 424.175781 331.042969 423.65625 329.78125 423.398438 328.226562 L 423.183594 327.945312 " fill-opacity="1" fill-rule="evenodd"/><path fill="#f89865" d="M 432.492188 334.886719 C 431.667969 334.140625 430.714844 333.476562 429.628906 332.914062 C 427.160156 331.007812 424.949219 329.382812 422.957031 328.007812 C 422.652344 325.074219 422.695312 322.023438 423.171875 318.855469 C 423.347656 317.433594 423.691406 316.15625 424.167969 315.011719 C 424.90625 312.457031 425.945312 310.039062 427.289062 307.769531 C 430.28125 302.761719 434.570312 297.59375 440.117188 292.304688 C 441.980469 290.644531 443.714844 289.152344 445.320312 287.828125 L 446.054688 287.265625 C 446.097656 287.164062 446.140625 287.101562 446.273438 287.046875 C 446.316406 287.046875 446.359375 287.019531 446.402344 286.964844 C 446.445312 286.933594 446.488281 286.902344 446.53125 286.902344 C 446.574219 286.851562 446.617188 286.816406 446.707031 286.765625 C 446.921875 286.570312 447.097656 286.453125 447.269531 286.402344 C 447.441406 286.171875 447.660156 285.992188 447.960938 285.839844 L 449.390625 284.910156 L 449.390625 284.847656 C 450.734375 283.703125 452.121094 282.742188 453.554688 281.929688 C 456.457031 283.832031 460.097656 286.101562 464.519531 288.753906 C 467.464844 290.828125 470.367188 292.886719 473.140625 294.921875 C 474.3125 295.785156 475.308594 296.480469 476.089844 297.058594 C 476.566406 297.339844 477 297.640625 477.347656 297.972656 C 480.726562 300.574219 483.890625 303.210938 486.925781 305.863281 C 489.613281 308.976562 492.296875 312.058594 494.941406 315.09375 C 494.984375 315.128906 495.070312 315.226562 495.070312 315.375 C 496.933594 317.699219 498.496094 320.296875 499.710938 323.183594 C 499.101562 324.972656 483.542969 333.261719 453.078125 348.03125 C 440.074219 339.640625 433.183594 335.265625 432.488281 334.886719 " fill-opacity="1" fill-rule="evenodd"/><path fill="#f89865" d="M 420.953125 422.898438 C 426.527344 419.351562 432.617188 411.613281 439.1875 399.695312 C 454.222656 392.402344 466.277344 396.777344 475.347656 412.820312 C 478.027344 424.707031 476.515625 437.816406 470.726562 452.152344 C 470.726562 462.234375 467.703125 471.082031 461.695312 478.707031 C 457.851562 481.972656 455.085938 481.773438 453.398438 478.144531 C 453.011719 478.609375 452.578125 479.105469 452.0625 479.617188 C 450.289062 480.296875 448.519531 480.296875 446.660156 479.617188 C 444.285156 478.210938 443.375 477.234375 443.894531 476.71875 C 443.289062 477.234375 442.640625 477.714844 441.992188 478.144531 C 435.597656 478.757812 432.097656 476.785156 431.449219 472.242188 C 427.390625 476.171875 424.0625 476.71875 421.46875 473.886719 C 416.5 470.1875 414.816406 462.613281 416.414062 451.160156 C 416.113281 451.023438 415.984375 450.894531 415.941406 450.8125 C 414.558594 449.617188 413.433594 448.339844 412.570312 446.96875 C 412.136719 445.96875 411.792969 444.957031 411.445312 443.917969 C 411.230469 443.351562 411.144531 442.871094 411.144531 442.507812 C 409.632812 433.457031 412.398438 427.210938 419.484375 423.761719 C 419.742188 423.527344 420.089844 423.265625 420.476562 422.980469 C 420.648438 422.933594 420.824219 422.898438 420.953125 422.898438 " fill-opacity="1" fill-rule="evenodd"/><path fill="#f89865" d="M 484.074219 316.167969 C 487.109375 316.121094 490.710938 316.183594 494.742188 316.382812 C 495.003906 316.515625 495.21875 316.515625 495.394531 316.382812 C 497.777344 318.652344 499.902344 322.761719 501.722656 328.730469 C 501.941406 329.292969 502.027344 329.855469 502.070312 330.4375 C 503.589844 338.90625 503.761719 346.519531 502.546875 353.296875 C 500.117188 363.703125 495.480469 374.480469 488.582031 385.585938 C 484.289062 392.644531 481.210938 397.683594 479.347656 400.714844 C 476.746094 405.441406 474.664062 411.191406 473.058594 417.96875 C 472.539062 417.96875 471.671875 417.984375 470.414062 418.039062 C 468.203125 417.984375 466.640625 417.984375 465.730469 418.039062 C 465.6875 417.984375 465.558594 417.9375 465.296875 417.886719 C 464.734375 417.886719 464.214844 417.886719 463.691406 417.886719 C 462.738281 417.804688 461.828125 417.65625 460.960938 417.472656 C 460.050781 417.472656 458.402344 416.992188 456.0625 416.046875 C 453.589844 415.285156 451.722656 414.4375 450.554688 413.492188 C 449.210938 412.628906 448.125 411.917969 447.257812 411.355469 C 446.085938 410.609375 445.003906 409.734375 443.960938 408.734375 C 443.269531 408.207031 442.488281 407.480469 441.535156 406.53125 L 441.449219 406.53125 C 439.582031 403.648438 438.976562 401.675781 439.667969 400.648438 C 441.101562 398.410156 442.402344 394.632812 443.660156 389.277344 C 444.832031 383.941406 445.265625 378.855469 444.917969 374.015625 C 444.699219 370.183594 444.050781 365.628906 443.007812 360.324219 C 442.964844 358.847656 442.878906 357.472656 442.75 356.195312 C 442.75 355.53125 442.617188 354.917969 442.445312 354.359375 C 442.402344 353.695312 442.316406 352.980469 442.226562 352.234375 C 442.878906 340.960938 449.46875 331.546875 461.960938 323.972656 C 468.507812 320.046875 474.273438 317.625 479.304688 316.730469 C 480.691406 316.496094 482.296875 316.300781 484.074219 316.167969 " fill-opacity="1" fill-rule="evenodd"/><path fill="#e38b5c" d="M 457.507812 627.070312 C 461.085938 637.347656 461.816406 651.183594 459.792969 668.609375 C 457.765625 685.976562 456.773438 699.089844 456.859375 707.9375 C 456.945312 716.839844 456.429688 722.90625 455.394531 726.171875 L 418.453125 724.332031 C 417.332031 719.226562 414.917969 710.722656 411.210938 698.839844 C 406.035156 682.460938 400.691406 657.949219 395.261719 625.292969 C 390.777344 613.378906 387.328125 601.757812 384.957031 590.4375 L 453.109375 616.644531 L 453.109375 616.5625 L 453.195312 616.644531 C 454.144531 618.101562 455.566406 621.582031 457.507812 627.070312 " fill-opacity="1" fill-rule="evenodd"/><path fill="#e38b5c" d="M 450.304688 546.945312 C 452.71875 552.382812 454.011719 559.230469 454.183594 567.464844 C 454.402344 575.6875 454.832031 582.101562 455.609375 586.691406 C 456.382812 591.335938 457.765625 596.039062 459.789062 600.832031 C 461.472656 604.839844 462.808594 608.15625 463.84375 610.761719 L 429.433594 607.429688 C 405.246094 604.210938 393.085938 602.457031 393 602.175781 C 387.046875 590.621094 383.339844 580.742188 382.003906 572.503906 C 380.625 564.117188 380.449219 555.050781 381.484375 545.304688 C 387.609375 549.996094 391.703125 552.714844 393.859375 553.476562 C 395.15625 554.042969 396.144531 554.257812 396.75 554.105469 C 403.003906 554.207031 409.210938 554.472656 415.378906 554.90625 C 427.148438 556.03125 438.792969 553.378906 450.304688 546.945312 " fill-opacity="1" fill-rule="evenodd"/><path fill="#f89865" d="M 464.363281 611.707031 L 471.136719 612.667969 C 468.851562 612.40625 466.648438 612.136719 464.449219 611.859375 C 464.40625 611.804688 464.363281 611.757812 464.363281 611.707031 " fill-opacity="1" fill-rule="evenodd"/><path fill="#008395" d="M 445.964844 480.304688 C 451.09375 485.558594 457 493.351562 463.640625 503.660156 C 456.3125 530.496094 453.898438 548.941406 456.484375 558.972656 C 453.421875 558.640625 451.484375 558.757812 450.664062 559.320312 C 448.207031 560.746094 445.617188 562.019531 442.859375 563.164062 C 436.175781 565.902344 428.542969 568.253906 419.964844 570.191406 C 408.539062 572.796875 397.84375 572.914062 387.96875 570.539062 C 386.675781 570.210938 385.46875 569.929688 384.347656 569.695312 C 379.691406 568.167969 375.808594 566.496094 372.707031 564.65625 C 370.25 563.035156 368.222656 561.257812 366.667969 559.320312 C 366.710938 555.207031 366.929688 549.605469 367.316406 542.496094 C 367.53125 535.585938 367.789062 515.445312 368.09375 482.082031 C 369.082031 473.09375 371.628906 464.179688 375.722656 455.324219 C 377.921875 450.535156 380.597656 445.761719 383.742188 440.988281 C 386.804688 442.066406 390.296875 443.558594 394.265625 445.449219 C 417.375 456.570312 434.625 468.1875 445.964844 480.304688 " fill-opacity="1" fill-rule="evenodd"/><path fill="#f89865" d="M 477.898438 562.96875 C 484.230469 561.976562 495.484375 562.9375 511.621094 565.871094 C 520.285156 567.726562 526.617188 569.1875 530.660156 570.28125 C 534.488281 571.371094 540.863281 572.949219 549.742188 575.035156 C 552.382812 575.648438 562.847656 576.976562 581.136719 579.011719 C 602.242188 596.382812 602.242188 610.855469 581.136719 622.457031 C 577.925781 621.976562 576.300781 621.746094 576.257812 621.746094 C 552.644531 620.085938 524.507812 622.121094 491.835938 627.84375 C 474.777344 631.027344 463.039062 633.144531 456.53125 634.242188 C 454.507812 634.671875 452.617188 634.96875 450.859375 635.167969 L 438.019531 635.585938 L 437.710938 635.449219 L 429.710938 633.808594 C 415.066406 630.828125 401.613281 622.589844 389.390625 609.113281 C 384.863281 600.925781 382.398438 593.152344 382.089844 585.828125 C 381.828125 580.722656 381.609375 576.078125 381.34375 571.902344 C 381.257812 570.441406 381.210938 569.054688 381.210938 567.726562 L 381.082031 566.367188 L 385.34375 567.359375 L 422.542969 573.890625 L 425.53125 575.167969 C 429.050781 575.648438 434.0625 574.253906 440.480469 570.992188 C 447.121094 567.578125 459.609375 564.90625 477.898438 562.96875 " fill-opacity="1" fill-rule="evenodd"/><path fill="#fadeca" d="M 385.628906 567.035156 C 385.585938 567.136719 385.542969 567.234375 385.5 567.316406 L 385.5 567.183594 C 385.542969 567.136719 385.585938 567.085938 385.628906 567.035156 " fill-opacity="1" fill-rule="evenodd"/><path fill="#00a5bb" d="M 513.671875 495.503906 C 506.144531 513.058594 495.875 532.433594 482.820312 553.652344 C 481.164062 556.632812 479.859375 559.300781 478.988281 561.671875 C 478.773438 562.003906 478.683594 562.054688 478.683594 561.808594 C 460.972656 567.722656 449.703125 572.511719 444.914062 576.140625 C 414.105469 584.25 391.953125 582.988281 378.464844 572.382812 C 375.503906 572.628906 374.722656 566.628906 376.027344 554.429688 C 373.417969 516.984375 377.507812 479.9375 388.300781 443.257812 L 519.503906 422.675781 C 528.6875 441.785156 526.726562 466.066406 513.671875 495.503906 " fill-opacity="1" fill-rule="evenodd"/><path fill="#d92b2b" d="M 309.21875 301.949219 C 309.175781 301.570312 309.089844 301.191406 309.042969 300.828125 L 309.042969 300.542969 C 308.828125 299.832031 308.652344 299.082031 308.476562 298.339844 C 307.039062 292.371094 305.691406 286.820312 304.382812 281.648438 C 303.078125 276.390625 302.464844 272.21875 302.554688 269.082031 C 302.554688 265.441406 302.726562 262.089844 302.988281 259.007812 C 304.207031 245.746094 306.953125 235.984375 311.222656 229.683594 C 332.132812 198.027344 358.621094 192.824219 390.636719 214.070312 C 392.25 214.96875 395.429688 218.019531 400.09375 223.222656 C 400.179688 223.371094 400.265625 223.488281 400.398438 223.585938 C 400.964844 224.050781 408.019531 236.082031 421.523438 259.636719 C 422.308594 260.777344 423.007812 261.953125 423.660156 263.199219 C 424.445312 264.707031 425.273438 266.214844 426.230469 267.742188 C 427.929688 270.527344 429.628906 273.292969 431.328125 276.046875 C 432.460938 277.832031 433.636719 279.660156 434.898438 281.515625 C 435.640625 282.742188 436.425781 283.953125 437.253906 285.128906 C 443.351562 294.644531 450.015625 304.324219 457.246094 314.167969 C 458.992188 316.671875 460.863281 319.140625 462.78125 321.542969 C 463.914062 323.199219 465.089844 324.859375 466.351562 326.515625 C 468.355469 329.269531 470.449219 331.988281 472.582031 334.6875 C 472.800781 334.816406 473.0625 335.019531 473.277344 335.25 C 477.242188 340.839844 482.296875 347.699219 488.570312 355.835938 C 499.589844 370.226562 507.039062 380.300781 511.003906 386.085938 C 518.976562 397.523438 525.554688 408.5625 530.652344 419.152344 C 532.828125 423.660156 534.660156 428.039062 536.183594 432.296875 C 529.691406 431.382812 523.070312 431.105469 516.320312 431.4375 C 512.179688 431.683594 507.910156 432.179688 503.46875 432.925781 C 486.828125 435.828125 470.230469 442.308594 453.71875 452.386719 C 438.515625 461.800781 420.480469 470.335938 399.65625 478.007812 C 392.773438 480.613281 386.371094 482.71875 380.53125 484.324219 L 309.21875 301.949219 " fill-opacity="1" fill-rule="evenodd"/><path fill="#eb6d2f" d="M 309.238281 301.953125 L 309.152344 301.671875 C 309.066406 301.390625 309.027344 301.105469 309.027344 300.828125 C 309.109375 301.191406 309.195312 301.570312 309.238281 301.953125 " fill-opacity="1" fill-rule="evenodd"/><path fill="#f89865" d="M 386.042969 389.054688 C 391.976562 393.460938 395.308594 397.207031 396.078125 400.273438 C 396.804688 403.4375 396.976562 405.910156 396.546875 407.664062 C 396.035156 409.355469 395.222656 411.507812 394.15625 414.113281 C 393.089844 416.632812 389.972656 421.242188 384.761719 427.96875 C 379.59375 434.632812 367.890625 441.113281 349.78125 447.410156 C 331.671875 453.664062 316.679688 458.699219 304.851562 462.527344 C 297.675781 464.847656 292.933594 466.488281 290.542969 467.4375 C 290.160156 467.203125 289.519531 467.035156 288.707031 466.9375 C 285.375 465.992188 282.984375 463.175781 281.53125 458.484375 C 280.121094 446.367188 279.824219 438.492188 280.636719 434.851562 C 280.933594 433.855469 281.703125 432.144531 282.984375 429.742188 C 284.265625 427.503906 285.078125 425.832031 285.375 424.6875 C 286.699219 424.453125 287.980469 424.171875 289.132812 423.84375 C 292.335938 422.75 295.285156 421.386719 298.101562 419.730469 C 300.195312 418.585938 302.117188 417.527344 303.996094 416.53125 C 306.945312 414.363281 312.324219 409.554688 320.183594 402.128906 C 323.003906 399.378906 325.992188 396.84375 329.109375 394.519531 C 340.429688 385.722656 352.472656 380.136719 365.242188 377.765625 C 365.414062 377.730469 365.667969 377.730469 365.96875 377.765625 C 366.222656 377.765625 366.480469 377.847656 366.609375 377.980469 C 373.953125 380.964844 380.402344 384.660156 386.042969 389.054688 " fill-opacity="1" fill-rule="evenodd"/><path fill="#f89865" d="M 381.742188 400.226562 C 381.230469 400.261719 380.757812 400.273438 380.289062 400.289062 C 380.546875 400.289062 380.800781 400.289062 381.101562 400.289062 C 381.316406 400.289062 381.527344 400.273438 381.742188 400.226562 Z M 389.523438 399.230469 C 389.480469 399.183594 389.4375 399.183594 389.394531 399.230469 L 389.394531 399.167969 C 389.308594 399.214844 389.265625 399.265625 389.265625 399.300781 L 389.054688 399.378906 C 389.351562 399.328125 389.523438 399.28125 389.523438 399.230469 Z M 389.480469 400.226562 L 389.480469 400.15625 C 389.4375 400.15625 389.308594 400.175781 389.179688 400.226562 Z M 399.054688 372.957031 L 397.773438 381.066406 L 396.449219 400.789062 L 342.839844 400.789062 C 341.515625 399.792969 340.363281 398.636719 339.335938 397.324219 L 339.421875 392.140625 C 339.421875 389.050781 339.464844 386.335938 339.550781 383.964844 C 339.804688 376.921875 339.933594 372.496094 339.976562 370.6875 C 340.0625 370.40625 340.0625 370.625 340.0625 371.335938 C 340.105469 369.628906 340.191406 368.566406 340.277344 368.136719 C 340.277344 366.625 340.363281 365.132812 340.488281 363.660156 C 340.53125 362.152344 340.660156 360.644531 340.832031 359.121094 C 341.558594 358.457031 342.328125 357.660156 343.183594 356.71875 C 343.609375 356.515625 343.996094 356.234375 344.335938 355.851562 C 351.777344 349.851562 360.539062 345.761719 370.585938 343.570312 C 375.757812 342.441406 381.359375 341.78125 387.429688 341.582031 C 388.753906 341.582031 390.25 341.664062 391.875 341.796875 C 392.730469 341.847656 393.542969 341.878906 394.3125 341.878906 C 396.707031 341.78125 399.101562 341.878906 401.535156 342.160156 L 402.050781 342.160156 C 402.433594 342.160156 402.863281 342.195312 403.460938 342.292969 C 401.410156 347.550781 400.425781 353.734375 400.46875 360.824219 L 400.382812 361.042969 C 400.382812 362.75 399.953125 366.730469 399.058594 372.957031 " fill-opacity="1" fill-rule="evenodd"/><path fill="#ebae89" d="M 397.613281 381.109375 L 398.894531 373.003906 L 399.40625 370.234375 C 399.277344 371.660156 399.191406 373.171875 399.109375 374.792969 C 399.277344 377.066406 398.765625 379.167969 397.613281 381.109375 " fill-opacity="1" fill-rule="evenodd"/><path fill="#ff3333" d="M 420.074219 349.367188 C 417.546875 348.753906 415.191406 348.253906 412.964844 347.890625 C 412.578125 347.742188 412.234375 347.695312 411.976562 347.742188 C 411.035156 347.359375 410.050781 347.179688 409.0625 347.179688 C 405.59375 346.5625 402.421875 346.019531 399.550781 345.539062 C 399.335938 345.539062 399.207031 345.523438 399.078125 345.46875 C 398.609375 345.46875 398.265625 345.40625 397.921875 345.257812 C 397.878906 345.257812 397.792969 345.304688 397.707031 345.40625 C 397.453125 345.40625 397.28125 345.40625 397.152344 345.40625 C 396.9375 345.304688 396.722656 345.257812 396.507812 345.257812 L 396.421875 345.257812 L 396.121094 345.1875 C 395.992188 345.1875 395.949219 345.203125 395.992188 345.257812 C 383.222656 343.648438 372.253906 344.03125 363.128906 346.398438 L 359.441406 347.457031 C 353.570312 349.53125 348.257812 352.648438 343.542969 356.757812 C 342.859375 357.089844 342.34375 357.488281 341.917969 357.96875 C 341.875 358.015625 341.789062 358.050781 341.703125 358.101562 C 340.757812 358.8125 340.117188 359.363281 339.859375 359.742188 C 339.21875 360.15625 339.003906 360.355469 339.21875 360.304688 L 338.917969 360.519531 C 338.53125 360.953125 338.230469 361.367188 337.929688 361.796875 C 337.84375 361.796875 337.761719 361.863281 337.632812 362.015625 C 337.503906 362.0625 337.417969 362.128906 337.375 362.230469 C 336.902344 362.558594 336.558594 362.808594 336.390625 363.007812 C 336.21875 361.785156 336.21875 360.402344 336.304688 358.882812 C 336.21875 354.820312 336.433594 350.242188 336.945312 345.1875 L 336.945312 344.972656 L 331.332031 294.417969 C 363 260.6875 388.023438 251.359375 406.449219 266.457031 C 409.191406 275.769531 411.464844 287.753906 413.347656 302.375 C 415.191406 317.90625 416.089844 325.929688 416.089844 326.445312 C 416.261719 327.007812 416.390625 327.601562 416.433594 328.214844 C 416.648438 329.824219 416.90625 331.546875 417.207031 333.402344 C 418.320312 339.605469 419.21875 344.824219 419.949219 349.082031 C 419.992188 349.183594 420.035156 349.285156 420.078125 349.363281 " fill-opacity="1" fill-rule="evenodd"/><path fill="#b02222" d="M 419.964844 349.394531 C 419.964844 349.445312 419.964844 349.5625 419.878906 349.757812 C 420.09375 350.324219 420.265625 350.96875 420.480469 351.683594 C 420.480469 352.625 420.179688 353.355469 419.625 353.871094 C 419.066406 354.78125 418.210938 355.644531 417.136719 356.503906 C 416.195312 357.550781 413.882812 358.792969 410.152344 360.265625 C 407.882812 361.214844 405.269531 362.472656 402.355469 364.03125 C 401.152344 364.59375 400.339844 365.519531 400.039062 366.796875 L 398.96875 345.5 C 399.097656 345.550781 399.269531 345.570312 399.484375 345.570312 C 402.355469 346.046875 405.523438 346.59375 408.996094 347.207031 C 409.980469 347.207031 410.925781 347.390625 411.867188 347.769531 C 412.167969 347.71875 412.511719 347.769531 412.851562 347.921875 C 415.082031 348.285156 417.480469 348.78125 419.964844 349.394531 Z M 337.816406 361.828125 C 339.015625 360.5 340.257812 359.273438 341.585938 358.128906 C 341.714844 358.082031 341.757812 358.046875 341.800781 357.996094 L 341.457031 366.300781 C 338.160156 365.636719 336.402344 364.878906 336.230469 364.03125 L 336.058594 363.949219 C 336.144531 363.636719 336.230469 363.316406 336.273438 363.035156 C 336.445312 362.839844 336.789062 362.589844 337.257812 362.253906 C 337.300781 362.15625 337.386719 362.09375 337.558594 362.042969 C 337.644531 361.890625 337.730469 361.828125 337.816406 361.828125 " fill-opacity="1" fill-rule="evenodd"/><path fill="#c74242" d="M 396.976562 345.457031 C 396.890625 345.457031 396.804688 345.457031 396.675781 345.457031 C 396.546875 345.359375 396.460938 345.304688 396.335938 345.304688 C 396.589844 345.304688 396.804688 345.359375 396.976562 345.457031 " fill-opacity="1" fill-rule="evenodd"/><path fill="#987f05" d="M 398.800781 345.554688 C 398.414062 345.601562 397.773438 345.570312 396.878906 345.484375 C 397.003906 345.484375 397.21875 345.484375 397.433594 345.484375 C 397.558594 345.386719 397.601562 345.335938 397.644531 345.335938 C 397.988281 345.484375 398.371094 345.554688 398.800781 345.554688 " fill-opacity="1" fill-rule="evenodd"/><path stroke-linecap="butt" transform="matrix(0.426868, 0, 0, -0.426864, -6564.628706, 2560.952939)" fill="none" stroke-linejoin="miter" d="M 16300.001021 5408.940164 C 16299.7997 5409.361112 16299.497719 5409.599039 16299.195738 5409.599039 " stroke="#000000" stroke-width="0.388" stroke-opacity="1" stroke-miterlimit="10"/><path fill="#f89865" d="M 285.050781 424.03125 C 285.933594 424.925781 288.460938 427.558594 292.632812 431.902344 C 300.253906 442.460938 300.929688 453.683594 294.609375 465.566406 L 294.570312 465.636719 L 294.570312 465.566406 L 294.484375 465.566406 C 274.5625 479.753906 261.925781 484.035156 256.492188 478.414062 C 256.238281 477.800781 255.859375 477.269531 255.4375 476.839844 C 253.753906 474.382812 250.972656 473.042969 247.140625 472.796875 C 241.246094 472.464844 238.253906 470.125 238.253906 465.765625 C 237.75 460.710938 236.023438 457.628906 233.074219 456.550781 L 232.945312 456.550781 C 226.839844 454.460938 224.945312 450.914062 227.34375 445.894531 C 227.851562 445.179688 228.230469 444.515625 228.523438 443.90625 C 228.523438 443.625 228.566406 443.359375 228.691406 443.125 C 229.113281 440.523438 227.976562 437.355469 225.367188 433.613281 C 222.375 426.566406 224.398438 422.589844 231.515625 421.691406 C 232.484375 421.496094 233.535156 421.394531 234.757812 421.394531 C 240.65625 421.59375 244.78125 419.738281 247.226562 415.859375 C 247.730469 415.199219 248.152344 414.515625 248.40625 413.804688 C 248.40625 413.519531 248.445312 413.339844 248.53125 413.238281 C 251.144531 406.480469 256.40625 404.785156 264.242188 408.203125 C 265.378906 408.914062 268.875 411.148438 274.6875 414.949219 C 277.59375 416.972656 281.003906 420.003906 285.050781 424.03125 " fill-opacity="1" fill-rule="evenodd"/><path fill="#fefffe" d="M 458.582031 720.863281 L 458.582031 723.914062 C 447.714844 729.832031 431.589844 730.824219 410.246094 726.898438 C 409.773438 726.566406 409.34375 726.335938 408.910156 726.183594 C 407.359375 725.574219 405.503906 725.40625 403.433594 725.691406 L 404.859375 682.460938 C 404.859375 682.410156 404.773438 682.410156 404.644531 682.460938 C 402.746094 679.246094 402.789062 676.875 404.730469 675.367188 C 405.808594 675.5 406.882812 675.617188 407.960938 675.714844 C 425.769531 679.507812 443.75 677.71875 461.855469 670.394531 C 463.238281 673.660156 463.152344 677.089844 461.640625 680.6875 L 458.582031 720.867188 " fill-opacity="1" fill-rule="evenodd"/><path fill="#d8d9d8" d="M 465.433594 738.9375 L 465.519531 741.421875 C 447.53125 745.585938 437.996094 758.5625 436.960938 780.324219 L 466.511719 774.375 L 467.289062 783.027344 C 424.40625 794.046875 392.742188 798.457031 372.292969 796.234375 C 352.101562 793.964844 345.289062 790.007812 351.84375 784.386719 C 357.625 788.066406 371.171875 789.125 392.394531 787.570312 C 391.964844 765.9375 387.390625 754.070312 378.632812 751.929688 C 378.808594 751.796875 379.066406 751.667969 379.410156 751.585938 C 389.074219 752.957031 394.078125 764.878906 394.46875 787.351562 L 434.285156 780.820312 C 434.761719 756.457031 445.15625 742.484375 465.433594 738.9375 Z M 402.707031 728.429688 L 403.527344 725.660156 C 405.640625 725.378906 407.453125 725.546875 409.007812 726.160156 C 409.4375 726.304688 409.867188 726.539062 410.34375 726.871094 C 431.699219 730.796875 447.832031 729.804688 458.703125 723.886719 L 458.617188 727.234375 C 447.789062 733.1875 433.035156 734.3125 414.3125 730.566406 C 413.964844 730.46875 413.621094 730.398438 413.320312 730.351562 L 413.191406 730.566406 Z M 387.046875 748.035156 L 387.566406 747.886719 L 393.949219 742.203125 L 402.320312 744.339844 C 395.632812 750.671875 390.542969 751.914062 387.046875 748.035156 Z M 395.113281 741.140625 L 399.082031 736.382812 L 407.324219 738.089844 L 403.183594 743.28125 Z M 402.144531 730.28125 L 411.980469 732.0625 L 408.660156 736.320312 L 400.421875 734.679688 L 400.9375 734.050781 L 402.144531 730.285156 " fill-opacity="1" fill-rule="evenodd"/><path fill="#fdfffd" d="M 465.488281 741.433594 L 466.480469 774.382812 L 436.929688 780.332031 C 437.964844 758.570312 447.5 745.589844 465.488281 741.433594 Z M 351.824219 784.394531 C 347.164062 770.140625 356.136719 759.316406 378.613281 751.941406 C 387.367188 754.082031 391.941406 765.945312 392.371094 787.574219 C 371.105469 789.136719 357.605469 788.074219 351.824219 784.394531 Z M 458.585938 727.242188 C 461.605469 725.007812 462.726562 723.5625 461.863281 722.902344 C 463.976562 724.226562 465.183594 729.578125 465.402344 738.945312 C 445.125 742.488281 434.730469 756.464844 434.257812 780.828125 L 394.441406 787.359375 C 394.054688 764.886719 389.007812 752.96875 379.386719 751.589844 L 387.023438 748.046875 C 390.515625 751.921875 395.605469 750.679688 402.292969 744.347656 L 393.925781 742.210938 L 395.003906 741.148438 L 395.089844 741.148438 L 403.15625 743.289062 L 407.253906 738.097656 L 399.015625 736.390625 L 400.394531 734.6875 L 408.632812 736.324219 L 411.957031 732.070312 L 402.121094 730.292969 L 402.679688 728.4375 L 413.164062 730.574219 L 413.292969 730.359375 C 413.59375 730.40625 413.941406 730.476562 414.285156 730.574219 C 433.007812 734.320312 447.757812 733.195312 458.585938 727.242188 " fill-opacity="1" fill-rule="evenodd"/><path fill="#5c5d5c" d="M 458.53125 727.265625 L 458.574219 723.917969 L 458.574219 720.871094 C 461.550781 722.191406 462.628906 722.839844 461.722656 722.792969 C 461.722656 722.890625 461.722656 722.921875 461.765625 722.921875 C 462.628906 723.585938 461.550781 725.03125 458.53125 727.265625 " fill-opacity="1" fill-rule="evenodd"/><path fill="#d8d9d8" d="M 599.421875 646.796875 L 593.570312 640.761719 C 593.261719 626.992188 595.433594 615.816406 600.132812 607.25 C 611.566406 615.96875 611.34375 629.144531 599.421875 646.796875 Z M 584.484375 632.804688 C 581.429688 627.171875 582.402344 617.011719 587.457031 602.296875 C 591.800781 602.859375 595.34375 604.070312 598.183594 605.90625 C 592.554688 616.183594 590.25 626.972656 591.269531 638.277344 Z M 582.714844 631.46875 L 573.40625 627.773438 C 570.96875 616.515625 574.203125 607.910156 583.15625 601.996094 C 584 602.097656 584.839844 602.144531 585.683594 602.144531 C 580.230469 615.734375 579.210938 625.496094 582.714844 631.46875 Z M 571.589844 626.925781 L 568.265625 627.136719 C 563.078125 617.292969 565.871094 608.890625 576.597656 601.929688 C 580.097656 582.671875 577.574219 569.675781 569.019531 562.960938 L 572.210938 562.894531 C 581.03125 569.554688 583.644531 582.605469 580.011719 601.996094 C 569.371094 608.957031 566.535156 617.257812 571.589844 626.925781 Z M 646.625 684.773438 C 649.816406 664.714844 648.972656 644.09375 644.011719 622.945312 C 627.699219 621.335938 615.066406 633.289062 606.070312 658.796875 C 605.539062 658.035156 605.007812 657.191406 604.429688 656.242188 C 613.605469 630.023438 626.546875 617.953125 643.210938 620.027344 C 639.621094 605.558594 633.949219 590.757812 626.191406 575.660156 C 607.886719 578.226562 594.589844 571.066406 586.214844 554.226562 L 588.875 554.160156 C 596.894531 568.066406 608.773438 574.363281 624.464844 573.039062 L 612.054688 554.507812 L 627.742188 553.863281 C 649.640625 590.3125 659.789062 621.257812 658.191406 646.734375 C 656.554688 672.371094 652.695312 685.070312 646.625 684.773438 " fill-opacity="1" fill-rule="evenodd"/><path fill="#fefffe" d="M 564.8125 563.082031 L 569.066406 562.949219 C 577.65625 569.660156 580.15625 582.65625 576.648438 601.917969 C 565.910156 608.878906 563.105469 617.28125 568.277344 627.128906 L 520.9375 628.964844 C 520.894531 628.917969 520.847656 628.953125 520.847656 629.03125 C 517.296875 631.402344 514.492188 631.503906 512.433594 629.316406 C 512.5625 627.855469 512.785156 626.5 513.132812 625.269531 C 516.683594 604.019531 513.792969 582.757812 504.542969 561.457031 C 508.226562 559.75 512.300781 559.683594 516.816406 561.242188 L 564.8125 563.082031 " fill-opacity="1" fill-rule="evenodd"/><path fill="#fdfffd" d="M 646.628906 684.761719 C 633.792969 690.644531 620.292969 681.976562 606.128906 658.789062 C 615.113281 633.277344 627.730469 621.328125 644.015625 622.933594 C 649.019531 644.085938 649.859375 664.707031 646.628906 684.761719 Z M 571.605469 626.914062 C 566.605469 617.253906 569.394531 608.949219 580.0625 601.988281 C 583.644531 582.59375 581.035156 569.546875 572.269531 562.882812 L 568.820312 557.332031 C 572.800781 554.832031 578.601562 553.789062 586.214844 554.21875 C 594.621094 571.058594 607.945312 578.21875 626.226562 575.648438 C 633.96875 590.75 639.636719 605.550781 643.265625 620.019531 C 626.578125 617.945312 613.65625 630.011719 604.492188 656.238281 L 599.445312 646.785156 C 611.351562 629.136719 611.617188 615.960938 600.15625 607.242188 C 595.464844 615.808594 593.292969 626.980469 593.605469 640.753906 L 591.304688 638.265625 C 590.285156 626.964844 592.585938 616.171875 598.207031 605.898438 C 595.375 604.058594 591.832031 602.851562 587.496094 602.285156 C 582.449219 617.003906 581.433594 627.164062 584.53125 632.800781 L 582.761719 631.457031 C 579.261719 625.488281 580.238281 615.726562 585.726562 602.136719 C 584.886719 602.136719 584.042969 602.085938 583.160156 601.988281 C 574.261719 607.90625 570.988281 616.503906 573.464844 627.757812 Z M 588.914062 554.152344 L 612.0625 554.5 L 624.5 573.03125 C 608.785156 574.355469 596.921875 568.058594 588.914062 554.152344 " fill-opacity="1" fill-rule="evenodd"/><path fill="#5c5d5c" d="M 568.632812 557.386719 L 572.050781 562.945312 L 568.851562 563.007812 L 564.605469 563.140625 C 565.917969 559.640625 567.277344 557.71875 568.632812 557.386719 " fill-opacity="1" fill-rule="evenodd"/><path fill="#f89865" d="M 331.679688 225.703125 C 326.542969 230.214844 320.515625 234.789062 313.640625 239.476562 C 312.75 240.191406 311.902344 240.851562 311.09375 241.464844 C 309.269531 242.941406 307.65625 244.464844 306.339844 246.074219 L 296.664062 230.824219 C 296.496094 231.058594 296.324219 231.285156 296.199219 231.519531 C 294.203125 228.882812 292.125 226.578125 289.960938 224.640625 C 289.746094 224.410156 289.492188 224.195312 289.152344 223.996094 C 289.066406 223.863281 288.984375 223.761719 288.855469 223.714844 C 288.855469 223.628906 288.855469 223.582031 288.8125 223.582031 C 288.429688 223.152344 288.089844 222.75 287.753906 222.371094 L 341.738281 171.539062 C 341.949219 175.28125 342.503906 178.679688 343.394531 181.761719 C 345.175781 188.109375 348.527344 192.765625 353.410156 195.75 C 352.136719 199.582031 350.269531 203.445312 347.808594 207.320312 C 347.59375 207.503906 347.425781 207.667969 347.296875 207.820312 C 347.128906 208.152344 346.957031 208.5 346.789062 208.878906 C 344.199219 212.425781 341.058594 216.105469 337.453125 219.886719 C 335.457031 221.925781 333.503906 223.863281 331.679688 225.703125 " fill-opacity="1" fill-rule="evenodd"/><path fill="#ff3333" d="M 302.265625 253.171875 C 302.949219 250.851562 304.269531 248.578125 306.183594 246.355469 C 306.226562 246.257812 306.269531 246.15625 306.398438 246.058594 C 307.71875 244.453125 309.292969 242.925781 311.125 241.449219 C 311.933594 240.835938 312.785156 240.171875 313.679688 239.460938 C 320.539062 234.773438 326.585938 230.199219 331.738281 225.6875 C 344.089844 214.894531 351.757812 204.589844 354.78125 194.742188 C 363.128906 195.453125 370.707031 198.519531 377.523438 203.976562 C 374.753906 216.558594 367.214844 230.894531 354.78125 246.988281 C 354.398438 247.503906 354.054688 247.980469 353.757812 248.414062 L 353.503906 248.695312 C 348.691406 257.644531 344.304688 268.136719 340.300781 280.21875 C 324.03125 260.480469 312.488281 256.285156 305.675781 267.640625 C 303.117188 264.703125 301.753906 261.722656 301.628906 258.703125 C 301.542969 257.84375 301.542969 256.933594 301.628906 255.933594 C 301.753906 255.039062 301.96875 254.113281 302.265625 253.171875 " fill-opacity="1" fill-rule="evenodd"/><path fill="#b02222" d="M 306.398438 246.050781 C 306.316406 246.152344 306.230469 246.253906 306.1875 246.351562 C 304.292969 248.570312 302.984375 250.84375 302.269531 253.164062 C 299.867188 249.234375 295.4375 249.300781 289.074219 253.378906 C 288.359375 245.800781 290.761719 238.511719 296.242188 231.5 C 296.367188 231.269531 296.535156 231.035156 296.746094 230.804688 L 306.398438 246.050781 " fill-opacity="1" fill-rule="evenodd"/><path fill="#f89865" d="M 215.769531 207.765625 L 216.703125 207.617188 C 216.875 207.515625 217.128906 207.46875 217.425781 207.46875 C 223.125 206.492188 228.269531 202.414062 232.816406 195.265625 C 228.269531 202.414062 223.125 206.492188 217.425781 207.46875 C 217.128906 207.46875 216.875 207.515625 216.703125 207.617188 L 215.769531 207.765625 L 211.941406 208.542969 L 206.964844 189.300781 C 198.121094 184.988281 196.082031 180.101562 200.800781 174.597656 C 203.265625 171.914062 206.582031 169.613281 210.75 167.71875 C 211.730469 161.753906 210.75 155.207031 207.773438 148.0625 C 205.734375 143.273438 202.503906 137.621094 198.121094 131.089844 C 195.402344 127.011719 193.957031 122.140625 193.699219 116.472656 L 194.210938 109.011719 C 196.292969 95.46875 204.074219 81.960938 217.554688 68.472656 C 224.269531 61.660156 230.777344 56.1875 237.027344 52.082031 C 253.695312 37.589844 269.9375 30.648438 285.878906 31.214844 C 299.359375 31.675781 312.199219 37.414062 324.402344 48.382812 C 334.308594 57.148438 343.066406 68.554688 350.675781 82.609375 C 356.925781 93.914062 361.050781 103.945312 363.007812 112.710938 C 365.769531 125.15625 363.515625 139.378906 356.203125 155.371094 C 352.546875 163.613281 343.917969 178.28125 330.308594 199.378906 C 321.847656 212.867188 307.605469 222.847656 287.621094 229.347656 C 272.273438 234.265625 258.113281 236.273438 245.019531 235.378906 C 236.984375 234.765625 230.136719 231.949219 224.527344 226.925781 C 222.824219 225.316406 221.335938 223.640625 220.105469 221.886719 L 218.53125 219.46875 C 217.042969 216.019531 216.105469 212.109375 215.765625 207.765625 " fill-opacity="1" fill-rule="evenodd"/><path stroke-linecap="butt" transform="matrix(0.417023, 0, 0, -0.417019, -6564.628706, 2560.952939)" fill="none" stroke-linejoin="miter" d="M 16259.102737 5642.901718 L 16261.39765 5643.257667 C 16261.800431 5643.501211 16262.399919 5643.622983 16263.102443 5643.622983 C 16276.796985 5645.955388 16289.095846 5655.743995 16299.999025 5672.867031 " stroke="#000033" stroke-width="1.987" stroke-opacity="1" stroke-miterlimit="10"/><path fill="#330000" d="M 271.628906 15.257812 C 279.308594 11.960938 286.816406 9.71875 294.199219 8.59375 C 317.710938 5.226562 335.460938 13.796875 347.449219 34.28125 C 361.359375 58.085938 368.742188 70.832031 369.59375 72.488281 C 377.574219 87.488281 382.566406 100.769531 384.65625 112.300781 C 390.289062 143.117188 376.675781 170.117188 343.910156 193.304688 C 340.621094 193.304688 337.464844 192.425781 334.308594 190.6875 C 328.121094 187.273438 325.5625 181.386719 326.714844 173 C 325.21875 163.96875 321.976562 156.871094 317.070312 151.699219 C 307.171875 141.523438 293.816406 146.316406 277.046875 166.054688 C 275.425781 158.761719 272.867188 150.511719 269.453125 141.277344 C 262.539062 122.761719 254.304688 108.625 244.707031 98.808594 C 237.453125 98.90625 230.070312 98.078125 222.558594 96.34375 C 207.625 92.925781 199.605469 86.890625 198.496094 78.226562 C 198.582031 77.429688 198.707031 76.382812 198.964844 75.109375 C 199.605469 72.503906 200.542969 70.003906 201.78125 67.582031 C 205.621094 60.109375 211.808594 55.25 220.296875 53.03125 L 222.304688 48.273438 C 224.183594 44.394531 226.441406 40.816406 229.132812 37.546875 C 237.707031 27.007812 248.800781 21.125 262.414062 19.945312 L 271.628906 15.257812 " fill-opacity="1" fill-rule="evenodd"/><path fill="#330000" d="M 199.617188 77.574219 L 210.554688 73.597656 C 212.726562 90.402344 222.871094 102.367188 240.949219 109.515625 C 218.820312 109.234375 205.085938 98.589844 199.617188 77.574219 " fill-opacity="1" fill-rule="evenodd"/><path fill="#77390d" d="M 304.742188 167.578125 C 304.320312 169.8125 303.347656 171.671875 301.828125 173.191406 C 300.183594 174.601562 298.539062 175.265625 296.851562 175.183594 C 295.164062 175.265625 293.855469 174.570312 293.011719 173.046875 C 292.125 171.386719 291.914062 169.382812 292.378906 167.011719 C 292.757812 165.171875 293.601562 163.566406 294.953125 162.191406 C 296.175781 160.480469 297.609375 159.15625 299.253906 158.210938 C 302.292969 156.222656 305.246094 155.839844 308.074219 157.085938 C 310.480469 158.0625 312.082031 160.152344 312.882812 163.316406 C 312.039062 161.527344 310.730469 160.25 308.917969 159.488281 C 306.722656 158.691406 304.359375 158.808594 301.828125 159.851562 C 302.757812 160.367188 303.515625 161.078125 304.023438 161.972656 C 304.953125 163.632812 305.203125 165.507812 304.742188 167.578125 " fill-opacity="1" fill-rule="evenodd"/><path fill="#3a210b" d="M 243.988281 127.886719 C 235.132812 125.570312 224.648438 124.539062 212.453125 124.769531 C 210.03125 119.1875 209.070312 114.378906 209.488281 110.351562 C 222.144531 110.730469 233.296875 113.695312 242.902344 119.234375 L 243.988281 127.886719 " fill-opacity="1" fill-rule="evenodd"/><path fill="#000000" d="M 227.496094 138.304688 C 224.03125 138.785156 221.230469 140.359375 219.101562 143.058594 C 216.972656 145.8125 216.136719 148.910156 216.554688 152.359375 C 216.972656 155.773438 218.601562 158.507812 221.355469 160.597656 C 224.070312 162.769531 227.164062 163.628906 230.585938 163.148438 C 234.011719 162.734375 236.851562 161.144531 239.066406 158.390625 C 241.15625 155.65625 241.949219 152.574219 241.53125 149.160156 C 241.113281 145.710938 239.527344 142.945312 236.8125 140.859375 C 233.972656 138.734375 230.878906 137.871094 227.496094 138.304688 Z M 227.203125 136.378906 C 231.128906 135.917969 234.722656 136.859375 237.9375 139.234375 C 240.988281 141.734375 242.785156 144.949219 243.328125 148.878906 C 243.785156 152.808594 242.828125 156.320312 240.488281 159.386719 C 237.980469 162.601562 234.765625 164.457031 230.839844 164.925781 C 226.953125 165.457031 223.445312 164.457031 220.3125 161.9375 C 217.097656 159.585938 215.257812 156.4375 214.800781 152.507812 C 214.257812 148.582031 215.257812 145 217.765625 141.785156 C 220.1875 138.703125 223.320312 136.910156 227.203125 136.378906 " fill-opacity="1" fill-rule="evenodd"/><path fill="#ffffcc" d="M 227.269531 138.375 C 230.695312 137.945312 233.785156 138.804688 236.582031 140.925781 C 239.335938 143.015625 240.925781 145.78125 241.34375 149.230469 C 241.761719 152.648438 240.964844 155.730469 238.878906 158.464844 C 236.625 161.214844 233.824219 162.808594 230.402344 163.21875 C 226.976562 163.699219 223.886719 162.839844 221.175781 160.667969 C 218.375 158.582031 216.789062 155.847656 216.332031 152.429688 C 215.914062 148.984375 216.789062 145.882812 218.917969 143.132812 C 221.046875 140.429688 223.804688 138.855469 227.269531 138.375 " fill-opacity="1" fill-rule="evenodd"/><path fill="#3f0920" d="M 231.480469 148.171875 C 230.894531 147.890625 230.605469 147.542969 230.5625 147.113281 C 230.519531 146.632812 230.6875 146.265625 231.105469 145.96875 C 231.480469 145.601562 232.023438 145.355469 232.6875 145.273438 C 233.273438 145.171875 233.898438 145.273438 234.441406 145.550781 C 234.941406 145.734375 235.191406 146.070312 235.234375 146.546875 C 235.277344 146.960938 235.152344 147.378906 234.816406 147.742188 C 234.398438 148.070312 233.859375 148.289062 233.230469 148.386719 C 232.605469 148.488281 231.980469 148.40625 231.480469 148.171875 " fill-opacity="1" fill-rule="evenodd"/><path stroke-linecap="butt" transform="matrix(0.417172, 0, 0, -0.417168, -6564.628706, 2560.952939)" fill="none" stroke-linejoin="miter" d="M 16290.902107 5783.71854 C 16292.100653 5783.156716 16293.598836 5782.960077 16295.097018 5783.203535 C 16296.604565 5783.437628 16297.896748 5783.961997 16298.898657 5784.748552 C 16299.703931 5785.619379 16300.003567 5786.621299 16299.900567 5787.613855 C 16299.797567 5788.756232 16299.198294 5789.561513 16297.999748 5790.001609 C 16296.698201 5790.666434 16295.200019 5790.909891 16293.795472 5790.666434 C 16292.203653 5790.469796 16290.902107 5789.87988 16290.003197 5788.999689 C 16289.001287 5788.288045 16288.598651 5787.407853 16288.701651 5786.256113 C 16288.795287 5785.226102 16289.49756 5784.392729 16290.902107 5783.71854 Z M 16290.902107 5783.71854 " stroke="#330000" stroke-width="0.993" stroke-opacity="1" stroke-miterlimit="10"/><g clip-path="url(#60f2c4f2d6)"><g clip-path="url(#efc860e4a4)"><path fill="url(#d4c1405950)" d="M 213.105469 155.476562 L 222.460938 130.984375 L 246.5625 140.832031 L 237.210938 165.328125 Z M 213.105469 155.476562 " fill-rule="nonzero"/></g></g><path fill="#330033" d="M 225.222656 154.851562 C 223.46875 153.523438 222.425781 151.769531 222.09375 149.597656 C 221.71875 147.410156 222.175781 145.453125 223.429688 143.695312 C 224.722656 142.039062 226.433594 141.078125 228.5625 140.796875 C 230.730469 140.511719 232.652344 141.015625 234.363281 142.285156 C 236.117188 143.664062 237.199219 145.4375 237.574219 147.605469 C 237.910156 149.78125 237.410156 151.71875 236.15625 153.425781 C 234.945312 155.132812 233.234375 156.128906 231.066406 156.410156 C 228.894531 156.691406 226.976562 156.179688 225.222656 154.851562 " fill-opacity="1" fill-rule="evenodd"/><path fill="#000000" d="M 225.960938 152.988281 C 224.667969 152.089844 223.917969 150.863281 223.625 149.308594 C 223.375 147.734375 223.75 146.34375 224.75 145.117188 C 225.753906 143.890625 227.046875 143.175781 228.671875 142.992188 C 230.257812 142.746094 231.761719 143.109375 233.136719 144.050781 C 234.390625 145 235.183594 146.257812 235.390625 147.816406 C 235.683594 149.375 235.347656 150.75 234.347656 151.929688 C 233.347656 153.15625 232.050781 153.898438 230.425781 154.132812 C 228.839844 154.316406 227.339844 153.949219 225.960938 152.988281 " fill-opacity="1" fill-rule="evenodd"/><path stroke-linecap="butt" transform="matrix(0.417197, 0, 0, -0.417193, -6564.628706, 2560.952939)" fill="none" stroke-linejoin="miter" d="M 16276.700231 5771.828707 C 16279.996036 5769.534728 16283.600824 5768.645226 16287.402236 5769.085295 C 16291.297279 5769.647086 16294.396459 5771.42609 16296.802772 5774.366129 C 16299.199721 5777.193809 16300.004947 5780.489648 16299.302715 5784.225557 C 16298.797109 5787.961466 16296.896403 5790.976409 16293.900216 5793.251662 C 16290.60441 5795.508188 16286.999623 5796.378964 16283.198211 5795.789084 C 16279.303168 5795.349014 16276.203987 5793.635552 16273.797675 5790.695514 C 16271.400725 5787.755476 16270.501869 5784.422184 16271.101107 5780.648822 C 16271.803338 5776.922277 16273.60105 5773.982238 16276.700231 5771.828707 Z M 16276.700231 5771.828707 " stroke="#330000" stroke-width="0.397" stroke-opacity="1" stroke-miterlimit="10"/><path fill="#ffffff" d="M 225.617188 144.183594 C 226.03125 144.84375 226.15625 145.492188 225.949219 146.105469 C 225.78125 146.667969 225.28125 147.03125 224.53125 147.164062 C 223.824219 147.316406 223.074219 147.199219 222.199219 146.820312 C 221.367188 146.4375 220.699219 145.890625 220.199219 145.179688 C 219.742188 144.515625 219.574219 143.902344 219.785156 143.335938 C 220.03125 142.773438 220.53125 142.441406 221.28125 142.34375 C 222.03125 142.160156 222.867188 142.230469 223.78125 142.558594 C 224.574219 142.941406 225.199219 143.46875 225.617188 144.183594 " fill-opacity="1" fill-rule="evenodd"/><path fill="#ffffff" d="M 222.488281 151.3125 C 222.238281 151.164062 222.070312 150.953125 221.988281 150.667969 C 221.949219 150.386719 222.070312 150.105469 222.28125 149.824219 C 222.53125 149.574219 222.820312 149.445312 223.195312 149.394531 C 223.570312 149.34375 223.90625 149.394531 224.195312 149.539062 C 224.488281 149.773438 224.65625 150.039062 224.695312 150.320312 C 224.738281 150.601562 224.65625 150.835938 224.40625 151.019531 C 224.15625 151.316406 223.863281 151.480469 223.488281 151.515625 C 223.113281 151.566406 222.78125 151.496094 222.488281 151.316406 " fill-opacity="1" fill-rule="evenodd"/><path fill="#ffffff" d="M 234.785156 145.636719 C 234.410156 145.300781 234.160156 144.855469 234.078125 144.292969 C 233.953125 143.761719 234.078125 143.296875 234.328125 142.863281 C 234.621094 142.433594 235.035156 142.1875 235.539062 142.085938 C 235.996094 142.039062 236.457031 142.1875 236.832031 142.515625 C 237.25 142.847656 237.5 143.265625 237.625 143.792969 C 237.707031 144.359375 237.582031 144.855469 237.25 145.285156 C 236.996094 145.703125 236.664062 145.949219 236.164062 145.980469 C 235.664062 146.082031 235.203125 145.964844 234.785156 145.636719 " fill-opacity="1" fill-rule="evenodd"/></svg>