<svg xmlns="http://www.w3.org/2000/svg" xmlns:xlink="http://www.w3.org/1999/xlink" width="1080" zoomAndPan="magnify" viewBox="0 0 810 809.999993" height="1080" preserveAspectRatio="xMidYMid meet" version="1.0"><defs><clipPath id="dcd8ee1ce1"><path d="M 34.523438 6.429688 L 771.773438 6.429688 L 771.773438 803.679688 L 34.523438 803.679688 Z M 34.523438 6.429688 " clip-rule="nonzero"/></clipPath><clipPath id="42a1b2c127"><path d="M 236 145 L 257 145 L 257 166 L 236 166 Z M 236 145 " clip-rule="nonzero"/></clipPath><clipPath id="5f7015a662"><path d="M 240.699219 163.414062 C 238.527344 161.753906 237.234375 159.597656 236.820312 156.949219 C 236.40625 154.246094 236.957031 151.824219 238.527344 149.707031 C 240.144531 147.566406 242.265625 146.34375 244.992188 146.011719 C 247.621094 145.675781 250.023438 146.34375 252.191406 148 C 254.453125 149.65625 255.746094 151.828125 256.207031 154.53125 C 256.625 157.179688 256.023438 159.566406 254.40625 161.703125 C 252.792969 163.828125 250.667969 165.070312 248.039062 165.382812 C 245.3125 165.714844 242.914062 165.070312 240.699219 163.414062 " clip-rule="evenodd"/></clipPath><radialGradient gradientTransform="matrix(0.936493, 0.382707, 0.352533, -0.923314, 13654.476485, -4168.145364)" gradientUnits="userSpaceOnUse" r="37.578166" cx="0" id="2485fd42f3" cy="0" fx="0" fy="0"><stop stop-opacity="1" stop-color="rgb(57.446289%, 2.047729%, 2.165222%)" offset="0"/><stop stop-opacity="1" stop-color="rgb(57.215881%, 2.120972%, 2.415466%)" offset="0.0078125"/><stop stop-opacity="1" stop-color="rgb(57.063293%, 2.1698%, 2.581787%)" offset="0.0117188"/><stop stop-opacity="1" stop-color="rgb(56.90918%, 2.218628%, 2.749634%)" offset="0.015625"/><stop stop-opacity="1" stop-color="rgb(56.756592%, 2.267456%, 2.915955%)" offset="0.0195312"/><stop stop-opacity="1" stop-color="rgb(56.604004%, 2.316284%, 3.082275%)" offset="0.0234375"/><stop stop-opacity="1" stop-color="rgb(56.44989%, 2.365112%, 3.250122%)" offset="0.0273438"/><stop stop-opacity="1" stop-color="rgb(56.297302%, 2.41394%, 3.416443%)" offset="0.03125"/><stop stop-opacity="1" stop-color="rgb(56.144714%, 2.462769%, 3.582764%)" offset="0.0351562"/><stop stop-opacity="1" stop-color="rgb(55.990601%, 2.511597%, 3.75061%)" offset="0.0390625"/><stop stop-opacity="1" stop-color="rgb(55.838013%, 2.560425%, 3.916931%)" offset="0.0429688"/><stop stop-opacity="1" stop-color="rgb(55.685425%, 2.609253%, 4.083252%)" offset="0.046875"/><stop stop-opacity="1" stop-color="rgb(55.531311%, 2.658081%, 4.251099%)" offset="0.0507812"/><stop stop-opacity="1" stop-color="rgb(55.378723%, 2.706909%, 4.417419%)" offset="0.0546875"/><stop stop-opacity="1" stop-color="rgb(55.226135%, 2.755737%, 4.58374%)" offset="0.0585938"/><stop stop-opacity="1" stop-color="rgb(55.072021%, 2.804565%, 4.751587%)" offset="0.0625"/><stop stop-opacity="1" stop-color="rgb(54.919434%, 2.853394%, 4.917908%)" offset="0.0664062"/><stop stop-opacity="1" stop-color="rgb(54.766846%, 2.902222%, 5.084229%)" offset="0.0703125"/><stop stop-opacity="1" stop-color="rgb(54.612732%, 2.95105%, 5.250549%)" offset="0.0742188"/><stop stop-opacity="1" stop-color="rgb(54.460144%, 2.999878%, 5.418396%)" offset="0.078125"/><stop stop-opacity="1" stop-color="rgb(54.30603%, 3.048706%, 5.584717%)" offset="0.0820312"/><stop stop-opacity="1" stop-color="rgb(54.153442%, 3.097534%, 5.751038%)" offset="0.0859375"/><stop stop-opacity="1" stop-color="rgb(54.000854%, 3.146362%, 5.918884%)" offset="0.0898438"/><stop stop-opacity="1" stop-color="rgb(53.846741%, 3.19519%, 6.085205%)" offset="0.09375"/><stop stop-opacity="1" stop-color="rgb(53.694153%, 3.244019%, 6.251526%)" offset="0.0976562"/><stop stop-opacity="1" stop-color="rgb(53.541565%, 3.292847%, 6.419373%)" offset="0.101562"/><stop stop-opacity="1" stop-color="rgb(53.387451%, 3.341675%, 6.585693%)" offset="0.105469"/><stop stop-opacity="1" stop-color="rgb(53.234863%, 3.390503%, 6.752014%)" offset="0.109375"/><stop stop-opacity="1" stop-color="rgb(53.082275%, 3.439331%, 6.919861%)" offset="0.113281"/><stop stop-opacity="1" stop-color="rgb(52.928162%, 3.488159%, 7.086182%)" offset="0.117188"/><stop stop-opacity="1" stop-color="rgb(52.775574%, 3.536987%, 7.252502%)" offset="0.121094"/><stop stop-opacity="1" stop-color="rgb(52.622986%, 3.585815%, 7.420349%)" offset="0.125"/><stop stop-opacity="1" stop-color="rgb(52.468872%, 3.634644%, 7.58667%)" offset="0.128906"/><stop stop-opacity="1" stop-color="rgb(52.316284%, 3.683472%, 7.752991%)" offset="0.132812"/><stop stop-opacity="1" stop-color="rgb(52.163696%, 3.7323%, 7.919312%)" offset="0.136719"/><stop stop-opacity="1" stop-color="rgb(52.009583%, 3.781128%, 8.087158%)" offset="0.140625"/><stop stop-opacity="1" stop-color="rgb(51.856995%, 3.829956%, 8.253479%)" offset="0.144531"/><stop stop-opacity="1" stop-color="rgb(51.704407%, 3.878784%, 8.4198%)" offset="0.148438"/><stop stop-opacity="1" stop-color="rgb(51.550293%, 3.927612%, 8.587646%)" offset="0.152344"/><stop stop-opacity="1" stop-color="rgb(51.397705%, 3.97644%, 8.753967%)" offset="0.15625"/><stop stop-opacity="1" stop-color="rgb(51.243591%, 4.025269%, 8.920288%)" offset="0.160156"/><stop stop-opacity="1" stop-color="rgb(51.091003%, 4.074097%, 9.088135%)" offset="0.164062"/><stop stop-opacity="1" stop-color="rgb(50.938416%, 4.122925%, 9.254456%)" offset="0.167969"/><stop stop-opacity="1" stop-color="rgb(50.784302%, 4.171753%, 9.420776%)" offset="0.171875"/><stop stop-opacity="1" stop-color="rgb(50.631714%, 4.220581%, 9.588623%)" offset="0.175781"/><stop stop-opacity="1" stop-color="rgb(50.479126%, 4.269409%, 9.754944%)" offset="0.179688"/><stop stop-opacity="1" stop-color="rgb(50.325012%, 4.318237%, 9.921265%)" offset="0.183594"/><stop stop-opacity="1" stop-color="rgb(50.172424%, 4.367065%, 10.089111%)" offset="0.1875"/><stop stop-opacity="1" stop-color="rgb(50.019836%, 4.415894%, 10.255432%)" offset="0.191406"/><stop stop-opacity="1" stop-color="rgb(49.865723%, 4.464722%, 10.421753%)" offset="0.195312"/><stop stop-opacity="1" stop-color="rgb(49.713135%, 4.51355%, 10.588074%)" offset="0.199219"/><stop stop-opacity="1" stop-color="rgb(49.560547%, 4.562378%, 10.75592%)" offset="0.203125"/><stop stop-opacity="1" stop-color="rgb(49.406433%, 4.611206%, 10.922241%)" offset="0.207031"/><stop stop-opacity="1" stop-color="rgb(49.253845%, 4.660034%, 11.088562%)" offset="0.210938"/><stop stop-opacity="1" stop-color="rgb(49.101257%, 4.708862%, 11.256409%)" offset="0.214844"/><stop stop-opacity="1" stop-color="rgb(48.947144%, 4.75769%, 11.422729%)" offset="0.21875"/><stop stop-opacity="1" stop-color="rgb(48.794556%, 4.806519%, 11.58905%)" offset="0.222656"/><stop stop-opacity="1" stop-color="rgb(48.640442%, 4.855347%, 11.756897%)" offset="0.226562"/><stop stop-opacity="1" stop-color="rgb(48.487854%, 4.904175%, 11.923218%)" offset="0.230469"/><stop stop-opacity="1" stop-color="rgb(48.335266%, 4.953003%, 12.089539%)" offset="0.234375"/><stop stop-opacity="1" stop-color="rgb(48.181152%, 5.001831%, 12.257385%)" offset="0.238281"/><stop stop-opacity="1" stop-color="rgb(48.028564%, 5.050659%, 12.423706%)" offset="0.242188"/><stop stop-opacity="1" stop-color="rgb(47.875977%, 5.099487%, 12.590027%)" offset="0.246094"/><stop stop-opacity="1" stop-color="rgb(47.721863%, 5.148315%, 12.757874%)" offset="0.25"/><stop stop-opacity="1" stop-color="rgb(47.492981%, 5.221558%, 13.008118%)" offset="0.253906"/><stop stop-opacity="1" stop-color="rgb(47.186279%, 5.319214%, 13.340759%)" offset="0.261719"/><stop stop-opacity="1" stop-color="rgb(46.879578%, 5.41687%, 13.674927%)" offset="0.269531"/><stop stop-opacity="1" stop-color="rgb(46.574402%, 5.514526%, 14.007568%)" offset="0.277344"/><stop stop-opacity="1" stop-color="rgb(46.2677%, 5.612183%, 14.341736%)" offset="0.285156"/><stop stop-opacity="1" stop-color="rgb(45.960999%, 5.709839%, 14.675903%)" offset="0.292969"/><stop stop-opacity="1" stop-color="rgb(45.654297%, 5.807495%, 15.008545%)" offset="0.300781"/><stop stop-opacity="1" stop-color="rgb(45.349121%, 5.905151%, 15.342712%)" offset="0.308594"/><stop stop-opacity="1" stop-color="rgb(45.042419%, 6.002808%, 15.675354%)" offset="0.316406"/><stop stop-opacity="1" stop-color="rgb(44.735718%, 6.100464%, 16.009521%)" offset="0.324219"/><stop stop-opacity="1" stop-color="rgb(44.430542%, 6.19812%, 16.343689%)" offset="0.332031"/><stop stop-opacity="1" stop-color="rgb(44.12384%, 6.295776%, 16.676331%)" offset="0.339844"/><stop stop-opacity="1" stop-color="rgb(43.817139%, 6.393433%, 17.010498%)" offset="0.347656"/><stop stop-opacity="1" stop-color="rgb(43.511963%, 6.491089%, 17.344666%)" offset="0.355469"/><stop stop-opacity="1" stop-color="rgb(43.205261%, 6.588745%, 17.677307%)" offset="0.363281"/><stop stop-opacity="1" stop-color="rgb(42.89856%, 6.686401%, 18.011475%)" offset="0.371094"/><stop stop-opacity="1" stop-color="rgb(42.591858%, 6.784058%, 18.344116%)" offset="0.378906"/><stop stop-opacity="1" stop-color="rgb(42.286682%, 6.881714%, 18.678284%)" offset="0.386719"/><stop stop-opacity="1" stop-color="rgb(41.97998%, 6.97937%, 19.012451%)" offset="0.394531"/><stop stop-opacity="1" stop-color="rgb(41.673279%, 7.077026%, 19.345093%)" offset="0.402344"/><stop stop-opacity="1" stop-color="rgb(41.368103%, 7.174683%, 19.67926%)" offset="0.410156"/><stop stop-opacity="1" stop-color="rgb(41.061401%, 7.272339%, 20.013428%)" offset="0.417969"/><stop stop-opacity="1" stop-color="rgb(40.7547%, 7.369995%, 20.346069%)" offset="0.425781"/><stop stop-opacity="1" stop-color="rgb(40.447998%, 7.467651%, 20.680237%)" offset="0.433594"/><stop stop-opacity="1" stop-color="rgb(40.142822%, 7.565308%, 21.012878%)" offset="0.441406"/><stop stop-opacity="1" stop-color="rgb(39.836121%, 7.662964%, 21.347046%)" offset="0.449219"/><stop stop-opacity="1" stop-color="rgb(39.529419%, 7.76062%, 21.681213%)" offset="0.457031"/><stop stop-opacity="1" stop-color="rgb(39.224243%, 7.858276%, 22.013855%)" offset="0.464844"/><stop stop-opacity="1" stop-color="rgb(38.917542%, 7.955933%, 22.348022%)" offset="0.472656"/><stop stop-opacity="1" stop-color="rgb(38.61084%, 8.053589%, 22.68219%)" offset="0.480469"/><stop stop-opacity="1" stop-color="rgb(38.305664%, 8.151245%, 23.014832%)" offset="0.488281"/><stop stop-opacity="1" stop-color="rgb(37.998962%, 8.248901%, 23.348999%)" offset="0.496094"/><stop stop-opacity="1" stop-color="rgb(37.768555%, 8.322144%, 23.599243%)" offset="0.503906"/><stop stop-opacity="1" stop-color="rgb(37.615967%, 8.370972%, 23.765564%)" offset="0.507812"/><stop stop-opacity="1" stop-color="rgb(37.463379%, 8.4198%, 23.931885%)" offset="0.511719"/><stop stop-opacity="1" stop-color="rgb(37.309265%, 8.468628%, 24.099731%)" offset="0.515625"/><stop stop-opacity="1" stop-color="rgb(37.156677%, 8.517456%, 24.266052%)" offset="0.519531"/><stop stop-opacity="1" stop-color="rgb(37.004089%, 8.566284%, 24.432373%)" offset="0.523438"/><stop stop-opacity="1" stop-color="rgb(36.849976%, 8.615112%, 24.60022%)" offset="0.527344"/><stop stop-opacity="1" stop-color="rgb(36.697388%, 8.66394%, 24.766541%)" offset="0.53125"/><stop stop-opacity="1" stop-color="rgb(36.5448%, 8.712769%, 24.932861%)" offset="0.535156"/><stop stop-opacity="1" stop-color="rgb(36.390686%, 8.761597%, 25.100708%)" offset="0.539062"/><stop stop-opacity="1" stop-color="rgb(36.238098%, 8.810425%, 25.267029%)" offset="0.542969"/><stop stop-opacity="1" stop-color="rgb(36.08551%, 8.859253%, 25.43335%)" offset="0.546875"/><stop stop-opacity="1" stop-color="rgb(35.931396%, 8.908081%, 25.601196%)" offset="0.550781"/><stop stop-opacity="1" stop-color="rgb(35.778809%, 8.956909%, 25.767517%)" offset="0.554688"/><stop stop-opacity="1" stop-color="rgb(35.626221%, 9.005737%, 25.933838%)" offset="0.558594"/><stop stop-opacity="1" stop-color="rgb(35.472107%, 9.054565%, 26.100159%)" offset="0.5625"/><stop stop-opacity="1" stop-color="rgb(35.319519%, 9.103394%, 26.268005%)" offset="0.566406"/><stop stop-opacity="1" stop-color="rgb(35.165405%, 9.152222%, 26.434326%)" offset="0.570312"/><stop stop-opacity="1" stop-color="rgb(35.012817%, 9.20105%, 26.600647%)" offset="0.574219"/><stop stop-opacity="1" stop-color="rgb(34.860229%, 9.249878%, 26.768494%)" offset="0.578125"/><stop stop-opacity="1" stop-color="rgb(34.706116%, 9.298706%, 26.934814%)" offset="0.582031"/><stop stop-opacity="1" stop-color="rgb(34.553528%, 9.347534%, 27.101135%)" offset="0.585938"/><stop stop-opacity="1" stop-color="rgb(34.40094%, 9.396362%, 27.268982%)" offset="0.589844"/><stop stop-opacity="1" stop-color="rgb(34.246826%, 9.44519%, 27.435303%)" offset="0.59375"/><stop stop-opacity="1" stop-color="rgb(34.094238%, 9.494019%, 27.601624%)" offset="0.597656"/><stop stop-opacity="1" stop-color="rgb(33.94165%, 9.542847%, 27.76947%)" offset="0.601562"/><stop stop-opacity="1" stop-color="rgb(33.787537%, 9.591675%, 27.935791%)" offset="0.605469"/><stop stop-opacity="1" stop-color="rgb(33.634949%, 9.640503%, 28.102112%)" offset="0.609375"/><stop stop-opacity="1" stop-color="rgb(33.482361%, 9.689331%, 28.269958%)" offset="0.613281"/><stop stop-opacity="1" stop-color="rgb(33.328247%, 9.738159%, 28.436279%)" offset="0.617188"/><stop stop-opacity="1" stop-color="rgb(33.175659%, 9.786987%, 28.6026%)" offset="0.621094"/><stop stop-opacity="1" stop-color="rgb(33.023071%, 9.835815%, 28.768921%)" offset="0.625"/><stop stop-opacity="1" stop-color="rgb(32.792664%, 9.909058%, 29.019165%)" offset="0.628906"/><stop stop-opacity="1" stop-color="rgb(32.485962%, 10.006714%, 29.353333%)" offset="0.636719"/><stop stop-opacity="1" stop-color="rgb(32.17926%, 10.10437%, 29.6875%)" offset="0.644531"/><stop stop-opacity="1" stop-color="rgb(31.874084%, 10.202026%, 30.020142%)" offset="0.652344"/><stop stop-opacity="1" stop-color="rgb(31.567383%, 10.299683%, 30.354309%)" offset="0.660156"/><stop stop-opacity="1" stop-color="rgb(31.260681%, 10.397339%, 30.688477%)" offset="0.667969"/><stop stop-opacity="1" stop-color="rgb(30.955505%, 10.494995%, 31.021118%)" offset="0.675781"/><stop stop-opacity="1" stop-color="rgb(30.648804%, 10.592651%, 31.355286%)" offset="0.683594"/><stop stop-opacity="1" stop-color="rgb(30.342102%, 10.690308%, 31.687927%)" offset="0.691406"/><stop stop-opacity="1" stop-color="rgb(30.036926%, 10.787964%, 32.022095%)" offset="0.699219"/><stop stop-opacity="1" stop-color="rgb(29.730225%, 10.88562%, 32.356262%)" offset="0.707031"/><stop stop-opacity="1" stop-color="rgb(29.423523%, 10.983276%, 32.688904%)" offset="0.714844"/><stop stop-opacity="1" stop-color="rgb(29.116821%, 11.080933%, 33.023071%)" offset="0.722656"/><stop stop-opacity="1" stop-color="rgb(28.811646%, 11.178589%, 33.357239%)" offset="0.730469"/><stop stop-opacity="1" stop-color="rgb(28.504944%, 11.276245%, 33.68988%)" offset="0.738281"/><stop stop-opacity="1" stop-color="rgb(28.198242%, 11.373901%, 34.024048%)" offset="0.746094"/><stop stop-opacity="1" stop-color="rgb(27.96936%, 11.447144%, 34.274292%)" offset="0.753906"/><stop stop-opacity="1" stop-color="rgb(27.816772%, 11.495972%, 34.440613%)" offset="0.757812"/><stop stop-opacity="1" stop-color="rgb(27.662659%, 11.5448%, 34.606934%)" offset="0.761719"/><stop stop-opacity="1" stop-color="rgb(27.510071%, 11.593628%, 34.77478%)" offset="0.765625"/><stop stop-opacity="1" stop-color="rgb(27.357483%, 11.642456%, 34.941101%)" offset="0.769531"/><stop stop-opacity="1" stop-color="rgb(27.203369%, 11.691284%, 35.107422%)" offset="0.773438"/><stop stop-opacity="1" stop-color="rgb(27.050781%, 11.740112%, 35.275269%)" offset="0.777344"/><stop stop-opacity="1" stop-color="rgb(26.896667%, 11.78894%, 35.441589%)" offset="0.78125"/><stop stop-opacity="1" stop-color="rgb(26.74408%, 11.837769%, 35.60791%)" offset="0.785156"/><stop stop-opacity="1" stop-color="rgb(26.591492%, 11.886597%, 35.775757%)" offset="0.789062"/><stop stop-opacity="1" stop-color="rgb(26.437378%, 11.935425%, 35.942078%)" offset="0.792969"/><stop stop-opacity="1" stop-color="rgb(26.28479%, 11.984253%, 36.108398%)" offset="0.796875"/><stop stop-opacity="1" stop-color="rgb(26.132202%, 12.033081%, 36.274719%)" offset="0.800781"/><stop stop-opacity="1" stop-color="rgb(25.978088%, 12.081909%, 36.442566%)" offset="0.804688"/><stop stop-opacity="1" stop-color="rgb(25.8255%, 12.130737%, 36.608887%)" offset="0.808594"/><stop stop-opacity="1" stop-color="rgb(25.672913%, 12.179565%, 36.775208%)" offset="0.8125"/><stop stop-opacity="1" stop-color="rgb(25.442505%, 12.252808%, 37.025452%)" offset="0.816406"/><stop stop-opacity="1" stop-color="rgb(25.135803%, 12.350464%, 37.359619%)" offset="0.824219"/><stop stop-opacity="1" stop-color="rgb(24.830627%, 12.44812%, 37.693787%)" offset="0.832031"/><stop stop-opacity="1" stop-color="rgb(24.523926%, 12.545776%, 38.026428%)" offset="0.839844"/><stop stop-opacity="1" stop-color="rgb(24.217224%, 12.643433%, 38.360596%)" offset="0.847656"/><stop stop-opacity="1" stop-color="rgb(23.910522%, 12.741089%, 38.694763%)" offset="0.855469"/><stop stop-opacity="1" stop-color="rgb(23.605347%, 12.838745%, 39.027405%)" offset="0.863281"/><stop stop-opacity="1" stop-color="rgb(23.298645%, 12.936401%, 39.361572%)" offset="0.871094"/><stop stop-opacity="1" stop-color="rgb(23.069763%, 13.009644%, 39.611816%)" offset="0.878906"/><stop stop-opacity="1" stop-color="rgb(22.915649%, 13.058472%, 39.778137%)" offset="0.882812"/><stop stop-opacity="1" stop-color="rgb(22.763062%, 13.1073%, 39.944458%)" offset="0.886719"/><stop stop-opacity="1" stop-color="rgb(22.610474%, 13.156128%, 40.112305%)" offset="0.890625"/><stop stop-opacity="1" stop-color="rgb(22.45636%, 13.204956%, 40.278625%)" offset="0.894531"/><stop stop-opacity="1" stop-color="rgb(22.303772%, 13.253784%, 40.444946%)" offset="0.898438"/><stop stop-opacity="1" stop-color="rgb(22.151184%, 13.302612%, 40.612793%)" offset="0.902344"/><stop stop-opacity="1" stop-color="rgb(21.99707%, 13.35144%, 40.779114%)" offset="0.90625"/><stop stop-opacity="1" stop-color="rgb(21.768188%, 13.424683%, 41.029358%)" offset="0.910156"/><stop stop-opacity="1" stop-color="rgb(21.461487%, 13.522339%, 41.363525%)" offset="0.917969"/><stop stop-opacity="1" stop-color="rgb(21.154785%, 13.619995%, 41.696167%)" offset="0.925781"/><stop stop-opacity="1" stop-color="rgb(20.848083%, 13.717651%, 42.030334%)" offset="0.933594"/><stop stop-opacity="1" stop-color="rgb(20.619202%, 13.790894%, 42.280579%)" offset="0.941406"/><stop stop-opacity="1" stop-color="rgb(20.466614%, 13.839722%, 42.446899%)" offset="0.945312"/><stop stop-opacity="1" stop-color="rgb(20.3125%, 13.88855%, 42.61322%)" offset="0.949219"/><stop stop-opacity="1" stop-color="rgb(20.159912%, 13.937378%, 42.781067%)" offset="0.953125"/><stop stop-opacity="1" stop-color="rgb(19.929504%, 14.01062%, 43.031311%)" offset="0.957031"/><stop stop-opacity="1" stop-color="rgb(19.624329%, 14.108276%, 43.363953%)" offset="0.964844"/><stop stop-opacity="1" stop-color="rgb(19.393921%, 14.181519%, 43.614197%)" offset="0.972656"/><stop stop-opacity="1" stop-color="rgb(19.241333%, 14.230347%, 43.782043%)" offset="0.976562"/><stop stop-opacity="1" stop-color="rgb(19.010925%, 14.303589%, 44.032288%)" offset="0.980469"/><stop stop-opacity="1" stop-color="rgb(18.782043%, 14.376831%, 44.281006%)" offset="0.988281"/><stop stop-opacity="1" stop-color="rgb(18.551636%, 14.450073%, 44.53125%)" offset="0.992188"/><stop stop-opacity="1" stop-color="rgb(18.399048%, 14.498901%, 44.699097%)" offset="1"/></radialGradient></defs><g clip-path="url(#dcd8ee1ce1)"><rect x="-81" width="972" fill="#697a7a" y="-80.999999" height="971.999992" fill-opacity="1"/></g><path fill="#e38b5c" d="M 531.277344 679.511719 L 531.183594 679.296875 C 529.445312 675.902344 527.613281 672.46875 525.636719 669.003906 C 525.589844 669.003906 525.542969 669.003906 525.398438 669.003906 L 522.3125 663.253906 C 509.921875 640.210938 498.015625 615.863281 486.738281 590.207031 L 548.003906 572.390625 L 548.003906 572.609375 C 557.742188 594.753906 566.515625 617.476562 574.277344 640.742188 C 574.082031 640.714844 574.855469 643.609375 576.589844 649.480469 L 581.074219 662.472656 C 581.074219 662.527344 581.121094 662.621094 581.21875 662.757812 C 583.097656 670.382812 584.832031 677.140625 586.328125 683.0625 C 587.820312 688.980469 588.929688 693.800781 589.75 697.546875 C 580.589844 709.464844 568.058594 715.21875 552.246094 714.804688 C 549.449219 714.703125 546.65625 714.421875 543.714844 713.941406 C 543.085938 711.4375 542.414062 708.9375 541.6875 706.414062 C 539.328125 697.84375 535.953125 689.078125 531.613281 680.078125 L 531.46875 679.796875 L 531.519531 679.859375 C 531.46875 679.777344 531.421875 679.695312 531.375 679.664062 L 531.277344 679.511719 " fill-opacity="1" fill-rule="evenodd"/><path fill="#fadeca" d="M 525.554688 668.972656 C 525.652344 668.972656 525.746094 668.972656 525.792969 668.972656 C 527.757812 672.4375 529.621094 675.867188 531.296875 679.265625 L 531.390625 679.480469 C 529.382812 675.984375 527.421875 672.472656 525.507812 668.972656 L 525.554688 668.972656 " fill-opacity="1" fill-rule="evenodd"/><path fill="#fefffe" d="M 575.796875 676.484375 L 576.375 679.535156 C 566.703125 687.257812 551.0625 691.101562 529.359375 691.101562 C 528.878906 690.921875 528.398438 690.769531 527.867188 690.6875 C 526.234375 690.410156 524.402344 690.59375 522.429688 691.253906 L 516.03125 648.523438 C 515.984375 648.472656 515.886719 648.472656 515.742188 648.523438 C 513.289062 645.671875 512.855469 643.332031 514.539062 641.496094 C 515.644531 641.445312 516.707031 641.363281 517.8125 641.277344 C 536 641.746094 553.324219 636.753906 569.832031 626.292969 C 571.757812 629.230469 572.285156 632.613281 571.46875 636.441406 L 575.796875 676.484375 " fill-opacity="1" fill-rule="evenodd"/><path fill="#fdfffd" d="M 502.675781 721.640625 C 511.695312 722.117188 518.398438 732.921875 522.691406 754.074219 C 502.050781 759.527344 488.59375 760.9375 482.324219 758.332031 C 475.140625 745.191406 481.941406 732.957031 502.675781 721.640625 Z M 586.300781 695.515625 L 593.195312 727.605469 L 565.320312 738.894531 C 562.332031 717.261719 569.324219 702.808594 586.300781 695.515625 Z M 576.941406 682.804688 C 579.5 680.015625 580.269531 678.355469 579.257812 677.828125 C 581.621094 678.824219 583.792969 683.894531 585.71875 693.027344 C 566.382812 700.222656 558.714844 715.871094 562.714844 739.953125 L 524.761719 753.660156 C 520.328125 731.546875 513.191406 720.695312 503.449219 721.074219 L 510.246094 716.164062 C 514.394531 719.402344 519.167969 717.277344 524.617188 709.851562 L 516.035156 709.289062 L 516.902344 708.078125 L 517 708.011719 L 525.246094 708.640625 L 528.429688 702.828125 L 519.988281 702.609375 L 521 700.703125 L 529.34375 700.835938 L 531.949219 696.011719 L 521.917969 696.011719 L 522.109375 694.171875 L 532.863281 694.371094 L 532.863281 694.089844 C 533.203125 694.089844 533.589844 694.089844 533.925781 694.089844 C 552.925781 694.371094 567.296875 690.605469 576.941406 682.804688 " fill-opacity="1" fill-rule="evenodd"/><path fill="#d8d9d8" d="M 510.136719 716.191406 L 510.667969 715.980469 L 515.925781 709.3125 L 524.511719 709.878906 C 519.0625 717.300781 514.285156 719.425781 510.136719 716.191406 Z M 519.882812 702.636719 L 528.324219 702.847656 L 525.140625 708.667969 L 516.890625 708.039062 Z M 520.894531 700.726562 L 521.328125 700.019531 L 521.8125 696.039062 L 531.84375 696.039062 L 529.238281 700.863281 Z M 522.003906 694.195312 L 522.292969 691.28125 C 524.320312 690.617188 526.105469 690.4375 527.742188 690.71875 C 528.273438 690.800781 528.804688 690.949219 529.238281 691.132812 C 550.945312 691.132812 566.574219 687.289062 576.273438 679.558594 L 576.800781 682.824219 C 567.203125 690.636719 552.828125 694.398438 533.820312 694.113281 C 533.484375 694.113281 533.097656 694.113281 532.710938 694.113281 L 532.710938 694.398438 Z M 503.335938 721.097656 C 513.078125 720.71875 520.21875 731.574219 524.65625 753.6875 L 562.621094 739.980469 C 558.617188 715.894531 566.285156 700.25 585.632812 693.050781 L 586.210938 695.542969 C 569.183594 702.835938 562.1875 717.289062 565.179688 738.917969 L 593.109375 727.628906 L 595.421875 736.148438 C 555.289062 754.695312 524.996094 764.757812 504.492188 766.316406 C 484.136719 767.792969 476.707031 765.140625 482.207031 758.363281 C 488.476562 760.960938 501.9375 759.554688 522.582031 754.101562 C 518.289062 732.949219 511.585938 722.144531 502.5625 721.664062 C 502.757812 721.429688 503 721.234375 503.335938 721.097656 " fill-opacity="1" fill-rule="evenodd"/><path fill="#5c5d5c" d="M 576.902344 682.8125 L 576.324219 679.546875 L 575.746094 676.492188 C 578.878906 677.257812 580.03125 677.6875 579.214844 677.769531 C 579.167969 677.871094 579.167969 677.890625 579.214844 677.835938 C 580.226562 678.367188 579.457031 680.027344 576.902344 682.808594 " fill-opacity="1" fill-rule="evenodd"/><path fill="#e38b5c" d="M 540.910156 550.65625 C 544.410156 561.648438 546.761719 568.722656 548.007812 571.886719 C 547.480469 575.207031 546.710938 580.578125 545.753906 588.003906 C 544.84375 595.476562 543.070312 600.945312 540.433594 604.410156 C 537.890625 608.007812 536.355469 610.28125 535.734375 611.222656 C 535.683594 611.40625 535.589844 611.621094 535.542969 611.851562 C 533.046875 616.359375 530.410156 619.988281 527.582031 622.792969 C 525.953125 624.300781 523.074219 626.554688 519 629.535156 C 517.800781 629.636719 516.457031 629.601562 514.921875 629.453125 C 513.773438 629.273438 512.667969 629.007812 511.613281 628.675781 C 510.75 628.3125 509.984375 627.929688 509.3125 627.550781 C 506.4375 626.121094 503.367188 624.234375 500.15625 621.863281 C 499.339844 621.203125 498.523438 620.535156 497.664062 619.875 L 496.992188 619.3125 C 496.75 619.078125 496.558594 618.929688 496.464844 618.882812 C 492.628906 615.152344 489.558594 611.601562 487.304688 608.238281 C 485.964844 606.097656 484.957031 604.113281 484.1875 602.273438 C 482.894531 598.722656 479.683594 590.15625 474.457031 576.582031 C 473.066406 572.503906 471.53125 568.128906 469.707031 563.433594 C 471.242188 561.976562 472.824219 560.554688 474.457031 559.175781 C 482.847656 551.804688 491.429688 545.867188 500.25 541.359375 C 509.503906 536.636719 520.773438 532.671875 534.101562 529.507812 C 534.246094 530.269531 536.5 537.3125 540.910156 550.65625 " fill-opacity="1" fill-rule="evenodd"/><path fill="#008395" d="M 543.835938 500.667969 C 544.074219 522.863281 545.464844 537.132812 548.007812 543.480469 C 547.527344 544.09375 546.90625 544.722656 546.1875 545.386719 C 544.460938 547.574219 542.542969 549.679688 540.335938 551.71875 C 535.15625 556.722656 529.066406 561.863281 522.019531 567.117188 C 512.765625 574.160156 503.464844 579.167969 494.113281 582.101562 C 493.011719 582.480469 491.910156 582.8125 490.855469 583.09375 C 486.394531 584.125 482.558594 584.753906 479.203125 584.933594 C 476.660156 584.835938 474.503906 584.457031 472.683594 583.789062 C 471.578125 580.90625 470.332031 576.894531 468.847656 571.726562 C 467.40625 566.902344 462.613281 552.660156 454.605469 528.996094 C 458.25 524.730469 463.429688 519.628906 469.996094 513.660156 C 470.714844 513.179688 471.339844 512.683594 471.914062 512.171875 C 478.292969 506.433594 484.285156 501.496094 489.847656 497.335938 C 498.667969 490.609375 509.648438 488.929688 522.835938 492.296875 C 528.636719 493.671875 535.636719 496.457031 543.835938 500.667969 " fill-opacity="1" fill-rule="evenodd"/><path fill="#fadeca" d="M 577.929688 619.890625 C 577.976562 619.804688 578.167969 619.839844 578.457031 620.007812 L 578.554688 620.035156 C 579.324219 620.421875 580.625 621.136719 582.453125 622.160156 L 582.40625 622.242188 C 582.308594 622.324219 582.261719 622.410156 582.261719 622.445312 C 579.855469 621.167969 578.410156 620.320312 577.929688 619.890625 Z M 421.941406 568.296875 C 422.035156 568.425781 422.179688 568.589844 422.277344 568.773438 L 421.988281 568.574219 C 421.941406 568.472656 421.941406 568.375 421.941406 568.296875 " fill-opacity="1" fill-rule="evenodd"/><path fill="#e9cbb4" d="M 577.824219 619.90625 C 577.488281 619.722656 577.199219 619.492188 576.910156 619.195312 C 577.007812 619.296875 577.488281 619.558594 578.402344 620.027344 C 578.066406 619.859375 577.871094 619.824219 577.824219 619.90625 " fill-opacity="1" fill-rule="evenodd"/><path stroke-linecap="butt" transform="matrix(0.471858, 0, 0, -0.471853, -7267.485471, 2578.095586)" fill="none" stroke-linejoin="miter" d="M 16299.499311 4131.878392 L 16299.996018 4131.456187 L 16299.996018 4131.596922 Z M 16299.499311 4131.878392 " stroke="#000000" stroke-width="0.351" stroke-opacity="1" stroke-miterlimit="10"/><path fill="#f89865" d="M 478.816406 568.15625 L 484.113281 568.71875 C 486.28125 569.765625 489.027344 571.523438 492.445312 573.972656 C 500.101562 579.476562 509.589844 584.976562 520.8125 590.515625 C 532.082031 596.101562 538.246094 599.199219 539.304688 599.816406 C 540.316406 600.441406 552.789062 606.773438 576.722656 618.84375 C 576.867188 618.992188 577.011719 619.089844 577.207031 619.121094 C 577.496094 619.421875 577.785156 619.65625 578.121094 619.835938 C 578.652344 620.269531 580.09375 621.109375 582.457031 622.386719 C 580.191406 624.859375 575.28125 629.746094 567.671875 637.089844 C 560.589844 643.804688 554.8125 649.023438 550.382812 652.703125 C 548.503906 652.324219 546.722656 651.976562 544.890625 651.644531 C 524.277344 647.332031 503.523438 643.410156 482.621094 639.859375 C 459.792969 635.882812 446.644531 633.609375 443.226562 633.042969 C 439.757812 632.480469 437.542969 632.101562 436.582031 631.902344 C 408.695312 621.441406 397.523438 603.292969 403.109375 577.457031 L 407.6875 560.199219 L 407.6875 560.066406 L 407.925781 560.199219 L 475.492188 567.808594 C 475.832031 568.1875 476.9375 568.304688 478.816406 568.15625 " fill-opacity="1" fill-rule="evenodd"/><path fill="#fefffe" d="M 561.632812 601.175781 C 567.257812 610.550781 564.949219 623.582031 554.761719 640.238281 C 542.3125 642.925781 536.640625 649.753906 537.792969 660.695312 L 493.09375 645.460938 C 493.09375 645.394531 493.042969 645.394531 492.996094 645.511719 C 488.8125 646.472656 486.171875 645.578125 485.015625 642.824219 C 485.640625 641.449219 486.316406 640.269531 487.132812 639.277344 C 498.042969 620.746094 502.992188 599.847656 501.984375 576.574219 C 506.070312 576.34375 509.914062 577.765625 513.570312 580.832031 L 557.691406 599.796875 L 561.632812 601.175781 " fill-opacity="1" fill-rule="evenodd"/><path fill="#fdfffd" d="M 590.292969 742.75 C 576.273438 743.625 566.75 730.71875 561.773438 703.96875 C 579.371094 683.363281 595.46875 676.730469 610.019531 684.09375 C 607.164062 705.640625 600.589844 725.199219 590.292969 742.75 Z M 604.894531 608.710938 L 609.726562 630.453125 C 594.597656 626.097656 585.796875 616 583.332031 600.160156 Z M 549.832031 670.035156 C 548.71875 663.207031 553.167969 654.441406 563.175781 643.769531 C 562.402344 643.386719 561.578125 643.003906 560.757812 642.671875 C 550.265625 644.957031 544.222656 651.800781 542.53125 663.191406 L 541.082031 661.8125 C 539.875 651.023438 545.480469 644.28125 557.953125 641.59375 C 568.25 624.769531 570.472656 611.660156 564.625 602.28125 L 563.511719 595.867188 C 568.105469 594.988281 573.859375 596.097656 580.820312 599.164062 C 582.609375 617.945312 592.519531 629.410156 610.40625 633.558594 C 612.242188 650.464844 612.242188 666.308594 610.453125 681.058594 C 595.613281 673.167969 579.222656 679.816406 561.242188 701 L 559.886719 690.359375 C 577.339844 678.207031 582.269531 665.976562 574.726562 653.644531 C 567.285156 659.992188 561.289062 669.65625 556.695312 682.632812 L 555.390625 679.46875 C 558.535156 668.578125 564.578125 659.328125 573.472656 651.738281 C 571.539062 649.003906 568.589844 646.601562 564.722656 644.527344 C 554.714844 656.476562 550.121094 665.613281 550.945312 671.941406 L 549.832031 670.035156 " fill-opacity="1" fill-rule="evenodd"/><path fill="#d8d9d8" d="M 550.898438 671.953125 C 550.074219 665.621094 554.675781 656.488281 564.652344 644.539062 C 568.574219 646.613281 571.480469 649.015625 573.46875 651.75 C 564.507812 659.339844 558.503906 668.589844 555.355469 679.476562 Z M 549.785156 670.046875 L 542.519531 663.199219 C 544.167969 651.8125 550.21875 644.96875 560.730469 642.683594 C 561.554688 643.011719 562.328125 643.394531 563.152344 643.773438 C 553.125 654.449219 548.667969 663.21875 549.785156 670.046875 Z M 583.300781 600.171875 C 585.769531 616.011719 594.535156 626.105469 609.695312 630.464844 L 604.851562 608.71875 L 619.671875 613.792969 C 627.035156 655.679688 625.386719 688.195312 614.730469 711.367188 C 604.027344 734.738281 595.890625 745.195312 590.273438 742.757812 C 600.542969 725.207031 607.128906 705.652344 609.984375 684.101562 C 595.457031 676.742188 579.328125 683.371094 561.699219 703.976562 C 561.554688 703.03125 561.359375 702.039062 561.164062 701.011719 C 579.183594 679.828125 595.554688 673.175781 610.375 681.070312 C 612.214844 666.320312 612.164062 650.472656 610.375 633.5625 C 592.453125 629.421875 582.574219 617.953125 580.78125 599.171875 Z M 541.066406 661.824219 L 537.722656 660.714844 C 536.5625 649.773438 542.179688 642.945312 554.675781 640.261719 C 564.894531 623.605469 567.171875 610.578125 561.554688 601.199219 L 564.605469 602.285156 C 570.417969 611.671875 568.1875 624.777344 557.921875 641.605469 C 545.425781 644.292969 539.808594 651.035156 541.066406 661.824219 Z M 556.660156 682.644531 C 561.261719 669.664062 567.269531 660.003906 574.679688 653.652344 C 582.234375 665.984375 577.292969 678.21875 559.859375 690.367188 L 556.664062 682.644531 " fill-opacity="1" fill-rule="evenodd"/><path fill="#5c5d5c" d="M 561.75 601.140625 L 557.8125 599.761719 C 560.308594 596.957031 562.277344 595.632812 563.722656 595.816406 L 564.824219 602.230469 L 561.75 601.140625 " fill-opacity="1" fill-rule="evenodd"/><path fill="#00a5bb" d="M 506.859375 403.066406 C 511.417969 405.820312 515.6875 409.003906 519.714844 412.652344 C 527.246094 419.179688 533.867188 426.472656 539.667969 434.511719 C 545.378906 442.621094 548.78125 451.652344 549.789062 461.628906 C 550.84375 471.625 550.796875 479.082031 549.644531 484.003906 C 548.398438 488.875 547.054688 492.890625 545.710938 496.070312 C 544.128906 499.386719 543.3125 501.410156 543.21875 502.171875 C 543.027344 502.835938 542.210938 504.175781 540.722656 506.214844 C 539.1875 508.300781 537.175781 511.121094 534.679688 514.667969 C 526.765625 526.882812 520.242188 538.851562 515.253906 550.589844 C 512.328125 556.933594 509.882812 562.980469 508.058594 568.753906 C 506.910156 572.214844 505.902344 575.496094 504.941406 578.632812 C 498.800781 582.894531 490.9375 585 481.4375 584.945312 C 476.59375 584.945312 471.03125 584.433594 464.84375 583.386719 C 463.597656 583.140625 462.398438 582.941406 461.199219 582.742188 C 457.167969 581.847656 452.757812 580.835938 448.054688 579.695312 C 436.207031 576.476562 424.792969 572.484375 413.808594 567.691406 C 408.53125 565.242188 404.742188 564.359375 402.441406 565.074219 C 398.746094 557.316406 398.363281 550.238281 401.289062 543.839844 C 402.054688 542.515625 402.726562 541.058594 403.351562 539.445312 C 404.789062 535.605469 406.132812 531.871094 407.476562 528.226562 C 409.875 521.699219 412.082031 515.960938 414 511.042969 L 394.765625 485.28125 L 394.765625 455.898438 C 407.140625 448.269531 421.097656 442.039062 436.640625 437.214844 C 446.617188 434.046875 461.675781 426.972656 481.726562 415.980469 C 483.980469 414.65625 486.234375 413.429688 488.394531 412.300781 C 495.539062 408.507812 501.679688 405.441406 506.859375 403.066406 " fill-opacity="1" fill-rule="evenodd"/><path fill="#b02222" d="M 341.632812 391.472656 C 341.679688 391.136719 341.773438 390.707031 341.914062 390.191406 C 342.617188 387.011719 342.992188 384.507812 342.992188 382.667969 C 342.992188 381.90625 342.757812 380.609375 342.335938 378.753906 C 342.242188 378.144531 342.148438 377.378906 342.054688 376.484375 C 341.960938 375.871094 341.820312 375.226562 341.679688 374.5625 C 341.023438 372.207031 340.226562 369.574219 339.335938 366.6875 C 338.351562 363.988281 337.132812 361.085938 335.726562 357.953125 C 334.742188 355.21875 333.519531 352.421875 332.113281 349.582031 C 328.363281 342.109375 324.753906 336.027344 321.1875 331.332031 C 319.59375 329.292969 317.953125 327.476562 316.171875 325.867188 C 315.328125 324.917969 314.484375 324.171875 313.59375 323.597656 C 311.246094 322.035156 308.996094 321.105469 306.933594 320.824219 L 306.746094 320.761719 C 305.761719 320.707031 304.964844 320.925781 304.355469 321.386719 C 303.980469 321.589844 303.371094 321.988281 302.527344 322.597656 C 305.902344 319.054688 309.277344 314.574219 312.609375 309.191406 C 313.6875 307.347656 314.8125 305.378906 315.984375 303.289062 C 317.390625 300.6875 318.796875 297.90625 320.25 294.917969 C 322.546875 289.613281 325.644531 281.246094 329.628906 269.789062 C 330.707031 269.078125 331.878906 268.683594 333.191406 268.578125 C 334.316406 268.433594 335.441406 268.46875 336.523438 268.644531 C 338.585938 268.847656 340.742188 269.722656 342.898438 271.28125 C 343.929688 271.945312 344.867188 272.742188 345.757812 273.6875 C 347.445312 275.164062 349.085938 277 350.730469 279.222656 C 354.199219 283.730469 357.808594 289.765625 361.515625 297.339844 C 364.609375 303.816406 367 309.539062 368.6875 314.507812 C 369.71875 317.347656 370.5625 319.949219 371.21875 322.316406 C 371.546875 324.074219 371.828125 325.652344 372.019531 327.074219 C 372.019531 327.605469 372.863281 330.457031 374.550781 335.660156 C 375.019531 336.988281 375.441406 338.148438 375.769531 339.140625 C 375.347656 339.953125 374.878906 340.730469 374.269531 341.496094 C 366.4375 353.792969 360.625 363.027344 356.871094 369.175781 C 356.402344 369.738281 355.980469 370.273438 355.558594 370.734375 C 354.949219 371.875 354.292969 372.90625 353.542969 373.867188 C 353.449219 374.050781 353.355469 374.265625 353.214844 374.496094 C 353.121094 374.746094 353.074219 374.929688 353.074219 375.058594 C 353.027344 375.027344 352.933594 375.027344 352.839844 375.058594 C 352.417969 375.589844 352.136719 375.972656 351.902344 376.203125 L 351.855469 376.417969 C 350.589844 378.359375 349.371094 380.132812 348.246094 381.742188 C 346.320312 384.574219 344.773438 387.308594 343.601562 389.910156 C 342.945312 390.273438 342.289062 390.804688 341.632812 391.472656 " fill-opacity="1" fill-rule="evenodd"/><path fill="#911c1c" d="M 341.589844 391.484375 C 341.449219 391.664062 341.308594 391.761719 341.214844 391.761719 C 340.46875 392.242188 339.816406 392.445312 339.253906 392.394531 C 337.621094 392.261719 336.128906 391.761719 334.773438 390.917969 L 334.820312 390.984375 C 334.679688 390.832031 334.492188 390.671875 334.351562 390.488281 L 334.214844 390.417969 C 334.074219 390.320312 333.933594 390.222656 333.792969 390.125 C 331.222656 388.050781 329.496094 386.691406 328.609375 386.078125 C 328.984375 385.367188 329.402344 384.519531 329.871094 383.527344 C 331.503906 381.253906 333 378.835938 334.492188 376.28125 C 336.359375 372.40625 337.996094 369.203125 339.300781 366.699219 C 340.191406 369.585938 340.984375 372.222656 341.636719 374.578125 C 341.824219 375.238281 341.917969 375.882812 342.011719 376.496094 C 342.105469 377.390625 342.195312 378.152344 342.289062 378.769531 C 342.710938 380.625 342.945312 381.917969 342.945312 382.683594 C 342.945312 384.519531 342.570312 387.023438 341.871094 390.203125 C 341.730469 390.71875 341.636719 391.152344 341.589844 391.484375 Z M 303.117188 328.578125 C 302.371094 326.789062 301.996094 324.847656 302.136719 322.761719 L 302.230469 322.695312 C 302.324219 322.644531 302.371094 322.609375 302.464844 322.609375 C 303.351562 322 303.957031 321.601562 304.332031 321.402344 C 304.9375 320.941406 305.730469 320.71875 306.710938 320.773438 L 306.898438 320.835938 C 305.964844 322.449219 304.84375 324.300781 303.539062 326.375 C 303.117188 327.238281 302.976562 327.964844 303.117188 328.578125 " fill-opacity="1" fill-rule="evenodd"/><path fill="#f89865" d="M 339.296875 366.707031 C 337.992188 369.210938 336.355469 372.40625 334.492188 376.285156 C 332.996094 378.839844 331.457031 381.261719 329.871094 383.527344 C 329.402344 384.527344 328.9375 385.371094 328.5625 386.082031 C 326.417969 389.265625 323.289062 393.757812 319.277344 399.578125 C 318.296875 399.242188 316.289062 400.402344 313.304688 403.054688 C 312.789062 403.566406 311.996094 404.214844 310.96875 404.976562 C 310.875 404.929688 310.78125 404.929688 310.738281 404.976562 C 309.898438 407.003906 306.910156 403.886719 301.730469 395.597656 C 301.261719 394.933594 300.796875 394.15625 300.328125 393.257812 C 292.675781 380.996094 288.757812 371.015625 288.664062 363.292969 C 288.664062 361.984375 288.757812 360.742188 288.894531 359.613281 C 288.941406 358.335938 288.941406 357.785156 288.851562 357.972656 L 290.902344 354.078125 C 292.398438 351.324219 294.589844 346.550781 297.484375 339.742188 C 300.328125 332.875 302.195312 329.148438 303.082031 328.582031 C 302.945312 327.972656 303.082031 327.242188 303.503906 326.378906 C 304.855469 324.308594 305.929688 322.449219 306.863281 320.84375 C 308.917969 321.125 311.15625 322.054688 313.539062 323.613281 C 314.425781 324.191406 315.265625 324.9375 316.105469 325.882812 C 317.878906 327.492188 319.558594 329.316406 321.144531 331.351562 C 324.691406 336.046875 328.332031 342.125 332.0625 349.601562 C 333.464844 352.433594 334.675781 355.238281 335.703125 357.972656 C 337.105469 361.105469 338.316406 364.003906 339.296875 366.707031 " fill-opacity="1" fill-rule="evenodd"/><path fill="#d92b2b" d="M 322.992188 311.339844 C 322.941406 310.921875 322.894531 310.511719 322.796875 310.125 L 322.796875 309.847656 C 322.65625 309.1875 322.511719 308.457031 322.269531 307.660156 C 320.878906 301.691406 319.488281 296.109375 318.195312 290.90625 C 316.851562 285.75 316.226562 281.570312 316.324219 278.40625 C 316.324219 274.808594 316.46875 271.476562 316.753906 268.390625 C 318.003906 255.152344 320.785156 245.371094 325.050781 239.074219 C 346.011719 207.363281 372.53125 202.144531 404.523438 223.390625 C 406.105469 224.335938 409.269531 227.386719 413.972656 232.542969 C 414.019531 232.644531 414.113281 232.757812 414.257812 232.90625 C 414.738281 233.417969 421.789062 245.4375 435.3125 268.957031 C 436.082031 270.152344 436.800781 271.359375 437.472656 272.589844 C 438.238281 274.09375 439.101562 275.621094 440.011719 277.128906 C 441.691406 279.878906 443.464844 282.644531 445.242188 285.433594 C 446.34375 287.1875 447.496094 288.980469 448.644531 290.816406 C 449.414062 292.113281 450.179688 293.339844 450.996094 294.515625 C 457.183594 304.03125 463.851562 313.710938 471.042969 323.554688 C 472.769531 326.007812 474.640625 328.476562 476.65625 330.929688 C 477.710938 332.585938 478.859375 334.246094 480.109375 335.90625 C 482.121094 338.652344 484.234375 341.359375 486.4375 344.011719 C 486.679688 344.140625 486.917969 344.339844 487.207031 344.570312 C 491.042969 350.207031 496.078125 357.082031 502.3125 365.222656 C 513.34375 379.609375 520.828125 389.671875 524.757812 395.390625 C 532.769531 406.894531 539.339844 417.929688 544.519531 428.472656 C 546.628906 433.015625 548.5 437.425781 550.035156 441.683594 C 543.558594 440.789062 536.941406 440.476562 530.179688 440.753906 C 526.007812 440.988281 521.691406 441.515625 517.230469 442.3125 C 500.585938 445.214844 483.992188 451.695312 467.542969 461.773438 C 452.292969 471.191406 434.257812 479.707031 413.445312 487.332031 C 406.539062 489.933594 400.160156 492.039062 394.355469 493.648438 L 322.992188 311.339844 " fill-opacity="1" fill-rule="evenodd"/><path fill="#eb6d2f" d="M 323.085938 311.3125 L 323.039062 311.035156 C 322.902344 310.703125 322.855469 310.40625 322.855469 310.105469 C 322.949219 310.484375 323.039062 310.898438 323.085938 311.3125 " fill-opacity="1" fill-rule="evenodd"/><path fill="#f89865" d="M 211.042969 377.375 C 211.554688 376.398438 212.390625 374.59375 213.601562 371.992188 C 213.789062 372.042969 214.023438 372.109375 214.300781 372.207031 C 215.789062 372.621094 217.234375 372.953125 218.675781 373.203125 C 221.796875 373.765625 225.007812 373.863281 228.3125 373.480469 C 229.105469 373.382812 229.894531 373.265625 230.640625 373.136719 L 231.523438 373.050781 C 233.339844 372.722656 235.109375 372.371094 236.832031 371.992188 C 239.625 371.226562 242.277344 370.386719 244.792969 369.441406 C 247.492188 368.296875 250.515625 366.839844 253.914062 365.03125 C 261.550781 362.242188 268.578125 360.308594 275.097656 359.214844 C 275.65625 359.160156 276.261719 359.046875 276.863281 358.863281 L 277.285156 358.863281 C 277.65625 358.714844 278.074219 358.648438 278.496094 358.648438 C 278.539062 358.648438 278.632812 358.648438 278.726562 358.648438 C 278.773438 358.597656 278.867188 358.578125 279.007812 358.578125 C 279.238281 358.535156 279.566406 358.5 279.984375 358.5 C 280.078125 358.5 280.167969 358.5 280.214844 358.5 C 282.636719 358.316406 285.289062 358.152344 288.222656 358.003906 C 290.457031 359.277344 293.109375 361.253906 296.183594 363.902344 C 305.445312 371.757812 311.453125 377.90625 314.152344 382.347656 C 314.941406 383.542969 315.734375 385 316.570312 386.761719 C 317.6875 389.589844 318.851562 392.976562 320.109375 396.90625 C 320.109375 397.101562 320.15625 397.28125 320.25 397.480469 C 318.851562 400.414062 315.59375 403.734375 310.378906 407.410156 C 309.960938 407.84375 309.496094 408.175781 308.984375 408.40625 C 301.023438 412.765625 293.390625 415.535156 286.082031 416.710938 C 274.957031 417.902344 262.574219 417.257812 248.886719 414.804688 C 240.273438 413.046875 234.175781 411.820312 230.59375 411.105469 C 224.914062 410.0625 218.441406 410.011719 211.273438 410.957031 C 210.949219 410.542969 210.574219 409.714844 210.15625 408.472656 C 209.273438 406.449219 208.714844 405.007812 208.433594 404.148438 C 208.433594 404.046875 208.433594 403.898438 208.433594 403.648438 C 208.246094 403.132812 208.0625 402.589844 207.875 402.027344 C 207.550781 401.210938 207.316406 400.367188 207.175781 399.472656 C 206.898438 398.660156 206.804688 397.019531 206.804688 394.566406 C 206.757812 391.863281 206.945312 389.792969 207.457031 388.316406 C 207.78125 386.761719 208.0625 385.449219 208.292969 384.421875 C 208.621094 383.046875 209.039062 381.769531 209.550781 380.574219 C 209.925781 379.679688 210.4375 378.621094 211.042969 377.378906 " fill-opacity="1" fill-rule="evenodd"/><path fill="#ff3333" d="M 451.863281 323.316406 C 451.960938 326.816406 452.007812 330.628906 452.101562 334.753906 C 452.007812 335.835938 452.054688 336.863281 452.148438 337.804688 C 452.148438 338.1875 452.148438 338.570312 452.148438 338.929688 C 452.339844 341.117188 452.433594 343.523438 452.480469 346.171875 C 452.433594 346.171875 452.292969 346.160156 452.101562 346.113281 C 448.15625 344.351562 443.257812 342.464844 437.453125 340.425781 C 435.789062 339.761719 434.078125 339.148438 432.269531 338.582031 C 431.746094 338.402344 431.175781 338.203125 430.558594 338.023438 C 430.226562 337.769531 429.84375 337.609375 429.417969 337.523438 C 415.242188 332.453125 401.976562 328.144531 389.464844 324.597656 C 387.992188 322.421875 386.707031 320.222656 385.566406 318 C 381.332031 309.945312 380.003906 301.289062 381.570312 292.007812 C 383.664062 280.324219 387.421875 271.140625 392.84375 264.476562 C 398.21875 257.695312 402.023438 253.253906 404.304688 251.117188 C 406.445312 248.996094 407.394531 245.632812 407.0625 241.042969 C 407.207031 241.1875 407.394531 241.320312 407.539062 241.46875 C 407.777344 241.523438 407.917969 241.589844 408.109375 241.6875 C 409.296875 241.96875 410.441406 242.269531 411.535156 242.597656 C 425.324219 248.183594 440.308594 253.320312 456.523438 258.011719 C 456.570312 258.011719 456.621094 258.03125 456.621094 258.082031 C 456.761719 258.082031 456.90625 258.109375 457.046875 258.144531 C 459.566406 258.855469 462.136719 259.589844 464.753906 260.351562 C 469.652344 261.578125 476.261719 263.433594 484.585938 265.886719 C 480.636719 265.554688 478.402344 265.554688 477.832031 265.886719 C 477.070312 266.417969 476.214844 266.980469 475.261719 267.59375 C 475.167969 267.640625 475.121094 267.707031 475.023438 267.808594 C 474.5 268.09375 474.074219 268.441406 473.597656 268.867188 C 465.988281 275.117188 460.328125 282.875 456.761719 292.15625 C 454.953125 296.980469 453.671875 302.289062 452.910156 308.050781 C 452.578125 310.042969 452.433594 312.199219 452.433594 314.519531 C 452.195312 316.65625 452.101562 318.996094 452.101562 321.542969 C 452.101562 321.597656 452.101562 321.695312 452.148438 321.828125 C 452.101562 322.257812 452.007812 322.757812 451.863281 323.316406 " fill-opacity="1" fill-rule="evenodd"/><path fill="#f7d62f" d="M 477.84375 265.886719 C 478.414062 265.558594 480.648438 265.558594 484.546875 265.886719 C 484.644531 265.886719 484.691406 265.886719 484.785156 265.886719 L 484.644531 265.953125 C 484.261719 265.925781 483.835938 265.886719 483.359375 265.886719 C 481.363281 265.941406 479.554688 265.941406 477.84375 265.886719 Z M 456.867188 257.734375 C 456.773438 257.816406 456.679688 257.933594 456.632812 258.082031 C 456.632812 258.035156 456.582031 258.015625 456.535156 258.015625 C 456.582031 257.917969 456.679688 257.816406 456.867188 257.734375 " fill-opacity="1" fill-rule="evenodd"/><path fill="#f72f2f" d="M 456.824219 258.210938 C 456.679688 258.175781 456.539062 258.144531 456.398438 258.144531 C 456.492188 257.992188 456.585938 257.878906 456.679688 257.792969 C 456.679688 257.878906 456.726562 258.027344 456.824219 258.210938 " fill-opacity="1" fill-rule="evenodd"/><path fill="#b02222" d="M 452.46875 346.179688 C 452.421875 343.523438 452.324219 341.121094 452.136719 338.933594 C 452.136719 338.570312 452.136719 338.1875 452.136719 337.808594 C 452.039062 336.859375 452.039062 335.832031 452.085938 334.757812 C 452.039062 330.628906 451.945312 326.820312 451.851562 323.324219 C 458.175781 324.511719 465.074219 325.257812 472.496094 325.59375 C 471.636719 328.722656 470.402344 331.042969 468.972656 332.550781 C 467.355469 334.34375 465.835938 336.378906 464.40625 338.652344 C 462.503906 341.871094 461.03125 343.90625 460.03125 344.769531 C 458.890625 345.664062 457.84375 346.328125 456.890625 346.757812 C 456.320312 347.171875 455.558594 347.273438 454.5625 347.039062 C 453.847656 346.707031 453.230469 346.441406 452.707031 346.261719 C 452.660156 346.210938 452.609375 346.179688 452.46875 346.179688 Z M 486.003906 269.933594 L 475.300781 267.59375 C 476.203125 266.980469 477.109375 266.417969 477.820312 265.886719 C 479.535156 265.9375 481.390625 265.9375 483.386719 265.886719 C 483.863281 265.886719 484.289062 265.917969 484.625 265.953125 L 486.003906 269.933594 " fill-opacity="1" fill-rule="evenodd"/><path fill="#f89865" d="M 472.273438 325.65625 C 464.859375 325.328125 457.96875 324.582031 451.605469 323.390625 C 451.75 322.824219 451.847656 322.328125 451.894531 321.898438 C 451.847656 321.765625 451.847656 321.664062 451.847656 321.617188 C 451.847656 319.0625 451.941406 316.726562 452.179688 314.589844 C 452.179688 312.269531 452.371094 310.113281 452.660156 308.125 C 453.425781 302.359375 454.714844 297.050781 456.535156 292.230469 C 460.121094 282.945312 465.71875 275.191406 473.324219 268.945312 C 473.804688 268.507812 474.28125 268.164062 474.757812 267.882812 C 474.855469 267.78125 474.949219 267.714844 475.046875 267.667969 L 485.761719 270 L 529.769531 282.070312 L 499.109375 327.796875 L 472.273438 325.65625 " fill-opacity="1" fill-rule="evenodd"/><path fill="#f89865" d="M 368.679688 206.328125 C 367.414062 210.203125 365.539062 214.082031 363.058594 217.960938 C 362.871094 218.160156 362.730469 218.324219 362.589844 218.457031 C 362.449219 218.691406 362.308594 218.957031 362.214844 219.238281 C 362.121094 219.335938 362.074219 219.402344 362.074219 219.453125 C 359.496094 223 356.359375 226.695312 352.703125 230.523438 C 343.007812 240.417969 335.277344 247.347656 329.515625 251.328125 C 325.625 253.515625 322.910156 255.457031 321.457031 257.140625 C 318.550781 251.9375 315.460938 247.28125 312.226562 243.171875 C 312.039062 242.972656 311.945312 242.808594 311.898438 242.675781 C 309.792969 239.875 307.589844 237.417969 305.199219 235.285156 C 305.011719 235.003906 304.777344 234.769531 304.449219 234.566406 C 304.3125 234.4375 304.21875 234.335938 304.171875 234.285156 C 304.171875 234.238281 304.125 234.21875 304.078125 234.21875 C 303.703125 233.742188 303.28125 233.273438 302.8125 232.796875 L 357.0625 182.191406 C 357.25 185.921875 357.761719 189.335938 358.652344 192.402344 C 360.480469 198.699219 363.808594 203.34375 368.679688 206.328125 " fill-opacity="1" fill-rule="evenodd"/><path fill="#b02222" d="M 321.515625 257.132812 C 321.097656 257.613281 320.769531 258.09375 320.582031 258.558594 C 320.398438 258.792969 320.257812 259.089844 320.164062 259.421875 C 320.070312 260.980469 319.976562 262.222656 319.886719 263.167969 C 320.398438 265.203125 321.144531 268.007812 322.074219 271.554688 C 320.539062 269.941406 318.253906 267.855469 315.324219 265.304688 C 310.0625 260.613281 306.941406 258.273438 305.871094 258.273438 C 302.984375 258.175781 300.097656 260.429688 297.164062 265.023438 C 296.652344 265.964844 296.140625 266.847656 295.671875 267.644531 C 295.347656 264.476562 295.160156 261.472656 295.160156 258.625 C 295.347656 251.347656 296.09375 244.484375 297.394531 238.039062 C 298.140625 234.589844 298.652344 232.039062 298.980469 230.378906 C 301.261719 232.039062 302.984375 233.3125 304.101562 234.207031 C 304.148438 234.207031 304.195312 234.226562 304.195312 234.277344 C 304.289062 234.324219 304.382812 234.425781 304.472656 234.554688 C 304.800781 234.757812 305.03125 234.988281 305.265625 235.269531 C 307.640625 237.40625 309.828125 239.859375 311.921875 242.664062 C 311.96875 242.792969 312.109375 242.960938 312.296875 243.160156 C 315.507812 247.273438 318.582031 251.929688 321.515625 257.132812 " fill-opacity="1" fill-rule="evenodd"/><path fill="#ff3333" d="M 321.945312 271.59375 C 321.003906 268.046875 320.253906 265.246094 319.734375 263.207031 C 319.828125 262.265625 319.921875 261.019531 320.015625 259.464844 C 320.113281 259.132812 320.253906 258.832031 320.441406 258.601562 C 320.628906 258.136719 320.957031 257.65625 321.378906 257.175781 C 322.835938 255.484375 325.515625 253.546875 329.414062 251.355469 C 335.144531 247.382812 342.894531 240.453125 352.621094 230.558594 C 356.238281 226.726562 359.386719 223.03125 361.96875 219.484375 C 361.96875 219.433594 362.015625 219.367188 362.109375 219.269531 C 362.207031 218.988281 362.347656 218.71875 362.488281 218.488281 C 362.628906 218.359375 362.769531 218.1875 362.957031 217.992188 C 365.445312 214.109375 367.277344 210.234375 368.59375 206.355469 C 368.640625 206.257812 368.734375 206.074219 368.875 205.777344 C 368.96875 205.160156 369.15625 204.550781 369.441406 203.9375 C 372.257812 201.765625 379.164062 204.136719 390.15625 211.03125 C 390.0625 211.082031 390.015625 211.164062 390.015625 211.246094 C 389.78125 213.617188 389.453125 216.285156 389.03125 219.269531 C 388.984375 219.597656 388.890625 219.964844 388.796875 220.332031 C 388.796875 221.09375 388.75 221.804688 388.65625 222.46875 C 387.761719 229.710938 387.105469 234.101562 386.726562 235.679688 C 386.539062 236.570312 386.398438 237.417969 386.164062 238.230469 C 384.847656 244.195312 382.96875 250.429688 380.433594 256.976562 C 380.386719 257.289062 380.199219 257.558594 379.917969 257.753906 C 380.574219 261.917969 381.277344 266.0625 381.984375 270.171875 C 383.015625 275.375 383.441406 278.125 383.300781 278.40625 C 382.828125 278.457031 380.808594 279.070312 377.097656 280.25 C 374.65625 281.0625 372.210938 281.226562 369.722656 280.746094 C 364.648438 279.800781 357.742188 276.367188 349.003906 270.453125 C 343.976562 266.855469 340.03125 264.304688 337.210938 262.796875 C 335.144531 261.648438 333.640625 260.941406 332.5625 260.65625 C 330.917969 260.605469 328.707031 262.09375 325.984375 265.128906 L 325.984375 265.5625 C 325.65625 266.355469 325.375 267.300781 325.183594 268.394531 C 324.714844 269.902344 324.339844 271.496094 324.058594 273.152344 C 323.917969 273.382812 323.871094 273.699219 323.871094 274.078125 C 323.730469 275.410156 323.589844 276.582031 323.492188 277.625 C 322.976562 275.410156 322.460938 273.382812 321.945312 271.59375 " fill-opacity="1" fill-rule="evenodd"/><path fill="#f89865" d="M 480.988281 444.78125 C 481.609375 444.066406 482.1875 443.175781 482.617188 442.078125 C 483.097656 441.085938 483.527344 440.171875 483.910156 439.308594 C 484.292969 438.265625 484.675781 437.140625 485.058594 435.914062 C 486.449219 431.601562 487.121094 428.105469 487.121094 425.40625 C 487.121094 428.105469 486.449219 431.601562 485.058594 435.914062 C 484.675781 437.140625 484.292969 438.265625 483.910156 439.308594 C 483.527344 440.171875 483.097656 441.085938 482.617188 442.078125 C 482.1875 443.175781 481.613281 444.066406 480.988281 444.78125 Z M 493.296875 453.796875 C 494.207031 453.1875 495.167969 452.519531 496.171875 451.804688 L 496.363281 451.742188 C 496.601562 451.460938 496.84375 451.132812 497.035156 450.746094 C 498.089844 449.851562 499.046875 448.59375 499.910156 446.988281 C 500.820312 445.046875 501.34375 443.15625 501.394531 441.300781 C 501.34375 443.15625 500.816406 445.046875 499.910156 446.988281 C 499.046875 448.59375 498.089844 449.851562 497.035156 450.746094 C 496.84375 451.128906 496.601562 451.460938 496.363281 451.742188 L 496.171875 451.804688 C 495.167969 452.519531 494.207031 453.183594 493.296875 453.796875 Z M 514.230469 440.089844 C 514.132812 442.941406 513.65625 445.640625 512.746094 448.195312 C 512.746094 448.558594 512.648438 448.921875 512.503906 449.257812 C 511.402344 452.089844 510.351562 453.945312 509.34375 454.789062 C 508.050781 455.835938 506.757812 456.78125 505.371094 457.625 C 506.757812 456.78125 508.050781 455.835938 509.34375 454.789062 C 510.351562 453.945312 511.402344 452.089844 512.503906 449.257812 C 512.648438 448.921875 512.746094 448.558594 512.746094 448.195312 C 513.65625 445.640625 514.132812 442.941406 514.230469 440.089844 Z M 520.359375 455.074219 C 521.03125 453.898438 521.84375 452.585938 522.851562 451.179688 C 525.628906 446.71875 527.402344 443.9375 528.167969 442.792969 C 527.402344 443.9375 525.628906 446.71875 522.851562 451.179688 C 521.847656 452.585938 521.03125 453.898438 520.359375 455.074219 Z M 499.046875 391.324219 C 499.238281 391.144531 499.332031 391.097656 499.382812 391.175781 C 499.90625 390.800781 500.53125 390.496094 501.25 390.265625 C 501.96875 390.019531 502.832031 389.816406 503.789062 389.621094 C 506.566406 389.289062 510.0625 389.601562 514.230469 390.550781 C 520.21875 391.824219 525.007812 393.695312 528.695312 396.148438 C 529.460938 396.714844 530.609375 397.625 532.046875 398.851562 C 533.484375 400.082031 534.25 400.777344 534.441406 400.910156 C 534.96875 401.289062 535.6875 402 536.597656 403.046875 C 537.125 403.511719 537.605469 403.988281 538.035156 404.453125 C 538.035156 404.601562 538.035156 404.703125 538.035156 404.75 C 538.179688 411.464844 538.609375 418.210938 539.425781 424.972656 C 539.425781 426.167969 539.519531 427.246094 539.710938 428.242188 C 539.902344 437.039062 537.75 443.949219 533.199219 448.976562 C 532.335938 449.917969 531.425781 450.746094 530.46875 451.460938 C 527.449219 453.914062 525.726562 455.140625 525.292969 455.140625 C 524.625 455.140625 522.996094 455.125 520.359375 455.074219 C 520.027344 455.585938 519.691406 456.070312 519.355469 456.5 C 518.542969 457.679688 518.0625 458.371094 517.871094 458.554688 C 517.054688 459.269531 514.710938 459.335938 510.878906 458.769531 C 508.625 458.441406 506.757812 458.058594 505.371094 457.625 C 504.027344 458.207031 502.832031 458.570312 501.824219 458.769531 C 501.441406 458.871094 501.011719 458.886719 500.53125 458.835938 C 499.382812 458.886719 498.136719 458.386719 496.796875 457.34375 C 495.933594 456.78125 494.925781 455.753906 493.777344 454.296875 C 493.585938 454.144531 493.441406 453.980469 493.300781 453.796875 C 492.722656 453.980469 492.199219 454.246094 491.71875 454.574219 C 491.097656 454.777344 490.472656 454.890625 489.898438 454.945312 C 489.46875 455.125 488.988281 455.171875 488.460938 455.074219 C 486.402344 455.074219 484.628906 454.195312 483.144531 452.453125 C 482.761719 451.972656 482.378906 450.648438 481.949219 448.476562 C 481.757812 447.945312 481.566406 447.367188 481.421875 446.703125 C 481.230469 446.121094 481.085938 445.492188 480.988281 444.78125 C 480.367188 445.925781 479.601562 446.867188 478.738281 447.613281 C 477.78125 448.328125 476.390625 448.613281 474.476562 448.476562 C 474.285156 448.523438 474.09375 448.542969 473.851562 448.542969 C 472.558594 448.492188 471.601562 448.328125 470.929688 448.046875 C 470.355469 447.816406 470.019531 447.546875 469.925781 447.265625 C 468.679688 445.757812 470.164062 441.417969 474.285156 434.269531 C 474.378906 434.089844 474.425781 433.941406 474.476562 433.839844 C 475.289062 430.910156 476.007812 428.222656 476.679688 425.753906 C 477.828125 421.082031 478.976562 416.902344 480.078125 413.257812 C 484.054688 401.007812 490.378906 393.695312 499.046875 391.324219 " fill-opacity="1" fill-rule="evenodd"/><path stroke-linecap="butt" transform="matrix(0.478272, 0, 0, -0.478267, -7267.485471, 2578.095586)" fill="none" stroke-linejoin="miter" d="M 16201.399475 4460.61963 C 16202.698094 4462.114283 16203.898705 4463.976473 16204.797121 4466.271541 C 16205.801713 4468.346086 16206.700129 4470.257282 16207.500536 4472.0623 C 16208.300943 4474.243023 16209.10135 4476.603431 16209.901757 4479.159859 C 16212.80119 4488.168613 16214.197819 4495.486695 16214.197819 4501.138606 M 16227.10234 4441.769035 C 16229.005348 4443.051333 16230.998198 4444.439809 16233.203401 4445.926294 L 16233.497428 4446.073309 C 16234.101817 4446.653202 16234.60003 4447.347439 16235.000233 4448.147854 C 16237.197269 4450.018212 16239.100277 4452.648148 16240.905277 4456.013159 C 16242.898127 4460.072407 16243.902719 4464.01731 16244.000728 4467.896874 M 16270.904204 4470.428799 C 16270.700018 4464.466523 16269.703593 4458.822779 16267.800585 4453.481233 C 16267.800585 4452.721655 16267.604567 4451.962078 16267.302372 4451.259673 C 16264.99916 4445.338234 16262.704116 4441.45867 16260.703098 4439.686323 C 16257.999683 4437.513767 16255.198259 4435.529064 16252.298825 4433.756716 M 16283.702548 4439.098262 C 16285.099177 4441.55668 16286.904176 4444.300961 16288.905194 4447.249429 C 16294.704061 4456.568549 16298.403901 4462.391978 16300.004715 4464.776888 " stroke="#954e40" stroke-width="0.347" stroke-opacity="1" stroke-miterlimit="10"/><path fill="#f89865" d="M 493.15625 297.183594 C 499.195312 291.828125 505.480469 287.605469 511.953125 284.472656 C 518.570312 281.207031 523.414062 279.878906 526.386719 280.492188 C 529.550781 281.253906 531.804688 282.28125 533.101562 283.5625 C 534.347656 284.785156 535.882812 286.457031 537.753906 288.597656 C 539.335938 290.769531 541.875 295.789062 545.328125 303.648438 C 548.828125 311.503906 549.019531 325.113281 545.90625 344.457031 C 542.929688 363.917969 540.917969 378.75 539.765625 388.976562 C 538.808594 399.105469 538.230469 404.242188 538.089844 404.375 C 537.894531 404.574219 537.753906 404.789062 537.5625 405.023438 C 536.839844 405.914062 535.738281 407.292969 534.394531 409.132812 C 532.046875 411.738281 528.496094 412.5 523.796875 411.40625 C 512.289062 407.292969 505.238281 403.992188 502.652344 401.542969 C 501.835938 400.828125 500.636719 399.289062 499.199219 396.933594 C 497.855469 394.796875 496.800781 393.351562 496.082031 392.589844 C 496.367188 391.3125 496.65625 390.023438 496.992188 388.695312 C 497.519531 385.382812 497.757812 382.050781 497.757812 378.683594 C 497.757812 376.363281 497.566406 374.074219 497.28125 371.792969 C 496.894531 368.191406 495.3125 361.097656 492.484375 350.503906 C 491.523438 346.578125 490.664062 342.71875 489.941406 338.917969 C 487.738281 324.582031 488.550781 311.023438 492.4375 298.246094 C 492.4375 298.0625 492.484375 297.867188 492.484375 297.679688 C 492.773438 297.402344 492.964844 297.234375 493.15625 297.1875 " fill-opacity="1" fill-rule="evenodd"/><path fill="#f89865" d="M 164.378906 416.402344 C 172.652344 419.054688 179.820312 419.152344 185.933594 416.683594 C 179.820312 419.152344 172.652344 419.054688 164.378906 416.402344 Z M 182.761719 405.332031 C 189.703125 409.160156 191.40625 412.570312 187.773438 415.558594 C 187.3125 415.941406 186.808594 416.234375 186.300781 416.46875 C 186.210938 416.519531 186.074219 416.601562 185.933594 416.683594 C 188.554688 418.007812 190.578125 419.265625 192.046875 420.445312 C 190.578125 419.265625 188.554688 418.007812 185.933594 416.683594 C 186.074219 416.601562 186.210938 416.519531 186.300781 416.46875 C 186.808594 416.234375 187.3125 415.941406 187.773438 415.558594 C 191.40625 412.570312 189.703125 409.160156 182.761719 405.332031 Z M 190.761719 358.835938 C 190.667969 359.78125 190.667969 360.828125 190.761719 361.953125 C 193.609375 367.867188 197.746094 369.042969 203.214844 365.5 C 204 364.933594 204.824219 364.289062 205.605469 363.59375 C 208.089844 361.125 209.054688 357.460938 208.546875 352.589844 C 209.054688 357.460938 208.089844 361.125 205.605469 363.59375 C 204.824219 364.289062 204 364.933594 203.214844 365.5 C 197.746094 369.042969 193.609375 367.867188 190.761719 361.953125 C 190.667969 360.824219 190.667969 359.78125 190.761719 358.835938 Z M 165.207031 386.800781 C 168.699219 387.792969 170.539062 385.671875 170.675781 380.414062 C 165.941406 369.761719 160.378906 364.121094 153.992188 363.511719 C 160.378906 364.121094 165.941406 369.761719 170.675781 380.414062 C 170.539062 385.671875 168.699219 387.792969 165.207031 386.800781 Z M 149.902344 394.386719 C 151.140625 395.863281 152.660156 397.375 154.359375 398.945312 C 163.917969 405.230469 173.386719 407.367188 182.765625 405.332031 C 182.808594 405.148438 182.902344 404.929688 183.039062 404.695312 C 184.832031 401.949219 183.542969 399.359375 179.132812 396.957031 C 178.488281 396.660156 177.890625 396.378906 177.433594 396.097656 C 177.292969 396.097656 177.203125 396.027344 177.15625 395.882812 L 177.019531 395.882812 C 171.457031 393.425781 167.550781 390.394531 165.207031 386.800781 C 164.839844 386.617188 164.378906 386.367188 163.871094 386.085938 L 148.109375 375.875 C 146.914062 375.015625 145.902344 374.285156 145.074219 373.671875 C 145.902344 374.285156 146.914062 375.015625 148.109375 375.875 L 163.871094 386.085938 C 164.378906 386.367188 164.839844 386.617188 165.207031 386.800781 C 167.550781 390.394531 171.457031 393.425781 177.019531 395.882812 L 177.15625 395.882812 C 177.203125 396.027344 177.292969 396.097656 177.433594 396.097656 C 177.890625 396.378906 178.488281 396.660156 179.132812 396.957031 C 183.542969 399.359375 184.832031 401.949219 183.039062 404.695312 C 182.902344 404.929688 182.808594 405.148438 182.765625 405.332031 C 173.386719 407.367188 163.917969 405.230469 154.359375 398.945312 C 152.660156 397.375 151.140625 395.863281 149.902344 394.386719 Z M 149.714844 354.359375 C 163.691406 352.140625 177.386719 353.632812 190.761719 358.835938 C 190.945312 355.140625 192.460938 352.042969 195.402344 349.539062 C 196.136719 348.675781 196.964844 348 197.792969 347.464844 C 200.6875 345.578125 204.226562 345.011719 208.363281 345.773438 C 208.546875 345.773438 210.203125 346.570312 213.328125 348.175781 C 216.316406 349.652344 217.511719 356.761719 216.914062 369.546875 C 216.914062 371.402344 216.914062 373.386719 216.914062 375.511719 C 218.707031 374.847656 220.542969 379.96875 222.519531 390.84375 C 224.40625 401.582031 220.085938 408.925781 209.605469 412.855469 C 207.125 417.347656 201.285156 419.882812 192.046875 420.445312 C 196.507812 424.191406 194.988281 426.859375 187.589844 428.46875 C 175.867188 427.902344 168.148438 423.878906 164.378906 416.402344 C 163.414062 416.21875 162.496094 415.953125 161.667969 415.621094 C 154.082031 410.980469 150.128906 405.394531 149.714844 398.863281 C 149.625 397.355469 149.671875 395.863281 149.898438 394.386719 C 143.464844 386.730469 141.902344 379.816406 145.074219 373.671875 C 135.925781 366.558594 137.03125 360.230469 148.382812 354.644531 C 148.75 354.59375 149.210938 354.492188 149.714844 354.359375 " fill-opacity="1" fill-rule="evenodd"/><path stroke-linecap="butt" transform="matrix(0.45868, 0, 0, -0.458676, -7267.485471, 2578.095586)" fill="none" stroke-linejoin="miter" d="M 16202.596234 4712.883756 C 16220.599646 4707.101145 16236.303663 4706.879719 16249.699768 4712.270578 M 16242.699388 4737.019135 C 16257.900944 4728.673097 16261.494814 4721.229794 16253.702419 4714.723291 C 16252.697498 4713.888688 16251.598898 4713.241444 16250.398103 4712.738978 C 16250.202229 4712.628266 16249.997838 4712.449422 16249.699768 4712.270578 C 16255.294963 4709.38353 16259.800074 4706.632745 16263.002195 4704.060802 M 16260.200339 4838.380911 C 16259.995949 4836.319951 16259.995949 4834.046082 16260.200339 4831.593368 C 16266.40019 4818.691075 16275.401896 4816.119133 16287.299136 4823.860509 C 16289.002392 4825.086866 16290.799327 4826.492066 16292.502582 4828.007979 C 16297.901903 4833.398838 16299.996907 4841.378672 16298.898307 4852.007095 M 16204.495364 4777.420771 C 16212.1004 4775.249098 16216.094535 4779.882 16216.401121 4791.327995 C 16206.002745 4814.569155 16193.901114 4826.85827 16180.002548 4828.186822 M 16171.000842 4760.873473 C 16173.802698 4757.645771 16177.098497 4754.358454 16180.794562 4750.926359 C 16201.599829 4737.24056 16222.302902 4732.582109 16242.699388 4737.019135 C 16242.801583 4737.419404 16242.997457 4737.887804 16243.295527 4738.39027 C 16247.195983 4744.394307 16244.402643 4750.032141 16234.796282 4755.269705 C 16233.399612 4755.916949 16232.096621 4756.530127 16231.100217 4757.151822 C 16230.802147 4757.151822 16230.495561 4757.288084 16230.495561 4757.620222 L 16230.095296 4757.620222 C 16218.09586 4762.968499 16209.502936 4769.577198 16204.495364 4777.420771 C 16203.601155 4777.82104 16202.596234 4778.357571 16201.497634 4778.970749 L 16167.202582 4801.241044 C 16164.596601 4803.106127 16162.399401 4804.698688 16160.500271 4806.035757 " stroke="#954e40" stroke-width="0.361" stroke-opacity="1" stroke-miterlimit="10"/><path fill="#f89865" d="M 232.90625 214.925781 L 233.796875 214.777344 C 233.984375 214.695312 234.222656 214.644531 234.503906 214.644531 C 240.226562 213.652344 245.390625 209.570312 249.945312 202.429688 C 245.390625 209.574219 240.226562 213.652344 234.503906 214.644531 C 234.222656 214.644531 233.984375 214.695312 233.796875 214.777344 L 232.90625 214.925781 L 229.058594 215.707031 L 224.082031 196.464844 C 215.257812 192.167969 213.195312 187.265625 217.886719 181.777344 C 220.375 179.074219 223.660156 176.789062 227.835938 174.882812 C 228.871094 168.933594 227.835938 162.371094 224.878906 155.222656 C 222.816406 150.449219 219.625 144.785156 215.210938 138.25 C 212.535156 134.191406 211.035156 129.320312 210.800781 123.628906 L 211.316406 116.171875 C 213.382812 102.648438 221.171875 89.140625 234.644531 75.648438 C 241.355469 68.835938 247.878906 63.367188 254.121094 59.238281 C 270.78125 44.765625 287.070312 37.808594 302.933594 38.371094 C 316.449219 38.847656 329.308594 44.570312 341.511719 55.558594 C 351.417969 64.3125 360.144531 75.714844 367.796875 89.769531 C 374.039062 101.074219 378.121094 111.117188 380.140625 119.871094 C 382.863281 132.320312 380.609375 146.539062 373.335938 162.535156 C 369.675781 170.769531 361.039062 185.4375 347.378906 206.558594 C 338.933594 220.035156 324.710938 230.027344 304.714844 236.507812 C 289.414062 241.429688 275.195312 243.433594 262.144531 242.542969 C 254.074219 241.929688 247.269531 239.113281 241.636719 234.089844 C 239.898438 232.480469 238.445312 230.804688 237.222656 229.050781 L 235.675781 226.644531 C 234.125 223.183594 233.234375 219.285156 232.90625 214.925781 " fill-opacity="1" fill-rule="evenodd"/><path stroke-linecap="butt" transform="matrix(0.461192, 0, 0, -0.461187, -7267.485471, 2578.095586)" fill="none" stroke-linejoin="miter" d="M 16263.097761 5124.11331 L 16265.096659 5124.4267 C 16265.503214 5124.61304 16266.002939 5124.72315 16266.595833 5124.72315 C 16278.995778 5126.866058 16290.201466 5135.708732 16300.001149 5151.208821 " stroke="#000033" stroke-width="1.797" stroke-opacity="1" stroke-miterlimit="10"/><path fill="#330000" d="M 279.101562 27.144531 L 288.328125 22.46875 C 296.003906 19.109375 303.535156 16.886719 310.925781 15.789062 C 334.375 12.425781 352.125 20.996094 364.175781 41.5 C 378.066406 65.300781 385.460938 78.03125 386.304688 79.6875 C 394.265625 94.6875 399.253906 107.964844 401.277344 119.519531 C 406.976562 150.316406 393.414062 177.3125 360.597656 200.519531 C 357.351562 200.46875 354.148438 199.59375 351.042969 197.882812 C 344.828125 194.488281 342.285156 188.585938 343.460938 180.214844 C 341.90625 171.164062 338.707031 164.074219 333.761719 158.917969 C 323.828125 148.738281 310.503906 153.511719 293.742188 173.253906 C 292.140625 165.960938 289.597656 157.675781 286.164062 148.410156 C 279.195312 129.945312 270.953125 115.804688 261.445312 105.960938 C 254.144531 106.09375 246.753906 105.296875 239.269531 103.539062 C 224.34375 100.125 216.292969 94.089844 215.210938 85.4375 C 215.257812 84.628906 215.398438 83.582031 215.632812 82.304688 C 216.292969 79.703125 217.234375 77.203125 218.503906 74.78125 C 222.320312 67.257812 228.488281 62.417969 237.007812 60.230469 L 238.984375 55.472656 C 240.871094 51.59375 243.175781 48.03125 245.8125 44.761719 C 254.429688 34.207031 265.539062 28.335938 279.101562 27.144531 " fill-opacity="1" fill-rule="evenodd"/><path fill="#330000" d="M 227.257812 80.851562 C 229.429688 97.660156 239.539062 109.628906 257.636719 116.789062 C 235.523438 116.488281 221.765625 105.847656 216.316406 84.832031 L 227.257812 80.851562 " fill-opacity="1" fill-rule="evenodd"/><path fill="#77390d" d="M 320.714844 169.429688 C 321.648438 171.089844 321.878906 172.945312 321.414062 175.03125 C 320.996094 177.253906 320.015625 179.128906 318.476562 180.632812 C 316.894531 182.058594 315.214844 182.722656 313.539062 182.625 C 311.8125 182.722656 310.554688 182.007812 309.714844 180.503906 C 308.785156 178.84375 308.597656 176.820312 309.0625 174.46875 C 309.4375 172.613281 310.273438 171.039062 311.625 169.714844 C 312.792969 167.957031 314.238281 166.613281 315.960938 165.667969 C 318.945312 163.679688 321.878906 163.296875 324.769531 164.527344 C 327.148438 165.570312 328.777344 167.65625 329.570312 170.769531 C 328.730469 168.96875 327.378906 167.691406 325.609375 166.945312 C 323.417969 166.128906 321.042969 166.28125 318.476562 167.359375 C 319.457031 167.839844 320.15625 168.519531 320.714844 169.429688 " fill-opacity="1" fill-rule="evenodd"/><path fill="#3a210b" d="M 226.378906 117.523438 C 239.078125 117.90625 250.210938 120.851562 259.816406 126.390625 L 260.878906 135.058594 C 252.011719 132.742188 241.527344 131.699219 229.378906 131.929688 C 226.933594 126.339844 225.960938 121.539062 226.378906 117.523438 " fill-opacity="1" fill-rule="evenodd"/><path fill="#000000" d="M 234.222656 148.976562 C 236.671875 145.910156 239.8125 144.101562 243.691406 143.589844 C 247.617188 143.109375 251.171875 144.054688 254.40625 146.425781 C 257.453125 148.925781 259.253906 152.140625 259.808594 156.070312 C 260.269531 159.996094 259.300781 163.511719 256.945312 166.578125 C 254.449219 169.792969 251.21875 171.648438 247.292969 172.117188 C 243.414062 172.648438 239.902344 171.648438 236.761719 169.132812 C 233.578125 166.777344 231.730469 163.628906 231.265625 159.703125 C 230.710938 155.773438 231.730469 152.191406 234.222656 148.976562 Z M 235.609375 150.253906 C 233.4375 153.003906 232.605469 156.105469 233.023438 159.550781 C 233.4375 162.964844 235.054688 165.699219 237.871094 167.789062 C 240.550781 169.957031 243.644531 170.820312 247.0625 170.339844 C 250.480469 169.925781 253.296875 168.335938 255.511719 165.585938 C 257.636719 162.851562 258.46875 159.765625 258.007812 156.351562 C 257.589844 152.902344 256.023438 150.136719 253.25 148.050781 C 250.480469 145.925781 247.386719 145.0625 243.96875 145.496094 C 240.503906 145.976562 237.734375 147.550781 235.609375 150.253906 " fill-opacity="1" fill-rule="evenodd"/><path fill="#ffffcc" d="M 235.390625 150.320312 C 237.515625 147.613281 240.332031 146.039062 243.746094 145.558594 C 247.164062 145.128906 250.257812 145.992188 253.074219 148.113281 C 255.796875 150.199219 257.367188 152.96875 257.828125 156.417969 C 258.246094 159.832031 257.414062 162.914062 255.335938 165.648438 C 253.121094 168.398438 250.300781 169.992188 246.886719 170.410156 C 243.421875 170.886719 240.332031 170.023438 237.652344 167.855469 C 234.835938 165.765625 233.265625 163.03125 232.804688 159.617188 C 232.390625 156.167969 233.265625 153.070312 235.390625 150.320312 " fill-opacity="1" fill-rule="evenodd"/><path fill="#3f0920" d="M 248.382812 155.65625 C 247.78125 155.375 247.507812 155.007812 247.460938 154.578125 C 247.414062 154.113281 247.550781 153.734375 248.015625 153.453125 C 248.382812 153.070312 248.890625 152.839844 249.582031 152.738281 C 250.183594 152.640625 250.78125 152.738281 251.335938 153.019531 C 251.796875 153.21875 252.074219 153.550781 252.121094 154.015625 C 252.164062 154.445312 252.027344 154.839844 251.703125 155.222656 C 251.289062 155.558594 250.734375 155.773438 250.136719 155.871094 C 249.488281 155.953125 248.890625 155.890625 248.382812 155.65625 " fill-opacity="1" fill-rule="evenodd"/><path stroke-linecap="butt" transform="matrix(0.461328, 0, 0, -0.461324, -7267.485471, 2578.095586)" fill="none" stroke-linejoin="miter" d="M 16291.800148 5251.063553 C 16292.900909 5250.563972 16294.196421 5250.420024 16295.602009 5250.597842 C 16296.897521 5250.809529 16298.099891 5251.283708 16298.997435 5252.003444 C 16299.700229 5252.833257 16299.996588 5253.688473 16299.903447 5254.619897 C 16299.801838 5255.627527 16299.200653 5256.347263 16298.2015 5256.779105 C 16296.99913 5257.388764 16295.703618 5257.600451 16294.399639 5257.388764 C 16292.900909 5257.168609 16291.800148 5256.669028 16291.004212 5255.839214 C 16289.996592 5255.229555 16289.700233 5254.408209 16289.801842 5253.400579 C 16289.90345 5252.469156 16290.496168 5251.673212 16291.800148 5251.063553 Z M 16291.800148 5251.063553 " stroke="#330000" stroke-width="0.898" stroke-opacity="1" stroke-miterlimit="10"/><g clip-path="url(#42a1b2c127)"><g clip-path="url(#5f7015a662)"><path fill="url(#2485fd42f3)" d="M 229.785156 163.011719 L 239.132812 138.53125 L 263.242188 148.382812 L 253.894531 172.863281 Z M 229.785156 163.011719 " fill-rule="nonzero"/></g></g><path fill="#330033" d="M 241.90625 162.398438 C 240.152344 161.070312 239.136719 159.3125 238.769531 157.144531 C 238.398438 154.957031 238.859375 153 240.152344 151.242188 C 241.398438 149.585938 243.105469 148.625 245.230469 148.339844 C 247.398438 148.042969 249.382812 148.542969 251.042969 149.816406 C 252.84375 151.191406 253.90625 152.96875 254.273438 155.15625 C 254.597656 157.324219 254.136719 159.269531 252.84375 160.972656 C 251.597656 162.679688 249.890625 163.675781 247.722656 163.957031 C 245.597656 164.238281 243.660156 163.726562 241.90625 162.398438 " fill-opacity="1" fill-rule="evenodd"/><path fill="#000000" d="M 242.433594 160.597656 C 241.1875 159.703125 240.402344 158.476562 240.078125 156.917969 C 239.847656 155.34375 240.265625 153.949219 241.234375 152.722656 C 242.246094 151.496094 243.539062 150.785156 245.152344 150.589844 C 246.769531 150.355469 248.246094 150.703125 249.628906 151.667969 C 250.875 152.609375 251.660156 153.855469 251.890625 155.425781 C 252.167969 156.988281 251.796875 158.359375 250.828125 159.539062 C 249.8125 160.765625 248.523438 161.492188 246.90625 161.742188 C 245.292969 161.921875 243.816406 161.542969 242.433594 160.597656 " fill-opacity="1" fill-rule="evenodd"/><path stroke-linecap="butt" transform="matrix(0.461328, 0, 0, -0.461324, -7267.485471, 2578.095586)" fill="none" stroke-linejoin="miter" d="M 16278.904301 5240.352186 C 16281.90176 5238.303054 16285.102436 5237.481708 16288.599471 5237.871213 C 16292.096506 5238.413132 16294.899215 5239.988084 16297.100738 5242.646874 C 16299.200653 5245.195587 16300.005056 5248.176141 16299.40387 5251.563135 C 16298.904294 5254.967063 16297.202347 5257.668191 16294.501247 5259.708855 C 16291.503789 5261.800323 16288.303112 5262.553929 16284.79761 5262.04588 C 16281.300575 5261.622506 16278.497866 5260.081424 16276.296343 5257.422634 C 16274.196428 5254.763844 16273.298884 5251.740952 16273.79846 5248.328556 C 16274.501254 5244.95003 16276.203201 5242.291239 16278.895834 5240.352186 Z M 16278.904301 5240.352186 " stroke="#330000" stroke-width="0.359" stroke-opacity="1" stroke-miterlimit="10"/><path fill="#ffffff" d="M 242.292969 151.730469 C 242.753906 152.394531 242.84375 153.039062 242.660156 153.652344 C 242.476562 154.214844 242.015625 154.5625 241.234375 154.710938 C 240.542969 154.863281 239.757812 154.730469 238.882812 154.367188 C 238.054688 153.984375 237.363281 153.433594 236.902344 152.726562 C 236.441406 152.0625 236.304688 151.449219 236.488281 150.882812 C 236.71875 150.300781 237.222656 149.96875 237.960938 149.886719 C 238.746094 149.6875 239.574219 149.773438 240.449219 150.105469 C 241.234375 150.46875 241.878906 151.015625 242.292969 151.730469 " fill-opacity="1" fill-rule="evenodd"/><path fill="#ffffff" d="M 239.167969 158.851562 C 238.890625 158.714844 238.707031 158.5 238.660156 158.21875 C 238.617188 157.9375 238.707031 157.65625 238.9375 157.359375 C 239.167969 157.121094 239.492188 156.992188 239.90625 156.941406 C 240.273438 156.890625 240.597656 156.941406 240.871094 157.078125 C 241.148438 157.324219 241.332031 157.574219 241.378906 157.855469 C 241.425781 158.15625 241.332031 158.386719 241.101562 158.566406 C 240.828125 158.851562 240.550781 159.015625 240.183594 159.0625 C 239.765625 159.113281 239.445312 159.046875 239.167969 158.851562 " fill-opacity="1" fill-rule="evenodd"/><path fill="#ffffff" d="M 251.441406 153.175781 C 251.070312 152.84375 250.839844 152.398438 250.75 151.820312 C 250.65625 151.304688 250.75 150.824219 251.023438 150.40625 C 251.300781 149.980469 251.71875 149.714844 252.226562 149.628906 C 252.730469 149.582031 253.148438 149.714844 253.515625 150.042969 C 253.933594 150.375 254.210938 150.808594 254.300781 151.320312 C 254.394531 151.902344 254.253906 152.398438 253.933594 152.8125 C 253.703125 153.242188 253.332031 153.476562 252.871094 153.527344 C 252.363281 153.625 251.902344 153.507812 251.441406 153.175781 " fill-opacity="1" fill-rule="evenodd"/></svg>