<svg xmlns="http://www.w3.org/2000/svg" xmlns:xlink="http://www.w3.org/1999/xlink" width="1080" zoomAndPan="magnify" viewBox="0 0 810 809.999993" height="1080" preserveAspectRatio="xMidYMid meet" version="1.0"><defs><clipPath id="c37d0e21bf"><path d="M 199 143 L 219 143 L 219 163 L 199 163 Z M 199 143 " clip-rule="nonzero"/></clipPath><clipPath id="80465279b4"><path d="M 207.53125 143.496094 C 210.167969 143.175781 212.570312 143.832031 214.75 145.476562 C 216.96875 147.121094 218.292969 149.304688 218.695312 151.992188 C 219.132812 154.628906 218.546875 157.03125 216.933594 159.144531 C 215.320312 161.277344 213.207031 162.503906 210.570312 162.839844 C 207.867188 163.15625 205.449219 162.503906 203.28125 160.839844 C 201.101562 159.195312 199.808594 157.046875 199.371094 154.394531 C 198.933594 151.707031 199.523438 149.304688 201.082031 147.171875 C 202.679688 145.058594 204.828125 143.832031 207.53125 143.496094 " clip-rule="evenodd"/></clipPath><radialGradient gradientTransform="matrix(0.936477, 0.382713, 0.352527, -0.92333, 249.558591, 115.705889)" gradientUnits="userSpaceOnUse" r="13.669532" cx="0" id="37b5154897" cy="0" fx="0" fy="0"><stop stop-opacity="1" stop-color="rgb(57.446289%, 2.047729%, 2.165222%)" offset="0"/><stop stop-opacity="1" stop-color="rgb(57.215881%, 2.120972%, 2.415466%)" offset="0.0078125"/><stop stop-opacity="1" stop-color="rgb(57.063293%, 2.1698%, 2.581787%)" offset="0.0117188"/><stop stop-opacity="1" stop-color="rgb(56.90918%, 2.218628%, 2.749634%)" offset="0.015625"/><stop stop-opacity="1" stop-color="rgb(56.756592%, 2.267456%, 2.915955%)" offset="0.0195312"/><stop stop-opacity="1" stop-color="rgb(56.604004%, 2.316284%, 3.082275%)" offset="0.0234375"/><stop stop-opacity="1" stop-color="rgb(56.44989%, 2.365112%, 3.250122%)" offset="0.0273438"/><stop stop-opacity="1" stop-color="rgb(56.297302%, 2.41394%, 3.416443%)" offset="0.03125"/><stop stop-opacity="1" stop-color="rgb(56.144714%, 2.462769%, 3.582764%)" offset="0.0351562"/><stop stop-opacity="1" stop-color="rgb(55.990601%, 2.511597%, 3.75061%)" offset="0.0390625"/><stop stop-opacity="1" stop-color="rgb(55.838013%, 2.560425%, 3.916931%)" offset="0.0429688"/><stop stop-opacity="1" stop-color="rgb(55.685425%, 2.609253%, 4.083252%)" offset="0.046875"/><stop stop-opacity="1" stop-color="rgb(55.531311%, 2.658081%, 4.251099%)" offset="0.0507812"/><stop stop-opacity="1" stop-color="rgb(55.378723%, 2.706909%, 4.417419%)" offset="0.0546875"/><stop stop-opacity="1" stop-color="rgb(55.226135%, 2.755737%, 4.58374%)" offset="0.0585938"/><stop stop-opacity="1" stop-color="rgb(55.072021%, 2.804565%, 4.751587%)" offset="0.0625"/><stop stop-opacity="1" stop-color="rgb(54.919434%, 2.853394%, 4.917908%)" offset="0.0664062"/><stop stop-opacity="1" stop-color="rgb(54.766846%, 2.902222%, 5.084229%)" offset="0.0703125"/><stop stop-opacity="1" stop-color="rgb(54.612732%, 2.95105%, 5.250549%)" offset="0.0742188"/><stop stop-opacity="1" stop-color="rgb(54.460144%, 2.999878%, 5.418396%)" offset="0.078125"/><stop stop-opacity="1" stop-color="rgb(54.30603%, 3.048706%, 5.584717%)" offset="0.0820312"/><stop stop-opacity="1" stop-color="rgb(54.153442%, 3.097534%, 5.751038%)" offset="0.0859375"/><stop stop-opacity="1" stop-color="rgb(54.000854%, 3.146362%, 5.918884%)" offset="0.0898438"/><stop stop-opacity="1" stop-color="rgb(53.846741%, 3.19519%, 6.085205%)" offset="0.09375"/><stop stop-opacity="1" stop-color="rgb(53.694153%, 3.244019%, 6.251526%)" offset="0.0976562"/><stop stop-opacity="1" stop-color="rgb(53.541565%, 3.292847%, 6.419373%)" offset="0.101562"/><stop stop-opacity="1" stop-color="rgb(53.387451%, 3.341675%, 6.585693%)" offset="0.105469"/><stop stop-opacity="1" stop-color="rgb(53.234863%, 3.390503%, 6.752014%)" offset="0.109375"/><stop stop-opacity="1" stop-color="rgb(53.082275%, 3.439331%, 6.919861%)" offset="0.113281"/><stop stop-opacity="1" stop-color="rgb(52.928162%, 3.488159%, 7.086182%)" offset="0.117188"/><stop stop-opacity="1" stop-color="rgb(52.775574%, 3.536987%, 7.252502%)" offset="0.121094"/><stop stop-opacity="1" stop-color="rgb(52.622986%, 3.585815%, 7.420349%)" offset="0.125"/><stop stop-opacity="1" stop-color="rgb(52.468872%, 3.634644%, 7.58667%)" offset="0.128906"/><stop stop-opacity="1" stop-color="rgb(52.316284%, 3.683472%, 7.752991%)" offset="0.132812"/><stop stop-opacity="1" stop-color="rgb(52.163696%, 3.7323%, 7.919312%)" offset="0.136719"/><stop stop-opacity="1" stop-color="rgb(52.009583%, 3.781128%, 8.087158%)" offset="0.140625"/><stop stop-opacity="1" stop-color="rgb(51.856995%, 3.829956%, 8.253479%)" offset="0.144531"/><stop stop-opacity="1" stop-color="rgb(51.704407%, 3.878784%, 8.4198%)" offset="0.148438"/><stop stop-opacity="1" stop-color="rgb(51.550293%, 3.927612%, 8.587646%)" offset="0.152344"/><stop stop-opacity="1" stop-color="rgb(51.397705%, 3.97644%, 8.753967%)" offset="0.15625"/><stop stop-opacity="1" stop-color="rgb(51.243591%, 4.025269%, 8.920288%)" offset="0.160156"/><stop stop-opacity="1" stop-color="rgb(51.091003%, 4.074097%, 9.088135%)" offset="0.164062"/><stop stop-opacity="1" stop-color="rgb(50.938416%, 4.122925%, 9.254456%)" offset="0.167969"/><stop stop-opacity="1" stop-color="rgb(50.784302%, 4.171753%, 9.420776%)" offset="0.171875"/><stop stop-opacity="1" stop-color="rgb(50.631714%, 4.220581%, 9.588623%)" offset="0.175781"/><stop stop-opacity="1" stop-color="rgb(50.479126%, 4.269409%, 9.754944%)" offset="0.179688"/><stop stop-opacity="1" stop-color="rgb(50.325012%, 4.318237%, 9.921265%)" offset="0.183594"/><stop stop-opacity="1" stop-color="rgb(50.172424%, 4.367065%, 10.089111%)" offset="0.1875"/><stop stop-opacity="1" stop-color="rgb(50.019836%, 4.415894%, 10.255432%)" offset="0.191406"/><stop stop-opacity="1" stop-color="rgb(49.865723%, 4.464722%, 10.421753%)" offset="0.195312"/><stop stop-opacity="1" stop-color="rgb(49.713135%, 4.51355%, 10.588074%)" offset="0.199219"/><stop stop-opacity="1" stop-color="rgb(49.560547%, 4.562378%, 10.75592%)" offset="0.203125"/><stop stop-opacity="1" stop-color="rgb(49.406433%, 4.611206%, 10.922241%)" offset="0.207031"/><stop stop-opacity="1" stop-color="rgb(49.253845%, 4.660034%, 11.088562%)" offset="0.210938"/><stop stop-opacity="1" stop-color="rgb(49.101257%, 4.708862%, 11.256409%)" offset="0.214844"/><stop stop-opacity="1" stop-color="rgb(48.947144%, 4.75769%, 11.422729%)" offset="0.21875"/><stop stop-opacity="1" stop-color="rgb(48.794556%, 4.806519%, 11.58905%)" offset="0.222656"/><stop stop-opacity="1" stop-color="rgb(48.640442%, 4.855347%, 11.756897%)" offset="0.226562"/><stop stop-opacity="1" stop-color="rgb(48.487854%, 4.904175%, 11.923218%)" offset="0.230469"/><stop stop-opacity="1" stop-color="rgb(48.335266%, 4.953003%, 12.089539%)" offset="0.234375"/><stop stop-opacity="1" stop-color="rgb(48.181152%, 5.001831%, 12.257385%)" offset="0.238281"/><stop stop-opacity="1" stop-color="rgb(48.028564%, 5.050659%, 12.423706%)" offset="0.242188"/><stop stop-opacity="1" stop-color="rgb(47.875977%, 5.099487%, 12.590027%)" offset="0.246094"/><stop stop-opacity="1" stop-color="rgb(47.721863%, 5.148315%, 12.757874%)" offset="0.25"/><stop stop-opacity="1" stop-color="rgb(47.492981%, 5.221558%, 13.008118%)" offset="0.253906"/><stop stop-opacity="1" stop-color="rgb(47.186279%, 5.319214%, 13.340759%)" offset="0.261719"/><stop stop-opacity="1" stop-color="rgb(46.879578%, 5.41687%, 13.674927%)" offset="0.269531"/><stop stop-opacity="1" stop-color="rgb(46.574402%, 5.514526%, 14.007568%)" offset="0.277344"/><stop stop-opacity="1" stop-color="rgb(46.2677%, 5.612183%, 14.341736%)" offset="0.285156"/><stop stop-opacity="1" stop-color="rgb(45.960999%, 5.709839%, 14.675903%)" offset="0.292969"/><stop stop-opacity="1" stop-color="rgb(45.654297%, 5.807495%, 15.008545%)" offset="0.300781"/><stop stop-opacity="1" stop-color="rgb(45.349121%, 5.905151%, 15.342712%)" offset="0.308594"/><stop stop-opacity="1" stop-color="rgb(45.042419%, 6.002808%, 15.675354%)" offset="0.316406"/><stop stop-opacity="1" stop-color="rgb(44.735718%, 6.100464%, 16.009521%)" offset="0.324219"/><stop stop-opacity="1" stop-color="rgb(44.430542%, 6.19812%, 16.343689%)" offset="0.332031"/><stop stop-opacity="1" stop-color="rgb(44.12384%, 6.295776%, 16.676331%)" offset="0.339844"/><stop stop-opacity="1" stop-color="rgb(43.817139%, 6.393433%, 17.010498%)" offset="0.347656"/><stop stop-opacity="1" stop-color="rgb(43.511963%, 6.491089%, 17.344666%)" offset="0.355469"/><stop stop-opacity="1" stop-color="rgb(43.205261%, 6.588745%, 17.677307%)" offset="0.363281"/><stop stop-opacity="1" stop-color="rgb(42.89856%, 6.686401%, 18.011475%)" offset="0.371094"/><stop stop-opacity="1" stop-color="rgb(42.591858%, 6.784058%, 18.344116%)" offset="0.378906"/><stop stop-opacity="1" stop-color="rgb(42.286682%, 6.881714%, 18.678284%)" offset="0.386719"/><stop stop-opacity="1" stop-color="rgb(41.97998%, 6.97937%, 19.012451%)" offset="0.394531"/><stop stop-opacity="1" stop-color="rgb(41.673279%, 7.077026%, 19.345093%)" offset="0.402344"/><stop stop-opacity="1" stop-color="rgb(41.368103%, 7.174683%, 19.67926%)" offset="0.410156"/><stop stop-opacity="1" stop-color="rgb(41.061401%, 7.272339%, 20.013428%)" offset="0.417969"/><stop stop-opacity="1" stop-color="rgb(40.7547%, 7.369995%, 20.346069%)" offset="0.425781"/><stop stop-opacity="1" stop-color="rgb(40.447998%, 7.467651%, 20.680237%)" offset="0.433594"/><stop stop-opacity="1" stop-color="rgb(40.142822%, 7.565308%, 21.012878%)" offset="0.441406"/><stop stop-opacity="1" stop-color="rgb(39.836121%, 7.662964%, 21.347046%)" offset="0.449219"/><stop stop-opacity="1" stop-color="rgb(39.529419%, 7.76062%, 21.681213%)" offset="0.457031"/><stop stop-opacity="1" stop-color="rgb(39.224243%, 7.858276%, 22.013855%)" offset="0.464844"/><stop stop-opacity="1" stop-color="rgb(38.917542%, 7.955933%, 22.348022%)" offset="0.472656"/><stop stop-opacity="1" stop-color="rgb(38.61084%, 8.053589%, 22.68219%)" offset="0.480469"/><stop stop-opacity="1" stop-color="rgb(38.305664%, 8.151245%, 23.014832%)" offset="0.488281"/><stop stop-opacity="1" stop-color="rgb(37.998962%, 8.248901%, 23.348999%)" offset="0.496094"/><stop stop-opacity="1" stop-color="rgb(37.768555%, 8.322144%, 23.599243%)" offset="0.503906"/><stop stop-opacity="1" stop-color="rgb(37.615967%, 8.370972%, 23.765564%)" offset="0.507812"/><stop stop-opacity="1" stop-color="rgb(37.463379%, 8.4198%, 23.931885%)" offset="0.511719"/><stop stop-opacity="1" stop-color="rgb(37.309265%, 8.468628%, 24.099731%)" offset="0.515625"/><stop stop-opacity="1" stop-color="rgb(37.156677%, 8.517456%, 24.266052%)" offset="0.519531"/><stop stop-opacity="1" stop-color="rgb(37.004089%, 8.566284%, 24.432373%)" offset="0.523438"/><stop stop-opacity="1" stop-color="rgb(36.849976%, 8.615112%, 24.60022%)" offset="0.527344"/><stop stop-opacity="1" stop-color="rgb(36.697388%, 8.66394%, 24.766541%)" offset="0.53125"/><stop stop-opacity="1" stop-color="rgb(36.5448%, 8.712769%, 24.932861%)" offset="0.535156"/><stop stop-opacity="1" stop-color="rgb(36.390686%, 8.761597%, 25.100708%)" offset="0.539062"/><stop stop-opacity="1" stop-color="rgb(36.238098%, 8.810425%, 25.267029%)" offset="0.542969"/><stop stop-opacity="1" stop-color="rgb(36.08551%, 8.859253%, 25.43335%)" offset="0.546875"/><stop stop-opacity="1" stop-color="rgb(35.931396%, 8.908081%, 25.601196%)" offset="0.550781"/><stop stop-opacity="1" stop-color="rgb(35.778809%, 8.956909%, 25.767517%)" offset="0.554688"/><stop stop-opacity="1" stop-color="rgb(35.626221%, 9.005737%, 25.933838%)" offset="0.558594"/><stop stop-opacity="1" stop-color="rgb(35.472107%, 9.054565%, 26.100159%)" offset="0.5625"/><stop stop-opacity="1" stop-color="rgb(35.319519%, 9.103394%, 26.268005%)" offset="0.566406"/><stop stop-opacity="1" stop-color="rgb(35.165405%, 9.152222%, 26.434326%)" offset="0.570312"/><stop stop-opacity="1" stop-color="rgb(35.012817%, 9.20105%, 26.600647%)" offset="0.574219"/><stop stop-opacity="1" stop-color="rgb(34.860229%, 9.249878%, 26.768494%)" offset="0.578125"/><stop stop-opacity="1" stop-color="rgb(34.706116%, 9.298706%, 26.934814%)" offset="0.582031"/><stop stop-opacity="1" stop-color="rgb(34.553528%, 9.347534%, 27.101135%)" offset="0.585938"/><stop stop-opacity="1" stop-color="rgb(34.40094%, 9.396362%, 27.268982%)" offset="0.589844"/><stop stop-opacity="1" stop-color="rgb(34.246826%, 9.44519%, 27.435303%)" offset="0.59375"/><stop stop-opacity="1" stop-color="rgb(34.094238%, 9.494019%, 27.601624%)" offset="0.597656"/><stop stop-opacity="1" stop-color="rgb(33.94165%, 9.542847%, 27.76947%)" offset="0.601562"/><stop stop-opacity="1" stop-color="rgb(33.787537%, 9.591675%, 27.935791%)" offset="0.605469"/><stop stop-opacity="1" stop-color="rgb(33.634949%, 9.640503%, 28.102112%)" offset="0.609375"/><stop stop-opacity="1" stop-color="rgb(33.482361%, 9.689331%, 28.269958%)" offset="0.613281"/><stop stop-opacity="1" stop-color="rgb(33.328247%, 9.738159%, 28.436279%)" offset="0.617188"/><stop stop-opacity="1" stop-color="rgb(33.175659%, 9.786987%, 28.6026%)" offset="0.621094"/><stop stop-opacity="1" stop-color="rgb(33.023071%, 9.835815%, 28.768921%)" offset="0.625"/><stop stop-opacity="1" stop-color="rgb(32.792664%, 9.909058%, 29.019165%)" offset="0.628906"/><stop stop-opacity="1" stop-color="rgb(32.485962%, 10.006714%, 29.353333%)" offset="0.636719"/><stop stop-opacity="1" stop-color="rgb(32.17926%, 10.10437%, 29.6875%)" offset="0.644531"/><stop stop-opacity="1" stop-color="rgb(31.874084%, 10.202026%, 30.020142%)" offset="0.652344"/><stop stop-opacity="1" stop-color="rgb(31.567383%, 10.299683%, 30.354309%)" offset="0.660156"/><stop stop-opacity="1" stop-color="rgb(31.260681%, 10.397339%, 30.688477%)" offset="0.667969"/><stop stop-opacity="1" stop-color="rgb(30.955505%, 10.494995%, 31.021118%)" offset="0.675781"/><stop stop-opacity="1" stop-color="rgb(30.648804%, 10.592651%, 31.355286%)" offset="0.683594"/><stop stop-opacity="1" stop-color="rgb(30.342102%, 10.690308%, 31.687927%)" offset="0.691406"/><stop stop-opacity="1" stop-color="rgb(30.036926%, 10.787964%, 32.022095%)" offset="0.699219"/><stop stop-opacity="1" stop-color="rgb(29.730225%, 10.88562%, 32.356262%)" offset="0.707031"/><stop stop-opacity="1" stop-color="rgb(29.423523%, 10.983276%, 32.688904%)" offset="0.714844"/><stop stop-opacity="1" stop-color="rgb(29.116821%, 11.080933%, 33.023071%)" offset="0.722656"/><stop stop-opacity="1" stop-color="rgb(28.811646%, 11.178589%, 33.357239%)" offset="0.730469"/><stop stop-opacity="1" stop-color="rgb(28.504944%, 11.276245%, 33.68988%)" offset="0.738281"/><stop stop-opacity="1" stop-color="rgb(28.198242%, 11.373901%, 34.024048%)" offset="0.746094"/><stop stop-opacity="1" stop-color="rgb(27.96936%, 11.447144%, 34.274292%)" offset="0.753906"/><stop stop-opacity="1" stop-color="rgb(27.816772%, 11.495972%, 34.440613%)" offset="0.757812"/><stop stop-opacity="1" stop-color="rgb(27.662659%, 11.5448%, 34.606934%)" offset="0.761719"/><stop stop-opacity="1" stop-color="rgb(27.510071%, 11.593628%, 34.77478%)" offset="0.765625"/><stop stop-opacity="1" stop-color="rgb(27.357483%, 11.642456%, 34.941101%)" offset="0.769531"/><stop stop-opacity="1" stop-color="rgb(27.203369%, 11.691284%, 35.107422%)" offset="0.773438"/><stop stop-opacity="1" stop-color="rgb(27.050781%, 11.740112%, 35.275269%)" offset="0.777344"/><stop stop-opacity="1" stop-color="rgb(26.896667%, 11.78894%, 35.441589%)" offset="0.78125"/><stop stop-opacity="1" stop-color="rgb(26.74408%, 11.837769%, 35.60791%)" offset="0.785156"/><stop stop-opacity="1" stop-color="rgb(26.591492%, 11.886597%, 35.775757%)" offset="0.789062"/><stop stop-opacity="1" stop-color="rgb(26.437378%, 11.935425%, 35.942078%)" offset="0.792969"/><stop stop-opacity="1" stop-color="rgb(26.28479%, 11.984253%, 36.108398%)" offset="0.796875"/><stop stop-opacity="1" stop-color="rgb(26.132202%, 12.033081%, 36.274719%)" offset="0.800781"/><stop stop-opacity="1" stop-color="rgb(25.978088%, 12.081909%, 36.442566%)" offset="0.804688"/><stop stop-opacity="1" stop-color="rgb(25.8255%, 12.130737%, 36.608887%)" offset="0.808594"/><stop stop-opacity="1" stop-color="rgb(25.672913%, 12.179565%, 36.775208%)" offset="0.8125"/><stop stop-opacity="1" stop-color="rgb(25.442505%, 12.252808%, 37.025452%)" offset="0.816406"/><stop stop-opacity="1" stop-color="rgb(25.135803%, 12.350464%, 37.359619%)" offset="0.824219"/><stop stop-opacity="1" stop-color="rgb(24.830627%, 12.44812%, 37.693787%)" offset="0.832031"/><stop stop-opacity="1" stop-color="rgb(24.523926%, 12.545776%, 38.026428%)" offset="0.839844"/><stop stop-opacity="1" stop-color="rgb(24.217224%, 12.643433%, 38.360596%)" offset="0.847656"/><stop stop-opacity="1" stop-color="rgb(23.910522%, 12.741089%, 38.694763%)" offset="0.855469"/><stop stop-opacity="1" stop-color="rgb(23.605347%, 12.838745%, 39.027405%)" offset="0.863281"/><stop stop-opacity="1" stop-color="rgb(23.298645%, 12.936401%, 39.361572%)" offset="0.871094"/><stop stop-opacity="1" stop-color="rgb(23.069763%, 13.009644%, 39.611816%)" offset="0.878906"/><stop stop-opacity="1" stop-color="rgb(22.915649%, 13.058472%, 39.778137%)" offset="0.882812"/><stop stop-opacity="1" stop-color="rgb(22.763062%, 13.1073%, 39.944458%)" offset="0.886719"/><stop stop-opacity="1" stop-color="rgb(22.610474%, 13.156128%, 40.112305%)" offset="0.890625"/><stop stop-opacity="1" stop-color="rgb(22.45636%, 13.204956%, 40.278625%)" offset="0.894531"/><stop stop-opacity="1" stop-color="rgb(22.303772%, 13.253784%, 40.444946%)" offset="0.898438"/><stop stop-opacity="1" stop-color="rgb(22.151184%, 13.302612%, 40.612793%)" offset="0.902344"/><stop stop-opacity="1" stop-color="rgb(21.99707%, 13.35144%, 40.779114%)" offset="0.90625"/><stop stop-opacity="1" stop-color="rgb(21.768188%, 13.424683%, 41.029358%)" offset="0.910156"/><stop stop-opacity="1" stop-color="rgb(21.461487%, 13.522339%, 41.363525%)" offset="0.917969"/><stop stop-opacity="1" stop-color="rgb(21.154785%, 13.619995%, 41.696167%)" offset="0.925781"/><stop stop-opacity="1" stop-color="rgb(20.848083%, 13.717651%, 42.030334%)" offset="0.933594"/><stop stop-opacity="1" stop-color="rgb(20.619202%, 13.790894%, 42.280579%)" offset="0.941406"/><stop stop-opacity="1" stop-color="rgb(20.466614%, 13.839722%, 42.446899%)" offset="0.945312"/><stop stop-opacity="1" stop-color="rgb(20.3125%, 13.88855%, 42.61322%)" offset="0.949219"/><stop stop-opacity="1" stop-color="rgb(20.159912%, 13.937378%, 42.781067%)" offset="0.953125"/><stop stop-opacity="1" stop-color="rgb(19.929504%, 14.01062%, 43.031311%)" offset="0.957031"/><stop stop-opacity="1" stop-color="rgb(19.624329%, 14.108276%, 43.363953%)" offset="0.964844"/><stop stop-opacity="1" stop-color="rgb(19.393921%, 14.181519%, 43.614197%)" offset="0.972656"/><stop stop-opacity="1" stop-color="rgb(19.241333%, 14.230347%, 43.782043%)" offset="0.976562"/><stop stop-opacity="1" stop-color="rgb(19.010925%, 14.303589%, 44.032288%)" offset="0.980469"/><stop stop-opacity="1" stop-color="rgb(18.782043%, 14.376831%, 44.281006%)" offset="0.988281"/><stop stop-opacity="1" stop-color="rgb(18.551636%, 14.450073%, 44.53125%)" offset="0.992188"/><stop stop-opacity="1" stop-color="rgb(18.399048%, 14.498901%, 44.699097%)" offset="1"/></radialGradient></defs><rect x="-81" width="972" fill="#697a7a" y="-80.999999" height="971.999992" fill-opacity="1"/><path stroke-linecap="butt" transform="matrix(0.189317, 0, 0, -0.189321, -2517.787838, 2586.955666)" fill="none" stroke-linejoin="miter" d="M 16087.096504 10724.199463 L 16299.992257 10732.80339 " stroke="#000000" stroke-width="0.874" stroke-opacity="1" stroke-miterlimit="10"/><path fill="#f89865" d="M 483.632812 526.777344 C 491.046875 520.433594 500.617188 514.523438 512.328125 509.003906 C 512.644531 509.753906 517.035156 516.265625 525.480469 528.539062 C 531.675781 537.605469 535.972656 543.816406 538.390625 547.15625 C 540.980469 569.019531 537.960938 590.015625 529.328125 610.132812 C 528.277344 610.320312 527.171875 610.472656 525.988281 610.566406 C 524.863281 610.566406 523.753906 610.492188 522.667969 610.359375 C 521.710938 610.152344 520.847656 609.945312 520.039062 609.703125 C 516.792969 608.820312 513.207031 607.488281 509.34375 605.742188 C 508.40625 605.273438 507.464844 604.785156 506.527344 604.242188 L 505.589844 603.773438 C 505.363281 603.621094 505.160156 603.527344 505.027344 603.472656 C 500.148438 600.414062 496.09375 597.449219 492.847656 594.613281 C 490.914062 592.792969 489.265625 591.011719 487.949219 589.324219 C 485.546875 586 479.695312 578.175781 470.386719 565.789062 C 467.796875 562.054688 464.886719 558.078125 461.679688 553.835938 C 462.671875 552.070312 463.707031 550.402344 464.792969 548.808594 C 470.460938 540.0625 476.730469 532.726562 483.632812 526.777344 " fill-opacity="1" fill-rule="evenodd"/><path fill="#008395" d="M 452.402344 492.445312 C 457.925781 482.890625 467.3125 477.070312 480.523438 474.941406 C 486.476562 473.953125 494.054688 473.765625 503.253906 474.382812 C 512.136719 494.589844 518.984375 507.113281 523.796875 511.984375 C 523.609375 512.785156 523.347656 513.605469 523.015625 514.464844 C 522.304688 517.152344 521.351562 519.894531 520.121094 522.675781 C 517.339844 529.300781 513.738281 536.371094 509.355469 543.929688 C 503.53125 554.082031 496.945312 562.328125 489.519531 568.636719 C 488.714844 569.34375 487.859375 570.09375 486.960938 570.839844 C 483.285156 573.488281 479.964844 575.539062 476.980469 577.015625 C 474.722656 578.003906 472.574219 578.507812 470.523438 578.5625 C 468.507812 576.304688 465.800781 573.113281 462.386719 569.007812 C 459.195312 565.089844 449.25 553.894531 432.585938 535.4375 C 434.230469 530.082031 436.917969 523.402344 440.648438 515.304688 C 441.023438 514.558594 441.375 513.8125 441.710938 513.121094 C 445.386719 505.414062 448.972656 498.527344 452.402344 492.445312 " fill-opacity="1" fill-rule="evenodd"/><path fill="#f89865" d="M 366.238281 573.507812 L 366.3125 573.140625 L 367.367188 565.28125 C 369.261719 550.539062 376.6875 537.070312 389.699219 524.820312 L 440.675781 557.835938 C 439.113281 567.664062 438.347656 575.4375 438.347656 581.132812 C 438.292969 586.992188 440.566406 596.859375 445.136719 610.761719 C 448.121094 618.625 448.792969 630.636719 447.191406 646.726562 C 446.117188 655.5 445.207031 661.886719 444.515625 665.855469 C 443.699219 669.769531 442.097656 677.777344 439.675781 689.859375 C 437.128906 701.964844 436.582031 712.484375 438 721.457031 L 432.542969 720.800781 C 429.046875 720.675781 422.113281 718.707031 411.792969 714.941406 C 404.039062 712.011719 398.199219 709.808594 394.230469 708.335938 C 393.230469 685.457031 388.371094 658.410156 379.617188 627.253906 C 374.628906 610.214844 371.226562 598.476562 369.441406 592.050781 C 368.859375 589.976562 368.367188 588.101562 367.949219 586.445312 L 366.3125 573.6875 L 366.238281 573.507812 " fill-opacity="1" fill-rule="evenodd"/><path fill="#fadeca" d="M 366.238281 573.503906 L 366.238281 573.414062 L 366.3125 573.132812 L 366.238281 573.503906 " fill-opacity="1" fill-rule="evenodd"/><path fill="#ebae89" d="M 394.417969 711.734375 C 396.027344 712.859375 396.027344 712.914062 394.417969 711.878906 L 394.417969 711.734375 " fill-opacity="1" fill-rule="evenodd"/><path stroke-linecap="butt" transform="matrix(0.178663, 0, 0, -0.178667, -2517.787838, 2586.955666)" fill="none" stroke-linejoin="miter" d="M 16299.994035 10495.601952 L 16299.994035 10494.79301 " stroke="#000000" stroke-width="0.926" stroke-opacity="1" stroke-miterlimit="10"/><path fill="#00a5bb" d="M 471.792969 396.976562 C 476.316406 399.714844 480.621094 402.882812 484.664062 406.460938 C 492.1875 412.941406 498.910156 420.578125 504.855469 429.351562 C 513.160156 442 517.574219 453.921875 518.117188 465.042969 C 518.339844 469.289062 517.890625 473.515625 516.757812 477.652344 C 516.289062 479.496094 515.75 481.265625 515.136719 482.960938 C 514.035156 486.128906 512.660156 489.292969 510.945312 492.460938 C 510.105469 494.117188 509.175781 495.71875 508.1875 497.265625 C 505.488281 500.804688 502.933594 504.4375 500.53125 508.105469 C 492.652344 520.402344 486.265625 532.378906 481.347656 544.09375 C 478.496094 550.464844 476.207031 556.535156 474.398438 562.292969 C 473.28125 565.738281 472.292969 569.035156 471.492188 572.128906 C 465.347656 576.429688 457.503906 578.589844 447.914062 578.589844 C 443.050781 578.683594 437.519531 578.257812 431.335938 577.304688 C 430.160156 577.027344 428.96875 576.804688 427.796875 576.597656 C 423.679688 575.835938 419.300781 574.882812 414.628906 573.691406 C 402.761719 570.582031 391.363281 566.671875 380.335938 562.011719 C 374.355469 559.3125 369.085938 557.097656 364.539062 555.34375 C 362.175781 554.265625 359.996094 553.316406 357.964844 552.53125 C 362.269531 548.265625 366.179688 542.082031 369.71875 533.960938 C 371.097656 530.105469 372.382812 526.378906 373.613281 522.839844 C 376.742188 514.160156 379.515625 506.820312 381.976562 500.804688 C 377.167969 496 371.023438 490.542969 363.554688 484.449219 C 362.230469 483.277344 360.816406 482.121094 359.304688 480.984375 L 359.304688 451.386719 C 371.917969 443.339844 386.148438 436.765625 402.015625 431.625 C 411.890625 428.421875 426.773438 421.230469 446.703125 410.09375 C 449.011719 408.769531 451.265625 407.558594 453.425781 406.460938 C 460.523438 402.546875 466.632812 399.382812 471.792969 396.976562 " fill-opacity="1" fill-rule="evenodd"/><path fill="#b02222" d="M 255.984375 380.273438 C 256.085938 380.046875 256.296875 379.71875 256.625 379.285156 C 258.320312 376.6875 259.464844 374.46875 260.019531 372.617188 C 260.210938 371.871094 260.382812 370.558594 260.519531 368.652344 C 260.660156 367.90625 260.78125 367.074219 260.882812 366.175781 C 261.003906 365.65625 261.074219 365.050781 261.074219 364.410156 C 261.28125 361.847656 261.316406 358.902344 261.230469 355.542969 C 261.128906 352.5625 260.917969 349.257812 260.574219 345.566406 C 260.398438 342.554688 260.089844 339.300781 259.671875 335.785156 C 258.390625 326.953125 256.816406 319.503906 254.925781 313.410156 C 253.976562 310.621094 252.902344 308.058594 251.742188 305.6875 C 251.222656 304.457031 250.597656 303.332031 249.90625 302.273438 C 248.191406 299.78125 246.425781 297.859375 244.570312 296.542969 L 244.382812 296.40625 C 243.464844 295.851562 242.617188 295.640625 241.820312 295.851562 C 241.402344 295.851562 240.570312 295.972656 239.324219 296.195312 L 239.550781 296.128906 C 243.898438 294.429688 248.484375 291.761719 253.367188 288.125 C 254.980469 286.933594 256.625 285.617188 258.320312 284.160156 C 260.453125 282.308594 262.617188 280.300781 264.832031 278.132812 C 268.519531 274.308594 273.992188 267.832031 281.265625 258.722656 C 282.601562 258.636719 283.792969 258.824219 284.867188 259.292969 C 285.960938 259.761719 287.015625 260.316406 288.003906 260.921875 C 289.941406 262.152344 291.707031 264.074219 293.300781 266.722656 C 294.113281 267.675781 294.757812 268.800781 295.222656 270.132812 C 296.347656 272.351562 297.386719 274.929688 298.339844 277.859375 C 300.261719 283.847656 301.839844 291.332031 303.015625 300.300781 C 304.105469 307.902344 304.660156 314.484375 304.714844 320.058594 C 304.851562 323.230469 304.851562 326.121094 304.714844 328.699219 C 304.46875 330.46875 304.195312 332.0625 303.863281 333.515625 C 303.777344 334.085938 303.8125 337.253906 304.003906 343.003906 C 304.003906 344.511719 303.949219 345.828125 303.863281 346.917969 C 303.242188 347.472656 302.566406 348.027344 301.804688 348.527344 C 290.703125 356.425781 282.476562 362.332031 277.09375 366.246094 C 276.519531 366.710938 275.96875 367.074219 275.394531 367.300781 C 274.441406 368.113281 273.492188 368.773438 272.554688 369.292969 C 272.417969 369.449219 272.261719 369.570312 272.054688 369.726562 C 271.964844 369.8125 271.878906 369.933594 271.777344 370.070312 C 271.722656 370.019531 271.671875 370.019531 271.621094 370.070312 C 270.960938 370.453125 270.511719 370.710938 270.285156 370.851562 L 270.21875 370.921875 C 268.382812 372.097656 266.703125 373.1875 265.195312 374.191406 C 262.441406 376.0625 260.171875 377.949219 258.320312 379.839844 C 257.609375 379.941406 256.832031 380.097656 255.984375 380.273438 " fill-opacity="1" fill-rule="evenodd"/><path fill="#f89865" d="M 261.183594 355.589844 C 259.207031 357.429688 256.71875 359.734375 253.75 362.527344 C 251.570312 364.234375 249.4375 365.800781 247.375 367.269531 C 246.609375 367.933594 245.910156 368.53125 245.242188 369.042969 C 242.3125 371.035156 239.464844 372.84375 236.683594 374.496094 C 233.035156 375.625 229.457031 376.765625 225.910156 377.890625 C 225.296875 378.148438 224.375 378.335938 223.148438 378.539062 C 223.097656 378.488281 223.027344 378.488281 222.925781 378.539062 C 221.5625 379.953125 219.652344 375.539062 217.199219 365.292969 C 217.011719 364.4375 216.773438 363.449219 216.480469 362.308594 C 212.953125 347.066406 212.289062 335.746094 214.503906 328.3125 C 214.929688 327.082031 216.039062 324.96875 217.847656 321.953125 C 219.5 319.070312 220.316406 317.605469 220.316406 317.554688 C 220.710938 316.136719 222.140625 314.195312 224.632812 311.738281 C 226.386719 309.933594 227.886719 308.722656 229.167969 308.058594 C 229.59375 307.714844 229.984375 307.476562 230.308594 307.273438 C 231.996094 306.148438 233.921875 304.730469 236.121094 303.027344 C 236.683594 302.566406 237.179688 302.140625 237.605469 301.75 C 238.320312 301.324219 238.988281 300.863281 239.652344 300.332031 C 241.59375 298.96875 243.214844 297.726562 244.527344 296.582031 C 246.386719 297.894531 248.160156 299.820312 249.863281 302.3125 C 250.546875 303.351562 251.175781 304.492188 251.6875 305.722656 C 252.863281 308.089844 253.9375 310.648438 254.875 313.445312 C 256.769531 319.53125 258.355469 326.980469 259.632812 335.8125 C 260.042969 339.324219 260.367188 342.582031 260.535156 345.597656 C 260.878906 349.28125 261.082031 352.605469 261.183594 355.589844 " fill-opacity="1" fill-rule="evenodd"/><path fill="#911c1c" d="M 237.703125 301.667969 C 238.214844 299.824219 238.777344 297.984375 239.390625 296.144531 C 240.636719 295.921875 241.453125 295.800781 241.863281 295.800781 C 242.683594 295.597656 243.519531 295.800781 244.4375 296.363281 L 244.625 296.5 C 243.3125 297.625 241.695312 298.886719 239.75 300.25 C 239.101562 300.78125 238.421875 301.242188 237.703125 301.667969 Z M 245.34375 368.964844 C 246.007812 368.453125 246.722656 367.859375 247.472656 367.191406 C 249.554688 365.726562 251.683594 364.15625 253.851562 362.453125 C 256.816406 359.65625 259.304688 357.355469 261.285156 355.496094 C 261.386719 358.855469 261.335938 361.804688 261.128906 364.363281 C 261.128906 365.011719 261.078125 365.605469 260.941406 366.136719 C 260.839844 367.023438 260.722656 367.859375 260.566406 368.589844 C 260.449219 370.5 260.277344 371.832031 260.074219 372.5625 C 259.511719 374.421875 258.367188 376.640625 256.699219 379.230469 C 256.355469 379.65625 256.152344 379.996094 256.050781 380.21875 C 255.894531 380.320312 255.761719 380.355469 255.625 380.355469 C 254.820312 380.507812 254.125 380.40625 253.558594 380.082031 C 251.445312 378.753906 250.472656 377.679688 250.660156 376.808594 C 249.332031 374.320312 249.621094 375.15625 251.515625 379.296875 C 248.207031 373.636719 246.160156 370.191406 245.34375 368.964844 " fill-opacity="1" fill-rule="evenodd"/><path fill="#d92b2b" d="M 284.546875 307.921875 C 284.511719 307.496094 284.472656 307.085938 284.417969 306.714844 C 284.269531 305.953125 284.101562 305.117188 283.933594 304.222656 C 282.449219 298.277344 281.074219 292.703125 279.734375 287.519531 C 278.414062 282.316406 277.820312 278.132812 277.96875 274.976562 C 277.96875 271.445312 278.117188 268.136719 278.398438 265.070312 C 279.625 251.839844 282.390625 242.085938 286.683594 235.824219 C 307.550781 204.175781 333.957031 198.953125 365.863281 220.15625 C 367.480469 221.105469 370.617188 224.132812 375.300781 229.300781 C 375.433594 229.375 375.523438 229.503906 375.582031 229.652344 C 376.082031 230.136719 383.144531 242.121094 396.765625 265.628906 C 397.453125 266.800781 398.140625 268.007812 398.808594 269.234375 C 399.570312 270.757812 400.40625 272.261719 401.355469 273.769531 C 403.101562 276.519531 404.828125 279.269531 406.539062 282.054688 C 407.597656 283.800781 408.75 285.605469 409.917969 287.445312 C 410.738281 288.726562 411.519531 289.933594 412.335938 291.140625 C 418.46875 300.621094 425.101562 310.265625 432.238281 320.09375 C 434.078125 322.546875 435.933594 325 437.828125 327.472656 C 438.90625 329.125 440.097656 330.777344 441.378906 332.433594 C 443.40625 335.109375 445.46875 337.804688 447.605469 340.496094 C 447.84375 340.628906 448.105469 340.832031 448.382812 341.054688 C 452.304688 346.683594 457.339844 353.542969 463.472656 361.664062 C 474.472656 376.046875 481.960938 386.0625 485.917969 391.785156 C 493.890625 403.25 500.46875 414.25 505.617188 424.785156 C 507.679688 429.320312 509.5 433.707031 511.0625 437.960938 C 504.648438 437.070312 498.035156 436.753906 491.234375 437.050781 C 487.089844 437.273438 482.796875 437.792969 478.414062 438.59375 C 461.746094 441.417969 445.226562 447.882812 428.835938 457.992188 C 413.617188 467.414062 395.667969 475.90625 374.929688 483.488281 C 367.941406 486.089844 361.550781 488.171875 355.753906 489.730469 L 284.546875 307.921875 " fill-opacity="1" fill-rule="evenodd"/><path fill="#eb6d2f" d="M 284.636719 307.859375 L 284.566406 307.566406 C 284.515625 307.1875 284.496094 306.878906 284.496094 306.65625 C 284.550781 307.035156 284.582031 307.429688 284.636719 307.859375 " fill-opacity="1" fill-rule="evenodd"/><path fill="#f89865" d="M 169.195312 287.628906 C 169.230469 287.546875 169.367188 287.476562 169.535156 287.425781 C 169.976562 286.953125 170.367188 286.53125 170.753906 286.15625 C 171.417969 285.53125 172.09375 284.972656 172.804688 284.460938 C 173.515625 283.902344 174.921875 283.039062 177.039062 281.90625 C 179.359375 280.617188 181.273438 279.839844 182.78125 279.566406 C 184.289062 279.175781 185.59375 278.890625 186.695312 278.652344 C 188 278.230469 189.355469 277.992188 190.726562 277.941406 C 191.609375 277.789062 192.777344 277.71875 194.183594 277.71875 C 195.214844 277.636719 197.148438 277.535156 199.925781 277.449219 C 200.0625 277.636719 200.128906 277.824219 200.128906 278.007812 C 200.738281 282.445312 202.347656 286.613281 204.941406 290.476562 C 208.292969 295.390625 211.835938 299.351562 215.578125 302.367188 C 218.507812 304.742188 222.234375 307.382812 226.777344 310.3125 C 227.945312 311.246094 229.011719 312.125 229.941406 312.9375 C 230.535156 313.296875 231.042969 313.667969 231.519531 313.988281 C 232.078125 314.429688 232.671875 314.820312 233.296875 315.210938 C 241.023438 323.375 243.394531 334.605469 240.359375 348.902344 C 238.820312 356.324219 236.667969 362.183594 233.925781 366.46875 C 233.128906 367.65625 232.128906 368.976562 230.941406 370.433594 C 228.960938 372.753906 226.488281 375.28125 223.523438 378.023438 C 223.320312 378.160156 223.152344 378.328125 223.015625 378.515625 C 219.847656 378.703125 215.511719 377.429688 209.988281 374.6875 C 209.414062 374.449219 208.871094 374.195312 208.34375 373.90625 C 201.128906 369.199219 195.4375 364.082031 191.285156 358.609375 C 185.425781 349.683594 180.734375 338.941406 177.191406 326.375 C 175.007812 318.460938 173.464844 312.769531 172.515625 309.316406 C 170.957031 304.164062 168.199219 298.761719 164.234375 293.085938 C 164.554688 292.628906 165.148438 291.933594 165.996094 291.035156 C 167.503906 289.445312 168.585938 288.292969 169.195312 287.632812 " fill-opacity="1" fill-rule="evenodd"/><path fill="#b02222" d="M 436.515625 292.171875 C 442.847656 291.457031 449.617188 290.164062 456.84375 288.265625 C 456.878906 291.441406 456.441406 294.03125 455.492188 296.058594 C 454.507812 298.082031 453.667969 300.4375 453.011719 303.066406 C 452.0625 306.660156 451.277344 309.015625 450.621094 310.164062 C 449.910156 311.332031 449.125 312.335938 448.265625 313.140625 C 447.882812 313.558594 447.191406 313.832031 446.148438 313.980469 C 445.4375 313.941406 444.78125 313.871094 444.160156 313.777344 C 444.070312 313.777344 443.996094 313.777344 443.941406 313.777344 C 443.046875 311.3125 442.226562 309.050781 441.460938 306.972656 C 441.332031 306.585938 441.203125 306.242188 441.113281 305.914062 C 440.785156 305.054688 440.457031 304.140625 440.128906 303.15625 C 438.8125 299.179688 437.589844 295.527344 436.515625 292.171875 Z M 448.539062 227.929688 C 449.507812 227.929688 450.128906 227.929688 450.457031 227.929688 L 452.9375 231.25 L 441.972656 232.164062 C 442.71875 231.378906 443.394531 230.59375 443.941406 229.847656 C 445.273438 228.75 446.421875 228.113281 447.425781 227.929688 C 447.699219 227.785156 447.976562 227.785156 448.195312 227.929688 C 448.25 227.929688 448.320312 227.929688 448.414062 227.929688 L 448.539062 227.929688 " fill-opacity="1" fill-rule="evenodd"/><path fill="#ff3333" d="M 441.921875 232.210938 C 441.832031 232.300781 441.757812 232.371094 441.703125 232.425781 C 441.375 232.902344 441.085938 233.375 440.792969 233.847656 C 435.410156 242.105469 432.371094 251.183594 431.644531 261.117188 C 431.425781 266.210938 431.824219 271.667969 432.863281 277.46875 C 433.136719 279.363281 433.644531 281.453125 434.355469 283.765625 C 434.773438 285.855469 435.355469 288.09375 436.117188 290.496094 C 436.117188 290.605469 436.136719 290.675781 436.191406 290.785156 C 436.335938 291.203125 436.429688 291.679688 436.464844 292.207031 C 437.554688 295.570312 438.757812 299.210938 440.085938 303.191406 C 440.410156 304.175781 440.738281 305.085938 441.085938 305.941406 C 441.15625 306.285156 441.285156 306.632812 441.429688 307.011719 C 442.195312 309.085938 443.011719 311.359375 443.90625 313.796875 C 443.8125 313.796875 443.667969 313.796875 443.46875 313.796875 C 439.191406 313.417969 433.953125 313.125 427.769531 312.890625 C 426.023438 312.742188 424.203125 312.652344 422.367188 312.597656 C 421.855469 312.597656 421.273438 312.597656 420.601562 312.597656 C 420.183594 312.507812 419.765625 312.472656 419.328125 312.472656 C 404.410156 311.925781 390.53125 311.816406 377.671875 312.105469 C 349.730469 286.511719 346.800781 258.351562 368.902344 227.605469 C 372.195312 227.605469 373.886719 227.605469 373.921875 227.605469 C 388.65625 228.734375 404.410156 229.097656 421.164062 228.660156 C 421.273438 228.660156 421.328125 228.660156 421.382812 228.660156 C 421.527344 228.660156 421.65625 228.660156 421.820312 228.660156 C 424.457031 228.625 427.097656 228.570312 429.75 228.515625 C 434.898438 228.242188 440.085938 228.078125 445.324219 228.023438 C 445.941406 228.023438 446.613281 228.007812 447.378906 227.953125 C 446.378906 228.152344 445.230469 228.789062 443.90625 229.878906 C 443.339844 230.644531 442.6875 231.410156 441.921875 232.210938 " fill-opacity="1" fill-rule="evenodd"/><path fill="#f7d62f" d="M 421.203125 228.640625 C 421.367188 228.53125 421.492188 228.421875 421.640625 228.292969 C 421.585938 228.421875 421.53125 228.53125 421.421875 228.640625 C 421.382812 228.640625 421.3125 228.640625 421.203125 228.640625 Z M 448.539062 227.929688 C 449.210938 227.78125 449.832031 227.710938 450.394531 227.710938 C 450.449219 227.710938 450.523438 227.710938 450.613281 227.710938 L 450.46875 227.929688 C 450.140625 227.929688 449.503906 227.929688 448.539062 227.929688 " fill-opacity="1" fill-rule="evenodd"/><path fill="#f89865" d="M 456.800781 288.296875 C 449.578125 290.207031 442.796875 291.503906 436.460938 292.207031 C 436.425781 291.6875 436.332031 291.226562 436.183594 290.78125 C 436.128906 290.6875 436.109375 290.613281 436.109375 290.503906 C 435.351562 288.09375 434.777344 285.851562 434.351562 283.777344 C 433.628906 281.460938 433.128906 279.351562 432.847656 277.480469 C 431.8125 271.664062 431.421875 266.214844 431.644531 261.121094 C 432.347656 251.191406 435.40625 242.097656 440.796875 233.851562 C 441.074219 233.371094 441.371094 232.90625 441.703125 232.425781 C 441.742188 232.371094 441.816406 232.316406 441.90625 232.203125 L 452.894531 231.277344 L 497.519531 227.40625 C 497.703125 227.441406 498.113281 228.109375 498.722656 229.386719 C 501.316406 234.816406 501.761719 240.335938 500.074219 245.949219 C 498.761719 250.433594 496.519531 255.101562 493.40625 259.917969 C 493.183594 260.25 490.035156 264.773438 483.976562 273.496094 C 483.699219 273.941406 483.347656 274.386719 482.921875 274.847656 C 481.882812 276.089844 480.734375 277.128906 479.457031 277.960938 C 482.421875 277.589844 480.882812 279.960938 474.863281 285.054688 L 456.800781 288.296875 " fill-opacity="1" fill-rule="evenodd"/><path fill="#f72f2f" d="M 421.269531 228.757812 C 421.378906 228.648438 421.433594 228.539062 421.488281 228.414062 C 421.542969 228.539062 421.613281 228.648438 421.703125 228.757812 C 421.558594 228.757812 421.414062 228.757812 421.269531 228.757812 " fill-opacity="1" fill-rule="evenodd"/><path fill="#f89865" d="M 521.839844 609.917969 C 521.316406 607.65625 520.835938 605.394531 520.429688 603.128906 C 516.40625 580.515625 520.71875 563.027344 533.3125 550.644531 C 546.871094 543.757812 580.28125 547.125 633.535156 560.765625 C 634.890625 564.863281 635.394531 568.792969 635.027344 572.527344 C 634.871094 573.570312 634.695312 574.578125 634.445312 575.582031 L 634.308594 575.796875 C 634.214844 576.027344 634.15625 576.257812 634.097656 576.492188 L 625.449219 604.96875 C 616.765625 601.097656 602.371094 600.980469 582.253906 604.621094 C 579.660156 605.140625 577.070312 605.605469 574.476562 606.03125 C 557.800781 609.011719 540.257812 610.460938 521.839844 610.421875 L 521.839844 609.917969 " fill-opacity="1" fill-rule="evenodd"/><path fill="#f89865" d="M 282.492188 252.894531 C 279.558594 247.707031 276.484375 243.023438 273.269531 238.867188 C 273.09375 238.726562 272.9375 238.585938 272.867188 238.449219 C 270.769531 235.617188 268.550781 233.15625 266.195312 231.09375 C 265.96875 230.832031 265.722656 230.605469 265.476562 230.378906 C 265.355469 230.21875 265.25 230.117188 265.199219 230.011719 C 265.199219 229.976562 265.179688 229.941406 265.144531 229.941406 C 263.589844 228.246094 261.933594 226.464844 260.183594 224.628906 C 258.296875 222.65625 256.253906 220.613281 254.089844 218.550781 C 253.566406 217.835938 253.058594 217.292969 252.605469 216.910156 C 255.152344 216.683594 257.738281 216.472656 260.394531 216.261719 C 261.339844 216.261719 262.351562 216.210938 263.433594 216.070312 L 317.96875 178.09375 C 318.160156 181.78125 318.6875 185.1875 319.523438 188.296875 C 321.324219 194.621094 324.660156 199.285156 329.515625 202.253906 C 328.242188 206.027344 326.371094 209.886719 323.925781 213.800781 C 323.734375 213.992188 323.59375 214.148438 323.488281 214.304688 C 323.316406 214.636719 323.140625 214.933594 323 215.214844 C 320.398438 218.742188 317.253906 222.464844 313.566406 226.34375 C 303.90625 236.195312 296.167969 243.09375 290.421875 247.007812 C 286.597656 249.242188 283.960938 251.199219 282.492188 252.894531 " fill-opacity="1" fill-rule="evenodd"/><path fill="#b02222" d="M 282.449219 252.914062 C 281.988281 253.378906 281.660156 253.84375 281.472656 254.257812 C 281.28125 254.601562 281.160156 254.910156 281.109375 255.183594 C 280.972656 256.800781 280.886719 258.054688 280.835938 258.945312 C 281.351562 261.007812 282.074219 263.828125 283.019531 267.382812 C 281.421875 265.71875 279.1875 263.585938 276.300781 260.992188 C 271.007812 256.316406 267.863281 253.980469 266.882812 253.980469 C 263.945312 253.929688 261.042969 256.179688 258.171875 260.71875 C 257.65625 261.695312 257.125 262.589844 256.609375 263.414062 C 256.332031 260.234375 256.179688 257.230469 256.179688 254.324219 C 256.332031 247.160156 257.019531 240.335938 258.308594 233.875 C 259.066406 230.421875 259.597656 227.878906 259.941406 226.28125 C 262.246094 227.878906 263.960938 229.132812 265.113281 229.976562 C 265.164062 229.976562 265.183594 230.011719 265.183594 230.027344 C 265.214844 230.128906 265.320312 230.25 265.457031 230.40625 C 265.679688 230.628906 265.9375 230.871094 266.160156 231.109375 C 268.53125 233.171875 270.75 235.648438 272.828125 238.464844 C 272.914062 238.621094 273.070312 238.757812 273.242188 238.894531 C 276.453125 243.050781 279.53125 247.726562 282.449219 252.914062 " fill-opacity="1" fill-rule="evenodd"/><path fill="#ff3333" d="M 282.941406 267.429688 C 282.007812 263.875 281.285156 261.058594 280.757812 259 C 280.8125 258.101562 280.898438 256.851562 281.039062 255.25 C 281.09375 254.96875 281.214844 254.652344 281.390625 254.316406 C 281.585938 253.914062 281.921875 253.4375 282.378906 252.980469 C 283.855469 251.273438 286.496094 249.320312 290.316406 247.101562 C 296.070312 243.175781 303.796875 236.277344 313.476562 226.421875 C 317.152344 222.550781 320.304688 218.835938 322.890625 215.296875 C 323.050781 215.015625 323.207031 214.71875 323.402344 214.382812 C 323.488281 214.242188 323.632812 214.066406 323.824219 213.890625 C 326.269531 209.964844 328.136719 206.113281 329.421875 202.328125 C 329.507812 202.203125 329.597656 201.992188 329.703125 201.765625 C 329.984375 201.535156 330.265625 201.308594 330.546875 201.058594 C 333.839844 199.546875 340.527344 201.464844 350.59375 206.796875 C 350.734375 206.851562 350.839844 206.886719 350.945312 206.9375 C 350.894531 207.042969 350.875 207.113281 350.875 207.148438 C 350.539062 209.808594 350.136719 212.851562 349.679688 216.285156 C 349.679688 216.953125 349.609375 217.640625 349.449219 218.34375 C 348.570312 225.558594 347.917969 229.960938 347.53125 231.507812 C 347.355469 232.40625 347.179688 233.285156 346.984375 234.148438 C 345.648438 240.027344 343.765625 246.257812 341.320312 252.769531 C 341.230469 253.105469 341.054688 253.332031 340.824219 253.472656 C 341.441406 257.730469 342.09375 261.867188 342.816406 265.863281 C 343.886719 271.054688 344.328125 273.820312 344.152344 274.152344 C 343.675781 274.207031 341.617188 274.804688 337.972656 276 C 335.582031 276.792969 333.097656 276.953125 330.546875 276.492188 C 325.496094 275.5625 318.597656 272.128906 309.867188 266.234375 C 304.851562 262.589844 300.945312 260.003906 298.113281 258.507812 C 296.070312 257.363281 294.574219 256.695312 293.589844 256.449219 C 291.933594 256.359375 289.714844 257.800781 286.917969 260.828125 L 286.917969 261.269531 C 286.582031 262.113281 286.320312 263.082031 286.144531 264.175781 C 285.703125 265.632812 285.351562 267.183594 285.015625 268.835938 C 284.910156 269.171875 284.859375 269.542969 284.859375 269.894531 C 284.71875 271.214844 284.578125 272.359375 284.4375 273.308594 C 283.925781 271.144531 283.433594 269.171875 282.941406 267.429688 " fill-opacity="1" fill-rule="evenodd"/><path stroke-linecap="butt" transform="matrix(0.185062, 0, 0, -0.185067, -2517.787838, 2586.955666)" fill="none" stroke-linejoin="miter" d="M 16299.606678 12120.201625 C 16299.902186 12115.895752 16300.007725 12111.800952 16300.007725 12107.896116 " stroke="#000000" stroke-width="0.894" stroke-opacity="1" stroke-miterlimit="10"/><path fill="#f89865" d="M 541.476562 395.6875 C 541.816406 394.367188 542.15625 392.878906 542.535156 391.238281 C 543.871094 386.1875 544.738281 382.984375 545.171875 381.605469 C 544.738281 382.984375 543.871094 386.1875 542.535156 391.238281 C 542.15625 392.878906 541.816406 394.367188 541.476562 395.6875 Z M 500.894531 397.761719 C 501.234375 396.855469 501.515625 395.839844 501.742188 394.707031 C 501.894531 393.632812 501.988281 392.597656 502.023438 391.652344 C 502.082031 390.542969 502.101562 389.335938 502.101562 388.054688 C 502.195312 383.527344 501.800781 379.984375 500.894531 377.421875 C 501.800781 379.984375 502.195312 383.527344 502.101562 388.054688 C 502.101562 389.335938 502.082031 390.542969 502.023438 391.652344 C 501.988281 392.597656 501.894531 393.632812 501.742188 394.707031 C 501.515625 395.839844 501.234375 396.855469 500.894531 397.761719 Z M 515.351562 402.566406 C 516.105469 401.8125 516.785156 400.945312 517.40625 399.949219 L 517.613281 399.722656 C 517.707031 399.421875 517.839844 399.042969 517.972656 398.609375 C 518.726562 397.460938 519.214844 395.988281 519.460938 394.140625 C 519.78125 392.050781 519.746094 390.164062 519.3125 388.410156 C 519.746094 390.164062 519.78125 392.050781 519.460938 394.140625 C 519.214844 395.988281 518.726562 397.460938 517.972656 398.609375 C 517.839844 399.042969 517.707031 399.417969 517.613281 399.722656 L 517.40625 399.949219 C 516.785156 400.945312 516.105469 401.8125 515.351562 402.566406 Z M 531.28125 383.246094 C 531.882812 386.015625 532.183594 388.808594 532.148438 391.597656 C 532.183594 391.824219 532.203125 392.105469 532.203125 392.445312 C 532.015625 395.554688 531.621094 397.6875 530.996094 398.816406 C 529.960938 400.191406 528.941406 401.4375 527.960938 402.566406 C 528.941406 401.4375 529.960938 400.191406 530.996094 398.816406 C 531.621094 397.6875 532.015625 395.554688 532.203125 392.445312 C 532.203125 392.105469 532.183594 391.824219 532.148438 391.597656 C 532.183594 388.808594 531.882812 386.015625 531.28125 383.246094 Z M 551.902344 386 C 551.296875 387.1875 550.695312 388.242188 550.128906 389.183594 C 547.90625 392.484375 546.566406 394.199219 546.171875 394.347656 C 545.585938 394.59375 544.023438 395.027344 541.476562 395.6875 C 541.25 396.308594 541.042969 396.894531 540.914062 397.402344 C 540.535156 398.777344 540.253906 399.550781 540.0625 399.722656 C 539.59375 400.738281 537.445312 401.472656 533.636719 402.003906 C 531.316406 402.378906 529.414062 402.566406 527.960938 402.566406 C 526.871094 403.511719 525.851562 404.246094 524.910156 404.773438 C 524.53125 405.054688 524.15625 405.226562 523.777344 405.261719 C 522.648438 405.640625 521.269531 405.566406 519.667969 405.054688 C 518.632812 404.679688 517.367188 403.980469 515.917969 403 C 515.632812 402.851562 515.445312 402.699219 515.351562 402.566406 C 514.878906 403 514.429688 403.453125 513.996094 403.90625 C 513.484375 404.246094 512.957031 404.527344 512.449219 404.773438 C 512.070312 405.113281 511.601562 405.28125 511.015625 405.339844 C 509.09375 406 507.132812 405.714844 505.15625 404.472656 C 504.722656 404.113281 503.96875 402.964844 502.890625 401.023438 C 502.554688 400.53125 502.234375 400.023438 501.96875 399.457031 C 501.496094 398.890625 501.140625 398.328125 500.894531 397.761719 C 500.667969 399.042969 500.214844 400.191406 499.554688 401.210938 C 498.859375 402.078125 497.59375 402.738281 495.804688 403.207031 C 495.617188 403.304688 495.371094 403.398438 495.089844 403.492188 C 493.902344 403.8125 492.957031 403.960938 492.261719 403.90625 C 491.695312 403.90625 491.300781 403.773438 491.054688 403.492188 C 489.433594 402.417969 489.566406 397.835938 491.414062 389.75 C 491.414062 389.5625 491.414062 389.449219 491.414062 389.390625 C 491.207031 386.28125 491.09375 383.472656 491.054688 380.964844 C 490.734375 376.140625 490.566406 371.839844 490.566406 368.070312 C 490.695312 355.234375 494.523438 346.335938 502.023438 341.378906 C 502.175781 341.191406 502.289062 341.117188 502.382812 341.152344 C 502.722656 340.699219 503.136719 340.210938 503.664062 339.757812 C 504.324219 339.324219 505.097656 338.890625 506.003906 338.476562 C 508.546875 337.289062 511.960938 336.496094 516.257812 336.0625 C 522.363281 335.5 527.511719 335.835938 531.714844 337.121094 C 532.65625 337.457031 533.976562 338.003906 535.671875 338.757812 C 537.40625 339.417969 538.40625 339.796875 538.652344 339.890625 C 539.308594 340.078125 540.160156 340.550781 541.195312 341.304688 C 541.855469 341.644531 542.496094 341.90625 543.117188 342.152344 C 543.117188 342.304688 543.136719 342.398438 543.195312 342.453125 C 545.304688 348.769531 547.792969 355.101562 550.621094 361.417969 C 550.960938 362.511719 551.375 363.492188 551.902344 364.394531 C 554.730469 372.652344 554.730469 379.851562 551.902344 385.996094 " fill-opacity="1" fill-rule="evenodd"/><path stroke-linecap="butt" transform="matrix(0.187915, 0, 0, -0.18792, -2517.787838, 2586.955666)" fill="none" stroke-linejoin="miter" d="M 16280.396109 11660.806781 C 16282.10067 11667.89508 16283.992316 11675.794065 16286.008687 11684.607669 C 16292.993227 11711.401858 16297.691162 11728.509396 16299.998555 11735.805563 M 16064.395037 11649.789776 C 16066.203534 11654.695461 16067.700222 11659.996095 16068.905886 11666.107415 C 16069.695805 11671.802999 16070.1947 11677.290715 16070.402574 11682.300334 C 16070.693596 11688.30772 16070.797533 11694.710055 16070.797533 11701.50734 C 16071.296428 11725.599243 16069.196909 11744.390513 16064.395037 11758.109802 M 16141.308132 11624.201222 C 16145.299298 11628.296222 16148.999441 11632.890105 16152.200689 11638.19074 L 16153.406354 11639.396374 C 16153.801313 11640.996958 16154.508082 11643.096425 16155.194064 11645.299826 C 16159.309954 11651.390359 16161.908369 11659.206197 16163.197183 11669.100715 C 16164.901743 11680.200867 16164.69387 11690.303253 16162.407265 11699.594954 M 16226.099622 11727.095893 C 16229.30087 11712.29569 16230.901494 11697.495487 16230.69362 11682.695284 C 16230.901494 11681.406502 16231.00543 11679.889065 16231.00543 11678.205334 C 16230.007639 11661.492745 16227.804182 11650.288659 16224.602935 11644.198126 C 16219.011145 11636.901958 16213.710378 11630.291755 16208.40961 11624.201222 " stroke="#954e40" stroke-width="0.88" stroke-opacity="1" stroke-miterlimit="10"/><path fill="#f89865" d="M 467.226562 253.816406 C 471.46875 246.90625 476.199219 240.972656 481.398438 236.035156 C 486.714844 230.96875 490.9375 228.300781 493.996094 228.019531 C 497.152344 227.738281 499.574219 228.039062 501.226562 228.941406 C 502.726562 229.652344 504.71875 230.796875 507.175781 232.414062 C 509.390625 233.914062 513.316406 237.839844 518.929688 244.167969 C 524.582031 250.679688 528.859375 263.617188 531.753906 282.992188 C 534.71875 302.40625 537.214844 317.144531 539.261719 327.261719 C 541.363281 337.214844 542.398438 342.261719 542.304688 342.414062 C 542.171875 342.65625 542.058594 342.9375 542.023438 343.257812 C 541.496094 344.347656 540.859375 345.960938 540.105469 348.066406 C 538.734375 351.199219 535.65625 353.019531 530.8125 353.527344 C 518.683594 352.871094 510.96875 351.78125 507.664062 350.28125 C 506.671875 349.886719 505.128906 348.835938 502.988281 347.089844 C 501.113281 345.4375 499.667969 344.367188 498.671875 343.898438 C 498.578125 342.527344 498.464844 341.136719 498.390625 339.730469 C 497.921875 336.519531 497.152344 333.289062 496.117188 330.078125 C 495.425781 327.917969 494.597656 325.761719 493.714844 323.640625 C 492.214844 320.335938 488.535156 314.0625 482.734375 304.789062 C 480.574219 301.351562 478.601562 297.898438 476.855469 294.464844 C 470.398438 281.527344 467.09375 268.402344 466.945312 255.09375 C 466.886719 254.828125 466.867188 254.625 466.867188 254.4375 C 467 254.152344 467.113281 253.949219 467.226562 253.816406 " fill-opacity="1" fill-rule="evenodd"/><path fill="#f89865" d="M 163.238281 216.3125 C 160.875 217.585938 159.519531 219.347656 159.132812 221.609375 C 159.519531 219.347656 160.875 217.585938 163.238281 216.3125 Z M 142.84375 259.027344 C 151.574219 260.015625 157.15625 260.601562 159.550781 260.785156 C 161.863281 261.019531 163.605469 260.449219 164.730469 259.09375 C 166.101562 257.71875 166.605469 256.210938 166.269531 254.550781 C 166.101562 254 163.238281 252.40625 157.707031 249.808594 C 163.238281 252.40625 166.101562 254 166.269531 254.550781 C 166.605469 256.210938 166.101562 257.71875 164.730469 259.09375 C 163.605469 260.449219 161.863281 261.019531 159.550781 260.785156 C 157.15625 260.601562 151.574219 260.015625 142.84375 259.027344 Z M 141.640625 244.851562 C 141.824219 244.0625 142.257812 243.578125 142.914062 243.441406 C 143.699219 243.242188 147.789062 244.933594 155.160156 248.46875 C 156.117188 248.988281 156.953125 249.425781 157.707031 249.808594 C 156.335938 241.96875 155.597656 237.34375 155.445312 235.933594 C 155.546875 234.613281 158.644531 233.339844 164.730469 232.097656 C 166.320312 231.8125 167.578125 230.992188 168.484375 229.617188 C 169.421875 228.34375 169.804688 227.15625 169.621094 226.015625 C 169.285156 224.457031 167.308594 223.25 163.671875 222.414062 C 162.484375 222.210938 161.125 221.945312 159.550781 221.609375 C 159.367188 221.609375 159.214844 221.609375 159.132812 221.609375 C 155.496094 221.207031 152.632812 220.988281 150.554688 220.988281 C 149.480469 221.039062 148.574219 221.121094 147.871094 221.273438 L 147.65625 221.339844 C 146.464844 221.523438 145.441406 221.875 144.539062 222.414062 C 145.441406 221.875 146.464844 221.523438 147.65625 221.339844 L 147.871094 221.273438 C 148.574219 221.121094 149.480469 221.039062 150.554688 220.988281 C 152.632812 220.988281 155.496094 221.207031 159.132812 221.609375 C 159.214844 221.609375 159.367188 221.609375 159.550781 221.609375 C 161.125 221.945312 162.484375 222.210938 163.671875 222.414062 C 167.308594 223.25 169.285156 224.457031 169.621094 226.015625 C 169.804688 227.15625 169.421875 228.34375 168.484375 229.617188 C 167.578125 230.992188 166.320312 231.8125 164.730469 232.097656 C 158.648438 233.339844 155.546875 234.613281 155.445312 235.933594 C 155.597656 237.34375 156.335938 241.96875 157.707031 249.808594 C 156.953125 249.425781 156.117188 248.988281 155.160156 248.46875 C 147.789062 244.933594 143.699219 243.242188 142.914062 243.441406 C 142.257812 243.578125 141.824219 244.0625 141.640625 244.851562 Z M 158.277344 198.683594 C 162.015625 198.535156 166.808594 199.574219 172.65625 201.785156 C 178.316406 203.863281 182.171875 206.242188 184.199219 208.875 C 184.199219 209.007812 184.25 209.109375 184.332031 209.160156 C 184.25 209.109375 184.199219 209.007812 184.199219 208.875 C 182.171875 206.242188 178.320312 203.863281 172.65625 201.785156 C 166.808594 199.574219 162.015625 198.535156 158.277344 198.683594 Z M 155.445312 214.820312 L 163.238281 216.3125 L 172.234375 218.222656 C 172.519531 218.125 172.773438 218.054688 173.007812 218.007812 C 174.480469 217.820312 176.207031 217.570312 178.183594 217.234375 C 178.886719 217.132812 179.507812 217.015625 180.027344 216.867188 C 179.507812 217.015625 178.886719 217.132812 178.183594 217.234375 C 176.207031 217.570312 174.480469 217.820312 173.007812 218.007812 C 172.773438 218.054688 172.519531 218.125 172.234375 218.222656 L 163.238281 216.3125 Z M 193.414062 224.457031 L 193.699219 224.171875 C 194.773438 226.617188 195.578125 228.878906 196.097656 230.910156 C 196.480469 232.835938 195.929688 234.496094 194.472656 235.851562 C 193.582031 236.992188 191.808594 237.679688 189.160156 237.914062 C 191.808594 237.679688 193.582031 236.992188 194.472656 235.851562 C 195.929688 234.496094 196.480469 232.835938 196.097656 230.910156 C 195.578125 228.882812 194.773438 226.617188 193.699219 224.171875 C 193.5 223.9375 193.382812 223.6875 193.332031 223.402344 C 192.394531 221.273438 191.824219 219.765625 191.640625 218.859375 C 190.785156 214.570312 191.101562 211.234375 192.5625 208.875 C 194.070312 206.511719 197.453125 204.214844 202.699219 202.003906 C 202.597656 206.394531 203.871094 212.273438 206.519531 219.648438 C 209.71875 228.980469 211.597656 234.644531 212.097656 236.621094 C 213.371094 243.441406 213.472656 249.339844 212.398438 254.335938 C 210.925781 261.421875 207.003906 268.074219 200.621094 274.308594 L 199.214844 274.59375 C 199.78125 276.804688 200.371094 282.167969 200.988281 290.664062 L 175.335938 303.699219 L 173.996094 304.285156 C 154.609375 282.503906 144.636719 269.667969 144.117188 265.746094 C 143.515625 261.875 143.078125 259.628906 142.84375 259.027344 C 142.089844 256.5625 141.488281 254.785156 141.085938 253.714844 C 141.085938 253.378906 141.085938 253.011719 141.085938 252.640625 C 141.085938 249.523438 141.085938 247.398438 141.136719 246.273438 C 141.269531 245.789062 141.4375 245.335938 141.640625 244.851562 C 140.933594 242.738281 140.484375 241.296875 140.28125 240.527344 C 138.355469 231.042969 139.777344 225.011719 144.539062 222.414062 C 143.414062 215.308594 145.644531 208.472656 151.257812 201.871094 C 151.691406 201.332031 152.210938 200.847656 152.816406 200.378906 C 153.769531 199.625 154.792969 199.085938 155.882812 198.804688 C 156.667969 198.734375 157.472656 198.6875 158.277344 198.6875 C 158.746094 197.445312 159.683594 196.238281 161.042969 195.050781 C 162.464844 193.925781 163.554688 193.289062 164.292969 193.15625 C 169.589844 192.066406 174.898438 193.070312 180.226562 196.207031 C 184.921875 199.019531 187.652344 202.320312 188.457031 206.042969 C 188.589844 206.695312 188.574219 207.25 188.386719 207.667969 C 188.238281 207.953125 188.019531 208.167969 187.734375 208.304688 C 187.183594 208.640625 186.042969 208.90625 184.332031 209.160156 C 184.96875 210.0625 185.371094 211.019531 185.625 212.058594 C 186.09375 214.085938 184.316406 215.675781 180.296875 216.800781 C 180.210938 216.851562 180.128906 216.867188 180.027344 216.867188 L 180.226562 218.222656 C 180.09375 218.457031 180.09375 218.859375 180.226562 219.429688 C 180.414062 220.316406 181.066406 221.777344 182.15625 223.820312 C 183.144531 225.847656 184.199219 227.808594 185.324219 229.703125 C 186.644531 231.8125 188.40625 232.566406 190.566406 231.898438 C 192.328125 231.328125 193.265625 228.847656 193.414062 224.457031 " fill-opacity="1" fill-rule="evenodd"/><path stroke-linecap="butt" transform="matrix(0.166533, 0, 0, -0.166537, -2517.787838, 2586.955666)" fill="none" stroke-linejoin="miter" d="M 16100.399912 14236.10591 C 16086.208806 14228.506236 16078.092902 14217.90422 16075.794177 14204.299864 M 15978.004559 13979.593433 C 16030.406096 13973.706031 16063.901796 13970.09384 16078.304009 13968.991418 C 16092.190181 13967.607526 16102.604811 13971.008615 16109.289877 13979.194685 C 16117.593433 13987.498033 16120.689674 13996.505055 16118.695883 14006.49722 C 16117.593433 14009.804486 16100.399912 14019.397902 16067.209145 14034.996 M 15970.709628 14064.691025 C 15971.812077 14069.499461 15974.392278 14072.407979 15978.309492 14073.205476 C 15983.094592 14074.401721 16007.606502 14064.198454 16051.892133 14042.994423 C 16057.592032 14039.898259 16062.705521 14037.200844 16067.209145 14034.996 C 16058.999414 14082.001395 16054.495791 14109.796502 16053.604449 14118.310952 C 16054.190858 14126.192096 16072.791761 14133.90905 16109.289877 14141.297623 C 16119.000815 14143.009895 16126.506855 14148.005978 16131.90182 14156.192047 C 16137.507893 14163.909001 16139.806618 14170.992648 16138.704168 14177.912105 C 16136.710377 14187.200596 16124.794539 14194.401523 16103.003569 14199.491428 C 16095.802463 14200.711129 16087.710014 14202.306122 16078.304009 14204.299864 C 16077.201559 14204.299864 16076.310217 14204.299864 16075.794177 14204.299864 C 16053.909381 14206.809633 16036.692404 14208.005879 16024.190157 14208.005879 C 16017.810024 14207.700953 16012.297776 14207.208382 16008.099086 14206.410885 L 16006.902811 14205.988681 C 15999.701704 14204.792436 15993.509222 14202.704871 15988.0908 14199.491428 M 16070.610319 14342.008785 C 16093.011155 14342.900105 16121.792124 14336.590498 16157.000139 14323.291067 C 16191.011879 14310.789133 16214.09295 14296.598383 16226.290264 14280.69536 C 16226.290264 14279.897863 16226.595197 14279.311468 16227.111237 14279.006543 M 16053.604449 14245.089476 L 16100.399912 14236.10591 L 16154.396482 14224.589119 C 16156.108797 14225.19897 16157.70383 14225.597718 16159.111213 14225.902643 C 16167.907352 14227.005065 16178.298525 14228.600059 16190.190906 14230.593801 C 16194.389597 14231.203651 16198.095704 14231.907325 16201.191945 14232.798644 M 16281.600391 14187.200596 C 16281.295458 14189.499263 16281.107807 14191.704107 16281.107807 14193.510203 C 16281.389283 14191.891753 16282.092974 14190.390583 16283.289249 14188.889413 C 16289.810121 14174.206091 16294.595221 14160.695558 16297.691462 14148.498549 C 16299.990187 14136.794112 16296.706295 14126.89577 16288.00398 14118.803524 C 16282.609015 14111.907523 16272.006734 14107.80276 16256.103313 14106.395413 M 16227.111237 14279.006543 C 16230.911169 14273.705536 16233.397545 14267.888501 16234.898753 14261.696173 C 16237.596235 14249.499164 16226.993955 14239.905748 16202.90426 14233.197393 C 16202.411677 14232.892468 16201.801811 14232.798644 16201.191945 14232.798644 " stroke="#954e40" stroke-width="0.993" stroke-opacity="1" stroke-miterlimit="10"/><path fill="#fefffe" d="M 450.953125 692.257812 L 451.300781 696.5 C 444.941406 705.285156 432.113281 708.382812 412.855469 705.792969 C 405.367188 695.390625 396.878906 692.929688 387.347656 698.414062 L 383.449219 651.371094 C 383.503906 651.335938 383.484375 651.316406 383.375 651.316406 C 380.878906 647.871094 380.644531 645.085938 382.664062 642.953125 C 384.140625 642.953125 385.488281 643.117188 386.765625 643.460938 C 408.0625 646.105469 429.164062 642.296875 450.023438 632.039062 C 451.828125 635.683594 452.027344 639.78125 450.679688 644.375 L 450.953125 692.257812 " fill-opacity="1" fill-rule="evenodd"/><path fill="#fdfffd" d="M 460.816406 716.042969 L 461.53125 739.074219 L 443.601562 752.253906 C 441.570312 736.679688 447.308594 724.597656 460.816406 716.042969 Z M 368.953125 730.5 C 387.03125 741.597656 400.207031 741.25 408.488281 729.441406 C 399.640625 725.199219 388.382812 723.539062 374.691406 724.488281 L 377.085938 722.003906 C 388.289062 720.59375 399.148438 722.441406 409.675781 727.523438 C 411.375 724.652344 412.417969 721.050781 412.800781 716.703125 C 397.886719 712.296875 387.667969 711.765625 382.203125 715.054688 L 383.539062 713.226562 C 389.351562 709.445312 399.128906 710.011719 412.855469 714.929688 C 412.855469 714.070312 412.855469 713.226562 412.855469 712.386719 C 406.585938 703.632812 397.90625 700.800781 386.863281 703.886719 L 387.578125 701.96875 C 396.917969 696.539062 405.34375 698.988281 412.800781 709.316406 C 432.25 712.023438 445.097656 708.804688 451.332031 699.703125 L 456.851562 696.15625 C 459.445312 699.976562 460.726562 705.699219 460.671875 713.285156 C 444.203125 722.40625 437.660156 735.984375 441.058594 754.027344 C 426.273438 762.421875 411.777344 768.757812 397.558594 773.007812 C 398.890625 756.292969 386.28125 743.9375 359.738281 735.96875 Z M 333.109375 779.242188 C 326.730469 766.722656 334.808594 752.855469 357.328125 737.667969 C 383.117188 745.507812 395.527344 757.589844 394.597656 773.933594 C 373.777344 779.820312 353.289062 781.605469 333.109375 779.242188 " fill-opacity="1" fill-rule="evenodd"/><path fill="#d8d9d8" d="M 451.261719 696.539062 L 451.40625 699.648438 C 445.171875 708.753906 432.316406 711.972656 412.875 709.265625 C 405.414062 698.933594 397.003906 696.484375 387.660156 701.914062 L 387.3125 698.441406 C 396.839844 692.972656 405.324219 695.421875 412.804688 705.808594 C 432.078125 708.40625 444.878906 705.316406 451.261719 696.539062 Z M 382.28125 715.007812 C 387.75 711.714844 397.953125 712.246094 412.875 716.652344 C 412.492188 721.007812 411.449219 724.609375 409.75 727.480469 C 399.234375 722.394531 388.371094 720.550781 377.164062 721.957031 Z M 383.617188 713.179688 L 386.945312 703.835938 C 397.992188 700.761719 406.660156 703.578125 412.929688 712.339844 C 412.929688 713.179688 412.929688 714.019531 412.929688 714.878906 C 399.199219 709.960938 389.414062 709.414062 383.617188 713.179688 Z M 369.023438 730.460938 L 374.765625 724.445312 C 388.464844 723.492188 399.730469 725.15625 408.5625 729.398438 C 400.296875 741.214844 387.109375 741.5625 369.023438 730.460938 Z M 460.75 713.234375 L 460.898438 715.996094 C 447.382812 724.554688 441.640625 736.625 443.671875 752.203125 L 461.609375 739.019531 L 462.945312 754.617188 C 427.523438 778.035156 397.132812 789.515625 371.714844 789.035156 C 346.074219 788.570312 333.21875 785.28125 333.183594 779.195312 C 353.351562 781.558594 373.835938 779.773438 394.664062 773.886719 C 395.613281 757.542969 383.179688 745.457031 357.414062 737.609375 C 358.109375 737.042969 358.929688 736.476562 359.828125 735.910156 C 386.359375 743.882812 398.960938 756.246094 397.644531 772.960938 C 411.851562 768.707031 426.355469 762.375 441.128906 753.976562 C 437.726562 735.929688 444.273438 722.359375 460.75 713.234375 " fill-opacity="1" fill-rule="evenodd"/><path fill="#5c5d5c" d="M 456.878906 696.132812 L 451.351562 699.671875 L 451.203125 696.570312 L 450.859375 692.320312 C 454.453125 693.488281 456.441406 694.765625 456.878906 696.132812 " fill-opacity="1" fill-rule="evenodd"/><path fill="#d8d9d8" d="M 629.785156 609.59375 L 627.101562 608.589844 C 626.863281 606.535156 627.101562 604.699219 627.8125 603.160156 C 628.007812 602.726562 628.226562 602.292969 628.523438 601.859375 C 633.335938 580.71875 632.980469 564.613281 627.457031 553.5625 L 630.773438 553.699219 C 636.296875 564.8125 636.851562 579.59375 632.410156 598.050781 C 632.273438 598.425781 632.191406 598.757812 632.132812 599.035156 L 632.351562 599.195312 Z M 636.101562 612.0625 L 635.390625 611.570312 L 631.640625 610.167969 L 633.832031 600.398438 L 637.9375 603.929688 Z M 642.199219 617.675781 L 637.601562 613.492188 L 639.652344 605.332031 L 644.585938 609.675781 Z M 643.246094 618.800781 L 645.730469 610.582031 C 651.792969 617.476562 652.796875 622.585938 648.773438 625.878906 L 648.710938 625.382812 Z M 683.707031 662.359375 C 687.613281 656.839844 689.191406 643.425781 688.441406 622.125 C 666.871094 621.710938 654.832031 625.84375 652.304688 634.527344 C 652.226562 634.296875 652.128906 634 652.027344 633.683594 C 653.785156 624.09375 665.882812 619.5625 688.363281 620.074219 L 683.332031 580.050781 C 659.035156 578.6875 645.457031 567.773438 642.691406 547.34375 L 645.238281 547.402344 C 648.632812 565.484375 661.1875 575.449219 682.917969 577.285156 L 678.023438 547.757812 L 686.746094 547.265625 C 696.082031 590.429688 699.277344 622.15625 696.296875 642.464844 C 693.238281 662.574219 689.015625 669.207031 683.707031 662.359375 " fill-opacity="1" fill-rule="evenodd"/><path fill="#fefffe" d="M 624.515625 553.402344 L 627.476562 553.539062 C 633.003906 564.597656 633.371094 580.699219 628.539062 601.851562 C 628.269531 602.273438 628.035156 602.699219 627.824219 603.144531 C 627.144531 604.691406 626.894531 606.507812 627.144531 608.578125 L 584.132812 605.464844 C 584.035156 605.523438 583.996094 605.601562 583.996094 605.753906 C 580.730469 607.554688 578.410156 607.457031 576.980469 605.464844 C 577.132812 604.382812 577.289062 603.28125 577.480469 602.21875 C 581.871094 584.605469 580.828125 566.605469 574.371094 548.242188 C 577.578125 546.964844 580.980469 547.136719 584.578125 548.800781 L 624.515625 553.402344 " fill-opacity="1" fill-rule="evenodd"/><path fill="#5c5d5c" d="M 630.742188 553.726562 L 627.421875 553.570312 L 624.445312 553.457031 C 625.855469 550.519531 626.53125 549.496094 626.433594 550.40625 C 626.53125 550.460938 626.570312 550.421875 626.570312 550.328125 C 627.246094 549.476562 628.617188 550.617188 630.742188 553.726562 " fill-opacity="1" fill-rule="evenodd"/><path fill="#fdfffd" d="M 652.003906 633.695312 L 648.757812 625.890625 C 652.769531 622.601562 651.769531 617.480469 645.707031 610.59375 L 643.230469 618.820312 L 642.167969 617.699219 L 644.566406 609.691406 L 639.628906 605.339844 L 637.5625 613.507812 L 636.085938 612.089844 L 637.917969 603.945312 L 633.824219 600.402344 L 631.621094 610.179688 L 629.773438 609.589844 L 632.328125 599.203125 L 632.113281 599.046875 C 632.171875 598.769531 632.25 598.433594 632.386719 598.0625 C 636.835938 579.605469 636.285156 564.8125 630.753906 553.714844 C 628.648438 550.605469 627.253906 549.464844 626.585938 550.308594 C 628 548.246094 633.351562 547.261719 642.660156 547.359375 C 645.453125 567.800781 659.007812 578.703125 683.304688 580.058594 L 688.34375 620.085938 C 665.875 619.574219 653.753906 624.105469 652.003906 633.695312 Z M 683.679688 662.375 C 669.277344 666.492188 658.8125 657.210938 652.300781 634.539062 C 654.796875 625.855469 666.839844 621.722656 688.421875 622.136719 C 689.167969 643.4375 687.59375 656.847656 683.679688 662.375 Z M 678.011719 547.773438 L 682.894531 577.304688 C 661.171875 575.476562 648.621094 565.5 645.214844 547.417969 L 678.011719 547.773438 " fill-opacity="1" fill-rule="evenodd"/><path fill="#f89865" d="M 194.832031 212.078125 L 195.761719 211.9375 C 195.953125 211.847656 196.183594 211.796875 196.464844 211.796875 C 202.171875 210.796875 207.296875 206.738281 211.828125 199.609375 C 207.296875 206.738281 202.171875 210.796875 196.464844 211.796875 C 196.183594 211.796875 195.953125 211.847656 195.761719 211.9375 L 194.832031 212.078125 L 191.003906 212.851562 L 186.050781 193.65625 C 177.21875 189.371094 175.164062 184.472656 179.886719 178.992188 C 182.34375 176.308594 185.648438 174.023438 189.808594 172.128906 C 190.792969 166.175781 189.808594 159.644531 186.839844 152.511719 C 184.804688 147.738281 181.589844 142.101562 177.199219 135.566406 C 174.496094 131.511719 173.054688 126.664062 172.792969 120.992188 L 173.300781 113.546875 C 175.375 100.042969 183.152344 86.574219 196.605469 73.105469 C 203.3125 66.308594 209.773438 60.847656 216.007812 56.738281 C 232.636719 42.304688 248.878906 35.351562 264.753906 35.914062 C 278.207031 36.386719 291.023438 42.09375 303.191406 53.070312 C 313.078125 61.796875 321.804688 73.175781 329.410156 87.207031 C 335.644531 98.496094 339.769531 108.507812 341.738281 117.234375 C 344.476562 129.648438 342.210938 143.839844 334.941406 159.800781 C 331.289062 168.019531 322.683594 182.648438 309.09375 203.71875 C 300.628906 217.171875 286.441406 227.144531 266.511719 233.605469 C 251.214844 238.523438 237.042969 240.527344 224.015625 239.628906 C 215.992188 239.015625 209.160156 236.207031 203.539062 231.199219 C 201.835938 229.585938 200.378906 227.917969 199.167969 226.160156 L 197.605469 223.773438 C 196.078125 220.3125 195.164062 216.433594 194.832031 212.078125 " fill-opacity="1" fill-rule="evenodd"/><path stroke-linecap="butt" transform="matrix(0.16745, 0, 0, -0.167455, -2517.787838, 2586.955666)" fill="none" stroke-linejoin="miter" d="M 16198.495407 14181.288677 L 16204.00077 14182.10513 C 16205.190488 14182.688311 16206.590156 14182.991565 16208.293086 14182.991565 C 16242.305029 14188.893353 16272.887784 14213.200322 16299.994696 14255.795835 " stroke="#000033" stroke-width="4.938" stroke-opacity="1" stroke-miterlimit="10"/><path fill="#330000" d="M 347.6875 77.757812 C 355.617188 92.71875 360.628906 105.980469 362.703125 117.492188 C 368.332031 148.246094 354.769531 175.179688 322.046875 198.320312 C 318.789062 198.320312 315.621094 197.4375 312.488281 195.683594 C 306.308594 192.300781 303.773438 186.40625 304.910156 178.066406 C 303.386719 169.035156 300.179688 161.953125 295.277344 156.800781 C 285.414062 146.652344 272.082031 151.417969 255.332031 171.105469 C 253.738281 163.828125 251.207031 155.597656 247.753906 146.386719 C 240.863281 127.9375 232.648438 113.808594 223.105469 104.035156 C 215.828125 104.140625 208.480469 103.308594 201.007812 101.554688 C 186.082031 98.15625 178.078125 92.136719 177 83.492188 C 177.050781 82.699219 177.175781 81.671875 177.421875 80.378906 C 178.078125 77.773438 179.015625 75.277344 180.257812 72.871094 C 184.082031 65.414062 190.242188 60.582031 198.742188 58.351562 L 200.726562 53.605469 C 202.621094 49.726562 204.886719 46.167969 207.523438 42.910156 C 216.113281 32.375 227.195312 26.53125 240.742188 25.363281 L 249.949219 20.671875 C 257.597656 17.359375 265.105469 15.144531 272.472656 14.011719 C 295.933594 10.648438 313.636719 19.199219 325.589844 39.652344 C 339.472656 63.414062 346.835938 76.109375 347.6875 77.757812 " fill-opacity="1" fill-rule="evenodd"/><path fill="#330000" d="M 189.226562 78.914062 C 191.390625 95.675781 201.5 107.617188 219.539062 114.734375 C 197.488281 114.46875 183.75 103.835938 178.308594 82.878906 L 189.226562 78.914062 " fill-opacity="1" fill-rule="evenodd"/><path fill="#77390d" d="M 287.140625 164.390625 C 284.953125 163.578125 282.609375 163.71875 280.042969 164.820312 C 281.007812 165.269531 281.730469 165.976562 282.246094 166.871094 C 283.175781 168.523438 283.4375 170.386719 282.953125 172.453125 C 282.523438 174.675781 281.558594 176.539062 280.042969 178.054688 C 278.4375 179.46875 276.785156 180.125 275.09375 180.035156 C 273.390625 180.125 272.113281 179.433594 271.253906 177.917969 C 270.375 176.261719 270.148438 174.265625 270.632812 171.886719 C 271.011719 170.058594 271.855469 168.472656 273.183594 167.148438 C 274.355469 165.390625 275.785156 164.046875 277.492188 163.113281 C 280.472656 161.132812 283.402344 160.753906 286.277344 161.976562 C 288.691406 163.011719 290.292969 165.097656 291.105469 168.199219 C 290.242188 166.421875 288.914062 165.148438 287.140625 164.390625 " fill-opacity="1" fill-rule="evenodd"/><path fill="#3a210b" d="M 188.554688 115.5 C 201.214844 115.886719 212.347656 118.828125 221.914062 124.34375 L 222.972656 133.003906 C 214.148438 130.683594 203.671875 129.640625 191.53125 129.875 C 189.125 124.292969 188.136719 119.5 188.554688 115.5 " fill-opacity="1" fill-rule="evenodd"/><path fill="#000000" d="M 205.609375 141.089844 C 209.523438 140.621094 213.089844 141.5625 216.300781 143.933594 C 219.375 146.4375 221.171875 149.628906 221.679688 153.5625 C 222.164062 157.429688 221.207031 160.925781 218.855469 164.035156 C 216.347656 167.246094 213.140625 169.078125 209.222656 169.566406 C 205.339844 170.070312 201.859375 169.078125 198.734375 166.59375 C 195.523438 164.171875 193.691406 161.042969 193.203125 157.160156 C 192.699219 153.261719 193.691406 149.679688 196.179688 146.46875 C 198.597656 143.394531 201.742188 141.613281 205.609375 141.089844 Z M 205.894531 142.941406 C 202.429688 143.394531 199.65625 145.007812 197.539062 147.746094 C 195.40625 150.488281 194.5625 153.582031 194.984375 157.027344 C 195.40625 160.421875 197.019531 163.164062 199.808594 165.246094 C 202.480469 167.414062 205.558594 168.257812 209.003906 167.800781 C 212.417969 167.367188 215.222656 165.800781 217.441406 163.046875 C 219.527344 160.304688 220.351562 157.246094 219.914062 153.832031 C 219.492188 150.402344 217.914062 147.628906 215.171875 145.546875 C 212.398438 143.394531 209.289062 142.503906 205.894531 142.941406 " fill-opacity="1" fill-rule="evenodd"/><path fill="#ffffcc" d="M 205.898438 142.933594 C 209.277344 142.511719 212.382812 143.386719 215.171875 145.554688 C 217.910156 147.636719 219.488281 150.390625 219.910156 153.835938 C 220.347656 157.246094 219.523438 160.304688 217.441406 163.042969 C 215.222656 165.796875 212.402344 167.359375 209.007812 167.796875 C 205.5625 168.265625 202.488281 167.410156 199.800781 165.242188 C 197.011719 163.160156 195.402344 160.421875 194.980469 157.027344 C 194.5625 153.566406 195.402344 150.476562 197.535156 147.753906 C 199.652344 145 202.4375 143.402344 205.898438 142.933594 " fill-opacity="1" fill-rule="evenodd"/><path fill="#3f0920" d="M 210.273438 153.054688 C 209.703125 152.785156 209.417969 152.433594 209.371094 151.996094 C 209.320312 151.527344 209.503906 151.140625 209.921875 150.855469 C 210.308594 150.488281 210.828125 150.253906 211.480469 150.152344 C 212.101562 150.070312 212.6875 150.152344 213.257812 150.457031 C 213.726562 150.621094 213.996094 150.957031 214.027344 151.445312 C 214.078125 151.847656 213.945312 152.25 213.609375 152.632812 C 213.191406 152.96875 212.671875 153.171875 212.050781 153.269531 C 211.398438 153.371094 210.8125 153.289062 210.273438 153.054688 " fill-opacity="1" fill-rule="evenodd"/><path stroke-linecap="butt" transform="matrix(0.167599, 0, 0, -0.167603, -2517.787838, 2586.955666)" fill="none" stroke-linejoin="miter" d="M 16277.292829 14521.789385 C 16280.509208 14520.390995 16284.005272 14519.901558 16287.897556 14520.507527 C 16291.603384 14521.09019 16294.703227 14522.302129 16297.197086 14524.306488 C 16299.201496 14526.590527 16299.993937 14528.991097 16299.690944 14531.391668 C 16299.504488 14534.304982 16297.896298 14536.309342 16295.099447 14537.288215 C 16291.696612 14539.106123 16288.200548 14539.59556 16284.49472 14539.106123 C 16280.602436 14538.500154 16277.502593 14537.101763 16275.195191 14534.910951 C 16272.701332 14533.209576 16271.605899 14530.902231 16271.908891 14528.10545 C 16272.188576 14525.495121 16273.889994 14523.397535 16277.292829 14521.789385 Z M 16277.292829 14521.789385 " stroke="#330000" stroke-width="2.467" stroke-opacity="1" stroke-miterlimit="10"/><g clip-path="url(#c37d0e21bf)"><g clip-path="url(#80465279b4)"><path fill="url(#37b5154897)" d="M 192.335938 160.460938 L 201.660156 136.035156 L 225.734375 145.875 L 216.40625 170.300781 Z M 192.335938 160.460938 " fill-rule="nonzero"/></g></g><path fill="#330033" d="M 207.800781 145.769531 C 209.964844 145.5 211.910156 145.988281 213.605469 147.265625 C 215.351562 148.640625 216.425781 150.402344 216.777344 152.566406 C 217.113281 154.746094 216.640625 156.691406 215.382812 158.371094 C 214.160156 160.082031 212.449219 161.074219 210.265625 161.359375 C 208.152344 161.644531 206.207031 161.121094 204.460938 159.796875 C 202.734375 158.472656 201.675781 156.726562 201.355469 154.5625 C 200.972656 152.398438 201.425781 150.417969 202.699219 148.671875 C 203.957031 147.027344 205.667969 146.054688 207.800781 145.769531 " fill-opacity="1" fill-rule="evenodd"/><path fill="#000000" d="M 205.179688 157.949219 C 203.90625 157.042969 203.136719 155.820312 202.851562 154.261719 C 202.597656 152.71875 202.984375 151.308594 203.972656 150.085938 C 204.964844 148.863281 206.269531 148.15625 207.878906 147.972656 C 209.472656 147.722656 210.964844 148.089844 212.339844 149.03125 C 213.613281 149.96875 214.351562 151.226562 214.601562 152.785156 C 214.886719 154.328125 214.519531 155.703125 213.53125 156.875 C 212.558594 158.117188 211.25 158.855469 209.640625 159.089844 C 208.046875 159.273438 206.554688 158.90625 205.179688 157.949219 " fill-opacity="1" fill-rule="evenodd"/><path stroke-linecap="butt" transform="matrix(0.167649, 0, 0, -0.167653, -2517.787838, 2586.955666)" fill="none" stroke-linejoin="miter" d="M 16242.091226 14488.296564 C 16250.292894 14482.588159 16259.193568 14480.397995 16268.700047 14481.493077 C 16278.299726 14482.891054 16286.105291 14487.294681 16291.907039 14494.703957 C 16297.801988 14501.693841 16299.992206 14509.895305 16298.291292 14519.098651 C 16296.80008 14528.395197 16292.396343 14535.897672 16284.80048 14541.489579 C 16276.598812 14547.104785 16267.698138 14549.294949 16258.19166 14547.803774 C 16248.59198 14546.708692 16240.809716 14542.491462 16234.891467 14535.198684 C 16228.996518 14527.905905 16226.689799 14519.494745 16228.204311 14510.291398 C 16229.905225 14500.994853 16234.495363 14493.702074 16242.091226 14488.296564 Z M 16242.091226 14488.296564 " stroke="#330000" stroke-width="0.986" stroke-opacity="1" stroke-miterlimit="10"/><path fill="#ffffff" d="M 199.039062 148.300781 C 199.289062 147.734375 199.773438 147.398438 200.523438 147.296875 C 201.292969 147.113281 202.113281 147.183594 202.996094 147.515625 C 203.816406 147.898438 204.433594 148.433594 204.851562 149.136719 C 205.269531 149.804688 205.386719 150.441406 205.203125 151.058594 C 205.019531 151.625 204.550781 151.976562 203.78125 152.109375 C 203.082031 152.261719 202.3125 152.144531 201.441406 151.757812 C 200.609375 151.390625 199.941406 150.839844 199.472656 150.121094 C 199.003906 149.46875 198.855469 148.851562 199.039062 148.300781 " fill-opacity="1" fill-rule="evenodd"/><path fill="#ffffff" d="M 201.714844 156.296875 C 201.433594 156.148438 201.28125 155.929688 201.25 155.664062 C 201.199219 155.378906 201.28125 155.09375 201.515625 154.8125 C 201.75 154.578125 202.050781 154.429688 202.433594 154.378906 C 202.820312 154.328125 203.136719 154.378906 203.417969 154.527344 C 203.703125 154.761719 203.871094 155.027344 203.921875 155.3125 C 203.972656 155.597656 203.871094 155.8125 203.636719 156.015625 C 203.402344 156.296875 203.101562 156.464844 202.71875 156.515625 C 202.351562 156.546875 202.015625 156.480469 201.714844 156.296875 " fill-opacity="1" fill-rule="evenodd"/><path fill="#ffffff" d="M 214.777344 147.074219 C 215.230469 147.023438 215.667969 147.175781 216.054688 147.511719 C 216.457031 147.847656 216.726562 148.25 216.824219 148.785156 C 216.910156 149.339844 216.792969 149.84375 216.457031 150.277344 C 216.238281 150.683594 215.886719 150.933594 215.398438 150.984375 C 214.894531 151.066406 214.410156 150.949219 213.988281 150.613281 C 213.621094 150.296875 213.371094 149.84375 213.285156 149.289062 C 213.183594 148.753906 213.285156 148.28125 213.570312 147.863281 C 213.855469 147.425781 214.242188 147.175781 214.777344 147.074219 " fill-opacity="1" fill-rule="evenodd"/></svg>