<svg xmlns="http://www.w3.org/2000/svg" xmlns:xlink="http://www.w3.org/1999/xlink" width="1080" zoomAndPan="magnify" viewBox="0 0 810 809.999993" height="1080" preserveAspectRatio="xMidYMid meet" version="1.0"><defs><clipPath id="c95b71de6e"><path d="M 307 145 L 326 145 L 326 164 L 307 164 Z M 307 145 " clip-rule="nonzero"/></clipPath><clipPath id="5f057ca59e"><path d="M 311.503906 161.089844 C 309.539062 159.542969 308.386719 157.511719 308.0625 154.992188 C 307.667969 152.542969 308.222656 150.347656 309.75 148.40625 C 311.25 146.488281 313.238281 145.359375 315.6875 145.082031 C 318.15625 144.804688 320.375 145.449219 322.363281 146.996094 C 324.347656 148.546875 325.503906 150.554688 325.898438 153.027344 C 326.222656 155.523438 325.621094 157.742188 324.117188 159.679688 C 322.617188 161.621094 320.628906 162.730469 318.179688 163.007812 C 315.730469 163.285156 313.492188 162.660156 311.503906 161.089844 " clip-rule="evenodd"/></clipPath><radialGradient gradientTransform="matrix(0.929, 0.398947, 0.368988, -0.917547, 1405.788321, -1337.389088)" gradientUnits="userSpaceOnUse" r="17.362112" cx="0" id="d94ad87f8f" cy="0" fx="0" fy="0"><stop stop-opacity="1" stop-color="rgb(57.446289%, 2.047729%, 2.165222%)" offset="0"/><stop stop-opacity="1" stop-color="rgb(57.215881%, 2.120972%, 2.415466%)" offset="0.0078125"/><stop stop-opacity="1" stop-color="rgb(57.063293%, 2.1698%, 2.581787%)" offset="0.0117188"/><stop stop-opacity="1" stop-color="rgb(56.90918%, 2.218628%, 2.749634%)" offset="0.015625"/><stop stop-opacity="1" stop-color="rgb(56.756592%, 2.267456%, 2.915955%)" offset="0.0195312"/><stop stop-opacity="1" stop-color="rgb(56.604004%, 2.316284%, 3.082275%)" offset="0.0234375"/><stop stop-opacity="1" stop-color="rgb(56.44989%, 2.365112%, 3.250122%)" offset="0.0273438"/><stop stop-opacity="1" stop-color="rgb(56.297302%, 2.41394%, 3.416443%)" offset="0.03125"/><stop stop-opacity="1" stop-color="rgb(56.144714%, 2.462769%, 3.582764%)" offset="0.0351562"/><stop stop-opacity="1" stop-color="rgb(55.990601%, 2.511597%, 3.75061%)" offset="0.0390625"/><stop stop-opacity="1" stop-color="rgb(55.838013%, 2.560425%, 3.916931%)" offset="0.0429688"/><stop stop-opacity="1" stop-color="rgb(55.685425%, 2.609253%, 4.083252%)" offset="0.046875"/><stop stop-opacity="1" stop-color="rgb(55.531311%, 2.658081%, 4.251099%)" offset="0.0507812"/><stop stop-opacity="1" stop-color="rgb(55.378723%, 2.706909%, 4.417419%)" offset="0.0546875"/><stop stop-opacity="1" stop-color="rgb(55.226135%, 2.755737%, 4.58374%)" offset="0.0585938"/><stop stop-opacity="1" stop-color="rgb(55.072021%, 2.804565%, 4.751587%)" offset="0.0625"/><stop stop-opacity="1" stop-color="rgb(54.919434%, 2.853394%, 4.917908%)" offset="0.0664062"/><stop stop-opacity="1" stop-color="rgb(54.766846%, 2.902222%, 5.084229%)" offset="0.0703125"/><stop stop-opacity="1" stop-color="rgb(54.612732%, 2.95105%, 5.250549%)" offset="0.0742188"/><stop stop-opacity="1" stop-color="rgb(54.460144%, 2.999878%, 5.418396%)" offset="0.078125"/><stop stop-opacity="1" stop-color="rgb(54.30603%, 3.048706%, 5.584717%)" offset="0.0820312"/><stop stop-opacity="1" stop-color="rgb(54.153442%, 3.097534%, 5.751038%)" offset="0.0859375"/><stop stop-opacity="1" stop-color="rgb(54.000854%, 3.146362%, 5.918884%)" offset="0.0898438"/><stop stop-opacity="1" stop-color="rgb(53.846741%, 3.19519%, 6.085205%)" offset="0.09375"/><stop stop-opacity="1" stop-color="rgb(53.694153%, 3.244019%, 6.251526%)" offset="0.0976562"/><stop stop-opacity="1" stop-color="rgb(53.541565%, 3.292847%, 6.419373%)" offset="0.101562"/><stop stop-opacity="1" stop-color="rgb(53.387451%, 3.341675%, 6.585693%)" offset="0.105469"/><stop stop-opacity="1" stop-color="rgb(53.234863%, 3.390503%, 6.752014%)" offset="0.109375"/><stop stop-opacity="1" stop-color="rgb(53.082275%, 3.439331%, 6.919861%)" offset="0.113281"/><stop stop-opacity="1" stop-color="rgb(52.928162%, 3.488159%, 7.086182%)" offset="0.117188"/><stop stop-opacity="1" stop-color="rgb(52.775574%, 3.536987%, 7.252502%)" offset="0.121094"/><stop stop-opacity="1" stop-color="rgb(52.622986%, 3.585815%, 7.420349%)" offset="0.125"/><stop stop-opacity="1" stop-color="rgb(52.468872%, 3.634644%, 7.58667%)" offset="0.128906"/><stop stop-opacity="1" stop-color="rgb(52.316284%, 3.683472%, 7.752991%)" offset="0.132812"/><stop stop-opacity="1" stop-color="rgb(52.163696%, 3.7323%, 7.919312%)" offset="0.136719"/><stop stop-opacity="1" stop-color="rgb(52.009583%, 3.781128%, 8.087158%)" offset="0.140625"/><stop stop-opacity="1" stop-color="rgb(51.856995%, 3.829956%, 8.253479%)" offset="0.144531"/><stop stop-opacity="1" stop-color="rgb(51.704407%, 3.878784%, 8.4198%)" offset="0.148438"/><stop stop-opacity="1" stop-color="rgb(51.550293%, 3.927612%, 8.587646%)" offset="0.152344"/><stop stop-opacity="1" stop-color="rgb(51.397705%, 3.97644%, 8.753967%)" offset="0.15625"/><stop stop-opacity="1" stop-color="rgb(51.243591%, 4.025269%, 8.920288%)" offset="0.160156"/><stop stop-opacity="1" stop-color="rgb(51.091003%, 4.074097%, 9.088135%)" offset="0.164062"/><stop stop-opacity="1" stop-color="rgb(50.938416%, 4.122925%, 9.254456%)" offset="0.167969"/><stop stop-opacity="1" stop-color="rgb(50.784302%, 4.171753%, 9.420776%)" offset="0.171875"/><stop stop-opacity="1" stop-color="rgb(50.631714%, 4.220581%, 9.588623%)" offset="0.175781"/><stop stop-opacity="1" stop-color="rgb(50.479126%, 4.269409%, 9.754944%)" offset="0.179688"/><stop stop-opacity="1" stop-color="rgb(50.325012%, 4.318237%, 9.921265%)" offset="0.183594"/><stop stop-opacity="1" stop-color="rgb(50.172424%, 4.367065%, 10.089111%)" offset="0.1875"/><stop stop-opacity="1" stop-color="rgb(50.019836%, 4.415894%, 10.255432%)" offset="0.191406"/><stop stop-opacity="1" stop-color="rgb(49.865723%, 4.464722%, 10.421753%)" offset="0.195312"/><stop stop-opacity="1" stop-color="rgb(49.713135%, 4.51355%, 10.588074%)" offset="0.199219"/><stop stop-opacity="1" stop-color="rgb(49.560547%, 4.562378%, 10.75592%)" offset="0.203125"/><stop stop-opacity="1" stop-color="rgb(49.406433%, 4.611206%, 10.922241%)" offset="0.207031"/><stop stop-opacity="1" stop-color="rgb(49.253845%, 4.660034%, 11.088562%)" offset="0.210938"/><stop stop-opacity="1" stop-color="rgb(49.101257%, 4.708862%, 11.256409%)" offset="0.214844"/><stop stop-opacity="1" stop-color="rgb(48.947144%, 4.75769%, 11.422729%)" offset="0.21875"/><stop stop-opacity="1" stop-color="rgb(48.794556%, 4.806519%, 11.58905%)" offset="0.222656"/><stop stop-opacity="1" stop-color="rgb(48.640442%, 4.855347%, 11.756897%)" offset="0.226562"/><stop stop-opacity="1" stop-color="rgb(48.487854%, 4.904175%, 11.923218%)" offset="0.230469"/><stop stop-opacity="1" stop-color="rgb(48.335266%, 4.953003%, 12.089539%)" offset="0.234375"/><stop stop-opacity="1" stop-color="rgb(48.181152%, 5.001831%, 12.257385%)" offset="0.238281"/><stop stop-opacity="1" stop-color="rgb(48.028564%, 5.050659%, 12.423706%)" offset="0.242188"/><stop stop-opacity="1" stop-color="rgb(47.875977%, 5.099487%, 12.590027%)" offset="0.246094"/><stop stop-opacity="1" stop-color="rgb(47.721863%, 5.148315%, 12.757874%)" offset="0.25"/><stop stop-opacity="1" stop-color="rgb(47.492981%, 5.221558%, 13.008118%)" offset="0.253906"/><stop stop-opacity="1" stop-color="rgb(47.186279%, 5.319214%, 13.340759%)" offset="0.261719"/><stop stop-opacity="1" stop-color="rgb(46.879578%, 5.41687%, 13.674927%)" offset="0.269531"/><stop stop-opacity="1" stop-color="rgb(46.574402%, 5.514526%, 14.007568%)" offset="0.277344"/><stop stop-opacity="1" stop-color="rgb(46.2677%, 5.612183%, 14.341736%)" offset="0.285156"/><stop stop-opacity="1" stop-color="rgb(45.960999%, 5.709839%, 14.675903%)" offset="0.292969"/><stop stop-opacity="1" stop-color="rgb(45.654297%, 5.807495%, 15.008545%)" offset="0.300781"/><stop stop-opacity="1" stop-color="rgb(45.349121%, 5.905151%, 15.342712%)" offset="0.308594"/><stop stop-opacity="1" stop-color="rgb(45.042419%, 6.002808%, 15.675354%)" offset="0.316406"/><stop stop-opacity="1" stop-color="rgb(44.735718%, 6.100464%, 16.009521%)" offset="0.324219"/><stop stop-opacity="1" stop-color="rgb(44.430542%, 6.19812%, 16.343689%)" offset="0.332031"/><stop stop-opacity="1" stop-color="rgb(44.12384%, 6.295776%, 16.676331%)" offset="0.339844"/><stop stop-opacity="1" stop-color="rgb(43.817139%, 6.393433%, 17.010498%)" offset="0.347656"/><stop stop-opacity="1" stop-color="rgb(43.511963%, 6.491089%, 17.344666%)" offset="0.355469"/><stop stop-opacity="1" stop-color="rgb(43.205261%, 6.588745%, 17.677307%)" offset="0.363281"/><stop stop-opacity="1" stop-color="rgb(42.89856%, 6.686401%, 18.011475%)" offset="0.371094"/><stop stop-opacity="1" stop-color="rgb(42.591858%, 6.784058%, 18.344116%)" offset="0.378906"/><stop stop-opacity="1" stop-color="rgb(42.286682%, 6.881714%, 18.678284%)" offset="0.386719"/><stop stop-opacity="1" stop-color="rgb(41.97998%, 6.97937%, 19.012451%)" offset="0.394531"/><stop stop-opacity="1" stop-color="rgb(41.673279%, 7.077026%, 19.345093%)" offset="0.402344"/><stop stop-opacity="1" stop-color="rgb(41.368103%, 7.174683%, 19.67926%)" offset="0.410156"/><stop stop-opacity="1" stop-color="rgb(41.061401%, 7.272339%, 20.013428%)" offset="0.417969"/><stop stop-opacity="1" stop-color="rgb(40.7547%, 7.369995%, 20.346069%)" offset="0.425781"/><stop stop-opacity="1" stop-color="rgb(40.447998%, 7.467651%, 20.680237%)" offset="0.433594"/><stop stop-opacity="1" stop-color="rgb(40.142822%, 7.565308%, 21.012878%)" offset="0.441406"/><stop stop-opacity="1" stop-color="rgb(39.836121%, 7.662964%, 21.347046%)" offset="0.449219"/><stop stop-opacity="1" stop-color="rgb(39.529419%, 7.76062%, 21.681213%)" offset="0.457031"/><stop stop-opacity="1" stop-color="rgb(39.224243%, 7.858276%, 22.013855%)" offset="0.464844"/><stop stop-opacity="1" stop-color="rgb(38.917542%, 7.955933%, 22.348022%)" offset="0.472656"/><stop stop-opacity="1" stop-color="rgb(38.61084%, 8.053589%, 22.68219%)" offset="0.480469"/><stop stop-opacity="1" stop-color="rgb(38.305664%, 8.151245%, 23.014832%)" offset="0.488281"/><stop stop-opacity="1" stop-color="rgb(37.998962%, 8.248901%, 23.348999%)" offset="0.496094"/><stop stop-opacity="1" stop-color="rgb(37.768555%, 8.322144%, 23.599243%)" offset="0.503906"/><stop stop-opacity="1" stop-color="rgb(37.615967%, 8.370972%, 23.765564%)" offset="0.507812"/><stop stop-opacity="1" stop-color="rgb(37.463379%, 8.4198%, 23.931885%)" offset="0.511719"/><stop stop-opacity="1" stop-color="rgb(37.309265%, 8.468628%, 24.099731%)" offset="0.515625"/><stop stop-opacity="1" stop-color="rgb(37.156677%, 8.517456%, 24.266052%)" offset="0.519531"/><stop stop-opacity="1" stop-color="rgb(37.004089%, 8.566284%, 24.432373%)" offset="0.523438"/><stop stop-opacity="1" stop-color="rgb(36.849976%, 8.615112%, 24.60022%)" offset="0.527344"/><stop stop-opacity="1" stop-color="rgb(36.697388%, 8.66394%, 24.766541%)" offset="0.53125"/><stop stop-opacity="1" stop-color="rgb(36.5448%, 8.712769%, 24.932861%)" offset="0.535156"/><stop stop-opacity="1" stop-color="rgb(36.390686%, 8.761597%, 25.100708%)" offset="0.539062"/><stop stop-opacity="1" stop-color="rgb(36.238098%, 8.810425%, 25.267029%)" offset="0.542969"/><stop stop-opacity="1" stop-color="rgb(36.08551%, 8.859253%, 25.43335%)" offset="0.546875"/><stop stop-opacity="1" stop-color="rgb(35.931396%, 8.908081%, 25.601196%)" offset="0.550781"/><stop stop-opacity="1" stop-color="rgb(35.778809%, 8.956909%, 25.767517%)" offset="0.554688"/><stop stop-opacity="1" stop-color="rgb(35.626221%, 9.005737%, 25.933838%)" offset="0.558594"/><stop stop-opacity="1" stop-color="rgb(35.472107%, 9.054565%, 26.100159%)" offset="0.5625"/><stop stop-opacity="1" stop-color="rgb(35.319519%, 9.103394%, 26.268005%)" offset="0.566406"/><stop stop-opacity="1" stop-color="rgb(35.165405%, 9.152222%, 26.434326%)" offset="0.570312"/><stop stop-opacity="1" stop-color="rgb(35.012817%, 9.20105%, 26.600647%)" offset="0.574219"/><stop stop-opacity="1" stop-color="rgb(34.860229%, 9.249878%, 26.768494%)" offset="0.578125"/><stop stop-opacity="1" stop-color="rgb(34.706116%, 9.298706%, 26.934814%)" offset="0.582031"/><stop stop-opacity="1" stop-color="rgb(34.553528%, 9.347534%, 27.101135%)" offset="0.585938"/><stop stop-opacity="1" stop-color="rgb(34.40094%, 9.396362%, 27.268982%)" offset="0.589844"/><stop stop-opacity="1" stop-color="rgb(34.246826%, 9.44519%, 27.435303%)" offset="0.59375"/><stop stop-opacity="1" stop-color="rgb(34.094238%, 9.494019%, 27.601624%)" offset="0.597656"/><stop stop-opacity="1" stop-color="rgb(33.94165%, 9.542847%, 27.76947%)" offset="0.601562"/><stop stop-opacity="1" stop-color="rgb(33.787537%, 9.591675%, 27.935791%)" offset="0.605469"/><stop stop-opacity="1" stop-color="rgb(33.634949%, 9.640503%, 28.102112%)" offset="0.609375"/><stop stop-opacity="1" stop-color="rgb(33.482361%, 9.689331%, 28.269958%)" offset="0.613281"/><stop stop-opacity="1" stop-color="rgb(33.328247%, 9.738159%, 28.436279%)" offset="0.617188"/><stop stop-opacity="1" stop-color="rgb(33.175659%, 9.786987%, 28.6026%)" offset="0.621094"/><stop stop-opacity="1" stop-color="rgb(33.023071%, 9.835815%, 28.768921%)" offset="0.625"/><stop stop-opacity="1" stop-color="rgb(32.792664%, 9.909058%, 29.019165%)" offset="0.628906"/><stop stop-opacity="1" stop-color="rgb(32.485962%, 10.006714%, 29.353333%)" offset="0.636719"/><stop stop-opacity="1" stop-color="rgb(32.17926%, 10.10437%, 29.6875%)" offset="0.644531"/><stop stop-opacity="1" stop-color="rgb(31.874084%, 10.202026%, 30.020142%)" offset="0.652344"/><stop stop-opacity="1" stop-color="rgb(31.567383%, 10.299683%, 30.354309%)" offset="0.660156"/><stop stop-opacity="1" stop-color="rgb(31.260681%, 10.397339%, 30.688477%)" offset="0.667969"/><stop stop-opacity="1" stop-color="rgb(30.955505%, 10.494995%, 31.021118%)" offset="0.675781"/><stop stop-opacity="1" stop-color="rgb(30.648804%, 10.592651%, 31.355286%)" offset="0.683594"/><stop stop-opacity="1" stop-color="rgb(30.342102%, 10.690308%, 31.687927%)" offset="0.691406"/><stop stop-opacity="1" stop-color="rgb(30.036926%, 10.787964%, 32.022095%)" offset="0.699219"/><stop stop-opacity="1" stop-color="rgb(29.730225%, 10.88562%, 32.356262%)" offset="0.707031"/><stop stop-opacity="1" stop-color="rgb(29.423523%, 10.983276%, 32.688904%)" offset="0.714844"/><stop stop-opacity="1" stop-color="rgb(29.116821%, 11.080933%, 33.023071%)" offset="0.722656"/><stop stop-opacity="1" stop-color="rgb(28.811646%, 11.178589%, 33.357239%)" offset="0.730469"/><stop stop-opacity="1" stop-color="rgb(28.504944%, 11.276245%, 33.68988%)" offset="0.738281"/><stop stop-opacity="1" stop-color="rgb(28.198242%, 11.373901%, 34.024048%)" offset="0.746094"/><stop stop-opacity="1" stop-color="rgb(27.96936%, 11.447144%, 34.274292%)" offset="0.753906"/><stop stop-opacity="1" stop-color="rgb(27.816772%, 11.495972%, 34.440613%)" offset="0.757812"/><stop stop-opacity="1" stop-color="rgb(27.662659%, 11.5448%, 34.606934%)" offset="0.761719"/><stop stop-opacity="1" stop-color="rgb(27.510071%, 11.593628%, 34.77478%)" offset="0.765625"/><stop stop-opacity="1" stop-color="rgb(27.357483%, 11.642456%, 34.941101%)" offset="0.769531"/><stop stop-opacity="1" stop-color="rgb(27.203369%, 11.691284%, 35.107422%)" offset="0.773438"/><stop stop-opacity="1" stop-color="rgb(27.050781%, 11.740112%, 35.275269%)" offset="0.777344"/><stop stop-opacity="1" stop-color="rgb(26.896667%, 11.78894%, 35.441589%)" offset="0.78125"/><stop stop-opacity="1" stop-color="rgb(26.74408%, 11.837769%, 35.60791%)" offset="0.785156"/><stop stop-opacity="1" stop-color="rgb(26.591492%, 11.886597%, 35.775757%)" offset="0.789062"/><stop stop-opacity="1" stop-color="rgb(26.437378%, 11.935425%, 35.942078%)" offset="0.792969"/><stop stop-opacity="1" stop-color="rgb(26.28479%, 11.984253%, 36.108398%)" offset="0.796875"/><stop stop-opacity="1" stop-color="rgb(26.132202%, 12.033081%, 36.274719%)" offset="0.800781"/><stop stop-opacity="1" stop-color="rgb(25.978088%, 12.081909%, 36.442566%)" offset="0.804688"/><stop stop-opacity="1" stop-color="rgb(25.8255%, 12.130737%, 36.608887%)" offset="0.808594"/><stop stop-opacity="1" stop-color="rgb(25.672913%, 12.179565%, 36.775208%)" offset="0.8125"/><stop stop-opacity="1" stop-color="rgb(25.442505%, 12.252808%, 37.025452%)" offset="0.816406"/><stop stop-opacity="1" stop-color="rgb(25.135803%, 12.350464%, 37.359619%)" offset="0.824219"/><stop stop-opacity="1" stop-color="rgb(24.830627%, 12.44812%, 37.693787%)" offset="0.832031"/><stop stop-opacity="1" stop-color="rgb(24.523926%, 12.545776%, 38.026428%)" offset="0.839844"/><stop stop-opacity="1" stop-color="rgb(24.217224%, 12.643433%, 38.360596%)" offset="0.847656"/><stop stop-opacity="1" stop-color="rgb(23.910522%, 12.741089%, 38.694763%)" offset="0.855469"/><stop stop-opacity="1" stop-color="rgb(23.605347%, 12.838745%, 39.027405%)" offset="0.863281"/><stop stop-opacity="1" stop-color="rgb(23.298645%, 12.936401%, 39.361572%)" offset="0.871094"/><stop stop-opacity="1" stop-color="rgb(23.069763%, 13.009644%, 39.611816%)" offset="0.878906"/><stop stop-opacity="1" stop-color="rgb(22.915649%, 13.058472%, 39.778137%)" offset="0.882812"/><stop stop-opacity="1" stop-color="rgb(22.763062%, 13.1073%, 39.944458%)" offset="0.886719"/><stop stop-opacity="1" stop-color="rgb(22.610474%, 13.156128%, 40.112305%)" offset="0.890625"/><stop stop-opacity="1" stop-color="rgb(22.45636%, 13.204956%, 40.278625%)" offset="0.894531"/><stop stop-opacity="1" stop-color="rgb(22.303772%, 13.253784%, 40.444946%)" offset="0.898438"/><stop stop-opacity="1" stop-color="rgb(22.151184%, 13.302612%, 40.612793%)" offset="0.902344"/><stop stop-opacity="1" stop-color="rgb(21.99707%, 13.35144%, 40.779114%)" offset="0.90625"/><stop stop-opacity="1" stop-color="rgb(21.768188%, 13.424683%, 41.029358%)" offset="0.910156"/><stop stop-opacity="1" stop-color="rgb(21.461487%, 13.522339%, 41.363525%)" offset="0.917969"/><stop stop-opacity="1" stop-color="rgb(21.154785%, 13.619995%, 41.696167%)" offset="0.925781"/><stop stop-opacity="1" stop-color="rgb(20.848083%, 13.717651%, 42.030334%)" offset="0.933594"/><stop stop-opacity="1" stop-color="rgb(20.619202%, 13.790894%, 42.280579%)" offset="0.941406"/><stop stop-opacity="1" stop-color="rgb(20.466614%, 13.839722%, 42.446899%)" offset="0.945312"/><stop stop-opacity="1" stop-color="rgb(20.3125%, 13.88855%, 42.61322%)" offset="0.949219"/><stop stop-opacity="1" stop-color="rgb(20.159912%, 13.937378%, 42.781067%)" offset="0.953125"/><stop stop-opacity="1" stop-color="rgb(19.929504%, 14.01062%, 43.031311%)" offset="0.957031"/><stop stop-opacity="1" stop-color="rgb(19.624329%, 14.108276%, 43.363953%)" offset="0.964844"/><stop stop-opacity="1" stop-color="rgb(19.393921%, 14.181519%, 43.614197%)" offset="0.972656"/><stop stop-opacity="1" stop-color="rgb(19.241333%, 14.230347%, 43.782043%)" offset="0.976562"/><stop stop-opacity="1" stop-color="rgb(19.010925%, 14.303589%, 44.032288%)" offset="0.980469"/><stop stop-opacity="1" stop-color="rgb(18.782043%, 14.376831%, 44.281006%)" offset="0.988281"/><stop stop-opacity="1" stop-color="rgb(18.551636%, 14.450073%, 44.53125%)" offset="0.992188"/><stop stop-opacity="1" stop-color="rgb(18.399048%, 14.498901%, 44.699097%)" offset="1"/></radialGradient></defs><rect x="-81" width="972" fill="#697a7a" y="-80.999999" height="971.999992" fill-opacity="1"/><path fill="#0000ff" d="M 316.628906 175.128906 L 316.789062 175.199219 L 316.859375 175.265625 L 316.925781 175.402344 L 317.0625 175.632812 L 317.0625 175.769531 L 317.339844 176.414062 L 317.339844 177.191406 L 317.222656 177.191406 L 317.222656 176.34375 L 317.0625 176.183594 L 316.996094 176.046875 L 316.996094 175.839844 C 316.996094 175.703125 316.925781 175.609375 316.789062 175.5625 L 316.628906 175.199219 L 316.628906 175.128906 " fill-opacity="1" fill-rule="evenodd"/><path fill="#e38b5c" d="M 505.519531 563.5 C 505.621094 563.871094 505.742188 564.300781 505.949219 564.773438 C 509.480469 573.847656 514.902344 582.78125 522.152344 591.613281 C 521.964844 591.53125 521.925781 591.570312 522.027344 591.753906 L 524.082031 593.664062 C 523.917969 593.769531 523.8125 593.890625 523.730469 594.035156 C 514.511719 603.5625 504.675781 617.035156 494.183594 634.40625 C 484.304688 618.859375 475.105469 601.859375 466.566406 583.398438 L 505.519531 563.5 " fill-opacity="1" fill-rule="evenodd"/><path fill="#f89865" d="M 349.363281 331.203125 L 386.257812 344.382812 C 380.21875 357.359375 374.550781 369.128906 369.257812 379.648438 C 357.730469 383.382812 345.652344 379.253906 332.984375 367.261719 C 340.121094 353.273438 345.585938 341.261719 349.363281 331.203125 " fill-opacity="1" fill-rule="evenodd"/><path fill="#f89865" d="M 365.710938 386.53125 C 362.023438 393.378906 357.835938 399.683594 353.121094 405.445312 C 338.832031 424.511719 324.152344 441.503906 309.054688 456.363281 C 296.730469 461.902344 288.113281 456.582031 283.203125 440.4375 C 307.59375 406.621094 323.933594 381.96875 332.203125 366.480469 C 334.1875 363.1875 336.171875 359.890625 338.15625 356.640625 C 352.425781 354.65625 364.707031 358.605469 375.003906 368.464844 C 372.015625 374.945312 368.917969 380.964844 365.710938 386.53125 " fill-opacity="1" fill-rule="evenodd"/><path fill="#c42828" d="M 412.183594 272.09375 C 405.542969 299.570312 396.273438 326.734375 384.414062 353.539062 C 368.613281 354.824219 354.929688 349.917969 343.410156 338.820312 C 355.652344 314.066406 365.914062 288.296875 374.148438 261.46875 C 377.324219 251.410156 383.195312 245.265625 391.792969 243.058594 C 398.835938 242.25 404.800781 243.871094 409.707031 247.945312 C 413.441406 252.941406 414.277344 260.996094 412.183594 272.09375 " fill-opacity="1" fill-rule="evenodd"/><path fill="#f89865" d="M 271.894531 477.765625 C 269.164062 475.117188 266.792969 472.257812 264.808594 469.1875 C 266.792969 472.257812 269.164062 475.117188 271.894531 477.765625 Z M 278.828125 483.078125 C 276.289062 481.371094 273.964844 479.601562 271.894531 477.765625 C 267.605469 484.742188 264.980469 492.746094 264.042969 501.773438 C 264.980469 492.746094 267.605469 484.742188 271.894531 477.765625 C 273.964844 479.601562 276.289062 481.371094 278.828125 483.078125 Z M 281.304688 484.574219 C 280.472656 484.082031 279.640625 483.589844 278.828125 483.078125 C 274.902344 490.058594 272.960938 497.289062 272.960938 504.738281 C 272.960938 504.84375 273.027344 504.929688 273.175781 505.035156 C 273.027344 504.929688 272.960938 504.84375 272.960938 504.738281 C 272.960938 497.289062 274.902344 490.058594 278.828125 483.078125 C 279.640625 483.589844 280.472656 484.082031 281.304688 484.574219 Z M 264.042969 501.773438 C 259.113281 503.179688 256.808594 501.496094 257.085938 496.671875 C 257.085938 496.480469 257.085938 496.289062 257.085938 496.117188 C 257.085938 494.21875 257.171875 492.339844 257.296875 490.441406 C 258.003906 483.546875 260.308594 476.761719 264.191406 470.105469 C 264.40625 469.828125 264.617188 469.527344 264.808594 469.1875 L 266.878906 466.21875 L 264.808594 469.1875 C 264.617188 469.527344 264.40625 469.828125 264.191406 470.105469 C 260.308594 476.761719 258.003906 483.546875 257.296875 490.441406 C 256.785156 494.878906 255.464844 497.097656 253.328125 497.097656 C 252.113281 496.628906 251.066406 495.539062 250.214844 493.832031 C 250 493.277344 249.789062 492.679688 249.574219 492.0625 C 249.167969 484.976562 249.554688 479.152344 250.789062 474.5625 C 253.328125 466.261719 256.425781 460.03125 260.074219 455.871094 C 270.785156 448.742188 280.773438 440.890625 290.03125 432.289062 C 293.105469 433.996094 297.375 436.34375 302.835938 439.375 C 308.277344 442.257812 312.160156 444.496094 314.53125 446.097656 C 314.914062 455.210938 310.882812 462.679688 302.429688 468.484375 C 296.945312 472.023438 291.804688 478.023438 286.980469 486.472656 L 278.828125 504.035156 C 276.761719 506.789062 274.96875 507.277344 273.453125 505.527344 C 273.367188 505.335938 273.261719 505.164062 273.175781 505.039062 C 267.605469 507.917969 264.554688 507.234375 264.042969 502.988281 L 263.894531 502.988281 C 263.976562 502.605469 264.042969 502.199219 264.042969 501.773438 Z M 301.726562 441.082031 C 302.28125 442.214844 302.558594 443.578125 302.558594 445.179688 C 302.558594 449 300.894531 452.457031 297.542969 455.527344 C 293.511719 459.199219 291.25 461.996094 290.738281 463.871094 C 289.371094 468.609375 288.433594 471.535156 287.984375 472.664062 C 286.171875 475.695312 283.523438 476.996094 280.046875 476.632812 C 277.550781 475.78125 276.289062 473.644531 276.289062 470.253906 C 276.289062 469.273438 276.675781 467.394531 277.484375 464.664062 C 278.488281 461.738281 278.980469 460.203125 278.980469 460.054688 L 278.339844 456.234375 C 278.339844 454.292969 278.703125 452.390625 279.40625 450.492188 C 278.703125 452.390625 278.339844 454.289062 278.339844 456.234375 L 278.980469 460.054688 C 278.980469 460.203125 278.488281 461.738281 277.484375 464.664062 C 276.675781 467.394531 276.289062 469.269531 276.289062 470.253906 C 276.289062 473.644531 277.550781 475.78125 280.046875 476.632812 C 283.523438 476.996094 286.171875 475.695312 287.984375 472.664062 C 288.433594 471.535156 289.371094 468.609375 290.738281 463.871094 C 291.25 461.996094 293.511719 459.199219 297.542969 455.527344 C 300.894531 452.457031 302.558594 449 302.558594 445.179688 C 302.558594 443.578125 302.28125 442.214844 301.726562 441.082031 " fill-opacity="1" fill-rule="evenodd"/><path stroke-linecap="butt" transform="matrix(0.212857, 0, 0, -0.212862, -2430.118698, 3910.640919)" fill="none" stroke-linejoin="miter" d="M 12694.409362 16127.607491 C 12681.508249 16140.10456 12670.405583 16153.500832 12661.101366 16167.906412 M 12656.807112 16009.206472 L 12657.394361 16009.206472 M 12726.891541 16102.705107 C 12714.99976 16110.706167 12704.098961 16119.000845 12694.409362 16127.607491 C 12674.204347 16094.795801 12661.798724 16057.194486 12657.394361 16014.803544 M 12738.599806 16095.695003 C 12734.599176 16097.89713 12730.800413 16100.209363 12726.891541 16102.705107 C 12708.503325 16069.801662 12699.400974 16035.90726 12699.400974 16000.893443 C 12699.400974 16000.397965 12699.694598 15999.994241 12700.391956 15999.498763 M 12625.793055 16068.095013 C 12629.096327 16100.50298 12639.905369 16132.305361 12658.091718 16163.593913 C 12659.192809 16164.896838 12660.202142 16166.401625 12661.101366 16167.906412 L 12670.809317 16181.908268 M 12834.504813 16299.997319 C 12837.092377 16294.693863 12838.395334 16288.197589 12838.395334 16280.692007 C 12838.395334 16262.707971 12830.595941 16246.503988 12814.795288 16232.098409 C 12795.89323 16214.793362 12785.304407 16201.690707 12782.900359 16192.900551 C 12776.403923 16170.695772 12772.109669 16156.895778 12769.907487 16151.592322 C 12761.392385 16137.406955 12749.005114 16131.204298 12732.598861 16133.002701 C 12720.908947 16137.003232 12714.99976 16146.894452 12714.99976 16162.896573 C 12714.99976 16167.594444 12716.798208 16176.292845 12720.707081 16189.193638 C 12725.294959 16202.993632 12727.60725 16210.205598 12727.60725 16210.792832 L 12724.597602 16228.795218 C 12724.597602 16237.897342 12726.304292 16246.907711 12729.699322 16255.697868 " stroke="#954e40" stroke-width="0.777" stroke-opacity="1" stroke-miterlimit="10"/><path fill="#008395" d="M 524.660156 559.464844 C 501.273438 576.828125 475.535156 589.304688 447.453125 596.855469 L 384.902344 512.644531 C 412.582031 480.585938 448.46875 464.238281 492.558594 463.625 C 500.046875 481.515625 505.839844 498.582031 509.984375 514.84375 C 513.429688 529.375 517.070312 541.46875 520.894531 551.09375 C 522.1875 554.160156 523.414062 556.949219 524.660156 559.464844 " fill-opacity="1" fill-rule="evenodd"/><path fill="#f89865" d="M 401.480469 596.34375 C 400.019531 600.082031 398.707031 604.003906 397.515625 608.109375 L 392.363281 623.324219 C 387.003906 636.648438 379.675781 651.164062 370.332031 666.894531 C 357.765625 684.695312 343.496094 707.957031 327.542969 736.660156 L 322.71875 729.433594 L 322.71875 729.289062 C 324.363281 725.367188 323.789062 724.34375 320.953125 726.167969 C 320.253906 725.144531 319.351562 724.117188 318.265625 723.128906 C 319.867188 720.953125 319.785156 720.871094 317.996094 722.84375 C 315.699219 720.667969 312.722656 718.410156 308.984375 716.046875 C 307.894531 715.328125 306.871094 714.792969 305.863281 714.425781 C 306.480469 709.96875 305.433594 708.347656 302.761719 709.539062 C 306.808594 705.082031 310.933594 698.699219 315.144531 690.339844 L 362.960938 563.902344 L 406.160156 585.792969 C 405.03125 588.113281 403.964844 590.390625 402.976562 592.667969 C 402.503906 593.941406 402.011719 595.152344 401.480469 596.34375 " fill-opacity="1" fill-rule="evenodd"/><path fill="#ebae89" d="M 308.773438 736.152344 L 308.910156 736.152344 C 308.8125 736.347656 308.675781 736.484375 308.480469 736.582031 C 308.578125 736.386719 308.675781 736.25 308.773438 736.152344 " fill-opacity="1" fill-rule="evenodd"/><path fill="#00a5bb" d="M 376.351562 471.347656 C 386.066406 467.898438 395.503906 465.589844 404.667969 464.46875 C 434.195312 460.59375 461.476562 467.769531 486.539062 485.992188 C 477.902344 507.539062 468.609375 527.394531 458.703125 545.574219 C 450.34375 560.433594 443.699219 573.472656 438.746094 584.667969 C 436.988281 588.921875 435.421875 592.859375 434.046875 596.5 C 399.738281 598.46875 370.53125 588.351562 346.441406 566.105469 L 376.351562 471.347656 " fill-opacity="1" fill-rule="evenodd"/><path fill="#d92b2b" d="M 455.578125 277.628906 C 463.179688 298.222656 468.929688 314.425781 472.851562 326.285156 C 476.308594 336.671875 479.515625 347.214844 482.4375 357.890625 C 482.835938 359.339844 483.261719 360.832031 483.640625 362.347656 C 484.109375 363.796875 484.554688 365.3125 484.976562 366.871094 C 495.320312 405.921875 500.265625 443.789062 499.84375 480.476562 C 459.101562 504.816406 415.371094 507.558594 368.679688 488.769531 C 370.238281 456.71875 369.011719 421.835938 365 384.144531 C 364.800781 382.453125 364.621094 380.78125 364.421875 379.128906 C 364.289062 377.660156 364.132812 376.210938 363.933594 374.738281 C 363.085938 368.03125 362.058594 361.324219 360.878906 354.613281 C 360.609375 350.800781 360.300781 347.125 359.964844 343.582031 C 358.941406 327.464844 358.738281 312.621094 359.40625 299.027344 L 455.578125 277.628906 " fill-opacity="1" fill-rule="evenodd"/><path fill="#ffffff" d="M 326.425781 658.316406 C 326.226562 658.65625 326.066406 658.917969 325.925781 659.097656 L 324.371094 662.429688 C 337.5 676.355469 350.25 683.539062 362.621094 683.957031 C 362.800781 683.539062 363.117188 683.039062 363.539062 682.460938 C 364.476562 683.140625 364.535156 684.238281 363.675781 685.792969 C 363.496094 686.230469 363.21875 686.652344 362.898438 687.070312 C 362.339844 687.730469 361.742188 688.246094 361.125 688.625 C 352.203125 697.644531 344.28125 709.457031 337.398438 724.042969 C 321.476562 726.316406 309.328125 719.59375 300.925781 703.871094 C 302.441406 702.113281 303.800781 700.257812 305.035156 698.265625 C 310.984375 689.34375 316.507812 679.207031 321.597656 667.875 C 321.039062 665.699219 321.316406 663.464844 322.457031 661.152344 C 323.632812 659.59375 324.949219 658.65625 326.425781 658.316406 " fill-opacity="1" fill-rule="evenodd"/><path fill="#f89865" d="M 363.53125 682.476562 C 363.105469 683.042969 362.800781 683.527344 362.621094 683.953125 C 350.25 683.527344 337.492188 676.351562 324.371094 662.421875 L 325.925781 659.105469 C 326.070312 658.902344 326.230469 658.640625 326.433594 658.316406 C 336.054688 632.195312 341.816406 617.863281 343.71875 615.253906 C 357.628906 625.503906 370.605469 633.792969 382.65625 640.121094 C 381.703125 649.949219 375.335938 664.058594 363.53125 682.476562 " fill-opacity="1" fill-rule="evenodd"/><path fill="#cccccc" d="M 276.320312 703.601562 C 278.53125 707.273438 278.964844 711.671875 277.601562 716.761719 C 275.472656 716.921875 273.28125 716.820312 271.011719 716.484375 C 272.472656 711.058594 272.175781 706.71875 270.164062 703.464844 C 272.292969 703.640625 274.328125 703.679688 276.320312 703.601562 Z M 285.867188 701.886719 C 289.144531 705.4375 290.25 709.875 289.222656 715.203125 C 286.382812 715.972656 283.5 716.445312 280.5625 716.625 C 282.21875 712.421875 281.960938 707.960938 279.792969 703.246094 C 281.882812 702.949219 283.894531 702.515625 285.867188 701.886719 Z M 259.6875 701.253906 C 261.660156 701.867188 263.949219 702.4375 266.554688 702.949219 C 269.097656 706.640625 269.730469 711.039062 268.46875 716.128906 C 266.988281 715.933594 265.546875 715.675781 264.066406 715.339844 C 262.6875 714.925781 262.113281 714.316406 262.292969 713.507812 C 263.394531 709.402344 262.507812 705.316406 259.6875 701.253906 Z M 327.875 760.820312 C 326.097656 762.203125 323.988281 762.8125 321.582031 762.675781 C 312.03125 760.921875 300.390625 756.875 286.65625 750.5625 C 263.710938 740.5 247.96875 731.5 239.421875 723.570312 C 235.832031 719.703125 234.886719 715.914062 236.582031 712.242188 L 236.738281 711.949219 C 238.515625 707.746094 238.773438 704.113281 237.507812 701.035156 C 238.554688 700.246094 239.601562 699.675781 240.605469 699.339844 C 240.941406 699.773438 241.277344 700.285156 241.613281 700.898438 C 242.144531 702.28125 242.324219 703.898438 242.1875 705.792969 C 242.1875 706.835938 242.085938 708.417969 241.910156 710.527344 C 241.8125 712.421875 242.027344 713.980469 242.539062 715.203125 C 242.957031 716.585938 243.746094 717.90625 244.867188 719.167969 C 245.5 719.878906 246.644531 720.925781 248.339844 722.285156 C 253.175781 726.410156 258.660156 730.21875 264.835938 733.769531 C 274.386719 739.433594 286.421875 744.679688 300.980469 749.496094 C 304.75 750.621094 307.90625 751.449219 310.472656 751.960938 C 313.90625 752.394531 317.042969 752.199219 319.882812 751.410156 C 322.152344 750.738281 324.183594 749.515625 325.980469 747.71875 C 327.953125 746.0625 329.375 744.089844 330.222656 741.761719 C 330.539062 741.148438 331.03125 739.691406 331.644531 737.382812 C 332.15625 735.488281 332.75 734.027344 333.398438 732.980469 C 334.621094 731.285156 335.429688 729.921875 335.746094 728.878906 C 336.160156 727.929688 336.261719 727.101562 336.042969 726.410156 C 333.851562 726.921875 331.289062 726.921875 328.308594 726.410156 C 327.085938 726.175781 325.824219 725.78125 324.558594 725.265625 L 323.910156 725.265625 C 315.742188 722.011719 308.363281 717.570312 301.75 711.949219 C 301.21875 711.375 300.785156 710.921875 300.390625 710.527344 C 298.082031 711.847656 295.617188 712.953125 292.972656 713.800781 C 293.484375 708.257812 292.203125 703.878906 289.066406 700.621094 C 290.210938 700.1875 291.375 699.597656 292.539062 698.847656 C 292.933594 698.570312 293.386719 698.253906 293.957031 697.917969 L 293.957031 697.78125 C 294.058594 697.703125 294.097656 697.5625 294.097656 697.425781 C 297.550781 695.15625 299.898438 694.507812 301.179688 695.453125 C 301.476562 695.828125 301.871094 696.183594 302.382812 696.519531 C 305.027344 698.925781 306.78125 701.332031 307.632812 703.738281 C 307.730469 704.589844 307.238281 705.535156 306.210938 706.5625 C 316.351562 715.675781 327.203125 719.9375 338.707031 719.328125 L 340.421875 716.347656 C 342.21875 719.367188 342.121094 722.089844 340.128906 724.496094 C 340.226562 726.054688 339.535156 727.851562 338.074219 729.863281 C 337.050781 732.132812 336.476562 735.546875 336.378906 740.066406 C 335.945312 747.304688 333.953125 753.363281 330.359375 758.277344 L 330.085938 758.90625 C 329.550781 759.441406 328.980469 759.953125 328.308594 760.464844 C 328.113281 760.566406 327.972656 760.683594 327.875 760.820312 " fill-opacity="1" fill-rule="evenodd"/><path fill="#ffffff" d="M 285.902344 701.871094 C 286.988281 701.535156 288.050781 701.121094 289.097656 700.589844 C 292.210938 703.863281 293.511719 708.238281 293 713.777344 C 295.640625 712.910156 298.105469 711.824219 300.414062 710.503906 C 300.804688 710.878906 301.238281 711.351562 301.773438 711.925781 C 308.394531 717.542969 315.769531 721.980469 323.929688 725.25 L 324.582031 725.25 C 325.863281 725.761719 327.105469 726.136719 328.324219 726.375 C 331.300781 726.886719 333.863281 726.886719 336.054688 726.375 C 336.289062 727.085938 336.191406 727.914062 335.777344 728.859375 C 335.441406 729.902344 334.652344 731.265625 333.429688 732.960938 C 332.761719 734.003906 332.191406 735.460938 331.65625 737.355469 C 331.046875 739.660156 330.574219 741.140625 330.238281 741.75 C 329.390625 744.058594 327.972656 746.046875 326 747.703125 C 324.207031 749.5 322.175781 750.722656 319.90625 751.371094 C 317.070312 752.179688 313.933594 752.375 310.484375 751.941406 C 307.921875 751.429688 304.769531 750.601562 301.003906 749.460938 C 286.457031 744.648438 274.410156 739.40625 264.871094 733.746094 C 258.679688 730.199219 253.179688 726.375 248.371094 722.273438 C 246.675781 720.894531 245.511719 719.871094 244.878906 719.160156 C 243.757812 717.878906 242.988281 716.558594 242.554688 715.175781 C 242.042969 713.957031 241.824219 712.398438 241.921875 710.503906 C 242.101562 708.394531 242.199219 706.800781 242.199219 705.773438 C 242.335938 703.882812 242.160156 702.246094 241.628906 700.886719 C 241.292969 700.253906 240.976562 699.742188 240.640625 699.328125 C 244.859375 697.335938 249.570312 697.433594 254.816406 699.605469 L 255.09375 699.820312 C 256.375 700.332031 257.910156 700.804688 259.703125 701.238281 C 262.523438 705.300781 263.410156 709.382812 262.328125 713.480469 C 262.128906 714.289062 262.722656 714.902344 264.082031 715.335938 C 265.558594 715.652344 267.019531 715.925781 268.476562 716.105469 C 269.757812 711 269.109375 706.621094 266.566406 702.933594 C 267.945312 703.113281 269.148438 703.289062 270.191406 703.429688 C 272.203125 706.679688 272.480469 711.039062 271.039062 716.457031 C 273.308594 716.792969 275.496094 716.890625 277.625 716.734375 C 278.984375 711.648438 278.550781 707.253906 276.34375 703.566406 C 277.484375 703.46875 278.648438 703.347656 279.8125 703.210938 C 281.980469 707.941406 282.238281 712.398438 280.601562 716.597656 C 283.519531 716.417969 286.394531 715.945312 289.234375 715.175781 C 290.261719 709.855469 289.15625 705.417969 285.902344 701.871094 " fill-opacity="1" fill-rule="evenodd"/><path fill="#999999" d="M 237.441406 701.113281 C 238.722656 704.183594 238.46875 707.808594 236.675781 712.023438 L 236.515625 712.300781 C 234.84375 715.984375 235.789062 719.765625 239.371094 723.625 C 247.921875 731.5625 263.65625 740.5625 286.601562 750.628906 C 300.351562 756.949219 311.992188 760.988281 321.523438 762.742188 C 323.945312 762.878906 326.035156 762.269531 327.824219 760.890625 C 328.871094 762.03125 328.023438 764.847656 325.285156 769.398438 C 323.808594 771.367188 321.582031 772.253906 318.550781 772.019531 L 292.925781 762.9375 C 292.058594 762.625 291.488281 762.152344 291.210938 761.519531 L 289.164062 757.070312 C 288.730469 756.359375 288.058594 756.003906 287.09375 756.003906 L 281.933594 757.421875 C 280.753906 757.421875 277.246094 755.789062 271.378906 752.539062 C 249.378906 742.140625 235.492188 732.824219 229.722656 724.550781 C 225.683594 718.1875 226.355469 711.257812 231.769531 703.8125 C 233.679688 701.074219 235.570312 700.167969 237.441406 701.113281 " fill-opacity="1" fill-rule="evenodd"/><path fill="#e38b5c" d="M 544.308594 631.527344 C 544.410156 632.179688 544.535156 632.730469 544.738281 633.15625 C 537.078125 642.789062 523.757812 648.738281 504.71875 650.996094 L 502.945312 647.882812 C 502.945312 647.597656 502.84375 647.289062 502.660156 646.964844 C 487.445312 623.582031 479.378906 610.386719 478.445312 607.371094 C 495.023438 602.320312 509.339844 596.78125 521.4375 590.792969 C 528.890625 597.453125 536.527344 611.015625 544.308594 631.527344 " fill-opacity="1" fill-rule="evenodd"/><path fill="#fefffe" d="M 502.769531 646.839844 C 502.953125 647.179688 503.054688 647.484375 503.054688 647.765625 L 504.824219 650.882812 C 523.855469 648.609375 537.195312 642.675781 544.839844 633.035156 C 544.640625 632.613281 544.519531 632.070312 544.417969 631.40625 C 545.464844 631.023438 546.332031 631.667969 547.035156 633.316406 C 547.277344 633.640625 547.4375 634.144531 547.519531 634.808594 C 547.71875 635.511719 547.820312 636.296875 547.820312 637.140625 C 549.75 649.554688 554.519531 662.855469 562.125 677.019531 C 554.519531 691.285156 541.925781 697.039062 524.300781 694.304688 C 523.734375 692.128906 522.992188 689.996094 522.105469 687.925781 C 518.523438 677.722656 513.695312 667.242188 507.660156 656.476562 C 505.527344 655.492188 503.898438 653.859375 502.769531 651.585938 C 502.1875 649.796875 502.1875 648.207031 502.769531 646.839844 " fill-opacity="1" fill-rule="evenodd"/><path fill="#cccccc" d="M 503.027344 713.457031 C 507 715.203125 509.761719 718.660156 511.308594 723.804688 C 509.839844 724.320312 508.488281 724.835938 507.277344 725.351562 C 505.90625 725.691406 505.011719 725.433594 504.574219 724.578125 C 503.542969 720.527344 500.484375 717.289062 495.4375 714.886719 C 497.046875 713.695312 499.570312 713.214844 503.027344 713.457031 Z M 506.285156 712.046875 L 510.375 709.839844 C 510.992188 710.136719 511.648438 710.476562 512.300781 710.914062 C 514.46875 712.523438 516.394531 714.667969 518.101562 717.347656 C 516.730469 718.917969 515.222656 720.328125 513.574219 721.601562 L 510.535156 715.800781 C 509.382812 714.152344 507.992188 712.898438 506.285156 712.046875 Z M 511.804688 707.019531 C 513.59375 705.210938 514.109375 703.164062 513.355469 700.863281 C 518.082031 701.179688 522.015625 703.542969 525.171875 707.933594 C 523.722656 710.574219 522.015625 712.980469 520.027344 715.164062 C 518.320312 710.953125 515.578125 708.25 511.804688 707.019531 Z M 584.40625 712.679688 C 584.304688 714.847656 583.3125 716.734375 581.425781 718.34375 C 573.480469 723.863281 562.4375 729.304688 548.292969 734.628906 C 538.640625 738.503906 528.113281 742.457031 516.691406 746.46875 C 505.449219 746.886719 496.550781 746.308594 489.996094 744.699219 C 484.929688 743.230469 482.148438 740.46875 481.613281 736.417969 L 481.773438 736.058594 C 481.15625 731.570312 479.609375 728.371094 477.085938 726.484375 C 477.523438 725.113281 478.078125 724.082031 478.792969 723.367188 C 479.230469 723.464844 479.746094 723.785156 480.34375 724.300781 C 481.535156 725.234375 482.527344 726.484375 483.320312 728.054688 C 483.996094 728.910156 484.753906 730.320312 485.585938 732.304688 C 486.402344 733.855469 487.316406 735.105469 488.347656 736.058594 C 489.539062 737.09375 490.910156 737.886719 492.480469 738.464844 C 493.414062 738.640625 494.941406 738.921875 497.066406 739.238281 C 503.027344 740.269531 509.34375 740.808594 516.054688 740.808594 C 518.976562 739.238281 520.605469 738.382812 520.921875 738.246094 C 531.945312 735.5625 544.203125 730.65625 557.6875 723.527344 C 561.046875 721.816406 563.828125 720.230469 566.070312 718.777344 C 568.734375 716.792969 570.820312 714.488281 572.289062 711.90625 C 573.480469 709.679688 574.097656 707.316406 574.195312 704.816406 C 574.433594 702.171875 573.957031 699.769531 572.785156 697.585938 C 572.585938 697.066406 571.910156 695.699219 570.71875 693.492188 C 569.785156 691.785156 569.171875 690.3125 568.890625 689.101562 C 568.554688 687.117188 568.078125 685.566406 567.460938 684.496094 C 567.042969 683.539062 566.628906 682.925781 566.191406 682.648438 C 564.917969 684.433594 563.03125 686.222656 560.53125 687.949219 C 559.574219 688.804688 558.382812 689.402344 556.914062 689.738281 L 556.636719 690.375 C 548.652344 693.910156 540.308594 695.996094 531.628906 696.613281 C 530.972656 696.75 530.296875 696.808594 529.582031 696.808594 C 528.96875 699.3125 528.035156 701.816406 526.761719 704.320312 C 523.167969 700.207031 519.253906 698.121094 515.003906 698.023438 C 516.117188 697.824219 516.394531 695.9375 515.777344 692.359375 C 512.261719 688.289062 512.144531 685.945312 515.398438 685.347656 C 518.65625 684.257812 520.761719 683.699219 521.714844 683.699219 C 522.570312 683.621094 523.863281 684.257812 525.609375 685.625 C 527.496094 686.757812 528.648438 688.167969 529.085938 689.878906 C 548.589844 685.90625 558.722656 680.242188 559.457031 672.875 C 564.582031 673.53125 567.242188 675.378906 567.460938 678.398438 C 568.832031 679.351562 569.667969 681.058594 569.945312 683.5625 C 570.898438 685.886719 572.824219 688.726562 575.746094 692.0625 C 580.710938 697.308594 583.667969 702.988281 584.625 709.066406 L 584.902344 709.640625 C 584.800781 710.476562 584.742188 711.332031 584.742188 712.183594 C 584.664062 712.363281 584.523438 712.542969 584.40625 712.679688 " fill-opacity="1" fill-rule="evenodd"/><path fill="#ffffff" d="M 478.867188 723.316406 C 481.5 719.292969 484.867188 716.71875 488.910156 715.589844 C 491.125 715.253906 493.324219 714.996094 495.503906 714.800781 C 500.554688 717.214844 503.601562 720.445312 504.632812 724.503906 C 505.066406 725.355469 505.960938 725.613281 507.34375 725.296875 C 508.554688 724.761719 509.898438 724.246094 511.367188 723.730469 C 509.820312 718.582031 507.046875 715.136719 503.085938 713.394531 C 504.316406 712.71875 505.40625 712.265625 506.335938 711.96875 C 508.039062 712.820312 509.445312 714.066406 510.59375 715.730469 L 513.644531 721.53125 C 515.285156 720.265625 516.792969 718.839844 518.179688 717.292969 C 516.476562 714.601562 514.535156 712.441406 512.355469 710.839844 C 511.703125 710.421875 511.050781 710.066406 510.453125 709.769531 C 510.871094 708.601562 511.347656 707.648438 511.859375 706.9375 C 515.644531 708.164062 518.375 710.878906 520.078125 715.097656 C 522.078125 712.917969 523.78125 710.5 525.246094 707.867188 C 522.078125 703.472656 518.160156 701.113281 513.425781 700.777344 C 513.941406 700.066406 514.316406 699.074219 514.554688 697.808594 C 514.652344 697.808594 514.8125 697.847656 515.070312 697.945312 C 519.308594 698.042969 523.226562 700.144531 526.8125 704.242188 C 528.097656 701.75 529.03125 699.253906 529.644531 696.738281 C 530.355469 696.738281 531.03125 696.679688 531.703125 696.539062 C 540.378906 695.925781 548.714844 693.847656 556.695312 690.300781 L 556.972656 689.667969 C 558.457031 689.332031 559.648438 688.738281 560.597656 687.886719 C 563.09375 686.140625 564.992188 684.378906 566.261719 682.578125 C 566.695312 682.855469 567.113281 683.46875 567.527344 684.417969 C 568.140625 685.507812 568.617188 687.035156 568.953125 689.015625 C 569.230469 690.242188 569.84375 691.707031 570.796875 693.410156 C 571.984375 695.628906 572.65625 696.996094 572.835938 697.53125 C 574.023438 699.6875 574.5 702.105469 574.261719 704.757812 C 574.164062 707.253906 573.527344 709.609375 572.359375 711.828125 C 570.894531 714.421875 568.816406 716.71875 566.121094 718.699219 C 563.90625 720.167969 561.113281 721.75 557.765625 723.453125 C 544.257812 730.582031 532 735.496094 520.988281 738.1875 C 520.671875 738.328125 519.050781 739.179688 516.117188 740.722656 C 509.40625 740.722656 503.085938 740.207031 497.125 739.179688 C 495.007812 738.839844 493.484375 738.582031 492.53125 738.386719 C 490.96875 737.832031 489.601562 737.019531 488.414062 735.988281 C 487.382812 735.039062 486.472656 733.792969 485.660156 732.226562 C 484.808594 730.246094 484.054688 728.839844 483.382812 727.988281 C 482.589844 726.425781 481.601562 725.175781 480.414062 724.226562 C 479.796875 723.710938 479.285156 723.394531 478.867188 723.316406 " fill-opacity="1" fill-rule="evenodd"/><path fill="#999999" d="M 584.382812 712.703125 C 586.167969 712.800781 587.640625 715.292969 588.757812 720.214844 C 589.347656 722.84375 588.425781 725.121094 586.011719 727.003906 L 561.429688 738.914062 C 560.722656 739.246094 560.117188 739.285156 559.585938 739.050781 L 554.699219 737.34375 C 553.957031 737.265625 553.210938 737.519531 552.523438 738.128906 L 549.953125 742.523438 C 549.167969 743.5625 545.5 744.976562 538.988281 746.761719 C 534.160156 748.566406 527.078125 751.195312 517.738281 754.628906 C 501.199219 755.234375 489.371094 753.824219 482.25 750.390625 C 475.460938 747.035156 472.519531 740.699219 473.460938 731.398438 C 473.65625 728.140625 474.851562 726.511719 477.070312 726.511719 C 479.582031 728.398438 481.148438 731.59375 481.757812 736.066406 L 481.601562 736.421875 C 482.132812 740.480469 484.917969 743.25 489.980469 744.71875 C 496.53125 746.328125 505.4375 746.917969 516.660156 746.484375 C 528.097656 742.464844 538.632812 738.539062 548.265625 734.65625 C 562.429688 729.320312 573.476562 723.882812 581.402344 718.371094 C 583.285156 716.761719 584.285156 714.878906 584.382812 712.703125 " fill-opacity="1" fill-rule="evenodd"/><path fill="#f89865" d="M 427.695312 211.578125 C 417.019531 226.695312 401.445312 238.078125 380.945312 245.707031 C 377.417969 236.175781 371.921875 229.488281 364.5 225.664062 C 374.625 208.050781 391.390625 191.878906 414.796875 177.152344 C 417.15625 190.136719 421.464844 201.613281 427.695312 211.578125 " fill-opacity="1" fill-rule="evenodd"/><path fill="#f89865" d="M 302.914062 207.804688 C 303.082031 207.804688 303.292969 207.78125 303.554688 207.734375 C 308.820312 206.925781 313.5625 203.324219 317.78125 196.898438 C 313.5625 203.324219 308.820312 206.925781 303.554688 207.734375 C 303.292969 207.78125 303.082031 207.804688 302.914062 207.804688 Z M 324.160156 65.085938 C 339.640625 51.953125 354.746094 45.738281 369.492188 46.449219 C 381.847656 47.164062 393.558594 52.664062 404.609375 62.953125 C 413.59375 71.15625 421.46875 81.804688 428.273438 94.820312 C 433.84375 105.445312 437.449219 114.808594 439.109375 122.871094 C 441.480469 134.441406 439.15625 147.507812 432.160156 162.042969 C 428.582031 169.558594 420.398438 182.929688 407.667969 202.207031 C 399.511719 214.445312 386.210938 223.40625 367.859375 229.121094 C 353.585938 233.460938 340.472656 235.074219 328.476562 233.933594 C 321.101562 233.269531 314.890625 230.566406 309.765625 225.800781 C 308.15625 224.285156 306.828125 222.671875 305.738281 220.988281 L 304.457031 218.996094 C 303.058594 215.699219 302.226562 212.050781 301.988281 208.089844 L 298.503906 208.730469 L 294.117188 190.945312 C 286.054688 186.75 284.277344 182.195312 288.808594 177.265625 C 291.082031 174.773438 294.140625 172.710938 298.007812 171.125 C 299.003906 165.644531 298.148438 159.578125 295.46875 152.914062 C 293.761719 148.433594 290.941406 143.167969 286.957031 137.121094 C 284.5625 133.328125 283.257812 128.824219 283.070312 123.582031 L 283.636719 116.777344 C 285.773438 104.425781 293.144531 92.09375 305.808594 79.8125 C 312.183594 73.625 318.300781 68.714844 324.160156 65.089844 " fill-opacity="1" fill-rule="evenodd"/><path stroke-linecap="butt" transform="matrix(0.227827, 0, 0, -0.227833, -2430.118698, 3910.640919)" fill="none" stroke-linejoin="miter" d="M 11995.798269 16252.107314 C 11996.604116 16252.107314 11997.598564 16252.19304 11998.593012 16252.398783 C 12021.80824 16255.999282 12042.605929 16271.807189 12061.1061 16299.993957 " stroke="#000033" stroke-width="3.629" stroke-opacity="1" stroke-miterlimit="10"/><path fill="#330000" d="M 310.367188 61.3125 C 312.152344 57.761719 314.300781 54.539062 316.828125 51.605469 C 324.890625 41.972656 335.214844 36.726562 347.757812 35.890625 L 356.34375 31.765625 C 363.425781 28.855469 370.367188 26.921875 377.164062 26.042969 C 398.890625 23.296875 415.105469 31.453125 425.8125 50.535156 C 438.285156 72.6875 444.867188 84.519531 445.585938 86.019531 C 452.667969 100.019531 457.078125 112.324219 458.820312 123.011719 C 463.519531 151.484375 450.542969 176.097656 419.949219 196.871094 C 416.917969 196.820312 414.007812 196.011719 411.242188 194.414062 C 405.566406 191.144531 403.347656 185.660156 404.566406 177.957031 C 403.253906 169.5625 400.34375 162.957031 395.859375 158.140625 C 386.941406 148.601562 374.589844 152.796875 358.824219 170.753906 C 357.441406 163.980469 355.246094 156.351562 352.21875 147.789062 C 346.089844 130.640625 338.746094 117.476562 330.136719 108.273438 C 323.410156 108.222656 316.660156 107.339844 309.816406 105.648438 C 296.128906 102.261719 288.832031 96.5625 287.925781 88.574219 C 288.019531 87.882812 288.1875 86.902344 288.402344 85.6875 C 289.070312 83.324219 289.976562 81.035156 291.097656 78.867188 C 294.746094 72.023438 300.539062 67.65625 308.457031 65.773438 L 310.367188 61.3125 " fill-opacity="1" fill-rule="evenodd"/><path fill="#330000" d="M 288.820312 88.03125 L 299.101562 84.554688 C 300.816406 100.046875 309.921875 111.246094 326.449219 118.121094 C 306.097656 117.511719 293.5625 107.488281 288.820312 88.03125 " fill-opacity="1" fill-rule="evenodd"/><path fill="#77390d" d="M 388.207031 165.035156 C 386.203125 164.230469 384.019531 164.296875 381.605469 165.242188 C 382.5 165.679688 383.214844 166.320312 383.71875 167.21875 C 384.503906 168.738281 384.617188 170.417969 384.15625 172.257812 C 383.71875 174.417969 382.824219 176.144531 381.398438 177.429688 C 379.878906 178.742188 378.359375 179.339844 376.773438 179.203125 C 375.234375 179.25 374.058594 178.558594 373.324219 177.15625 C 372.472656 175.636719 372.3125 173.796875 372.839844 171.613281 C 373.1875 169.910156 373.992188 168.460938 375.164062 167.21875 C 376.382812 165.679688 377.785156 164.460938 379.351562 163.609375 C 382.132812 161.859375 384.824219 161.585938 387.421875 162.757812 C 389.632812 163.746094 391.082031 165.699219 391.722656 168.574219 C 391.011719 166.875 389.839844 165.699219 388.207031 165.035156 " fill-opacity="1" fill-rule="evenodd"/><path fill="#3a210b" d="M 328.554688 127.648438 L 329.34375 135.652344 C 321.226562 133.371094 311.617188 132.230469 300.5 132.230469 C 298.335938 127.042969 297.476562 122.601562 297.941406 118.925781 C 309.617188 119.484375 319.808594 122.390625 328.554688 127.648438 " fill-opacity="1" fill-rule="evenodd"/><path fill="#000000" d="M 321.742188 146.800781 C 319.21875 144.8125 316.398438 144 313.300781 144.324219 C 310.089844 144.648438 307.5 146.082031 305.511719 148.578125 C 303.429688 151.074219 302.574219 153.917969 302.96875 157.0625 C 303.292969 160.230469 304.726562 162.820312 307.269531 164.785156 C 309.765625 166.820312 312.632812 167.675781 315.84375 167.351562 C 318.964844 167.003906 321.507812 165.570312 323.496094 163.027344 C 325.507812 160.507812 326.386719 157.6875 326.039062 154.519531 C 325.671875 151.355469 324.238281 148.789062 321.742188 146.800781 Z M 322.78125 145.390625 C 325.625 147.746094 327.242188 150.730469 327.660156 154.3125 C 328.050781 157.941406 327.105469 161.179688 324.839844 164.023438 C 322.527344 166.890625 319.589844 168.53125 315.984375 168.902344 C 312.355469 169.269531 309.117188 168.300781 306.273438 165.988281 C 303.40625 163.722656 301.765625 160.785156 301.394531 157.132812 C 300.980469 153.550781 301.925781 150.289062 304.238281 147.378906 C 306.503906 144.535156 309.441406 142.9375 313.070312 142.546875 C 316.675781 142.175781 319.914062 143.121094 322.78125 145.386719 " fill-opacity="1" fill-rule="evenodd"/><path fill="#ffffcc" d="M 321.730469 146.8125 C 324.222656 148.777344 325.65625 151.367188 326.050781 154.53125 C 326.375 157.699219 325.519531 160.515625 323.507812 163.035156 C 321.519531 165.578125 318.980469 167.011719 315.835938 167.335938 C 312.625 167.679688 309.78125 166.824219 307.285156 164.792969 C 304.722656 162.804688 303.289062 160.238281 302.964844 157.074219 C 302.574219 153.90625 303.425781 151.089844 305.507812 148.570312 C 307.496094 146.074219 310.082031 144.664062 313.292969 144.316406 C 316.414062 143.996094 319.210938 144.828125 321.730469 146.8125 " fill-opacity="1" fill-rule="evenodd"/><path fill="#3f0920" d="M 317.476562 153.386719 C 316.945312 153.136719 316.671875 152.8125 316.625 152.398438 C 316.578125 151.957031 316.738281 151.613281 317.132812 151.335938 C 317.5 150.988281 318.007812 150.804688 318.609375 150.757812 C 319.183594 150.667969 319.691406 150.734375 320.175781 150.964844 C 320.636719 151.175781 320.914062 151.472656 320.9375 151.890625 C 320.984375 152.328125 320.867188 152.695312 320.523438 153.019531 C 320.105469 153.367188 319.578125 153.574219 318.976562 153.664062 C 318.398438 153.710938 317.894531 153.621094 317.476562 153.390625 " fill-opacity="1" fill-rule="evenodd"/><path stroke-linecap="butt" transform="matrix(0.230668, 0, 0, -0.230673, -2430.118698, 3910.640919)" fill="none" stroke-linejoin="miter" d="M 11911.495525 16288.208051 C 11913.307521 16287.192004 11915.492078 16286.802519 11917.99839 16287.005728 C 11920.606311 16287.395213 11922.892474 16288.292722 11924.704471 16289.799859 C 11926.194711 16291.205391 11926.702747 16292.797199 11926.499533 16294.693821 C 11926.397925 16296.505773 11925.195573 16297.792766 11923.197296 16298.707209 C 11921.097412 16299.706322 11918.895921 16299.994202 11916.406543 16299.604717 C 11913.798623 16299.401508 11911.597132 16298.605604 11910.005285 16297.098467 C 11908.294895 16295.896144 11907.600579 16294.405941 11907.803794 16292.509319 C 11908.007008 16290.697368 11909.192426 16289.308769 11911.495525 16288.208051 Z M 11911.495525 16288.208051 " stroke="#330000" stroke-width="1.792" stroke-opacity="1" stroke-miterlimit="10"/><g clip-path="url(#c95b71de6e)"><g clip-path="url(#5f057ca59e)"><path fill="url(#d94ad87f8f)" d="M 301.332031 160.5625 L 310.402344 138.007812 L 332.558594 147.523438 L 323.488281 170.078125 Z M 301.332031 160.5625 " fill-rule="nonzero"/></g></g><path fill="#330033" d="M 312.585938 160.097656 C 310.972656 158.871094 310.046875 157.257812 309.816406 155.222656 C 309.539062 153.238281 309.953125 151.460938 311.085938 149.914062 C 312.308594 148.34375 313.925781 147.441406 315.910156 147.210938 C 317.898438 147.027344 319.652344 147.582031 321.222656 148.851562 C 322.863281 150.074219 323.832031 151.667969 324.132812 153.652344 C 324.363281 155.6875 323.902344 157.488281 322.699219 159.058594 C 321.523438 160.648438 319.929688 161.550781 317.964844 161.734375 C 315.980469 161.964844 314.179688 161.433594 312.585938 160.097656 " fill-opacity="1" fill-rule="evenodd"/><path fill="#000000" d="M 313.238281 158.441406 C 312.058594 157.585938 311.34375 156.433594 311.113281 154.980469 C 310.90625 153.550781 311.296875 152.304688 312.246094 151.21875 C 313.191406 150.042969 314.414062 149.371094 315.9375 149.234375 C 317.390625 149.050781 318.730469 149.417969 319.953125 150.363281 C 321.152344 151.21875 321.820312 152.347656 322.007812 153.78125 C 322.257812 155.234375 321.890625 156.503906 320.945312 157.585938 C 320.019531 158.71875 318.796875 159.386719 317.34375 159.574219 C 315.820312 159.710938 314.484375 159.339844 313.238281 158.441406 " fill-opacity="1" fill-rule="evenodd"/><path stroke-linecap="butt" transform="matrix(0.230767, 0, 0, -0.230773, -2430.118698, 3910.640919)" fill="none" stroke-linejoin="miter" d="M 11888.007217 16259.299728 C 11893.407014 16255.406554 11899.196138 16253.798504 11905.797771 16254.390944 C 11912.094714 16255.203432 11917.392947 16258.097922 11921.404709 16263.006707 C 11925.501107 16267.695442 11927.09227 16273.196666 11925.991998 16279.493451 C 11925.196416 16285.705602 11922.301854 16290.59746 11917.105184 16294.304438 C 11911.80695 16298.400734 11906.000899 16299.991857 11899.703956 16299.196296 C 11893.102323 16298.603856 11887.80409 16295.692439 11883.690764 16290.59746 C 11879.594367 16285.891797 11877.90164 16280.492135 11878.798785 16274.29691 C 11879.797494 16268.000125 11882.895183 16263.006707 11887.99029 16259.299728 Z M 11888.007217 16259.299728 " stroke="#330000" stroke-width="0.717" stroke-opacity="1" stroke-miterlimit="10"/><path fill="#ffffff" d="M 313.179688 150.203125 C 313.59375 150.847656 313.6875 151.449219 313.457031 151.980469 C 313.25 152.535156 312.832031 152.832031 312.1875 152.878906 C 311.472656 153.042969 310.734375 152.925781 309.972656 152.601562 C 309.164062 152.234375 308.5625 151.703125 308.148438 151.054688 C 307.710938 150.433594 307.617188 149.855469 307.871094 149.347656 C 308.054688 148.792969 308.496094 148.472656 309.210938 148.425781 C 309.925781 148.242188 310.664062 148.308594 311.472656 148.632812 C 312.234375 149.070312 312.789062 149.578125 313.179688 150.203125 " fill-opacity="1" fill-rule="evenodd"/><path fill="#ffffff" d="M 310.148438 156.867188 C 309.871094 156.726562 309.710938 156.519531 309.664062 156.21875 C 309.664062 155.988281 309.757812 155.757812 309.941406 155.507812 C 310.148438 155.277344 310.425781 155.160156 310.792969 155.160156 C 311.140625 155.113281 311.441406 155.160156 311.714844 155.296875 C 312.015625 155.484375 312.132812 155.714844 312.132812 155.945312 C 312.199219 156.21875 312.132812 156.449219 311.921875 156.65625 C 311.691406 156.886719 311.417969 157.027344 311.09375 157.074219 C 310.703125 157.074219 310.378906 157.003906 310.148438 156.863281 " fill-opacity="1" fill-rule="evenodd"/><path fill="#ffffff" d="M 321.46875 151.875 C 321.101562 151.550781 320.894531 151.113281 320.847656 150.605469 C 320.730469 150.121094 320.847656 149.730469 321.125 149.40625 C 321.355469 148.96875 321.703125 148.738281 322.1875 148.691406 C 322.601562 148.644531 322.992188 148.78125 323.386719 149.128906 C 323.753906 149.40625 323.984375 149.777344 324.101562 150.261719 C 324.148438 150.769531 324.03125 151.230469 323.753906 151.597656 C 323.457031 152.015625 323.109375 152.246094 322.671875 152.3125 C 322.210938 152.359375 321.816406 152.199219 321.46875 151.875 " fill-opacity="1" fill-rule="evenodd"/><path fill="#ff3333" d="M 366.765625 274.25 C 367.789062 270.089844 368.449219 265.910156 368.675781 261.703125 C 368.855469 256.976562 368.492188 252.113281 367.539062 247.117188 C 367.539062 246.683594 367.46875 246.34375 367.335938 246.046875 C 366.605469 241.527344 368.199219 238.09375 372.082031 235.777344 C 382.898438 228.980469 394.058594 223.050781 405.578125 218.007812 C 406.714844 217.53125 407.851562 217.007812 408.964844 216.4375 C 417.371094 213.1875 423.414062 209.917969 427.121094 206.667969 C 430.027344 207.757812 431.890625 211.144531 432.710938 216.871094 C 430.003906 218.621094 427.121094 220.621094 423.984375 222.890625 C 417.574219 227.710938 410.484375 233.9375 402.738281 241.59375 C 379.265625 265.160156 367.289062 276.042969 366.765625 274.246094 " fill-opacity="1" fill-rule="evenodd"/><path fill="#d92b2b" d="M 350.460938 312.605469 C 353.382812 301.070312 358.800781 288.3125 366.683594 274.355469 C 367.207031 276.144531 379.191406 265.269531 402.644531 241.703125 C 410.394531 234.042969 417.488281 227.808594 423.902344 223.007812 C 427.027344 220.742188 429.929688 218.722656 432.625 216.980469 C 433.597656 218.8125 436.183594 224.003906 440.328125 232.570312 C 444.636719 241.066406 451.160156 260.601562 459.886719 291.214844 C 434.050781 332.617188 402.488281 365.949219 365.1875 391.214844 L 350.460938 312.605469 " fill-opacity="1" fill-rule="evenodd"/><path fill="#b22424" d="M 366.789062 274.195312 C 358.910156 288.164062 353.515625 300.925781 350.582031 312.453125 C 349.195312 310.460938 348.613281 306.632812 348.816406 300.96875 C 348.949219 300.542969 349.148438 300.117188 349.375 299.691406 C 353.425781 288.410156 359.875 275.738281 368.691406 261.65625 C 368.46875 265.867188 367.820312 270.03125 366.789062 274.195312 " fill-opacity="1" fill-rule="evenodd"/><path fill="#f89865" d="M 486.992188 313.210938 C 494.914062 325.0625 501.976562 335.964844 508.179688 345.941406 C 505.441406 357.640625 495.664062 365.871094 478.847656 370.59375 C 470.683594 357.175781 463.246094 346.25 456.535156 337.796875 C 462.054688 322.148438 472.226562 313.960938 486.992188 313.210938 " fill-opacity="1" fill-rule="evenodd"/><path fill="#f89865" d="M 521.898438 373.0625 C 530.78125 395.21875 537.691406 416.5625 542.582031 437.09375 C 540.78125 450.605469 531.789062 455.277344 515.601562 451.132812 C 499.261719 412.636719 486.605469 385.851562 477.632812 370.738281 C 475.902344 367.296875 474.167969 363.894531 472.480469 360.539062 C 478.183594 347.355469 487.878906 338.933594 501.585938 335.25 C 505.6875 341.105469 509.261719 346.875 512.289062 352.535156 C 516.152344 359.332031 519.351562 366.175781 521.898438 373.0625 " fill-opacity="1" fill-rule="evenodd"/><path fill="#f89865" d="M 559.472656 473.917969 L 569.515625 483.195312 L 571.007812 483.960938 L 569.515625 483.195312 Z M 559.171875 499.0625 L 556.550781 498.125 L 542.386719 484.964844 L 556.550781 498.125 L 559.171875 499.0625 L 564.996094 503.15625 C 565.742188 505.566406 565.207031 507.71875 563.4375 509.597656 L 545.160156 501.257812 L 529.359375 487.4375 C 526.007812 481.574219 523.238281 475.558594 520.996094 469.375 L 513.148438 446.148438 C 520.699219 440.050781 528.546875 436.105469 536.714844 434.3125 C 543.007812 435.015625 548.507812 439.898438 553.222656 448.984375 C 557.019531 456.917969 560.835938 462.847656 564.695312 466.816406 L 573.824219 475.816406 L 581.628906 480.359375 C 581.714844 480.59375 581.863281 480.699219 582.054688 480.699219 C 584.847656 483.726562 584.59375 486.5 581.332031 488.996094 L 571.007812 483.960938 L 578.664062 488.847656 C 581.714844 492.300781 581.480469 495.136719 577.960938 497.355469 L 567.042969 492.472656 L 564.480469 491.042969 L 552.242188 479.226562 L 564.480469 491.042969 L 567.042969 492.472656 L 574.269531 496.929688 C 575.636719 500.042969 575.1875 502.496094 572.929688 504.285156 L 559.171875 499.0625 " fill-opacity="1" fill-rule="evenodd"/><path stroke-linecap="butt" transform="matrix(0.210835, 0, 0, -0.210841, -2430.118698, 3910.640919)" fill="none" stroke-linejoin="miter" d="M 14215.496529 16211.997635 L 14203.398082 16218.704416 L 14145.295895 16274.804238 M 14179.608794 16300.000988 L 14227.298535 16255.999311 L 14234.301924 16252.293907 M 14178.200705 16180.705495 L 14165.805819 16185.096399 L 14098.606637 16247.60657 " stroke="#954e40" stroke-width="0.784" stroke-opacity="1" stroke-miterlimit="10"/><path fill="#ff3333" d="M 438.558594 253.414062 C 458.453125 273.285156 476.863281 295.226562 493.761719 319.21875 C 487.371094 330.449219 475.984375 339.609375 459.625 346.699219 C 444.929688 323.382812 428.273438 301.238281 409.683594 280.261719 C 402.597656 272.316406 400.390625 264.148438 403.023438 255.753906 C 405.996094 249.292969 410.519531 244.996094 416.617188 242.855469 C 422.761719 242.25 430.074219 245.761719 438.558594 253.414062 " fill-opacity="1" fill-rule="evenodd"/></svg>