<svg xmlns="http://www.w3.org/2000/svg" xmlns:xlink="http://www.w3.org/1999/xlink" width="1080" zoomAndPan="magnify" viewBox="0 0 810 809.999993" height="1080" preserveAspectRatio="xMidYMid meet" version="1.0"><defs><clipPath id="bfe8be064f"><path d="M 298 156 L 317 156 L 317 175 L 298 175 Z M 298 156 " clip-rule="nonzero"/></clipPath><clipPath id="43ed38f0f7"><path d="M 298.988281 166.558594 C 298.550781 164.128906 299.035156 161.90625 300.449219 159.890625 C 301.859375 157.902344 303.804688 156.695312 306.257812 156.351562 C 308.710938 155.980469 310.933594 156.535156 312.949219 158.039062 C 315.03125 159.519531 316.304688 161.488281 316.769531 163.921875 C 317.207031 166.375 316.699219 168.597656 315.242188 170.585938 C 313.804688 172.601562 311.90625 173.78125 309.429688 174.152344 C 306.976562 174.5 304.753906 173.945312 302.738281 172.460938 C 300.679688 170.957031 299.429688 169.011719 298.988281 166.558594 " clip-rule="evenodd"/></clipPath><radialGradient gradientTransform="matrix(0.943411, 0.362756, 0.334651, -0.930926, 1699.972389, -1339.700388)" gradientUnits="userSpaceOnUse" r="17.457129" cx="0" id="6626385728" cy="0" fx="0" fy="0"><stop stop-opacity="1" stop-color="rgb(57.446289%, 2.047729%, 2.165222%)" offset="0"/><stop stop-opacity="1" stop-color="rgb(57.215881%, 2.120972%, 2.415466%)" offset="0.0078125"/><stop stop-opacity="1" stop-color="rgb(57.063293%, 2.1698%, 2.581787%)" offset="0.0117188"/><stop stop-opacity="1" stop-color="rgb(56.90918%, 2.218628%, 2.749634%)" offset="0.015625"/><stop stop-opacity="1" stop-color="rgb(56.756592%, 2.267456%, 2.915955%)" offset="0.0195312"/><stop stop-opacity="1" stop-color="rgb(56.604004%, 2.316284%, 3.082275%)" offset="0.0234375"/><stop stop-opacity="1" stop-color="rgb(56.44989%, 2.365112%, 3.250122%)" offset="0.0273438"/><stop stop-opacity="1" stop-color="rgb(56.297302%, 2.41394%, 3.416443%)" offset="0.03125"/><stop stop-opacity="1" stop-color="rgb(56.144714%, 2.462769%, 3.582764%)" offset="0.0351562"/><stop stop-opacity="1" stop-color="rgb(55.990601%, 2.511597%, 3.75061%)" offset="0.0390625"/><stop stop-opacity="1" stop-color="rgb(55.838013%, 2.560425%, 3.916931%)" offset="0.0429688"/><stop stop-opacity="1" stop-color="rgb(55.685425%, 2.609253%, 4.083252%)" offset="0.046875"/><stop stop-opacity="1" stop-color="rgb(55.531311%, 2.658081%, 4.251099%)" offset="0.0507812"/><stop stop-opacity="1" stop-color="rgb(55.378723%, 2.706909%, 4.417419%)" offset="0.0546875"/><stop stop-opacity="1" stop-color="rgb(55.226135%, 2.755737%, 4.58374%)" offset="0.0585938"/><stop stop-opacity="1" stop-color="rgb(55.072021%, 2.804565%, 4.751587%)" offset="0.0625"/><stop stop-opacity="1" stop-color="rgb(54.919434%, 2.853394%, 4.917908%)" offset="0.0664062"/><stop stop-opacity="1" stop-color="rgb(54.766846%, 2.902222%, 5.084229%)" offset="0.0703125"/><stop stop-opacity="1" stop-color="rgb(54.612732%, 2.95105%, 5.250549%)" offset="0.0742188"/><stop stop-opacity="1" stop-color="rgb(54.460144%, 2.999878%, 5.418396%)" offset="0.078125"/><stop stop-opacity="1" stop-color="rgb(54.30603%, 3.048706%, 5.584717%)" offset="0.0820312"/><stop stop-opacity="1" stop-color="rgb(54.153442%, 3.097534%, 5.751038%)" offset="0.0859375"/><stop stop-opacity="1" stop-color="rgb(54.000854%, 3.146362%, 5.918884%)" offset="0.0898438"/><stop stop-opacity="1" stop-color="rgb(53.846741%, 3.19519%, 6.085205%)" offset="0.09375"/><stop stop-opacity="1" stop-color="rgb(53.694153%, 3.244019%, 6.251526%)" offset="0.0976562"/><stop stop-opacity="1" stop-color="rgb(53.541565%, 3.292847%, 6.419373%)" offset="0.101562"/><stop stop-opacity="1" stop-color="rgb(53.387451%, 3.341675%, 6.585693%)" offset="0.105469"/><stop stop-opacity="1" stop-color="rgb(53.234863%, 3.390503%, 6.752014%)" offset="0.109375"/><stop stop-opacity="1" stop-color="rgb(53.082275%, 3.439331%, 6.919861%)" offset="0.113281"/><stop stop-opacity="1" stop-color="rgb(52.928162%, 3.488159%, 7.086182%)" offset="0.117188"/><stop stop-opacity="1" stop-color="rgb(52.775574%, 3.536987%, 7.252502%)" offset="0.121094"/><stop stop-opacity="1" stop-color="rgb(52.622986%, 3.585815%, 7.420349%)" offset="0.125"/><stop stop-opacity="1" stop-color="rgb(52.468872%, 3.634644%, 7.58667%)" offset="0.128906"/><stop stop-opacity="1" stop-color="rgb(52.316284%, 3.683472%, 7.752991%)" offset="0.132812"/><stop stop-opacity="1" stop-color="rgb(52.163696%, 3.7323%, 7.919312%)" offset="0.136719"/><stop stop-opacity="1" stop-color="rgb(52.009583%, 3.781128%, 8.087158%)" offset="0.140625"/><stop stop-opacity="1" stop-color="rgb(51.856995%, 3.829956%, 8.253479%)" offset="0.144531"/><stop stop-opacity="1" stop-color="rgb(51.704407%, 3.878784%, 8.4198%)" offset="0.148438"/><stop stop-opacity="1" stop-color="rgb(51.550293%, 3.927612%, 8.587646%)" offset="0.152344"/><stop stop-opacity="1" stop-color="rgb(51.397705%, 3.97644%, 8.753967%)" offset="0.15625"/><stop stop-opacity="1" stop-color="rgb(51.243591%, 4.025269%, 8.920288%)" offset="0.160156"/><stop stop-opacity="1" stop-color="rgb(51.091003%, 4.074097%, 9.088135%)" offset="0.164062"/><stop stop-opacity="1" stop-color="rgb(50.938416%, 4.122925%, 9.254456%)" offset="0.167969"/><stop stop-opacity="1" stop-color="rgb(50.784302%, 4.171753%, 9.420776%)" offset="0.171875"/><stop stop-opacity="1" stop-color="rgb(50.631714%, 4.220581%, 9.588623%)" offset="0.175781"/><stop stop-opacity="1" stop-color="rgb(50.479126%, 4.269409%, 9.754944%)" offset="0.179688"/><stop stop-opacity="1" stop-color="rgb(50.325012%, 4.318237%, 9.921265%)" offset="0.183594"/><stop stop-opacity="1" stop-color="rgb(50.172424%, 4.367065%, 10.089111%)" offset="0.1875"/><stop stop-opacity="1" stop-color="rgb(50.019836%, 4.415894%, 10.255432%)" offset="0.191406"/><stop stop-opacity="1" stop-color="rgb(49.865723%, 4.464722%, 10.421753%)" offset="0.195312"/><stop stop-opacity="1" stop-color="rgb(49.713135%, 4.51355%, 10.588074%)" offset="0.199219"/><stop stop-opacity="1" stop-color="rgb(49.560547%, 4.562378%, 10.75592%)" offset="0.203125"/><stop stop-opacity="1" stop-color="rgb(49.406433%, 4.611206%, 10.922241%)" offset="0.207031"/><stop stop-opacity="1" stop-color="rgb(49.253845%, 4.660034%, 11.088562%)" offset="0.210938"/><stop stop-opacity="1" stop-color="rgb(49.101257%, 4.708862%, 11.256409%)" offset="0.214844"/><stop stop-opacity="1" stop-color="rgb(48.947144%, 4.75769%, 11.422729%)" offset="0.21875"/><stop stop-opacity="1" stop-color="rgb(48.794556%, 4.806519%, 11.58905%)" offset="0.222656"/><stop stop-opacity="1" stop-color="rgb(48.640442%, 4.855347%, 11.756897%)" offset="0.226562"/><stop stop-opacity="1" stop-color="rgb(48.487854%, 4.904175%, 11.923218%)" offset="0.230469"/><stop stop-opacity="1" stop-color="rgb(48.335266%, 4.953003%, 12.089539%)" offset="0.234375"/><stop stop-opacity="1" stop-color="rgb(48.181152%, 5.001831%, 12.257385%)" offset="0.238281"/><stop stop-opacity="1" stop-color="rgb(48.028564%, 5.050659%, 12.423706%)" offset="0.242188"/><stop stop-opacity="1" stop-color="rgb(47.875977%, 5.099487%, 12.590027%)" offset="0.246094"/><stop stop-opacity="1" stop-color="rgb(47.721863%, 5.148315%, 12.757874%)" offset="0.25"/><stop stop-opacity="1" stop-color="rgb(47.492981%, 5.221558%, 13.008118%)" offset="0.253906"/><stop stop-opacity="1" stop-color="rgb(47.186279%, 5.319214%, 13.340759%)" offset="0.261719"/><stop stop-opacity="1" stop-color="rgb(46.879578%, 5.41687%, 13.674927%)" offset="0.269531"/><stop stop-opacity="1" stop-color="rgb(46.574402%, 5.514526%, 14.007568%)" offset="0.277344"/><stop stop-opacity="1" stop-color="rgb(46.2677%, 5.612183%, 14.341736%)" offset="0.285156"/><stop stop-opacity="1" stop-color="rgb(45.960999%, 5.709839%, 14.675903%)" offset="0.292969"/><stop stop-opacity="1" stop-color="rgb(45.654297%, 5.807495%, 15.008545%)" offset="0.300781"/><stop stop-opacity="1" stop-color="rgb(45.349121%, 5.905151%, 15.342712%)" offset="0.308594"/><stop stop-opacity="1" stop-color="rgb(45.042419%, 6.002808%, 15.675354%)" offset="0.316406"/><stop stop-opacity="1" stop-color="rgb(44.735718%, 6.100464%, 16.009521%)" offset="0.324219"/><stop stop-opacity="1" stop-color="rgb(44.430542%, 6.19812%, 16.343689%)" offset="0.332031"/><stop stop-opacity="1" stop-color="rgb(44.12384%, 6.295776%, 16.676331%)" offset="0.339844"/><stop stop-opacity="1" stop-color="rgb(43.817139%, 6.393433%, 17.010498%)" offset="0.347656"/><stop stop-opacity="1" stop-color="rgb(43.511963%, 6.491089%, 17.344666%)" offset="0.355469"/><stop stop-opacity="1" stop-color="rgb(43.205261%, 6.588745%, 17.677307%)" offset="0.363281"/><stop stop-opacity="1" stop-color="rgb(42.89856%, 6.686401%, 18.011475%)" offset="0.371094"/><stop stop-opacity="1" stop-color="rgb(42.591858%, 6.784058%, 18.344116%)" offset="0.378906"/><stop stop-opacity="1" stop-color="rgb(42.286682%, 6.881714%, 18.678284%)" offset="0.386719"/><stop stop-opacity="1" stop-color="rgb(41.97998%, 6.97937%, 19.012451%)" offset="0.394531"/><stop stop-opacity="1" stop-color="rgb(41.673279%, 7.077026%, 19.345093%)" offset="0.402344"/><stop stop-opacity="1" stop-color="rgb(41.368103%, 7.174683%, 19.67926%)" offset="0.410156"/><stop stop-opacity="1" stop-color="rgb(41.061401%, 7.272339%, 20.013428%)" offset="0.417969"/><stop stop-opacity="1" stop-color="rgb(40.7547%, 7.369995%, 20.346069%)" offset="0.425781"/><stop stop-opacity="1" stop-color="rgb(40.447998%, 7.467651%, 20.680237%)" offset="0.433594"/><stop stop-opacity="1" stop-color="rgb(40.142822%, 7.565308%, 21.012878%)" offset="0.441406"/><stop stop-opacity="1" stop-color="rgb(39.836121%, 7.662964%, 21.347046%)" offset="0.449219"/><stop stop-opacity="1" stop-color="rgb(39.529419%, 7.76062%, 21.681213%)" offset="0.457031"/><stop stop-opacity="1" stop-color="rgb(39.224243%, 7.858276%, 22.013855%)" offset="0.464844"/><stop stop-opacity="1" stop-color="rgb(38.917542%, 7.955933%, 22.348022%)" offset="0.472656"/><stop stop-opacity="1" stop-color="rgb(38.61084%, 8.053589%, 22.68219%)" offset="0.480469"/><stop stop-opacity="1" stop-color="rgb(38.305664%, 8.151245%, 23.014832%)" offset="0.488281"/><stop stop-opacity="1" stop-color="rgb(37.998962%, 8.248901%, 23.348999%)" offset="0.496094"/><stop stop-opacity="1" stop-color="rgb(37.768555%, 8.322144%, 23.599243%)" offset="0.503906"/><stop stop-opacity="1" stop-color="rgb(37.615967%, 8.370972%, 23.765564%)" offset="0.507812"/><stop stop-opacity="1" stop-color="rgb(37.463379%, 8.4198%, 23.931885%)" offset="0.511719"/><stop stop-opacity="1" stop-color="rgb(37.309265%, 8.468628%, 24.099731%)" offset="0.515625"/><stop stop-opacity="1" stop-color="rgb(37.156677%, 8.517456%, 24.266052%)" offset="0.519531"/><stop stop-opacity="1" stop-color="rgb(37.004089%, 8.566284%, 24.432373%)" offset="0.523438"/><stop stop-opacity="1" stop-color="rgb(36.849976%, 8.615112%, 24.60022%)" offset="0.527344"/><stop stop-opacity="1" stop-color="rgb(36.697388%, 8.66394%, 24.766541%)" offset="0.53125"/><stop stop-opacity="1" stop-color="rgb(36.5448%, 8.712769%, 24.932861%)" offset="0.535156"/><stop stop-opacity="1" stop-color="rgb(36.390686%, 8.761597%, 25.100708%)" offset="0.539062"/><stop stop-opacity="1" stop-color="rgb(36.238098%, 8.810425%, 25.267029%)" offset="0.542969"/><stop stop-opacity="1" stop-color="rgb(36.08551%, 8.859253%, 25.43335%)" offset="0.546875"/><stop stop-opacity="1" stop-color="rgb(35.931396%, 8.908081%, 25.601196%)" offset="0.550781"/><stop stop-opacity="1" stop-color="rgb(35.778809%, 8.956909%, 25.767517%)" offset="0.554688"/><stop stop-opacity="1" stop-color="rgb(35.626221%, 9.005737%, 25.933838%)" offset="0.558594"/><stop stop-opacity="1" stop-color="rgb(35.472107%, 9.054565%, 26.100159%)" offset="0.5625"/><stop stop-opacity="1" stop-color="rgb(35.319519%, 9.103394%, 26.268005%)" offset="0.566406"/><stop stop-opacity="1" stop-color="rgb(35.165405%, 9.152222%, 26.434326%)" offset="0.570312"/><stop stop-opacity="1" stop-color="rgb(35.012817%, 9.20105%, 26.600647%)" offset="0.574219"/><stop stop-opacity="1" stop-color="rgb(34.860229%, 9.249878%, 26.768494%)" offset="0.578125"/><stop stop-opacity="1" stop-color="rgb(34.706116%, 9.298706%, 26.934814%)" offset="0.582031"/><stop stop-opacity="1" stop-color="rgb(34.553528%, 9.347534%, 27.101135%)" offset="0.585938"/><stop stop-opacity="1" stop-color="rgb(34.40094%, 9.396362%, 27.268982%)" offset="0.589844"/><stop stop-opacity="1" stop-color="rgb(34.246826%, 9.44519%, 27.435303%)" offset="0.59375"/><stop stop-opacity="1" stop-color="rgb(34.094238%, 9.494019%, 27.601624%)" offset="0.597656"/><stop stop-opacity="1" stop-color="rgb(33.94165%, 9.542847%, 27.76947%)" offset="0.601562"/><stop stop-opacity="1" stop-color="rgb(33.787537%, 9.591675%, 27.935791%)" offset="0.605469"/><stop stop-opacity="1" stop-color="rgb(33.634949%, 9.640503%, 28.102112%)" offset="0.609375"/><stop stop-opacity="1" stop-color="rgb(33.482361%, 9.689331%, 28.269958%)" offset="0.613281"/><stop stop-opacity="1" stop-color="rgb(33.328247%, 9.738159%, 28.436279%)" offset="0.617188"/><stop stop-opacity="1" stop-color="rgb(33.175659%, 9.786987%, 28.6026%)" offset="0.621094"/><stop stop-opacity="1" stop-color="rgb(33.023071%, 9.835815%, 28.768921%)" offset="0.625"/><stop stop-opacity="1" stop-color="rgb(32.792664%, 9.909058%, 29.019165%)" offset="0.628906"/><stop stop-opacity="1" stop-color="rgb(32.485962%, 10.006714%, 29.353333%)" offset="0.636719"/><stop stop-opacity="1" stop-color="rgb(32.17926%, 10.10437%, 29.6875%)" offset="0.644531"/><stop stop-opacity="1" stop-color="rgb(31.874084%, 10.202026%, 30.020142%)" offset="0.652344"/><stop stop-opacity="1" stop-color="rgb(31.567383%, 10.299683%, 30.354309%)" offset="0.660156"/><stop stop-opacity="1" stop-color="rgb(31.260681%, 10.397339%, 30.688477%)" offset="0.667969"/><stop stop-opacity="1" stop-color="rgb(30.955505%, 10.494995%, 31.021118%)" offset="0.675781"/><stop stop-opacity="1" stop-color="rgb(30.648804%, 10.592651%, 31.355286%)" offset="0.683594"/><stop stop-opacity="1" stop-color="rgb(30.342102%, 10.690308%, 31.687927%)" offset="0.691406"/><stop stop-opacity="1" stop-color="rgb(30.036926%, 10.787964%, 32.022095%)" offset="0.699219"/><stop stop-opacity="1" stop-color="rgb(29.730225%, 10.88562%, 32.356262%)" offset="0.707031"/><stop stop-opacity="1" stop-color="rgb(29.423523%, 10.983276%, 32.688904%)" offset="0.714844"/><stop stop-opacity="1" stop-color="rgb(29.116821%, 11.080933%, 33.023071%)" offset="0.722656"/><stop stop-opacity="1" stop-color="rgb(28.811646%, 11.178589%, 33.357239%)" offset="0.730469"/><stop stop-opacity="1" stop-color="rgb(28.504944%, 11.276245%, 33.68988%)" offset="0.738281"/><stop stop-opacity="1" stop-color="rgb(28.198242%, 11.373901%, 34.024048%)" offset="0.746094"/><stop stop-opacity="1" stop-color="rgb(27.96936%, 11.447144%, 34.274292%)" offset="0.753906"/><stop stop-opacity="1" stop-color="rgb(27.816772%, 11.495972%, 34.440613%)" offset="0.757812"/><stop stop-opacity="1" stop-color="rgb(27.662659%, 11.5448%, 34.606934%)" offset="0.761719"/><stop stop-opacity="1" stop-color="rgb(27.510071%, 11.593628%, 34.77478%)" offset="0.765625"/><stop stop-opacity="1" stop-color="rgb(27.357483%, 11.642456%, 34.941101%)" offset="0.769531"/><stop stop-opacity="1" stop-color="rgb(27.203369%, 11.691284%, 35.107422%)" offset="0.773438"/><stop stop-opacity="1" stop-color="rgb(27.050781%, 11.740112%, 35.275269%)" offset="0.777344"/><stop stop-opacity="1" stop-color="rgb(26.896667%, 11.78894%, 35.441589%)" offset="0.78125"/><stop stop-opacity="1" stop-color="rgb(26.74408%, 11.837769%, 35.60791%)" offset="0.785156"/><stop stop-opacity="1" stop-color="rgb(26.591492%, 11.886597%, 35.775757%)" offset="0.789062"/><stop stop-opacity="1" stop-color="rgb(26.437378%, 11.935425%, 35.942078%)" offset="0.792969"/><stop stop-opacity="1" stop-color="rgb(26.28479%, 11.984253%, 36.108398%)" offset="0.796875"/><stop stop-opacity="1" stop-color="rgb(26.132202%, 12.033081%, 36.274719%)" offset="0.800781"/><stop stop-opacity="1" stop-color="rgb(25.978088%, 12.081909%, 36.442566%)" offset="0.804688"/><stop stop-opacity="1" stop-color="rgb(25.8255%, 12.130737%, 36.608887%)" offset="0.808594"/><stop stop-opacity="1" stop-color="rgb(25.672913%, 12.179565%, 36.775208%)" offset="0.8125"/><stop stop-opacity="1" stop-color="rgb(25.442505%, 12.252808%, 37.025452%)" offset="0.816406"/><stop stop-opacity="1" stop-color="rgb(25.135803%, 12.350464%, 37.359619%)" offset="0.824219"/><stop stop-opacity="1" stop-color="rgb(24.830627%, 12.44812%, 37.693787%)" offset="0.832031"/><stop stop-opacity="1" stop-color="rgb(24.523926%, 12.545776%, 38.026428%)" offset="0.839844"/><stop stop-opacity="1" stop-color="rgb(24.217224%, 12.643433%, 38.360596%)" offset="0.847656"/><stop stop-opacity="1" stop-color="rgb(23.910522%, 12.741089%, 38.694763%)" offset="0.855469"/><stop stop-opacity="1" stop-color="rgb(23.605347%, 12.838745%, 39.027405%)" offset="0.863281"/><stop stop-opacity="1" stop-color="rgb(23.298645%, 12.936401%, 39.361572%)" offset="0.871094"/><stop stop-opacity="1" stop-color="rgb(23.069763%, 13.009644%, 39.611816%)" offset="0.878906"/><stop stop-opacity="1" stop-color="rgb(22.915649%, 13.058472%, 39.778137%)" offset="0.882812"/><stop stop-opacity="1" stop-color="rgb(22.763062%, 13.1073%, 39.944458%)" offset="0.886719"/><stop stop-opacity="1" stop-color="rgb(22.610474%, 13.156128%, 40.112305%)" offset="0.890625"/><stop stop-opacity="1" stop-color="rgb(22.45636%, 13.204956%, 40.278625%)" offset="0.894531"/><stop stop-opacity="1" stop-color="rgb(22.303772%, 13.253784%, 40.444946%)" offset="0.898438"/><stop stop-opacity="1" stop-color="rgb(22.151184%, 13.302612%, 40.612793%)" offset="0.902344"/><stop stop-opacity="1" stop-color="rgb(21.99707%, 13.35144%, 40.779114%)" offset="0.90625"/><stop stop-opacity="1" stop-color="rgb(21.768188%, 13.424683%, 41.029358%)" offset="0.910156"/><stop stop-opacity="1" stop-color="rgb(21.461487%, 13.522339%, 41.363525%)" offset="0.917969"/><stop stop-opacity="1" stop-color="rgb(21.154785%, 13.619995%, 41.696167%)" offset="0.925781"/><stop stop-opacity="1" stop-color="rgb(20.848083%, 13.717651%, 42.030334%)" offset="0.933594"/><stop stop-opacity="1" stop-color="rgb(20.619202%, 13.790894%, 42.280579%)" offset="0.941406"/><stop stop-opacity="1" stop-color="rgb(20.466614%, 13.839722%, 42.446899%)" offset="0.945312"/><stop stop-opacity="1" stop-color="rgb(20.3125%, 13.88855%, 42.61322%)" offset="0.949219"/><stop stop-opacity="1" stop-color="rgb(20.159912%, 13.937378%, 42.781067%)" offset="0.953125"/><stop stop-opacity="1" stop-color="rgb(19.929504%, 14.01062%, 43.031311%)" offset="0.957031"/><stop stop-opacity="1" stop-color="rgb(19.624329%, 14.108276%, 43.363953%)" offset="0.964844"/><stop stop-opacity="1" stop-color="rgb(19.393921%, 14.181519%, 43.614197%)" offset="0.972656"/><stop stop-opacity="1" stop-color="rgb(19.241333%, 14.230347%, 43.782043%)" offset="0.976562"/><stop stop-opacity="1" stop-color="rgb(19.010925%, 14.303589%, 44.032288%)" offset="0.980469"/><stop stop-opacity="1" stop-color="rgb(18.782043%, 14.376831%, 44.281006%)" offset="0.988281"/><stop stop-opacity="1" stop-color="rgb(18.551636%, 14.450073%, 44.53125%)" offset="0.992188"/><stop stop-opacity="1" stop-color="rgb(18.399048%, 14.498901%, 44.699097%)" offset="1"/></radialGradient></defs><rect x="-81" width="972" fill="#697a7a" y="-80.999999" height="971.999992" fill-opacity="1"/><path fill="#e38b5c" d="M 385.179688 581.140625 L 423.210938 574.84375 L 425.28125 590.777344 L 426.351562 595.027344 C 426.351562 595.140625 426.351562 595.273438 426.351562 595.453125 L 428.753906 605.375 C 431.402344 609.25 438.167969 612.296875 449.003906 614.523438 C 446.710938 632.925781 438.566406 645.921875 424.636719 653.464844 L 396.53125 639.582031 C 394.304688 636.285156 392.792969 632.703125 391.992188 628.832031 C 391.902344 627.964844 391.855469 627.007812 391.855469 625.917969 L 385.179688 581.140625 " fill-opacity="1" fill-rule="evenodd"/><path fill="#f89865" d="M 353.921875 347.230469 L 390.691406 353.035156 C 387.371094 366.265625 384.164062 378.199219 380.976562 388.878906 C 370.933594 394.460938 358.890625 392.769531 344.871094 383.84375 C 349.15625 369.496094 352.1875 357.296875 353.921875 347.230469 " fill-opacity="1" fill-rule="evenodd"/><path fill="#f89865" d="M 378.984375 396.039062 C 376.820312 402.945312 374.019531 409.527344 370.566406 415.800781 C 360.6875 436.148438 350 454.621094 338.480469 471.210938 C 327.902344 478.621094 318.875 475.210938 311.421875 461.003906 C 328.296875 425.066406 339.179688 399.121094 344.140625 383.144531 C 345.410156 379.710938 346.632812 376.300781 347.835938 372.957031 C 360.90625 368.566406 373.125 370.027344 384.511719 377.351562 C 382.960938 383.953125 381.125 390.183594 378.984375 396.039062 " fill-opacity="1" fill-rule="evenodd"/><path fill="#b22424" d="M 395.59375 258.332031 C 400.03125 262.4375 402.242188 269.832031 402.242188 280.492188 C 400.867188 307.410156 397.035156 334.4375 390.699219 361.601562 L 349.695312 355.15625 C 356.730469 329.839844 361.757812 303.914062 364.777344 277.382812 C 365.972656 267.417969 370.390625 260.609375 378.007812 256.980469 C 384.410156 255.042969 390.25 255.492188 395.59375 258.332031 " fill-opacity="1" fill-rule="evenodd"/><path fill="#f89865" d="M 315.1875 501.921875 C 312.484375 500.796875 310.023438 499.542969 307.753906 498.160156 C 310.023438 499.542969 312.484375 500.796875 315.1875 501.921875 Z M 329.210938 458.507812 C 329.925781 459.5 330.378906 460.734375 330.636719 462.179688 C 331.371094 465.832031 330.445312 469.355469 327.785156 472.8125 C 324.738281 476.960938 323.097656 479.988281 322.902344 481.890625 C 322.492188 486.554688 322.144531 489.429688 321.929688 490.511719 C 320.785156 493.730469 318.535156 495.4375 315.1875 495.609375 C 312.679688 495.285156 311.144531 493.558594 310.585938 490.445312 C 310.390625 489.453125 310.433594 487.617188 310.714844 484.9375 C 311.058594 481.953125 311.210938 480.417969 311.210938 480.3125 L 309.957031 476.851562 C 309.613281 475.015625 309.613281 473.136719 309.957031 471.257812 C 309.613281 473.136719 309.613281 475.015625 309.957031 476.851562 L 311.210938 480.3125 C 311.210938 480.417969 311.058594 481.953125 310.714844 484.9375 C 310.433594 487.617188 310.390625 489.453125 310.585938 490.445312 C 311.144531 493.558594 312.679688 495.285156 315.1875 495.609375 C 318.535156 495.4375 320.785156 493.730469 321.929688 490.511719 C 322.144531 489.429688 322.492188 486.554688 322.902344 481.890625 C 323.097656 479.988281 324.738281 476.960938 327.785156 472.8125 C 330.445312 469.355469 331.371094 465.832031 330.636719 462.179688 C 330.378906 460.734375 329.925781 459.5 329.210938 458.507812 Z M 296.277344 512.617188 C 295.761719 506.046875 296.710938 499.328125 299.109375 492.433594 C 299.238281 492.152344 299.414062 491.828125 299.605469 491.441406 L 300.945312 488.261719 L 299.605469 491.441406 C 299.414062 491.828125 299.238281 492.152344 299.109375 492.433594 C 296.710938 499.328125 295.761719 506.046875 296.277344 512.617188 C 296.558594 516.875 295.71875 519.1875 293.730469 519.554688 C 292.453125 519.382812 291.289062 518.582031 290.25 517.222656 C 289.925781 516.660156 289.625 516.117188 289.34375 515.601562 C 287.679688 509.074219 287.03125 503.519531 287.355469 498.9375 C 288.304688 490.726562 290.121094 484.332031 292.800781 479.75 C 301.488281 471.105469 309.417969 461.921875 316.613281 452.195312 C 319.875 453.296875 324.304688 454.746094 329.925781 456.582031 C 335.585938 458.398438 339.648438 459.824219 342.089844 460.90625 C 344.078125 469.355469 341.59375 477.070312 334.679688 484.007812 C 330.164062 488.308594 326.425781 494.898438 323.398438 503.757812 L 318.949219 521.695312 C 317.414062 524.613281 315.855469 525.367188 314.191406 523.964844 C 314 523.769531 313.871094 523.640625 313.761719 523.597656 C 313.632812 523.507812 313.546875 523.402344 313.546875 523.316406 C 312.269531 516.378906 312.832031 509.246094 315.1875 501.921875 C 316.074219 502.246094 316.960938 502.613281 317.800781 502.980469 C 316.960938 502.613281 316.074219 502.246094 315.1875 501.921875 C 312.832031 509.246094 312.269531 516.378906 313.546875 523.316406 C 313.546875 523.402344 313.632812 523.511719 313.761719 523.597656 C 309.050781 527.226562 306.089844 527.140625 304.921875 523.316406 L 304.769531 523.316406 C 304.769531 522.949219 304.75 522.539062 304.707031 522.105469 C 303.949219 513.460938 304.964844 505.488281 307.753906 498.160156 C 304.683594 496.195312 301.960938 493.949219 299.605469 491.441406 C 301.960938 493.949219 304.683594 496.195312 307.753906 498.160156 C 304.964844 505.488281 303.949219 513.460938 304.707031 522.105469 C 300.296875 524.375 297.835938 523.230469 297.273438 518.648438 C 297.207031 518.453125 297.1875 518.257812 297.1875 518.085938 C 296.820312 516.335938 296.515625 514.5 296.277344 512.617188 " fill-opacity="1" fill-rule="evenodd"/><path stroke-linecap="butt" transform="matrix(0.215313, 0, 0, -0.215318, -3178.257029, 3929.498726)" fill="none" stroke-linejoin="miter" d="M 16176.402041 15819.094088 L 16177.109587 15819.094088 M 16224.805441 15918.492748 C 16212.305463 15923.699431 16200.803305 15929.504792 16190.208258 15935.908831 M 16236.906292 15913.503766 C 16233.005718 15915.2998 16228.996291 15916.896274 16224.805441 15918.492748 C 16213.793124 15884.495105 16211.307642 15851.404548 16217.203858 15819.094088 C 16217.203858 15818.694969 16217.602986 15818.295851 16218.201679 15817.806023 M 16176.093623 15824.699889 C 16172.61032 15864.902012 16177.309151 15901.893045 16190.208258 15935.908831 C 16176.002912 15945.106699 16163.39408 15955.501923 16152.508758 15967.203353 M 16289.89967 16120.102041 C 16293.201551 16115.494036 16295.396758 16109.797526 16296.503433 16102.994369 C 16300.004878 16086.104397 16295.596322 16069.704253 16283.295908 16053.703228 C 16269.108704 16034.400404 16261.507121 16020.304262 16260.708864 16011.596221 C 16258.695079 15989.898685 16257.098565 15976.510072 16256.100744 15971.394098 C 16250.80322 15956.499719 16240.407737 15948.608057 16224.805441 15947.80982 C 16213.10372 15949.297444 16206.100829 15957.297956 16203.506494 15971.793216 C 16202.508672 15976.401222 16202.798948 15984.909703 16204.105186 15997.409371 C 16205.610989 16011.197102 16206.409246 16018.399378 16206.409246 16018.798497 L 16200.494888 16034.908373 C 16198.898374 16043.507563 16198.898374 16052.106754 16200.494888 16060.905504 M 16136.906462 15868.802489 C 16134.602402 15899.298774 16138.902104 15930.502588 16150.204698 15962.595348 C 16150.80339 15963.901554 16151.510936 15965.40732 16152.508758 15967.203353 L 16158.695249 15982.007023 " stroke="#954e40" stroke-width="0.768" stroke-opacity="1" stroke-miterlimit="10"/><path fill="#008395" d="M 461.5 601.519531 C 430.707031 608.355469 398.902344 606.046875 366.117188 594.570312 L 357.328125 500.304688 C 395.273438 482.171875 434.472656 481.859375 474.878906 499.386719 C 474.699219 518.976562 471.699219 538.203125 465.894531 557.03125 C 461.925781 570.074219 460.019531 581.148438 460.15625 590.269531 C 460.246094 594.414062 460.695312 598.160156 461.5 601.519531 " fill-opacity="1" fill-rule="evenodd"/><path fill="#fefffe" d="M 466.171875 671.96875 C 466.445312 672.285156 466.71875 672.515625 467.015625 672.605469 L 470.292969 674.085938 C 484.253906 661.582031 491.539062 649.128906 492.15625 636.761719 C 491.835938 636.671875 491.359375 636.304688 490.742188 635.691406 C 491.359375 634.847656 492.453125 634.894531 494 635.828125 C 494.339844 635.941406 494.773438 636.148438 495.367188 636.464844 C 495.957031 637.195312 496.414062 637.921875 496.6875 638.675781 C 505.636719 647.964844 517.273438 656.460938 531.617188 664.109375 C 533.507812 680.210938 526.632812 692.144531 511.011719 699.929688 C 509.347656 698.246094 507.527344 696.765625 505.546875 695.492188 C 496.710938 688.910156 486.734375 682.875 475.601562 677.339844 C 473.414062 677.636719 471.25 677.183594 469.085938 675.996094 C 467.515625 674.925781 466.539062 673.5625 466.171875 671.96875 " fill-opacity="1" fill-rule="evenodd"/><path fill="#e38b5c" d="M 490.644531 635.789062 C 491.253906 636.394531 491.726562 636.757812 492.0625 636.847656 C 491.457031 649.230469 484.160156 661.660156 470.175781 674.179688 L 466.933594 672.695312 C 466.621094 672.605469 466.347656 672.378906 466.054688 672.042969 C 440.296875 661.054688 426.15625 654.546875 423.722656 652.496094 C 434.058594 639.144531 442.367188 626.488281 448.628906 614.53125 C 458.511719 615.996094 472.519531 623.089844 490.644531 635.789062 " fill-opacity="1" fill-rule="evenodd"/><path fill="#999999" d="M 499.425781 762.222656 C 502.585938 761.140625 506.160156 761.738281 510.101562 764.066406 L 510.472656 764.550781 C 513.90625 766.628906 517.757812 766.050781 522.023438 762.777344 C 530.855469 755.464844 541.671875 740.894531 554.46875 719.078125 C 562.539062 706.324219 567.933594 695.371094 570.679688 686.21875 C 571.210938 683.703125 570.863281 681.535156 569.6875 679.691406 C 571.046875 678.699219 573.746094 679.851562 577.757812 683.105469 C 579.742188 684.902344 580.410156 687.210938 579.742188 690.046875 L 567.335938 714.558594 C 567.105469 715.386719 566.644531 715.917969 565.929688 716.101562 L 561.269531 717.53125 C 560.441406 717.855469 560.003906 718.410156 559.910156 719.214844 L 560.554688 724.75 C 560.554688 725.789062 558.574219 729.109375 554.605469 734.734375 C 541.71875 755.234375 530.742188 767.828125 521.746094 772.554688 C 514.945312 775.921875 508.121094 774.421875 501.339844 768.101562 C 498.78125 765.9375 498.15625 763.976562 499.425781 762.222656 " fill-opacity="1" fill-rule="evenodd"/><path fill="#ffffff" d="M 497.871094 759.074219 C 496.359375 754.578125 497.023438 749.925781 499.84375 745.109375 L 500.210938 744.765625 C 500.828125 743.480469 501.496094 741.964844 502.207031 740.222656 C 506.472656 737.859375 510.554688 737.539062 514.453125 739.238281 C 515.484375 739.328125 516.21875 738.777344 516.628906 737.539062 C 517.019531 736.164062 517.433594 734.765625 517.914062 733.296875 C 512.984375 731.484375 508.582031 731.667969 504.660156 733.777344 C 505.140625 732.425781 505.460938 731.257812 505.644531 730.316406 C 509.109375 728.664062 513.464844 728.871094 518.695312 730.957031 C 519.265625 728.78125 519.589844 726.554688 519.679688 724.285156 C 514.863281 722.3125 510.4375 722.175781 506.449219 723.871094 C 506.515625 722.886719 506.585938 721.832031 506.585938 720.753906 C 511.492188 719.054688 515.941406 719.355469 519.976562 721.671875 C 520.207031 718.503906 520.160156 715.5 519.816406 712.679688 C 514.453125 711.121094 509.84375 711.648438 506.011719 714.238281 C 505.875 713.300781 505.578125 712.246094 505.09375 711.121094 C 508.625 708.300781 513.167969 707.453125 518.695312 708.644531 C 518.167969 706.007812 517.339844 703.4375 516.21875 700.984375 C 516.882812 700.617188 517.386719 700.203125 517.777344 699.792969 C 524.289062 693.78125 529.585938 687.039062 533.625 679.542969 L 533.785156 678.53125 C 534.519531 677.546875 535.113281 676.421875 535.550781 675.136719 C 536.488281 672.226562 536.71875 669.75 536.261719 667.777344 C 536.925781 667.386719 537.660156 667.5 538.4375 668.050781 C 539.722656 668.578125 541.054688 669.566406 542.40625 671.035156 C 543.691406 671.652344 545.113281 672.386719 546.648438 673.234375 C 548.964844 674.039062 550.410156 674.679688 550.984375 675.136719 C 553.070312 676.171875 554.882812 677.867188 556.441406 680.160156 C 557.910156 682.246094 558.847656 684.335938 559.285156 686.398438 C 559.789062 689.472656 559.582031 692.683594 558.644531 696.03125 C 557.792969 698.53125 556.578125 701.558594 555.019531 705.089844 C 548.507812 718.988281 541.902344 730.316406 535.183594 739.097656 C 530.894531 744.855469 526.332031 749.808594 521.515625 753.960938 C 519.976562 755.566406 518.808594 756.644531 518.050781 757.148438 C 516.835938 758.113281 515.460938 758.660156 513.945312 758.867188 C 512.480469 759.328125 510.875 759.328125 509.132812 758.867188 C 507.136719 758.476562 505.597656 758.179688 504.523438 757.929688 C 502.640625 757.746094 501.011719 757.859375 499.636719 758.292969 C 498.925781 758.476562 498.351562 758.730469 497.871094 759.074219 " fill-opacity="1" fill-rule="evenodd"/><path fill="#cccccc" d="M 505.785156 730.195312 C 506.199219 728.078125 506.476562 725.941406 506.566406 723.753906 C 510.570312 722.050781 514.984375 722.214844 519.792969 724.191406 C 519.722656 726.445312 519.378906 728.675781 518.828125 730.839844 C 513.582031 728.769531 509.234375 728.5625 505.785156 730.195312 Z M 504.773438 733.667969 C 508.707031 731.550781 513.121094 731.390625 518.023438 733.1875 C 517.5625 734.636719 517.125 736.0625 516.757812 737.441406 C 516.34375 738.660156 515.605469 739.234375 514.570312 739.121094 C 510.683594 737.441406 506.589844 737.761719 502.3125 740.132812 C 503.070312 738.222656 503.898438 736.085938 504.773438 733.667969 Z M 506.703125 720.648438 C 506.703125 718.371094 506.519531 716.210938 506.128906 714.140625 C 509.949219 711.539062 514.570312 711.011719 519.953125 712.574219 C 520.277344 715.40625 520.320312 718.394531 520.09375 721.570312 C 516.066406 719.246094 511.605469 718.945312 506.703125 720.648438 Z M 499.34375 762.285156 C 498.632812 761.113281 498.195312 760.007812 497.988281 758.972656 C 498.46875 758.628906 499.066406 758.375 499.757812 758.191406 C 501.136719 757.753906 502.769531 757.636719 504.65625 757.820312 C 505.714844 758.074219 507.257812 758.375 509.257812 758.742188 C 511.007812 759.226562 512.59375 759.226562 514.066406 758.742188 C 515.582031 758.558594 516.964844 758.007812 518.183594 757.039062 C 518.941406 756.535156 520.09375 755.476562 521.65625 753.867188 C 526.464844 749.703125 531.019531 744.757812 535.320312 738.984375 C 542.011719 730.195312 548.636719 718.878906 555.148438 704.984375 C 556.710938 701.441406 557.90625 698.429688 558.757812 695.921875 C 559.703125 692.5625 559.910156 689.367188 559.402344 686.28125 C 558.964844 684.210938 558.023438 682.140625 556.550781 680.050781 C 555.007812 677.75 553.191406 676.070312 551.121094 675.035156 C 550.546875 674.550781 549.097656 673.929688 546.773438 673.125 C 545.234375 672.273438 543.808594 671.539062 542.542969 670.917969 C 541.183594 669.46875 539.851562 668.480469 538.5625 667.949219 C 537.78125 667.375 537.042969 667.28125 536.378906 667.671875 C 536.835938 669.652344 536.609375 672.113281 535.664062 675.035156 C 535.25 676.300781 534.652344 677.449219 533.894531 678.4375 L 533.753906 679.429688 C 529.707031 686.925781 524.417969 693.691406 517.90625 699.671875 C 517.515625 700.109375 517.007812 700.5 516.34375 700.890625 C 517.46875 703.328125 518.296875 705.882812 518.828125 708.527344 C 513.285156 707.355469 508.753906 708.183594 505.210938 711.011719 C 504.839844 709.882812 504.382812 708.617188 503.875 707.261719 C 503.597656 706.824219 503.300781 706.296875 503 705.628906 L 502.792969 705.628906 C 500.90625 701.765625 500.496094 699.300781 501.527344 698.265625 C 501.941406 698.175781 502.3125 697.808594 502.609375 697.210938 C 505.324219 695.023438 507.925781 693.527344 510.386719 692.746094 C 511.375 692.886719 512.316406 693.574219 513.214844 694.792969 C 523.3125 685.777344 528.832031 675.402344 529.730469 663.695312 L 527.175781 661.648438 C 530.328125 660.359375 532.90625 660.84375 534.90625 663.050781 C 536.628906 663.210938 538.402344 664.152344 540.195312 665.902344 C 542.382812 667.074219 545.714844 668.019531 550.246094 668.730469 C 557.308594 669.996094 563.015625 672.734375 567.40625 676.945312 L 568.027344 677.082031 C 568.375 677.886719 568.832031 678.621094 569.453125 679.289062 C 569.640625 679.519531 569.683594 679.679688 569.59375 679.773438 C 570.789062 681.613281 571.109375 683.796875 570.582031 686.28125 C 567.84375 695.460938 562.4375 706.410156 554.367188 719.152344 C 541.574219 740.960938 530.765625 755.542969 521.933594 762.859375 C 517.675781 766.125 513.835938 766.699219 510.386719 764.628906 L 510.015625 764.125 C 506.0625 761.824219 502.496094 761.203125 499.34375 762.285156 " fill-opacity="1" fill-rule="evenodd"/><path fill="#f89865" d="M 412.6875 611.65625 L 409.289062 627.527344 L 397.746094 664.433594 L 355.542969 647.015625 L 371.171875 573.273438 L 419.488281 588.082031 C 415.292969 599.492188 413.019531 607.375 412.6875 611.65625 " fill-opacity="1" fill-rule="evenodd"/><path fill="#00a5bb" d="M 390.613281 483.316406 C 419.121094 474.753906 447.222656 477.332031 474.878906 491.027344 C 470.171875 513.796875 464.4375 534.953125 457.757812 554.566406 C 451.976562 570.816406 447.605469 584.824219 444.648438 596.632812 C 443.660156 600.980469 442.785156 605.015625 442.023438 608.738281 C 406.613281 615.257812 376.648438 610.53125 352.152344 594.570312 L 352.152344 581.550781 L 363.898438 494.992188 C 372.90625 489.949219 381.804688 486.050781 390.613281 483.316406 " fill-opacity="1" fill-rule="evenodd"/><path fill="#d92b2b" d="M 350.996094 361.867188 L 443.273438 266.953125 C 451.867188 295.523438 458.617188 317.730469 463.523438 333.613281 C 466.804688 343.984375 469.796875 354.511719 472.519531 365.199219 C 472.902344 366.660156 473.261719 368.121094 473.601562 369.585938 C 473.960938 371.046875 474.386719 372.554688 474.859375 374.105469 C 484.398438 413.207031 488.628906 453.046875 487.546875 493.609375 C 448.40625 513.023438 406.652344 516.082031 362.3125 502.8125 C 355.988281 502.339844 353.089844 499.527344 353.605469 494.375 C 357.183594 460.675781 357.476562 426.34375 354.460938 391.40625 C 354.371094 389.742188 354.191406 388.078125 353.964844 386.367188 C 353.875 384.90625 353.761719 383.441406 353.605469 381.980469 C 352.886719 375.277344 352.03125 368.574219 350.996094 361.867188 " fill-opacity="1" fill-rule="evenodd"/><path fill="#fefffe" d="M 388.339844 698.699219 C 389.324219 699.136719 389.566406 700.230469 389.0625 702.027344 C 388.953125 702.3125 388.777344 702.726562 388.472656 703.230469 C 388.011719 703.996094 387.464844 704.632812 386.851562 705.15625 C 379.496094 715.730469 373.542969 728.820312 369.011719 744.46875 C 353.757812 749.789062 340.667969 745.585938 329.765625 731.839844 C 331.035156 729.867188 332.085938 727.789062 332.875 725.621094 C 337.515625 715.664062 341.367188 704.632812 344.496094 692.546875 C 343.6875 690.46875 343.644531 688.214844 344.34375 685.804688 C 345.21875 684.011719 346.292969 682.808594 347.605469 682.195312 C 347.429688 682.523438 347.320312 682.828125 347.320312 683.113281 L 346.402344 686.59375 C 361.570312 697.691406 375.273438 702.246094 387.574219 700.253906 C 387.707031 699.835938 387.96875 699.3125 388.339844 698.699219 " fill-opacity="1" fill-rule="evenodd"/><path fill="#f89865" d="M 347.640625 682.183594 C 353.109375 654.730469 356.535156 639.558594 357.917969 636.636719 C 373.3125 643.90625 387.453125 649.441406 400.34375 653.28125 C 401.089844 663.097656 397.113281 678.230469 388.375 698.671875 C 388 699.289062 387.738281 699.816406 387.585938 700.234375 C 375.308594 702.210938 361.605469 697.664062 346.433594 686.574219 L 347.355469 683.082031 C 347.355469 682.820312 347.464844 682.511719 347.640625 682.183594 " fill-opacity="1" fill-rule="evenodd"/><path fill="#cccccc" d="M 316.347656 737.34375 C 320.738281 739.417969 323.507812 743.128906 324.710938 748.457031 C 322.351562 750.269531 319.820312 751.84375 317.113281 753.21875 C 317.113281 748.589844 315.191406 744.59375 311.304688 741.230469 C 313.074219 740.117188 314.734375 738.808594 316.347656 737.34375 Z M 308.203125 742.648438 C 311.742188 745.25 313.902344 749.199219 314.644531 754.484375 C 312.613281 755.378906 310.496094 756.164062 308.335938 756.820312 C 307.570312 751.164062 305.585938 747.277344 302.308594 745.203125 C 304.449219 744.460938 306.390625 743.609375 308.203125 742.648438 Z M 298.902344 746.121094 C 302.660156 748.4375 304.929688 752.214844 305.78125 757.453125 C 304.316406 757.738281 302.921875 758.042969 301.542969 758.394531 C 300.167969 758.566406 299.339844 758.21875 299.054688 757.324219 C 298.554688 753.21875 296.171875 749.855469 291.980469 747.257812 C 293.96875 746.929688 296.28125 746.558594 298.902344 746.121094 Z M 322.003906 730.621094 C 322.089844 730.464844 322.15625 730.359375 322.15625 730.269531 C 324.46875 726.667969 326.390625 725.117188 327.941406 725.597656 C 328.246094 725.773438 328.707031 725.925781 329.359375 726.011719 C 332.722656 727.277344 335.257812 728.828125 336.9375 730.621094 C 337.332031 731.425781 337.285156 732.496094 336.808594 733.871094 C 349.6875 738.261719 361.371094 737.914062 371.804688 732.804688 L 372.222656 729.484375 C 374.972656 731.601562 375.933594 734.113281 375.125 736.996094 C 375.847656 738.457031 375.890625 740.421875 375.277344 742.867188 C 375.277344 745.226562 376.128906 748.566406 377.832031 752.847656 C 380.191406 759.570312 380.671875 765.96875 379.316406 772.0625 L 379.316406 772.695312 C 378.925781 773.351562 378.574219 774.09375 378.246094 774.878906 C 378.160156 775.074219 378.050781 775.160156 377.964844 775.160156 C 376.894531 777.191406 375.191406 778.613281 372.921875 779.417969 C 363.488281 781.539062 351.21875 782.390625 336.109375 781.972656 C 310.976562 781.648438 292.964844 779.484375 282.070312 775.535156 C 277.242188 773.4375 274.84375 770.378906 274.84375 766.320312 L 274.972656 765.882812 C 274.972656 761.320312 273.835938 757.914062 271.566406 755.6875 C 272.113281 754.417969 272.789062 753.480469 273.621094 752.847656 C 274.164062 753.085938 274.644531 753.503906 275.105469 754.070312 C 276.195312 755.050781 277.046875 756.40625 277.679688 758.109375 C 278.050781 759.136719 278.574219 760.640625 279.230469 762.628906 C 279.84375 764.289062 280.628906 765.640625 281.632812 766.734375 C 282.550781 767.914062 283.773438 768.875 285.324219 769.574219 C 286.21875 769.855469 287.636719 770.335938 289.558594 770.992188 C 295.804688 772.871094 302.417969 774.222656 309.40625 775.03125 C 320.410156 776.492188 333.574219 776.582031 348.925781 775.316406 C 352.746094 774.945312 355.933594 774.484375 358.488281 773.960938 C 361.828125 773.109375 364.644531 771.691406 366.917969 769.726562 C 368.707031 768.261719 370.125 766.363281 371.152344 764.046875 C 372.441406 761.644531 372.984375 759.222656 372.789062 756.820312 C 372.875 756.164062 372.703125 754.660156 372.222656 752.300781 C 372.046875 750.402344 371.980469 748.828125 372.089844 747.542969 C 372.660156 745.554688 372.875 744.003906 372.789062 742.867188 C 372.789062 741.777344 372.550781 740.992188 372.089844 740.464844 C 370.34375 741.734375 367.964844 742.738281 365.015625 743.4375 C 363.816406 743.765625 362.550781 743.894531 361.175781 743.785156 L 360.539062 744.070312 C 351.71875 744.308594 343.160156 743.109375 334.886719 740.464844 C 334.273438 740.269531 333.664062 740.03125 332.984375 739.746094 C 331.414062 741.929688 329.601562 743.894531 327.527344 745.640625 C 325.824219 740.335938 322.898438 736.84375 318.664062 735.140625 C 319.625 734.199219 320.453125 733.195312 321.152344 732.105469 C 321.480469 731.578125 321.808594 731.101562 322.15625 730.621094 L 322.003906 730.621094 " fill-opacity="1" fill-rule="evenodd"/><path fill="#ffffff" d="M 291.984375 747.261719 C 296.191406 749.855469 298.566406 753.210938 299.066406 757.308594 C 299.347656 758.199219 300.175781 758.570312 301.550781 758.375 C 302.921875 758.046875 304.316406 757.742188 305.796875 757.460938 C 304.949219 752.210938 302.660156 748.441406 298.914062 746.128906 C 300.285156 745.695312 301.441406 745.390625 302.335938 745.195312 C 305.582031 747.285156 307.585938 751.140625 308.347656 756.804688 C 310.503906 756.152344 312.617188 755.367188 314.644531 754.476562 C 313.902344 749.179688 311.746094 745.238281 308.21875 742.644531 C 309.109375 742.273438 310.15625 741.792969 311.332031 741.226562 C 315.1875 744.582031 317.128906 748.570312 317.128906 753.210938 C 319.828125 751.839844 322.355469 750.25 324.710938 748.460938 C 323.53125 743.125 320.746094 739.417969 316.34375 737.328125 C 317.214844 736.761719 317.976562 736.042969 318.675781 735.148438 C 322.902344 736.847656 325.84375 740.335938 327.542969 745.628906 C 329.613281 743.886719 331.441406 741.925781 333.011719 739.746094 C 333.664062 740.03125 334.296875 740.269531 334.90625 740.445312 C 343.164062 743.101562 351.726562 744.300781 360.546875 744.058594 L 361.179688 743.777344 C 362.554688 743.886719 363.839844 743.753906 365.015625 743.429688 C 367.976562 742.730469 370.351562 741.730469 372.09375 740.445312 C 372.554688 740.96875 372.816406 741.773438 372.816406 742.863281 C 372.878906 743.996094 372.660156 745.5625 372.09375 747.546875 C 371.988281 748.808594 372.050781 750.402344 372.226562 752.273438 C 372.707031 754.648438 372.878906 756.152344 372.816406 756.804688 C 372.988281 759.222656 372.445312 761.644531 371.179688 764.039062 C 370.136719 766.347656 368.71875 768.246094 366.910156 769.703125 C 364.644531 771.6875 361.835938 773.101562 358.5 773.953125 C 355.929688 774.476562 352.769531 774.933594 348.9375 775.304688 C 333.578125 776.566406 320.417969 776.480469 309.394531 775.019531 C 302.421875 774.214844 295.820312 772.863281 289.566406 770.988281 C 287.648438 770.316406 286.210938 769.855469 285.320312 769.574219 C 283.773438 768.855469 282.550781 767.917969 281.636719 766.742188 C 280.636719 765.652344 279.851562 764.28125 279.242188 762.625 C 278.585938 760.640625 278.042969 759.136719 277.695312 758.089844 C 277.0625 756.390625 276.210938 755.042969 275.121094 754.0625 C 274.664062 753.496094 274.164062 753.082031 273.640625 752.839844 C 276.714844 749.3125 281.113281 747.546875 286.824219 747.546875 L 287.105469 747.546875 C 288.476562 747.546875 290.089844 747.4375 291.984375 747.261719 " fill-opacity="1" fill-rule="evenodd"/><path fill="#999999" d="M 271.699219 755.578125 C 273.96875 757.78125 275.105469 761.1875 275.105469 765.773438 L 274.953125 766.1875 C 274.953125 770.246094 277.375 773.324219 282.199219 775.398438 C 293.113281 779.371094 311.121094 781.511719 336.226562 781.859375 C 351.355469 782.273438 363.621094 781.421875 373.074219 779.304688 C 375.320312 778.5 377.023438 777.078125 378.09375 775.050781 C 379.558594 775.8125 379.863281 778.761719 379.011719 783.910156 C 378.597656 786.445312 376.914062 788.167969 373.992188 789.085938 L 346.792969 790.699219 C 345.941406 790.789062 345.242188 790.59375 344.738281 790.066406 L 341.136719 786.726562 C 340.417969 786.3125 339.609375 786.269531 338.714844 786.597656 L 334.523438 789.851562 C 333.496094 790.417969 329.613281 790.308594 322.933594 789.5 C 298.703125 788.691406 282.308594 785.550781 273.75 780.070312 C 267.488281 775.835938 265.390625 769.199219 267.464844 760.183594 C 268.078125 756.910156 269.496094 755.382812 271.699219 755.578125 " fill-opacity="1" fill-rule="evenodd"/><path fill="#ed7d0d" d="M 322.042969 730.359375 C 322.042969 730.445312 322 730.574219 321.914062 730.703125 L 321.914062 730.488281 L 322.042969 730.359375 " fill-opacity="1" fill-rule="evenodd"/><path fill="#ff3333" d="M 425.757812 222.78125 C 417.160156 228.070312 407.152344 236.324219 395.726562 247.5 C 372.261719 271.078125 360.246094 281.953125 359.746094 280.152344 C 360.839844 276.003906 361.453125 271.828125 361.660156 267.609375 C 361.84375 262.890625 361.453125 258.035156 360.519531 253.039062 C 360.519531 252.605469 360.472656 252.21875 360.359375 251.898438 C 359.675781 247.40625 361.226562 244.007812 365.058594 241.707031 C 376.960938 234.136719 389.296875 227.707031 402.089844 222.371094 C 410.457031 219.109375 416.453125 215.847656 420.082031 212.585938 C 423.066406 213.679688 424.9375 217.078125 425.757812 222.78125 " fill-opacity="1" fill-rule="evenodd"/><path fill="#d92b2b" d="M 425.847656 222.695312 C 432.398438 234.976562 439.878906 255.828125 448.226562 285.234375 C 425.691406 334.445312 394.511719 369.351562 354.648438 390 C 353.714844 381.179688 350.03125 357.277344 343.597656 318.320312 C 346.574219 306.792969 351.988281 294.035156 359.832031 280.070312 C 360.332031 281.867188 372.339844 270.972656 395.808594 247.414062 C 407.246094 236.226562 417.253906 227.992188 425.847656 222.695312 " fill-opacity="1" fill-rule="evenodd"/><path fill="#b02222" d="M 343.570312 318.351562 C 342.175781 316.371094 341.636719 312.554688 341.929688 306.890625 C 342.019531 306.464844 342.175781 306.039062 342.355469 305.613281 C 346.421875 294.332031 352.871094 281.640625 361.699219 267.578125 C 361.496094 271.777344 360.867188 275.957031 359.789062 280.113281 C 351.949219 294.085938 346.535156 306.847656 343.570312 318.351562 " fill-opacity="1" fill-rule="evenodd"/><path fill="#f89865" d="M 469.695312 327.878906 C 474.613281 341.195312 478.8125 353.480469 482.359375 364.777344 C 476.925781 375.398438 465.496094 381.015625 448.023438 381.621094 C 443.304688 366.664062 438.726562 354.199219 434.277344 344.226562 L 469.695312 327.878906 " fill-opacity="1" fill-rule="evenodd"/><path fill="#ff3333" d="M 418.148438 242.710938 C 424.484375 243.5 430.769531 248.679688 437.058594 258.226562 C 451.601562 282.292969 464.175781 308.007812 474.808594 335.355469 C 464.605469 348.765625 451.351562 354.898438 435.023438 353.765625 C 426.40625 327.550781 415.640625 302.105469 402.632812 277.40625 C 397.726562 267.882812 397.542969 259.3125 402.070312 251.710938 C 406.410156 246.171875 411.773438 243.183594 418.148438 242.710938 " fill-opacity="1" fill-rule="evenodd"/><path fill="#f89865" d="M 484.714844 372.058594 C 486.855469 379.605469 488.339844 387.0625 489.242188 394.363281 C 492.507812 417.976562 494.085938 440.324219 493.996094 461.367188 C 488.949219 474.167969 479.035156 476.578125 464.324219 468.601562 C 457.699219 427.324219 451.863281 398.308594 446.816406 381.542969 C 445.871094 377.78125 445.015625 374.0625 444.25 370.4375 C 452.902344 358.945312 464.347656 353.066406 478.628906 352.726562 C 481.0625 359.417969 483.113281 365.886719 484.710938 372.058594 " fill-opacity="1" fill-rule="evenodd"/><path fill="#f89865" d="M 510.492188 513.996094 L 509.289062 512.929688 L 501.726562 501.457031 L 509.289062 512.929688 Z M 493.503906 504.863281 L 502.566406 519.3125 L 504.699219 521.289062 L 502.566406 519.3125 Z M 504.699219 521.289062 L 510.652344 527.304688 C 511.152344 530.714844 510.105469 532.984375 507.449219 534.121094 L 495.410156 525.761719 L 493.070312 524.261719 L 482.441406 508.046875 L 493.070312 524.261719 L 495.410156 525.761719 L 500.089844 531.214844 C 500.226562 533.710938 499.160156 535.664062 496.910156 537.097656 L 481.328125 524.558594 L 469.269531 507.339844 C 467.429688 500.820312 466.15625 494.28125 465.453125 487.714844 L 463.476562 463.277344 C 472.242188 459.277344 480.828125 457.371094 489.1875 457.550781 C 495.183594 459.753906 499.339844 465.84375 501.726562 475.746094 C 503.429688 484.398438 505.675781 491.125 508.515625 495.9375 L 515.171875 506.773438 L 521.757812 513.15625 C 521.804688 513.335938 521.871094 513.449219 521.960938 513.496094 C 524.007812 517.128906 523.121094 519.789062 519.351562 521.445312 L 510.492188 513.996094 L 516.808594 520.652344 C 518.917969 524.71875 517.988281 527.375 513.96875 528.667969 L 504.699219 521.289062 " fill-opacity="1" fill-rule="evenodd"/><path stroke-linecap="butt" transform="matrix(0.226302, 0, 0, -0.226307, -3178.257029, 3929.498726)" fill="none" stroke-linejoin="miter" d="M 16299.996247 15092.19506 L 16294.697045 15096.907263 L 16261.192971 15147.602276 M 16224.892575 15132.499063 L 16264.904138 15068.703091 L 16274.397822 15059.900076 M 16233.402368 15040.205486 L 16223.097406 15046.799117 L 16176.095039 15118.396978 " stroke="#954e40" stroke-width="0.731" stroke-opacity="1" stroke-miterlimit="10"/><path fill="#0000ff" d="M 309.105469 185.992188 L 309.175781 186.105469 L 309.289062 186.335938 L 309.425781 186.472656 L 309.449219 186.65625 L 309.726562 187.210938 L 309.769531 187.988281 L 309.65625 188.011719 L 309.585938 187.1875 L 309.496094 187.003906 L 309.425781 186.910156 L 309.335938 186.726562 C 309.3125 186.589844 309.242188 186.472656 309.175781 186.40625 L 309.011719 186.0625 L 308.945312 186.082031 L 308.921875 185.898438 L 308.992188 185.945312 L 309.105469 185.992188 " fill-opacity="1" fill-rule="evenodd"/><path fill="#f89865" d="M 375.980469 254.132812 C 372.097656 244.710938 366.375 238.230469 358.769531 234.714844 C 368.191406 216.75 384.320312 199.929688 407.15625 184.28125 C 410.054688 197.148438 414.761719 208.453125 421.355469 218.242188 C 411.269531 233.75 396.152344 245.722656 375.980469 254.132812 " fill-opacity="1" fill-rule="evenodd"/><path fill="#f89865" d="M 297.011719 219.394531 C 302.242188 218.398438 306.851562 214.570312 310.84375 207.964844 C 306.851562 214.570312 302.242188 218.398438 297.011719 219.394531 C 296.800781 219.445312 296.5625 219.46875 296.371094 219.492188 C 296.5625 219.46875 296.800781 219.445312 297.011719 219.394531 Z M 273.53125 129.25 C 275.21875 116.769531 282.160156 104.175781 294.304688 91.410156 C 300.414062 85.019531 306.304688 79.859375 312.035156 75.988281 C 326.984375 62.273438 341.859375 55.5 356.667969 55.691406 C 369 55.925781 380.910156 60.941406 392.410156 70.757812 C 401.65625 78.648438 409.976562 88.964844 417.320312 101.679688 C 423.285156 112.113281 427.230469 121.308594 429.179688 129.296875 C 431.933594 140.75 430.152344 153.894531 423.808594 168.75 C 420.527344 176.402344 412.851562 190.089844 400.824219 209.84375 C 393.171875 222.367188 380.289062 231.828125 362.15625 238.21875 C 348.039062 243.09375 334.96875 245.207031 322.964844 244.566406 C 315.550781 244.160156 309.207031 241.691406 303.976562 237.175781 C 302.3125 235.75 300.886719 234.226562 299.675781 232.5625 L 298.320312 230.566406 C 296.800781 227.359375 295.847656 223.769531 295.46875 219.753906 L 292 220.5625 L 286.9375 202.996094 C 278.714844 199.097656 276.789062 194.632812 281.113281 189.519531 C 283.277344 186.929688 286.246094 184.746094 290.050781 182.984375 C 290.859375 177.449219 289.8125 171.410156 286.890625 164.828125 C 284.964844 160.5 281.921875 155.367188 277.714844 149.402344 C 275.148438 145.742188 273.675781 141.273438 273.296875 136.046875 L 273.53125 129.25 " fill-opacity="1" fill-rule="evenodd"/><path stroke-linecap="butt" transform="matrix(0.228311, 0, 0, -0.228317, -3178.257029, 3929.498726)" fill="none" stroke-linejoin="miter" d="M 15282.398726 16299.996569 C 15264.895874 16271.099617 15244.706856 16254.40132 15221.797453 16249.901676 C 15220.805112 16249.799022 15219.898317 16249.593715 15219.008631 16249.508171 " stroke="#000033" stroke-width="3.02" stroke-opacity="1" stroke-miterlimit="10"/><path fill="#330000" d="M 279.472656 90.734375 C 282.890625 83.726562 288.535156 79.132812 296.355469 76.933594 L 298.101562 72.507812 C 299.753906 68.921875 301.761719 65.597656 304.128906 62.535156 C 311.855469 52.609375 321.972656 46.988281 334.457031 45.601562 L 342.898438 41.179688 C 349.859375 37.972656 356.722656 35.773438 363.464844 34.601562 C 385.085938 31.035156 401.613281 38.546875 413.046875 57.15625 C 426.34375 78.847656 433.375 90.421875 434.140625 91.882812 C 441.816406 105.609375 446.695312 117.761719 448.824219 128.355469 C 454.613281 156.625 442.628906 181.761719 412.828125 203.742188 C 409.816406 203.765625 406.875 203.023438 403.980469 201.539062 C 398.242188 198.527344 395.800781 193.144531 396.6875 185.375 C 395.082031 177.050781 391.949219 170.570312 387.289062 165.976562 C 377.984375 156.769531 365.808594 161.433594 350.789062 179.945312 C 349.140625 173.246094 346.628906 165.691406 343.234375 157.222656 C 336.488281 140.3125 328.667969 127.445312 319.699219 118.621094 C 313.003906 118.8125 306.164062 118.214844 299.25 116.753906 C 285.402344 113.933594 277.894531 108.527344 276.699219 100.585938 C 276.722656 99.824219 276.839844 98.84375 277.105469 97.671875 C 277.632812 95.277344 278.421875 92.957031 279.472656 90.734375 " fill-opacity="1" fill-rule="evenodd"/><path fill="#330000" d="M 277.679688 100.015625 L 287.746094 96.136719 C 290.027344 111.5625 299.574219 122.382812 316.390625 128.613281 C 296.046875 128.753906 283.136719 119.230469 277.679688 100.015625 " fill-opacity="1" fill-rule="evenodd"/><path fill="#77390d" d="M 373.664062 173.664062 C 374.585938 174.082031 375.300781 174.726562 375.808594 175.554688 C 376.664062 177.03125 376.894531 178.714844 376.5 180.652344 C 376.132812 182.777344 375.300781 184.527344 373.941406 185.9375 C 372.464844 187.25 370.964844 187.894531 369.398438 187.851562 C 367.804688 187.964844 366.652344 187.320312 365.890625 185.9375 C 364.992188 184.4375 364.714844 182.589844 365.128906 180.421875 C 365.40625 178.671875 366.144531 177.171875 367.320312 175.925781 C 368.476562 174.3125 369.789062 173.066406 371.3125 172.164062 C 374.011719 170.320312 376.683594 169.929688 379.359375 170.964844 C 381.644531 171.867188 383.167969 173.757812 383.90625 176.617188 C 383.121094 174.980469 381.898438 173.847656 380.238281 173.15625 C 378.207031 172.464844 376.039062 172.628906 373.664062 173.664062 " fill-opacity="1" fill-rule="evenodd"/><path fill="#3a210b" d="M 318.710938 138.234375 L 319.921875 146.253906 C 311.71875 144.269531 302.023438 143.503906 290.910156 143.921875 C 288.53125 138.863281 287.484375 134.460938 287.808594 130.707031 C 299.484375 130.847656 309.808594 133.363281 318.710938 138.234375 " fill-opacity="1" fill-rule="evenodd"/><path fill="#000000" d="M 295.066406 168.199219 C 295.527344 171.304688 297.058594 173.804688 299.675781 175.683594 C 302.25 177.652344 305.121094 178.417969 308.273438 177.929688 C 311.378906 177.46875 313.925781 175.9375 315.871094 173.296875 C 317.773438 170.746094 318.46875 167.898438 318.003906 164.792969 C 317.539062 161.59375 316.035156 159.046875 313.484375 157.167969 C 310.84375 155.269531 307.972656 154.574219 304.867188 155.039062 C 301.714844 155.5 299.191406 157.007812 297.289062 159.554688 C 295.320312 162.128906 294.578125 165 295.066406 168.199219 Z M 293.46875 168.382812 C 292.933594 164.746094 293.769531 161.457031 295.992188 158.515625 C 298.148438 155.546875 301.019531 153.808594 304.589844 153.277344 C 308.226562 152.746094 311.515625 153.578125 314.480469 155.757812 C 317.378906 157.957031 319.09375 160.855469 319.648438 164.492188 C 320.179688 168.058594 319.371094 171.328125 317.191406 174.222656 C 315.015625 177.210938 312.117188 178.972656 308.503906 179.53125 C 304.914062 180.0625 301.667969 179.207031 298.75 176.957031 C 295.761719 174.824219 294 171.953125 293.46875 168.386719 " fill-opacity="1" fill-rule="evenodd"/><path fill="#ffffcc" d="M 304.878906 155.027344 C 307.984375 154.5625 310.855469 155.28125 313.496094 157.15625 C 316.042969 159.035156 317.546875 161.582031 318.011719 164.777344 C 318.472656 167.902344 317.777344 170.730469 315.878906 173.277344 C 313.933594 175.917969 311.386719 177.46875 308.285156 177.929688 C 305.109375 178.394531 302.261719 177.652344 299.691406 175.683594 C 297.074219 173.808594 295.523438 171.308594 295.058594 168.179688 C 294.597656 164.984375 295.339844 162.113281 297.304688 159.566406 C 299.207031 156.996094 301.707031 155.488281 304.878906 155.027344 " fill-opacity="1" fill-rule="evenodd"/><path fill="#3f0920" d="M 308.316406 163.308594 C 308.246094 162.871094 308.40625 162.523438 308.800781 162.222656 C 309.148438 161.851562 309.632812 161.621094 310.257812 161.53125 C 310.835938 161.4375 311.390625 161.507812 311.898438 161.761719 C 312.335938 161.921875 312.566406 162.246094 312.636719 162.664062 C 312.707031 163.054688 312.566406 163.425781 312.269531 163.796875 C 311.875 164.097656 311.367188 164.28125 310.789062 164.375 C 310.210938 164.464844 309.679688 164.417969 309.214844 164.234375 C 308.683594 164.003906 308.359375 163.703125 308.316406 163.308594 " fill-opacity="1" fill-rule="evenodd"/><path stroke-linecap="butt" transform="matrix(0.231164, 0, 0, -0.231169, -3178.257029, 3929.498726)" fill="none" stroke-linejoin="miter" d="M 15082.706488 16291.905175 C 15082.40232 16293.797726 15083.095146 16295.301628 15084.801865 16296.602758 C 15086.305805 16298.208047 15088.401182 16299.205016 15091.104894 16299.593665 C 15093.605828 16299.999211 15096.005373 16299.695051 15098.202139 16298.596696 C 15100.094738 16297.903887 15101.091731 16296.501371 15101.395899 16294.693308 C 15101.700067 16293.00353 15101.091731 16291.398241 15099.807468 16289.792952 C 15098.10075 16288.491823 15095.903983 16287.697627 15093.40305 16287.29208 C 15090.902116 16286.903432 15088.60396 16287.106205 15086.593074 16287.900401 C 15084.294919 16288.89737 15082.892368 16290.198499 15082.706488 16291.905175 Z M 15082.706488 16291.905175 " stroke="#330000" stroke-width="1.492" stroke-opacity="1" stroke-miterlimit="10"/><g clip-path="url(#bfe8be064f)"><g clip-path="url(#43ed38f0f7)"><path fill="url(#6626385728)" d="M 292.699219 172.25 L 300.816406 149.675781 L 323.058594 158.230469 L 314.941406 180.804688 Z M 292.699219 172.25 " fill-rule="nonzero"/></g></g><path fill="#330033" d="M 300.757812 166.71875 C 300.386719 164.726562 300.757812 162.921875 301.867188 161.28125 C 303.023438 159.730469 304.597656 158.804688 306.589844 158.503906 C 308.554688 158.203125 310.359375 158.644531 311.980469 159.800781 C 313.621094 161.027344 314.640625 162.621094 315.007812 164.589844 C 315.332031 166.601562 314.964844 168.40625 313.828125 169.957031 C 312.742188 171.597656 311.167969 172.570312 309.203125 172.871094 C 307.210938 173.148438 305.386719 172.6875 303.742188 171.460938 C 302.078125 170.304688 301.082031 168.730469 300.757812 166.71875 " fill-opacity="1" fill-rule="evenodd"/><path fill="#000000" d="M 302.035156 166.578125 C 301.78125 165.144531 302.082031 163.824219 302.9375 162.667969 C 303.839844 161.535156 305.042969 160.867188 306.523438 160.65625 C 308.003906 160.425781 309.367188 160.726562 310.589844 161.535156 C 311.839844 162.390625 312.578125 163.523438 312.835938 164.957031 C 313.089844 166.390625 312.789062 167.6875 311.910156 168.796875 C 311.054688 169.929688 309.875 170.601562 308.394531 170.808594 C 306.914062 171.039062 305.527344 170.738281 304.257812 169.929688 C 303.03125 169.121094 302.265625 168.011719 302.035156 166.578125 " fill-opacity="1" fill-rule="evenodd"/><path stroke-linecap="butt" transform="matrix(0.231226, 0, 0, -0.231231, -3178.257029, 3929.498726)" fill="none" stroke-linejoin="miter" d="M 15051.49542 16273.397238 C 15050.397332 16279.597061 15051.698144 16285.306979 15055.397858 16290.307381 C 15059.300296 16295.206424 15064.503546 16298.095169 15070.906246 16299.007405 C 15077.308947 16300.004107 15083.204837 16298.703326 15088.492555 16295.206424 C 15093.89853 16291.506802 15097.091433 16286.607759 15098.206415 16280.407937 C 15099.304504 16274.208114 15098.003691 16268.599555 15094.202616 16263.801872 C 15090.502902 16258.90283 15085.401014 16255.997191 15078.998314 16255.101848 C 15072.595613 16254.105147 15066.598361 16255.405927 15061.107918 16258.90283 C 15055.803306 16262.399732 15052.492147 16267.197415 15051.49542 16273.397238 Z M 15051.49542 16273.397238 " stroke="#330000" stroke-width="0.596" stroke-opacity="1" stroke-miterlimit="10"/><path fill="#ffffff" d="M 304.214844 163.449219 C 304.054688 163.980469 303.613281 164.304688 302.921875 164.421875 C 302.25 164.605469 301.554688 164.515625 300.792969 164.191406 C 299.9375 163.84375 299.3125 163.335938 298.894531 162.6875 C 298.457031 162.085938 298.316406 161.507812 298.550781 161.023438 C 298.6875 160.46875 299.128906 160.144531 299.867188 160.027344 C 300.515625 159.820312 301.277344 159.867188 302.109375 160.191406 C 302.898438 160.535156 303.476562 161.046875 303.890625 161.648438 C 304.285156 162.269531 304.398438 162.871094 304.214844 163.449219 " fill-opacity="1" fill-rule="evenodd"/><path fill="#ffffff" d="M 300.730469 167.667969 C 300.683594 167.390625 300.773438 167.136719 300.984375 166.90625 C 301.191406 166.722656 301.46875 166.605469 301.8125 166.539062 C 302.183594 166.492188 302.460938 166.539062 302.714844 166.652344 C 302.992188 166.816406 303.128906 167.023438 303.175781 167.300781 C 303.269531 167.554688 303.199219 167.808594 302.992188 168.039062 C 302.785156 168.269531 302.507812 168.40625 302.160156 168.453125 C 301.8125 168.523438 301.492188 168.453125 301.238281 168.292969 C 300.984375 168.128906 300.796875 167.921875 300.730469 167.667969 " fill-opacity="1" fill-rule="evenodd"/><path fill="#ffffff" d="M 311.59375 161.675781 C 311.523438 161.167969 311.59375 160.703125 311.824219 160.3125 C 312.082031 159.964844 312.449219 159.757812 312.914062 159.6875 C 313.351562 159.617188 313.746094 159.710938 314.160156 159.964844 C 314.554688 160.265625 314.785156 160.683594 314.855469 161.191406 C 314.949219 161.699219 314.855469 162.136719 314.648438 162.53125 C 314.347656 162.925781 313.976562 163.15625 313.558594 163.226562 C 313.097656 163.296875 312.683594 163.179688 312.3125 162.878906 C 311.894531 162.578125 311.664062 162.183594 311.59375 161.675781 " fill-opacity="1" fill-rule="evenodd"/></svg>