<svg xmlns="http://www.w3.org/2000/svg" xmlns:xlink="http://www.w3.org/1999/xlink" width="1080" zoomAndPan="magnify" viewBox="0 0 810 809.999993" height="1080" preserveAspectRatio="xMidYMid meet" version="1.0"><defs><clipPath id="150866eff9"><path d="M 305 145 L 324 145 L 324 164 L 305 164 Z M 305 145 " clip-rule="nonzero"/></clipPath><clipPath id="3104c90bf8"><path d="M 313.453125 145.464844 C 315.882812 145.195312 318.101562 145.824219 320.082031 147.386719 C 322.0625 148.945312 323.230469 150.953125 323.5625 153.382812 C 323.890625 155.902344 323.292969 158.125 321.792969 160.042969 C 320.292969 161.992188 318.3125 163.101562 315.851562 163.371094 C 313.394531 163.613281 311.171875 162.953125 309.195312 161.394531 C 307.214844 159.832031 306.042969 157.824219 305.714844 155.304688 C 305.386719 152.84375 305.953125 150.65625 307.484375 148.734375 C 308.984375 146.785156 310.964844 145.707031 313.453125 145.464844 " clip-rule="evenodd"/></clipPath><radialGradient gradientTransform="matrix(0.926959, 0.402996, 0.374516, -0.915593, 4283.706966, -2911.757475)" gradientUnits="userSpaceOnUse" r="22.55359" cx="0" id="7dc4da2a14" cy="0" fx="0" fy="0"><stop stop-opacity="1" stop-color="rgb(57.446289%, 2.047729%, 2.165222%)" offset="0"/><stop stop-opacity="1" stop-color="rgb(57.215881%, 2.120972%, 2.415466%)" offset="0.0078125"/><stop stop-opacity="1" stop-color="rgb(57.063293%, 2.1698%, 2.581787%)" offset="0.0117188"/><stop stop-opacity="1" stop-color="rgb(56.90918%, 2.218628%, 2.749634%)" offset="0.015625"/><stop stop-opacity="1" stop-color="rgb(56.756592%, 2.267456%, 2.915955%)" offset="0.0195312"/><stop stop-opacity="1" stop-color="rgb(56.604004%, 2.316284%, 3.082275%)" offset="0.0234375"/><stop stop-opacity="1" stop-color="rgb(56.44989%, 2.365112%, 3.250122%)" offset="0.0273438"/><stop stop-opacity="1" stop-color="rgb(56.297302%, 2.41394%, 3.416443%)" offset="0.03125"/><stop stop-opacity="1" stop-color="rgb(56.144714%, 2.462769%, 3.582764%)" offset="0.0351562"/><stop stop-opacity="1" stop-color="rgb(55.990601%, 2.511597%, 3.75061%)" offset="0.0390625"/><stop stop-opacity="1" stop-color="rgb(55.838013%, 2.560425%, 3.916931%)" offset="0.0429688"/><stop stop-opacity="1" stop-color="rgb(55.685425%, 2.609253%, 4.083252%)" offset="0.046875"/><stop stop-opacity="1" stop-color="rgb(55.531311%, 2.658081%, 4.251099%)" offset="0.0507812"/><stop stop-opacity="1" stop-color="rgb(55.378723%, 2.706909%, 4.417419%)" offset="0.0546875"/><stop stop-opacity="1" stop-color="rgb(55.226135%, 2.755737%, 4.58374%)" offset="0.0585938"/><stop stop-opacity="1" stop-color="rgb(55.072021%, 2.804565%, 4.751587%)" offset="0.0625"/><stop stop-opacity="1" stop-color="rgb(54.919434%, 2.853394%, 4.917908%)" offset="0.0664062"/><stop stop-opacity="1" stop-color="rgb(54.766846%, 2.902222%, 5.084229%)" offset="0.0703125"/><stop stop-opacity="1" stop-color="rgb(54.612732%, 2.95105%, 5.250549%)" offset="0.0742188"/><stop stop-opacity="1" stop-color="rgb(54.460144%, 2.999878%, 5.418396%)" offset="0.078125"/><stop stop-opacity="1" stop-color="rgb(54.30603%, 3.048706%, 5.584717%)" offset="0.0820312"/><stop stop-opacity="1" stop-color="rgb(54.153442%, 3.097534%, 5.751038%)" offset="0.0859375"/><stop stop-opacity="1" stop-color="rgb(54.000854%, 3.146362%, 5.918884%)" offset="0.0898438"/><stop stop-opacity="1" stop-color="rgb(53.846741%, 3.19519%, 6.085205%)" offset="0.09375"/><stop stop-opacity="1" stop-color="rgb(53.694153%, 3.244019%, 6.251526%)" offset="0.0976562"/><stop stop-opacity="1" stop-color="rgb(53.541565%, 3.292847%, 6.419373%)" offset="0.101562"/><stop stop-opacity="1" stop-color="rgb(53.387451%, 3.341675%, 6.585693%)" offset="0.105469"/><stop stop-opacity="1" stop-color="rgb(53.234863%, 3.390503%, 6.752014%)" offset="0.109375"/><stop stop-opacity="1" stop-color="rgb(53.082275%, 3.439331%, 6.919861%)" offset="0.113281"/><stop stop-opacity="1" stop-color="rgb(52.928162%, 3.488159%, 7.086182%)" offset="0.117188"/><stop stop-opacity="1" stop-color="rgb(52.775574%, 3.536987%, 7.252502%)" offset="0.121094"/><stop stop-opacity="1" stop-color="rgb(52.622986%, 3.585815%, 7.420349%)" offset="0.125"/><stop stop-opacity="1" stop-color="rgb(52.468872%, 3.634644%, 7.58667%)" offset="0.128906"/><stop stop-opacity="1" stop-color="rgb(52.316284%, 3.683472%, 7.752991%)" offset="0.132812"/><stop stop-opacity="1" stop-color="rgb(52.163696%, 3.7323%, 7.919312%)" offset="0.136719"/><stop stop-opacity="1" stop-color="rgb(52.009583%, 3.781128%, 8.087158%)" offset="0.140625"/><stop stop-opacity="1" stop-color="rgb(51.856995%, 3.829956%, 8.253479%)" offset="0.144531"/><stop stop-opacity="1" stop-color="rgb(51.704407%, 3.878784%, 8.4198%)" offset="0.148438"/><stop stop-opacity="1" stop-color="rgb(51.550293%, 3.927612%, 8.587646%)" offset="0.152344"/><stop stop-opacity="1" stop-color="rgb(51.397705%, 3.97644%, 8.753967%)" offset="0.15625"/><stop stop-opacity="1" stop-color="rgb(51.243591%, 4.025269%, 8.920288%)" offset="0.160156"/><stop stop-opacity="1" stop-color="rgb(51.091003%, 4.074097%, 9.088135%)" offset="0.164062"/><stop stop-opacity="1" stop-color="rgb(50.938416%, 4.122925%, 9.254456%)" offset="0.167969"/><stop stop-opacity="1" stop-color="rgb(50.784302%, 4.171753%, 9.420776%)" offset="0.171875"/><stop stop-opacity="1" stop-color="rgb(50.631714%, 4.220581%, 9.588623%)" offset="0.175781"/><stop stop-opacity="1" stop-color="rgb(50.479126%, 4.269409%, 9.754944%)" offset="0.179688"/><stop stop-opacity="1" stop-color="rgb(50.325012%, 4.318237%, 9.921265%)" offset="0.183594"/><stop stop-opacity="1" stop-color="rgb(50.172424%, 4.367065%, 10.089111%)" offset="0.1875"/><stop stop-opacity="1" stop-color="rgb(50.019836%, 4.415894%, 10.255432%)" offset="0.191406"/><stop stop-opacity="1" stop-color="rgb(49.865723%, 4.464722%, 10.421753%)" offset="0.195312"/><stop stop-opacity="1" stop-color="rgb(49.713135%, 4.51355%, 10.588074%)" offset="0.199219"/><stop stop-opacity="1" stop-color="rgb(49.560547%, 4.562378%, 10.75592%)" offset="0.203125"/><stop stop-opacity="1" stop-color="rgb(49.406433%, 4.611206%, 10.922241%)" offset="0.207031"/><stop stop-opacity="1" stop-color="rgb(49.253845%, 4.660034%, 11.088562%)" offset="0.210938"/><stop stop-opacity="1" stop-color="rgb(49.101257%, 4.708862%, 11.256409%)" offset="0.214844"/><stop stop-opacity="1" stop-color="rgb(48.947144%, 4.75769%, 11.422729%)" offset="0.21875"/><stop stop-opacity="1" stop-color="rgb(48.794556%, 4.806519%, 11.58905%)" offset="0.222656"/><stop stop-opacity="1" stop-color="rgb(48.640442%, 4.855347%, 11.756897%)" offset="0.226562"/><stop stop-opacity="1" stop-color="rgb(48.487854%, 4.904175%, 11.923218%)" offset="0.230469"/><stop stop-opacity="1" stop-color="rgb(48.335266%, 4.953003%, 12.089539%)" offset="0.234375"/><stop stop-opacity="1" stop-color="rgb(48.181152%, 5.001831%, 12.257385%)" offset="0.238281"/><stop stop-opacity="1" stop-color="rgb(48.028564%, 5.050659%, 12.423706%)" offset="0.242188"/><stop stop-opacity="1" stop-color="rgb(47.875977%, 5.099487%, 12.590027%)" offset="0.246094"/><stop stop-opacity="1" stop-color="rgb(47.721863%, 5.148315%, 12.757874%)" offset="0.25"/><stop stop-opacity="1" stop-color="rgb(47.492981%, 5.221558%, 13.008118%)" offset="0.253906"/><stop stop-opacity="1" stop-color="rgb(47.186279%, 5.319214%, 13.340759%)" offset="0.261719"/><stop stop-opacity="1" stop-color="rgb(46.879578%, 5.41687%, 13.674927%)" offset="0.269531"/><stop stop-opacity="1" stop-color="rgb(46.574402%, 5.514526%, 14.007568%)" offset="0.277344"/><stop stop-opacity="1" stop-color="rgb(46.2677%, 5.612183%, 14.341736%)" offset="0.285156"/><stop stop-opacity="1" stop-color="rgb(45.960999%, 5.709839%, 14.675903%)" offset="0.292969"/><stop stop-opacity="1" stop-color="rgb(45.654297%, 5.807495%, 15.008545%)" offset="0.300781"/><stop stop-opacity="1" stop-color="rgb(45.349121%, 5.905151%, 15.342712%)" offset="0.308594"/><stop stop-opacity="1" stop-color="rgb(45.042419%, 6.002808%, 15.675354%)" offset="0.316406"/><stop stop-opacity="1" stop-color="rgb(44.735718%, 6.100464%, 16.009521%)" offset="0.324219"/><stop stop-opacity="1" stop-color="rgb(44.430542%, 6.19812%, 16.343689%)" offset="0.332031"/><stop stop-opacity="1" stop-color="rgb(44.12384%, 6.295776%, 16.676331%)" offset="0.339844"/><stop stop-opacity="1" stop-color="rgb(43.817139%, 6.393433%, 17.010498%)" offset="0.347656"/><stop stop-opacity="1" stop-color="rgb(43.511963%, 6.491089%, 17.344666%)" offset="0.355469"/><stop stop-opacity="1" stop-color="rgb(43.205261%, 6.588745%, 17.677307%)" offset="0.363281"/><stop stop-opacity="1" stop-color="rgb(42.89856%, 6.686401%, 18.011475%)" offset="0.371094"/><stop stop-opacity="1" stop-color="rgb(42.591858%, 6.784058%, 18.344116%)" offset="0.378906"/><stop stop-opacity="1" stop-color="rgb(42.286682%, 6.881714%, 18.678284%)" offset="0.386719"/><stop stop-opacity="1" stop-color="rgb(41.97998%, 6.97937%, 19.012451%)" offset="0.394531"/><stop stop-opacity="1" stop-color="rgb(41.673279%, 7.077026%, 19.345093%)" offset="0.402344"/><stop stop-opacity="1" stop-color="rgb(41.368103%, 7.174683%, 19.67926%)" offset="0.410156"/><stop stop-opacity="1" stop-color="rgb(41.061401%, 7.272339%, 20.013428%)" offset="0.417969"/><stop stop-opacity="1" stop-color="rgb(40.7547%, 7.369995%, 20.346069%)" offset="0.425781"/><stop stop-opacity="1" stop-color="rgb(40.447998%, 7.467651%, 20.680237%)" offset="0.433594"/><stop stop-opacity="1" stop-color="rgb(40.142822%, 7.565308%, 21.012878%)" offset="0.441406"/><stop stop-opacity="1" stop-color="rgb(39.836121%, 7.662964%, 21.347046%)" offset="0.449219"/><stop stop-opacity="1" stop-color="rgb(39.529419%, 7.76062%, 21.681213%)" offset="0.457031"/><stop stop-opacity="1" stop-color="rgb(39.224243%, 7.858276%, 22.013855%)" offset="0.464844"/><stop stop-opacity="1" stop-color="rgb(38.917542%, 7.955933%, 22.348022%)" offset="0.472656"/><stop stop-opacity="1" stop-color="rgb(38.61084%, 8.053589%, 22.68219%)" offset="0.480469"/><stop stop-opacity="1" stop-color="rgb(38.305664%, 8.151245%, 23.014832%)" offset="0.488281"/><stop stop-opacity="1" stop-color="rgb(37.998962%, 8.248901%, 23.348999%)" offset="0.496094"/><stop stop-opacity="1" stop-color="rgb(37.768555%, 8.322144%, 23.599243%)" offset="0.503906"/><stop stop-opacity="1" stop-color="rgb(37.615967%, 8.370972%, 23.765564%)" offset="0.507812"/><stop stop-opacity="1" stop-color="rgb(37.463379%, 8.4198%, 23.931885%)" offset="0.511719"/><stop stop-opacity="1" stop-color="rgb(37.309265%, 8.468628%, 24.099731%)" offset="0.515625"/><stop stop-opacity="1" stop-color="rgb(37.156677%, 8.517456%, 24.266052%)" offset="0.519531"/><stop stop-opacity="1" stop-color="rgb(37.004089%, 8.566284%, 24.432373%)" offset="0.523438"/><stop stop-opacity="1" stop-color="rgb(36.849976%, 8.615112%, 24.60022%)" offset="0.527344"/><stop stop-opacity="1" stop-color="rgb(36.697388%, 8.66394%, 24.766541%)" offset="0.53125"/><stop stop-opacity="1" stop-color="rgb(36.5448%, 8.712769%, 24.932861%)" offset="0.535156"/><stop stop-opacity="1" stop-color="rgb(36.390686%, 8.761597%, 25.100708%)" offset="0.539062"/><stop stop-opacity="1" stop-color="rgb(36.238098%, 8.810425%, 25.267029%)" offset="0.542969"/><stop stop-opacity="1" stop-color="rgb(36.08551%, 8.859253%, 25.43335%)" offset="0.546875"/><stop stop-opacity="1" stop-color="rgb(35.931396%, 8.908081%, 25.601196%)" offset="0.550781"/><stop stop-opacity="1" stop-color="rgb(35.778809%, 8.956909%, 25.767517%)" offset="0.554688"/><stop stop-opacity="1" stop-color="rgb(35.626221%, 9.005737%, 25.933838%)" offset="0.558594"/><stop stop-opacity="1" stop-color="rgb(35.472107%, 9.054565%, 26.100159%)" offset="0.5625"/><stop stop-opacity="1" stop-color="rgb(35.319519%, 9.103394%, 26.268005%)" offset="0.566406"/><stop stop-opacity="1" stop-color="rgb(35.165405%, 9.152222%, 26.434326%)" offset="0.570312"/><stop stop-opacity="1" stop-color="rgb(35.012817%, 9.20105%, 26.600647%)" offset="0.574219"/><stop stop-opacity="1" stop-color="rgb(34.860229%, 9.249878%, 26.768494%)" offset="0.578125"/><stop stop-opacity="1" stop-color="rgb(34.706116%, 9.298706%, 26.934814%)" offset="0.582031"/><stop stop-opacity="1" stop-color="rgb(34.553528%, 9.347534%, 27.101135%)" offset="0.585938"/><stop stop-opacity="1" stop-color="rgb(34.40094%, 9.396362%, 27.268982%)" offset="0.589844"/><stop stop-opacity="1" stop-color="rgb(34.246826%, 9.44519%, 27.435303%)" offset="0.59375"/><stop stop-opacity="1" stop-color="rgb(34.094238%, 9.494019%, 27.601624%)" offset="0.597656"/><stop stop-opacity="1" stop-color="rgb(33.94165%, 9.542847%, 27.76947%)" offset="0.601562"/><stop stop-opacity="1" stop-color="rgb(33.787537%, 9.591675%, 27.935791%)" offset="0.605469"/><stop stop-opacity="1" stop-color="rgb(33.634949%, 9.640503%, 28.102112%)" offset="0.609375"/><stop stop-opacity="1" stop-color="rgb(33.482361%, 9.689331%, 28.269958%)" offset="0.613281"/><stop stop-opacity="1" stop-color="rgb(33.328247%, 9.738159%, 28.436279%)" offset="0.617188"/><stop stop-opacity="1" stop-color="rgb(33.175659%, 9.786987%, 28.6026%)" offset="0.621094"/><stop stop-opacity="1" stop-color="rgb(33.023071%, 9.835815%, 28.768921%)" offset="0.625"/><stop stop-opacity="1" stop-color="rgb(32.792664%, 9.909058%, 29.019165%)" offset="0.628906"/><stop stop-opacity="1" stop-color="rgb(32.485962%, 10.006714%, 29.353333%)" offset="0.636719"/><stop stop-opacity="1" stop-color="rgb(32.17926%, 10.10437%, 29.6875%)" offset="0.644531"/><stop stop-opacity="1" stop-color="rgb(31.874084%, 10.202026%, 30.020142%)" offset="0.652344"/><stop stop-opacity="1" stop-color="rgb(31.567383%, 10.299683%, 30.354309%)" offset="0.660156"/><stop stop-opacity="1" stop-color="rgb(31.260681%, 10.397339%, 30.688477%)" offset="0.667969"/><stop stop-opacity="1" stop-color="rgb(30.955505%, 10.494995%, 31.021118%)" offset="0.675781"/><stop stop-opacity="1" stop-color="rgb(30.648804%, 10.592651%, 31.355286%)" offset="0.683594"/><stop stop-opacity="1" stop-color="rgb(30.342102%, 10.690308%, 31.687927%)" offset="0.691406"/><stop stop-opacity="1" stop-color="rgb(30.036926%, 10.787964%, 32.022095%)" offset="0.699219"/><stop stop-opacity="1" stop-color="rgb(29.730225%, 10.88562%, 32.356262%)" offset="0.707031"/><stop stop-opacity="1" stop-color="rgb(29.423523%, 10.983276%, 32.688904%)" offset="0.714844"/><stop stop-opacity="1" stop-color="rgb(29.116821%, 11.080933%, 33.023071%)" offset="0.722656"/><stop stop-opacity="1" stop-color="rgb(28.811646%, 11.178589%, 33.357239%)" offset="0.730469"/><stop stop-opacity="1" stop-color="rgb(28.504944%, 11.276245%, 33.68988%)" offset="0.738281"/><stop stop-opacity="1" stop-color="rgb(28.198242%, 11.373901%, 34.024048%)" offset="0.746094"/><stop stop-opacity="1" stop-color="rgb(27.96936%, 11.447144%, 34.274292%)" offset="0.753906"/><stop stop-opacity="1" stop-color="rgb(27.816772%, 11.495972%, 34.440613%)" offset="0.757812"/><stop stop-opacity="1" stop-color="rgb(27.662659%, 11.5448%, 34.606934%)" offset="0.761719"/><stop stop-opacity="1" stop-color="rgb(27.510071%, 11.593628%, 34.77478%)" offset="0.765625"/><stop stop-opacity="1" stop-color="rgb(27.357483%, 11.642456%, 34.941101%)" offset="0.769531"/><stop stop-opacity="1" stop-color="rgb(27.203369%, 11.691284%, 35.107422%)" offset="0.773438"/><stop stop-opacity="1" stop-color="rgb(27.050781%, 11.740112%, 35.275269%)" offset="0.777344"/><stop stop-opacity="1" stop-color="rgb(26.896667%, 11.78894%, 35.441589%)" offset="0.78125"/><stop stop-opacity="1" stop-color="rgb(26.74408%, 11.837769%, 35.60791%)" offset="0.785156"/><stop stop-opacity="1" stop-color="rgb(26.591492%, 11.886597%, 35.775757%)" offset="0.789062"/><stop stop-opacity="1" stop-color="rgb(26.437378%, 11.935425%, 35.942078%)" offset="0.792969"/><stop stop-opacity="1" stop-color="rgb(26.28479%, 11.984253%, 36.108398%)" offset="0.796875"/><stop stop-opacity="1" stop-color="rgb(26.132202%, 12.033081%, 36.274719%)" offset="0.800781"/><stop stop-opacity="1" stop-color="rgb(25.978088%, 12.081909%, 36.442566%)" offset="0.804688"/><stop stop-opacity="1" stop-color="rgb(25.8255%, 12.130737%, 36.608887%)" offset="0.808594"/><stop stop-opacity="1" stop-color="rgb(25.672913%, 12.179565%, 36.775208%)" offset="0.8125"/><stop stop-opacity="1" stop-color="rgb(25.442505%, 12.252808%, 37.025452%)" offset="0.816406"/><stop stop-opacity="1" stop-color="rgb(25.135803%, 12.350464%, 37.359619%)" offset="0.824219"/><stop stop-opacity="1" stop-color="rgb(24.830627%, 12.44812%, 37.693787%)" offset="0.832031"/><stop stop-opacity="1" stop-color="rgb(24.523926%, 12.545776%, 38.026428%)" offset="0.839844"/><stop stop-opacity="1" stop-color="rgb(24.217224%, 12.643433%, 38.360596%)" offset="0.847656"/><stop stop-opacity="1" stop-color="rgb(23.910522%, 12.741089%, 38.694763%)" offset="0.855469"/><stop stop-opacity="1" stop-color="rgb(23.605347%, 12.838745%, 39.027405%)" offset="0.863281"/><stop stop-opacity="1" stop-color="rgb(23.298645%, 12.936401%, 39.361572%)" offset="0.871094"/><stop stop-opacity="1" stop-color="rgb(23.069763%, 13.009644%, 39.611816%)" offset="0.878906"/><stop stop-opacity="1" stop-color="rgb(22.915649%, 13.058472%, 39.778137%)" offset="0.882812"/><stop stop-opacity="1" stop-color="rgb(22.763062%, 13.1073%, 39.944458%)" offset="0.886719"/><stop stop-opacity="1" stop-color="rgb(22.610474%, 13.156128%, 40.112305%)" offset="0.890625"/><stop stop-opacity="1" stop-color="rgb(22.45636%, 13.204956%, 40.278625%)" offset="0.894531"/><stop stop-opacity="1" stop-color="rgb(22.303772%, 13.253784%, 40.444946%)" offset="0.898438"/><stop stop-opacity="1" stop-color="rgb(22.151184%, 13.302612%, 40.612793%)" offset="0.902344"/><stop stop-opacity="1" stop-color="rgb(21.99707%, 13.35144%, 40.779114%)" offset="0.90625"/><stop stop-opacity="1" stop-color="rgb(21.768188%, 13.424683%, 41.029358%)" offset="0.910156"/><stop stop-opacity="1" stop-color="rgb(21.461487%, 13.522339%, 41.363525%)" offset="0.917969"/><stop stop-opacity="1" stop-color="rgb(21.154785%, 13.619995%, 41.696167%)" offset="0.925781"/><stop stop-opacity="1" stop-color="rgb(20.848083%, 13.717651%, 42.030334%)" offset="0.933594"/><stop stop-opacity="1" stop-color="rgb(20.619202%, 13.790894%, 42.280579%)" offset="0.941406"/><stop stop-opacity="1" stop-color="rgb(20.466614%, 13.839722%, 42.446899%)" offset="0.945312"/><stop stop-opacity="1" stop-color="rgb(20.3125%, 13.88855%, 42.61322%)" offset="0.949219"/><stop stop-opacity="1" stop-color="rgb(20.159912%, 13.937378%, 42.781067%)" offset="0.953125"/><stop stop-opacity="1" stop-color="rgb(19.929504%, 14.01062%, 43.031311%)" offset="0.957031"/><stop stop-opacity="1" stop-color="rgb(19.624329%, 14.108276%, 43.363953%)" offset="0.964844"/><stop stop-opacity="1" stop-color="rgb(19.393921%, 14.181519%, 43.614197%)" offset="0.972656"/><stop stop-opacity="1" stop-color="rgb(19.241333%, 14.230347%, 43.782043%)" offset="0.976562"/><stop stop-opacity="1" stop-color="rgb(19.010925%, 14.303589%, 44.032288%)" offset="0.980469"/><stop stop-opacity="1" stop-color="rgb(18.782043%, 14.376831%, 44.281006%)" offset="0.988281"/><stop stop-opacity="1" stop-color="rgb(18.551636%, 14.450073%, 44.53125%)" offset="0.992188"/><stop stop-opacity="1" stop-color="rgb(18.399048%, 14.498901%, 44.699097%)" offset="1"/></radialGradient></defs><rect x="-81" width="972" fill="#697a7a" y="-80.999999" height="971.999992" fill-opacity="1"/><path fill="#0000ff" d="M 315.027344 175.097656 L 315.085938 175.160156 L 315.238281 175.160156 L 315.296875 175.308594 L 315.386719 175.519531 L 315.804688 176.445312 L 315.804688 177.226562 L 315.6875 177.226562 L 315.597656 176.355469 L 315.445312 176.085938 L 315.445312 175.9375 C 315.417969 175.816406 315.355469 175.699219 315.238281 175.578125 L 315.027344 175.097656 " fill-opacity="1" fill-rule="evenodd"/><path fill="#f89865" d="M 444.773438 360.265625 C 438.925781 345.90625 433.449219 334.058594 428.285156 324.710938 C 437.226562 313.976562 448.550781 307.449219 462.285156 305.097656 C 468.011719 318.058594 473.207031 329.972656 477.941406 340.769531 C 473.207031 351.972656 462.164062 358.46875 444.773438 360.261719 " fill-opacity="1" fill-rule="evenodd"/><path fill="#f89865" d="M 443.683594 360.382812 C 442.410156 356.8125 441.199219 353.210938 440.019531 349.636719 C 447.8125 337.617188 458.746094 330.878906 472.875 329.359375 C 475.953125 335.785156 478.496094 342.058594 480.578125 348.148438 C 483.34375 355.414062 485.332031 362.621094 486.605469 369.824219 C 491.945312 393.054688 495.394531 415.199219 496.945312 436.257812 C 493.0625 449.238281 483.4375 452.3125 468.0625 445.511719 C 458.1875 405.105469 450.050781 376.71875 443.683594 360.382812 " fill-opacity="1" fill-rule="evenodd"/><path fill="#ff3333" d="M 424.050781 238.699219 C 440.445312 261.457031 455.019531 285.945312 467.832031 312.160156 C 458.632812 325.839844 446.035156 333.066406 430.070312 333.835938 C 419.171875 308.453125 406.230469 284.0625 391.257812 260.59375 C 385.789062 251.667969 384.957031 243.207031 388.785156 235.242188 C 392.613281 229.28125 397.742188 225.792969 404.164062 224.742188 C 410.339844 225.175781 416.976562 229.808594 424.050781 238.699219 " fill-opacity="1" fill-rule="evenodd"/><path fill="#f89865" d="M 499.097656 476.347656 C 496.226562 477.347656 493.359375 478.0625 490.523438 478.53125 C 493.359375 478.0625 496.226562 477.347656 499.097656 476.347656 Z M 504.769531 499.578125 C 498.191406 493.246094 493.453125 486.234375 490.523438 478.53125 C 486.8125 479 483.132812 479.09375 479.546875 478.8125 C 483.132812 479.09375 486.8125 479 490.523438 478.53125 C 493.453125 486.234375 498.191406 493.246094 504.769531 499.578125 Z M 501.871094 475.289062 C 500.90625 475.664062 500 476.007812 499.097656 476.347656 C 502.277344 483.769531 506.796875 489.753906 512.625 494.339844 C 512.78125 494.371094 512.875 494.402344 512.96875 494.402344 C 512.875 494.402344 512.78125 494.371094 512.625 494.339844 C 506.796875 489.753906 502.277344 483.769531 499.097656 476.347656 C 500 476.007812 500.902344 475.664062 501.871094 475.289062 Z M 480.046875 432.292969 C 481.324219 432.605469 482.542969 433.261719 483.726562 434.195312 C 486.8125 436.597656 488.527344 440.089844 488.902344 444.609375 C 489.335938 449.941406 490.117188 453.433594 491.300781 455.023438 C 494.199219 459.046875 495.914062 461.601562 496.476562 462.660156 C 497.785156 465.964844 497.226562 468.867188 494.761719 471.296875 C 492.546875 472.824219 490.117188 472.515625 487.496094 470.394531 C 486.625 469.769531 485.378906 468.304688 483.664062 465.9375 C 481.949219 463.378906 481.074219 462.070312 480.980469 461.976562 L 477.492188 460.042969 C 476.023438 458.859375 474.777344 457.394531 473.6875 455.648438 C 474.777344 457.394531 476.023438 458.859375 477.492188 460.042969 L 480.980469 461.976562 C 481.074219 462.070312 481.949219 463.378906 483.664062 465.9375 C 485.378906 468.304688 486.625 469.769531 487.496094 470.394531 C 490.117188 472.515625 492.546875 472.824219 494.761719 471.296875 C 497.226562 468.867188 497.785156 465.96875 496.476562 462.660156 C 495.914062 461.601562 494.199219 459.046875 491.300781 455.023438 C 490.117188 453.433594 489.335938 449.941406 488.902344 444.609375 C 488.527344 440.089844 486.8125 436.597656 483.726562 434.195312 C 482.542969 433.261719 481.324219 432.605469 480.046875 432.292969 Z M 505.675781 500.417969 C 505.363281 500.105469 505.050781 499.792969 504.769531 499.578125 C 502.867188 504.285156 500.125 505.0625 496.539062 501.851562 C 496.414062 501.695312 496.257812 501.570312 496.039062 501.476562 C 494.605469 500.355469 493.109375 499.140625 491.675781 497.863281 C 486.59375 492.996094 482.664062 487.011719 479.828125 479.871094 C 479.734375 479.496094 479.640625 479.15625 479.546875 478.8125 L 478.425781 475.289062 L 479.546875 478.8125 C 479.640625 479.15625 479.734375 479.496094 479.828125 479.871094 C 482.664062 487.011719 486.59375 492.996094 491.675781 497.863281 C 494.761719 501.042969 495.699219 503.441406 494.417969 505.09375 C 493.328125 505.75 491.863281 505.9375 489.960938 505.59375 C 489.335938 505.375 488.746094 505.15625 488.121094 504.96875 C 482.324219 500.886719 477.988281 496.957031 475.089844 493.121094 C 470.101562 486.015625 467.046875 479.683594 466.015625 474.230469 C 466.953125 461.414062 466.890625 448.695312 465.832031 436.035156 C 469.074219 434.632812 473.5625 432.699219 479.359375 430.300781 C 485.003906 427.835938 489.183594 426.214844 491.894531 425.402344 C 499.347656 430.703125 502.714844 438.4375 501.996094 448.632812 C 501.496094 455.117188 503.085938 462.910156 506.828125 472.015625 L 515.746094 489.382812 C 516.554688 492.6875 515.808594 494.371094 513.53125 494.464844 C 513.3125 494.371094 513.125 494.371094 512.96875 494.402344 C 511.816406 500.542969 509.386719 502.507812 505.769531 500.292969 L 505.675781 500.417969 " fill-opacity="1" fill-rule="evenodd"/><path stroke-linecap="butt" transform="matrix(0.311559, 0, 0, -0.311566, -4565.287687, 3921.955599)" fill="none" stroke-linejoin="miter" d="M 16276.600389 10982.002924 L 16276.800993 10982.504422 M 16255.499326 11059.296329 C 16246.196303 11056.099279 16237.00612 11053.804924 16227.903701 11052.20013 M 16273.603863 10984.698477 C 16252.5028 11004.996615 16237.307026 11027.501345 16227.903701 11052.20013 C 16216.005359 11050.695636 16204.194782 11050.394737 16192.69765 11051.297434 M 16264.300839 11062.693979 C 16261.304313 11061.502921 16258.295249 11060.399625 16255.499326 11059.296329 C 16265.604767 11035.500241 16280.098426 11016.305399 16298.905077 11001.598965 C 16299.306286 11001.398366 16299.694956 11001.298066 16299.995863 11001.298066 M 16194.302484 11200.706276 C 16198.402334 11199.60298 16202.30158 11197.596987 16206.100523 11194.600536 C 16216.005359 11186.802239 16221.496901 11175.694055 16222.700527 11161.100458 C 16224.104757 11143.99937 16226.599773 11132.903723 16230.398716 11127.70068 C 16239.70174 11114.799639 16245.193282 11106.700444 16246.99872 11103.202494 C 16251.299174 11092.595808 16249.493736 11083.305554 16241.594942 11075.394421 C 16234.398264 11070.605113 16226.599773 11071.595572 16218.199469 11078.40341 C 16215.403546 11080.396865 16211.403999 11085.09841 16205.899919 11092.696107 C 16200.395839 11100.895603 16197.599917 11105.09565 16197.198708 11105.396549 L 16186.102784 11111.602588 C 16181.401121 11115.401437 16177.301271 11120.102982 16173.803234 11125.694687 M 16231.602342 10990.202419 C 16215.303244 11005.799012 16202.702788 11024.993855 16193.600369 11047.899783 C 16193.299463 11049.103379 16192.998556 11050.306975 16192.69765 11051.297434 L 16189.099311 11062.706517 " stroke="#954e40" stroke-width="0.531" stroke-opacity="1" stroke-miterlimit="10"/><path fill="#e38b5c" d="M 385.601562 654.703125 C 385.601562 655.433594 385.664062 656.007812 385.753906 656.496094 C 377.402344 665.273438 363.734375 669.800781 344.75 670.074219 L 343.261719 666.976562 C 343.167969 666.671875 343.109375 666.367188 343.109375 666.03125 C 328.953125 640.699219 318.230469 617.886719 310.972656 597.628906 C 324.550781 593.738281 340.101562 592.070312 357.566406 592.585938 C 358.113281 598.265625 360.363281 603.15625 364.21875 607.257812 L 364.492188 607.53125 C 372.90625 615.183594 379.953125 630.917969 385.601562 654.703125 " fill-opacity="1" fill-rule="evenodd"/><path fill="#fefffe" d="M 385.765625 654.613281 C 386.648438 654.1875 387.46875 654.859375 388.230469 656.65625 C 388.355469 656.988281 388.445312 657.386719 388.597656 657.875 C 388.6875 658.847656 388.566406 659.792969 388.230469 660.707031 C 388.839844 673.492188 392.066406 687.5 397.882812 702.695312 C 389.054688 716.214844 376.113281 720.75 359.0625 716.367188 C 358.726562 713.871094 358.269531 711.527344 357.722656 709.363281 C 355.4375 698.554688 351.816406 687.410156 346.820312 675.992188 C 345.117188 674.710938 343.777344 672.886719 342.832031 670.480469 C 342.40625 668.59375 342.558594 667.070312 343.257812 665.941406 C 343.257812 666.277344 343.320312 666.582031 343.410156 666.855469 L 344.902344 669.960938 C 363.871094 669.6875 377.542969 665.152344 385.917969 656.382812 C 385.828125 655.894531 385.765625 655.316406 385.765625 654.617188 " fill-opacity="1" fill-rule="evenodd"/><path fill="#e38b5c" d="M 373.625 581.621094 L 359.050781 598.894531 L 314.359375 606.46875 C 311.417969 601.4375 310.085938 597.4375 310.296875 594.5 C 310.632812 591.5 311.417969 588.441406 312.660156 585.378906 C 319.449219 574.378906 327.691406 564.53125 337.355469 555.835938 L 373.625 581.621094 " fill-opacity="1" fill-rule="evenodd"/><path fill="#008395" d="M 396.550781 599.039062 L 382.453125 605.128906 C 350.484375 589.734375 327.730469 576.097656 314.253906 564.257812 L 320.1875 552.632812 L 370.210938 468.417969 C 414.820312 471.542969 449.382812 491.421875 473.898438 528.054688 C 465.429688 542.433594 452.597656 557.273438 435.378906 572.636719 L 396.550781 599.039062 " fill-opacity="1" fill-rule="evenodd"/><path fill="#f89865" d="M 489.90625 605.878906 L 502 642.46875 L 457.542969 652.695312 L 427.636719 583.339844 L 475.449219 567.824219 C 478.714844 579.546875 481.417969 587.226562 483.597656 590.925781 L 489.90625 605.878906 " fill-opacity="1" fill-rule="evenodd"/><path fill="#fefffe" d="M 514.226562 676.214844 C 515.257812 675.808594 516.101562 676.496094 516.695312 678.242188 C 516.789062 678.585938 516.914062 679.054688 517.066406 679.679688 C 517.066406 680.617188 516.882812 681.492188 516.570312 682.304688 C 516.882812 695.199219 519.660156 709.316406 524.84375 724.648438 C 515.695312 737.828125 502.640625 742.011719 485.746094 737.171875 C 485.558594 734.546875 485.214844 732.144531 484.683594 729.957031 C 482.71875 719.152344 479.40625 707.941406 474.753906 696.324219 C 473.128906 695.042969 471.851562 693.203125 470.945312 690.796875 C 470.570312 688.953125 470.726562 687.457031 471.445312 686.269531 C 471.445312 686.550781 471.507812 686.863281 471.601562 687.175781 L 473.003906 690.359375 C 491.992188 690.640625 505.765625 686.488281 514.351562 677.898438 C 514.289062 677.460938 514.226562 676.898438 514.226562 676.214844 " fill-opacity="1" fill-rule="evenodd"/><path fill="#f89865" d="M 471.417969 686.28125 C 459.984375 660.507812 453.96875 646.082031 453.34375 643.058594 C 470.203125 640.097656 485.039062 636.417969 497.847656 632.023438 C 504.109375 639.660156 509.5625 654.402344 514.207031 676.214844 C 514.207031 676.933594 514.238281 677.492188 514.332031 677.929688 C 505.761719 686.5 491.957031 690.675781 472.976562 690.394531 L 471.574219 687.1875 C 471.480469 686.875 471.417969 686.5625 471.417969 686.28125 " fill-opacity="1" fill-rule="evenodd"/><path fill="#00a5bb" d="M 401.503906 476.808594 C 417.84375 470.441406 442.484375 469.570312 475.449219 474.261719 C 481.351562 496.695312 485.761719 518.039062 488.621094 538.296875 C 490.703125 555.664062 493.21875 570.453125 496.140625 582.632812 C 497.070312 586.363281 498.035156 589.902344 498.96875 593.257812 C 471.503906 608.699219 440.652344 614.789062 406.414062 611.527344 L 370.839844 489.921875 C 375.0625 487.652344 385.285156 483.273438 401.503906 476.808594 " fill-opacity="1" fill-rule="evenodd"/><path fill="#d92b2b" d="M 352.273438 346.609375 C 352.675781 333.535156 351.996094 326.71875 350.289062 326.222656 L 448.84375 266.488281 C 456.558594 289.878906 462.601562 310.761719 466.878906 329.199219 C 469.292969 339.699219 471.460938 350.359375 473.414062 361.140625 C 473.691406 362.503906 473.941406 363.960938 474.125 365.507812 C 474.4375 366.902344 474.746094 368.359375 475.054688 369.910156 C 481.34375 407.027344 484.628906 444.917969 484.816406 483.585938 C 483.886719 489.875 481.34375 493.128906 477.253906 493.316406 C 436.019531 509.457031 393.324219 510.820312 349.175781 497.40625 C 345.394531 495.390625 345.242188 485.195312 348.742188 466.886719 C 352.273438 448.480469 353.882812 421.960938 353.542969 387.351562 C 353.480469 385.679688 353.417969 384.007812 353.417969 382.304688 C 353.417969 380.847656 353.417969 379.390625 353.417969 377.902344 C 353.140625 371.117188 352.707031 364.363281 352.148438 357.671875 C 352.242188 353.984375 352.273438 350.296875 352.273438 346.609375 " fill-opacity="1" fill-rule="evenodd"/><path fill="#cccccc" d="M 443.96875 739.714844 C 445.9375 739.429688 448.253906 739.054688 450.910156 738.648438 C 454.632812 740.964844 456.914062 744.71875 457.792969 749.910156 C 456.320312 750.285156 454.882812 750.628906 453.539062 750.910156 C 452.160156 751.128906 451.347656 750.753906 451.066406 749.753906 C 450.472656 745.71875 448.125 742.339844 443.96875 739.714844 Z M 454.320312 737.648438 C 456.382812 736.960938 458.324219 736.117188 460.105469 735.179688 C 463.703125 737.804688 465.859375 741.746094 466.578125 746.9375 C 464.578125 747.9375 462.484375 748.722656 460.261719 749.347656 C 459.542969 743.683594 457.570312 739.777344 454.320312 737.648438 Z M 468.332031 729.859375 C 472.710938 731.925781 475.460938 735.679688 476.621094 741.058594 C 474.367188 742.808594 471.835938 744.375 469.113281 745.71875 C 469.113281 741.089844 467.171875 737.148438 463.296875 733.832031 C 465.078125 732.644531 466.765625 731.332031 468.332031 729.859375 Z M 529.882812 767.769531 C 528.882812 769.738281 527.191406 771.148438 524.847656 771.929688 C 515.402344 774.054688 503.171875 774.898438 488.097656 774.398438 C 462.921875 774.117188 444.90625 771.992188 434.050781 768.050781 C 429.234375 765.921875 426.828125 762.828125 426.828125 758.761719 L 426.953125 758.480469 C 426.953125 753.851562 425.796875 750.441406 423.511719 748.28125 C 424.074219 747 424.734375 746.03125 425.546875 745.375 C 426.078125 745.625 426.609375 746 427.109375 746.5 C 428.140625 747.59375 428.984375 748.972656 429.644531 750.628906 C 430.082031 751.660156 430.582031 753.132812 431.144531 755.070312 C 431.800781 756.789062 432.613281 758.136719 433.550781 759.199219 C 434.492188 760.355469 435.742188 761.324219 437.304688 762.015625 C 438.148438 762.390625 439.589844 762.890625 441.621094 763.515625 C 447.8125 765.359375 454.382812 766.707031 461.386719 767.613281 C 472.398438 769.082031 485.535156 769.175781 500.859375 767.894531 C 504.707031 767.425781 507.894531 766.957031 510.398438 766.488281 C 513.777344 765.640625 516.589844 764.203125 518.90625 762.171875 C 520.6875 760.699219 522.125 758.824219 523.222656 756.570312 C 524.410156 754.164062 524.878906 751.753906 524.722656 749.347656 C 524.816406 748.722656 524.660156 747.1875 524.285156 744.75 C 524.035156 742.902344 523.972656 741.339844 524.066406 740.058594 C 524.597656 738.085938 524.816406 736.492188 524.722656 735.304688 C 524.722656 734.332031 524.503906 733.550781 524.066406 732.988281 C 522.3125 734.269531 520 735.273438 517.058594 736.023438 C 515.777344 736.304688 514.464844 736.398438 513.085938 736.304688 L 512.460938 736.585938 C 503.671875 736.835938 495.132812 735.617188 486.816406 732.988281 C 486.191406 732.738281 485.59375 732.488281 484.96875 732.207031 C 483.40625 734.367188 481.59375 736.367188 479.433594 738.148438 C 477.746094 732.800781 474.804688 729.328125 470.675781 727.671875 C 471.613281 726.671875 472.460938 725.671875 473.210938 724.699219 C 473.492188 724.136719 473.804688 723.574219 474.148438 723.074219 L 473.929688 723.074219 C 474.085938 722.980469 474.148438 722.886719 474.148438 722.792969 C 476.460938 719.226562 478.402344 717.664062 479.933594 718.039062 C 480.277344 718.226562 480.746094 718.382812 481.371094 718.539062 C 484.71875 719.757812 487.222656 721.261719 488.878906 723.074219 C 489.347656 723.917969 489.316406 725.011719 488.722656 726.390625 C 501.609375 730.800781 513.304688 730.390625 523.78125 725.261719 C 524.722656 724.542969 524.878906 723.667969 524.285156 722.636719 C 527.472656 724.636719 528.410156 726.921875 527.035156 729.515625 C 527.785156 731.019531 527.878906 732.957031 527.253906 735.304688 C 527.253906 737.773438 528.066406 741.121094 529.726562 745.375 C 532.195312 752.128906 532.726562 758.511719 531.382812 764.578125 L 531.382812 765.203125 C 530.945312 765.828125 530.539062 766.546875 530.164062 767.394531 C 530.070312 767.644531 529.976562 767.769531 529.882812 767.769531 " fill-opacity="1" fill-rule="evenodd"/><path fill="#ffffff" d="M 425.707031 745.289062 C 428.859375 741.730469 433.265625 739.980469 438.949219 739.980469 L 439.230469 739.980469 C 440.601562 739.980469 442.226562 739.855469 444.101562 739.605469 C 448.285156 742.261719 450.628906 745.601562 451.222656 749.660156 C 451.503906 750.660156 452.3125 751.035156 453.6875 750.816406 C 455.03125 750.503906 456.46875 750.191406 457.933594 749.816406 C 457.09375 744.601562 454.78125 740.855469 451.066406 738.542969 C 452.375 738.136719 453.53125 737.792969 454.46875 737.542969 C 457.71875 739.667969 459.714844 743.570312 460.433594 749.253906 C 462.621094 748.632812 464.742188 747.820312 466.710938 746.851562 C 465.992188 741.636719 463.867188 737.730469 460.277344 735.078125 C 461.214844 734.640625 462.277344 734.203125 463.460938 733.734375 C 467.335938 737.042969 469.269531 741.011719 469.269531 745.632812 C 471.988281 744.257812 474.519531 742.695312 476.765625 740.949219 C 475.640625 735.578125 472.863281 731.828125 468.492188 729.769531 C 469.269531 729.238281 470.050781 728.519531 470.832031 727.582031 C 474.984375 729.238281 477.890625 732.703125 479.609375 738.042969 C 481.730469 736.265625 483.574219 734.265625 485.136719 732.109375 C 485.730469 732.390625 486.355469 732.640625 486.976562 732.890625 C 495.285156 735.515625 503.84375 736.730469 512.617188 736.484375 L 513.242188 736.203125 C 514.617188 736.292969 515.925781 736.203125 517.207031 735.921875 C 520.144531 735.171875 522.484375 734.171875 524.234375 732.890625 C 524.640625 733.453125 524.859375 734.234375 524.859375 735.234375 C 524.953125 736.386719 524.734375 737.980469 524.234375 739.980469 C 524.140625 741.230469 524.203125 742.789062 524.421875 744.632812 C 524.828125 747.101562 524.953125 748.628906 524.859375 749.253906 C 525.046875 751.660156 524.546875 754.066406 523.390625 756.46875 C 522.296875 758.75 520.832031 760.589844 519.050781 762.058594 C 516.738281 764.089844 513.929688 765.527344 510.554688 766.371094 C 508.058594 766.867188 504.871094 767.335938 501 767.804688 C 485.699219 769.085938 472.550781 768.992188 461.527344 767.523438 C 454.53125 766.617188 447.972656 765.246094 441.789062 763.402344 C 439.757812 762.808594 438.292969 762.308594 437.449219 761.933594 C 435.917969 761.214844 434.636719 760.277344 433.699219 759.09375 C 432.765625 758.0625 431.953125 756.6875 431.296875 754.96875 C 430.734375 753.035156 430.234375 751.566406 429.796875 750.503906 C 429.140625 748.847656 428.296875 747.507812 427.269531 746.414062 C 426.738281 745.882812 426.207031 745.507812 425.707031 745.289062 " fill-opacity="1" fill-rule="evenodd"/><path fill="#ed7d0d" d="M 473.882812 723.101562 L 473.882812 722.945312 L 474.101562 722.792969 C 474.101562 722.882812 474.039062 723.007812 473.882812 723.101562 " fill-opacity="1" fill-rule="evenodd"/><path fill="#999999" d="M 529.933594 767.738281 C 531.375 768.425781 531.71875 771.332031 530.9375 776.429688 C 530.4375 778.996094 528.777344 780.714844 525.902344 781.621094 L 498.695312 783.246094 C 497.851562 783.339844 497.195312 783.121094 496.695312 782.589844 L 493.003906 779.277344 C 492.316406 778.902344 491.535156 778.839844 490.691406 779.121094 L 486.4375 782.464844 C 485.40625 782.964844 481.5 782.871094 474.742188 782.183594 C 450.570312 781.339844 434.1875 778.183594 425.585938 772.742188 C 419.300781 768.425781 417.207031 761.734375 419.300781 752.695312 C 419.957031 749.445312 421.367188 747.976562 423.554688 748.257812 C 425.835938 750.414062 426.996094 753.820312 426.996094 758.449219 L 426.871094 758.730469 C 426.871094 762.796875 429.277344 765.894531 434.09375 768.019531 C 444.972656 771.992188 462.984375 774.117188 488.160156 774.398438 C 503.199219 774.867188 515.457031 774.023438 524.902344 771.898438 C 527.246094 771.113281 528.933594 769.707031 529.933594 767.738281 " fill-opacity="1" fill-rule="evenodd"/><path fill="#ffffff" d="M 319.417969 725.789062 C 323.898438 727.890625 326.699219 730.90625 327.765625 734.867188 C 328.164062 735.8125 329.015625 736.054688 330.328125 735.628906 C 331.636719 735.234375 333.007812 734.746094 334.441406 734.226562 C 332.976562 729.140625 330.203125 725.664062 326.152344 723.898438 C 327.460938 723.257812 328.621094 722.800781 329.566406 722.464844 C 332.976562 724.109375 335.445312 727.738281 336.847656 733.3125 C 338.980469 732.398438 340.992188 731.363281 342.851562 730.175781 C 341.449219 725.085938 338.796875 721.460938 334.925781 719.296875 C 335.839844 718.71875 336.816406 718.109375 337.914062 717.4375 C 342.210938 720.332031 344.648438 724.050781 345.195312 728.621094 C 347.695312 726.945312 349.980469 725.054688 352.082031 723.042969 C 350.285156 717.835938 347.054688 714.484375 342.453125 712.988281 C 343.183594 712.351562 343.886719 711.527344 344.496094 710.492188 C 348.882812 711.679688 352.234375 714.816406 354.550781 719.90625 C 356.378906 717.835938 357.964844 715.609375 359.242188 713.265625 C 359.882812 713.507812 360.582031 713.691406 361.285156 713.8125 C 369.785156 715.398438 378.410156 715.550781 387.121094 714.332031 L 387.640625 713.902344 C 389.042969 713.84375 390.382812 713.597656 391.601562 713.113281 C 394.375 712.046875 396.597656 710.765625 398.273438 709.300781 C 398.671875 709.757812 398.945312 710.519531 399.097656 711.558594 C 399.371094 712.683594 399.371094 714.269531 399.097656 716.3125 C 399.097656 717.589844 399.339844 719.144531 399.828125 720.972656 C 400.53125 723.289062 400.867188 724.78125 400.804688 725.453125 C 401.324219 727.796875 401.078125 730.265625 400.105469 732.796875 C 399.34375 735.234375 398.183594 737.273438 396.628906 738.980469 C 394.589844 741.234375 391.9375 742.972656 388.675781 744.128906 C 386.300781 744.984375 383.191406 745.867188 379.414062 746.75 C 364.332031 749.890625 351.289062 751.382812 340.199219 751.292969 C 333.101562 751.292969 326.367188 750.742188 319.996094 749.675781 C 317.957031 749.25 316.523438 748.945312 315.671875 748.730469 C 314.027344 748.183594 312.65625 747.390625 311.558594 746.324219 C 310.492188 745.441406 309.515625 744.191406 308.722656 742.578125 C 307.871094 740.6875 307.171875 739.253906 306.589844 738.25 C 305.800781 736.695312 304.824219 735.476562 303.636719 734.59375 C 303.054688 734.105469 302.507812 733.769531 301.929688 733.585938 C 304.609375 729.65625 308.785156 727.371094 314.390625 726.730469 L 314.695312 726.640625 C 316.035156 726.457031 317.621094 726.183594 319.417969 725.789062 " fill-opacity="1" fill-rule="evenodd"/><path fill="#cccccc" d="M 338.070312 717.324219 C 339.71875 716.011719 341.246094 714.515625 342.617188 712.867188 C 347.226562 714.394531 350.433594 717.75 352.234375 722.941406 C 350.160156 724.953125 347.867188 726.816406 345.367188 728.527344 C 344.785156 723.949219 342.34375 720.222656 338.070312 717.324219 Z M 335.109375 719.183594 C 338.957031 721.351562 341.613281 724.984375 343.015625 730.082031 C 341.125 731.273438 339.140625 732.3125 337.003906 733.195312 C 335.597656 727.640625 333.15625 724.007812 329.707031 722.359375 C 331.691406 721.382812 333.492188 720.316406 335.109375 719.183594 Z M 302.082031 733.46875 C 302.664062 733.683594 303.214844 734.019531 303.761719 734.476562 C 304.953125 735.363281 305.960938 736.613281 306.753906 738.171875 C 307.332031 739.148438 308.035156 740.582031 308.890625 742.476562 C 309.683594 744.09375 310.628906 745.34375 311.730469 746.230469 C 312.796875 747.265625 314.171875 748.089844 315.820312 748.640625 C 316.671875 748.824219 318.109375 749.128906 320.152344 749.554688 C 326.503906 750.65625 333.25 751.203125 340.328125 751.203125 C 351.441406 751.296875 364.503906 749.769531 379.582031 746.65625 C 383.367188 745.769531 386.449219 744.886719 388.832031 744.03125 C 392.097656 742.871094 394.753906 741.132812 396.796875 738.875 C 398.324219 737.164062 399.484375 735.117188 400.246094 732.707031 C 401.253906 730.144531 401.46875 727.703125 400.980469 725.351562 C 401.007812 724.679688 400.671875 723.183594 399.972656 720.863281 C 399.484375 719.03125 399.269531 717.476562 399.269531 716.195312 C 399.542969 714.179688 399.542969 712.59375 399.269531 711.460938 C 399.117188 710.425781 398.84375 709.660156 398.414062 709.203125 C 396.765625 710.667969 394.539062 711.921875 391.761719 713.019531 C 390.539062 713.476562 389.195312 713.75 387.792969 713.78125 L 387.304688 714.210938 C 378.542969 715.460938 369.9375 715.277344 361.453125 713.722656 C 360.71875 713.570312 360.046875 713.386719 359.40625 713.171875 C 358.125 715.523438 356.539062 717.75 354.707031 719.828125 C 352.386719 714.730469 349.027344 711.585938 344.664062 710.394531 C 345.488281 709.355469 346.21875 708.257812 346.769531 707.128906 C 347.042969 706.578125 347.320312 706 347.5625 705.449219 L 347.410156 705.449219 C 347.472656 705.359375 347.472656 705.234375 347.472656 705.144531 C 349.363281 701.328125 351.132812 699.527344 352.722656 699.773438 C 353.058594 699.925781 353.546875 700.015625 354.21875 700.046875 C 357.667969 700.902344 360.320312 702.09375 362.214844 703.585938 C 362.734375 704.410156 362.824219 705.542969 362.429688 707.007812 C 375.796875 709.722656 387.335938 707.921875 397.074219 701.542969 L 397.226562 698.277344 C 400.15625 699.984375 401.375 702.367188 400.980469 705.449219 C 401.863281 706.792969 402.140625 708.683594 401.804688 711.097656 C 402.078125 713.507812 403.328125 716.742188 405.496094 720.804688 C 408.703125 727.183594 410.015625 733.46875 409.375 739.636719 L 409.464844 740.277344 C 409.128906 740.949219 408.882812 741.710938 408.703125 742.628906 C 408.550781 742.871094 408.425781 742.964844 408.335938 742.964844 C 407.570312 745.070312 406.105469 746.625 403.941406 747.726562 C 394.78125 751.019531 382.695312 753.402344 367.679688 754.804688 C 342.679688 757.554688 324.578125 757.585938 313.253906 754.960938 C 308.21875 753.433594 305.441406 750.65625 304.921875 746.59375 L 305.074219 746.320312 C 304.527344 741.710938 302.96875 738.507812 300.375 736.613281 C 300.769531 735.242188 301.320312 734.203125 302.082031 733.46875 Z M 326.289062 723.792969 C 330.378906 725.566406 333.125 729.015625 334.589844 734.113281 C 333.1875 734.628906 331.8125 735.117188 330.46875 735.546875 C 329.15625 735.972656 328.304688 735.699219 327.9375 734.753906 C 326.839844 730.785156 324.058594 727.761719 319.574219 725.6875 C 321.527344 725.078125 323.753906 724.4375 326.289062 723.792969 " fill-opacity="1" fill-rule="evenodd"/><path fill="#999999" d="M 408.160156 743.070312 C 409.714844 743.589844 410.417969 746.460938 410.203125 751.648438 C 410.144531 754.214844 408.679688 756.136719 405.839844 757.449219 L 379.070312 762.332031 C 378.214844 762.546875 377.511719 762.394531 376.933594 761.90625 L 372.964844 759.097656 C 372.167969 758.761719 371.375 758.792969 370.644531 759.21875 L 366.796875 763.066406 C 365.820312 763.675781 361.945312 764.042969 355.199219 764.195312 C 331.050781 766.269531 314.414062 765.113281 305.257812 760.714844 C 298.511719 757.234375 295.640625 750.886719 296.617188 741.726562 C 296.800781 738.371094 298.023438 736.691406 300.222656 736.691406 C 302.816406 738.582031 304.371094 741.820312 304.921875 746.398438 L 304.769531 746.703125 C 305.289062 750.765625 308.066406 753.542969 313.101562 755.039062 C 324.398438 757.691406 342.53125 757.632812 367.53125 754.914062 C 382.550781 753.480469 394.636719 751.128906 403.792969 747.832031 C 405.960938 746.734375 407.425781 745.148438 408.160156 743.070312 " fill-opacity="1" fill-rule="evenodd"/><path fill="#ed7d0d" d="M 347.28125 705.519531 L 347.191406 705.398438 L 347.34375 705.246094 C 347.34375 705.335938 347.3125 705.429688 347.28125 705.519531 " fill-opacity="1" fill-rule="evenodd"/><path fill="#f89865" d="M 425.785156 212.519531 C 415.066406 227.582031 399.449219 238.851562 378.964844 246.292969 C 375.503906 236.769531 370.054688 230.0625 362.582031 226.175781 C 372.8125 208.660156 389.621094 192.582031 413.105469 177.945312 C 415.402344 190.929688 419.628906 202.445312 425.785156 212.519531 " fill-opacity="1" fill-rule="evenodd"/><path fill="#f89865" d="M 301.046875 208.109375 C 301.230469 208.109375 301.445312 208.109375 301.691406 208.050781 C 306.972656 207.3125 311.734375 203.71875 316 197.300781 C 311.734375 203.71875 306.972656 207.3125 301.691406 208.050781 C 301.445312 208.109375 301.230469 208.109375 301.046875 208.109375 Z M 304.578125 80.121094 C 310.964844 73.949219 317.078125 69.066406 322.941406 65.472656 C 338.480469 52.394531 353.617188 46.25 368.386719 47.050781 C 380.730469 47.847656 392.402344 53.40625 403.453125 63.691406 C 412.328125 72.015625 420.160156 82.671875 426.976562 95.660156 C 432.503906 106.316406 436.066406 115.679688 437.664062 123.757812 C 439.933594 135.332031 437.601562 148.382812 430.601562 162.941406 C 426.945312 170.433594 418.714844 183.789062 405.878906 202.953125 C 397.652344 215.171875 384.324219 224.109375 365.929688 229.730469 C 351.652344 233.964844 338.539062 235.503906 326.535156 234.335938 C 319.195312 233.628906 312.960938 230.894531 307.832031 226.105469 C 306.296875 224.664062 304.945312 223.035156 303.8125 221.316406 L 302.519531 219.320312 C 301.171875 216.003906 300.371094 212.378906 300.125 208.417969 L 296.65625 209.03125 L 292.359375 191.191406 C 284.3125 186.984375 282.5625 182.441406 287.105469 177.527344 C 289.378906 175.039062 292.449219 172.980469 296.378906 171.445312 C 297.394531 165.917969 296.59375 159.808594 293.953125 153.082031 C 292.265625 148.691406 289.441406 143.441406 285.449219 137.300781 C 283.054688 133.554688 281.761719 129.070312 281.640625 123.757812 L 282.132812 117.03125 C 284.34375 104.625 291.835938 92.3125 304.578125 80.121094 " fill-opacity="1" fill-rule="evenodd"/><path stroke-linecap="butt" transform="matrix(0.299466, 0, 0, -0.299473, -4565.287687, 3921.955599)" fill="none" stroke-linejoin="miter" d="M 16250.095355 12401.203039 C 16250.695382 12401.203039 16251.504113 12401.294345 16252.195448 12401.503045 C 16269.896229 12403.994397 16285.796931 12415.994628 16300.001906 12437.399387 " stroke="#000033" stroke-width="2.761" stroke-opacity="1" stroke-miterlimit="10"/><path fill="#330000" d="M 307.164062 65.738281 L 309.015625 61.417969 C 310.863281 57.871094 313.023438 54.664062 315.523438 51.734375 C 323.664062 42.144531 333.996094 36.929688 346.546875 36.128906 L 355.183594 32.027344 C 362.277344 29.066406 369.214844 27.15625 376 26.351562 C 397.773438 23.730469 413.964844 31.933594 424.511719 51.027344 C 436.910156 73.261719 443.449219 85.136719 444.160156 86.648438 C 451.191406 100.679688 455.539062 113.046875 457.171875 123.75 C 461.769531 152.246094 448.691406 176.796875 418.003906 197.429688 C 414.984375 197.339844 412.085938 196.476562 409.308594 194.871094 C 403.632812 191.601562 401.445312 186.144531 402.707031 178.433594 C 401.445312 170.042969 398.574219 163.414062 394.136719 158.601562 C 385.222656 148.980469 372.855469 153.113281 357.035156 171 C 355.707031 164.246094 353.515625 156.566406 350.527344 147.992188 C 344.480469 130.78125 337.171875 117.582031 328.628906 108.390625 C 321.9375 108.328125 315.152344 107.433594 308.304688 105.617188 C 294.550781 102.222656 287.269531 96.546875 286.5 88.558594 C 286.53125 87.789062 286.714844 86.800781 287.054688 85.570312 C 287.609375 83.253906 288.503906 81.003906 289.675781 78.785156 C 293.410156 71.96875 299.238281 67.648438 307.164062 65.738281 " fill-opacity="1" fill-rule="evenodd"/><path fill="#330000" d="M 287.632812 87.914062 L 297.832031 84.492188 C 299.484375 100.003906 308.574219 111.195312 325.105469 118.15625 C 304.792969 117.433594 292.3125 107.355469 287.632812 87.914062 " fill-opacity="1" fill-rule="evenodd"/><path fill="#77390d" d="M 386.085938 163.199219 C 388.367188 164.199219 389.796875 166.175781 390.402344 169.15625 C 389.644531 167.394531 388.457031 166.175781 386.878906 165.476562 C 384.871094 164.71875 382.710938 164.777344 380.339844 165.691406 C 381.191406 166.117188 381.859375 166.753906 382.347656 167.667969 C 383.136719 169.1875 383.289062 170.890625 382.832031 172.773438 C 382.40625 174.902344 381.464844 176.605469 379.976562 177.945312 C 378.484375 179.21875 376.933594 179.796875 375.386719 179.707031 C 373.835938 179.769531 372.679688 179.070312 371.980469 177.640625 C 371.128906 176.089844 370.976562 174.234375 371.492188 172.046875 C 371.828125 170.371094 372.617188 168.882812 373.894531 167.667969 C 375.082031 166.117188 376.449219 164.898438 378 164.046875 C 380.796875 162.347656 383.503906 162.074219 386.085938 163.199219 " fill-opacity="1" fill-rule="evenodd"/><path fill="#3a210b" d="M 326.75 127.824219 L 327.53125 135.902344 C 319.394531 133.589844 309.761719 132.417969 298.625 132.359375 C 296.492188 127.164062 295.683594 122.722656 296.222656 119.03125 C 307.871094 119.601562 318.046875 122.542969 326.75 127.824219 " fill-opacity="1" fill-rule="evenodd"/><path fill="#000000" d="M 302.921875 147.269531 C 305.171875 144.449219 308.113281 142.828125 311.746094 142.46875 C 315.347656 142.078125 318.589844 143.007812 321.46875 145.289062 C 324.351562 147.660156 325.972656 150.632812 326.332031 154.292969 C 326.722656 157.925781 325.761719 161.136719 323.449219 163.929688 C 321.078125 166.808594 318.109375 168.429688 314.507812 168.789062 C 310.875 169.179688 307.664062 168.21875 304.902344 165.910156 C 301.992188 163.628906 300.371094 160.6875 300.011719 157.054688 C 299.621094 153.425781 300.582031 150.152344 302.921875 147.269531 Z M 304.183594 148.410156 C 302.113281 150.902344 301.210938 153.753906 301.542969 156.90625 C 301.871094 160.054688 303.3125 162.636719 305.894531 164.617188 C 308.324219 166.691406 311.175781 167.589844 314.386719 167.230469 C 317.507812 166.898438 320.089844 165.488281 322.160156 162.9375 C 324.171875 160.476562 324.980469 157.65625 324.652344 154.503906 C 324.320312 151.324219 322.910156 148.742188 320.480469 146.699219 C 317.929688 144.71875 315.078125 143.910156 311.984375 144.210938 C 308.773438 144.570312 306.164062 145.949219 304.183594 148.410156 " fill-opacity="1" fill-rule="evenodd"/><path fill="#ffffcc" d="M 304.3125 148.308594 C 306.292969 145.847656 308.875 144.46875 312.082031 144.136719 C 315.203125 143.808594 318.054688 144.617188 320.605469 146.597656 C 323.035156 148.640625 324.445312 151.25 324.773438 154.398438 C 325.105469 157.578125 324.265625 160.371094 322.285156 162.832031 C 320.214844 165.378906 317.605469 166.820312 314.515625 167.152344 C 311.273438 167.480469 308.453125 166.609375 305.992188 164.539062 C 303.441406 162.558594 302.003906 159.980469 301.671875 156.800781 C 301.34375 153.648438 302.214844 150.828125 304.3125 148.308594 " fill-opacity="1" fill-rule="evenodd"/><path fill="#3f0920" d="M 317.074219 150.820312 C 317.617188 150.789062 318.15625 150.878906 318.605469 151.117188 C 319.082031 151.359375 319.355469 151.6875 319.382812 152.109375 C 319.445312 152.496094 319.261719 152.855469 318.902344 153.246094 C 318.515625 153.515625 318.066406 153.695312 317.496094 153.726562 C 316.867188 153.785156 316.328125 153.726562 315.847656 153.515625 C 315.398438 153.246094 315.128906 152.917969 315.066406 152.527344 C 315.039062 152.105469 315.1875 151.71875 315.578125 151.386719 C 315.96875 151.058594 316.445312 150.878906 317.074219 150.820312 " fill-opacity="1" fill-rule="evenodd"/><path stroke-linecap="butt" transform="matrix(0.299677, 0, 0, -0.299684, -4565.287687, 3921.955599)" fill="none" stroke-linejoin="miter" d="M 16292.093084 12583.695574 C 16289.994468 12583.500055 16288.404213 12582.900466 16287.100726 12581.805564 C 16285.797238 12580.697627 16285.301913 12579.394171 16285.393157 12577.999474 C 16285.601715 12576.696019 16286.501121 12575.601117 16288.000132 12574.701732 C 16289.603422 12573.997867 16291.402235 12573.802348 16293.500851 12573.997867 C 16295.403943 12574.102143 16296.902953 12574.701732 16298.193406 12575.601117 C 16299.40565 12576.904572 16300.005254 12578.103751 16299.796696 12579.394171 C 16299.705452 12580.801903 16298.793011 12581.896805 16297.202756 12582.704948 C 16295.703745 12583.500055 16293.904932 12583.79985 16292.093084 12583.695574 Z M 16292.093084 12583.695574 " stroke="#330000" stroke-width="1.38" stroke-opacity="1" stroke-miterlimit="10"/><g clip-path="url(#150866eff9)"><g clip-path="url(#3104c90bf8)"><path fill="url(#7dc4da2a14)" d="M 298.988281 160.832031 L 308.179688 138.363281 L 330.289062 147.976562 L 321.097656 170.445312 Z M 298.988281 160.832031 " fill-rule="nonzero"/></g></g><path fill="#330033" d="M 313.648438 147.589844 C 315.625 147.351562 317.394531 147.859375 318.953125 149.148438 C 320.574219 150.410156 321.503906 152.089844 321.800781 154.097656 C 322.074219 156.074219 321.621094 157.84375 320.363281 159.34375 C 319.195312 160.964844 317.605469 161.863281 315.625 162.101562 C 313.648438 162.3125 311.847656 161.742188 310.257812 160.425781 C 308.640625 159.195312 307.710938 157.574219 307.410156 155.597656 C 307.109375 153.558594 307.589844 151.757812 308.820312 150.199219 C 310.046875 148.640625 311.667969 147.769531 313.648438 147.589844 " fill-opacity="1" fill-rule="evenodd"/><path fill="#000000" d="M 313.554688 149.636719 C 315.023438 149.488281 316.371094 149.878906 317.628906 150.746094 C 318.800781 151.644531 319.457031 152.816406 319.667969 154.222656 C 319.847656 155.691406 319.488281 156.949219 318.617188 158 C 317.660156 159.167969 316.460938 159.828125 314.992188 159.976562 C 313.496094 160.097656 312.117188 159.738281 310.886719 158.839844 C 309.660156 158 308.9375 156.832031 308.757812 155.363281 C 308.578125 153.953125 308.9375 152.695312 309.898438 151.617188 C 310.828125 150.445312 312.054688 149.757812 313.554688 149.636719 " fill-opacity="1" fill-rule="evenodd"/><path stroke-linecap="butt" transform="matrix(0.299702, 0, 0, -0.299709, -4565.287687, 3921.955599)" fill="none" stroke-linejoin="miter" d="M 16279.001129 12586.603286 C 16273.996151 12586.199249 16269.903538 12583.905357 16266.801494 12579.995315 C 16263.59518 12576.398076 16262.39607 12572.201298 16262.995625 12567.496214 C 16263.59518 12562.595628 16266.006432 12558.698619 16270.099045 12555.896422 C 16274.204692 12552.898723 16278.805622 12551.699644 16283.797567 12552.103681 C 16288.698275 12552.598953 16292.699652 12554.80161 16295.892932 12558.698619 C 16298.799469 12562.204623 16299.998579 12566.401402 16299.399024 12571.301988 C 16298.695199 12575.994039 16296.492487 12579.904081 16292.595381 12582.90178 C 16288.398498 12585.795211 16283.901838 12587.098558 16279.001129 12586.603286 Z M 16279.001129 12586.603286 " stroke="#330000" stroke-width="0.552" stroke-opacity="1" stroke-miterlimit="10"/><path fill="#ffffff" d="M 309.171875 149.101562 C 309.890625 149.460938 310.429688 149.972656 310.820312 150.570312 C 311.238281 151.257812 311.355469 151.828125 311.148438 152.363281 C 310.9375 152.933594 310.488281 153.234375 309.832031 153.261719 C 309.113281 153.410156 308.394531 153.320312 307.617188 152.992188 C 306.871094 152.605469 306.269531 152.09375 305.851562 151.4375 C 305.433594 150.808594 305.34375 150.242188 305.582031 149.730469 C 305.761719 149.164062 306.210938 148.863281 306.898438 148.804688 C 307.617188 148.625 308.394531 148.714844 309.171875 149.101562 " fill-opacity="1" fill-rule="evenodd"/><path fill="#ffffff" d="M 307.878906 157.109375 C 307.609375 156.957031 307.488281 156.75 307.488281 156.480469 C 307.429688 156.242188 307.488281 156 307.667969 155.761719 C 307.9375 155.523438 308.207031 155.402344 308.59375 155.402344 C 308.925781 155.371094 309.222656 155.402344 309.433594 155.550781 C 309.730469 155.730469 309.910156 155.941406 309.941406 156.179688 C 309.941406 156.480469 309.851562 156.71875 309.671875 156.898438 C 309.492188 157.136719 309.222656 157.257812 308.894531 157.316406 C 308.507812 157.316406 308.175781 157.257812 307.878906 157.109375 " fill-opacity="1" fill-rule="evenodd"/><path fill="#ffffff" d="M 321.152344 149.425781 C 321.511719 149.695312 321.71875 150.085938 321.78125 150.566406 C 321.871094 151.074219 321.78125 151.554688 321.480469 151.972656 C 321.210938 152.363281 320.851562 152.574219 320.429688 152.605469 C 319.949219 152.664062 319.5625 152.515625 319.230469 152.183594 C 318.839844 151.855469 318.601562 151.433594 318.511719 150.925781 C 318.453125 150.445312 318.601562 150.023438 318.871094 149.636719 C 319.113281 149.277344 319.441406 149.035156 319.921875 149.003906 C 320.371094 148.945312 320.761719 149.09375 321.148438 149.425781 " fill-opacity="1" fill-rule="evenodd"/><path fill="#ff3333" d="M 430.230469 218.742188 C 421.621094 223.984375 411.597656 232.199219 400.136719 243.386719 C 376.691406 266.984375 364.738281 277.894531 364.214844 276.117188 C 365.195312 271.917969 365.808594 267.71875 366.054688 263.582031 C 366.238281 258.863281 365.871094 253.988281 364.984375 248.992188 C 364.984375 248.503906 364.953125 248.105469 364.859375 247.765625 C 364.0625 243.292969 365.59375 239.890625 369.519531 237.59375 C 381.378906 230.023438 393.699219 223.617188 406.449219 218.3125 C 414.847656 215.066406 420.882812 211.785156 424.5625 208.539062 C 427.441406 209.609375 429.3125 213.011719 430.230469 218.742188 " fill-opacity="1" fill-rule="evenodd"/><path fill="#b22424" d="M 364.300781 276.054688 C 356.433594 290.03125 351.015625 302.769531 348.082031 314.296875 C 346.722656 312.300781 346.148438 308.457031 346.328125 302.738281 C 346.480469 302.375 346.632812 301.953125 346.8125 301.46875 C 350.925781 290.121094 357.371094 277.476562 366.144531 263.5 C 365.902344 267.671875 365.296875 271.847656 364.300781 276.054688 " fill-opacity="1" fill-rule="evenodd"/><path fill="#d92b2b" d="M 430.28125 218.707031 C 436.832031 230.980469 443.015625 246.699219 448.832031 265.867188 C 428.742188 325.265625 396.84375 364.488281 353.070312 383.53125 C 352.976562 365.8125 351.285156 342.742188 348.023438 314.316406 C 350.976562 302.8125 356.359375 290.042969 364.265625 276.078125 C 364.757812 277.863281 376.757812 266.972656 400.164062 243.347656 C 411.640625 232.148438 421.667969 223.9375 430.28125 218.707031 " fill-opacity="1" fill-rule="evenodd"/><path fill="#f89865" d="M 377.230469 337.910156 L 415.269531 346.621094 C 410.808594 360.246094 406.714844 372.5625 402.867188 383.5 C 391.867188 388.695312 379.335938 386.160156 365.25 375.863281 C 370.660156 361.074219 374.632812 348.421875 377.230469 337.910156 " fill-opacity="1" fill-rule="evenodd"/><path fill="#ff3333" d="M 408.40625 245.257812 C 415.304688 243.601562 421.410156 244.429688 426.773438 247.738281 C 431.191406 252.246094 433.0625 260.25 432.355469 271.660156 C 429.105469 299.535156 423.25 327.5 414.785156 355.589844 C 399.636719 357.15625 385.410156 353.964844 372.128906 346.023438 C 381.300781 320.082031 388.351562 293.308594 393.320312 265.710938 C 395.222656 255.222656 400.25 248.414062 408.40625 245.257812 " fill-opacity="1" fill-rule="evenodd"/><path fill="#f89865" d="M 407.183594 371.644531 C 405.078125 378.539062 402.761719 384.976562 400.257812 390.984375 C 397.332031 398.15625 393.882812 404.898438 389.917969 411.242188 C 378.140625 431.773438 365.726562 450.351562 352.640625 466.976562 C 340.984375 474.023438 331.773438 469.847656 324.96875 454.441406 C 344.980469 417.832031 358.128906 391.320312 364.414062 374.910156 C 366.09375 371.460938 367.738281 368.015625 369.296875 364.566406 C 383.113281 360.816406 395.742188 363.195312 407.183594 371.644531 " fill-opacity="1" fill-rule="evenodd"/><path fill="#f89865" d="M 335.171875 502.757812 L 334.054688 516.402344 L 334.359375 517.972656 L 334.054688 516.402344 Z M 315.277344 518.03125 L 314.3125 515.34375 L 315.914062 496.085938 L 314.3125 515.34375 L 315.277344 518.03125 L 315.640625 525.1875 C 314.222656 527.238281 312.199219 528.117188 309.542969 527.875 L 304.804688 508.492188 L 305.859375 487.449219 C 308.304688 481.171875 311.292969 475.222656 314.796875 469.667969 L 328.167969 449.140625 C 337.679688 451.253906 345.648438 454.964844 352.109375 460.308594 C 355.429688 465.714844 354.976562 473.019531 350.78125 482.289062 C 346.886719 490.167969 344.621094 496.871094 343.898438 502.394531 L 342.570312 515.074219 L 343.835938 524.128906 C 343.6875 524.3125 343.6875 524.460938 343.746094 524.554688 C 343.144531 528.628906 340.847656 530.167969 336.894531 529.171875 L 334.359375 517.972656 L 335.324219 527.027344 C 334.480469 531.585938 332.09375 533.097656 328.167969 531.648438 L 325.269531 520.175781 L 324.847656 517.335938 L 326.417969 500.402344 L 324.847656 517.335938 L 325.269531 520.175781 L 326.265625 528.539062 C 324.605469 531.496094 322.371094 532.644531 319.597656 532.007812 L 315.277344 518.03125 " fill-opacity="1" fill-rule="evenodd"/><path stroke-linecap="butt" transform="matrix(0.300644, 0, 0, -0.300652, -4565.287687, 3921.955599)" fill="none" stroke-linejoin="miter" d="M 16267.003275 11314.802724 L 16265.600038 11324.19638 L 16270.797211 11380.506342 M 16300.005322 11372.697785 L 16296.302336 11327.301613 L 16297.198848 11322.10457 M 16233.793341 11321.80574 L 16230.506129 11330.796624 L 16235.898195 11394.902152 " stroke="#954e40" stroke-width="0.55" stroke-opacity="1" stroke-miterlimit="10"/></svg>