<svg xmlns="http://www.w3.org/2000/svg" xmlns:xlink="http://www.w3.org/1999/xlink" width="1080" zoomAndPan="magnify" viewBox="0 0 810 809.999993" height="1080" preserveAspectRatio="xMidYMid meet" version="1.0"><defs><clipPath id="16874a9a45"><path d="M 303 155 L 322 155 L 322 174 L 303 174 Z M 303 155 " clip-rule="nonzero"/></clipPath><clipPath id="e95d951c16"><path d="M 311.582031 155.042969 C 314.125 154.902344 316.320312 155.660156 318.246094 157.308594 C 320.136719 158.957031 321.199219 161.019531 321.441406 163.492188 C 321.679688 166 321.027344 168.164062 319.449219 169.984375 C 317.867188 171.875 315.808594 172.90625 313.296875 173.042969 C 310.859375 173.214844 308.660156 172.496094 306.769531 170.84375 C 304.847656 169.230469 303.75 167.203125 303.507812 164.695312 C 303.300781 162.222656 303.953125 160.058594 305.570312 158.167969 C 307.113281 156.277344 309.140625 155.246094 311.582031 155.042969 " clip-rule="evenodd"/></clipPath><radialGradient gradientTransform="matrix(0.910866, 0.43831, 0.408416, -0.90091, 6333.281249, -3893.022366)" gradientUnits="userSpaceOnUse" r="25.847492" cx="0" id="f356673cee" cy="0" fx="0" fy="0"><stop stop-opacity="1" stop-color="rgb(57.446289%, 2.047729%, 2.165222%)" offset="0"/><stop stop-opacity="1" stop-color="rgb(57.215881%, 2.120972%, 2.415466%)" offset="0.0078125"/><stop stop-opacity="1" stop-color="rgb(57.063293%, 2.1698%, 2.581787%)" offset="0.0117188"/><stop stop-opacity="1" stop-color="rgb(56.90918%, 2.218628%, 2.749634%)" offset="0.015625"/><stop stop-opacity="1" stop-color="rgb(56.756592%, 2.267456%, 2.915955%)" offset="0.0195312"/><stop stop-opacity="1" stop-color="rgb(56.604004%, 2.316284%, 3.082275%)" offset="0.0234375"/><stop stop-opacity="1" stop-color="rgb(56.44989%, 2.365112%, 3.250122%)" offset="0.0273438"/><stop stop-opacity="1" stop-color="rgb(56.297302%, 2.41394%, 3.416443%)" offset="0.03125"/><stop stop-opacity="1" stop-color="rgb(56.144714%, 2.462769%, 3.582764%)" offset="0.0351562"/><stop stop-opacity="1" stop-color="rgb(55.990601%, 2.511597%, 3.75061%)" offset="0.0390625"/><stop stop-opacity="1" stop-color="rgb(55.838013%, 2.560425%, 3.916931%)" offset="0.0429688"/><stop stop-opacity="1" stop-color="rgb(55.685425%, 2.609253%, 4.083252%)" offset="0.046875"/><stop stop-opacity="1" stop-color="rgb(55.531311%, 2.658081%, 4.251099%)" offset="0.0507812"/><stop stop-opacity="1" stop-color="rgb(55.378723%, 2.706909%, 4.417419%)" offset="0.0546875"/><stop stop-opacity="1" stop-color="rgb(55.226135%, 2.755737%, 4.58374%)" offset="0.0585938"/><stop stop-opacity="1" stop-color="rgb(55.072021%, 2.804565%, 4.751587%)" offset="0.0625"/><stop stop-opacity="1" stop-color="rgb(54.919434%, 2.853394%, 4.917908%)" offset="0.0664062"/><stop stop-opacity="1" stop-color="rgb(54.766846%, 2.902222%, 5.084229%)" offset="0.0703125"/><stop stop-opacity="1" stop-color="rgb(54.612732%, 2.95105%, 5.250549%)" offset="0.0742188"/><stop stop-opacity="1" stop-color="rgb(54.460144%, 2.999878%, 5.418396%)" offset="0.078125"/><stop stop-opacity="1" stop-color="rgb(54.30603%, 3.048706%, 5.584717%)" offset="0.0820312"/><stop stop-opacity="1" stop-color="rgb(54.153442%, 3.097534%, 5.751038%)" offset="0.0859375"/><stop stop-opacity="1" stop-color="rgb(54.000854%, 3.146362%, 5.918884%)" offset="0.0898438"/><stop stop-opacity="1" stop-color="rgb(53.846741%, 3.19519%, 6.085205%)" offset="0.09375"/><stop stop-opacity="1" stop-color="rgb(53.694153%, 3.244019%, 6.251526%)" offset="0.0976562"/><stop stop-opacity="1" stop-color="rgb(53.541565%, 3.292847%, 6.419373%)" offset="0.101562"/><stop stop-opacity="1" stop-color="rgb(53.387451%, 3.341675%, 6.585693%)" offset="0.105469"/><stop stop-opacity="1" stop-color="rgb(53.234863%, 3.390503%, 6.752014%)" offset="0.109375"/><stop stop-opacity="1" stop-color="rgb(53.082275%, 3.439331%, 6.919861%)" offset="0.113281"/><stop stop-opacity="1" stop-color="rgb(52.928162%, 3.488159%, 7.086182%)" offset="0.117188"/><stop stop-opacity="1" stop-color="rgb(52.775574%, 3.536987%, 7.252502%)" offset="0.121094"/><stop stop-opacity="1" stop-color="rgb(52.622986%, 3.585815%, 7.420349%)" offset="0.125"/><stop stop-opacity="1" stop-color="rgb(52.468872%, 3.634644%, 7.58667%)" offset="0.128906"/><stop stop-opacity="1" stop-color="rgb(52.316284%, 3.683472%, 7.752991%)" offset="0.132812"/><stop stop-opacity="1" stop-color="rgb(52.163696%, 3.7323%, 7.919312%)" offset="0.136719"/><stop stop-opacity="1" stop-color="rgb(52.009583%, 3.781128%, 8.087158%)" offset="0.140625"/><stop stop-opacity="1" stop-color="rgb(51.856995%, 3.829956%, 8.253479%)" offset="0.144531"/><stop stop-opacity="1" stop-color="rgb(51.704407%, 3.878784%, 8.4198%)" offset="0.148438"/><stop stop-opacity="1" stop-color="rgb(51.550293%, 3.927612%, 8.587646%)" offset="0.152344"/><stop stop-opacity="1" stop-color="rgb(51.397705%, 3.97644%, 8.753967%)" offset="0.15625"/><stop stop-opacity="1" stop-color="rgb(51.243591%, 4.025269%, 8.920288%)" offset="0.160156"/><stop stop-opacity="1" stop-color="rgb(51.091003%, 4.074097%, 9.088135%)" offset="0.164062"/><stop stop-opacity="1" stop-color="rgb(50.938416%, 4.122925%, 9.254456%)" offset="0.167969"/><stop stop-opacity="1" stop-color="rgb(50.784302%, 4.171753%, 9.420776%)" offset="0.171875"/><stop stop-opacity="1" stop-color="rgb(50.631714%, 4.220581%, 9.588623%)" offset="0.175781"/><stop stop-opacity="1" stop-color="rgb(50.479126%, 4.269409%, 9.754944%)" offset="0.179688"/><stop stop-opacity="1" stop-color="rgb(50.325012%, 4.318237%, 9.921265%)" offset="0.183594"/><stop stop-opacity="1" stop-color="rgb(50.172424%, 4.367065%, 10.089111%)" offset="0.1875"/><stop stop-opacity="1" stop-color="rgb(50.019836%, 4.415894%, 10.255432%)" offset="0.191406"/><stop stop-opacity="1" stop-color="rgb(49.865723%, 4.464722%, 10.421753%)" offset="0.195312"/><stop stop-opacity="1" stop-color="rgb(49.713135%, 4.51355%, 10.588074%)" offset="0.199219"/><stop stop-opacity="1" stop-color="rgb(49.560547%, 4.562378%, 10.75592%)" offset="0.203125"/><stop stop-opacity="1" stop-color="rgb(49.406433%, 4.611206%, 10.922241%)" offset="0.207031"/><stop stop-opacity="1" stop-color="rgb(49.253845%, 4.660034%, 11.088562%)" offset="0.210938"/><stop stop-opacity="1" stop-color="rgb(49.101257%, 4.708862%, 11.256409%)" offset="0.214844"/><stop stop-opacity="1" stop-color="rgb(48.947144%, 4.75769%, 11.422729%)" offset="0.21875"/><stop stop-opacity="1" stop-color="rgb(48.794556%, 4.806519%, 11.58905%)" offset="0.222656"/><stop stop-opacity="1" stop-color="rgb(48.640442%, 4.855347%, 11.756897%)" offset="0.226562"/><stop stop-opacity="1" stop-color="rgb(48.487854%, 4.904175%, 11.923218%)" offset="0.230469"/><stop stop-opacity="1" stop-color="rgb(48.335266%, 4.953003%, 12.089539%)" offset="0.234375"/><stop stop-opacity="1" stop-color="rgb(48.181152%, 5.001831%, 12.257385%)" offset="0.238281"/><stop stop-opacity="1" stop-color="rgb(48.028564%, 5.050659%, 12.423706%)" offset="0.242188"/><stop stop-opacity="1" stop-color="rgb(47.875977%, 5.099487%, 12.590027%)" offset="0.246094"/><stop stop-opacity="1" stop-color="rgb(47.721863%, 5.148315%, 12.757874%)" offset="0.25"/><stop stop-opacity="1" stop-color="rgb(47.492981%, 5.221558%, 13.008118%)" offset="0.253906"/><stop stop-opacity="1" stop-color="rgb(47.186279%, 5.319214%, 13.340759%)" offset="0.261719"/><stop stop-opacity="1" stop-color="rgb(46.879578%, 5.41687%, 13.674927%)" offset="0.269531"/><stop stop-opacity="1" stop-color="rgb(46.574402%, 5.514526%, 14.007568%)" offset="0.277344"/><stop stop-opacity="1" stop-color="rgb(46.2677%, 5.612183%, 14.341736%)" offset="0.285156"/><stop stop-opacity="1" stop-color="rgb(45.960999%, 5.709839%, 14.675903%)" offset="0.292969"/><stop stop-opacity="1" stop-color="rgb(45.654297%, 5.807495%, 15.008545%)" offset="0.300781"/><stop stop-opacity="1" stop-color="rgb(45.349121%, 5.905151%, 15.342712%)" offset="0.308594"/><stop stop-opacity="1" stop-color="rgb(45.042419%, 6.002808%, 15.675354%)" offset="0.316406"/><stop stop-opacity="1" stop-color="rgb(44.735718%, 6.100464%, 16.009521%)" offset="0.324219"/><stop stop-opacity="1" stop-color="rgb(44.430542%, 6.19812%, 16.343689%)" offset="0.332031"/><stop stop-opacity="1" stop-color="rgb(44.12384%, 6.295776%, 16.676331%)" offset="0.339844"/><stop stop-opacity="1" stop-color="rgb(43.817139%, 6.393433%, 17.010498%)" offset="0.347656"/><stop stop-opacity="1" stop-color="rgb(43.511963%, 6.491089%, 17.344666%)" offset="0.355469"/><stop stop-opacity="1" stop-color="rgb(43.205261%, 6.588745%, 17.677307%)" offset="0.363281"/><stop stop-opacity="1" stop-color="rgb(42.89856%, 6.686401%, 18.011475%)" offset="0.371094"/><stop stop-opacity="1" stop-color="rgb(42.591858%, 6.784058%, 18.344116%)" offset="0.378906"/><stop stop-opacity="1" stop-color="rgb(42.286682%, 6.881714%, 18.678284%)" offset="0.386719"/><stop stop-opacity="1" stop-color="rgb(41.97998%, 6.97937%, 19.012451%)" offset="0.394531"/><stop stop-opacity="1" stop-color="rgb(41.673279%, 7.077026%, 19.345093%)" offset="0.402344"/><stop stop-opacity="1" stop-color="rgb(41.368103%, 7.174683%, 19.67926%)" offset="0.410156"/><stop stop-opacity="1" stop-color="rgb(41.061401%, 7.272339%, 20.013428%)" offset="0.417969"/><stop stop-opacity="1" stop-color="rgb(40.7547%, 7.369995%, 20.346069%)" offset="0.425781"/><stop stop-opacity="1" stop-color="rgb(40.447998%, 7.467651%, 20.680237%)" offset="0.433594"/><stop stop-opacity="1" stop-color="rgb(40.142822%, 7.565308%, 21.012878%)" offset="0.441406"/><stop stop-opacity="1" stop-color="rgb(39.836121%, 7.662964%, 21.347046%)" offset="0.449219"/><stop stop-opacity="1" stop-color="rgb(39.529419%, 7.76062%, 21.681213%)" offset="0.457031"/><stop stop-opacity="1" stop-color="rgb(39.224243%, 7.858276%, 22.013855%)" offset="0.464844"/><stop stop-opacity="1" stop-color="rgb(38.917542%, 7.955933%, 22.348022%)" offset="0.472656"/><stop stop-opacity="1" stop-color="rgb(38.61084%, 8.053589%, 22.68219%)" offset="0.480469"/><stop stop-opacity="1" stop-color="rgb(38.305664%, 8.151245%, 23.014832%)" offset="0.488281"/><stop stop-opacity="1" stop-color="rgb(37.998962%, 8.248901%, 23.348999%)" offset="0.496094"/><stop stop-opacity="1" stop-color="rgb(37.768555%, 8.322144%, 23.599243%)" offset="0.503906"/><stop stop-opacity="1" stop-color="rgb(37.615967%, 8.370972%, 23.765564%)" offset="0.507812"/><stop stop-opacity="1" stop-color="rgb(37.463379%, 8.4198%, 23.931885%)" offset="0.511719"/><stop stop-opacity="1" stop-color="rgb(37.309265%, 8.468628%, 24.099731%)" offset="0.515625"/><stop stop-opacity="1" stop-color="rgb(37.156677%, 8.517456%, 24.266052%)" offset="0.519531"/><stop stop-opacity="1" stop-color="rgb(37.004089%, 8.566284%, 24.432373%)" offset="0.523438"/><stop stop-opacity="1" stop-color="rgb(36.849976%, 8.615112%, 24.60022%)" offset="0.527344"/><stop stop-opacity="1" stop-color="rgb(36.697388%, 8.66394%, 24.766541%)" offset="0.53125"/><stop stop-opacity="1" stop-color="rgb(36.5448%, 8.712769%, 24.932861%)" offset="0.535156"/><stop stop-opacity="1" stop-color="rgb(36.390686%, 8.761597%, 25.100708%)" offset="0.539062"/><stop stop-opacity="1" stop-color="rgb(36.238098%, 8.810425%, 25.267029%)" offset="0.542969"/><stop stop-opacity="1" stop-color="rgb(36.08551%, 8.859253%, 25.43335%)" offset="0.546875"/><stop stop-opacity="1" stop-color="rgb(35.931396%, 8.908081%, 25.601196%)" offset="0.550781"/><stop stop-opacity="1" stop-color="rgb(35.778809%, 8.956909%, 25.767517%)" offset="0.554688"/><stop stop-opacity="1" stop-color="rgb(35.626221%, 9.005737%, 25.933838%)" offset="0.558594"/><stop stop-opacity="1" stop-color="rgb(35.472107%, 9.054565%, 26.100159%)" offset="0.5625"/><stop stop-opacity="1" stop-color="rgb(35.319519%, 9.103394%, 26.268005%)" offset="0.566406"/><stop stop-opacity="1" stop-color="rgb(35.165405%, 9.152222%, 26.434326%)" offset="0.570312"/><stop stop-opacity="1" stop-color="rgb(35.012817%, 9.20105%, 26.600647%)" offset="0.574219"/><stop stop-opacity="1" stop-color="rgb(34.860229%, 9.249878%, 26.768494%)" offset="0.578125"/><stop stop-opacity="1" stop-color="rgb(34.706116%, 9.298706%, 26.934814%)" offset="0.582031"/><stop stop-opacity="1" stop-color="rgb(34.553528%, 9.347534%, 27.101135%)" offset="0.585938"/><stop stop-opacity="1" stop-color="rgb(34.40094%, 9.396362%, 27.268982%)" offset="0.589844"/><stop stop-opacity="1" stop-color="rgb(34.246826%, 9.44519%, 27.435303%)" offset="0.59375"/><stop stop-opacity="1" stop-color="rgb(34.094238%, 9.494019%, 27.601624%)" offset="0.597656"/><stop stop-opacity="1" stop-color="rgb(33.94165%, 9.542847%, 27.76947%)" offset="0.601562"/><stop stop-opacity="1" stop-color="rgb(33.787537%, 9.591675%, 27.935791%)" offset="0.605469"/><stop stop-opacity="1" stop-color="rgb(33.634949%, 9.640503%, 28.102112%)" offset="0.609375"/><stop stop-opacity="1" stop-color="rgb(33.482361%, 9.689331%, 28.269958%)" offset="0.613281"/><stop stop-opacity="1" stop-color="rgb(33.328247%, 9.738159%, 28.436279%)" offset="0.617188"/><stop stop-opacity="1" stop-color="rgb(33.175659%, 9.786987%, 28.6026%)" offset="0.621094"/><stop stop-opacity="1" stop-color="rgb(33.023071%, 9.835815%, 28.768921%)" offset="0.625"/><stop stop-opacity="1" stop-color="rgb(32.792664%, 9.909058%, 29.019165%)" offset="0.628906"/><stop stop-opacity="1" stop-color="rgb(32.485962%, 10.006714%, 29.353333%)" offset="0.636719"/><stop stop-opacity="1" stop-color="rgb(32.17926%, 10.10437%, 29.6875%)" offset="0.644531"/><stop stop-opacity="1" stop-color="rgb(31.874084%, 10.202026%, 30.020142%)" offset="0.652344"/><stop stop-opacity="1" stop-color="rgb(31.567383%, 10.299683%, 30.354309%)" offset="0.660156"/><stop stop-opacity="1" stop-color="rgb(31.260681%, 10.397339%, 30.688477%)" offset="0.667969"/><stop stop-opacity="1" stop-color="rgb(30.955505%, 10.494995%, 31.021118%)" offset="0.675781"/><stop stop-opacity="1" stop-color="rgb(30.648804%, 10.592651%, 31.355286%)" offset="0.683594"/><stop stop-opacity="1" stop-color="rgb(30.342102%, 10.690308%, 31.687927%)" offset="0.691406"/><stop stop-opacity="1" stop-color="rgb(30.036926%, 10.787964%, 32.022095%)" offset="0.699219"/><stop stop-opacity="1" stop-color="rgb(29.730225%, 10.88562%, 32.356262%)" offset="0.707031"/><stop stop-opacity="1" stop-color="rgb(29.423523%, 10.983276%, 32.688904%)" offset="0.714844"/><stop stop-opacity="1" stop-color="rgb(29.116821%, 11.080933%, 33.023071%)" offset="0.722656"/><stop stop-opacity="1" stop-color="rgb(28.811646%, 11.178589%, 33.357239%)" offset="0.730469"/><stop stop-opacity="1" stop-color="rgb(28.504944%, 11.276245%, 33.68988%)" offset="0.738281"/><stop stop-opacity="1" stop-color="rgb(28.198242%, 11.373901%, 34.024048%)" offset="0.746094"/><stop stop-opacity="1" stop-color="rgb(27.96936%, 11.447144%, 34.274292%)" offset="0.753906"/><stop stop-opacity="1" stop-color="rgb(27.816772%, 11.495972%, 34.440613%)" offset="0.757812"/><stop stop-opacity="1" stop-color="rgb(27.662659%, 11.5448%, 34.606934%)" offset="0.761719"/><stop stop-opacity="1" stop-color="rgb(27.510071%, 11.593628%, 34.77478%)" offset="0.765625"/><stop stop-opacity="1" stop-color="rgb(27.357483%, 11.642456%, 34.941101%)" offset="0.769531"/><stop stop-opacity="1" stop-color="rgb(27.203369%, 11.691284%, 35.107422%)" offset="0.773438"/><stop stop-opacity="1" stop-color="rgb(27.050781%, 11.740112%, 35.275269%)" offset="0.777344"/><stop stop-opacity="1" stop-color="rgb(26.896667%, 11.78894%, 35.441589%)" offset="0.78125"/><stop stop-opacity="1" stop-color="rgb(26.74408%, 11.837769%, 35.60791%)" offset="0.785156"/><stop stop-opacity="1" stop-color="rgb(26.591492%, 11.886597%, 35.775757%)" offset="0.789062"/><stop stop-opacity="1" stop-color="rgb(26.437378%, 11.935425%, 35.942078%)" offset="0.792969"/><stop stop-opacity="1" stop-color="rgb(26.28479%, 11.984253%, 36.108398%)" offset="0.796875"/><stop stop-opacity="1" stop-color="rgb(26.132202%, 12.033081%, 36.274719%)" offset="0.800781"/><stop stop-opacity="1" stop-color="rgb(25.978088%, 12.081909%, 36.442566%)" offset="0.804688"/><stop stop-opacity="1" stop-color="rgb(25.8255%, 12.130737%, 36.608887%)" offset="0.808594"/><stop stop-opacity="1" stop-color="rgb(25.672913%, 12.179565%, 36.775208%)" offset="0.8125"/><stop stop-opacity="1" stop-color="rgb(25.442505%, 12.252808%, 37.025452%)" offset="0.816406"/><stop stop-opacity="1" stop-color="rgb(25.135803%, 12.350464%, 37.359619%)" offset="0.824219"/><stop stop-opacity="1" stop-color="rgb(24.830627%, 12.44812%, 37.693787%)" offset="0.832031"/><stop stop-opacity="1" stop-color="rgb(24.523926%, 12.545776%, 38.026428%)" offset="0.839844"/><stop stop-opacity="1" stop-color="rgb(24.217224%, 12.643433%, 38.360596%)" offset="0.847656"/><stop stop-opacity="1" stop-color="rgb(23.910522%, 12.741089%, 38.694763%)" offset="0.855469"/><stop stop-opacity="1" stop-color="rgb(23.605347%, 12.838745%, 39.027405%)" offset="0.863281"/><stop stop-opacity="1" stop-color="rgb(23.298645%, 12.936401%, 39.361572%)" offset="0.871094"/><stop stop-opacity="1" stop-color="rgb(23.069763%, 13.009644%, 39.611816%)" offset="0.878906"/><stop stop-opacity="1" stop-color="rgb(22.915649%, 13.058472%, 39.778137%)" offset="0.882812"/><stop stop-opacity="1" stop-color="rgb(22.763062%, 13.1073%, 39.944458%)" offset="0.886719"/><stop stop-opacity="1" stop-color="rgb(22.610474%, 13.156128%, 40.112305%)" offset="0.890625"/><stop stop-opacity="1" stop-color="rgb(22.45636%, 13.204956%, 40.278625%)" offset="0.894531"/><stop stop-opacity="1" stop-color="rgb(22.303772%, 13.253784%, 40.444946%)" offset="0.898438"/><stop stop-opacity="1" stop-color="rgb(22.151184%, 13.302612%, 40.612793%)" offset="0.902344"/><stop stop-opacity="1" stop-color="rgb(21.99707%, 13.35144%, 40.779114%)" offset="0.90625"/><stop stop-opacity="1" stop-color="rgb(21.768188%, 13.424683%, 41.029358%)" offset="0.910156"/><stop stop-opacity="1" stop-color="rgb(21.461487%, 13.522339%, 41.363525%)" offset="0.917969"/><stop stop-opacity="1" stop-color="rgb(21.154785%, 13.619995%, 41.696167%)" offset="0.925781"/><stop stop-opacity="1" stop-color="rgb(20.848083%, 13.717651%, 42.030334%)" offset="0.933594"/><stop stop-opacity="1" stop-color="rgb(20.619202%, 13.790894%, 42.280579%)" offset="0.941406"/><stop stop-opacity="1" stop-color="rgb(20.466614%, 13.839722%, 42.446899%)" offset="0.945312"/><stop stop-opacity="1" stop-color="rgb(20.3125%, 13.88855%, 42.61322%)" offset="0.949219"/><stop stop-opacity="1" stop-color="rgb(20.159912%, 13.937378%, 42.781067%)" offset="0.953125"/><stop stop-opacity="1" stop-color="rgb(19.929504%, 14.01062%, 43.031311%)" offset="0.957031"/><stop stop-opacity="1" stop-color="rgb(19.624329%, 14.108276%, 43.363953%)" offset="0.964844"/><stop stop-opacity="1" stop-color="rgb(19.393921%, 14.181519%, 43.614197%)" offset="0.972656"/><stop stop-opacity="1" stop-color="rgb(19.241333%, 14.230347%, 43.782043%)" offset="0.976562"/><stop stop-opacity="1" stop-color="rgb(19.010925%, 14.303589%, 44.032288%)" offset="0.980469"/><stop stop-opacity="1" stop-color="rgb(18.782043%, 14.376831%, 44.281006%)" offset="0.988281"/><stop stop-opacity="1" stop-color="rgb(18.551636%, 14.450073%, 44.53125%)" offset="0.992188"/><stop stop-opacity="1" stop-color="rgb(18.399048%, 14.498901%, 44.699097%)" offset="1"/></radialGradient></defs><rect x="-81" width="972" fill="#697a7a" y="-80.999999" height="971.999992" fill-opacity="1"/><path fill="#0000ff" d="M 312.8125 185.15625 L 312.8125 185.359375 L 312.984375 185.566406 L 312.984375 185.703125 L 313.191406 186.355469 L 313.191406 187.109375 L 313.054688 187.109375 L 313.121094 186.285156 L 313.054688 186.046875 L 312.882812 185.910156 L 312.8125 185.773438 C 312.8125 185.632812 312.8125 185.53125 312.742188 185.429688 L 312.605469 185.050781 L 312.539062 185.050781 L 312.46875 184.914062 L 312.605469 184.984375 L 312.742188 184.984375 L 312.8125 185.152344 " fill-opacity="1" fill-rule="evenodd"/><path fill="#e38b5c" d="M 408.296875 602.101562 C 404.734375 609.515625 399.636719 622.503906 392.898438 641.058594 C 378.757812 637.1875 365.488281 629.019531 353.09375 616.554688 L 374.496094 566.546875 L 413.464844 591.339844 C 411.71875 594.929688 410.007812 598.515625 408.296875 602.101562 " fill-opacity="1" fill-rule="evenodd"/><path fill="#008395" d="M 340.457031 576.96875 L 376.210938 485.171875 C 418.863281 482.292969 455.605469 495.5625 486.445312 524.980469 C 478.453125 542.308594 469.789062 557.019531 460.453125 569.105469 C 452.460938 579.636719 441.886719 592.125 428.730469 606.578125 C 426.644531 608.84375 424.449219 611.253906 422.117188 613.800781 C 398.386719 612.527344 371.15625 600.25 340.457031 576.96875 " fill-opacity="1" fill-rule="evenodd"/><path fill="#f89865" d="M 476.921875 569.339844 C 484.34375 596.585938 494.636719 618.804688 507.875 635.992188 L 463.257812 651.082031 C 443.238281 629.308594 431.628906 609.503906 428.46875 591.652344 C 440.824219 574.792969 456.972656 567.355469 476.921875 569.339844 " fill-opacity="1" fill-rule="evenodd"/><path fill="#00a5bb" d="M 387.921875 472.175781 C 408.796875 450.167969 435.882812 441.621094 469.113281 446.53125 C 476.675781 468.585938 482.566406 493.28125 486.792969 520.621094 C 491.085938 547.867188 497.195312 570.128906 505.074219 587.414062 C 506.460938 591.191406 507.59375 594.757812 508.484375 598.109375 C 482.140625 617.5625 451.292969 626.015625 415.96875 623.46875 L 413.164062 608.949219 C 396.230469 575.230469 381.996094 537.808594 370.351562 496.679688 C 375.605469 487.285156 381.460938 479.113281 387.921875 472.175781 " fill-opacity="1" fill-rule="evenodd"/><path fill="#f89865" d="M 465.332031 368.882812 C 455.882812 356.421875 447.421875 346.332031 439.949219 338.617188 L 468.023438 311.074219 C 477.121094 322.1875 485.230469 332.386719 492.308594 341.730469 C 490.644531 353.660156 481.652344 362.6875 465.332031 368.882812 " fill-opacity="1" fill-rule="evenodd"/><path fill="#f89865" d="M 464.265625 369.269531 C 462.199219 366.105469 460.09375 362.910156 458.027344 359.628906 C 462.378906 345.933594 471.292969 336.625 484.738281 331.738281 C 489.269531 337.160156 493.296875 342.582031 496.863281 347.964844 C 501.464844 354.171875 505.316406 360.664062 508.3125 367.429688 C 519.261719 388.585938 528.214844 409.148438 535.167969 429.121094 C 534.882812 442.769531 526.324219 448.269531 509.523438 445.628906 C 489.625 408.984375 474.574219 383.53125 464.265625 369.269531 " fill-opacity="1" fill-rule="evenodd"/><path fill="#b22424" d="M 378.871094 261.914062 C 381.167969 255.347656 385.226562 250.691406 390.980469 247.972656 C 397.296875 246.703125 404.957031 249.417969 413.921875 256.125 C 435.734375 274.160156 456.136719 294.28125 475.125 316.449219 C 468.242188 331.0625 457.902344 341.226562 444.097656 346.980469 C 427.085938 325.308594 408.378906 304.941406 387.875 285.84375 C 380.109375 278.574219 377.144531 270.597656 378.871094 261.914062 " fill-opacity="1" fill-rule="evenodd"/><path fill="#f89865" d="M 516.886719 428.59375 C 518.175781 428.644531 519.539062 428.96875 520.9375 429.582031 C 524.414062 431.285156 526.851562 434.332031 528.214844 438.722656 C 529.828125 443.871094 531.40625 447.078125 532.914062 448.355469 C 536.605469 451.613281 538.863281 453.738281 539.6875 454.730469 C 541.695312 457.65625 541.730469 460.585938 539.867188 463.515625 C 538.003906 465.445312 535.566406 465.707031 532.554688 464.292969 C 531.550781 463.773438 530.042969 462.542969 527.929688 460.609375 C 525.671875 458.484375 524.488281 457.398438 524.414062 457.351562 L 520.578125 456.214844 C 518.894531 455.460938 517.316406 454.351562 515.917969 452.886719 C 517.316406 454.351562 518.894531 455.460938 520.578125 456.214844 L 524.414062 457.351562 C 524.488281 457.398438 525.671875 458.484375 527.929688 460.609375 C 530.042969 462.542969 531.550781 463.773438 532.554688 464.292969 C 535.566406 465.707031 538.003906 465.445312 539.867188 463.515625 C 541.730469 460.585938 541.695312 457.65625 539.6875 454.730469 C 538.863281 453.738281 536.605469 451.613281 532.914062 448.355469 C 531.40625 447.078125 529.828125 443.871094 528.214844 438.722656 C 526.851562 434.332031 524.414062 431.285156 520.9375 429.582031 C 519.539062 428.96875 518.175781 428.644531 516.886719 428.59375 Z M 545.175781 467.40625 C 542.558594 468.964844 539.976562 470.285156 537.359375 471.375 C 539.976562 470.285156 542.558594 468.964844 545.175781 467.40625 Z M 555.785156 488.871094 C 548.042969 484.097656 541.910156 478.269531 537.359375 471.375 C 533.773438 472.695312 530.1875 473.613281 526.601562 474.136719 C 530.1875 473.613281 533.773438 472.695312 537.359375 471.375 C 541.910156 478.269531 548.042969 484.097656 555.785156 488.871094 C 555.035156 493.921875 552.523438 495.265625 548.257812 492.90625 C 548.078125 492.8125 547.898438 492.714844 547.71875 492.625 C 546 491.820312 544.347656 490.945312 542.664062 490.003906 C 536.675781 486.414062 531.515625 481.457031 527.175781 475.128906 C 526.996094 474.796875 526.78125 474.46875 526.601562 474.136719 L 524.738281 471.019531 L 526.601562 474.136719 C 526.78125 474.46875 526.996094 474.796875 527.175781 475.128906 C 531.515625 481.453125 536.675781 486.414062 542.664062 490.003906 C 546.429688 492.414062 547.863281 494.558594 547.003906 496.445312 C 546 497.390625 544.601562 497.910156 542.734375 498.003906 C 542.054688 497.910156 541.375 497.816406 540.765625 497.722656 C 534.238281 495.074219 529.183594 492.195312 525.5625 489.082031 C 519.074219 483.175781 514.699219 477.679688 512.441406 472.578125 C 510.539062 459.875 507.707031 447.503906 503.945312 435.460938 C 506.777344 433.339844 510.71875 430.457031 515.847656 426.820312 C 520.792969 423.1875 524.488281 420.65625 526.960938 419.246094 C 535.386719 422.785156 540.40625 429.652344 541.984375 439.855469 C 542.878906 446.324219 546.140625 453.550781 551.808594 461.527344 L 564.285156 476.472656 C 565.898438 479.539062 565.539062 481.359375 563.28125 481.929688 C 563.066406 481.929688 562.886719 481.953125 562.707031 481.996094 C 562.921875 488.230469 560.984375 490.6875 556.96875 489.363281 L 556.933594 489.4375 C 556.574219 489.246094 556.21875 489.058594 555.789062 488.871094 Z M 547.71875 465.78125 C 546.824219 466.34375 545.964844 466.886719 545.175781 467.40625 C 549.90625 473.921875 555.609375 478.761719 562.382812 481.929688 C 562.457031 481.976562 562.597656 481.996094 562.707031 481.996094 C 562.597656 481.996094 562.457031 481.976562 562.382812 481.929688 C 555.609375 478.761719 549.90625 473.921875 545.175781 467.40625 C 545.964844 466.886719 546.824219 466.34375 547.71875 465.78125 " fill-opacity="1" fill-rule="evenodd"/><path stroke-linecap="butt" transform="matrix(0.358342, 0, 0, -0.358351, -5278.111171, 3929.499206)" fill="none" stroke-linejoin="miter" d="M 16250.996582 9661.407303 C 16243.703882 9657.057954 16236.49839 9653.373542 16229.303798 9650.343169 M 16280.603418 9601.519268 C 16258.997841 9614.828931 16241.894334 9631.103565 16229.303798 9650.343169 C 16219.198666 9646.647857 16209.202544 9644.08621 16199.195521 9642.625526 M 16283.797381 9599.938677 L 16284.004498 9600.134888 M 16172.095891 9769.726817 C 16175.704088 9769.585109 16179.4976 9768.680357 16183.400121 9766.958058 C 16193.101919 9762.205385 16199.904079 9753.713798 16203.697591 9741.461495 C 16208.199662 9727.094471 16212.603624 9718.134157 16216.800469 9714.580553 C 16227.101817 9705.489432 16233.402535 9699.559492 16235.800732 9696.790733 C 16241.294784 9688.615264 16241.403793 9680.450696 16236.204065 9672.275227 C 16231.004338 9666.879417 16224.202178 9666.159976 16215.797587 9670.106002 C 16213.094164 9671.555785 16208.799211 9674.978582 16202.901826 9680.385292 C 16196.601107 9686.304331 16193.298136 9689.345606 16193.101919 9689.465513 L 16182.397239 9692.637595 C 16177.698952 9694.752316 16173.29499 9697.848094 16169.40337 9701.924927 M 16244.096315 9598.358086 C 16227.298033 9608.36486 16212.897948 9622.208655 16200.797953 9639.856767 C 16200.296511 9640.794221 16199.696962 9641.709873 16199.195521 9642.625526 L 16193.995793 9651.324225 M 16258.103967 9665.963765 C 16255.596761 9664.383174 16253.198564 9662.857086 16250.996582 9661.407303 C 16264.197568 9643.22506 16280.200085 9629.719185 16299.004132 9620.889679 C 16299.298456 9620.758871 16299.603681 9620.693468 16299.996114 9620.693468 " stroke="#954e40" stroke-width="0.461" stroke-opacity="1" stroke-miterlimit="10"/><path fill="#d92b2b" d="M 367.289062 255.886719 C 385.894531 253.582031 404.351562 245.433594 422.601562 231.402344 C 441.203125 267.332031 456.722656 304.003906 469.160156 341.386719 C 472.597656 351.769531 475.785156 362.328125 478.726562 372.996094 C 479.152344 374.445312 479.539062 375.933594 479.929688 377.457031 C 480.390625 378.910156 480.816406 380.433594 481.242188 381.992188 C 490.242188 415.746094 495.238281 444.761719 496.265625 469.03125 C 497.363281 493.351562 495.132812 506.148438 489.53125 507.421875 C 452.046875 521.871094 410.660156 522.128906 365.378906 508.199219 C 359.175781 506.832031 357.085938 504.070312 359.070312 499.914062 C 364.101562 466.578125 364.8125 433.023438 361.269531 399.261719 C 361.089844 397.609375 360.878906 395.933594 360.628906 394.234375 C 360.558594 392.769531 360.417969 391.304688 360.203125 389.84375 C 359.355469 383.128906 358.363281 376.429688 357.15625 369.734375 C 356.875 365.941406 356.589844 362.257812 356.238281 358.679688 C 353.332031 315.519531 356.980469 281.257812 367.292969 255.886719 " fill-opacity="1" fill-rule="evenodd"/><path fill="#e38b5c" d="M 373.945312 681.792969 C 373.492188 682.265625 373.109375 682.710938 372.726562 683.140625 C 360.617188 683.285156 347.917969 676.648438 334.628906 663.234375 L 335.8125 659.910156 C 335.917969 659.71875 336.125 659.460938 336.472656 659.128906 C 346.179688 632.730469 352.027344 618.164062 353.9375 615.425781 C 367.820312 625.25 380.867188 633.109375 393.046875 639.011719 C 392.210938 648.742188 385.808594 663 373.945312 681.792969 " fill-opacity="1" fill-rule="evenodd"/><path fill="#fefffe" d="M 373.972656 681.765625 C 375.117188 682.140625 375.253906 683.226562 374.386719 685.019531 C 374.320312 685.210938 374.007812 685.585938 373.488281 686.15625 C 372.898438 686.867188 372.238281 687.425781 371.441406 687.855469 C 362.492188 697.300781 354.617188 709.335938 347.820312 723.976562 C 331.9375 726.8125 319.625 720.648438 310.953125 705.492188 C 312.6875 703.367188 314.109375 701.359375 315.183594 699.46875 C 321.425781 690.5 326.941406 680.183594 331.761719 668.519531 C 331.484375 666.441406 331.796875 664.292969 332.769531 662.074219 C 333.808594 660.417969 335.023438 659.425781 336.515625 659.097656 C 336.167969 659.425781 335.960938 659.6875 335.855469 659.878906 L 334.675781 663.203125 C 347.996094 676.617188 360.6875 683.25 372.757812 683.109375 C 373.140625 682.683594 373.554688 682.234375 373.972656 681.765625 " fill-opacity="1" fill-rule="evenodd"/><path fill="#cccccc" d="M 294.738281 703.773438 C 297.949219 707.457031 299.054688 711.96875 298.019531 717.300781 C 295.1875 718.054688 292.25 718.527344 289.210938 718.71875 C 291.007812 714.515625 290.800781 710.097656 288.589844 705.46875 C 290.664062 705.09375 292.699219 704.527344 294.738281 703.773438 Z M 278.75 705.542969 C 280.992188 705.683594 283.136719 705.683594 285.136719 705.542969 C 287.382812 709.367188 287.832031 713.828125 286.449219 718.929688 C 284.238281 718.976562 281.996094 718.859375 279.75 718.578125 C 281.304688 713.101562 280.957031 708.753906 278.75 705.542969 Z M 268.421875 703.417969 C 270.390625 703.890625 272.671875 704.429688 275.191406 705.046875 C 277.816406 708.632812 278.472656 713.03125 277.195312 718.222656 C 275.710938 717.9375 274.292969 717.679688 272.878906 717.441406 C 271.566406 717.066406 270.910156 716.378906 271.011719 715.390625 C 272.117188 711.46875 271.21875 707.480469 268.421875 703.417969 Z M 336.59375 762.773438 C 334.867188 764.191406 332.761719 764.828125 330.308594 764.6875 C 320.8125 762.941406 309.207031 758.925781 295.464844 752.644531 C 272.464844 742.492188 256.714844 733.453125 248.289062 725.519531 C 244.628906 721.691406 243.628906 717.917969 245.25 714.183594 L 245.527344 713.972656 C 247.324219 709.722656 247.597656 706.132812 246.285156 703.207031 C 247.289062 702.261719 248.324219 701.648438 249.359375 701.363281 C 249.707031 701.742188 250.050781 702.308594 250.363281 703.0625 C 250.84375 704.429688 251.085938 706.015625 251.050781 707.808594 C 251.050781 708.898438 250.914062 710.480469 250.707031 712.554688 C 250.605469 714.398438 250.8125 715.957031 251.257812 717.230469 C 251.675781 718.644531 252.46875 720.015625 253.675781 721.339844 C 254.296875 721.953125 255.402344 722.945312 256.992188 724.3125 C 261.894531 728.46875 267.421875 732.292969 273.570312 735.789062 C 283.167969 741.453125 295.257812 746.695312 309.828125 751.515625 C 313.523438 752.648438 316.632812 753.472656 319.1875 753.992188 C 322.574219 754.558594 325.714844 754.371094 328.617188 753.425781 C 330.828125 752.765625 332.898438 751.5625 334.761719 749.816406 C 336.835938 748.113281 338.25 746.105469 339.011719 743.792969 C 339.355469 743.273438 339.804688 741.832031 340.359375 739.472656 C 340.910156 737.628906 341.496094 736.167969 342.050781 735.082031 C 343.328125 733.425781 344.15625 732.058594 344.46875 730.972656 C 344.882812 729.980469 345.019531 729.175781 344.8125 728.566406 C 342.707031 728.988281 340.152344 728.988281 337.179688 728.566406 C 335.867188 728.332031 334.589844 727.90625 333.417969 727.289062 L 332.796875 727.289062 C 324.574219 724.03125 317.152344 719.59375 310.554688 713.972656 C 310.070312 713.546875 309.589844 713.050781 309.140625 712.484375 C 306.859375 713.902344 304.40625 715.011719 301.75 715.816406 C 302.265625 710.242188 300.953125 705.875 297.8125 702.710938 C 299.019531 702.191406 300.160156 701.601562 301.265625 700.941406 C 301.75 700.609375 302.230469 700.257812 302.75 699.875 L 302.542969 699.808594 C 302.714844 699.757812 302.855469 699.691406 302.886719 699.59375 C 306.339844 697.234375 308.726562 696.546875 310.035156 697.542969 C 310.242188 697.824219 310.589844 698.132812 311.105469 698.460938 C 313.765625 700.964844 315.457031 703.347656 316.289062 705.617188 C 316.390625 706.605469 315.90625 707.59375 314.871094 708.589844 C 325.023438 717.703125 335.9375 721.953125 347.574219 721.339844 L 349.300781 718.503906 C 350.996094 721.480469 350.890625 724.148438 349.027344 726.511719 C 349.0625 728.160156 348.300781 729.980469 346.816406 731.964844 C 345.882812 734.183594 345.332031 737.582031 345.160156 742.164062 C 344.742188 749.292969 342.742188 755.386719 339.148438 760.4375 L 338.875 761.074219 C 338.25 761.453125 337.628906 761.972656 336.972656 762.632812 C 336.835938 762.773438 336.699219 762.820312 336.59375 762.773438 " fill-opacity="1" fill-rule="evenodd"/><path fill="#ffffff" d="M 278.660156 705.597656 C 280.867188 708.808594 281.214844 713.152344 279.625 718.632812 C 281.902344 718.914062 284.144531 719.03125 286.386719 718.984375 C 287.734375 713.882812 287.285156 709.421875 285.042969 705.597656 C 286.042969 705.550781 287.214844 705.527344 288.492188 705.527344 C 290.734375 710.15625 290.90625 714.566406 289.148438 718.773438 C 292.148438 718.582031 295.082031 718.109375 297.910156 717.359375 C 298.945312 712.023438 297.875 707.511719 294.667969 703.828125 C 295.597656 703.6875 296.597656 703.332031 297.703125 702.765625 C 300.84375 705.929688 302.1875 710.296875 301.671875 715.867188 C 304.328125 715.066406 306.777344 713.953125 309.019531 712.539062 C 309.5 713.109375 309.984375 713.601562 310.46875 714.027344 C 317.054688 719.644531 324.472656 724.085938 332.683594 727.34375 L 333.304688 727.34375 C 334.511719 727.957031 335.753906 728.382812 337.0625 728.617188 C 340.066406 729.042969 342.617188 729.042969 344.722656 728.617188 C 344.929688 729.230469 344.792969 730.035156 344.378906 731.023438 C 344.066406 732.109375 343.238281 733.480469 341.964844 735.136719 C 341.410156 736.21875 340.824219 737.679688 340.273438 739.527344 C 339.722656 741.886719 339.273438 743.328125 338.925781 743.847656 C 338.167969 746.160156 336.753906 748.164062 334.683594 749.867188 C 332.785156 751.617188 330.75 752.820312 328.507812 753.476562 C 325.644531 754.421875 322.472656 754.613281 319.089844 754.042969 C 316.539062 753.527344 313.433594 752.703125 309.742188 751.566406 C 295.148438 746.75 283.078125 741.507812 273.484375 735.84375 C 267.347656 732.347656 261.824219 728.523438 256.894531 724.367188 C 255.304688 723 254.203125 722.007812 253.582031 721.390625 C 252.375 720.070312 251.582031 718.699219 251.167969 717.285156 C 250.71875 716.011719 250.511719 714.453125 250.613281 712.609375 C 250.820312 710.535156 250.960938 708.953125 250.960938 707.863281 C 250.996094 706.070312 250.753906 704.488281 250.269531 703.121094 C 249.960938 702.363281 249.613281 701.796875 249.269531 701.421875 C 253.511719 699.390625 258.238281 699.480469 263.414062 701.703125 L 263.6875 701.84375 C 264.964844 702.363281 266.519531 702.90625 268.3125 703.472656 C 271.140625 707.535156 272.003906 711.523438 270.933594 715.445312 C 270.832031 716.433594 271.449219 717.117188 272.761719 717.496094 C 274.175781 717.734375 275.625 717.992188 277.109375 718.277344 C 278.386719 713.085938 277.695312 708.691406 275.109375 705.101562 C 276.554688 705.246094 277.765625 705.410156 278.660156 705.597656 " fill-opacity="1" fill-rule="evenodd"/><path fill="#999999" d="M 336.617188 762.773438 C 337.652344 764.050781 336.824219 766.882812 334.070312 771.273438 C 332.65625 773.445312 330.417969 774.367188 327.316406 774.035156 L 301.753906 764.828125 C 300.960938 764.589844 300.441406 764.140625 300.132812 763.480469 L 298.066406 759.023438 C 297.550781 758.359375 296.859375 758 295.964844 757.957031 L 290.796875 759.300781 C 289.625 759.398438 286.078125 757.792969 280.21875 754.488281 C 258.273438 744.238281 244.421875 734.9375 238.667969 726.582031 C 234.5 720.160156 235.15625 713.191406 240.632812 705.683594 C 242.496094 702.988281 244.355469 702.167969 246.285156 703.203125 C 247.59375 706.132812 247.316406 709.71875 245.527344 713.96875 L 245.25 714.183594 C 243.632812 717.914062 244.628906 721.691406 248.28125 725.515625 C 256.722656 733.445312 272.46875 742.492188 295.480469 752.644531 C 309.195312 758.921875 320.804688 762.9375 330.3125 764.6875 C 332.757812 764.828125 334.863281 764.191406 336.617188 762.773438 " fill-opacity="1" fill-rule="evenodd"/><path fill="#ed7d0d" d="M 302.503906 699.820312 L 302.570312 699.679688 L 302.878906 699.609375 C 302.847656 699.703125 302.710938 699.773438 302.503906 699.820312 " fill-opacity="1" fill-rule="evenodd"/><path fill="#f89865" d="M 534.464844 669.691406 C 534.609375 670.210938 534.789062 670.609375 534.964844 670.894531 C 529.507812 681.898438 517.742188 690.1875 499.765625 695.757812 L 497.199219 692.925781 C 497.019531 692.6875 496.914062 692.425781 496.914062 692.144531 C 476.585938 669.8125 464.175781 654.886719 459.679688 647.378906 C 479.402344 645.539062 494.59375 640.535156 505.222656 632.363281 C 513.675781 637.84375 523.410156 650.285156 534.464844 669.691406 " fill-opacity="1" fill-rule="evenodd"/><path fill="#fefffe" d="M 496.953125 692.140625 C 496.953125 692.421875 497.027344 692.683594 497.207031 692.921875 L 499.785156 695.753906 C 517.761719 690.179688 529.511719 681.894531 534.988281 670.890625 C 534.773438 670.609375 534.632812 670.207031 534.488281 669.6875 C 535.347656 668.933594 536.386719 669.238281 537.675781 670.609375 C 537.78125 670.890625 537.996094 671.316406 538.285156 671.882812 C 538.605469 672.78125 538.714844 673.722656 538.714844 674.714844 C 542.832031 686.851562 549.816406 699.390625 559.628906 712.328125 C 554.832031 727.765625 543.621094 735.75 526.070312 736.269531 C 524.960938 733.765625 523.921875 731.59375 522.882812 729.75 C 517.621094 720.070312 511.066406 710.460938 503.1875 700.921875 C 501.179688 700.074219 499.425781 698.65625 497.851562 696.675781 C 496.8125 695.023438 496.523438 693.507812 496.953125 692.140625 " fill-opacity="1" fill-rule="evenodd"/><path fill="#ffffff" d="M 512.058594 736.921875 C 512.667969 736.167969 513.132812 735.152344 513.421875 733.875 C 513.492188 733.875 513.601562 733.945312 513.746094 734.089844 C 518.230469 734.371094 522.074219 736.660156 525.230469 740.957031 C 526.59375 738.550781 527.671875 736.140625 528.425781 733.734375 C 529.109375 733.734375 529.789062 733.734375 530.402344 733.734375 C 539.230469 733.5 547.738281 731.871094 555.886719 728.847656 L 556.316406 728.207031 C 557.789062 727.925781 559.011719 727.480469 560.015625 726.863281 C 562.457031 725.164062 564.359375 723.414062 565.757812 721.621094 C 566.261719 722.046875 566.691406 722.730469 567.085938 723.675781 C 567.554688 724.714844 567.914062 726.226562 568.164062 728.207031 C 568.414062 729.480469 568.953125 731.019531 569.707031 732.8125 C 570.855469 734.890625 571.503906 736.210938 571.609375 736.78125 C 572.652344 739.046875 572.972656 741.546875 572.542969 744.285156 C 572.363281 746.695312 571.609375 748.964844 570.351562 751.085938 C 568.773438 753.542969 566.585938 755.757812 563.675781 757.742188 C 561.414062 759.117188 558.578125 760.53125 555.097656 761.996094 C 541.027344 768.179688 528.570312 772.382812 517.65625 774.605469 C 517.261719 774.699219 515.539062 775.429688 512.488281 776.796875 C 505.777344 776.375 499.457031 775.476562 493.5 774.105469 C 491.523438 773.589844 490.015625 773.234375 489.046875 773.042969 C 487.46875 772.382812 486.175781 771.558594 485.136719 770.566406 C 484.203125 769.480469 483.339844 768.15625 482.515625 766.601562 C 481.761719 764.613281 481.113281 763.082031 480.613281 761.996094 C 479.859375 760.4375 478.960938 759.207031 477.921875 758.3125 C 477.273438 757.742188 476.699219 757.367188 476.234375 757.175781 C 479.140625 753.402344 482.621094 751.039062 486.714844 750.09375 C 488.902344 749.859375 491.128906 749.691406 493.285156 749.597656 C 498.238281 752.335938 501.144531 755.738281 502.007812 759.796875 C 502.367188 760.792969 503.261719 761.121094 504.625 760.792969 C 505.882812 760.363281 507.246094 759.941406 508.648438 759.515625 C 507.570312 754.367188 505.023438 750.753906 501 748.679688 C 502.367188 748.160156 503.550781 747.78125 504.484375 747.546875 C 506.097656 748.535156 507.425781 749.859375 508.503906 751.511719 L 511.050781 757.460938 C 512.847656 756.328125 514.5 755.03125 515.96875 753.566406 C 514.355469 750.734375 512.488281 748.46875 510.441406 746.765625 C 509.832031 746.292969 509.1875 745.867188 508.503906 745.488281 C 509.078125 744.40625 509.617188 743.53125 510.15625 742.871094 C 513.851562 744.335938 516.507812 747.214844 518.015625 751.511719 C 520.207031 749.292969 522.035156 746.933594 523.402344 744.429688 C 520.636719 739.941406 516.867188 737.441406 512.058594 736.917969 " fill-opacity="1" fill-rule="evenodd"/><path fill="#cccccc" d="M 511.902344 737.003906 C 516.71875 737.519531 520.496094 740.027344 523.261719 744.511719 C 521.859375 747.011719 520.0625 749.375 517.871094 751.59375 C 516.359375 747.292969 513.734375 744.417969 509.996094 742.953125 C 511.898438 741.160156 512.511719 739.175781 511.898438 737.003906 Z M 508.375 745.570312 C 509.023438 745.949219 509.671875 746.378906 510.28125 746.847656 C 512.367188 748.550781 514.203125 750.8125 515.820312 753.648438 C 514.347656 755.109375 512.726562 756.414062 510.894531 757.542969 L 508.375 751.59375 C 507.261719 749.941406 505.933594 748.617188 504.3125 747.628906 Z M 493.132812 749.679688 C 494.820312 748.640625 497.410156 748.335938 500.863281 748.761719 C 504.890625 750.839844 507.40625 754.449219 508.519531 759.597656 C 507.082031 760.023438 505.75 760.449219 504.492188 760.871094 C 503.089844 761.203125 502.226562 760.871094 501.832031 759.878906 C 501.003906 755.820312 498.09375 752.421875 493.128906 749.679688 Z M 476.050781 757.257812 C 476.554688 757.449219 477.09375 757.824219 477.777344 758.394531 C 478.820312 759.289062 479.71875 760.519531 480.472656 762.078125 C 480.976562 763.160156 481.625 764.699219 482.378906 766.679688 C 483.171875 768.238281 484.070312 769.558594 485.003906 770.644531 C 486.011719 771.636719 487.339844 772.464844 488.886719 773.125 C 489.859375 773.316406 491.367188 773.667969 493.347656 774.191406 C 499.316406 775.558594 505.644531 776.457031 512.332031 776.878906 C 515.425781 775.511719 517.113281 774.78125 517.507812 774.683594 C 528.40625 772.464844 540.882812 768.261719 554.976562 762.078125 C 558.429688 760.613281 561.269531 759.195312 563.535156 757.828125 C 566.410156 755.839844 568.640625 753.625 570.1875 751.167969 C 571.480469 749.046875 572.199219 746.78125 572.378906 744.367188 C 572.8125 741.632812 572.523438 739.128906 571.480469 736.863281 C 571.335938 736.292969 570.691406 734.972656 569.574219 732.898438 C 568.820312 731.101562 568.28125 729.566406 567.992188 728.289062 C 567.777344 726.308594 567.417969 724.796875 566.949219 723.761719 C 566.554688 722.816406 566.125 722.132812 565.582031 721.703125 C 564.21875 723.496094 562.3125 725.246094 559.867188 726.945312 C 558.859375 727.5625 557.636719 728.007812 556.164062 728.292969 L 555.730469 728.925781 C 547.570312 731.953125 539.082031 733.582031 530.238281 733.816406 C 529.625 733.816406 528.980469 733.816406 528.261719 733.816406 C 527.503906 736.222656 526.460938 738.632812 525.097656 741.042969 C 521.933594 736.746094 518.085938 734.453125 513.589844 734.167969 C 514.8125 734.03125 515.316406 732.1875 515.027344 728.644531 C 511.683594 724.347656 511.683594 721.917969 515.027344 721.347656 C 518.300781 720.550781 520.351562 720.144531 521.175781 720.144531 C 522.003906 720.144531 523.226562 720.949219 524.878906 722.554688 C 526.640625 723.78125 527.757812 725.246094 528.117188 726.945312 C 547.894531 724.019531 558.429688 718.871094 559.652344 711.503906 C 564.683594 712.449219 567.273438 714.457031 567.382812 717.523438 C 568.53125 718.515625 569.25 720.285156 569.429688 722.835938 C 570.113281 725.199219 571.949219 728.148438 574.859375 731.691406 C 579.5 737.214844 582.125 743.023438 582.734375 749.113281 L 582.878906 749.683594 C 582.769531 750.53125 582.664062 751.382812 582.589844 752.230469 C 582.484375 752.421875 582.410156 752.5625 582.304688 752.65625 C 582.050781 754.878906 580.972656 756.742188 578.960938 758.25 C 570.691406 763.351562 559.328125 768.167969 544.910156 772.699219 C 535.019531 775.914062 524.269531 779.265625 512.621094 782.757812 C 501.4375 782.289062 492.554688 781.105469 486.046875 779.21875 C 481.15625 777.566406 478.53125 774.707031 478.28125 770.644531 L 478.386719 770.292969 C 478.0625 765.710938 476.664062 762.359375 474.144531 760.234375 C 474.71875 759.003906 475.367188 758.015625 476.050781 757.257812 " fill-opacity="1" fill-rule="evenodd"/><path fill="#999999" d="M 474.210938 760.199219 C 476.726562 762.320312 478.132812 765.675781 478.453125 770.253906 L 478.347656 770.609375 C 478.636719 774.671875 481.226562 777.527344 486.117188 779.179688 C 492.632812 781.066406 501.484375 782.25 512.671875 782.71875 C 524.332031 779.230469 535.125 775.871094 544.984375 772.664062 C 559.375 768.128906 570.746094 763.3125 579.054688 758.210938 C 581.035156 756.699219 582.152344 754.835938 582.402344 752.617188 C 584.128906 752.808594 585.460938 755.453125 586.324219 760.550781 C 586.71875 763.148438 585.640625 765.320312 583.085938 767.066406 L 557.863281 777.480469 C 557.109375 777.90625 556.425781 777.90625 555.8125 777.480469 L 551.0625 775.636719 C 550.378906 775.5 549.660156 775.683594 549.011719 776.203125 L 546.027344 780.667969 C 545.199219 781.566406 541.457031 782.699219 534.871094 784.066406 C 529.941406 785.628906 522.78125 787.890625 513.320312 790.867188 C 496.804688 790.535156 485.003906 788.410156 477.988281 784.492188 C 471.402344 780.667969 468.847656 774.175781 470.324219 765.011719 C 470.753906 761.804688 472.050781 760.199219 474.207031 760.199219 " fill-opacity="1" fill-rule="evenodd"/><path fill="#f89865" d="M 421.753906 226.417969 C 410.421875 241.105469 394.371094 251.804688 373.566406 258.519531 C 370.523438 248.835938 365.3125 241.910156 358.003906 237.75 C 368.878906 220.648438 386.328125 205.226562 410.351562 191.414062 C 412.136719 204.457031 415.949219 216.136719 421.753906 226.417969 " fill-opacity="1" fill-rule="evenodd"/><path fill="#f89865" d="M 297.214844 217.28125 C 297.425781 217.28125 297.601562 217.28125 297.847656 217.28125 C 303.144531 216.683594 308.054688 213.246094 312.578125 207.039062 C 308.054688 213.246094 303.144531 216.683594 297.847656 217.28125 C 297.601562 217.28125 297.425781 217.28125 297.214844 217.28125 Z M 370.589844 58.992188 C 382.863281 60.21875 394.332031 66.183594 405.03125 76.914062 C 413.621094 85.542969 421.023438 96.484375 427.335938 109.710938 C 432.386719 120.617188 435.542969 130.121094 436.875 138.257812 C 438.734375 149.867188 435.859375 162.808594 428.316406 177.050781 C 424.390625 184.414062 415.65625 197.464844 402.117188 216.15625 C 393.457031 228.011719 379.847656 236.394531 361.257812 241.304688 C 346.773438 245.023438 333.585938 246.074219 321.660156 244.425781 C 314.261719 243.480469 308.160156 240.535156 303.285156 235.554688 C 301.777344 234.011719 300.511719 232.363281 299.425781 230.609375 L 298.199219 228.46875 C 296.96875 225.171875 296.339844 221.488281 296.304688 217.421875 L 292.761719 218.085938 L 289.148438 200.09375 C 281.257812 195.535156 279.714844 190.90625 284.449219 186.136719 C 286.835938 183.785156 289.957031 181.855469 293.882812 180.382812 C 295.148438 174.945312 294.585938 168.84375 292.199219 162.039062 C 290.621094 157.621094 287.992188 152.253906 284.34375 145.976562 C 282.066406 142.082031 280.941406 137.523438 280.976562 132.226562 L 281.855469 125.492188 C 284.519531 113.21875 292.445312 101.222656 305.5625 89.507812 C 312.191406 83.613281 318.46875 78.949219 324.46875 75.546875 C 340.53125 63.097656 355.894531 57.589844 370.589844 58.992188 " fill-opacity="1" fill-rule="evenodd"/><path stroke-linecap="butt" transform="matrix(0.342987, 0, 0, -0.342996, -5278.111171, 3929.499206)" fill="none" stroke-linejoin="miter" d="M 16255.20216 10822.897842 C 16255.703271 10822.897842 16256.295494 10822.897842 16257.001606 10822.897842 C 16272.501901 10824.697244 16286.703861 10834.605342 16299.994709 10852.804354 " stroke="#000033" stroke-width="2.411" stroke-opacity="1" stroke-miterlimit="10"/><path fill="#330000" d="M 308.730469 75.386719 L 310.84375 71.09375 C 312.746094 67.644531 314.996094 64.476562 317.636719 61.589844 C 326.15625 52.332031 336.648438 47.578125 349.214844 47.296875 L 358.015625 43.527344 C 365.230469 40.855469 372.238281 39.199219 379.03125 38.636719 C 400.859375 36.804688 416.734375 45.640625 426.625 65.214844 C 438.101562 87.886719 444.191406 99.960938 444.859375 101.472656 C 451.375 115.765625 455.246094 128.300781 456.441406 139 C 459.964844 167.65625 445.953125 191.738281 414.480469 211.167969 C 411.488281 210.992188 408.601562 210.042969 405.820312 208.28125 C 400.363281 204.832031 398.359375 199.269531 399.871094 191.5625 C 398.921875 183.148438 396.351562 176.492188 392.128906 171.53125 C 383.609375 161.601562 371.074219 165.226562 354.53125 182.441406 C 353.507812 175.683594 351.644531 167.9375 348.933594 159.207031 C 343.546875 141.816406 336.753906 128.371094 328.550781 118.828125 C 321.898438 118.476562 315.171875 117.316406 308.378906 115.273438 C 294.792969 111.367188 287.785156 105.382812 287.257812 97.355469 C 287.363281 96.617188 287.539062 95.628906 287.820312 94.46875 C 288.558594 92.109375 289.582031 89.890625 290.777344 87.816406 C 294.753906 81.089844 300.742188 76.972656 308.730469 75.386719 " fill-opacity="1" fill-rule="evenodd"/><path fill="#330000" d="M 298.527344 93.875 C 299.558594 109.414062 308.21875 120.925781 324.511719 128.488281 C 304.230469 127.046875 292.097656 116.492188 288.179688 96.832031 L 298.527344 93.875 " fill-opacity="1" fill-rule="evenodd"/><path fill="#77390d" d="M 368.742188 183.898438 C 369.15625 182.230469 370.027344 180.839844 371.347656 179.65625 C 372.5625 178.128906 373.988281 177.015625 375.519531 176.25 C 378.402344 174.582031 381.117188 174.410156 383.6875 175.695312 C 385.914062 176.773438 387.269531 178.789062 387.789062 181.777344 C 387.128906 179.96875 385.980469 178.71875 384.382812 178.023438 C 382.4375 177.121094 380.28125 177.085938 377.882812 177.953125 C 378.683594 178.371094 379.308594 179.066406 379.792969 180.003906 C 380.488281 181.5 380.59375 183.203125 380.074219 185.113281 C 379.550781 187.167969 378.578125 188.871094 377.082031 190.121094 C 375.484375 191.304688 373.886719 191.859375 372.355469 191.753906 C 370.792969 191.71875 369.679688 190.957031 369.019531 189.496094 C 368.253906 187.929688 368.148438 186.054688 368.742188 183.898438 " fill-opacity="1" fill-rule="evenodd"/><path fill="#3a210b" d="M 326.332031 146.304688 C 318.320312 143.65625 308.761719 142.109375 297.65625 141.628906 C 295.660156 136.402344 295.007812 131.929688 295.660156 128.25 C 307.316406 129.351562 317.390625 132.652344 325.851562 138.222656 L 326.332031 146.304688 " fill-opacity="1" fill-rule="evenodd"/><path fill="#000000" d="M 310.179688 152 C 313.820312 151.757812 317.019531 152.824219 319.800781 155.164062 C 322.550781 157.601562 324.03125 160.59375 324.269531 164.238281 C 324.511719 167.878906 323.410156 171.078125 321.003906 173.792969 C 318.597656 176.644531 315.574219 178.15625 311.929688 178.398438 C 308.320312 178.640625 305.125 177.503906 302.375 174.996094 C 299.59375 172.660156 298.078125 169.667969 297.839844 166.023438 C 297.597656 162.382812 298.730469 159.183594 301.171875 156.398438 C 303.542969 153.683594 306.535156 152.242188 310.179688 152 Z M 310.316406 153.753906 C 307.085938 153.960938 304.4375 155.230469 302.375 157.601562 C 300.210938 160.042969 299.25 162.863281 299.488281 166.023438 C 299.660156 169.1875 301 171.796875 303.441406 173.859375 C 305.847656 175.992188 308.667969 176.953125 311.863281 176.78125 C 315.023438 176.542969 317.636719 175.234375 319.734375 172.828125 C 321.867188 170.421875 322.828125 167.605469 322.65625 164.441406 C 322.414062 161.28125 321.074219 158.632812 318.667969 156.535156 C 316.261719 154.441406 313.480469 153.511719 310.316406 153.753906 " fill-opacity="1" fill-rule="evenodd"/><path fill="#ffffcc" d="M 310.386719 153.710938 C 313.546875 153.46875 316.332031 154.394531 318.734375 156.492188 C 321.140625 158.589844 322.480469 161.234375 322.722656 164.394531 C 322.894531 167.558594 321.933594 170.375 319.800781 172.78125 C 317.707031 175.1875 315.09375 176.492188 311.933594 176.730469 C 308.738281 176.9375 305.917969 175.941406 303.511719 173.84375 C 301.074219 171.75 299.734375 169.136719 299.527344 165.976562 C 299.320312 162.816406 300.285156 159.996094 302.449219 157.523438 C 304.511719 155.1875 307.15625 153.914062 310.386719 153.710938 " fill-opacity="1" fill-rule="evenodd"/><path fill="#3f0920" d="M 313.699219 163.328125 C 313.183594 163.050781 312.910156 162.707031 312.910156 162.332031 C 312.875 161.917969 313.082031 161.542969 313.492188 161.199219 C 313.871094 160.890625 314.351562 160.71875 314.96875 160.71875 C 315.585938 160.683594 316.136719 160.75 316.617188 160.992188 C 316.992188 161.265625 317.199219 161.644531 317.234375 162.054688 C 317.234375 162.433594 317.097656 162.777344 316.824219 163.121094 C 316.339844 163.394531 315.828125 163.53125 315.242188 163.53125 C 314.625 163.601562 314.109375 163.53125 313.699219 163.324219 " fill-opacity="1" fill-rule="evenodd"/><path stroke-linecap="butt" transform="matrix(0.343273, 0, 0, -0.343281, -5278.111171, 3929.499206)" fill="none" stroke-linejoin="miter" d="M 16289.701903 10971.094589 C 16290.896743 10970.502873 16292.398829 10970.298049 16294.19678 10970.502873 C 16295.903695 10970.502873 16297.405781 10970.901144 16298.805451 10971.697685 C 16299.602012 10972.69905 16300.000292 10973.700416 16300.000292 10974.804193 C 16299.897877 10975.999005 16299.294767 10977.102782 16298.202341 10977.899323 C 16296.802671 10978.604831 16295.19817 10978.798276 16293.400219 10978.695864 C 16291.602268 10978.695864 16290.202598 10978.195181 16289.098792 10977.296228 C 16287.903952 10976.294863 16287.300842 10975.202464 16287.403256 10973.996274 C 16287.403256 10972.903875 16288.199817 10971.902509 16289.701903 10971.094589 Z M 16289.701903 10971.094589 " stroke="#330000" stroke-width="1.204" stroke-opacity="1" stroke-miterlimit="10"/><g clip-path="url(#16874a9a45)"><g clip-path="url(#e95d951c16)"><path fill="url(#f356673cee)" d="M 296.488281 169.9375 L 306.59375 147.644531 L 328.496094 158.183594 L 318.390625 180.476562 Z M 296.488281 169.9375 " fill-rule="nonzero"/></g></g><path fill="#330033" d="M 318.042969 169.351562 C 316.804688 170.863281 315.191406 171.6875 313.164062 171.757812 C 311.171875 171.894531 309.386719 171.3125 307.84375 170.007812 C 306.332031 168.667969 305.507812 167.019531 305.300781 165.027344 C 305.09375 163 305.609375 161.214844 306.847656 159.667969 C 308.117188 158.191406 309.765625 157.402344 311.757812 157.265625 C 313.785156 157.160156 315.535156 157.746094 317.046875 159.015625 C 318.589844 160.390625 319.484375 162.105469 319.691406 164.132812 C 319.863281 166.089844 319.3125 167.84375 318.042969 169.355469 " fill-opacity="1" fill-rule="evenodd"/><path fill="#000000" d="M 316.433594 167.828125 C 315.472656 168.855469 314.234375 169.441406 312.757812 169.578125 C 311.214844 169.679688 309.875 169.269531 308.707031 168.308594 C 307.574219 167.414062 306.921875 166.246094 306.785156 164.773438 C 306.648438 163.363281 307.027344 162.09375 307.988281 160.960938 C 308.984375 159.898438 310.21875 159.347656 311.765625 159.246094 C 313.273438 159.105469 314.578125 159.519531 315.710938 160.445312 C 316.914062 161.40625 317.566406 162.574219 317.703125 163.980469 C 317.839844 165.457031 317.394531 166.730469 316.433594 167.828125 " fill-opacity="1" fill-rule="evenodd"/><path stroke-linecap="butt" transform="matrix(0.34331, 0, 0, -0.343318, -5278.111171, 3929.499206)" fill="none" stroke-linejoin="miter" d="M 16295.901885 10956.797772 C 16298.700923 10959.994967 16299.998038 10963.704169 16299.599801 10968.005022 C 16299.201564 10972.101074 16297.301404 10975.503071 16293.796917 10978.30204 C 16290.497238 10980.998607 16286.696918 10982.204666 16282.304932 10981.795061 C 16277.799164 10981.499235 16274.203651 10979.894948 16271.30221 10976.800154 C 16268.503172 10973.500558 16267.399486 10969.802734 16267.797723 10965.695305 C 16268.19596 10961.405829 16270.09612 10958.003831 16273.395799 10955.398287 C 16276.797882 10952.599319 16280.700605 10951.404638 16285.194996 10951.700464 C 16289.495956 10952.098691 16293.102847 10953.805379 16295.901885 10956.797772 Z M 16295.901885 10956.797772 " stroke="#330000" stroke-width="0.482" stroke-opacity="1" stroke-miterlimit="10"/><path fill="#ffffff" d="M 304.863281 158.316406 C 305.511719 158.175781 306.234375 158.316406 307.023438 158.726562 C 307.742188 159.101562 308.289062 159.617188 308.667969 160.234375 C 309.042969 160.886719 309.148438 161.503906 308.941406 162.050781 C 308.699219 162.566406 308.222656 162.875 307.535156 162.976562 C 306.816406 163.078125 306.097656 162.941406 305.34375 162.566406 C 304.585938 162.121094 304.003906 161.605469 303.628906 160.921875 C 303.25 160.304688 303.183594 159.71875 303.421875 159.171875 C 303.664062 158.625 304.140625 158.347656 304.863281 158.316406 " fill-opacity="1" fill-rule="evenodd"/><path fill="#ffffff" d="M 305.640625 166.570312 C 305.402344 166.363281 305.265625 166.125 305.230469 165.851562 C 305.230469 165.609375 305.300781 165.402344 305.503906 165.199219 C 305.746094 164.992188 306.050781 164.855469 306.394531 164.855469 C 306.738281 164.855469 307.046875 164.925781 307.320312 165.0625 C 307.5625 165.265625 307.699219 165.472656 307.699219 165.710938 C 307.730469 165.988281 307.664062 166.226562 307.492188 166.433594 C 307.183594 166.671875 306.875 166.773438 306.566406 166.773438 C 306.191406 166.773438 305.847656 166.707031 305.640625 166.570312 " fill-opacity="1" fill-rule="evenodd"/><path fill="#ffffff" d="M 317.183594 162.039062 C 316.804688 161.695312 316.597656 161.28125 316.566406 160.765625 C 316.496094 160.285156 316.632812 159.875 316.910156 159.496094 C 317.183594 159.117188 317.59375 158.914062 318.042969 158.914062 C 318.488281 158.878906 318.867188 158.980469 319.175781 159.289062 C 319.554688 159.667969 319.792969 160.078125 319.828125 160.5625 C 319.863281 161.074219 319.757812 161.488281 319.449219 161.832031 C 319.175781 162.242188 318.832031 162.484375 318.421875 162.519531 C 317.9375 162.519531 317.527344 162.382812 317.183594 162.039062 " fill-opacity="1" fill-rule="evenodd"/><path fill="#b22424" d="M 360.210938 287.863281 C 352.320312 301.738281 346.921875 314.441406 343.980469 325.960938 C 342.632812 323.988281 342.007812 320.183594 342.21875 314.542969 C 342.355469 314.09375 342.527344 313.644531 342.703125 313.261719 C 346.820312 301.949219 353.289062 289.28125 362.113281 275.234375 C 361.871094 279.457031 361.25 283.640625 360.210938 287.863281 " fill-opacity="1" fill-rule="evenodd"/><path fill="#ff3333" d="M 426.199219 230.492188 C 417.625 235.671875 407.582031 243.898438 396.175781 255.132812 C 372.691406 278.683594 360.722656 289.601562 360.199219 287.851562 C 361.214844 283.652344 361.878906 279.453125 362.089844 275.253906 C 362.296875 270.53125 361.914062 265.628906 360.96875 260.589844 C 360.96875 260.207031 360.933594 259.855469 360.828125 259.539062 C 360.128906 255.027344 361.667969 251.632812 365.519531 249.320312 C 377.347656 241.761719 389.664062 235.324219 402.402344 230.003906 C 410.800781 226.714844 416.855469 223.496094 420.53125 220.273438 C 423.472656 221.289062 425.359375 224.683594 426.199219 230.492188 " fill-opacity="1" fill-rule="evenodd"/><path fill="#d92b2b" d="M 426.261719 230.441406 C 432.828125 242.695312 439.007812 258.808594 444.800781 278.824219 C 424.753906 337.386719 396.910156 384.226562 361.308594 419.363281 C 357.058594 395.320312 351.265625 364.175781 344.035156 325.941406 C 346.949219 314.425781 352.355469 301.714844 360.21875 287.8125 C 360.746094 289.566406 372.753906 278.683594 396.207031 255.089844 C 407.652344 243.851562 417.660156 235.636719 426.261719 230.441406 " fill-opacity="1" fill-rule="evenodd"/><path fill="#f89865" d="M 366.164062 347.785156 L 403.355469 360.230469 C 397.746094 373.335938 392.410156 385.082031 387.355469 395.503906 C 376.027344 399.722656 363.828125 395.957031 350.722656 384.246094 C 357.589844 370.234375 362.714844 358.066406 366.164062 347.785156 " fill-opacity="1" fill-rule="evenodd"/><path fill="#f89865" d="M 392.640625 384.460938 C 389.894531 391.070312 387.003906 397.125 383.976562 402.65625 C 380.324219 409.542969 376.21875 416.015625 371.730469 422 C 357.957031 441.414062 343.796875 458.707031 329.253906 473.914062 C 316.902344 479.625 308.136719 474.570312 302.8125 458.753906 C 326.332031 424.328125 342.023438 399.246094 349.847656 383.449219 C 351.832031 380.144531 353.78125 376.910156 355.660156 373.777344 C 369.921875 371.273438 382.238281 374.824219 392.640625 384.460938 " fill-opacity="1" fill-rule="evenodd"/><path fill="#ff3333" d="M 406.253906 258.476562 C 413.363281 257.566406 419.457031 259.105469 424.464844 263.0625 C 428.386719 267.894531 429.433594 275.878906 427.648438 287.082031 C 421.554688 314.675781 413.011719 341.953125 402.019531 368.953125 C 385.980469 369.863281 372.148438 365.34375 360.488281 355.367188 C 372.148438 330.398438 381.742188 304.382812 389.308594 277.382812 C 392.25 267.089844 397.886719 260.785156 406.253906 258.476562 " fill-opacity="1" fill-rule="evenodd"/><path fill="#f89865" d="M 291.8125 498.507812 L 284.140625 513.664062 L 283.519531 516.496094 L 284.140625 513.664062 Z M 274.953125 510.96875 L 275.019531 508.140625 L 283.453125 490.714844 L 275.019531 508.140625 L 274.953125 510.96875 L 272.75 517.769531 C 270.71875 519.1875 268.515625 519.328125 266.175781 518.195312 L 268.65625 498.292969 L 277.15625 479.042969 C 281.765625 474.054688 286.6875 469.613281 291.882812 465.726562 L 311.703125 451.273438 C 319.757812 456.640625 325.882812 462.9375 330.046875 470.164062 C 331.183594 476.460938 328.152344 483.171875 320.996094 490.359375 C 314.527344 496.308594 309.949219 501.714844 307.335938 506.582031 L 301.484375 517.980469 L 299.453125 526.835938 C 299.316406 527.023438 299.246094 527.167969 299.246094 527.261719 C 297.21875 530.851562 294.53125 531.488281 291.160156 529.175781 L 292.882812 517.699219 L 293.15625 516.140625 L 299.007812 503.746094 L 293.15625 516.140625 L 292.882812 517.699219 L 290.4375 526.550781 C 288.097656 530.476562 285.308594 531.0625 282.179688 528.324219 L 283.519531 516.496094 L 281.523438 524.78125 C 278.945312 526.953125 276.464844 527.214844 274.09375 525.558594 L 274.953125 510.96875 " fill-opacity="1" fill-rule="evenodd"/><path stroke-linecap="butt" transform="matrix(0.342156, 0, 0, -0.342165, -5278.111171, 3929.499206)" fill="none" stroke-linejoin="miter" d="M 16278.902902 10027.300998 L 16256.594941 9983.051513 L 16254.699792 9974.763296 M 16300.000708 10012.003189 L 16282.79595 9975.802178 L 16281.99679 9971.247083 M 16229.594774 9990.917327 L 16229.903021 9999.194127 L 16254.494294 10050.099301 " stroke="#954e40" stroke-width="0.483" stroke-opacity="1" stroke-miterlimit="10"/></svg>