<svg xmlns="http://www.w3.org/2000/svg" xmlns:xlink="http://www.w3.org/1999/xlink" width="1080" zoomAndPan="magnify" viewBox="0 0 810 809.999993" height="1080" preserveAspectRatio="xMidYMid meet" version="1.0"><defs><clipPath id="b25729b066"><path d="M 310 149 L 329 149 L 329 168 L 310 168 Z M 310 149 " clip-rule="nonzero"/></clipPath><clipPath id="90c6565ee9"><path d="M 323.996094 151.5625 C 326.117188 152.933594 327.4375 154.851562 327.957031 157.3125 C 328.523438 159.71875 328.136719 161.945312 326.765625 164.042969 C 325.445312 166.0625 323.554688 167.304688 321.09375 167.796875 C 318.6875 168.261719 316.410156 167.796875 314.289062 166.371094 C 312.214844 164.949219 310.894531 163.03125 310.328125 160.625 C 309.808594 158.164062 310.195312 155.9375 311.515625 153.894531 C 312.890625 151.875 314.777344 150.632812 317.1875 150.140625 C 319.644531 149.671875 321.898438 150.140625 323.996094 151.5625 " clip-rule="evenodd"/></clipPath><radialGradient gradientTransform="matrix(0.957141, 0.326235, 0.297659, -0.942922, 2697.82098, -1972.892483)" gradientUnits="userSpaceOnUse" r="19.461158" cx="0" id="2a73f5c73e" cy="0" fx="0" fy="0"><stop stop-opacity="1" stop-color="rgb(57.446289%, 2.047729%, 2.165222%)" offset="0"/><stop stop-opacity="1" stop-color="rgb(57.215881%, 2.120972%, 2.415466%)" offset="0.0078125"/><stop stop-opacity="1" stop-color="rgb(57.063293%, 2.1698%, 2.581787%)" offset="0.0117188"/><stop stop-opacity="1" stop-color="rgb(56.90918%, 2.218628%, 2.749634%)" offset="0.015625"/><stop stop-opacity="1" stop-color="rgb(56.756592%, 2.267456%, 2.915955%)" offset="0.0195312"/><stop stop-opacity="1" stop-color="rgb(56.604004%, 2.316284%, 3.082275%)" offset="0.0234375"/><stop stop-opacity="1" stop-color="rgb(56.44989%, 2.365112%, 3.250122%)" offset="0.0273438"/><stop stop-opacity="1" stop-color="rgb(56.297302%, 2.41394%, 3.416443%)" offset="0.03125"/><stop stop-opacity="1" stop-color="rgb(56.144714%, 2.462769%, 3.582764%)" offset="0.0351562"/><stop stop-opacity="1" stop-color="rgb(55.990601%, 2.511597%, 3.75061%)" offset="0.0390625"/><stop stop-opacity="1" stop-color="rgb(55.838013%, 2.560425%, 3.916931%)" offset="0.0429688"/><stop stop-opacity="1" stop-color="rgb(55.685425%, 2.609253%, 4.083252%)" offset="0.046875"/><stop stop-opacity="1" stop-color="rgb(55.531311%, 2.658081%, 4.251099%)" offset="0.0507812"/><stop stop-opacity="1" stop-color="rgb(55.378723%, 2.706909%, 4.417419%)" offset="0.0546875"/><stop stop-opacity="1" stop-color="rgb(55.226135%, 2.755737%, 4.58374%)" offset="0.0585938"/><stop stop-opacity="1" stop-color="rgb(55.072021%, 2.804565%, 4.751587%)" offset="0.0625"/><stop stop-opacity="1" stop-color="rgb(54.919434%, 2.853394%, 4.917908%)" offset="0.0664062"/><stop stop-opacity="1" stop-color="rgb(54.766846%, 2.902222%, 5.084229%)" offset="0.0703125"/><stop stop-opacity="1" stop-color="rgb(54.612732%, 2.95105%, 5.250549%)" offset="0.0742188"/><stop stop-opacity="1" stop-color="rgb(54.460144%, 2.999878%, 5.418396%)" offset="0.078125"/><stop stop-opacity="1" stop-color="rgb(54.30603%, 3.048706%, 5.584717%)" offset="0.0820312"/><stop stop-opacity="1" stop-color="rgb(54.153442%, 3.097534%, 5.751038%)" offset="0.0859375"/><stop stop-opacity="1" stop-color="rgb(54.000854%, 3.146362%, 5.918884%)" offset="0.0898438"/><stop stop-opacity="1" stop-color="rgb(53.846741%, 3.19519%, 6.085205%)" offset="0.09375"/><stop stop-opacity="1" stop-color="rgb(53.694153%, 3.244019%, 6.251526%)" offset="0.0976562"/><stop stop-opacity="1" stop-color="rgb(53.541565%, 3.292847%, 6.419373%)" offset="0.101562"/><stop stop-opacity="1" stop-color="rgb(53.387451%, 3.341675%, 6.585693%)" offset="0.105469"/><stop stop-opacity="1" stop-color="rgb(53.234863%, 3.390503%, 6.752014%)" offset="0.109375"/><stop stop-opacity="1" stop-color="rgb(53.082275%, 3.439331%, 6.919861%)" offset="0.113281"/><stop stop-opacity="1" stop-color="rgb(52.928162%, 3.488159%, 7.086182%)" offset="0.117188"/><stop stop-opacity="1" stop-color="rgb(52.775574%, 3.536987%, 7.252502%)" offset="0.121094"/><stop stop-opacity="1" stop-color="rgb(52.622986%, 3.585815%, 7.420349%)" offset="0.125"/><stop stop-opacity="1" stop-color="rgb(52.468872%, 3.634644%, 7.58667%)" offset="0.128906"/><stop stop-opacity="1" stop-color="rgb(52.316284%, 3.683472%, 7.752991%)" offset="0.132812"/><stop stop-opacity="1" stop-color="rgb(52.163696%, 3.7323%, 7.919312%)" offset="0.136719"/><stop stop-opacity="1" stop-color="rgb(52.009583%, 3.781128%, 8.087158%)" offset="0.140625"/><stop stop-opacity="1" stop-color="rgb(51.856995%, 3.829956%, 8.253479%)" offset="0.144531"/><stop stop-opacity="1" stop-color="rgb(51.704407%, 3.878784%, 8.4198%)" offset="0.148438"/><stop stop-opacity="1" stop-color="rgb(51.550293%, 3.927612%, 8.587646%)" offset="0.152344"/><stop stop-opacity="1" stop-color="rgb(51.397705%, 3.97644%, 8.753967%)" offset="0.15625"/><stop stop-opacity="1" stop-color="rgb(51.243591%, 4.025269%, 8.920288%)" offset="0.160156"/><stop stop-opacity="1" stop-color="rgb(51.091003%, 4.074097%, 9.088135%)" offset="0.164062"/><stop stop-opacity="1" stop-color="rgb(50.938416%, 4.122925%, 9.254456%)" offset="0.167969"/><stop stop-opacity="1" stop-color="rgb(50.784302%, 4.171753%, 9.420776%)" offset="0.171875"/><stop stop-opacity="1" stop-color="rgb(50.631714%, 4.220581%, 9.588623%)" offset="0.175781"/><stop stop-opacity="1" stop-color="rgb(50.479126%, 4.269409%, 9.754944%)" offset="0.179688"/><stop stop-opacity="1" stop-color="rgb(50.325012%, 4.318237%, 9.921265%)" offset="0.183594"/><stop stop-opacity="1" stop-color="rgb(50.172424%, 4.367065%, 10.089111%)" offset="0.1875"/><stop stop-opacity="1" stop-color="rgb(50.019836%, 4.415894%, 10.255432%)" offset="0.191406"/><stop stop-opacity="1" stop-color="rgb(49.865723%, 4.464722%, 10.421753%)" offset="0.195312"/><stop stop-opacity="1" stop-color="rgb(49.713135%, 4.51355%, 10.588074%)" offset="0.199219"/><stop stop-opacity="1" stop-color="rgb(49.560547%, 4.562378%, 10.75592%)" offset="0.203125"/><stop stop-opacity="1" stop-color="rgb(49.406433%, 4.611206%, 10.922241%)" offset="0.207031"/><stop stop-opacity="1" stop-color="rgb(49.253845%, 4.660034%, 11.088562%)" offset="0.210938"/><stop stop-opacity="1" stop-color="rgb(49.101257%, 4.708862%, 11.256409%)" offset="0.214844"/><stop stop-opacity="1" stop-color="rgb(48.947144%, 4.75769%, 11.422729%)" offset="0.21875"/><stop stop-opacity="1" stop-color="rgb(48.794556%, 4.806519%, 11.58905%)" offset="0.222656"/><stop stop-opacity="1" stop-color="rgb(48.640442%, 4.855347%, 11.756897%)" offset="0.226562"/><stop stop-opacity="1" stop-color="rgb(48.487854%, 4.904175%, 11.923218%)" offset="0.230469"/><stop stop-opacity="1" stop-color="rgb(48.335266%, 4.953003%, 12.089539%)" offset="0.234375"/><stop stop-opacity="1" stop-color="rgb(48.181152%, 5.001831%, 12.257385%)" offset="0.238281"/><stop stop-opacity="1" stop-color="rgb(48.028564%, 5.050659%, 12.423706%)" offset="0.242188"/><stop stop-opacity="1" stop-color="rgb(47.875977%, 5.099487%, 12.590027%)" offset="0.246094"/><stop stop-opacity="1" stop-color="rgb(47.721863%, 5.148315%, 12.757874%)" offset="0.25"/><stop stop-opacity="1" stop-color="rgb(47.492981%, 5.221558%, 13.008118%)" offset="0.253906"/><stop stop-opacity="1" stop-color="rgb(47.186279%, 5.319214%, 13.340759%)" offset="0.261719"/><stop stop-opacity="1" stop-color="rgb(46.879578%, 5.41687%, 13.674927%)" offset="0.269531"/><stop stop-opacity="1" stop-color="rgb(46.574402%, 5.514526%, 14.007568%)" offset="0.277344"/><stop stop-opacity="1" stop-color="rgb(46.2677%, 5.612183%, 14.341736%)" offset="0.285156"/><stop stop-opacity="1" stop-color="rgb(45.960999%, 5.709839%, 14.675903%)" offset="0.292969"/><stop stop-opacity="1" stop-color="rgb(45.654297%, 5.807495%, 15.008545%)" offset="0.300781"/><stop stop-opacity="1" stop-color="rgb(45.349121%, 5.905151%, 15.342712%)" offset="0.308594"/><stop stop-opacity="1" stop-color="rgb(45.042419%, 6.002808%, 15.675354%)" offset="0.316406"/><stop stop-opacity="1" stop-color="rgb(44.735718%, 6.100464%, 16.009521%)" offset="0.324219"/><stop stop-opacity="1" stop-color="rgb(44.430542%, 6.19812%, 16.343689%)" offset="0.332031"/><stop stop-opacity="1" stop-color="rgb(44.12384%, 6.295776%, 16.676331%)" offset="0.339844"/><stop stop-opacity="1" stop-color="rgb(43.817139%, 6.393433%, 17.010498%)" offset="0.347656"/><stop stop-opacity="1" stop-color="rgb(43.511963%, 6.491089%, 17.344666%)" offset="0.355469"/><stop stop-opacity="1" stop-color="rgb(43.205261%, 6.588745%, 17.677307%)" offset="0.363281"/><stop stop-opacity="1" stop-color="rgb(42.89856%, 6.686401%, 18.011475%)" offset="0.371094"/><stop stop-opacity="1" stop-color="rgb(42.591858%, 6.784058%, 18.344116%)" offset="0.378906"/><stop stop-opacity="1" stop-color="rgb(42.286682%, 6.881714%, 18.678284%)" offset="0.386719"/><stop stop-opacity="1" stop-color="rgb(41.97998%, 6.97937%, 19.012451%)" offset="0.394531"/><stop stop-opacity="1" stop-color="rgb(41.673279%, 7.077026%, 19.345093%)" offset="0.402344"/><stop stop-opacity="1" stop-color="rgb(41.368103%, 7.174683%, 19.67926%)" offset="0.410156"/><stop stop-opacity="1" stop-color="rgb(41.061401%, 7.272339%, 20.013428%)" offset="0.417969"/><stop stop-opacity="1" stop-color="rgb(40.7547%, 7.369995%, 20.346069%)" offset="0.425781"/><stop stop-opacity="1" stop-color="rgb(40.447998%, 7.467651%, 20.680237%)" offset="0.433594"/><stop stop-opacity="1" stop-color="rgb(40.142822%, 7.565308%, 21.012878%)" offset="0.441406"/><stop stop-opacity="1" stop-color="rgb(39.836121%, 7.662964%, 21.347046%)" offset="0.449219"/><stop stop-opacity="1" stop-color="rgb(39.529419%, 7.76062%, 21.681213%)" offset="0.457031"/><stop stop-opacity="1" stop-color="rgb(39.224243%, 7.858276%, 22.013855%)" offset="0.464844"/><stop stop-opacity="1" stop-color="rgb(38.917542%, 7.955933%, 22.348022%)" offset="0.472656"/><stop stop-opacity="1" stop-color="rgb(38.61084%, 8.053589%, 22.68219%)" offset="0.480469"/><stop stop-opacity="1" stop-color="rgb(38.305664%, 8.151245%, 23.014832%)" offset="0.488281"/><stop stop-opacity="1" stop-color="rgb(37.998962%, 8.248901%, 23.348999%)" offset="0.496094"/><stop stop-opacity="1" stop-color="rgb(37.768555%, 8.322144%, 23.599243%)" offset="0.503906"/><stop stop-opacity="1" stop-color="rgb(37.615967%, 8.370972%, 23.765564%)" offset="0.507812"/><stop stop-opacity="1" stop-color="rgb(37.463379%, 8.4198%, 23.931885%)" offset="0.511719"/><stop stop-opacity="1" stop-color="rgb(37.309265%, 8.468628%, 24.099731%)" offset="0.515625"/><stop stop-opacity="1" stop-color="rgb(37.156677%, 8.517456%, 24.266052%)" offset="0.519531"/><stop stop-opacity="1" stop-color="rgb(37.004089%, 8.566284%, 24.432373%)" offset="0.523438"/><stop stop-opacity="1" stop-color="rgb(36.849976%, 8.615112%, 24.60022%)" offset="0.527344"/><stop stop-opacity="1" stop-color="rgb(36.697388%, 8.66394%, 24.766541%)" offset="0.53125"/><stop stop-opacity="1" stop-color="rgb(36.5448%, 8.712769%, 24.932861%)" offset="0.535156"/><stop stop-opacity="1" stop-color="rgb(36.390686%, 8.761597%, 25.100708%)" offset="0.539062"/><stop stop-opacity="1" stop-color="rgb(36.238098%, 8.810425%, 25.267029%)" offset="0.542969"/><stop stop-opacity="1" stop-color="rgb(36.08551%, 8.859253%, 25.43335%)" offset="0.546875"/><stop stop-opacity="1" stop-color="rgb(35.931396%, 8.908081%, 25.601196%)" offset="0.550781"/><stop stop-opacity="1" stop-color="rgb(35.778809%, 8.956909%, 25.767517%)" offset="0.554688"/><stop stop-opacity="1" stop-color="rgb(35.626221%, 9.005737%, 25.933838%)" offset="0.558594"/><stop stop-opacity="1" stop-color="rgb(35.472107%, 9.054565%, 26.100159%)" offset="0.5625"/><stop stop-opacity="1" stop-color="rgb(35.319519%, 9.103394%, 26.268005%)" offset="0.566406"/><stop stop-opacity="1" stop-color="rgb(35.165405%, 9.152222%, 26.434326%)" offset="0.570312"/><stop stop-opacity="1" stop-color="rgb(35.012817%, 9.20105%, 26.600647%)" offset="0.574219"/><stop stop-opacity="1" stop-color="rgb(34.860229%, 9.249878%, 26.768494%)" offset="0.578125"/><stop stop-opacity="1" stop-color="rgb(34.706116%, 9.298706%, 26.934814%)" offset="0.582031"/><stop stop-opacity="1" stop-color="rgb(34.553528%, 9.347534%, 27.101135%)" offset="0.585938"/><stop stop-opacity="1" stop-color="rgb(34.40094%, 9.396362%, 27.268982%)" offset="0.589844"/><stop stop-opacity="1" stop-color="rgb(34.246826%, 9.44519%, 27.435303%)" offset="0.59375"/><stop stop-opacity="1" stop-color="rgb(34.094238%, 9.494019%, 27.601624%)" offset="0.597656"/><stop stop-opacity="1" stop-color="rgb(33.94165%, 9.542847%, 27.76947%)" offset="0.601562"/><stop stop-opacity="1" stop-color="rgb(33.787537%, 9.591675%, 27.935791%)" offset="0.605469"/><stop stop-opacity="1" stop-color="rgb(33.634949%, 9.640503%, 28.102112%)" offset="0.609375"/><stop stop-opacity="1" stop-color="rgb(33.482361%, 9.689331%, 28.269958%)" offset="0.613281"/><stop stop-opacity="1" stop-color="rgb(33.328247%, 9.738159%, 28.436279%)" offset="0.617188"/><stop stop-opacity="1" stop-color="rgb(33.175659%, 9.786987%, 28.6026%)" offset="0.621094"/><stop stop-opacity="1" stop-color="rgb(33.023071%, 9.835815%, 28.768921%)" offset="0.625"/><stop stop-opacity="1" stop-color="rgb(32.792664%, 9.909058%, 29.019165%)" offset="0.628906"/><stop stop-opacity="1" stop-color="rgb(32.485962%, 10.006714%, 29.353333%)" offset="0.636719"/><stop stop-opacity="1" stop-color="rgb(32.17926%, 10.10437%, 29.6875%)" offset="0.644531"/><stop stop-opacity="1" stop-color="rgb(31.874084%, 10.202026%, 30.020142%)" offset="0.652344"/><stop stop-opacity="1" stop-color="rgb(31.567383%, 10.299683%, 30.354309%)" offset="0.660156"/><stop stop-opacity="1" stop-color="rgb(31.260681%, 10.397339%, 30.688477%)" offset="0.667969"/><stop stop-opacity="1" stop-color="rgb(30.955505%, 10.494995%, 31.021118%)" offset="0.675781"/><stop stop-opacity="1" stop-color="rgb(30.648804%, 10.592651%, 31.355286%)" offset="0.683594"/><stop stop-opacity="1" stop-color="rgb(30.342102%, 10.690308%, 31.687927%)" offset="0.691406"/><stop stop-opacity="1" stop-color="rgb(30.036926%, 10.787964%, 32.022095%)" offset="0.699219"/><stop stop-opacity="1" stop-color="rgb(29.730225%, 10.88562%, 32.356262%)" offset="0.707031"/><stop stop-opacity="1" stop-color="rgb(29.423523%, 10.983276%, 32.688904%)" offset="0.714844"/><stop stop-opacity="1" stop-color="rgb(29.116821%, 11.080933%, 33.023071%)" offset="0.722656"/><stop stop-opacity="1" stop-color="rgb(28.811646%, 11.178589%, 33.357239%)" offset="0.730469"/><stop stop-opacity="1" stop-color="rgb(28.504944%, 11.276245%, 33.68988%)" offset="0.738281"/><stop stop-opacity="1" stop-color="rgb(28.198242%, 11.373901%, 34.024048%)" offset="0.746094"/><stop stop-opacity="1" stop-color="rgb(27.96936%, 11.447144%, 34.274292%)" offset="0.753906"/><stop stop-opacity="1" stop-color="rgb(27.816772%, 11.495972%, 34.440613%)" offset="0.757812"/><stop stop-opacity="1" stop-color="rgb(27.662659%, 11.5448%, 34.606934%)" offset="0.761719"/><stop stop-opacity="1" stop-color="rgb(27.510071%, 11.593628%, 34.77478%)" offset="0.765625"/><stop stop-opacity="1" stop-color="rgb(27.357483%, 11.642456%, 34.941101%)" offset="0.769531"/><stop stop-opacity="1" stop-color="rgb(27.203369%, 11.691284%, 35.107422%)" offset="0.773438"/><stop stop-opacity="1" stop-color="rgb(27.050781%, 11.740112%, 35.275269%)" offset="0.777344"/><stop stop-opacity="1" stop-color="rgb(26.896667%, 11.78894%, 35.441589%)" offset="0.78125"/><stop stop-opacity="1" stop-color="rgb(26.74408%, 11.837769%, 35.60791%)" offset="0.785156"/><stop stop-opacity="1" stop-color="rgb(26.591492%, 11.886597%, 35.775757%)" offset="0.789062"/><stop stop-opacity="1" stop-color="rgb(26.437378%, 11.935425%, 35.942078%)" offset="0.792969"/><stop stop-opacity="1" stop-color="rgb(26.28479%, 11.984253%, 36.108398%)" offset="0.796875"/><stop stop-opacity="1" stop-color="rgb(26.132202%, 12.033081%, 36.274719%)" offset="0.800781"/><stop stop-opacity="1" stop-color="rgb(25.978088%, 12.081909%, 36.442566%)" offset="0.804688"/><stop stop-opacity="1" stop-color="rgb(25.8255%, 12.130737%, 36.608887%)" offset="0.808594"/><stop stop-opacity="1" stop-color="rgb(25.672913%, 12.179565%, 36.775208%)" offset="0.8125"/><stop stop-opacity="1" stop-color="rgb(25.442505%, 12.252808%, 37.025452%)" offset="0.816406"/><stop stop-opacity="1" stop-color="rgb(25.135803%, 12.350464%, 37.359619%)" offset="0.824219"/><stop stop-opacity="1" stop-color="rgb(24.830627%, 12.44812%, 37.693787%)" offset="0.832031"/><stop stop-opacity="1" stop-color="rgb(24.523926%, 12.545776%, 38.026428%)" offset="0.839844"/><stop stop-opacity="1" stop-color="rgb(24.217224%, 12.643433%, 38.360596%)" offset="0.847656"/><stop stop-opacity="1" stop-color="rgb(23.910522%, 12.741089%, 38.694763%)" offset="0.855469"/><stop stop-opacity="1" stop-color="rgb(23.605347%, 12.838745%, 39.027405%)" offset="0.863281"/><stop stop-opacity="1" stop-color="rgb(23.298645%, 12.936401%, 39.361572%)" offset="0.871094"/><stop stop-opacity="1" stop-color="rgb(23.069763%, 13.009644%, 39.611816%)" offset="0.878906"/><stop stop-opacity="1" stop-color="rgb(22.915649%, 13.058472%, 39.778137%)" offset="0.882812"/><stop stop-opacity="1" stop-color="rgb(22.763062%, 13.1073%, 39.944458%)" offset="0.886719"/><stop stop-opacity="1" stop-color="rgb(22.610474%, 13.156128%, 40.112305%)" offset="0.890625"/><stop stop-opacity="1" stop-color="rgb(22.45636%, 13.204956%, 40.278625%)" offset="0.894531"/><stop stop-opacity="1" stop-color="rgb(22.303772%, 13.253784%, 40.444946%)" offset="0.898438"/><stop stop-opacity="1" stop-color="rgb(22.151184%, 13.302612%, 40.612793%)" offset="0.902344"/><stop stop-opacity="1" stop-color="rgb(21.99707%, 13.35144%, 40.779114%)" offset="0.90625"/><stop stop-opacity="1" stop-color="rgb(21.768188%, 13.424683%, 41.029358%)" offset="0.910156"/><stop stop-opacity="1" stop-color="rgb(21.461487%, 13.522339%, 41.363525%)" offset="0.917969"/><stop stop-opacity="1" stop-color="rgb(21.154785%, 13.619995%, 41.696167%)" offset="0.925781"/><stop stop-opacity="1" stop-color="rgb(20.848083%, 13.717651%, 42.030334%)" offset="0.933594"/><stop stop-opacity="1" stop-color="rgb(20.619202%, 13.790894%, 42.280579%)" offset="0.941406"/><stop stop-opacity="1" stop-color="rgb(20.466614%, 13.839722%, 42.446899%)" offset="0.945312"/><stop stop-opacity="1" stop-color="rgb(20.3125%, 13.88855%, 42.61322%)" offset="0.949219"/><stop stop-opacity="1" stop-color="rgb(20.159912%, 13.937378%, 42.781067%)" offset="0.953125"/><stop stop-opacity="1" stop-color="rgb(19.929504%, 14.01062%, 43.031311%)" offset="0.957031"/><stop stop-opacity="1" stop-color="rgb(19.624329%, 14.108276%, 43.363953%)" offset="0.964844"/><stop stop-opacity="1" stop-color="rgb(19.393921%, 14.181519%, 43.614197%)" offset="0.972656"/><stop stop-opacity="1" stop-color="rgb(19.241333%, 14.230347%, 43.782043%)" offset="0.976562"/><stop stop-opacity="1" stop-color="rgb(19.010925%, 14.303589%, 44.032288%)" offset="0.980469"/><stop stop-opacity="1" stop-color="rgb(18.782043%, 14.376831%, 44.281006%)" offset="0.988281"/><stop stop-opacity="1" stop-color="rgb(18.551636%, 14.450073%, 44.53125%)" offset="0.992188"/><stop stop-opacity="1" stop-color="rgb(18.399048%, 14.498901%, 44.699097%)" offset="1"/></radialGradient></defs><rect x="-81" width="972" fill="#697a7a" y="-80.999999" height="971.999992" fill-opacity="1"/><path fill="#0000ff" d="M 321.332031 179.84375 L 321.410156 179.84375 L 321.71875 180.257812 L 321.773438 180.410156 L 321.980469 180.980469 L 322.054688 181.808594 L 321.980469 181.808594 L 321.851562 180.902344 L 321.851562 180.746094 L 321.71875 180.617188 L 321.617188 180.464844 C 321.566406 180.335938 321.511719 180.230469 321.410156 180.179688 L 321.28125 179.84375 L 321.203125 179.84375 L 321.203125 179.6875 L 321.332031 179.84375 " fill-opacity="1" fill-rule="evenodd"/><path fill="#f89865" d="M 427.832031 326.035156 C 428.574219 340.242188 429.183594 353.230469 429.609375 364.972656 C 421.179688 373.617188 408.535156 375.65625 391.648438 371.070312 C 391.464844 355.484375 390.589844 342.390625 389.023438 331.761719 L 427.832031 326.035156 " fill-opacity="1" fill-rule="evenodd"/><path fill="#f89865" d="M 391.375 359.242188 C 402.90625 350.863281 415.496094 348.582031 429.121094 352.347656 C 429.652344 359.480469 429.8125 366.238281 429.625 372.628906 C 429.625 380.261719 428.855469 387.789062 427.371094 395.214844 C 423.898438 418.726562 419.046875 440.519531 412.765625 460.585938 C 404.601562 471.292969 394.476562 470.765625 382.386719 458.96875 C 388.007812 417.640625 390.738281 388.214844 390.605469 370.691406 C 390.84375 366.980469 391.109375 363.136719 391.375 359.242188 " fill-opacity="1" fill-rule="evenodd"/><path fill="#b22424" d="M 384.535156 234.328125 C 390.367188 230.058594 396.386719 228.628906 402.589844 230.007812 C 408.34375 232.605469 412.902344 239.3125 416.269531 250.101562 C 423.296875 277.355469 427.960938 305.539062 430.214844 334.675781 L 387.292969 340.984375 C 386.390625 313.546875 383.238281 286.105469 377.855469 258.613281 C 375.789062 248.328125 378.015625 240.214844 384.535156 234.328125 " fill-opacity="1" fill-rule="evenodd"/><path fill="#f89865" d="M 399.167969 497.890625 C 396.257812 497.65625 393.429688 497.179688 390.679688 496.464844 C 393.429688 497.179688 396.257812 497.65625 399.167969 497.890625 Z M 399.667969 450.015625 C 400.621094 450.808594 401.492188 451.894531 402.3125 453.269531 C 404.082031 456.707031 404.242188 460.566406 402.710938 464.820312 C 400.992188 469.921875 400.328125 473.4375 400.753906 475.449219 C 401.785156 480.207031 402.363281 483.195312 402.445312 484.4375 C 402.3125 487.980469 400.621094 490.359375 397.421875 491.574219 C 394.726562 492.101562 392.609375 490.886719 391.050781 487.898438 C 390.574219 486.949219 390.019531 485.070312 389.414062 482.242188 C 388.855469 479.253906 388.539062 477.695312 388.488281 477.5625 L 386.160156 474.445312 C 385.261719 472.75 384.652344 470.902344 384.390625 468.917969 C 384.652344 470.902344 385.261719 472.75 386.160156 474.445312 L 388.488281 477.5625 C 388.539062 477.695312 388.855469 479.253906 389.414062 482.242188 C 390.019531 485.070312 390.574219 486.949219 391.050781 487.898438 C 392.609375 490.886719 394.726562 492.101562 397.421875 491.574219 C 400.621094 490.359375 402.3125 487.980469 402.445312 484.4375 C 402.367188 483.195312 401.785156 480.207031 400.753906 475.449219 C 400.328125 473.441406 400.992188 469.921875 402.710938 464.820312 C 404.242188 460.566406 404.082031 456.707031 402.3125 453.269531 C 401.492188 451.894531 400.621094 450.808594 399.667969 450.015625 Z M 383.753906 514.601562 C 381.164062 508.175781 380 501.144531 380.34375 493.503906 C 380.398438 493.109375 380.398438 492.738281 380.398438 492.367188 L 380.769531 488.746094 L 380.398438 492.367188 C 380.398438 492.738281 380.398438 493.109375 380.34375 493.503906 C 380 501.144531 381.164062 508.175781 383.753906 514.601562 C 385.394531 518.722656 385.316406 521.261719 383.464844 522.242188 C 382.140625 522.53125 380.714844 522.109375 379.207031 520.972656 C 378.730469 520.546875 378.230469 520.097656 377.648438 519.625 C 374 513.648438 371.675781 508.335938 370.5625 503.707031 C 368.871094 495.195312 368.632812 488.242188 369.851562 482.878906 C 375.957031 471.535156 381.03125 459.878906 385.078125 447.875 C 388.617188 447.824219 393.535156 447.847656 399.828125 447.957031 C 405.960938 448.007812 410.429688 448.167969 413.203125 448.457031 C 417.882812 456.28125 417.828125 464.769531 413.070312 473.890625 C 409.953125 479.546875 408.285156 487.292969 408.101562 497.101562 L 409.238281 516.503906 C 408.628906 519.914062 407.28125 521.15625 405.195312 520.257812 C 405.007812 520.125 404.851562 520.046875 404.691406 519.992188 C 404.558594 519.941406 404.480469 519.859375 404.425781 519.78125 C 400.882812 513.199219 399.140625 505.902344 399.167969 497.894531 C 400.222656 497.972656 401.253906 498.050781 402.234375 498.105469 C 401.253906 498.050781 400.222656 497.972656 399.167969 497.894531 C 399.140625 505.902344 400.882812 513.199219 404.425781 519.78125 C 404.480469 519.859375 404.558594 519.941406 404.691406 519.992188 C 401.121094 525.09375 398.109375 525.914062 395.730469 522.480469 L 395.570312 522.53125 C 395.464844 522.160156 395.332031 521.792969 395.148438 521.394531 C 391.710938 512.988281 390.203125 504.6875 390.679688 496.464844 C 387.007812 495.488281 383.597656 494.113281 380.398438 492.367188 C 383.597656 494.113281 387.007812 495.488281 390.679688 496.464844 C 390.203125 504.6875 391.710938 512.988281 395.148438 521.394531 C 391.472656 525.042969 388.617188 524.644531 386.582031 520.207031 C 386.476562 520.046875 386.398438 519.886719 386.292969 519.703125 C 385.445312 518.0625 384.601562 516.34375 383.753906 514.601562 " fill-opacity="1" fill-rule="evenodd"/><path stroke-linecap="butt" transform="matrix(0.263547, 0, 0, -0.263554, -3891.080657, 3929.498966)" fill="none" stroke-linejoin="miter" d="M 16265.406326 12927.09429 L 16265.895446 12927.405541 M 16278.997927 13020.602765 C 16267.89639 13021.506873 16257.195042 13023.300267 16246.804952 13025.997769 M 16290.603405 13019.802407 C 16286.897953 13019.995086 16282.999816 13020.306336 16278.997927 13020.602765 C 16278.894174 12990.203988 16285.504702 12962.502714 16298.90362 12937.602692 C 16299.096303 12937.202514 16299.496492 12936.995013 16300.000434 12936.802335 M 16263.701817 12931.392508 C 16250.703089 12963.303072 16244.996691 12994.798635 16246.804952 13025.997769 C 16232.902093 13029.792058 16219.903364 13034.994384 16207.793944 13041.604747 M 16280.895119 13202.298816 C 16284.496819 13199.304884 16287.802083 13195.199345 16290.899842 13189.997019 C 16297.703053 13176.894865 16298.192173 13162.295745 16292.500597 13146.19966 C 16285.904891 13126.798393 16283.400005 13113.39981 16285.000761 13105.79641 C 16288.898897 13087.69943 16291.092525 13076.405492 16291.403783 13071.692273 C 16290.899842 13058.29369 16284.496819 13049.193325 16272.298468 13044.598678 C 16262.204814 13042.597784 16254.097284 13047.296181 16248.198203 13058.50119 C 16246.301011 13062.102801 16244.300066 13069.306021 16242.002685 13080.007102 C 16239.794235 13091.30104 16238.593669 13097.199974 16238.504738 13097.792832 L 16229.596829 13109.605521 C 16226.202634 13116.097312 16223.905253 13123.004104 16222.89737 13130.592682 M 16220.496237 12957.196638 C 16210.595267 12981.592731 16206.296941 13008.300968 16207.601261 13037.291708 C 16207.793944 13038.699745 16207.793944 13040.19671 16207.793944 13041.604747 L 16209.202016 13055.299759 " stroke="#954e40" stroke-width="0.627" stroke-opacity="1" stroke-miterlimit="10"/><path fill="#fefffe" d="M 438.996094 625.878906 C 439.371094 624.828125 440.421875 624.453125 442.113281 624.722656 C 442.410156 624.882812 442.894531 625.097656 443.539062 625.449219 C 444.238281 625.960938 444.828125 626.605469 445.230469 627.355469 C 456.039062 634.425781 469.316406 640.125 485.042969 644.425781 C 490.660156 659.617188 486.683594 672.789062 473.082031 683.863281 C 470.902344 682.601562 468.753906 681.523438 466.628906 680.609375 C 456.65625 676.175781 445.554688 672.492188 433.351562 669.5625 C 431.308594 670.421875 429.101562 670.503906 426.738281 669.859375 C 424.855469 669.132812 423.644531 668.058594 423.082031 666.605469 C 423.457031 666.792969 423.78125 666.875 424.074219 666.875 L 427.679688 667.652344 C 438.59375 652.492188 442.894531 638.835938 440.582031 626.660156 C 440.152344 626.46875 439.613281 626.203125 438.996094 625.878906 " fill-opacity="1" fill-rule="evenodd"/><path fill="#e38b5c" d="M 423.140625 666.554688 C 395.515625 661.636719 380.199219 658.5 377.222656 657.117188 C 384.320312 641.589844 389.691406 627.363281 393.308594 614.492188 C 403.28125 613.589844 418.515625 617.363281 439.070312 625.820312 C 439.679688 626.140625 440.210938 626.40625 440.636719 626.589844 C 442.953125 638.769531 438.644531 652.4375 427.742188 667.621094 L 424.125 666.820312 C 423.859375 666.820312 423.515625 666.742188 423.140625 666.554688 " fill-opacity="1" fill-rule="evenodd"/><path fill="#e38b5c" d="M 342.691406 637.316406 C 342.558594 636.871094 342.425781 636.394531 342.347656 635.894531 C 340.34375 626.351562 343.746094 605.292969 352.523438 572.71875 L 392.320312 587.792969 L 387.945312 609.457031 C 391.660156 609.800781 397.328125 611.753906 404.945312 615.335938 L 387.945312 660.117188 C 361.402344 652.894531 346.566406 645.910156 343.402344 639.136719 C 343.191406 638.53125 342.953125 637.925781 342.691406 637.316406 " fill-opacity="1" fill-rule="evenodd"/><path fill="#ffffff" d="M 484.246094 689.804688 C 482.949219 687.398438 481.378906 685.179688 479.539062 683.175781 C 480 682.636719 480.378906 682.070312 480.703125 681.5 C 484.976562 673.953125 487.953125 665.835938 489.574219 657.179688 L 489.386719 656.503906 C 489.792969 655.207031 489.953125 653.90625 489.902344 652.609375 C 489.792969 649.578125 489.304688 647.0625 488.441406 645.058594 C 489.035156 644.761719 489.847656 644.707031 490.875 644.925781 C 492.039062 645.085938 493.523438 645.601562 495.363281 646.519531 C 496.554688 646.898438 498.125 647.171875 499.992188 647.359375 C 502.453125 647.441406 503.96875 647.601562 504.5625 647.847656 C 506.96875 648.144531 509.214844 649.144531 511.324219 650.875 C 513.355469 652.390625 514.894531 654.148438 515.949219 656.207031 C 517.4375 658.882812 518.222656 661.941406 518.359375 665.402344 C 518.332031 667.972656 518.140625 671.191406 517.738281 675.0625 C 515.789062 690.292969 512.976562 703.140625 509.242188 713.585938 C 506.96875 720.292969 504.265625 726.460938 501.152344 732.117188 C 500.125 733.929688 499.367188 735.226562 498.882812 735.984375 C 497.824219 737.363281 496.636719 738.390625 495.308594 739.066406 C 494.09375 739.769531 492.605469 740.257812 490.847656 740.527344 C 488.765625 740.746094 487.167969 740.933594 486.058594 741.125 C 484.273438 741.394531 482.757812 741.9375 481.539062 742.746094 C 480.890625 743.152344 480.433594 743.585938 480.132812 744.046875 C 477.292969 740.230469 476.480469 735.550781 477.644531 730.03125 L 477.699219 729.707031 C 477.996094 728.382812 478.214844 726.757812 478.402344 724.894531 C 481.839844 721.320312 485.625 719.726562 489.710938 720.050781 C 490.710938 719.941406 491.226562 719.183594 491.332031 717.832031 C 491.277344 716.425781 491.277344 714.964844 491.277344 713.476562 C 485.976562 713.207031 481.8125 714.667969 478.78125 717.886719 C 478.644531 716.480469 478.566406 715.261719 478.566406 714.316406 C 481.269531 711.554688 485.488281 710.417969 491.199219 710.878906 C 491.035156 708.605469 490.683594 706.386719 490.171875 704.25 C 484.894531 703.871094 480.621094 705.144531 477.320312 708.09375 C 477.105469 707.09375 476.859375 705.957031 476.589844 704.738281 C 480.675781 701.628906 484.976562 700.570312 489.464844 701.519531 C 488.710938 698.570312 487.707031 695.785156 486.4375 693.160156 C 480.972656 693.1875 476.753906 695.132812 473.804688 699.003906 C 473.453125 698.054688 472.882812 697.136719 472.125 696.214844 C 474.640625 692.484375 478.671875 690.347656 484.246094 689.804688 " fill-opacity="1" fill-rule="evenodd"/><path fill="#cccccc" d="M 490.207031 704.222656 C 490.71875 706.363281 491.046875 708.585938 491.207031 710.863281 C 485.515625 710.402344 481.316406 711.539062 478.605469 714.304688 C 478.308594 712.082031 477.875 710.019531 477.332031 708.070312 C 480.636719 705.140625 484.921875 703.867188 490.207031 704.222656 Z M 491.289062 713.464844 C 491.316406 714.953125 491.316406 716.417969 491.34375 717.800781 C 491.261719 719.183594 490.71875 719.914062 489.746094 720.023438 C 485.652344 719.699219 481.855469 721.296875 478.441406 724.875 C 478.550781 722.839844 478.660156 720.511719 478.792969 717.882812 C 481.832031 714.65625 486.003906 713.191406 491.289062 713.464844 Z M 486.4375 693.136719 C 487.710938 695.765625 488.742188 698.554688 489.5 701.511719 C 485 700.535156 480.691406 701.617188 476.597656 704.707031 C 475.839844 702.730469 474.917969 700.804688 473.808594 698.988281 C 476.789062 695.113281 480.988281 693.164062 486.4375 693.136719 Z M 469.742188 693.136719 C 469.308594 692.726562 468.847656 692.292969 468.414062 691.886719 L 468.386719 692.050781 C 468.304688 691.914062 468.195312 691.835938 468.089844 691.808594 C 465.082031 688.824219 463.96875 686.601562 464.671875 685.140625 C 464.972656 684.894531 465.214844 684.460938 465.460938 683.863281 C 467.355469 680.855469 469.390625 678.6875 471.476562 677.441406 C 472.371094 677.199219 473.457031 677.46875 474.675781 678.28125 C 481.640625 666.570312 483.726562 655.078125 480.882812 643.75 L 477.738281 642.613281 C 480.339844 640.390625 483.023438 639.984375 485.707031 641.417969 C 487.304688 640.984375 489.203125 641.335938 491.425781 642.449219 C 493.785156 642.964844 497.226562 642.828125 501.804688 642.097656 C 508.851562 641.121094 515.195312 641.933594 520.886719 644.535156 L 521.484375 644.671875 C 522.027344 645.214844 522.648438 645.703125 523.40625 646.1875 C 523.597656 646.351562 523.679688 646.460938 523.652344 646.570312 C 525.386719 648.003906 526.417969 649.929688 526.769531 652.371094 C 526.851562 662.019531 525.144531 674.1875 521.59375 688.878906 C 516.0625 713.410156 510.207031 730.59375 504.054688 740.433594 C 500.992188 744.714844 497.46875 746.421875 493.484375 745.582031 L 493.214844 745.363281 C 488.6875 744.390625 485.136719 744.824219 482.507812 746.613281 C 481.371094 745.851562 480.585938 744.984375 480.152344 744.035156 C 480.476562 743.550781 480.9375 743.117188 481.558594 742.707031 C 482.804688 741.921875 484.296875 741.378906 486.058594 741.109375 C 487.199219 740.917969 488.769531 740.730469 490.855469 740.511719 C 492.644531 740.242188 494.136719 739.753906 495.355469 739.050781 C 496.683594 738.371094 497.847656 737.34375 498.90625 735.960938 C 499.394531 735.199219 500.152344 733.925781 501.15625 732.082031 C 504.300781 726.445312 506.984375 720.265625 509.261719 713.570312 C 513 703.109375 515.820312 690.261719 517.769531 675.054688 C 518.175781 671.152344 518.367188 667.953125 518.394531 665.378906 C 518.257812 661.910156 517.445312 658.847656 515.980469 656.191406 C 514.925781 654.132812 513.378906 652.367188 511.347656 650.851562 C 509.234375 649.144531 506.984375 648.113281 504.597656 647.816406 C 504 647.597656 502.484375 647.4375 500.015625 647.328125 C 498.148438 647.164062 496.574219 646.867188 495.382812 646.515625 C 493.539062 645.59375 492.050781 645.050781 490.910156 644.914062 C 489.878906 644.699219 489.066406 644.753906 488.472656 645.050781 C 489.339844 647.054688 489.800781 649.550781 489.933594 652.585938 C 489.960938 653.886719 489.800781 655.1875 489.417969 656.488281 L 489.582031 657.167969 C 487.984375 665.839844 485 673.945312 480.71875 681.480469 C 480.394531 682.046875 480.015625 682.617188 479.582031 683.160156 C 481.398438 685.164062 482.96875 687.359375 484.269531 689.800781 C 478.6875 690.316406 474.648438 692.457031 472.152344 696.222656 C 471.421875 695.085938 470.636719 694.054688 469.742188 693.132812 " fill-opacity="1" fill-rule="evenodd"/><path fill="#999999" d="M 532.304688 647.574219 C 534.695312 648.5 536.027344 650.507812 536.351562 653.578125 L 532.222656 680.496094 C 532.167969 681.339844 531.816406 681.964844 531.21875 682.371094 L 527.226562 685.222656 C 526.65625 685.847656 526.4375 686.609375 526.574219 687.503906 L 528.9375 692.339844 C 529.234375 693.453125 528.3125 697.230469 526.191406 703.640625 C 520.351562 727.136719 513.890625 742.535156 506.773438 749.816406 C 501.257812 755.058594 494.304688 755.738281 485.9375 751.800781 C 482.898438 750.523438 481.703125 748.8125 482.351562 746.71875 C 484.988281 744.925781 488.574219 744.492188 493.082031 745.441406 L 493.328125 745.660156 C 497.347656 746.53125 500.851562 744.820312 503.921875 740.527344 C 510.085938 730.695312 515.925781 713.5 521.441406 688.972656 C 525 674.304688 526.710938 662.136719 526.628906 652.464844 C 526.273438 650.046875 525.242188 648.117188 523.53125 646.679688 C 524.535156 645.402344 527.46875 645.703125 532.304688 647.574219 " fill-opacity="1" fill-rule="evenodd"/><path fill="#ed7d0d" d="M 468.265625 691.964844 L 468.128906 691.777344 C 468.238281 691.804688 468.34375 691.882812 468.425781 691.992188 L 468.265625 691.964844 " fill-opacity="1" fill-rule="evenodd"/><path fill="#008395" d="M 440.710938 598.976562 C 400.476562 599.671875 366.730469 592.242188 339.503906 576.65625 L 359.675781 467.507812 C 404.285156 452.621094 444.789062 458.335938 481.160156 484.648438 C 474.777344 506.886719 467.640625 527.328125 459.753906 545.96875 C 452.191406 563.03125 446.71875 577.703125 443.257812 589.960938 C 442.375 593.128906 441.515625 596.132812 440.710938 598.976562 " fill-opacity="1" fill-rule="evenodd"/><path fill="#f89865" d="M 441.332031 618.335938 L 441.042969 657.007812 L 395.433594 652.382812 L 389.425781 577.324219 L 439.792969 577.613281 C 439.179688 589.734375 439.3125 597.894531 440.21875 602.121094 L 441.335938 618.335938 " fill-opacity="1" fill-rule="evenodd"/><path fill="#f89865" d="M 441.839844 692.675781 C 441.625 693.394531 441.492188 693.925781 441.492188 694.324219 C 430.402344 699.777344 416.011719 699.378906 398.296875 693.101562 L 398.164062 689.429688 C 398.058594 689.136719 398.058594 688.84375 398.164062 688.578125 C 395.425781 660.515625 394.335938 644.902344 394.894531 641.683594 C 411.703125 644.320312 426.8125 645.648438 440.242188 645.648438 C 443.808594 654.957031 444.367188 670.625 441.839844 692.675781 " fill-opacity="1" fill-rule="evenodd"/><path fill="#fefffe" d="M 398.164062 688.570312 C 398.058594 688.863281 398.058594 689.128906 398.164062 689.421875 L 398.296875 693.09375 C 416.007812 699.394531 430.421875 699.792969 441.511719 694.316406 C 441.511719 693.941406 441.617188 693.382812 441.855469 692.667969 C 442.894531 692.773438 443.453125 693.703125 443.558594 695.433594 C 443.558594 695.777344 443.503906 696.257812 443.425781 696.867188 C 443.132812 697.71875 442.707031 698.492188 442.148438 699.207031 C 438.265625 711.46875 436.378906 725.722656 436.484375 741.972656 C 423.402344 751.519531 409.679688 751.304688 395.320312 741.332031 C 395.851562 738.832031 396.25 736.4375 396.515625 734.125 C 398.136719 723.300781 398.667969 711.65625 398.164062 699.207031 C 396.78125 697.398438 396.089844 695.273438 396.089844 692.828125 C 396.300781 690.804688 396.96875 689.367188 398.164062 688.570312 " fill-opacity="1" fill-rule="evenodd"/><path fill="#00a5bb" d="M 393.957031 465 C 410.90625 461.230469 434.671875 464.332031 465.28125 474.277344 C 466.402344 497.429688 466.242188 519.269531 464.773438 539.800781 C 463.410156 557.179688 462.875 572.070312 463.140625 584.5 C 463.246094 588.644531 463.433594 592.574219 463.703125 596.261719 C 432.933594 607.007812 402.136719 608.105469 371.285156 599.496094 L 362.0625 473.019531 C 366.421875 471.441406 377.058594 468.769531 393.957031 465 " fill-opacity="1" fill-rule="evenodd"/><path fill="#cccccc" d="M 381.195312 737.34375 C 385.609375 739.472656 388.402344 743.226562 389.546875 748.546875 C 387.207031 750.355469 384.707031 751.925781 381.964844 753.28125 C 381.964844 748.679688 380.050781 744.6875 376.21875 741.335938 C 377.976562 740.191406 379.625 738.859375 381.195312 737.34375 Z M 363.769531 746.203125 C 367.546875 748.464844 369.832031 752.246094 370.632812 757.484375 C 369.222656 757.859375 367.8125 758.175781 366.453125 758.46875 C 365.070312 758.65625 364.246094 758.285156 363.980469 757.328125 C 363.394531 753.28125 361.054688 749.929688 356.902344 747.269531 C 358.871094 747.003906 361.160156 746.628906 363.769531 746.203125 Z M 367.226562 745.21875 C 369.300781 744.5 371.21875 743.675781 372.972656 742.746094 C 376.589844 745.378906 378.773438 749.289062 379.492188 754.503906 C 377.496094 755.492188 375.394531 756.289062 373.1875 756.898438 C 372.46875 751.234375 370.472656 747.347656 367.226562 745.21875 Z M 386.835938 730.640625 C 386.941406 730.535156 386.996094 730.453125 386.996094 730.347656 C 389.363281 726.753906 391.304688 725.1875 392.847656 725.613281 C 393.167969 725.796875 393.59375 725.929688 394.203125 726.039062 C 397.582031 727.316406 400.082031 728.832031 401.785156 730.640625 C 402.210938 731.464844 402.160156 732.582031 401.574219 733.964844 C 414.476562 738.355469 426.183594 737.984375 436.71875 732.820312 L 437.117188 729.574219 C 439.886719 731.652344 440.816406 734.152344 439.964844 737.078125 C 440.710938 738.542969 440.761719 740.484375 440.097656 742.878906 C 440.097656 745.300781 440.976562 748.679688 442.652344 753.015625 C 445.074219 759.71875 445.578125 766.078125 444.222656 772.144531 L 444.222656 772.785156 C 443.847656 773.394531 443.449219 774.113281 443.078125 774.964844 C 442.972656 775.207031 442.890625 775.3125 442.8125 775.3125 C 441.746094 777.253906 440.097656 778.664062 437.785156 779.570312 C 428.339844 781.644531 416.074219 782.46875 401.015625 782.042969 C 375.847656 781.722656 357.835938 779.570312 346.980469 775.605469 C 342.164062 773.527344 339.742188 770.441406 339.742188 766.320312 L 339.902344 765.972656 C 339.902344 761.398438 338.730469 757.992188 336.417969 755.78125 C 336.921875 754.558594 337.613281 753.628906 338.464844 753.015625 C 338.945312 753.203125 339.449219 753.546875 340.035156 754.078125 C 341.074219 755.117188 341.925781 756.472656 342.589844 758.175781 C 342.960938 759.160156 343.441406 760.679688 344.054688 762.726562 C 344.71875 764.402344 345.515625 765.761719 346.394531 766.746094 C 347.40625 767.941406 348.683594 768.871094 350.226562 769.589844 C 351.050781 769.910156 352.433594 770.390625 354.484375 771 C 360.65625 772.890625 367.28125 774.246094 374.304688 775.097656 C 385.316406 776.613281 398.433594 776.75 413.707031 775.472656 C 417.617188 775.046875 420.835938 774.539062 423.308594 773.980469 C 426.6875 773.183594 429.507812 771.773438 431.824219 769.804688 C 433.632812 768.339844 435.015625 766.453125 436.082031 764.136719 C 437.304688 761.714844 437.808594 759.320312 437.625 756.898438 C 437.730469 756.289062 437.570312 754.746094 437.117188 752.296875 C 436.957031 750.410156 436.90625 748.839844 436.984375 747.5625 C 437.515625 745.621094 437.730469 744.078125 437.625 742.878906 C 437.625 741.839844 437.4375 741.070312 436.984375 740.539062 C 435.203125 741.761719 432.835938 742.773438 429.910156 743.519531 C 428.632812 743.863281 427.300781 743.96875 425.945312 743.863281 L 425.359375 744.15625 C 416.578125 744.34375 408.039062 743.144531 399.738281 740.539062 C 399.125 740.296875 398.515625 740.058594 397.902344 739.765625 C 396.277344 741.949219 394.441406 743.945312 392.289062 745.777344 C 390.640625 740.40625 387.738281 736.867188 383.589844 735.164062 C 384.492188 734.257812 385.316406 733.273438 386.0625 732.183594 C 386.382812 731.703125 386.703125 731.199219 386.992188 730.640625 L 386.835938 730.640625 " fill-opacity="1" fill-rule="evenodd"/><path fill="#ffffff" d="M 376.308594 741.273438 C 380.105469 744.621094 382.046875 748.605469 382.046875 753.25 C 384.78125 751.871094 387.304688 750.304688 389.613281 748.496094 C 388.472656 743.160156 385.683594 739.441406 381.25 737.316406 C 382.097656 736.839844 382.921875 736.09375 383.664062 735.113281 C 387.835938 736.8125 390.730469 740.34375 392.375 745.734375 C 394.5 743.902344 396.359375 741.882812 397.980469 739.707031 C 398.589844 740 399.203125 740.265625 399.8125 740.476562 C 408.125 743.078125 416.648438 744.300781 425.441406 744.089844 L 426.023438 743.824219 C 427.378906 743.902344 428.707031 743.796875 429.984375 743.476562 C 432.929688 742.707031 435.269531 741.726562 437.074219 740.476562 C 437.5 741.007812 437.710938 741.777344 437.710938 742.839844 C 437.789062 744.007812 437.578125 745.574219 437.074219 747.515625 C 436.96875 748.789062 437.019531 750.355469 437.207031 752.242188 C 437.632812 754.710938 437.789062 756.226562 437.710938 756.863281 C 437.898438 759.253906 437.367188 761.671875 436.144531 764.085938 C 435.109375 766.398438 433.699219 768.285156 431.894531 769.746094 C 429.585938 771.738281 426.742188 773.117188 423.394531 773.914062 C 420.898438 774.5 417.6875 774.976562 413.78125 775.402344 C 398.511719 776.675781 385.390625 776.570312 374.371094 775.054688 C 367.359375 774.207031 360.746094 772.824219 354.558594 770.941406 C 352.511719 770.328125 351.105469 769.851562 350.308594 769.53125 C 348.742188 768.816406 347.464844 767.886719 346.484375 766.691406 C 345.582031 765.707031 344.785156 764.351562 344.121094 762.652344 C 343.507812 760.636719 343.03125 759.121094 342.660156 758.136719 C 341.996094 756.4375 341.144531 755.058594 340.082031 754.023438 C 339.523438 753.492188 339.019531 753.144531 338.542969 752.960938 C 341.675781 749.320312 346.058594 747.515625 351.796875 747.515625 L 352.0625 747.515625 C 353.441406 747.515625 355.0625 747.410156 356.972656 747.222656 C 361.117188 749.878906 363.480469 753.226562 364.039062 757.289062 C 364.332031 758.21875 365.152344 758.589844 366.535156 758.402344 C 367.890625 758.136719 369.296875 757.792969 370.703125 757.421875 C 369.90625 752.1875 367.625 748.417969 363.824219 746.160156 C 365.152344 745.734375 366.296875 745.390625 367.304688 745.179688 C 370.546875 747.300781 372.535156 751.179688 373.253906 756.863281 C 375.457031 756.226562 377.554688 755.429688 379.546875 754.445312 C 378.832031 749.242188 376.679688 745.335938 373.042969 742.679688 C 374.023438 742.257812 375.113281 741.777344 376.308594 741.273438 " fill-opacity="1" fill-rule="evenodd"/><path fill="#999999" d="M 336.390625 755.777344 C 338.703125 758.011719 339.875 761.417969 339.875 765.992188 L 339.714844 766.335938 C 339.714844 770.460938 342.136719 773.546875 346.949219 775.621094 C 357.828125 779.585938 375.835938 781.738281 401 782.058594 C 416.054688 782.484375 428.316406 781.660156 437.757812 779.585938 C 440.074219 778.679688 441.75 777.269531 442.785156 775.328125 C 444.25 776.046875 444.570312 778.945312 443.769531 784.054688 C 443.292969 786.605469 441.617188 788.335938 438.742188 789.292969 L 411.480469 790.835938 C 410.683594 790.941406 410.015625 790.730469 409.484375 790.199219 L 405.894531 786.953125 C 405.175781 786.472656 404.378906 786.421875 403.472656 786.820312 L 399.21875 790.066406 C 398.234375 790.597656 394.351562 790.492188 387.621094 789.773438 C 363.390625 788.894531 347.003906 785.730469 338.464844 780.304688 C 332.109375 775.992188 330.007812 769.371094 332.082031 760.378906 C 332.746094 757.132812 334.183594 755.589844 336.390625 755.777344 " fill-opacity="1" fill-rule="evenodd"/><path fill="#ed7d0d" d="M 387.152344 730.21875 C 387.152344 730.324219 387.101562 730.402344 386.996094 730.507812 L 386.996094 730.375 L 387.152344 730.21875 " fill-opacity="1" fill-rule="evenodd"/><path fill="#d92b2b" d="M 476.871094 352.703125 C 477.167969 354.285156 477.410156 355.792969 477.652344 357.242188 C 477.894531 358.800781 480.070312 372.34375 484.234375 397.902344 C 488.050781 420.042969 489.046875 446.648438 487.21875 477.660156 C 486.789062 484.886719 485.015625 488.972656 481.898438 489.914062 C 437.988281 505.5 397.4375 506.84375 360.273438 493.945312 C 353.960938 492.816406 351.460938 487.0625 352.832031 476.664062 C 355.4375 445.976562 356.699219 413.703125 356.59375 379.84375 C 356.59375 378.578125 356.890625 377.234375 357.453125 375.867188 L 455.1875 257.089844 C 461.554688 280.976562 466.714844 301.9375 470.636719 319.996094 C 472.976562 330.800781 475.070312 341.710938 476.871094 352.703125 " fill-opacity="1" fill-rule="evenodd"/><path fill="#f89865" d="M 419.242188 174.316406 C 422.535156 187.132812 427.683594 198.28125 434.664062 207.753906 C 425.160156 223.675781 410.511719 236.203125 390.6875 245.359375 C 386.441406 236.070312 380.445312 229.808594 372.695312 226.597656 C 381.480469 208.285156 397.003906 190.847656 419.242188 174.316406 " fill-opacity="1" fill-rule="evenodd"/><path fill="#f89865" d="M 310.117188 213.519531 C 310.332031 213.464844 310.542969 213.441406 310.785156 213.386719 C 315.914062 212.191406 320.382812 208.203125 324.15625 201.421875 C 320.382812 208.203125 315.914062 212.191406 310.785156 213.386719 C 310.542969 213.441406 310.332031 213.464844 310.117188 213.519531 Z M 320.273438 69.523438 C 334.710938 55.21875 349.335938 47.878906 364.117188 47.507812 C 376.425781 47.269531 388.523438 51.84375 400.378906 61.226562 C 409.925781 68.75 418.621094 78.722656 426.515625 91.136719 C 432.84375 101.320312 437.097656 110.359375 439.332031 118.257812 C 442.546875 129.636719 441.269531 142.851562 435.5 157.925781 C 432.523438 165.664062 425.398438 179.648438 414.125 199.855469 C 406.949219 212.644531 394.398438 222.585938 376.503906 229.683594 C 362.628906 235.109375 349.679688 237.742188 337.6875 237.527344 C 330.21875 237.449219 323.785156 235.214844 318.359375 230.882812 C 316.660156 229.5 315.195312 228.035156 313.972656 226.496094 L 312.484375 224.449219 C 310.835938 221.308594 309.746094 217.773438 309.214844 213.8125 L 305.757812 214.742188 L 300.070312 197.382812 C 291.667969 193.84375 289.539062 189.433594 293.714844 184.140625 C 295.789062 181.429688 298.660156 179.144531 302.355469 177.253906 C 302.992188 171.699219 301.742188 165.691406 298.527344 159.28125 C 296.480469 155.027344 293.261719 150.003906 288.824219 144.179688 C 286.085938 140.589844 284.4375 136.203125 283.851562 131.019531 L 283.851562 124.132812 C 285.046875 111.664062 291.453125 98.796875 303.125 85.527344 C 308.976562 78.933594 314.691406 73.589844 320.273438 69.523438 " fill-opacity="1" fill-rule="evenodd"/><path stroke-linecap="butt" transform="matrix(0.258599, 0, 0, -0.258605, -3891.080657, 3929.498966)" fill="none" stroke-linejoin="miter" d="M 16245.803606 14369.002581 C 16246.498457 14369.198947 16247.404784 14369.395313 16248.296006 14369.606784 C 16268.204993 14374.092992 16285.394998 14389.605906 16300.001971 14415.903845 " stroke="#000033" stroke-width="3.197" stroke-opacity="1" stroke-miterlimit="10"/><path fill="#330000" d="M 304.449219 71.527344 L 305.945312 66.929688 C 307.441406 63.296875 309.339844 59.875 311.667969 56.71875 C 318.988281 46.507812 328.851562 40.496094 341.28125 38.652344 L 349.488281 33.921875 C 356.382812 30.417969 363.144531 27.960938 369.828125 26.542969 C 391.289062 22.160156 408.128906 29.054688 420.316406 47.230469 C 434.375 68.375 441.804688 79.679688 442.632812 81.097656 C 450.839844 94.488281 456.210938 106.4375 458.699219 116.914062 C 465.59375 145.003906 454.554688 170.613281 425.632812 193.703125 C 422.640625 193.839844 419.675781 193.222656 416.707031 191.859375 C 410.800781 189.027344 408.179688 183.683594 408.847656 175.851562 C 406.898438 167.671875 403.503906 161.363281 398.640625 156.871094 C 388.992188 148.050781 377.015625 153.15625 362.664062 172.242188 C 360.871094 165.640625 358.121094 158.15625 354.378906 149.871094 C 346.972656 133.246094 338.582031 120.683594 329.304688 112.183594 C 322.625 112.636719 315.835938 112.289062 308.832031 111.113281 C 294.90625 108.789062 287.183594 103.710938 285.6875 95.824219 C 285.6875 95.050781 285.765625 94.058594 285.953125 92.832031 C 286.410156 90.425781 287.128906 88.097656 288.066406 85.828125 C 291.246094 78.746094 296.699219 73.988281 304.449219 71.527344 " fill-opacity="1" fill-rule="evenodd"/><path fill="#330000" d="M 296.820312 90.855469 C 299.691406 106.199219 309.652344 116.65625 326.707031 122.21875 C 306.394531 123.175781 293.144531 114.144531 286.910156 95.175781 L 296.820312 90.855469 " fill-opacity="1" fill-rule="evenodd"/><path fill="#77390d" d="M 391.75 164.054688 C 389.648438 163.503906 387.492188 163.742188 385.230469 164.765625 C 386.125 165.1875 386.835938 165.820312 387.414062 166.609375 C 388.308594 168.082031 388.621094 169.789062 388.332031 171.710938 C 388.042969 173.839844 387.28125 175.601562 385.992188 177.023438 C 384.519531 178.441406 383.019531 179.179688 381.46875 179.230469 C 379.863281 179.363281 378.679688 178.757812 377.945312 177.390625 C 376.945312 175.96875 376.605469 174.15625 376.945312 171.921875 C 377.183594 170.183594 377.839844 168.632812 378.996094 167.316406 C 380.074219 165.660156 381.3125 164.371094 382.757812 163.425781 C 385.441406 161.453125 388.121094 160.953125 390.804688 161.925781 C 393.117188 162.691406 394.722656 164.503906 395.644531 167.398438 C 394.722656 165.792969 393.433594 164.6875 391.75 164.058594 " fill-opacity="1" fill-rule="evenodd"/><path fill="#3a210b" d="M 330.75 139.289062 C 322.433594 137.65625 312.722656 137.269531 301.636719 138.175781 C 299.019531 133.125 297.828125 128.746094 298.011719 125.070312 C 309.71875 124.734375 320.15625 126.832031 329.273438 131.363281 L 330.75 139.289062 " fill-opacity="1" fill-rule="evenodd"/><path fill="#000000" d="M 325.164062 149.46875 C 328.195312 151.59375 330.035156 154.417969 330.683594 157.964844 C 331.355469 161.566406 330.65625 164.855469 328.558594 167.886719 C 326.539062 170.894531 323.738281 172.757812 320.140625 173.40625 C 316.5625 174.105469 313.25 173.429688 310.21875 171.359375 C 307.160156 169.285156 305.296875 166.4375 304.621094 162.863281 C 303.976562 159.3125 304.699219 155.996094 306.824219 152.941406 C 308.84375 149.960938 311.667969 148.121094 315.242188 147.421875 C 318.84375 146.75 322.132812 147.421875 325.164062 149.46875 Z M 324.230469 150.945312 C 321.539062 149.160156 318.664062 148.535156 315.527344 149.105469 C 312.367188 149.730469 309.882812 151.359375 308.09375 154.003906 C 306.304688 156.644531 305.683594 159.546875 306.253906 162.707031 C 306.875 165.789062 308.480469 168.199219 311.074219 170.011719 C 313.714844 171.851562 316.617188 172.472656 319.777344 171.851562 C 322.910156 171.28125 325.398438 169.648438 327.210938 166.957031 C 329.050781 164.3125 329.699219 161.464844 329.050781 158.382812 C 328.507812 155.21875 326.898438 152.757812 324.230469 150.945312 " fill-opacity="1" fill-rule="evenodd"/><path fill="#ffffcc" d="M 324.300781 150.917969 C 326.941406 152.703125 328.546875 155.191406 329.117188 158.347656 C 329.738281 161.40625 329.117188 164.28125 327.277344 166.921875 C 325.441406 169.613281 322.953125 171.246094 319.820312 171.816406 C 316.660156 172.410156 313.761719 171.816406 311.144531 169.949219 C 308.53125 168.164062 306.925781 165.730469 306.304688 162.675781 C 305.734375 159.488281 306.355469 156.589844 308.167969 153.945312 C 309.953125 151.304688 312.414062 149.675781 315.574219 149.054688 C 318.707031 148.507812 321.605469 149.105469 324.300781 150.917969 " fill-opacity="1" fill-rule="evenodd"/><path fill="#3f0920" d="M 320.183594 158.128906 C 319.71875 157.898438 319.433594 157.585938 319.328125 157.226562 C 319.25 156.785156 319.382812 156.425781 319.742188 156.085938 C 320.078125 155.75 320.519531 155.519531 321.113281 155.390625 C 321.734375 155.285156 322.277344 155.335938 322.792969 155.519531 C 323.234375 155.675781 323.492188 155.957031 323.570312 156.371094 C 323.671875 156.761719 323.570312 157.148438 323.285156 157.5625 C 322.921875 157.871094 322.40625 158.078125 321.8125 158.207031 C 321.191406 158.3125 320.648438 158.285156 320.183594 158.128906 " fill-opacity="1" fill-rule="evenodd"/><path stroke-linecap="butt" transform="matrix(0.258574, 0, 0, -0.25858, -3891.080657, 3929.498966)" fill="none" stroke-linejoin="miter" d="M 16286.503987 14584.90706 C 16288.301708 14584.302799 16290.401568 14584.197053 16292.803565 14584.60493 C 16295.099814 14585.103445 16297.093925 14585.904091 16298.498867 14587.097506 C 16299.601671 14588.698798 16299.99445 14590.194344 16299.601671 14591.704996 C 16299.299533 14593.306288 16298.302477 14594.393957 16296.595397 14594.998218 C 16294.601286 14595.693118 16292.501427 14595.90461 16290.099429 14595.496734 C 16287.80318 14594.998218 16286.0961 14594.106933 16284.796907 14592.792666 C 16283.391965 14591.493505 16282.893437 14590.103704 16283.195575 14588.396667 C 16283.603462 14586.99176 16284.706265 14585.798345 16286.503987 14584.891954 Z M 16286.503987 14584.90706 " stroke="#330000" stroke-width="1.599" stroke-opacity="1" stroke-miterlimit="10"/><g clip-path="url(#b25729b066)"><g clip-path="url(#90c6565ee9)"><path fill="url(#2a73f5c73e)" d="M 304.511719 166.457031 L 311.628906 143.914062 L 333.824219 151.480469 L 326.707031 174.019531 Z M 304.511719 166.457031 " fill-rule="nonzero"/></g></g><path fill="#330033" d="M 323.082031 153.398438 C 324.738281 154.511719 325.800781 156.089844 326.265625 158.058594 C 326.707031 160.050781 326.371094 161.835938 325.28125 163.4375 C 324.246094 165.09375 322.746094 166.128906 320.753906 166.492188 C 318.8125 166.878906 317.003906 166.46875 315.292969 165.300781 C 313.585938 164.242188 312.527344 162.742188 312.113281 160.75 C 311.644531 158.78125 311.980469 156.945312 313.09375 155.238281 C 314.183594 153.632812 315.707031 152.625 317.648438 152.261719 C 319.617188 151.871094 321.425781 152.261719 323.082031 153.398438 " fill-opacity="1" fill-rule="evenodd"/><path fill="#000000" d="M 321.816406 155.15625 C 323.085938 155.90625 323.859375 156.992188 324.144531 158.417969 C 324.480469 159.839844 324.222656 161.132812 323.371094 162.320312 C 322.566406 163.484375 321.429688 164.234375 319.957031 164.519531 C 318.457031 164.777344 317.03125 164.519531 315.714844 163.71875 C 314.5 162.917969 313.722656 161.804688 313.386719 160.40625 C 313.101562 158.984375 313.359375 157.71875 314.164062 156.578125 C 315.066406 155.390625 316.257812 154.667969 317.757812 154.382812 C 319.230469 154.097656 320.578125 154.355469 321.816406 155.15625 " fill-opacity="1" fill-rule="evenodd"/><path stroke-linecap="butt" transform="matrix(0.258623, 0, 0, -0.25863, -3891.080657, 3929.498966)" fill="none" stroke-linejoin="miter" d="M 16289.695119 14593.604868 C 16284.907149 14596.701112 16279.696267 14597.697951 16274.002057 14596.595386 C 16268.202119 14595.492821 16263.595397 14592.69865 16260.106372 14588.107147 C 16256.994947 14583.696888 16255.998082 14578.803312 16257.100675 14573.305592 C 16258.399619 14567.898493 16261.405316 14563.593959 16266.102662 14560.497715 C 16271.192712 14557.401471 16276.705674 14556.404632 16282.505612 14557.401471 C 16288.199822 14558.504036 16292.595088 14561.403933 16295.706513 14565.904814 C 16298.999187 14570.496317 16299.996051 14575.495618 16298.697106 14580.993338 C 16297.594514 14586.506163 16294.603921 14590.704971 16289.695119 14593.604868 Z M 16289.695119 14593.604868 " stroke="#330000" stroke-width="0.639" stroke-opacity="1" stroke-miterlimit="10"/><path fill="#ffffff" d="M 314.941406 155.585938 C 315.433594 156.203125 315.585938 156.796875 315.433594 157.339844 C 315.304688 157.882812 314.863281 158.21875 314.167969 158.425781 C 313.496094 158.605469 312.773438 158.554688 311.972656 158.269531 C 311.171875 157.882812 310.527344 157.417969 310.0625 156.851562 C 309.574219 156.230469 309.445312 155.664062 309.625 155.148438 C 309.753906 154.578125 310.191406 154.242188 310.914062 154.089844 C 311.5625 153.855469 312.335938 153.882812 313.160156 154.167969 C 313.933594 154.554688 314.527344 155.019531 314.941406 155.585938 " fill-opacity="1" fill-rule="evenodd"/><path fill="#ffffff" d="M 312.765625 162.167969 C 312.507812 162.015625 312.300781 161.808594 312.222656 161.523438 C 312.171875 161.292969 312.222656 161.058594 312.40625 160.828125 C 312.664062 160.570312 312.945312 160.441406 313.28125 160.386719 C 313.589844 160.335938 313.902344 160.386719 314.183594 160.542969 C 314.46875 160.671875 314.648438 160.851562 314.699219 161.109375 C 314.777344 161.367188 314.726562 161.652344 314.546875 161.882812 C 314.261719 162.117188 313.953125 162.246094 313.617188 162.296875 C 313.28125 162.347656 313 162.296875 312.765625 162.167969 " fill-opacity="1" fill-rule="evenodd"/><path fill="#ffffff" d="M 323.589844 156.347656 C 323.175781 156.0625 322.917969 155.675781 322.8125 155.132812 C 322.734375 154.667969 322.789062 154.253906 323.019531 153.863281 C 323.277344 153.503906 323.617188 153.269531 324.105469 153.164062 C 324.519531 153.0625 324.933594 153.164062 325.296875 153.449219 C 325.660156 153.734375 325.917969 154.097656 325.996094 154.589844 C 326.097656 155.105469 326.046875 155.546875 325.867188 155.933594 C 325.609375 156.296875 325.296875 156.53125 324.882812 156.632812 C 324.390625 156.738281 323.976562 156.632812 323.589844 156.347656 " fill-opacity="1" fill-rule="evenodd"/><path fill="#ff3333" d="M 437.695312 213.589844 C 429.117188 218.824219 419.078125 227.082031 407.605469 238.316406 C 384.183594 261.871094 372.207031 272.789062 371.699219 271.035156 C 372.683594 266.785156 373.292969 262.589844 373.535156 258.417969 C 373.71875 253.691406 373.375 248.832031 372.472656 243.839844 C 372.472656 243.363281 372.417969 242.988281 372.3125 242.699219 C 371.542969 238.15625 373.082031 234.757812 377.011719 232.5 C 388.855469 224.957031 401.152344 218.503906 413.902344 213.164062 C 422.292969 209.898438 428.347656 206.660156 432.039062 203.390625 C 434.90625 204.480469 436.792969 207.878906 437.695312 213.589844 " fill-opacity="1" fill-rule="evenodd"/><path fill="#b22424" d="M 371.777344 270.960938 C 363.875 284.90625 358.484375 297.621094 355.554688 309.132812 C 354.167969 307.117188 353.59375 303.296875 353.777344 297.671875 C 353.90625 297.253906 354.089844 296.808594 354.273438 296.390625 C 358.382812 285.0625 364.816406 272.371094 373.609375 258.347656 C 373.371094 262.507812 372.769531 266.71875 371.777344 270.960938 " fill-opacity="1" fill-rule="evenodd"/><path fill="#d92b2b" d="M 355.503906 309.191406 C 358.4375 297.671875 363.824219 284.949219 371.71875 271 C 372.226562 272.757812 384.203125 261.851562 407.621094 238.273438 C 419.113281 227.042969 429.144531 218.800781 437.730469 213.574219 C 444.292969 225.84375 450.480469 241.578125 456.292969 260.808594 C 436.210938 320.207031 403.164062 360.402344 357.132812 381.367188 C 358.785156 365.070312 358.226562 341.011719 355.503906 309.191406 " fill-opacity="1" fill-rule="evenodd"/><path fill="#f89865" d="M 413.015625 338.066406 L 452.046875 334.761719 C 452.046875 349.019531 451.835938 361.996094 451.410156 373.71875 C 442.484375 381.925781 429.746094 383.285156 413.226562 377.824219 C 413.972656 362.101562 413.917969 348.859375 413.015625 338.066406 " fill-opacity="1" fill-rule="evenodd"/><path fill="#ff3333" d="M 414.605469 240.097656 C 420.789062 236.445312 426.972656 235.402344 433.160156 236.976562 C 438.597656 239.9375 442.675781 247.027344 445.421875 258.222656 C 450.753906 285.789062 453.710938 314.234375 454.273438 343.558594 C 440.730469 350.757812 426.199219 352.011719 410.710938 347.320312 C 411.617188 319.648438 410.207031 291.949219 406.472656 264.167969 C 405.085938 253.558594 407.804688 245.507812 414.605469 240.09375 " fill-opacity="1" fill-rule="evenodd"/><path fill="#f89865" d="M 413.253906 365.710938 C 425.453125 358.066406 438.242188 356.574219 451.644531 361.261719 C 451.644531 368.484375 451.324219 375.277344 450.65625 381.671875 C 449.992188 389.449219 448.738281 396.910156 446.902344 404.050781 C 441.757812 427.285156 435.390625 448.757812 427.773438 468.5 C 418.660156 478.652344 408.617188 477.398438 397.613281 464.746094 C 405.925781 423.792969 410.640625 394.59375 411.785156 377.113281 C 412.292969 373.199219 412.773438 369.414062 413.253906 365.710938 " fill-opacity="1" fill-rule="evenodd"/><path fill="#f89865" d="M 420.933594 508.355469 L 423.988281 521.683594 L 424.679688 523.089844 L 423.988281 521.683594 Z M 424.679688 523.089844 L 428.234375 531.535156 C 428.847656 536.101562 427.039062 538.304688 422.847656 538.117188 L 416.6875 527.921875 L 415.414062 525.292969 L 411.933594 508.648438 L 415.414062 525.292969 L 416.6875 527.921875 L 420.164062 535.703125 C 419.5 539.046875 417.722656 540.800781 414.855469 540.957031 L 406.414062 528.984375 L 404.792969 526.648438 L 400.546875 507.71875 L 404.792969 526.648438 L 406.414062 528.984375 L 408.882812 535.621094 C 408.136719 538.039062 406.492188 539.5 403.945312 540.027344 L 393.667969 522.746094 L 388.414062 502.410156 C 388.945312 495.71875 390.058594 489.1875 391.757812 482.871094 L 398.5 459.214844 C 408.113281 458.417969 416.792969 459.613281 424.546875 462.824219 C 429.324219 467.019531 431.128906 474.160156 429.933594 484.222656 C 428.527344 492.90625 428.289062 500.019531 429.21875 505.542969 L 431.632812 517.992188 L 435.535156 526.222656 C 435.484375 526.4375 435.535156 526.621094 435.667969 526.703125 C 436.28125 530.765625 434.554688 532.941406 430.414062 533.234375 L 424.679688 523.089844 " fill-opacity="1" fill-rule="evenodd"/><path stroke-linecap="butt" transform="matrix(0.264775, 0, 0, -0.264782, -3891.080657, 3929.498966)" fill="none" stroke-linejoin="miter" d="M 16269.804415 12846.905796 L 16264.994912 12856.804864 L 16251.805663 12919.695662 M 16285.796749 12920.802115 L 16297.304148 12870.495378 L 16300.00396 12865.095887 M 16231.003827 12842.89306 L 16224.896053 12851.803696 L 16208.800448 12923.206807 " stroke="#954e40" stroke-width="0.625" stroke-opacity="1" stroke-miterlimit="10"/></svg>